<svg version="1.2" xmlns="http://www.w3.org/2000/svg" viewBox="0 0 783 968" width="783" height="968"><style>.s0{fill:#ffffff}</style><path class="s0" d="m178.5 814.1c0.2-0.6 0.1-2.3 1-3.2c1.2-1.3 5.9-0.4 6.7 1.1c0.9 1.4 0 4.1-1.6 5.1c-1.8 1.1-4.1 0.2-6.1-3zm7.3-27.2c2.1-1.4 4.2-1.1 5.3 0.6c1.2 1.7 0.5 4.3-1.3 5.5c-1.7 1.1-4.5 0.6-5.6-1c-1.1-1.6-0.4-3.8 1.6-5.1zm23.5 4.9c1.8-1.2 4-0.9 5.1 0.7c1.1 1.8 0.5 4.2-1.5 5.5c-1.8 1.3-3.6 0.9-4.9-1c-1.1-1.9-0.6-3.9 1.3-5.2zm-19.2-23c-1.2-1.9-0.6-4.4 1.3-5.5c2-1.1 3.5-0.2 4.7 1.5c1.2 1.8 0.9 3.9-0.7 5.1c-1.7 1.1-4.2 0.7-5.3-1.1zm89.9 141.9c-1.1-1.8-0.5-4.3 1.2-5.3c1.8-1 4.2-0.3 5.2 1.6c1 1.7 0.4 4-1.3 5c-1.8 1-4 0.4-5.1-1.3zm24.2 23.7c1.2 1.9 0.6 4.3-1.3 5.5c-1.9 1.2-3.5 0.9-4.7-0.9c-1.3-2-0.8-4.2 1.2-5.5c1.8-1.1 3.8-0.7 4.8 0.9zm-4.9 24.6c1 1.5 0.2 4.1-1.5 5.2c-1.7 1-3.6 0.4-4.7-1.7c-0.9-1.7-1.5-3.5 0.6-4.7c1.7-1.1 4.6-0.4 5.6 1.2zm-90-141.8c0.9 1.7 0.2 4.1-1.4 5c-1.7 1-3.9 0-5.1-2.3c-0.7-1.6-1.1-3.2 0.8-4.3c1.9-1 4.8-0.2 5.7 1.6zm120.7 0.8c1.5 2.2 1 4.4-1 5.7c-1.9 1.2-3.5 0.7-4.8-1c-1.2-1.6-0.6-4 1.3-5.2c1.8-1.1 3.4-0.9 4.5 0.5zm-55.3 115.7c-1-1.7-0.3-3.9 1.7-5.1c1.8-1 3.4-0.9 4.5 0.8c1.1 1.7 0.4 4.3-1.2 5.3c-1.7 1.1-4.1 0.6-5-1zm37.8-142.5c0.8 1.5 0.5 3.2-1.2 4.4c-1.7 1.2-4.3 0.7-5.2-1.1c-1-1.9-0.7-3.8 1-5.1c1.5-1.2 3.9-0.5 5.4 1.8zm-107.7-93c0.2-0.6 0.2-2.2 1-3.1c1.2-1.3 5.3-0.5 6.2 0.9c0.9 1.5 0.3 3.8-1.3 4.9c-1.7 1-4.1 0.2-5.9-2.7zm236.8 145c1.7-0.9 3.3-0.6 4.6 1.2c1.2 1.7 0.8 3.8-0.9 5c-1.8 1.2-3.4 1.1-4.8-0.8c-1.2-1.7-0.8-4 1.1-5.4zm-122.3 3.2c-0.8-1.4-1.4-3.2 0.5-4.6c1.6-1.1 4.6-0.6 5.5 0.9c0.9 1.6 0.2 4.3-1.5 5.4c-1.5 1-3.1 0.5-4.5-1.7zm11.1-52c1.6-1 3.8-0.5 5 1.3c1.2 1.9 0.9 3.5-1 4.8c-1.7 1.2-3.9 0.8-5-0.9c-1.1-1.8-0.6-4.1 1-5.2zm-61.1 162.8c-0.7-1.5-1.1-3 0.9-4.1c2-1.1 5.2-0.7 6 0.7c0.8 1.4-0.2 4-1.9 4.9c-1.8 1-3.9 0.4-5-1.5zm-54.5-188.8c1.6-0.9 3.8-0.1 4.6 1.7c0.9 1.8 0.2 3.8-1.8 4.8c-2 0.9-3.5 0.4-4.5-1.6c-0.8-1.9-0.1-4.1 1.7-4.9zm135.5-62c-1-1.7-0.4-3.9 1.4-4.9c1.9-1.1 3.5-0.8 4.7 1.1c1.2 1.8 0.7 3.7-1.3 4.8c-1.8 1-3.8 0.6-4.8-1zm-172.1 133.1c-1.3 0.6-2.8 1.4-4.2-0.4c-1.1-1.6-0.5-4.6 1.1-5.7c1.5-1 4-0.3 5 1.4c1 1.6 0.4 3.2-1.9 4.7zm33.1 50.8c1.7-1 4-0.3 5.2 1.5c1 1.7 0.6 3.2-1 4.3c-1.7 1.1-4.4 0.6-5.4-1c-1-1.6-0.4-3.8 1.2-4.8zm-5.4 47.6c1.2 1.9 0.9 4.6-0.7 5.4c-2.2 1.1-3.5-0.3-4.5-1.9c-1.1-1.6-1.5-3.4 0.5-4.8c1.6-1 3.6-0.4 4.7 1.3zm15.9-69.8c0.9 1.7 0.9 3.4-0.8 4.8c-1.3 1.1-4 0.3-5.2-1.4c-1.2-1.7-0.8-3.7 0.9-4.7c1.7-1.1 3.9-0.5 5.1 1.3zm41.6 34.3c0.7 1.5 0.4 3-1.2 4.2c-1.6 1.1-4.2 0.5-5.2-1.4c-1-1.6-1.1-3.3 0.7-4.5c1.6-1.2 4.3-0.5 5.7 1.7zm82.1-171.7c-0.8-1.8-1.3-3.5 0.6-4.9c1.8-1.2 4.2-0.8 5.1 0.7c0.9 1.5 0.3 4.4-1.3 5.4c-1.9 1.3-3.2 0.1-4.4-1.2zm-36.2 181.1c1.1 1.6 0.6 3.8-1.1 4.8c-1.7 0.9-3.3 1-4.6-0.8c-1.2-1.7-0.9-4 0.7-5.1c1.6-1.1 3.9-0.6 5 1.1zm158.3-184.5c2-1 3.6-0.6 4.8 1.3c1.1 1.8 0.9 3.5-1 4.7c-1.8 1.1-3.8 0.6-4.9-1.3c-1.1-1.9-0.6-3.5 1.1-4.7zm143.3 9.4c2.7-1.7 5.4-1.3 6.4 0.4c1 1.7 0.6 3.2-0.9 4.3c-1.6 1.3-4.6 0.7-5.4-1.2c-0.5-1.2-0.1-2.7-0.1-3.5zm-339.8 123c-1.4 0.5-3.2 2-4.6-0.4c-0.9-1.5 0-4.2 1.8-5.2c1.8-1.1 3.3-0.6 4.5 0.9c1.2 1.6 0.5 3.4-1.7 4.7zm-114.9-50.3c-0.7-1.3-1.1-2.8 0.7-4c1.7-1 4.6-0.6 5.5 0.8c1 1.4 0.3 3.9-1.4 4.9c-1.6 1-3.5 0.4-4.8-1.7zm144.2 33.3c-1.7 1-4 0.4-5-1.4c-0.8-1.5-0.8-3 0.9-4c1.7-1.1 5.1-0.9 5.8 0.4c0.8 1.3-0.1 4-1.7 5zm192.4-230.8c2.6-1.6 4.7-1.1 5.8 0.8c0.9 1.7 0.9 3.3-0.9 4.5c-1.6 1-4.6 0.2-5.2-1.6c-0.4-1.3 0.2-2.9 0.3-3.7zm-17.1 216.3c-0.3 0.8-0.5 2.4-1.4 3.3c-1.4 1.4-4.4 0.8-5.5-1.1c-0.8-1.4-0.8-3 0.7-4.1c1.5-1.1 4.6-0.5 6.2 1.9zm-181.1 36.8c-1.5 0.6-3.3 1.6-4.8-0.6c-0.9-1.6-0.1-4.2 1.5-5c1.6-0.9 4.4-0.2 5.2 1.5c1 1.9-0.1 3.1-1.9 4.1zm12-52.1c1.5 2.1 1 4.5-0.9 5.6c-1.7 1-3.3 0.8-4.5-0.9c-1.2-1.6-0.5-3.9 1.4-5.1c1.6-1 3.1-0.8 4 0.4zm99.6 72.6c2.5-1.1 5.3-0.6 6.4 1.1c1.1 1.6 0.3 2.8-1 3.7c-1.8 1.3-5.2 1.3-5.6-0.2c-0.4-1.4 0.1-3.1 0.2-4.6zm56-127.8c-1.7-2.6-1.3-4.9 0.5-6.1c1.6-1 3.3-1.1 4.6 0.6c1.1 1.6 0.3 4.4-1.7 5.3c-1.1 0.5-2.6 0.1-3.4 0.2zm-1.5 22.3c-1.8 0.9-3.6 1.4-4.8-0.5c-1.1-1.7-1.1-3.5 0.6-4.9c1.5-1.1 4.4-0.5 5.4 1c1.3 1.9 0.1 3.2-1.2 4.4zm-293.7-16.7c-1-1.6-0.6-3.9 0.9-4.8c1.5-0.9 4.2 0 5.1 1.8c0.9 1.7 0.6 3.2-1 4.3c-1.6 1-4 0.3-5-1.3zm122.7 23.8c-0.4 0.8-0.7 2.4-1.7 3.3c-1.3 1.3-4 0.4-4.9-1.3c-1-1.7-0.9-3.4 0.8-4.6c1.5-1 4.3 0 5.8 2.6zm316.9-28.1c2-1.3 4.3-0.7 5.4 1.2c0.9 1.6 0.9 3.1-0.8 4.3c-1.6 1.1-4.3 0.4-5.4-1.4c-1-1.7-0.6-3.1 0.8-4.1zm-258.7 88.5c1.3 2 0.9 4.7-0.7 5.7c-1.9 1.2-3.2 0-4.1-1.4c-1.1-1.8-1.5-3.7 0.4-5.1c1.7-1.2 3.3-0.3 4.4 0.8zm-27-98.6c-1.7 0.8-3.5 1.4-4.9-0.4c-1-1.3-0.2-4.1 1.3-5.1c1.6-0.9 4-0.3 5 1.4c1.2 1.9 0 3-1.4 4.1zm116 118.8c1.5-0.7 3.1-1.1 4.4 0.7c1 1.4 0.1 4.2-1.6 5.3c-1.6 1-3.1 0.8-4.2-0.9c-1.2-1.8-0.6-3.8 1.4-5.1zm32.9-17.5c0.9 1.7 0.4 3.3-1.3 4.3c-1.8 1.1-3.6 0.9-4.8-1c-1-1.7-0.7-3.4 1-4.5c1.6-1.2 3.9-0.6 5.1 1.2zm-277.1 15.8c-0.9-1.7-1-3.4 0.9-4.6c1.8-1.1 3.6-0.7 4.8 1.1c1.2 1.8 0.8 3.5-1 4.7c-1.8 1.2-3.4 0.7-4.7-1.2zm291.2-80.4c-1.6 1-3.7 0.6-4.7-1.1c-1.1-1.7-0.7-4 0.9-4.8c1.9-1 3.6-0.6 4.9 1c1 1.4 0.4 3.9-1.1 4.9zm-104.6 142.4c0.9 1.7 0.5 3.3-1.2 4.4c-2 1.2-3.6 0.4-4.8-1.2c-1-1.5-1.1-3.2 0.5-4.4c1.4-1.2 4.3-0.5 5.5 1.2zm59-154.1c-2.7 1.8-5.3 1.6-6.3 0.2c-0.9-1.4-0.3-3.8 1.3-4.7c1.7-1 4.5-0.6 5.2 1.2c0.5 1.1-0.1 2.6-0.2 3.3zm-190.3 172.8c1.5 0.4 3.2 0.5 4.3 1.4c1.3 1.1 0.4 3.9-1.3 4.9c-1.7 1-3.4 0.8-4.6-0.8c-1-1.4-0.2-3.8 1.6-5.5zm-159-274.8c0.2-0.5 0.2-2.1 1-2.8c1.2-1.2 5.5-0.1 5.8 1.4c0.2 1.3-0.3 3.2-1.2 4.2c-1.1 1.2-3.8 0-5.6-2.8zm513.5 18.1c-1.6 0.6-3.4 1.1-4.7-0.9c-1-1.5-0.4-3.8 1.2-4.7c1.7-1 4.3-0.4 5.2 1.1c0.9 1.4 0.2 3.3-1.7 4.5zm-13.9 65.1c0.8 1.4 0.6 3-1.1 4.1c-1.9 1.3-3.6 0.5-4.7-1.2c-1.1-1.5-1.1-3.3 0.6-4.5c1.6-1.2 3.8-0.5 5.2 1.6zm-229.7 46.7c1.1 1.6 0.6 2.9-0.9 3.9c-1.8 1.2-4.3 0.8-5.3-1c-1-1.6-0.9-3.1 0.7-4.3c1.5-1.2 4.3-0.4 5.5 1.4zm-129.4-101.7c1.9-1.2 4.6-0.6 5.5 0.8c1 1.5 0.4 4.3-1.1 5.1c-2.1 1.1-3.5-0.3-4.6-1.8c-1-1.5-1.1-3.1 0.2-4.1zm392.9-10.7c1.9-0.8 3.7-0.7 4.9 1c1.2 1.9 0.2 3.5-1.4 4.7c-1.6 1.2-4 0.8-4.8-0.8c-0.9-1.9-0.3-3.5 1.3-4.9zm-239 190.4c2.5-0.9 4.7-0.3 5.7 1.5c1 1.6 0.6 2.9-1 3.9c-1.8 1.1-5.5 0.9-5.6-0.5c-0.2-1.6 0.6-3.3 0.9-4.9zm36.2 61.4c-0.9-1.8-0.8-3.4 0.9-4.6c1.5-1 4.1-0.3 5 1.3c1.1 1.9 0.4 3.4-1.2 4.4c-1.9 1.2-3.5 0.6-4.7-1.1zm-210.3-21.7c-1.7 0.7-3.2 0.1-4.1-1.7c-0.9-1.9-0.5-3.6 1.5-4.6c1.7-0.8 3.4-0.4 4.5 1.3c0.9 1.6 0.1 3.9-1.9 5zm31.2-21.6c-0.4 0.9-0.7 2.5-1.7 3.4c-1.5 1.2-4.5 0.4-5.1-1.6c-0.3-1.1 0.1-3 0.9-3.9c1.2-1.4 4.3-0.4 5.9 2.1zm391.5-254.4c2.5-1.7 5.2-1.3 5.9 0.7c0.5 1.2 0.3 3.1-0.5 4.1c-1 1.3-4.6 0.5-5.4-1.3c-0.5-1.2 0-2.7 0-3.5zm-273.8 138c-0.8-1.8-1-3.5 0.9-4.6c1.6-1 3.3-0.8 4.5 0.9c1.2 1.5 0.9 4.2-0.6 5.1c-2.1 1.1-3.5-0.1-4.8-1.4zm-204.8 46c0.7 0.3 2.3 0.6 3.1 1.5c1.2 1.4 0.3 3.9-1.7 5.1c-1.3 0.7-2.7 1.8-4-0.1c-1.1-1.7-0.1-4.8 2.6-6.5zm16.6 28.9c1.6-1.1 4-0.6 5.1 1.1c1.1 1.8 0.6 3.3-1 4.5c-1.6 1.2-3.5 0.7-4.7-1c-1.1-1.7-0.8-3.6 0.6-4.6zm162.6 64.9c-2.5 1.6-5.3 1.1-5.9-0.8c-0.4-1.2-0.1-3.1 0.7-4c1.2-1.4 4.6-0.5 5.4 1.3c0.4 1.2-0.1 2.7-0.2 3.5zm5.9-245.9c0.7 1.2 0.3 2.6-1.3 3.8c-1.5 1.1-3.8 0.7-4.7-0.9c-1-1.8-1-3.5 0.7-4.9c1.5-1.1 3.8-0.3 5.3 2zm-136.4 169.2c-1.8 1-3.2 0.6-4.3-1c-1.2-1.9-0.9-4.2 0.6-5.2c1.4-0.9 3.9-0.2 4.8 1.4c1.1 1.9 0.5 3.5-1.1 4.8zm249.8-22.1c0.8 1.3 0.2 2.8-1.5 3.8c-1.8 1.1-3.5 0.8-4.7-1.1c-1-1.6-1-3.3 0.6-4.6c1.5-1.1 4.1-0.4 5.6 1.9zm34.7-158.5c-1.7 0.9-3.3 1.1-4.6-0.6c-1.1-1.6-0.7-4 0.8-4.9c1.4-0.9 4.3-0.4 5.2 1.1c1.2 1.9 0 3.3-1.4 4.4zm-274.3 6.9c1.8-1.1 3.9-0.7 4.8 1c1 1.9 0.3 3.4-1.4 4.4c-1.6 1.1-3.3 1.1-4.6-0.6c-1.1-1.6-0.5-3.7 1.2-4.8zm14.6 154.6c-1.1-1.8-1.3-3.6 0.5-4.7c1.7-1.1 3.4-0.7 4.4 1.1c1 1.8 1.3 3.9-0.5 5.2c-2.1 1.4-3.3-0.3-4.4-1.6zm208.5 69.9c-2.7 1.8-4.9 1.6-5.7 0c-0.9-1.7-0.8-3.5 0.8-4.7c1.3-1.1 4.9-0.4 5.3 1.1c0.4 1.3-0.3 2.9-0.4 3.6zm-113.8 48.6c-0.9-1.8-1-3.5 0.9-4.8c1.6-1.1 4-0.7 4.8 1c1 1.9 0.3 3.6-1.4 4.7c-1.6 1.1-3.1 0.6-4.3-0.9zm164.2-181.5c-1.5-2.7-1.9-4.5 0-5.9c1.3-1.1 4-0.5 4.7 1.1c0.9 2 0.3 4-1.4 5c-0.9 0.6-2.5-0.1-3.3-0.2zm-138.3 65.2c-1-2.2-0.5-3.8 1.5-4.8c1.9-0.8 3.6-0.4 4.6 1.6c1.1 2.1-0.1 3.4-1.8 4.4c-1.9 1-3.3 0.3-4.3-1.2zm-108.3 49.1c-1.1-1.9-1-3.5 0.7-4.6c1.8-1.2 3.6-0.9 4.8 0.9c1.1 1.8 1 3.6-0.8 4.8c-1.9 1.2-3.5 0.3-4.7-1.1zm101.5-104.2c1 1.9 0.6 3.4-1.2 4.5c-1.8 1.1-3.3 0.5-4.4-1.2c-1.1-1.7-1.1-3.3 0.8-4.5c1.9-1.1 3.5-0.4 4.8 1.2zm87.3 48.1c-2.6 1.4-4.1 1.3-5.4-0.4c-1.2-1.6-0.8-3.9 0.7-4.8c1.5-0.9 4.5-0.3 5 1.4c0.4 1.3-0.2 2.9-0.3 3.8zm61.9-87.1c2.5-1.7 4.8-1.3 5.9 0.4c1 1.7 0.6 3.2-1 4.3c-1.7 1.1-4.3 0.8-5-1c-0.4-1.3 0-2.9 0.1-3.7zm-152.3 160.3c1.1 1.8 0.7 4.2-0.9 5c-2.1 0.9-3.6-0.1-4.7-1.8c-1-1.6-0.8-3.2 0.9-4.2c1.8-1.1 3.5-0.5 4.7 1zm287.1-325.2c1.9-1.2 4.5-0.8 5.4 0.7c1.1 1.8 0.3 3.2-1.2 4.2c-1.7 1.1-3.6 1.4-4.8-0.5c-1.1-1.6-0.6-3.3 0.6-4.4zm-378.7 279.6c0.7 0.3 2.4 0.4 3.2 1.3c1.5 1.6 1.1 3.5-0.6 4.7c-1.5 1.1-3.3 1.3-4.7-0.2c-1.2-1.1-0.3-4.2 2.1-5.8zm418.6-319.3c-0.2 0.7-0.3 2.3-1.2 3.2c-1.3 1.3-4.4 0.3-5.4-1.5c-0.9-1.6-0.3-2.8 1.1-3.7c1.7-1.1 3.9-0.6 5.5 2zm-503 253.6c2.6-1.7 5.2-1.5 6-0.1c1.1 1.8 0.4 3.4-1.1 4.6c-1.7 1.3-4.1 0.9-4.9-1.1c-0.5-1.1 0-2.6 0-3.4zm187.9 142.1c0.3-0.7 0.5-2.3 1.4-3.1c1.4-1.3 4.4-0.4 5.3 1.2c1 1.8 0.3 3.3-1.3 4.3c-1.5 1-3.9 0.2-5.4-2.4zm287.8-304.1c2.3-1.5 5-1.1 5.9 0.4c1 1.7 0.5 3.2-1.1 4.3c-1.6 1.1-4.5 0.6-5-1.1c-0.4-1.2 0.1-2.7 0.2-3.6zm-315.6 104.8c-0.8-1.8-0.4-3.2 1.4-4.1c1.6-0.8 3.4-1.7 4.9 0.2c1 1.4 0 4.3-1.8 5.2c-1.9 1-3.3 0.3-4.5-1.3zm40-45.1c0.8 1.2 0.4 2.8-1.2 3.8c-1.7 1.2-3.5 1-4.8-0.8c-1.1-1.7-0.9-3.3 0.7-4.6c1.4-1.2 3.8-0.5 5.3 1.6zm154.7-39c1 1.8 0.3 4.3-1.3 5.3c-1.8 0.9-3.1 0.2-3.9-1.3c-0.9-1.8-1.1-3.7 0.8-4.9c1.7-1.1 3.3-0.5 4.4 0.9zm-15.2 70.4c0.9 1.3 0.5 2.7-1 3.7c-1.7 1.3-4.1 0.8-5.2-1c-1-1.5-0.8-3 0.7-4.1c1.6-1.1 4.3-0.5 5.5 1.4zm72.4-28.6c0.7-1.3 1.2-2.9 2.2-3.9c1.1-1.1 4.3-0.1 5 1.3c0.9 1.8 0.2 3.1-1.4 3.9c-1.7 1-4.4 0.5-5.8-1.3zm-171.2 250c0.9 1.6 0.2 3.1-1.4 4.1c-1.6 1.1-3.2 0.9-4.3-0.8c-1.2-1.7-0.9-3.8 0.7-4.8c1.5-0.9 3.9-0.3 5 1.5zm-73.9-236.5c1.8-1 3.3-0.9 4.4 0.8c1.2 1.8 0.8 3.5-1 4.7c-1.6 1.1-3.3 1-4.4-0.8c-1.2-1.9-0.3-3.5 1-4.7zm33 178c1.4-0.8 3-0.6 4 1.1c1 1.6 1.2 3.4-0.7 4.6c-1.7 1-3.5 0.9-4.9-0.8c-1-1.3-0.3-3.7 1.6-4.9zm116.3-168.3c0.8 1.5 0.3 2.9-1.3 3.9c-1.7 1.1-3.9 0.4-4.9-1.4c-0.8-1.7-0.6-3.2 1.1-4.3c1.6-0.9 3.9-0.2 5.1 1.8zm-18 172.4c-1.7-2.6-1.6-5.1-0.1-6c1.8-1.1 3.4-0.4 4.6 1.1c1 1.3 0.3 4.7-1.3 5.2c-1.1 0.4-2.6-0.3-3.2-0.3zm-164.6-141.2c0.8 0.4 2.6 0.6 3.4 1.6c1.2 1.6 0.6 3.5-1.2 4.3c-1.3 0.5-3.3 0.5-4.4-0.2c-1.3-0.8-0.3-4 2.2-5.7zm253.5 57.8c2.3-0.9 5.7-0.4 6 1.1c0.3 1.2-0.2 2.9-1 3.7c-1.3 1.3-5.2 0.8-5.4-0.5c-0.3-1.3 0.2-2.9 0.4-4.3zm-139.2-30.9c2.8-1.5 4.3-0.9 5.4 0.8c1 1.5 0.7 2.9-0.9 4c-1.5 1-5 0.8-5.2-0.5c-0.2-1.6 0.5-3.2 0.7-4.3zm112.9-145.5c-0.3 0.7-0.5 2.3-1.4 3.2c-1.3 1.3-4.1 0.7-5-0.8c-1.1-1.6-0.8-3.1 0.8-4.2c1.5-1.2 4-0.6 5.6 1.8zm126.4-45.6c1.6-0.8 3.3-0.7 4.3 1c1.2 1.9 0.4 3.6-1.3 4.7c-1.5 1-3.1 1-4.4-0.6c-1.1-1.4-0.4-4 1.4-5.1zm-413 102.5c1.6-0.8 3.3-0.7 4.4 1c1.3 1.9 0.3 3.5-1.4 4.6c-1.6 1-3.2 0.9-4.4-0.7c-1-1.5-0.4-3.8 1.4-4.9zm229.2-20.4c-0.4 0.7-0.6 2.2-1.5 3c-1.5 1.4-4.4 1.1-5.2-0.3c-1.1-1.8-0.4-3.4 1.1-4.6c1.4-1.2 4-0.5 5.6 1.9zm-145.9 214.5c-2.5 1.2-4.2 1.4-5.3-0.5c-1-1.7-1.1-3.5 0.7-4.8c1.3-1.1 4.3-0.3 4.9 1.4c0.4 1.3-0.2 2.9-0.3 3.9zm23.3 1.2c1.1 1.7 1.1 3.3-0.7 4.5c-1.7 1.2-3.3 0.5-4.4-1.1c-1.2-1.6-1.3-3.2 0.4-4.6c1.3-1.1 3.6-0.5 4.7 1.2zm-32.8 16.4c1.6-1.1 3.8-0.6 4.8 1.1c1.1 1.8 0.6 3.3-1 4.4c-1.6 1.2-3.2 0.9-4.2-0.7c-1.2-1.7-1.3-3.4 0.4-4.8zm89.3-73.2c0.2-0.8 0.2-2.4 1-3.4c1-1.3 4.4-0.5 5.3 1c1.1 1.7 0.4 3.2-1.1 4.2c-1.8 1.3-3.4 0.5-5.2-1.8zm216.1-174.7c-0.3 0.9-0.5 2.6-1.5 3.5c-1.2 1.3-3.7 0.2-4.7-1.7c-1-1.6-0.8-3.1 0.9-3.9c1.9-1 3.5-0.4 5.3 2.1zm-269.5 110.4c1 1.9 0.2 3.4-1.4 4.4c-1.7 0.9-3.2 0.5-4.2-1.1c-1.1-1.8-0.7-4.1 0.9-4.8c2-0.9 3.5-0.1 4.7 1.5zm284.9-77.5c-0.7-0.3-2.2-0.5-3-1.3c-1.3-1.6-0.8-4.2 0.8-5c1.9-0.9 3.6-0.4 4.6 1.2c1.3 2-0.1 3.4-2.4 5.1zm-178 124.8c1.9-0.8 3.4-0.3 4.4 1.4c0.9 1.8 0.4 3.5-1.4 4.5c-1.8 1-3.3 0.3-4.3-1.5c-0.9-1.7-0.5-3.3 1.3-4.4zm-78.3-66.3c0.9 2.4 0.4 5.4-1.1 6.1c-1.8 0.9-3-0.2-3.8-1.6c-1-1.7-1.3-3.8 0.7-4.8c1.1-0.5 2.8 0.1 4.2 0.3zm367-136.6c2-0.9 3.9-1 5.1 0.7c1.2 1.6 0.4 3.2-1.2 4.2c-1.6 1.1-3.4 1.3-4.6-0.4c-1.3-1.7-0.5-3.2 0.7-4.5zm-25.8 115.9c1.7-0.7 3.7-0.9 4.8 0.9c1.3 1.7 0.3 3.3-1.3 4.3c-1.7 1-3.5 1.1-4.7-0.6c-1.1-1.6-0.5-3.3 1.2-4.6zm-58.8-154c-0.7-0.3-2.3-0.5-3.1-1.4c-1.2-1.5-1-3.4 0.8-4.7c1.4-1.1 3.7-0.4 4.7 1.2c0.9 1.5 0.2 3.3-2.4 4.9zm-63.9 179.8c-1.9 1-3.5 0.5-4.6-1.3c-0.9-1.5-1-3 0.6-4.1c1.5-1 4.2-0.4 5.1 1.2c1 1.7 0.5 3.1-1.1 4.2zm-210.6 74.1c-2.4 1.7-5.1 1.3-5.8-0.5c-0.4-1.1-0.2-3 0.5-3.9c1-1.3 4.6-0.7 5.3 1c0.5 1.1 0 2.6 0 3.4zm-13.5-55.3c0.8 1.9 0.9 3.6-1 4.7c-1.7 1.1-3.2 0.3-4.2-1.2c-1-1.6-1.1-3.4 0.7-4.6c1.8-1.1 3.3-0.2 4.5 1.1zm-51.6 16.6c-2.7 1.3-4.2 0.9-5.2-0.9c-0.9-1.7-0.8-3.2 1-4.3c1.5-0.9 4.2-0.3 4.6 1.4c0.4 1.3-0.3 2.8-0.4 3.8zm-63.7 152.2c1.6-0.9 3.3-1.1 4.3 0.7c1.1 1.9 0.3 3.6-1.4 4.7c-1.4 1.1-2.9 0.9-4.1-0.6c-1-1.4-0.4-3.7 1.2-4.8zm200.9-219.2c-2.6 1.4-4.2 1.3-5.3-0.5c-1.1-1.6-1.3-3.3 0.5-4.6c1.3-0.9 4.3-0.2 4.9 1.5c0.5 1.2 0 2.7-0.1 3.6zm55.4-34.4c-1.3-0.5-3-0.7-4-1.6c-1.3-1.3-0.8-4 0.7-4.8c1.8-1.1 3.4-0.7 4.6 0.9c1.1 1.3 0.5 3.7-1.3 5.5zm-223.7 216.8c-1.1-1.9-1.1-3.5 0.8-4.6c1.9-1 3.6-0.5 4.7 1.3c1.1 1.9 0.2 3.4-1.4 4.4c-1.8 1-3.2 0.4-4.1-1.1zm-59.5-41.7c0.7 1.7 1 3.5-0.9 4.5c-1.9 1.1-3.4 0.3-4.4-1.4c-1-1.7-0.9-3.4 0.9-4.5c1.9-1.3 3.2 0 4.4 1.4zm-0.5 96c0.7 0.2 2.1 0.4 3 1.2c1.2 1.2 0.8 4.8-0.7 5.3c-1 0.4-2.8 0-3.7-0.7c-1.5-1.4-1.1-4 1.4-5.8zm151.1-355.1c2.8-1.5 4.4-1.1 5.5 0.7c1 1.5 0.8 2.9-0.8 4c-1.6 1.1-4.5 0.7-5-0.9c-0.3-1.3 0.2-2.9 0.3-3.8zm-114.1 296.5c-1.3-2.6-1.3-4.3 0.5-5.3c1.8-1 3.5-0.6 4.6 1.1c1.1 1.7 0.5 3.6-1.3 4.3c-1.2 0.5-2.8 0-3.8-0.1zm110.4-171.6c0.3-1 0.5-2.8 1.4-3.6c1.6-1.3 3.6-1 4.8 0.7c1.3 1.7 0.5 3.2-1 4.2c-1.7 1.1-3.3 1-5.2-1.3zm-18 190.9c-1-1.2-0.6-2.7 0.9-3.7c1.7-1.1 3.5-0.7 4.6 1c1 1.6 0.9 3.5-0.7 4.6c-2 1.3-3.5 0.1-4.8-1.9zm-112.4-125.9c-0.5 1.3-0.7 2.9-1.6 3.7c-1.4 1.2-3.4 1-4.5-0.6c-1.2-1.5-1-3.3 0.6-4.6c1.3-1.1 3.7-0.4 5.5 1.5zm364 7.6c1.1 2.3-0.4 3.5-1.9 4.6c-1.4 1-2.7 0.7-3.7-0.9c-1-1.7-0.6-4.3 1-5c1.9-0.8 3.4-0.3 4.6 1.3zm-114.7 51.2c-0.6-1.1-0.5-2.4 1.1-3.3c1.7-0.9 4.3-0.5 5.2 1c1 1.8 0.2 3.2-1.4 4.2c-1.6 1-3.6 0.3-4.9-1.9zm-12.4-30.9c1 1.5 0.6 4-0.8 4.9c-1.8 1-3.2 0.2-4.2-1.3c-1.1-1.6-1.3-3.2 0.5-4.5c1.4-1.1 3.5-0.6 4.5 0.9zm17.6-211.9c0.3-0.8 0.6-2.4 1.4-3.3c1.2-1.2 4.1-0.2 5 1.4c0.9 1.7 0.5 3.1-1.1 4c-2 1-3.5 0.3-5.3-2.1zm-44.8 307.5c0.4-0.9 0.7-2.6 1.6-3.6c1.1-1.1 4-0.2 4.7 1.3c0.9 1.8 0.4 3.3-1.2 4.3c-1.8 1.2-3.2 0.1-5.1-2zm-30.2-61c1.6 2.5 1.1 4.9-0.6 5.8c-1.6 1-3 0.5-4-1c-1-1.5-0.3-4.3 1.4-4.9c1.1-0.4 2.5 0.1 3.2 0.1zm332.2-167.3c-0.3 0.7-0.4 2.3-1.3 3.2c-1.1 1.2-3.7 0.3-4.9-1.5c-0.9-1.5-0.9-2.8 0.6-3.8c1.7-1.1 3.9-0.5 5.6 2.1zm-236.7 47.6c0.3-0.8 0.4-2.3 1.2-3.1c1.4-1.3 4.5-0.6 5.4 0.9c1 1.6 0.2 3-1.2 3.9c-1.8 1.1-3.5 0.7-5.4-1.7zm-87.4 195.6c1.1 1.8 0.6 3.4-0.9 4.6c-1.6 1.1-3.1 0.8-4.2-0.9c-1.1-1.6-1.1-3.3 0.6-4.5c1.7-1.2 3.2-0.7 4.5 0.8zm96.3-315.3c-2.7 1.1-4.5 1.2-5.7-0.7c-1-1.5-0.6-3.1 1-3.9c1.8-1 3.9-0.9 4.8 1c0.6 1-0.1 2.6-0.1 3.6zm-294.4 198.4c1.8-0.9 3.5-0.8 4.7 0.8c1.3 1.8 0.3 3.3-1.1 4.4c-1.6 1.2-3.2 1.1-4.3-0.6c-1.1-1.7-0.8-3.3 0.7-4.6zm-7.9-50.9c1.1 1.8 0.7 3.3-0.9 4.3c-1.8 1.2-3.4 0.7-4.5-1c-1-1.6-1-3.2 0.7-4.3c1.8-1.1 3.5-0.6 4.7 1zm410.1-5.1c2.4-1.1 5.6-0.8 5.9 0.6c0.3 1.2-0.2 3.1-1 4c-1.6 1.4-3.6 0.9-4.6-0.9c-0.6-1-0.2-2.5-0.3-3.7zm-17-23c-1.6-2.4-1.3-4.7 0.2-5.7c1.6-1 3.1-0.6 4 0.9c1 1.7 1.1 3.8-0.8 4.9c-0.9 0.6-2.6-0.1-3.4-0.1zm-138.5-37.5c0.9 0.3 2.6 0.5 3.5 1.4c1.4 1.5 1 3.3-0.6 4.5c-1.6 1.2-3.1 0.8-4.3-0.8c-1.1-1.7-1-3.2 1.4-5.1zm-230.7 71.2c-0.5 1.4-0.6 3.1-1.5 4.1c-1.1 1.4-3.9 0.8-4.5-1c-0.4-1.2-0.2-3.1 0.6-4.1c1-1.4 3.6-0.8 5.4 1zm139.7 5.9c0.9 0.4 2.6 0.5 3.4 1.5c1.2 1.3 1.2 3.3-0.6 4.5c-1.7 1-3.4 0.9-4.5-0.9c-1.1-1.7-0.3-3.2 1.7-5.1zm113.1-65.9c-1.4-2.6-1.1-4.2 0.7-5.3c1.5-0.9 3.1-0.6 4 1c0.9 1.7 0.8 3.9-1 4.8c-1.1 0.5-2.8-0.3-3.7-0.5zm-435.2-25.8c0.2-0.5 0.2-1.9 0.9-2.5c1.4-1.4 4.9-0.8 5.5 1c0.3 1-0.3 2.8-1.1 3.7c-1.3 1.3-3.6 0.5-5.3-2.2zm569.2-141c-1-1.5-0.8-2.8 0.6-3.8c1.4-1 4.1-0.5 4.7 1.3c0.4 1.2 0.2 3.1-0.5 4.1c-1 1.3-3.6 0.3-4.8-1.6zm-463.5 214c0.5-1.4 0.6-3.2 1.6-4c1.5-1.3 3.3-0.6 4.5 1c1 1.5 0.5 3.7-1.1 4.5c-1.8 0.8-3.2 0.4-5-1.5zm347.3-243.3c2.6-1.5 4.3-1.1 5.5 0.5c1.1 1.4 1.1 3-0.5 4.1c-1.3 1-4.3 0.4-5-1.3c-0.5-1-0.1-2.5 0-3.3zm-299 157.8c-0.8-0.4-2.6-0.7-3.3-1.7c-1.2-1.6-0.8-3.6 1-4.7c1.7-1 3.1-0.1 4.1 1.4c1.1 1.8 0.7 3.3-1.8 5zm386.5-85.8c-2.6 0.9-4.7 1.3-5.6-0.6c-0.5-1.1 0.3-3.1 1.1-4.2c0.9-1.1 4.2-0.2 4.7 1.3c0.3 1.1-0.2 2.5-0.2 3.5zm-336 188.3c1.1 2.6 1.1 4.3-0.7 5.4c-1.7 0.9-3.3 0.4-4.3-1.3c-1.1-1.7-0.8-3.6 1-4.4c1.2-0.5 2.9 0.2 4 0.3zm-4.6 24.8c1 1.7 0.2 2.8-1.1 3.6c-1.7 1.1-3.5 0.9-4.6-0.7c-0.9-1.5-1.1-3.2 0.6-4.4c1.4-0.9 4.1 0 5.1 1.5zm-111.4-46c-2.6 1.4-4.2 1-5.2-0.6c-1-1.6-0.8-3.2 0.7-4.3c1.5-1.1 4.1-0.7 4.7 1c0.4 1.3-0.1 2.9-0.2 3.9zm439.7-22.3c-1.2-2.5-1.3-4.3 0.4-5.4c1.6-1 3.3-0.6 4.2 1.1c1.1 1.7 0.7 3.6-1 4.4c-1.1 0.5-2.7 0-3.6-0.1zm-161.6 84.7c-1.8 1-3.2 0.9-4.3-0.8c-1.1-1.6-1-3.2 0.6-4.3c1.7-1.2 3.4-0.7 4.5 0.9c1.3 1.6 0.6 3-0.8 4.2zm-1.8-97.9c-2.6 1.3-4.4 0.8-5.1-1c-0.5-1-0.2-2.9 0.5-3.8c1.1-1.3 4.5-0.3 5.1 1.5c0.3 1.1-0.3 2.5-0.5 3.3zm-229.5 42c0.8 1.5 0.4 3-1.1 4.1c-1.6 1.1-3.2 0.8-4.3-0.8c-1.1-1.5-1.3-3.1 0.4-4.3c1.4-1.2 3.8-0.7 5 1zm204.7 172.7c-1.2-0.5-2.8-0.6-3.7-1.5c-1.4-1.2-0.9-4.1 0.7-4.4c1.3-0.3 3.5 0.1 4.2 1c0.7 0.8 0 2.8-0.1 4.2q-0.5 0.4-1.1 0.7zm213.7-294.9c-2.6 1.4-4.2 1-5.3-0.6c-0.9-1.4-1.2-3 0.5-4.1c1.8-1.1 3.8-0.6 4.8 1.1c0.5 1 0 2.7 0 3.6zm-94.3 171.1c2.3-1.5 4.8-1.2 5.5 0.5c0.4 1.1 0.2 2.9-0.5 3.8c-1 1.3-4.9 0.7-5.3-0.7c-0.3-1.3 0.2-2.8 0.3-3.6zm-141.8-124.5c0.8-2.3 1-4 1.9-4.9c1.3-1.3 3.1-1 4.3 0.6c1 1.5 0.6 4.4-0.9 4.8c-1.3 0.4-2.8-0.2-5.3-0.5zm-90.9 101.3c-1.4-0.5-3.1-0.7-3.9-1.7c-1.2-1.3-1-3.2 0.6-4.3c1.6-1.1 3.6-0.6 4.4 1c0.6 1.1 0 2.8-0.1 4.3q-0.5 0.4-1 0.7zm103.5 187.2c1.6 2.5 1.1 4.8-0.5 5.8c-1.5 0.9-2.8 0.7-3.8-0.8c-1.1-1.6-0.7-4.1 1.1-4.9c1.1-0.5 2.5-0.1 3.2-0.1zm-164-30.2c-0.7-0.2-2.1-0.4-2.9-1.2c-1.3-1.3-0.7-3.7 0.9-4.8c1.6-1 3-0.7 4.1 0.7c1 1.4 0.4 3.7-2.1 5.3zm521.7-278.2c2.6-1.1 4.3-1.1 5.4 0.7c1 1.7 0.4 3.3-1.3 4.2c-1.7 0.9-3.6 0.5-4.4-1.3c-0.4-1.1 0.2-2.7 0.3-3.6zm-304.9 76.3c1 2.5 0.7 5-1 5.5c-1.1 0.4-3 0-3.7-0.8c-1.4-1.5-1-3.6 0.7-4.7c1-0.5 2.6 0 4 0zm-64.4-33.6c-2.4 1.7-4.9 1.4-5.5-0.4c-0.3-1.1-0.1-2.9 0.6-3.8c1-1.3 4.2-0.6 4.9 1.1c0.5 1 0 2.4 0 3.1zm-276.4 35.5c-2.5 1.4-4.1 1.2-5.3-0.5c-0.9-1.4-0.8-2.9 0.7-4c1.4-1.1 4.2-0.7 4.7 0.9c0.4 1.2 0 2.7-0.1 3.6zm497.9-63.8c0.8 0.3 2.4 0.5 3.3 1.4c1.2 1.2 0.3 3.5-1.7 4.7c-1.3 0.8-2.5 0.9-3.5-0.6c-1-1.5-0.4-3.9 1.9-5.5zm-63.7-159.2c2.6-1.1 4.3-1 5.5 0.8c1 1.5 0.7 2.8-0.8 3.8c-1.6 1-4.3 0.5-4.9-1.2c-0.4-1.1 0.1-2.5 0.2-3.4zm-464.9 143c-2.7 1.5-4.4 1.5-5.7-0.3c-0.9-1.4-1-2.8 0.6-3.8c1.7-1 4.6-0.7 5.2 0.8c0.4 1.1-0.1 2.5-0.1 3.3zm461 200.9c0.3-0.9 0.3-2.5 1.1-3.5c1-1.2 4.5-0.5 4.8 1c0.2 1.2-0.3 3.1-1.2 3.9c-1.3 1.4-3 0.7-4.7-1.4zm-35.5-55.6c-1.3-2.5-1.1-4.3 0.7-4.9c1.1-0.4 3 0.1 4 0.9c1.3 1.1 0.7 4-0.9 4.4c-1.3 0.3-2.9-0.3-3.8-0.4zm121.1 22.1c0.7 1.7 0.7 3.3-1.1 4.3c-1.9 1-3.6 0.1-4.3-1.6c-0.3-1.1 0.1-3 0.9-3.7c1.5-1.4 3.2-0.6 4.5 1zm42.1-182c-2.5 1.3-4.2 1.2-5.5-0.6c-1-1.5-0.5-2.7 0.9-3.7c1.7-1.1 4.6-0.9 5 0.7c0.4 1.2-0.2 2.7-0.4 3.6zm-461 88.4c1.4 2.6 0.8 4-0.8 4.9c-1.5 0.8-3 1.2-4.1-0.5c-0.9-1.5-0.1-4.8 1.4-5.1c1.3-0.2 2.7 0.5 3.5 0.7zm-109.9-72.1c2.6-1.6 4.8-1.2 5.7 0.3c1 1.8 0.1 3.1-1.5 4.1c-1.6 1-3.5 1-4.3-1c-0.5-1.1 0.1-2.6 0.1-3.4zm17.5 31.3c0.3-0.8 0.3-2.2 1.1-3.1c1-1.2 4-0.4 4.8 1c0.8 1.6 0.8 3.4-0.9 4.3c-1.8 1-3.3-0.1-5-2.2zm19.3 49.5c-0.4 0.9-0.6 2.5-1.5 3.3c-1.6 1.2-3.6 0.7-4.3-1.1c-0.5-1.1 0-3.2 0.8-3.9c1.5-1.3 3.2-0.6 5 1.7zm141.5 12c-0.9-0.3-2.7-0.5-3.3-1.4c-1.1-1.6-0.4-3.6 1.3-4.7c1.5-1 3-0.5 3.9 1.1c1 1.8 0.3 3.3-1.9 5zm100.1-129.4c0.8 0.2 2.4 0.3 3.3 1.1c1.2 1.1 0.3 4-1.2 4.8c-1.7 1.1-3 0.2-3.9-1.2c-1-1.7-0.6-3.2 1.8-4.7zm-196.1 108.7c-1.3-2.1-0.5-5.4 1.2-5.9c1-0.3 2.7 0.1 3.5 0.8c1.2 1.2 0.3 3.9-1.6 4.8c-1 0.5-2.3 0.3-3.1 0.3zm302.8-132.7c0.6 1.1 0.4 2.4-1.1 3.3c-1.7 1-3.3 0.5-4.3-1.1c-1-1.3-1.2-2.9 0.4-4.1c1.2-0.9 3.7-0.2 5 1.9zm-158 382.5c-5.2 0.1-6.2-0.4-6.1-3c0.1-1.8 1.1-2.8 3-2.7c2.4 0.1 3.7 2.4 3.1 5.7zm235-292.2c-0.2 0.7-0.2 2.3-0.9 3.1c-1.3 1.3-4.5 0.8-5-0.7c-0.4-1.2 0.1-3.1 1-3.9c1.4-1.4 3.1-0.8 4.9 1.5zm-97.3 2.2c-0.4 1-0.6 2.6-1.5 3.4c-1.3 1.2-3.4 1.1-4.1-0.7c-0.5-1.1-0.3-3.3 0.5-4c1.4-1.4 3.2-0.7 5.1 1.3zm-151.1-5.7c0.3-0.9 0.4-2.5 1.2-3.5c0.8-1.1 4.4 0 4.7 1.7c0.3 1.1-0.4 2.9-1.2 3.6c-1.6 1.3-3.1 0.4-4.7-1.8zm354.8-167.7c2.5-1.2 4.2-1.3 5.3 0.5c1 1.6 0.4 3.1-1.1 4c-1.7 1.1-3.6 0.8-4.4-0.9c-0.5-1.1 0.1-2.7 0.2-3.6zm-283.9 398.1c1.4 0.5 3.1 0.8 4 1.8c1.3 1.4 0.7 3.1-0.9 4.2c-1.6 1-3.3 0.6-4-1c-0.6-1.2-0.2-2.8-0.2-4.3q0.6-0.4 1.1-0.7zm154.7-232.8c-0.5 1.4-0.7 3.1-1.7 4c-1.5 1.2-3.2 0.5-4.2-1.1c-1-1.5-0.7-3.3 0.9-4c1.2-0.5 2.9 0 4.3 0q0.4 0.5 0.7 1.1zm108.6-67.6c-1-2.4-0.6-5 1-5.5c1-0.4 2.9 0 3.5 0.8c1.1 1.6 1.1 3.7-0.7 4.8c-1 0.5-2.5 0-3.8-0.1zm-255.7 181.3c-0.5 1.3-0.7 3-1.7 3.9c-1.3 1.3-3 0.5-3.9-0.9c-1-1.5-1.1-3.5 0.6-4.3c1.2-0.5 2.9 0.1 4.3 0.2q0.4 0.5 0.7 1.1zm-17.9-145c-0.8-0.4-2.4-0.5-3.2-1.5c-1.1-1.4-1.3-3.3 0.6-4.4c1.7-1 3.2-0.4 4.3 1.1c1.1 1.7 0.6 3.1-1.7 4.8zm286.1-181.4c-2.5 1.2-4.3 1.3-5-0.5c-0.4-1.2-0.1-3.3 0.8-4.1c1.4-1.3 3.5-0.7 4.4 1c0.5 1-0.1 2.6-0.2 3.6zm-91.5 273.4c0.6-2.3 0.8-4.7 1.3-4.8c1.6-0.1 3.7 0 4.9 1c1.3 1.1 0.5 3.2-1 3.8c-1.2 0.6-2.8 0.1-5.2 0zm-319.6-77.5c1.4 2.6 1 4-0.6 5c-1.5 1-3.1 0.8-4.1-0.8c-1.1-1.7-0.9-3.6 0.9-4.4c1.2-0.5 2.8 0.1 3.8 0.2zm374.8-57.3c0.5-1.5 0.6-3.3 1.6-4.3c1.3-1.1 3.1-0.6 3.9 1c0.9 1.7 0.9 3.6-0.9 4.5c-1 0.6-2.6-0.1-3.9-0.2q-0.4-0.5-0.7-1zm57.6-15.8c-0.5 1.2-0.8 2.8-1.7 3.6c-1.5 1.3-3.2 0.7-4.2-0.9c-1.2-1.7-0.8-3.5 1-4.1c1.2-0.5 2.8 0.1 4.3 0.2q0.3 0.6 0.6 1.2zm-200.4 321.1c2.6-1.3 4-0.9 5 0.7c0.9 1.4 1.3 2.7-0.6 3.6c-1.6 0.8-3.6 1.7-4.6-0.5c-0.5-1.2 0.2-2.8 0.2-3.8zm167.8-203.2c0.3-0.8 0.4-2.4 1.3-3.2c1.6-1.3 3.6-0.7 4.3 1c0.5 1.1 0.1 3.2-0.7 4c-1.5 1.4-3.2 0.6-4.9-1.8zm46.1 10.6c0.3-0.7 0.5-2.1 1.3-2.9c1.1-1.3 4.4-0.9 5 0.6c0.3 1 0 2.7-0.7 3.5c-1 1.4-4.1 0.8-5.6-1.2zm-330.1-47.9c0.8-2.3 0.9-4 1.8-4.7c1.4-1.2 3.3-1.1 4.5 0.7c1 1.6 0.7 3.4-1 4.1c-1.2 0.5-2.8 0-5.3-0.1zm321-99c-2.2-0.9-3.9-1.1-4.6-2c-1.1-1.4-0.8-3.6 1-4.2c1.1-0.4 3.4 0.1 4.1 1c0.6 0.8-0.2 2.7-0.5 5.2zm96.9 113c-0.8 2.3-0.9 4-1.8 4.8c-1.6 1.3-3.3 0.5-4.4-1.1c-0.9-1.5-0.8-3.3 0.9-4c1.2-0.5 2.8 0.1 5.3 0.3zm-376.5 18.4c0.3-0.8 0.4-2.2 1.2-3c1-1.2 4.4-0.4 5.1 1c0.9 1.6 0.2 2.8-1.2 3.7c-1.8 1-3.4 0.5-5.1-1.7zm276.8-229.2c-2.2-0.9-4-1-4.7-1.9c-1.1-1.5-0.7-3.6 1.2-4.3c1.1-0.4 3.3 0.1 3.9 0.9c0.6 1-0.1 2.8-0.4 5.3zm-426.5 361.4c0.8 0.4 2.2 0.6 2.9 1.4c1.2 1.3 0.4 4.7-1.1 5c-1 0.2-2.8-0.3-3.4-1.1c-1.2-1.7-0.5-3.5 1.6-5.3zm237.7-190.2c0.8 0.3 2.6 0.4 3.3 1.3c1.4 1.7 0.3 3.4-1.3 4.6c-1.3 1-2.8 1.1-3.7-0.6c-1-1.8-0.7-3.4 1.7-5.3zm60.3-31.2c-2.5 1.6-4.9 1.3-5.5-0.4c-0.3-1 0-2.7 0.7-3.5c1.2-1.2 4.6-0.7 5.1 0.7c0.3 1.2-0.2 2.5-0.3 3.2zm172.7-10c-2.7 1-4.4 1.1-5.7-0.7c-0.9-1.5-0.6-3 1-3.8c1.7-0.9 3.7-0.7 4.8 1.1c0.5 0.9-0.1 2.4-0.1 3.4zm-152.9 112.2c0.4-1 0.6-2.8 1.6-3.6c1.4-1.2 3.2-0.4 4.2 1.1c1.1 1.5 0.6 3-0.9 4c-1.6 1.1-3.1 0.6-4.9-1.5zm-98.3-100.2c1.1 0.4 2.7 0.7 3.5 1.6c1.1 1.4 0.8 3.2-0.7 4.4c-1.6 1-3.1 0.7-4.1-0.8c-1.1-1.7-0.7-3.3 1.3-5.2zm-123 23.4c-0.5 1.2-0.8 2.6-1.7 3.4c-1.4 1.2-3.6 1.3-4.3-0.6c-0.5-1.1 0.2-3.4 1.2-4.2c0.8-0.6 2.7 0.2 4.1 0.3q0.4 0.6 0.7 1.1zm10-48.5c1.3 2.5 1.3 4.3-0.5 5c-1.2 0.4-3.2 0-4-0.8c-1.4-1.4-0.7-3.3 0.9-4.1c1.1-0.5 2.7-0.1 3.6-0.1zm-208.6 175c-0.6 1.1-0.9 2.5-1.8 3.3c-1.4 1.1-3.2 0.9-4.2-0.8c-1-1.6-0.8-3.4 0.8-4.4c1.8-1.1 3.2 0.1 5.2 1.9zm627.3-104.2c2.4-1.1 4.1-1.8 5.3 0.3c1 1.7 0.4 3.2-1.2 4.2c-1.7 1-3.4 0.6-4.2-1.1c-0.5-1 0-2.5 0.1-3.4zm-496.9 155.7c0.9 0.4 2.6 0.5 3.3 1.5c1.1 1.6 0.3 3.5-1.4 4.2c-1 0.4-3 0.1-3.7-0.7c-1.3-1.6-0.3-3.2 1.8-5zm134.2 55.3c0.8 0.2 2.7 0.1 3.3 0.9c1.3 1.8 0 3.6-1.7 4.4c-1.1 0.5-3.2 0.3-3.7-0.4c-1.3-1.6-0.1-3.1 2.1-4.9zm97.8-314.1c-1.3-0.5-2.9-0.6-3.7-1.5c-1.2-1.2-1-3 0.5-4.1c1.3-1 3.9-0.5 4.4 1.2c0.4 1.1-0.1 2.5-0.2 3.8q-0.5 0.3-1 0.6zm-368.8 234.5c-2.1-0.8-3.7-0.9-4.5-1.8c-1.4-1.4-0.7-3.1 0.9-4.1c1.5-0.9 3.5-1.1 4.2 0.7c0.5 1.1-0.2 2.8-0.6 5.2zm489.5-232c-0.5-0.2-1.9-0.3-2.6-1.1c-1.2-1.2-0.6-4.2 1-4.7c1.1-0.3 2.8 0 3.7 0.8c1.3 1.2 0.5 3.4-2.1 5zm17.8 125.5c-0.9-2.6-0.8-4.5 1.1-5.1c1-0.4 3.1 0.4 3.8 1.3c1.3 1.7 0.1 3.4-1.6 4.1c-1 0.4-2.4-0.2-3.3-0.3zm-209.3-27.9c-0.7 2.1-0.8 4-1.6 4.3c-1.4 0.5-3.3 0.3-4.6-0.3c-1.2-0.5-0.3-3.8 1.3-4.3c1.2-0.4 2.7 0.1 4.9 0.3zm246.4-115c-0.4 1.2-0.6 2.8-1.5 3.6c-1.5 1.3-3.5 0.7-4.4-0.9c-0.5-1 0-3.4 0.7-3.7c1.2-0.6 3-0.1 4.5 0q0.4 0.5 0.7 1zm-247.2 212.9c0.8 0.2 2.6 0.2 3.1 1c1.2 1.9 0 3.6-1.7 4.5c-0.9 0.4-2.9 0.1-3.5-0.6c-1.3-1.8 0-3.2 2.1-4.9zm289-100.7c0.6-2.2 0.6-3.7 1.4-4.6c1-1.3 4.2-0.6 4.6 0.9c0.3 1.2-0.1 3.2-0.9 3.7c-1 0.6-2.8 0.1-5.1 0zm-182.7 79.6c-2.5 1.4-3.9 1.1-5.1-0.5c-1-1.4-1.1-3.2 0.5-3.7c1.4-0.5 3.4-0.1 4.7 0.7c0.5 0.4-0.1 2.6-0.1 3.5zm92.9-223.2c0.3-0.8 0.4-2.4 1.2-3.1c1.6-1.2 3.6-0.6 4.4 1.1c0.5 0.9 0.1 3-0.7 3.7c-1.5 1.3-3.2 0.6-4.9-1.7zm-124.6 338.2c0.3-0.8 0.3-2.3 1.1-3.2c1-1.2 4.4-0.7 4.7 0.7c0.3 1.2-0.2 3-1 3.9c-1.4 1.3-3.1 0.7-4.8-1.4zm109.7-47.4c-1.4-2.4-0.9-5.3 0.7-5.5c1.1-0.2 3 0.2 3.6 1.1c1.3 1.7 0.3 3.4-1.3 4.3c-0.9 0.5-2.3 0.1-3 0.1zm-94-241c0.5-1.4 0.7-3.1 1.6-4.1c1.3-1.2 3.1-0.6 4 0.8c1.1 1.8 0.6 3.6-1.2 4.4c-1 0.5-2.5 0-3.7-0.1q-0.4-0.5-0.7-1zm-182.3 398.4c-1.1-0.4-2.4-0.6-3.2-1.4c-1.3-1.3-0.7-3.9 0.9-4.7c1.4-0.8 2.8-0.7 3.8 0.9c0.9 1.4 0.3 3.6-1.5 5.2zm337-216.9c0.7-2.3 0.8-3.8 1.6-4.9c0.9-1.1 4.1-0.4 4.4 1.1c0.2 1.2-0.2 3.1-1.1 3.8c-0.8 0.7-2.6 0.1-4.9 0zm-412.1 103.3c-1.4-2.6-0.9-4 0.7-4.9c1.4-0.9 3.1-1.3 4.1 0.5c0.9 1.7 0.2 3.5-1.5 4.3c-1.1 0.5-2.5 0.1-3.3 0.1zm468-219c-0.7 2.4-0.7 4.3-1.7 5.4c-1.1 1.2-2.7 0.6-3.6-0.9c-1-1.6-1.1-3.5 0.6-4.6c0.9-0.6 2.5 0 4.7 0.1zm-489.6 92c0.7-2 0.9-3.6 1.8-4.4c1.3-1.3 3.3-1 3.8 0.8c0.4 1.4-0.4 3.1-0.7 4.7c-1.3-0.3-2.7-0.6-4.9-1.1zm-67.8-20.1c1.5-0.4 3.6-0.8 4.2 1.2c0.3 1.1-0.7 3.1-1.7 4c-1.4 1.1-3 0-3.8-1.5c-0.8-1.4-0.6-2.8 1.3-3.7zm502.8-180.8c2.4 0.6 3.9 1 5.5 1.4c-0.4 1.2-0.4 2.9-1.2 3.6c-1.4 1.3-3.4 1.3-4.5-0.5c-0.5-0.9 0.1-2.3 0.2-4.5zm-101.5 129c0.6-2.3 0.8-4 1.6-5.3c0.3-0.3 2.8 0.2 3.6 1c1.4 1.4 1 3.4-0.7 4.4c-0.9 0.5-2.3 0-4.5-0.1zm-215.2 213.9c1.5 2.3 1.1 5.2-0.5 5.7c-1 0.2-2.6-0.4-3.4-1.1c-1.2-1.2-0.5-4.1 1.1-4.7c1-0.4 2.2 0 2.8 0.1zm-212.9-138.7c-0.8-0.3-2.2-0.4-3-1.1c-1.1-1.1-0.4-4.3 1.1-4.8c1-0.3 2.9 0 3.5 0.8c1.2 1.6 0.5 3.2-1.6 5.1zm593.5-135.9c-2.2-0.8-3.8-1-4.4-1.8c-1.1-1.6-0.6-3.7 1.2-4.4c0.9-0.4 3.2 0.1 3.6 0.9c0.5 1.1-0.1 2.8-0.4 5.3zm-93.9 70.4c1.4 0.6 3.1 0.9 4 1.9c1.1 1.3 0.5 3.1-1.1 3.9c-1.6 0.8-3.4 0.4-4.1-1.3c-0.4-1.1 0.1-2.6 0.2-3.9q0.5-0.3 1-0.6zm16.6 54.4c-0.2 0.7-0.3 2.2-1.1 3c-1 1.1-4.3 0.3-4.7-1.2c-0.4-1 0-2.8 0.8-3.4c1.6-1.4 3.2-0.5 5 1.6zm-83.1-89.2c0.2-0.6 0.3-2.1 1-2.9c1-1.1 4.2-0.3 4.7 1.2c0.3 1.1 0 2.7-0.8 3.5c-1.2 1.3-3.3 0.7-4.9-1.8zm-253.2 41.5c0.5-1.2 0.9-3.3 1.7-3.5c1.3-0.3 2.9 0.6 4.3 1c-0.4 1.4-0.5 3.2-1.4 3.9c-0.8 0.6-2.6-0.1-4-0.3q-0.3-0.5-0.6-1.1zm376.4-42.5c1.4 0.6 3.1 1 4 2c1.2 1.3 0.6 3-1 3.9c-1.6 0.9-3.3 0.4-3.9-1.1c-0.5-1.2-0.1-2.8-0.2-4.2q0.6-0.3 1.1-0.6zm-339.2 222.6c-1.1-0.6-3-1.2-3.2-1.9c-0.1-1.4 0.4-3.4 1.4-4.2c1.3-1.1 3.3-0.3 3.7 1.3c0.3 1.3-0.5 2.9-0.7 4.3q-0.6 0.3-1.2 0.5zm36.5-46.3c-1 2.2-1.3 4-2.2 4.5c-0.9 0.5-3 0-3.7-0.8c-1.2-1.3-1.1-3.4 0.7-4.2c1.1-0.5 2.7 0.2 5.2 0.5zm111.9-91c0.9-2.2 1.1-4.2 2.1-4.8c0.8-0.4 3.1 0.3 3.8 1.2c1.1 1.4 0.6 3.4-1.2 4.1c-1 0.4-2.5-0.2-4.7-0.5zm-25.7 115.1c0.5-1.3 0.7-3.3 1.7-3.8c0.8-0.4 3.2 0.3 3.7 1.2c0.5 0.9 0 3.1-0.8 3.9c-0.7 0.6-2.6-0.1-3.9-0.2q-0.3-0.5-0.7-1.1zm187.7-400.8c2.7-0.9 4.5-0.6 5.2 1.3c0.3 0.9-0.6 2.4-1 3.6c-1.6-0.6-3.3-0.9-4.7-1.9c-0.4-0.3 0.4-2.2 0.5-3zm-429.2 390.2c2.2 0.9 3.8 1 4.4 1.9c1.2 1.6 0.4 3.3-1.3 4.3c-1.4 0.9-3.1 0.7-3.5-1c-0.4-1.2 0.2-2.8 0.4-5.2zm156.4-135.1c1.4 2.5 1.2 4-0.4 5.1c-1.5 1-3.1 0.5-3.6-1c-0.4-1.2-0.3-3.3 0.5-4c0.7-0.7 2.6-0.1 3.5-0.1zm100.9 75.8c0.4-1.3 0.5-3.2 1.4-3.7c1-0.6 3.1-0.2 4 0.6c1.4 1.2 0.8 3.1-0.7 3.9c-1.1 0.5-2.7 0.2-4 0.2q-0.4-0.5-0.7-1zm157.8-134.9c-2.4 0.9-3.6 0.5-4.5-1c-1-1.5-0.9-3 0.6-4c1.5-1.1 3.3-0.9 4 0.7c0.5 1.2 0 2.9-0.1 4.3zm-419.3 121.1c1.4 2.4 1.4 4-0.4 5.1c-1.5 0.9-2.8 0.2-3.7-1.2c-0.9-1.5-1.1-3.4 0.7-4.3c1-0.4 2.6 0.3 3.4 0.4zm332.3-169.9c-0.8 2.1-0.8 3.7-1.7 4.4c-1.4 1.1-3.2 0.8-4.3-0.8c-1.1-1.6-0.5-3.3 1-3.9c1.1-0.5 2.7 0.1 5 0.3zm-11.2 52.3c-2.2-0.9-3.7-1.2-4.6-2.1c-1-1.1-1.1-3.1 0.6-3.6c1.4-0.4 3.3 0.3 4.6 1.1c0.4 0.2-0.3 2.4-0.6 4.6zm-177.4 27.7c-0.8 2.2-0.9 3.8-1.8 4.6c-1.4 1.3-3.2 0.6-3.8-1c-0.3-1.2-0.1-3.2 0.8-4c0.6-0.6 2.5 0.1 4.8 0.4zm328.2 54.2c-0.8-0.3-2.3-0.4-2.9-1.2c-1.2-1.6-0.7-3.6 1-4.4c1-0.4 3-0.1 3.7 0.7c1.4 1.6 0.2 3.2-1.8 4.9zm-121.1-104.7c-0.6 1.2-0.8 2.7-1.7 3.4c-1.3 1.1-3.3 0.8-3.9-0.8c-0.4-1.2-0.1-3.5 0.7-4c1-0.6 2.8 0.2 4.2 0.4q0.4 0.5 0.7 1zm-372.7 135.3c-0.7 2.1-0.7 3.8-1.5 4.7c-1.3 1.3-2.9 0.8-3.9-0.8c-1-1.5-1.3-3.4 0.5-4.3c1-0.5 2.6 0.1 4.9 0.4zm134.6-163.9c-0.5 1.1-0.5 2.7-1.4 3.4c-1.3 1.1-3.2 0.6-3.8-1c-0.5-1.1-0.3-3.2 0.5-4c1.5-1.5 2.9 0 4.7 1.6zm-299.1 133.5c-1.7-0.4-2.9-0.3-3.5-0.8c-1.2-1.1-0.5-5.1 1-5.6c0.9-0.3 3.2 0.4 3.2 0.7c0.1 1.7-0.3 3.4-0.7 5.7zm573.9 29.9c1-2.1 1.2-4.1 2.1-4.5c1-0.4 3.2 0.2 3.9 1.2c1.1 1.4 0.3 3.3-1.4 4c-1 0.4-2.4-0.4-4.6-0.7zm-150 130.6c1.1 0.6 3 0.9 3.2 1.8c0.4 1.1-0.1 3-1 4c-1.1 1.2-3 0.8-3.5-0.8c-0.5-1.3 0.1-2.9 0.1-4.4q0.6-0.3 1.2-0.6zm-300.3-188.2c2.3 0.8 4.1 0.9 4.9 1.9c0.4 0.5-0.3 2.8-1.1 3.6c-1.4 1.2-3.3 0.8-4.1-0.9c-0.5-0.9 0.1-2.4 0.3-4.6zm216.5-68.2c-2.4-0.7-4.2-0.8-5.1-1.7c-0.4-0.6 0.1-2.9 0.9-3.6c1.3-1.2 3.3-1.1 4.2 0.6c0.5 0.9 0 2.5 0 4.7zm81.1 280.7c1.5 2.3 1.1 4.8-0.6 5.4c-0.8 0.4-2.3 0-2.9-0.6c-1.4-1.5-0.9-4.4 0.7-5c0.9-0.3 2.2 0.2 2.8 0.2zm-72.3-235.6c1.2 0.6 3 0.9 3.3 1.8c0.3 1.1 0 3.1-0.9 3.9c-1.2 1.2-3.2 0.7-3.8-1c-0.4-1.2 0.2-2.7 0.3-4.1q0.6-0.3 1.1-0.6zm93.7 124.8c0.8-2.4 1.1-4.1 1.9-5.4c0.3-0.3 2.6 0.2 3.4 0.9c1.2 1.1 0.3 4-1.3 4.7c-0.9 0.3-2-0.1-4-0.2zm-252.5-178.6c0.5-1.3 0.5-2.9 1.4-3.8c1.2-1.1 3.2-1.1 3.9 0.7c0.4 1.1 0 3-0.8 4c-1.1 1.1-2.7 0.8-4.5-0.9zm309.3 160.5c1.1 2.5 1 4.4-0.8 5.2c-0.8 0.4-2.7-0.2-3.3-1c-1.1-1.4-1-3.5 0.7-4.4c1-0.5 2.5 0.1 3.4 0.2zm64.2 20.1c0.9-2.2 1.1-4.2 2-4.6c1-0.4 3.1 0.2 3.9 1c1.3 1.3 0.8 3.2-0.9 3.9c-1.1 0.4-2.7-0.1-5-0.3zm35.6-45.9c1.3 0.5 3 0.6 3.8 1.4c1.2 1.3 0.8 3-0.7 4c-1.5 1-3.2 0.7-3.9-0.9c-0.5-1.1-0.2-2.5-0.2-3.8q0.5-0.3 1-0.7zm-432.5-140.6c0.3-0.7 0.5-2.1 1.3-2.6c1.5-1 3.6-1.3 4.5 0.7c0.4 0.9-0.3 2.9-1.2 3.7c-1.6 1.4-3 0.1-4.6-1.8zm499 82.3c-0.5 2-0.5 3.7-1.3 4.4c-1.4 1.2-2.9 0.4-3.9-1.1c-0.9-1.4-1.4-3.2 0.4-4c1-0.4 2.7 0.3 4.8 0.7zm-465.4-99.1c-2.1-0.7-3.4-1-4.7-1.4c0.4-1.4 0.4-3.1 1.3-4c1.2-1.2 3.2-0.8 3.9 0.8c0.4 1-0.2 2.5-0.5 4.6zm-160.8 56.6c1.3 2.4 1.5 3.9-0.2 5c-1.4 0.9-2.9 0.7-3.8-0.8c-1-1.7-0.6-3.5 1.1-4.4c0.8-0.5 2.3 0.1 2.9 0.2zm283.4-58.6c-0.8 2-0.9 3.3-1.7 4.1c-1.2 1.2-3.8 0.6-4.3-1.1c-0.3-1.1 0.1-3.3 0.8-3.6c1.2-0.4 2.8 0.2 5.2 0.6zm8.4 269.6c0.9 0.3 2.3 0.4 2.9 1.1c1.1 1.6 0.7 3.6-1 4.5c-0.8 0.4-2.7 0.1-3.3-0.6c-1.3-1.6-0.4-3.2 1.4-5zm137.1-182.7c1-2.4 1.3-4.1 2.3-5.1c0.5-0.4 3 0.3 3.5 1.2c1.1 1.6 0.2 3.5-1.5 4.3c-0.9 0.3-2.2-0.2-4.3-0.4zm-43-111c-0.3 0.7-0.5 2.1-1.2 2.7c-1.4 1.2-3.4 1.3-4.2-0.5c-0.5-1-0.1-3.1 0.7-3.9c1.5-1.5 3-0.5 4.7 1.7zm14.9 25.4c1.1 0.6 2.6 1 3.2 1.9c1.1 1.5 0.7 3.5-1.1 4c-1.1 0.4-3.1-0.4-3.7-1.3c-0.6-0.9 0.3-2.7 0.5-4q0.5-0.3 1.1-0.6zm16.9 247.9c1.2 0.6 2.9 0.9 3.7 1.9c1 1.4 0.6 3.3-1.1 3.9c-1.1 0.3-3.1-0.3-3.6-1.1c-0.7-1-0.1-2.7-0.1-4q0.5-0.4 1.1-0.7zm-260.1-125.2c-2-0.8-3.9-1-4.2-1.8c-0.4-1.1 0.3-2.7 0.6-4.1c1.4 0.3 3.3 0.2 4.2 1c0.6 0.5-0.3 2.6-0.6 4.9zm421.8-247.2c-2.1-0.9-4-1.1-4.2-1.9c-0.5-1.1 0.3-2.6 0.5-4c1.4 0.3 3.3 0.1 4 0.9c0.7 0.7-0.1 2.6-0.3 5zm-414.4 194.4c1.3 0.4 3.1 0.5 3.7 1.4c0.6 0.9 0.1 3-0.6 3.8c-1.2 1.3-3.1 0.9-3.9-0.7c-0.6-1-0.2-2.5-0.2-3.8q0.5-0.3 1-0.7zm438-189.8c-2.2-0.7-4-0.8-4.6-1.6c-0.5-0.8 0-3.3 0.8-3.6c1-0.5 3-0.2 3.9 0.5c0.6 0.5 0 2.5-0.1 4.7zm-316.2 412.1c0.6 0.1 2 0.1 2.7 0.8c1.2 1.1 0.4 3.9-1.3 4.6c-0.9 0.3-2.7 0-3.3-0.6c-1.3-1.7-0.3-3.2 1.9-4.8zm136-281c-1.4-2.6-0.7-4 0.8-5c1.4-1 2.7-0.6 3.4 0.8c1 1.8 0.7 3.6-1.2 4.5c-0.9 0.4-2.3-0.2-3-0.3zm-305.4 47.8c2.2 0.9 4 1 4.7 2c0.5 0.7-0.1 2.9-0.9 3.6c-1.3 1.2-3.1 0.6-3.9-1c-0.4-1 0-2.4 0.1-4.6zm478.2-39.3c-0.8 2.1-0.9 3.6-1.8 4.2c-1.5 1.2-3.4 0.7-4.1-1c-0.4-0.9 0-3.3 0.7-3.6c1.1-0.5 2.8 0.2 5.2 0.4zm-249-2.8c0.3-0.6 0.8-2.7 1.1-2.7c1.6 0.1 3.1 0.7 4.5 1.5c0.2 0.1-0.3 2.6-1.1 3.2c-1.5 1.2-3 0.4-4.5-2zm215.9-175.4c-0.4 2-0.3 3.4-1 4.3c-0.8 1.1-3.8 0.1-4.5-1.6c-0.4-0.9 0.1-3.2 0.4-3.2c1.5-0.2 2.9 0.2 5.1 0.5zm-152.5 112.3c2.1 0.8 3.6 0.9 4.2 1.7c1.3 1.7 0.4 3.4-1.3 4.2c-0.8 0.4-3-0.1-3.1-0.6c-0.4-1.4 0-2.9 0.2-5.3zm-105.8-47.1c-0.3 0.7-0.6 2.5-1.1 2.6c-1.6 0.1-3.2-0.4-4.8-0.7c0.3-1.2 0.3-2.8 1-3.5c1.6-1.2 3.3-0.6 4.9 1.6zm151.5 82.3c-0.5 1.3-0.7 3.1-1.6 3.7c-0.9 0.4-2.9-0.1-3.7-0.9c-1.2-1.3-0.8-3.2 0.8-3.9c1.1-0.5 2.6 0 3.8 0.1q0.4 0.5 0.7 1zm146.2 86.4c0.7-2.2 0.9-4.2 1.4-4.3c1.5-0.2 3 0.4 4.5 0.7c-0.3 1.2-0.2 3.1-1 3.6c-0.9 0.6-2.6 0-4.9 0zm-586.7 9.7c1.2 0.5 3.3 0.7 3.4 1.4c0.3 1.2-0.3 3-1.2 3.9c-0.4 0.5-3 0-3.3-0.6c-0.5-1.1 0-2.7 0.1-4q0.5-0.4 1-0.7zm420.6-119.7c-0.8-0.3-2.2-0.5-2.9-1.3c-1.1-1.3-0.9-2.9 0.5-4.1c1.4-1.1 2.9-0.8 3.9 0.6c1.2 1.6 0.5 3-1.5 4.8zm8.9 50.8c0.7-2.1 0.7-3.8 1.6-4.7c1.2-1.2 3-0.7 3.9 0.8c1 1.6 0.5 3.4-1.2 4.1c-0.9 0.5-2.3 0-4.3-0.2zm-157.3 159.2c0.5-1.5 0.6-3.2 1.5-4.4c0.4-0.5 2.3 0.2 3.5 0.4c-0.3 1.6-0.4 3.3-1.1 4.6c-0.2 0.5-2 0.2-3.1 0.2q-0.4-0.4-0.8-0.8zm154.6-39c0.5-1.3 0.7-3.1 1.6-3.6c0.8-0.5 2.9 0.1 3.7 0.9c1.2 1.3 0.7 3.2-0.9 3.9c-1.1 0.4-2.5-0.1-3.8-0.1q-0.3-0.6-0.6-1.1zm-109.6-28.8c-1.1 2-1.4 3.5-2.3 4.1c-1.6 1.1-3.3 0.2-3.7-1.4c-0.2-1.1 0.3-3.2 1.1-3.6c1-0.4 2.6 0.4 4.9 0.9zm-348.5 19.7c1.5 2.5 1 4.2-0.6 4.9c-0.8 0.4-2.7 0-3.1-0.7c-1.1-1.5-1-3.5 0.8-4.5c0.9-0.4 2.3 0.2 2.9 0.3zm314.6 21.3c-0.6 1.3-0.9 3-1.9 3.6c-0.8 0.5-2.8 0.1-3.5-0.6c-1.3-1.4-0.7-3.2 0.8-3.9c1.1-0.6 2.6-0.1 4-0.1q0.3 0.5 0.6 1zm-97.8-22.5c1.9 0.7 3.4 0.7 4.1 1.5c1.3 1.5 0.8 3.4-0.8 4.1c-1 0.5-3.3 0.1-3.7-0.7c-0.5-1 0.1-2.6 0.4-4.9zm15.4-44.9c-0.9 2.1-1.1 3.9-2 4.3c-0.9 0.4-3.2 0-3.5-0.8c-0.5-1-0.3-3.1 0.5-3.9c0.7-0.6 2.6 0.2 5 0.4zm218.3-20.3c0.5-1.2 0.9-3.1 1.7-3.3c1.2-0.4 3.1 0.1 4 0.9c1.1 1.2 0.6 3-1 3.6c-1.2 0.4-2.7-0.1-4.1-0.1q-0.3-0.6-0.6-1.1zm-214.1-2.3c-0.5 1.2-0.6 2.9-1.5 3.4c-1.1 0.5-2.7 0-4.1 0c0.4-1.6 0.6-3.3 1.5-4.6c0.4-0.5 2.2 0.1 3.4 0.2q0.4 0.5 0.7 1zm373.4-161.5c1.2 0.6 2.8 0.9 3.7 1.8c1.1 1.3 0.7 3.1-0.9 3.6c-1.1 0.3-3-0.1-3.7-0.9c-0.6-0.8-0.2-2.5-0.2-3.8q0.5-0.3 1.1-0.7zm6.7 319c-0.8 1.9-1 3.4-1.8 4c-1.5 1.2-3.2 0.4-3.8-1.2c-0.3-1.1 0.4-2.6 0.6-3.9c1.4 0.3 2.8 0.6 5 1.1zm-11.6-295.5c1.2 0.5 3.1 0.7 3.4 1.5c0.4 1.1 0 3-0.8 4c-1 1.2-2.9 0.9-3.5-0.7c-0.5-1.2-0.1-2.7-0.1-4.1q0.5-0.3 1-0.7zm-2.9 121.4c1.3 0.5 3.1 0.7 3.7 1.7c0.5 0.7-0.1 2.8-0.8 3.6c-1.3 1.3-3.2 0.8-3.9-0.8c-0.5-1-0.1-2.5 0-3.8q0.5-0.3 1-0.7zm-439.4 24.4c-0.6 1.1-1 3-1.8 3.2c-1.2 0.3-2.9-0.2-4-1c-0.4-0.3 0.1-3 0.8-3.3c1.2-0.5 2.9-0.1 4.3-0.1q0.4 0.6 0.7 1.2zm52.6 90.2c-2-0.8-3.4-0.9-4-1.7c-1.2-1.5-0.6-3.2 1-3.8c1-0.5 2.4 0.1 3.6 0.1c-0.1 1.5-0.3 3-0.6 5.4zm-167-18.8c-0.8 2.1-1 3.8-1.9 4.4c-0.6 0.5-2.7-0.2-3.4-1c-1.2-1.4-0.8-3.3 0.9-4.1c0.9-0.4 2.3 0.3 4.4 0.7zm-11.6-76.1c1 0.4 2.4 0.7 3 1.4c1.2 1.6 0.9 3.4-1 4.1c-0.8 0.4-2.9-0.1-3.1-0.7c-0.4-1.3 0-2.9 0.1-4.3q0.5-0.3 1-0.5zm74 17.3c-0.8 1.9-1 3.7-1.7 3.9c-1.1 0.3-3.3-0.1-3.7-0.8c-0.4-1.1 0.3-2.8 0.5-4.2c1.4 0.3 2.7 0.6 4.9 1.1zm82.6 42.1c2 0.6 3.7 0.6 4.4 1.5c1.2 1.3 0.5 3.2-1 3.8c-1 0.4-3 0.1-3.6-0.7c-0.6-0.8 0-2.5 0.2-4.6zm376.7 60.2c2.2 0.6 3.9 0.5 4.6 1.3c1.2 1.4 0.5 3-1 4c-1.4 1-2.9 0.6-3.6-1c-0.4-1 0-2.3 0-4.3zm-545-48.5c-0.8 2-1 3.6-1.9 4.4c-1.3 1.1-2.6 0.3-3.4-1.1c-0.9-1.6-0.8-3.4 0.9-4.2c0.9-0.3 2.3 0.4 4.4 0.9zm236.7-93q1.8 0.6 3.6 1.1c-0.5 1.4-0.8 3-1.7 4.1c-0.3 0.4-2.5 0-3.1-0.7c-1.2-1.4-0.7-2.8 1.2-4.5zm330.3 151.5c0.8-2.1 1.1-4.1 1.7-4.1c1.4-0.3 2.9 0.4 4.4 0.7c-0.5 1.3-0.6 3-1.5 3.6c-0.7 0.6-2.4 0-4.6-0.2zm-101.8-173.2c-0.5 1.1-0.7 2.6-1.6 3.4c-1.2 1.1-3 0.7-3.5-0.9c-0.4-1 0-2.9 0.8-3.6c0.7-0.6 2.4-0.1 3.7 0q0.3 0.5 0.6 1.1zm92.2-102.6c0.7 0.3 2 0.4 2.5 1.2c1.1 1.5 1.2 3.4-0.7 4.4c-0.7 0.4-2.4 0-2.9-0.6c-1.4-1.5-0.8-3.2 1.1-5zm61.9 43.8c0.5-2 0.5-3.3 1.2-4.1c0.9-1.1 4.1-0.5 4.5 1c0.3 0.9-0.2 2.8-0.9 3.1c-1.1 0.5-2.6 0.1-4.8 0zm-362.2 425.1c0.7 0.2 2.1 0.4 2.6 1.1c1.1 1.6 0.6 3.5-1.1 4.4c-0.8 0.4-2.7 0-3.2-0.7c-1.2-1.7-0.3-3.2 1.7-4.8zm175-570.5c2.2 0.9 3.8 1.2 4.9 2.1c0.5 0.5-0.1 2.3-0.2 3.4c-1.7-0.4-3.4-0.7-4.9-1.5c-0.3-0.2 0.1-2 0.2-4zm-253.4 285.9c-0.8 1.9-1 3.2-1.7 3.9c-1.4 1.1-3.2 0.9-4-0.8c-0.4-0.9 0-3.3 0.4-3.4c1.3-0.4 2.9 0.1 5.3 0.3zm124.2 75.9c1.9 0.7 3.9 1.1 3.9 1.4c-0.1 1.4-0.5 3-1.2 4.2c-0.3 0.4-3.1-0.1-3.1-0.4c-0.2-1.4 0.1-2.9 0.4-5.2zm-147.6-81.3c-0.9 2-1.1 3.4-1.9 4.1c-1.2 1.2-3 0.9-3.6-0.6c-0.5-1.1-0.3-3.3 0.5-3.8c0.9-0.6 2.6 0.1 5 0.3zm-30.2-104.9c2 0.8 3.9 1 4.2 1.7c0.3 1-0.3 3.1-1.1 3.6c-0.9 0.5-3 0-3.7-0.8c-0.5-0.5 0.3-2.3 0.6-4.5zm446 75.7c2.3 0.7 3.6 1.1 4.9 1.5c-0.4 1.3-0.5 2.9-1.4 3.8c-1.2 1.2-2.9 0.7-3.6-0.9c-0.4-0.9 0-2.3 0.1-4.4zm28.9-236.9c2 0.4 3.8 0.2 4.7 1c1.2 1.2 0.3 2.7-1 3.6c-1.5 0.9-3.2 0.9-4-0.7c-0.5-0.8 0.1-2.1 0.3-3.9zm-9.8 368.3c0.7-2.1 0.8-3.7 1.7-4.3c0.7-0.6 2.5-0.3 3.3 0.3c1.2 0.8 0.9 4.1-0.3 4.4c-1.2 0.2-2.5-0.2-4.7-0.4zm-309-142.6c0.5-1.3 0.8-2.9 1.7-3.7c1.1-1 2.6-0.6 3.4 0.9c0.8 1.6 0.7 3.3-1 4c-0.9 0.4-2.3-0.1-3.5-0.2q-0.3-0.5-0.6-1zm101.1-123.9c0.6-2 0.7-3.9 1.5-4.2c0.9-0.4 3.1 0.2 3.6 1c0.5 0.9 0 2.9-0.7 3.7c-0.5 0.5-2.3-0.2-4.4-0.5zm-202.9 144.9c1.2 0.5 2.9 0.7 3.4 1.6c0.4 1-0.3 2.5-0.5 3.8c-1.3-0.3-3-0.1-3.7-0.9c-0.6-0.8-0.2-2.5-0.3-3.8q0.6-0.3 1.1-0.7zm325-122.8c-0.6 2.1-0.7 3.7-1.5 4.5c-1.3 1.2-3 0.5-3.5-1c-0.4-1.2 0.2-2.7 0.3-4c1.3 0.1 2.6 0.3 4.7 0.5zm-535.2 100.7c-0.6 1.8-0.8 3.5-1.6 4c-0.8 0.5-2.7-0.1-3.4-0.8c-1.2-1.5-0.6-3.3 1-4.1c0.8-0.4 2.1 0.4 4 0.9zm674.5-68.9c-0.7 2-0.7 3.7-1.5 4.4c-1.6 1.2-3.1-0.1-3.7-1.6c-0.4-1 0.2-2.4 0.3-3.6c1.4 0.3 2.7 0.5 4.9 0.8zm-105.6-72.8c-0.7 2.1-0.8 3.7-1.7 4.5c-0.5 0.4-2.7-0.1-3.3-0.8c-1.2-1.4-0.8-3.3 0.9-4.1c0.9-0.4 2.1 0.1 4.1 0.4zm-536.2 81.3c0.6-1.7 0.7-2.8 1.3-3.4c1.1-1.2 3.9-0.6 4.4 0.9c0.3 1-0.3 3.2-0.6 3.2c-1.4 0.1-2.9-0.4-5.1-0.7zm433.8-79.3c1.1 0.6 2.6 0.9 3.2 1.8c0.4 0.6-0.1 2.5-0.8 3.1c-1.4 1.1-3.2 0.9-4-0.8c-0.4-0.9 0.3-2.3 0.5-3.5q0.5-0.3 1.1-0.6zm67.7 18.6c0.1-0.6 0.1-2.2 0.8-2.7c1.7-1.1 3.5-0.2 4.3 1.4c0.4 0.7 0.1 2.4-0.6 2.9c-1.5 1.3-3 0.6-4.5-1.6zm16.2-48.6c-0.7 1.9-0.8 3.3-1.5 3.9c-1.3 1.1-3.2 0.9-3.9-0.8c-0.4-0.9-0.1-3.1 0.5-3.4c1.1-0.5 2.7 0.1 4.9 0.3zm77.7 66.3c2 0.5 3.4 0.9 4.7 1.3c-0.4 1.2-0.6 2.8-1.4 3.6c-1.3 1.2-3 0.5-3.6-0.9c-0.4-0.9 0.1-2.1 0.3-4zm-243.5 115.9c0.6 0.2 2 0.3 2.5 1c1.1 1.8 0 3.4-1.6 4.3c-0.8 0.4-2.6 0.1-3-0.5c-1.1-1.8 0.1-3.2 2.1-4.8zm58.1-157.9c1.3 0.7 2.8 1.1 3.7 2.1c0.4 0.5 0.2 2.5-0.4 3c-1.5 1.2-3.3 0.6-4.1-1c-0.5-0.9-0.1-2.3-0.1-3.4q0.5-0.3 0.9-0.7zm-299.3 134.4c0.7-2.1 0.8-3.6 1.6-4.5c1.1-1.2 2.6-0.8 3.5 0.6c0.9 1.4 0.8 3-0.8 3.7c-0.9 0.5-2.2 0.2-4.3 0.2zm184.9-37.6c-0.8 1.9-0.9 3.3-1.6 3.9c-1.3 1.2-3.2 0.9-3.9-0.6c-0.4-0.9 0.1-2.9 0.8-3.4c0.9-0.5 2.5 0 4.7 0.1zm171.1 86.5c1.8 0.5 2.8 0.8 3.8 1.1c-0.4 1.4-0.7 3-1.4 4.3c-0.3 0.3-2-0.2-3.1-0.4c0.2-1.4 0.4-2.9 0.7-5zm-475.4-57.1c1.3 0.4 2.9 0.6 3.6 1.5c0.5 0.6-0.2 2.3-0.3 3.5c-1.3-0.2-3-0.1-3.8-0.8c-0.7-0.6-0.3-2.3-0.4-3.5q0.5-0.4 0.9-0.7zm619.2-129.9c-0.6 1.9-0.6 3.3-1.3 3.9c-1.4 1.3-3.2 0.7-3.9-0.8c-0.4-0.9 0-3 0.7-3.4c0.9-0.5 2.5 0.1 4.5 0.3zm-35.4-81.2c1.9 0.8 3.6 1.1 3.9 1.9c0.4 0.9-0.1 3.1-0.7 3.3c-1.1 0.4-2.9 0-3.7-0.8c-0.5-0.5 0.2-2.2 0.5-4.4zm-208.7 172.7c1.1 0.5 2.8 0.8 3.3 1.8c0.4 0.7-0.4 2.3-0.7 3.4c-1.3-0.3-2.9-0.3-3.7-1.1c-0.6-0.6 0-2.3 0.1-3.5q0.5-0.3 1-0.6zm74.5 211.5c1.7 0.5 3.1 0.6 3.5 1.3c0.9 1.6 0.3 3.4-1.4 4.1c-0.9 0.4-2.2-0.2-3.3-0.4c0.4-1.5 0.7-3 1.2-5zm158.7-276.7c0.5-1.1 0.8-2.9 1.7-3.2c1-0.4 3 0.1 3.6 0.9c1.5 1.7-0.3 2.7-1.6 3.4c-0.8 0.4-2 0-3.1-0.1q-0.3-0.5-0.6-1zm-280.9 80.5c-0.4 0.9-0.6 2.1-1.3 2.7c-1.4 1.1-3.1 1-4-0.6c-0.4-0.7 0.1-2.9 0.7-3.1c1.2-0.4 2.7-0.1 4.1 0q0.3 0.5 0.5 1zm136.9-92c2.2 0.5 3.6 0.9 5 1.3c-0.3 1.1-0.3 2.5-1 3.2c-1.4 1.2-3.2 1-4.1-0.7c-0.5-0.7 0-2 0.1-3.8zm-182.7 55.8c2 0.7 3.7 0.8 4.2 1.7c0.4 0.7 0 2.7-0.8 3.4c-1.3 1.2-3.1 0.6-3.8-1c-0.4-0.9 0.2-2.1 0.4-4.1zm-251 139.1c2 0.9 3.7 1.2 4.2 2.1c0.4 0.8 0 2.9-0.8 3.5c-1.4 1.1-3.1 0.3-3.8-1.3c-0.3-0.9 0.2-2.1 0.4-4.3zm429-172.5c2 0.7 3.5 0.8 4.4 1.6c1.2 1.1 0.7 2.9-0.8 3.3c-1.1 0.3-2.8-0.1-3.8-0.8c-0.5-0.3 0-2.1 0.2-4.1zm-225.2 48c-0.6 1.8-0.6 3.2-1.3 3.7c-1.7 1.2-3.3 0.3-4-1.3c-0.4-0.8 0.2-2.9 0.6-2.9c1.2-0.2 2.6 0.2 4.7 0.5zm-59.4 157.2c-0.6 1.3-1 2.8-2 3.9c-0.2 0.3-2.3-0.2-2.8-0.8c-1-1.5-0.5-3.2 1.1-4c0.8-0.4 2 0 3-0.1q0.3 0.5 0.7 1zm452.1-167.5c-0.7 1.9-0.9 3.4-1.8 4.2c-0.4 0.4-2.4-0.2-3-1c-1.1-1.2-1.1-3.1 0.7-3.9c0.8-0.3 2.2 0.3 4.1 0.7zm-233.5-71.6c0.6-2 0.7-3.6 1.5-4.2c1.5-1.1 2.8 0.1 3.8 1.5c0.8 1.2 1.2 2.6-0.4 3.1c-1.2 0.4-2.7-0.1-4.9-0.4zm-73.8 245.8c-0.8 2.2-1 3.8-1.9 4.7c-0.4 0.4-2.1-0.3-3.2-0.5c0.3-1.4 0.4-2.9 1.1-4.1c0.3-0.4 2-0.1 4-0.1zm279.4-375.7c-1 2-1.3 3.6-2.1 4c-0.9 0.4-2.3-0.3-3.5-0.6c0.3-1.3 0.3-2.9 1.1-3.7c0.5-0.6 2.3 0.1 4.5 0.3zm-6.3 222.7c0.7-1.3 1.1-2.8 2-3.9c0.4-0.4 2.5 0 2.9 0.6c1.1 1.5 0.4 3.2-1.2 4.1c-0.7 0.5-2 0.1-3 0.1q-0.4-0.4-0.7-0.9zm-100-74.3c-0.5 1-0.7 2.3-1.5 3c-1.3 1-3 0.7-3.7-0.9c-0.3-0.8 0.1-2.8 0.6-3c1.2-0.5 2.7-0.1 4.1-0.1q0.3 0.5 0.5 1zm28.7-19.3c-0.8 2-1 3.7-1.8 4c-0.9 0.4-2.7 0-3.4-0.7c-1.3-1.2-0.8-3 0.7-3.6c0.9-0.5 2.3 0.1 4.5 0.3zm79.2 188.2c-0.6 2-0.7 3.5-1.5 4.3c-0.4 0.5-3-0.1-3-0.5c-0.3-1.4 0.2-2.9 0.3-4.3c1.1 0.2 2.2 0.3 4.2 0.5zm1.4-243.6c2 0.8 3.6 1 4.2 1.9c0.4 0.7-0.5 3.1-1 3.2c-1.2 0.2-2.8-0.3-3.8-1.1c-0.4-0.3 0.3-2 0.6-4zm-620.8 178.1c-0.6 2.1-0.7 4-1.4 4.3c-1.1 0.4-2.9 0-3.7-0.8c-0.5-0.5-0.2-2.8 0.4-3.3c0.8-0.7 2.5-0.2 4.7-0.2zm470.7 56.6c1.8 0.6 2.8 1 3.8 1.3c-0.5 1.5-0.9 3-1.7 4.2c-0.2 0.3-2.6-0.2-2.6-0.4c-0.1-1.5 0.2-2.9 0.5-5.1zm-307.5-44c1.1 0.6 2.7 0.9 3.2 1.8c0.4 0.9-0.3 2.4-0.6 3.6c-1.1-0.4-2.7-0.4-3.3-1.2c-0.6-0.8-0.2-2.4-0.2-3.6q0.5-0.3 0.9-0.6zm146.5-88.9c-0.7 1.9-0.8 3.5-1.6 3.9c-0.8 0.5-3 0-3.3-0.6c-0.4-1-0.1-2.9 0.6-3.7c0.4-0.5 2.2 0.1 4.3 0.4zm142.1-89.1c-0.5 1-0.8 2.5-1.6 3c-0.8 0.3-2.6 0-3.1-0.7c-1-1.2-1.2-3 0.6-3.7c1-0.4 2.3 0.2 3.5 0.3q0.3 0.5 0.6 1.1zm-141.4 64.9c2 0.7 3.8 0.9 3.9 1.4c0.3 1.2-0.1 2.7-0.8 3.7c-0.3 0.4-2.7 0.1-3.1-0.5c-0.5-0.9-0.1-2.4 0-4.6zm282.9 282.1c-0.7 1.9-0.9 3.4-1.7 4.4c-0.2 0.3-2.3 0-2.8-0.7c-1.1-1.4-1.1-3.2 0.6-4.2c0.7-0.4 2 0.2 3.9 0.5zm-6.8-99.3c1.8 0.6 3.1 0.5 3.6 1.2c1 1.5 0.8 3.3-0.9 4.2c-0.7 0.4-2.9 0-2.9-0.3c-0.2-1.4 0-2.9 0.2-5.1zm-30.4-298.8c1.2 0.7 2.7 1.1 3.5 2c0.5 0.5-0.2 2-0.3 3c-1.3-0.3-2.8-0.3-3.7-1c-0.7-0.5-0.4-2.1-0.5-3.2q0.5-0.4 1-0.8zm-396.3 155.3c-0.6 1.7-0.6 3.5-1.3 3.8c-0.9 0.4-3.3-0.2-3.4-0.6c-0.2-1.3 0.4-2.7 0.7-4.1c1 0.2 2.1 0.5 4 0.9zm434.8-195.2c-0.9 1.8-1.2 3.1-2 3.7c-1.3 1-3 0.6-3.5-1c-0.3-0.9 0.2-2.9 0.9-3.2c0.9-0.5 2.4 0.2 4.6 0.5zm-150.1 429.2c1.8 0.6 3.6 1.1 3.6 1.2c-0.2 1.5-0.7 3-1.4 4.2c-0.1 0.3-2.6-0.3-2.7-0.7c-0.2-1.3 0.2-2.7 0.5-4.7zm-16.7 93.3c-0.6 2.1-0.8 3.6-1.6 4.6c-0.2 0.4-2-0.4-3.1-0.7c0.3-1.3 0.5-2.8 1.1-4c0.2-0.4 1.8 0 3.6 0.1zm-96.5-241c1.8 0.8 3.6 1.2 3.6 1.6c0 1.3-0.5 2.8-1.2 4c-0.1 0.2-2.6-0.2-2.7-0.7c-0.3-1.3 0.1-2.7 0.3-4.9zm-326.2-71.5c2.2 0.6 3.7 0.8 4.8 1.6c0.3 0.2-0.3 1.9-0.5 3c-1.4-0.3-2.9-0.4-4.1-1c-0.4-0.2-0.1-1.8-0.2-3.6zm318.4-2.8c1.8 0.7 3.6 0.9 3.7 1.5c0.3 1.2-0.3 2.6-0.6 3.9c-1.2-0.3-2.9-0.3-3.4-1c-0.6-0.8 0.1-2.3 0.3-4.4zm-250.6 139c1.9 0.6 3.7 0.8 3.8 1.4c0.2 1.2-0.4 2.5-0.7 3.8c-1.2-0.3-2.9-0.3-3.4-1c-0.6-0.7 0.1-2.3 0.3-4.2zm381.3 60.7c-0.8 2-1.2 3.4-2 4.4c-0.4 0.3-2.8-0.5-2.8-0.8c0-1.4 0.3-2.9 1-4c0.2-0.4 1.9 0.1 3.8 0.4zm115-316c1.8 1 3.5 1.4 3.6 2c0.2 1.2-0.4 2.6-1.1 3.6c-0.3 0.3-2.7-0.3-3-0.9c-0.4-1 0.2-2.5 0.5-4.7zm-386 109.1c-0.7 1.9-0.9 3.7-1.4 3.8c-1.2 0.3-2.5-0.3-3.8-0.6c0.3-1.2 0.2-2.7 1-3.4c0.6-0.6 2.2 0 4.2 0.2zm-67 83c-0.8 1.8-1.1 3.6-1.6 3.7c-1.2 0.2-2.5-0.5-3.8-0.9c0.4-1.1 0.4-2.8 1.2-3.3c0.6-0.5 2.2 0.2 4.2 0.5zm364.9-235.7c2 0.8 3.4 1.1 4.5 1.9c0.3 0.2-0.5 2.7-0.9 2.7c-1.3 0.1-2.8-0.2-4-0.8c-0.3-0.1 0.2-1.9 0.4-3.8zm-5.8 47.6c-0.9 2-1.2 3.5-2.1 4.2c-0.5 0.4-2.4-0.1-3.1-0.8c-1.1-1.3-0.6-3 0.9-3.7c0.9-0.4 2.2 0.1 4.3 0.3zm46.2 10.2c-0.7 1.9-0.7 3.3-1.4 4c-1.3 1.1-3 0.7-3.6-0.8c-0.4-0.8 0-2.7 0.7-3.2c0.7-0.5 2.2-0.1 4.3 0zm-457.5 170c0.5-0.9 0.9-2.5 1.7-2.7c1-0.3 2.3 0.4 3.5 0.7c-0.3 1.1-0.3 2.9-0.9 3.2c-1 0.5-2.5 0-3.8-0.1q-0.3-0.5-0.5-1.1zm275.9-10.5c-2-0.9-3.7-1.1-4-2c-0.4-0.8 0.2-2.8 0.9-3.2c0.9-0.4 2.8 0 3.4 0.7c0.6 0.7-0.1 2.3-0.3 4.5zm35.2-70.2c1.1 0.4 2.6 0.7 3.1 1.5c0.4 0.7 0 2.9-0.5 3.1c-1 0.4-2.8 0.2-3.5-0.5c-0.6-0.6-0.1-2.3-0.1-3.5q0.5-0.3 1-0.6zm-184.5 81c-0.7 1.8-0.8 3.4-1.6 4c-0.6 0.4-2.9-0.2-3.1-0.8c-0.3-1.1 0-2.7 0.6-3.7c0.3-0.4 2.1 0.2 4.1 0.5zm418.2 72.8c0.7-1.3 1.2-2.8 2.2-3.8c0.3-0.3 1.8 0.4 2.7 0.6c-0.4 1.3-0.5 2.8-1.3 3.9c-0.4 0.5-1.9 0.2-2.9 0.3q-0.4-0.5-0.7-1zm-531.1-25.3c2 0.8 3.8 0.9 4 1.7c0.4 0.9-0.1 2.8-0.9 3.3c-0.8 0.5-2.7 0.1-3.4-0.6c-0.5-0.6 0.1-2.3 0.3-4.4zm261.3-185.3c1.8 0.6 3.1 0.8 4.1 1.6c0.3 0.2-0.4 2.7-0.9 2.7c-1.3 0.2-2.7-0.3-4-0.5c0.2-1 0.4-2 0.8-3.8zm244.9-90.5c-0.4 1-0.7 2.8-1.2 2.9c-1.3 0.1-2.7-0.3-3.8-1c-0.3-0.2 0.1-2.6 0.6-2.9c1.1-0.5 2.5-0.1 3.8 0q0.3 0.5 0.6 1zm-542.3 218.8c2 0.8 3.4 1.2 4.4 2c0.3 0.4-0.2 2.4-0.9 2.9c-1.4 1-3.1 0.6-3.8-1c-0.4-0.8 0.1-2 0.3-3.9zm524.4-272.8c1.9 1 3.4 1.4 3.9 2.3c0.4 0.7-0.4 2.1-0.7 3.2c-1.1-0.3-2.7-0.4-3.4-1.2c-0.5-0.6 0.1-2.2 0.2-4.3zm-211.4 294.3c1.7 0.5 3.5 0.9 3.5 1.1c0 1.4-0.3 2.9-1.1 4c-0.2 0.4-2.7 0-2.8-0.3c-0.1-1.3 0.2-2.7 0.4-4.8zm-146.5-4.1c0.5-1.2 0.9-2.6 1.7-3.4c0.5-0.4 2.7 0.2 2.8 0.7c0.3 1.1 0.1 2.7-0.6 3.5c-0.5 0.5-2.1 0.1-3.2 0.1q-0.4-0.5-0.7-0.9zm-115.3-4.7c-0.5 1-0.8 2.7-1.6 3c-0.8 0.4-2.6-0.2-3.2-1c-0.5-0.5 0-2.6 0.7-3c0.8-0.6 2.3-0.1 3.5 0q0.3 0.5 0.6 1zm-5.3 22.7c-0.9 1.9-1.1 3.6-1.8 3.8c-1 0.3-2.7-0.1-3.3-0.9c-0.5-0.5 0-2.7 0.7-3.1c0.8-0.6 2.3 0 4.4 0.2zm548.9-73.9c1.6 0.8 2.8 0.9 3.2 1.6c1.1 1.6 0.4 3.1-1.1 3.8c-0.8 0.4-2.1-0.3-3.1-0.5c0.3-1.4 0.6-2.8 1-4.9zm12.4-166.4c1.9 0.6 3.1 0.9 4.3 1.3c-0.4 1.1-0.4 2.8-1.2 3.3c-0.7 0.4-2.5-0.2-3.3-0.8c-0.5-0.4 0.1-2 0.2-3.8zm-357.1 70.7c0.8-2 1-3.6 1.7-4c0.9-0.4 2.7-0.1 3.2 0.6c0.5 0.7 0.2 2.7-0.4 3.2c-0.8 0.6-2.3 0.1-4.5 0.2zm149.6-15.4c1-1.7 1.4-3.1 2.3-3.7c0.6-0.3 2.6 0.4 2.7 0.9c0.2 1.1 0 2.7-0.8 3.5c-0.5 0.4-2.1-0.3-4.2-0.7zm31 79.6c0.5-1.2 0.8-2.6 1.7-3.4c0.5-0.4 2 0.3 3 0.5c-0.3 1.3-0.3 2.7-1 3.8c-0.3 0.4-2 0-3 0q-0.3-0.4-0.7-0.9zm-357.2 67c0.6-1.3 1-2.7 1.9-3.7c0.3-0.3 2.2 0.1 2.7 0.7c1.1 1.3 0.6 2.8-0.9 3.6c-0.9 0.4-2 0.3-3 0.4q-0.3-0.5-0.7-1zm505.5-57.2c-1-0.4-2.7-0.6-2.8-1.1c-0.1-1.2 0.3-2.6 0.8-3.8c0.1-0.2 2.5 0 2.7 0.5c0.4 1.1 0.2 2.5 0.2 3.8q-0.4 0.3-0.9 0.6zm-270.3-12.8c0.6-1.1 0.8-2.6 1.7-3.1c0.7-0.4 2.7 0.2 3 0.9c0.4 0.7-0.1 2.5-0.9 3.1c-0.6 0.5-2.1 0-3.2 0q-0.3-0.5-0.6-0.9zm-21.3-8.6c1 0.5 2.6 0.8 2.8 1.6c0.3 1-0.4 2.3-0.7 3.5c-1.1-0.3-2.7-0.3-3.1-1c-0.5-0.9 0-2.3 0-3.5q0.5-0.3 1-0.6zm341.9-113.8c0.6-1.8 0.9-3.5 1.3-3.6c1.3-0.1 2.6 0.4 3.9 0.7c-0.3 1.1-0.2 2.8-0.9 3.2c-0.9 0.4-2.3-0.1-4.3-0.3zm-389.6 103.2c2 0.8 3.2 1 3.9 1.8c1.1 1.1 0.8 2.8-0.7 3.3c-0.9 0.3-2.7 0-3.2-0.7c-0.5-0.8 0-2.3 0-4.4zm341.3-191.3c-0.5 1-0.7 2.5-1.5 2.8c-0.8 0.4-2.2-0.3-3.3-0.5c0.3-1.1 0.3-2.6 1-3.2c0.7-0.5 2.1-0.1 3.2-0.1q0.3 0.5 0.6 1zm-10.4 45.7c-0.7 1.8-1 3.1-1.7 4.1c-0.3 0.3-2.2-0.1-2.6-0.7c-1.3-1.7-0.3-3.2 1.1-4.2c0.5-0.3 1.6 0.4 3.2 0.8zm-286.9 82.1c-0.5 1.8-0.8 3.6-1.1 3.6c-1.3 0-2.7-0.3-3.8-1c-0.3-0.1 0.1-2.6 0.7-2.8c0.9-0.5 2.3 0 4.2 0.2zm-291.1 81.6c1.8 0.6 3.4 0.6 3.9 1.4c0.4 0.6-0.3 2.8-0.9 3.1c-1 0.3-2.5-0.1-3.5-0.7c-0.4-0.2 0.2-2 0.5-3.8zm204.3 69.7c1.8 0.7 3.7 1.1 3.6 1.5c0 1.3-0.4 2.6-1.2 3.7c-0.2 0.3-2.5-0.1-2.6-0.5c-0.3-1.2 0-2.5 0.2-4.7zm257.3-59.8c0.5-1.3 0.9-2.7 1.7-3.7c0.4-0.4 1.9 0.1 2.8 0.2c-0.4 1.4-0.7 2.9-1.4 4.1c-0.2 0.4-1.6 0.2-2.4 0.2q-0.4-0.4-0.7-0.8zm163.2-162.9c-0.8 1.7-1.1 3.2-1.9 3.6c-0.8 0.4-2.7-0.1-3-0.8c-0.4-0.7 0-2.5 0.7-3c0.7-0.5 2.2 0 4.2 0.2zm-538.1 201.6c0.9-1.8 1.2-3.3 1.9-3.6c0.9-0.4 2.2 0.3 3.3 0.5c-0.3 1.2-0.3 2.7-1.1 3.4c-0.5 0.5-2.1-0.1-4.1-0.3zm398.1-33.8c0.6-1.2 1-2.6 1.9-3.6c0.4-0.4 2.3-0.1 2.6 0.4c1 1.6 0.2 3.2-1.3 4.1c-0.7 0.4-1.7 0-2.6 0q-0.3-0.4-0.6-0.9zm-114.8-30c1.6 0.7 3.2 1.1 3.2 1.3c-0.1 1.3-0.5 2.7-1.2 3.8c-0.1 0.3-2.5-0.2-2.5-0.4c-0.1-1.3 0.2-2.6 0.5-4.7zm89.4-77.8c1.8 0.7 3.4 0.9 3.7 1.7c0.4 0.8-0.2 2.6-0.9 3.1c-0.7 0.4-2.6-0.1-3.1-0.8c-0.5-0.7 0.1-2.1 0.3-4zm102.6 218c-0.8 2.1-1 3.4-1.8 4.4c-0.2 0.3-2.1 0-2.7-0.6c-1.1-1.3-0.7-2.9 0.7-3.8c0.7-0.4 1.8 0 3.8 0zm-536.9-22c1.8 0.9 3.4 1.1 3.5 1.8c0.3 1-0.3 2.3-0.5 3.5c-1.1-0.3-2.7-0.2-3-0.9c-0.5-0.9-0.1-2.3 0-4.4zm315.1-75.8c-0.8 1.8-1 3.4-1.7 3.7c-0.9 0.3-2.2-0.5-3.3-0.8c0.4-1.1 0.4-2.5 1.1-3.2c0.5-0.5 2 0.1 3.9 0.3zm-363.6-32.4c2 0.6 3.3 0.8 4.4 1.5c0.3 0.2-0.3 2.6-0.7 2.6c-1.2 0.2-2.6-0.1-3.8-0.6c-0.3-0.1 0-1.7 0.1-3.5zm478-64.3c1.8 0.8 3.3 1.1 3.4 1.7c0.3 1.1-0.3 2.3-0.6 3.5c-1-0.2-2.7-0.1-3-0.7c-0.4-1 0-2.4 0.2-4.5zm-23-5.3c1.8 0.8 3.3 1.1 3.3 1.6c0.1 1.2-0.4 2.5-0.7 3.8c-0.9-0.2-2.6-0.2-2.7-0.7c-0.3-1.1 0-2.5 0.1-4.7zm-412.8 205.7c0.9-1.7 1.1-3.1 1.9-3.6c0.7-0.4 2 0.3 3 0.5c-0.3 1.2-0.3 2.7-1.1 3.5c-0.3 0.4-1.9-0.2-3.8-0.4zm10.1 196.4c-1.4-1.8-2.8-3.4-4.1-5.1q0.3-0.5 0.6-1c1.3 0.5 3 0.7 4 1.6c1.2 1.2 1.2 2.9-0.5 4.5zm296.7-255.4c1.9 0.9 3.5 1.3 3.6 1.9c0.1 1.1-0.5 2.3-0.9 3.5c-0.9-0.3-2.4-0.3-2.7-0.9c-0.4-1 0-2.3 0-4.5zm68.6-179c-0.7 1.8-0.9 3.5-1.6 3.7c-0.8 0.4-2.4-0.1-3.1-0.8c-0.5-0.4-0.1-2.4 0.5-2.9c0.8-0.5 2.2-0.1 4.2 0zm-292.1 105.7c-0.4 1.6-0.4 3.3-1 3.4c-0.9 0.4-2.9 0.1-3.1-0.5c-0.4-0.9 0.2-2.3 0.4-3.5c1 0.1 2.1 0.3 3.7 0.6zm54.3 65.7c0.7-1.8 0.9-3.2 1.6-3.8c0.6-0.4 2.6 0.1 2.8 0.7c0.3 0.9 0.1 2.4-0.5 3.2c-0.5 0.5-2 0-3.9-0.1zm-278.6-66.8c2.1 1 3.5 1.3 4.5 2.1c0.4 0.3-0.3 1.8-0.4 2.8c-1.3-0.4-2.8-0.5-3.9-1.2c-0.4-0.3-0.1-1.8-0.2-3.7zm600.1-61.6c1.7 0.8 3.2 1.1 3.4 1.7c0.3 1-0.3 2.2-0.6 3.3c-1.1-0.3-2.6-0.3-3.1-1c-0.5-0.6 0.1-2.1 0.3-4zm-210.5-22.7c-0.3 1.7-0.5 2.7-0.7 3.7c-1.2-0.3-2.7-0.2-3.4-0.9c-0.5-0.6-0.2-2.5 0.5-3.2c0.4-0.4 2 0.2 3.6 0.4zm206.8-71.4c0.5-0.9 0.7-2.2 1.3-2.4c1.2-0.3 2.5 0.1 3.7 0.3c-0.3 1-0.2 2.6-0.9 2.9c-0.9 0.5-2.3 0.1-3.5 0.1q-0.3-0.5-0.6-0.9zm129.4 77.3c0.6-1.1 1.1-2.4 2-3.3c0.3-0.4 1.6 0.2 2.5 0.4c-0.4 1.3-0.5 2.7-1.2 3.8c-0.2 0.4-1.8 0-2.7 0q-0.3-0.4-0.6-0.9zm-55.4-186.6c1.1 0.6 2.4 1.1 3.3 2c0.3 0.4-0.3 1.6-0.5 2.5c-1.2-0.3-2.5-0.4-3.4-1.1c-0.5-0.4-0.3-1.8-0.4-2.7q0.5-0.4 1-0.7zm-75 7.2c1.8 0.7 3.1 0.9 4 1.6c0.4 0.3-0.3 2.6-0.5 2.6c-1.3 0-2.7-0.2-3.9-0.7c-0.3-0.1 0.2-1.7 0.4-3.5zm-455.4 288.8c1.9 1 3.2 1.3 3.9 2.2c0.4 0.4-0.4 1.8-0.6 2.7c-1.2-0.3-2.6-0.5-3.5-1.2c-0.5-0.3 0-1.8 0.2-3.7zm224.7-23.3c1.8 0.7 3.3 0.9 3.7 1.7c0.5 0.6-0.1 2-0.3 3c-1.1-0.2-2.6-0.2-3.4-0.9c-0.5-0.3 0-1.9 0-3.8zm49.3 428.7c0-2.4 0.9-3.9 2.8-4.1c1.2-0.1 2.4 0.9 3.6 1.4q-0.1 0.6-0.2 1.2c-2 0.5-4 1-6.2 1.5zm150.7-335.4c0.8 0.4 2.2 0.6 2.4 1.2c0.3 1.1-0.2 2.3-0.3 3.4c-1.1-0.1-2.8 0-3-0.5c-0.5-1-0.1-2.4 0-3.6q0.4-0.3 0.9-0.5zm-505.9-15c-0.5 1.8-0.6 3.5-1.2 3.8c-0.8 0.4-2.2-0.4-3.3-0.7c0.3-1.1 0.4-2.4 1-3.3c0.3-0.4 1.8 0.1 3.5 0.2zm419.5-150.2c1.9 1 3.2 1.4 4 2.3c0.3 0.4-0.4 1.8-0.7 2.7c-1.2-0.4-2.5-0.5-3.4-1.3c-0.5-0.3 0-1.8 0.1-3.7zm85.5-54.3c1.8 0.7 3.4 0.8 3.5 1.3c0.2 1.1-0.1 2.5-0.6 3.6c-0.2 0.2-2.5 0-2.7-0.4c-0.5-1-0.2-2.4-0.2-4.5zm-124.9 142.7c-0.5 1.9-0.6 3.5-1.3 3.8c-0.7 0.4-2.1-0.3-3.2-0.5c0.2-1.1 0.2-2.5 0.8-3.2c0.4-0.5 1.9-0.1 3.7-0.1zm-378.8 37.3c1.7 0.8 3.1 1 3.5 1.7c0.4 0.7-0.2 2-0.4 3.1c-1.1-0.3-2.5-0.3-3.2-1c-0.5-0.4 0-1.9 0.1-3.8zm688.8-133.9c0.8-2 1-3.3 1.8-4.2c0.3-0.4 1.8 0.1 2.7 0.3c-0.2 1.2-0.1 2.5-0.8 3.5c-0.3 0.5-1.8 0.2-3.7 0.4zm-156.3-63.9c1.7 0.5 3 0.7 3.8 1.4c0.4 0.3-0.2 2.5-0.5 2.6c-1.2 0.1-2.5-0.1-3.6-0.6c-0.3-0.2 0.1-1.8 0.3-3.4zm26.9-13.5c0.8-1.6 1.1-3 1.6-3.1c1-0.3 2.3 0.3 3.4 0.5c-0.2 1-0.2 2.6-0.8 2.9c-0.9 0.4-2.2-0.1-4.2-0.3zm-244.4 116.1c0.4-1.1 0.6-2.5 1.4-3.3c0.3-0.4 1.8 0.2 2.7 0.3c-0.3 1.1-0.4 2.4-1 3.3c-0.3 0.5-1.6 0.3-2.4 0.5q-0.3-0.4-0.7-0.8zm212.5-79.9c1.6 0.8 3.1 1 3.3 1.7c0.3 0.8-0.1 2.5-0.8 2.9c-0.7 0.4-2.7 0.1-2.9-0.5c-0.4-0.8 0.1-2.2 0.4-4.1zm-372 136.6c1.8 0.6 3.3 0.7 3.6 1.3c0.3 0.9-0.3 2.1-0.6 3.2c-1-0.2-2.4-0.1-2.9-0.8c-0.5-0.5-0.1-1.9-0.1-3.7zm340.3-191.8c-0.8 1.8-1.2 3.4-1.5 3.3c-1.2 0-2.4-0.4-3.5-1c-0.2-0.2 0.2-2.3 0.6-2.4c1-0.3 2.3 0 4.4 0.1zm-272.3 211.2c0.4-1 0.7-2.3 1.4-2.7c0.8-0.4 2 0.1 3.1 0.2c-0.3 1.1-0.3 2.5-1 3.2c-0.5 0.5-1.9 0.1-3 0.1q-0.2-0.4-0.5-0.8zm295.2-206.2c-0.8 1.9-0.9 3.3-1.6 3.6c-0.8 0.4-2.1-0.2-3.2-0.3c0.2-1 0.2-2.4 0.8-3c0.7-0.5 2-0.2 4-0.3zm-29.3 457.3c-1.7 0.7-3.4 1.5-5.3 2.2c-0.6-2.1-0.4-3.8 1.5-4.3c1.2-0.2 2.7 0.6 4.1 0.9q-0.1 0.6-0.3 1.2zm-27-441.6c0.5-1.7 0.7-2.7 1-3.7c1 0.3 2.5 0.3 3 1c0.5 0.6 0 2 0 3.1c-1.1-0.1-2.2-0.2-4-0.4zm154.8-18.1c-0.7 1.7-0.8 3.1-1.6 3.6c-0.5 0.4-2.7-0.4-2.8-0.8c-0.1-1.1 0.4-2.5 1-3.4c0.2-0.3 1.8 0.3 3.4 0.6zm-395 107.4c1.8 0.6 3.4 0.7 3.6 1.4c0.3 0.8-0.4 2.1-0.6 3.2c-1-0.3-2.4-0.2-3-0.9c-0.5-0.6 0-1.9 0-3.7zm249.6-115.2c-0.4 1.6-0.6 2.5-0.9 3.4c-1.1-0.3-2.5-0.4-3.4-1.1c-0.4-0.3 0.1-1.8 0.2-2.8c1.1 0.1 2.3 0.3 4.1 0.5zm-220.1 199.5c0.7-1.7 1-3.4 1.5-3.5c1-0.2 2.4 0.3 3.2 0.9c0.4 0.3 0 2.4-0.5 2.6c-1 0.4-2.2 0.1-4.2 0zm265.2-287.6c-0.4 1.6-0.6 2.4-0.9 3.3c-1.3-0.4-2.6-0.7-3.8-1.3c-0.2-0.1 0.2-2.3 0.5-2.3c1.2-0.2 2.5 0.1 4.2 0.3zm-121.4 193.5c1.1 0.4 2.4 0.7 3.3 1.4c0.3 0.3-0.2 2.4-0.4 2.4c-1.2 0.1-2.5 0-3.5-0.5c-0.5-0.2-0.2-1.7-0.2-2.7q0.4-0.3 0.8-0.6zm232.5-164.5c0.4-1.5 0.6-2.4 0.9-3.3c1.1 0.4 2.5 0.4 3.1 1.2c0.4 0.6-0.1 1.9-0.2 3c-1.1-0.3-2.1-0.5-3.8-0.9zm-49.3 111.1c0.3-1.6 0.5-2.6 0.7-3.6c1.1 0.3 2.6 0.4 3.1 1.1c0.5 0.5-0.1 2-0.3 3.1c-1-0.2-2-0.4-3.5-0.6zm-366.9 109.1c1.9 0.6 3.4 0.6 4 1.3c0.4 0.5-0.3 2-0.5 3c-1.2-0.2-2.5-0.2-3.4-0.8c-0.4-0.4 0-1.8-0.1-3.5zm420.5-242.9c0.8-1.6 1.1-3.1 1.6-3.2c1-0.1 2.3 0.3 3.1 0.9c0.3 0.3-0.1 2.4-0.6 2.6c-1 0.3-2.2-0.1-4.1-0.3zm-266.3 228.6c-0.8 1.8-0.9 3.2-1.7 3.8c-0.4 0.4-1.8-0.3-2.8-0.5c0.3-1.1 0.2-2.4 0.9-3.3c0.3-0.4 1.8 0 3.6 0zm-314.7 76.2c1.6 0.6 3.1 0.9 3.1 1.2c0.1 1.2-0.4 2.4-0.7 3.6c-0.9-0.2-2.4-0.3-2.6-0.8c-0.3-0.9 0.1-2.2 0.2-4zm434-171.6c-0.9 1.8-1.1 3.2-1.9 3.8c-0.5 0.3-1.8-0.4-2.8-0.6c0.3-1.1 0.4-2.5 1.1-3.3c0.3-0.4 1.7 0 3.6 0.1zm-38 40.1c1.6 0.8 2.9 1.1 3.1 1.7c0.3 1-0.3 2.1-0.5 3.2c-1-0.3-2.4-0.3-2.9-1c-0.5-0.7 0.1-2 0.3-3.9zm176-131.6c1.5 0.8 2.8 1 2.9 1.5c0.3 1.1-0.1 2.2-0.3 3.4c-1-0.3-2.6-0.2-2.9-0.8c-0.4-0.9 0.1-2.2 0.3-4.1zm-376.6 262.1c1-1.7 1.3-3.1 2-3.4c0.8-0.3 2 0.4 3 0.6c-0.3 1-0.4 2.4-1 2.9c-0.7 0.5-2 0-4-0.1zm346.1-214.8c-1.8-0.8-3.4-1.1-3.6-1.8c-0.3-0.9 0.5-2.1 0.8-3.2c1 0.4 2.3 0.4 2.7 1.1c0.4 0.7 0.1 2 0.1 3.9zm-92.7-45.1c0.8-1.7 1-3 1.8-3.5c0.6-0.3 2.4 0.1 2.6 0.6c0.4 0.9 0.2 2.5-0.4 3c-0.6 0.5-2 0-4-0.1zm-524.7 292.7c-0.6 1.7-0.7 3-1.4 3.8c-0.4 0.3-1.8-0.3-2.7-0.4c0.2-1.2 0.3-2.5 0.8-3.5c0.2-0.4 1.7 0 3.3 0.1zm0.6-20.1c0.6-1.7 0.8-3.1 1.4-3.3c0.9-0.3 2.3-0.1 3 0.5c0.5 0.4 0.2 2.5-0.3 2.7c-0.9 0.5-2.2 0.1-4.1 0.1zm310.5-81.6c1.6 0.7 3.1 1 3.2 1.6c0.3 0.8-0.1 2.3-0.8 2.9c-0.5 0.4-2.5 0-2.7-0.4c-0.3-1 0.1-2.2 0.3-4.1zm-97.8 2.8c1.7 0.8 3 1 3.4 1.7c0.4 0.6-0.2 1.8-0.4 2.8c-1.1-0.3-2.4-0.3-3.2-1c-0.4-0.3 0.1-1.7 0.2-3.5zm-156.7 63.3c-0.6 1.1-1 2.3-1.7 3.2c-0.3 0.3-1.5-0.2-2.3-0.3c0.2-1.2 0.3-2.5 0.9-3.5c0.2-0.4 1.6-0.2 2.4-0.3q0.3 0.4 0.7 0.9zm511.1-228c1.5 0.8 2.9 1.1 2.9 1.5c0.2 1.1-0.4 2.2-0.6 3.3c-0.9-0.2-2.4-0.2-2.5-0.7c-0.3-1 0-2.2 0.2-4.1zm-168.6 11.5c-0.5 0.7-0.9 1.9-1.5 2c-1.1 0.2-2.3-0.3-3.5-0.5c0.3-0.8 0.4-2.2 0.9-2.4c1.1-0.4 2.4-0.1 3.6-0.1q0.2 0.5 0.5 1zm297.7 66c1.6 0.8 3 1.1 3 1.5c0.1 1.2-0.3 2.4-0.8 3.5c-0.1 0.1-2.3-0.2-2.4-0.6c-0.2-1.1 0.1-2.4 0.2-4.4zm-570.3 165.2c-0.5 1.8-0.6 3.1-1.2 3.7c-0.4 0.4-2.4 0.1-2.6-0.4c-0.4-0.9-0.2-2.3 0.3-3c0.4-0.5 1.8-0.2 3.5-0.3zm274.3-133.3c-0.7 1.7-0.8 3.1-1.4 3.4c-0.9 0.3-2.1-0.3-3.1-0.5c0.2-0.9 0.1-2.3 0.7-2.7c0.7-0.5 2-0.2 3.8-0.2zm189.9-104c1.6 0.7 3 0.9 3.2 1.5c0.3 0.8-0.2 2-0.4 3.1c-1-0.3-2.5-0.2-2.9-0.8c-0.5-0.7 0-2 0.1-3.8zm-158.1 163.8c0.4-1.1 0.7-2.4 1.5-3.3c0.2-0.3 1.6 0.3 2.5 0.5c-0.3 1.1-0.4 2.4-0.9 3.3c-0.3 0.5-1.6 0.2-2.5 0.3q-0.3-0.4-0.6-0.8zm-178.5 29.6c1.6 0.5 3.1 0.6 3.3 1.2c0.4 0.8-0.2 2-0.3 3c-1-0.2-2.4-0.1-3-0.7c-0.5-0.5 0-1.9 0-3.5zm304.6-30.3c-0.8 1.9-1 3.1-1.7 3.8c-0.2 0.4-2.2-0.1-2.3-0.5c-0.2-1-0.1-2.3 0.4-3.2c0.2-0.4 1.7-0.1 3.6-0.1zm-271.5 12.7c-0.5 1.7-0.6 3.1-1.3 3.6c-0.5 0.4-2.5 0-2.7-0.6c-0.3-0.8 0-2.2 0.5-2.9c0.4-0.5 1.8-0.1 3.5-0.1zm-63.5-61.7c1.7 0.5 3 0.6 3.7 1.2c0.4 0.4 0 2.4-0.5 2.6c-0.8 0.4-2.3 0.2-3-0.3c-0.5-0.4-0.1-1.8-0.2-3.5zm-78.1 127.7c1.6 0.5 3.1 0.7 3.1 1.1c0.2 1.1-0.1 2.3-0.6 3.2c-0.2 0.4-2.4 0.1-2.5-0.2c-0.3-1 0-2.2 0-4.1zm535.7-319.2c1.5 0.6 3 0.8 3.1 1.2c0.1 1-0.1 2.5-0.8 3.1c-0.4 0.4-2.4 0-2.8-0.6c-0.5-0.6 0.2-2 0.5-3.7zm-36.4-56.9c1.6 0.8 2.9 1 3.2 1.7c0.4 0.7-0.2 1.9-0.4 2.9c-1-0.3-2.4-0.3-3-1c-0.5-0.4 0-1.8 0.2-3.6zm-348.5 360.4c1.7 0.8 3.2 1.1 3.3 1.6c0.2 1-0.4 2.2-0.6 3.3c-0.9-0.3-2.3-0.4-2.7-1c-0.4-0.7 0-2 0-3.9zm-198.3 9.5c0.8-1.6 1.1-2.9 1.8-3.3c0.6-0.3 2.5 0.3 2.6 0.8c0.2 0.9-0.2 2.3-0.9 2.9c-0.4 0.4-1.8-0.1-3.5-0.4zm488.2-431.9c1.6 0.7 2.8 1 3.6 1.7c0.3 0.3-0.4 2.3-0.6 2.3c-1.2 0-2.4-0.2-3.4-0.8c-0.3-0.1 0.2-1.6 0.4-3.2zm-255.3 285.2c-0.5 1.4-0.7 2.9-1.1 3c-1 0.1-2.3-0.2-3-0.8c-0.4-0.4 0.2-1.8 0.3-2.8c1.1 0.2 2.1 0.3 3.8 0.6zm267.9-14.3c1.3 0.4 2.7 0.7 2.7 0.9c-0.1 1.2-0.4 2.4-0.7 3.6c-0.8-0.2-2.4-0.3-2.5-0.6c-0.1-1.1 0.3-2.2 0.5-3.9zm-55.2-80.7c0.7-1.6 1-2.8 1.6-3.7c0.2-0.3 2.2 0.2 2.2 0.3c0 1.2 0 2.4-0.5 3.4c-0.1 0.4-1.6 0-3.3 0zm-278.9 152.7c1.5 0.7 2.9 0.9 3 1.4c0.2 1-0.3 2.1-0.6 3.1c-0.9-0.3-2.2-0.3-2.6-1c-0.4-0.6 0.1-1.8 0.2-3.5zm137.8-67.1c1.5 0.8 2.7 1 2.9 1.6c0.2 0.9-0.3 2-0.5 3.1c-0.9-0.2-2.4-0.2-2.7-0.8c-0.4-0.8 0.1-2 0.3-3.9zm208.5-171.7c1.7 0.7 2.9 0.8 3.7 1.5c0.3 0.3-0.3 2.3-0.6 2.4c-1 0.1-2.2-0.1-3-0.7c-0.4-0.3-0.1-1.6-0.1-3.2zm-142.2 89.8c1.8 0.9 3 1.1 3.6 1.9c0.4 0.4-0.3 1.7-0.5 2.5c-1-0.3-2.2-0.4-3-1c-0.4-0.4-0.1-1.6-0.1-3.4zm118.9-94.9c1.7 0.5 2.9 0.5 3.7 1.1c0.3 0.3-0.1 2.3-0.6 2.4c-0.9 0.3-2.2 0.2-3.1-0.3c-0.3-0.2 0-1.6 0-3.2zm-280.4 277.6c0.8 0.6 1.9 1 2.2 1.7c0.2 0.8-0.3 1.8-0.6 2.7c-0.9-0.2-2.3-0.3-2.6-0.9c-0.5-0.7 0-2 0.1-3q0.5-0.2 0.9-0.5zm99.5-123.6c1.5 0.5 3 0.7 3.1 1c0.1 1-0.2 2.2-0.7 3.1c-0.2 0.2-2.2 0-2.4-0.6c-0.4-0.7-0.1-1.9 0-3.5zm171.1 18c-1.3-0.6-2.7-1-2.7-1.2c0.1-1.2 0.5-2.3 1-3.3c0.1-0.2 2 0.3 2.1 0.6c0.1 1-0.2 2.2-0.4 3.9zm-417.5 102.1c0.6-1.6 0.7-2.9 1.3-3.3c0.7-0.3 2.3 0.1 2.6 0.7c0.4 0.7 0.1 2.3-0.4 2.7c-0.6 0.5-1.9 0-3.5-0.1zm388.7-210.6c1.6 0.7 3.1 0.9 3.2 1.4c0.1 0.9-0.3 2.2-0.9 2.9c-0.3 0.3-2.2 0-2.4-0.5c-0.4-0.8 0-2 0.1-3.8zm46.4 10.5c1.6 0.6 2.9 0.7 3.2 1.3c0.4 0.7-0.2 1.9-0.3 2.8c-1-0.1-2.3 0-3-0.5c-0.5-0.4 0-1.9 0.1-3.6zm-31.4-76.3c0.4-0.9 0.7-2.1 1.3-2.4c0.7-0.4 1.8 0.1 2.8 0.2c-0.3 1-0.2 2.2-0.8 2.8c-0.5 0.5-1.8 0.2-2.7 0.2q-0.3-0.4-0.6-0.8zm-435.4 313.7c0.8 0.4 2.1 0.6 2.4 1.2c0.4 0.7-0.1 1.9-0.3 2.8c-0.9-0.2-2.2-0.1-2.8-0.7c-0.4-0.5-0.1-1.8-0.2-2.7q0.4-0.3 0.9-0.6zm-140.4-31.2c1.6 0.7 2.8 0.9 3.4 1.6c0.4 0.4-0.2 1.7-0.3 2.5c-1.1-0.3-2.3-0.5-3.3-1.1c-0.3-0.1 0.1-1.4 0.2-3zm747.7 43.6q0 2.8-0.1 5.7q-0.4 0.2-0.8 0.4c-0.6-1-1.7-2-1.7-3c0-1.1 0.9-2.3 1.4-3.4q0.6 0.1 1.2 0.3zm-475.9-56.8c1.6 0.8 2.8 1.1 3.1 1.8c0.3 0.7-0.2 1.8-0.4 2.8c-1-0.3-2.3-0.3-2.9-1c-0.5-0.5 0-1.8 0.2-3.6zm169.1-83.8c-0.6 1.6-0.7 2.9-1.3 3.3c-0.6 0.3-2.4-0.1-2.6-0.7c-0.3-0.7 0.1-2.1 0.7-2.7c0.3-0.4 1.6 0 3.2 0.1zm28.2-18.5c-0.7 1.7-0.8 3-1.5 3.4c-0.7 0.3-1.8-0.2-2.8-0.4c0.2-0.9 0.1-2.1 0.6-2.7c0.6-0.5 1.8-0.2 3.7-0.3zm-206.3 30.4c0.6-0.8 0.9-2 1.7-2.3c0.7-0.3 1.9 0.3 2.8 0.5c-0.3 0.8-0.5 2-1.1 2.3c-0.7 0.5-1.9 0.3-2.9 0.4q-0.2-0.5-0.5-0.9zm369.7-233.1c0.7-1.5 0.9-2.7 1.6-3.1c0.6-0.4 1.7 0.1 2.6 0.3c-0.3 1-0.3 2.2-0.9 2.9c-0.3 0.4-1.6 0-3.3-0.1zm9.9 70.9c0.9 0.5 2 0.8 2.4 1.5c0.4 0.7-0.2 1.8-0.3 2.7c-0.9-0.4-2.1-0.5-2.7-1.2c-0.4-0.5-0.1-1.6-0.2-2.5q0.4-0.3 0.8-0.5zm-112.3-48.7c2.1-0.1 3.5 0.7 3.3 2.8c0 0.4-1.4 1.2-1.9 1.1c-2-0.6-2.1-2.1-1.4-3.9zm53.1 87.6c0.5-0.8 0.9-1.9 1.6-2.3c0.7-0.3 1.7 0.2 2.6 0.3c-0.3 0.9-0.3 2.2-0.9 2.7c-0.6 0.5-1.8 0.2-2.8 0.2q-0.2-0.5-0.5-0.9zm-158.6 184.6c-1.4-0.4-2.8-0.5-2.9-0.8c-0.2-1 0-2.2 0.4-3.1c0.1-0.3 2.1-0.2 2.2 0.2c0.4 0.9 0.3 2 0.3 3.7zm-146 89.5c0.7-1.5 0.9-2.7 1.5-3.2c0.4-0.3 2.2 0.3 2.3 0.7c0.2 0.9 0 2.1-0.6 2.8c-0.3 0.3-1.6-0.1-3.2-0.3zm-155-159.4c-0.7 1.4-0.9 2.7-1.3 2.7c-1.1 0.1-2.2-0.2-3.1-0.7c-0.2-0.1 0-2.1 0.3-2.1c1.1-0.2 2.2 0 4.1 0.1zm-95.8 99.8c-0.8 1.6-1 2.9-1.5 3c-0.9 0.2-2.1-0.2-2.8-0.8c-0.3-0.2 0.1-2.1 0.7-2.3c0.7-0.4 1.8 0 3.6 0.1zm-25.8-123.4c0.5-1.4 0.8-2.6 1-2.6c1.1 0.1 2.3 0.4 3.3 0.8c0.2 0.1-0.1 1.9-0.2 1.9c-1.2 0.1-2.3 0-4.1-0.1zm39.5 150.6c1.4 0.5 2.8 0.7 2.8 1.1c0.1 0.9-0.1 2.1-0.7 2.8c-0.3 0.4-1.5 0-2.4-0.1c0.1-1 0.2-2.1 0.3-3.8zm188.2-79.7c1.5 0.5 2.8 0.6 3 1.2c0.3 0.8 0.1 2.2-0.5 2.7c-0.4 0.4-2.2 0.1-2.6-0.4c-0.4-0.6 0-1.8 0.1-3.5zm366.5-89c-0.6 1.5-0.8 2.6-1.5 3.2c-0.2 0.3-1.9-0.3-2.2-0.9c-0.3-0.6-0.1-2 0.5-2.5c0.4-0.4 1.6 0 3.2 0.2zm-474.7 137.7c1.4 0.5 2.8 0.7 2.9 1.1c0.2 0.9-0.2 2.2-0.8 2.7c-0.4 0.4-1.7-0.1-2.6-0.2c0.2-1 0.3-1.9 0.5-3.6zm131.6-43.8c1.5 0.8 2.8 1 3 1.6c0.2 0.8-0.3 1.8-0.6 2.8c-0.8-0.2-2.1-0.2-2.4-0.8c-0.5-0.6-0.1-1.8 0-3.6zm322.2 320.5q-0.3-2.8-0.7-5.6q0.3-0.3 0.6-0.5c0.8 0.7 2.2 1.5 2.2 2.3c0.1 1.3-0.7 2.6-1.1 4q-0.5-0.1-1-0.2zm53.2-577.8c1.5 0.6 2.8 0.8 3 1.3c0.2 0.8-0.3 1.9-0.5 2.9c-0.8-0.2-2.2-0.1-2.5-0.6c-0.4-0.7 0-1.9 0-3.6zm-227.4 144.2c1.5 0.6 2.8 0.8 2.9 1.3c0.3 0.9-0.2 1.9-0.3 2.9c-1-0.2-2.3-0.1-2.7-0.6c-0.4-0.6 0-1.9 0.1-3.6zm142.3-90.5c1.5 0.7 2.6 0.9 2.9 1.5c0.3 0.7-0.2 1.7-0.3 2.6c-0.9-0.1-2.3 0.1-2.7-0.5c-0.5-0.5 0-1.8 0.1-3.6zm-563.9 118.9c1.7 0.7 2.9 1 3.8 1.6c0.2 0.2-0.1 1.3-0.2 2c-1.2-0.2-2.4-0.3-3.4-0.8c-0.3-0.1-0.1-1.3-0.2-2.8zm590.9-112.9c-0.9 1.7-1.2 2.8-1.9 3.3c-0.5 0.3-1.7-0.2-2.5-0.4c0.3-0.9 0.3-2.1 0.9-2.7c0.5-0.4 1.7-0.1 3.5-0.2zm-466.7 212.7c1.3 0.7 2.5 0.9 2.6 1.4c0.2 0.8-0.2 1.9-0.4 2.8c-0.9-0.2-2.3-0.1-2.5-0.6c-0.4-0.8 0.1-1.9 0.3-3.6zm501.8-277.8c1.4 0.7 2.7 0.9 2.8 1.4c0.2 0.9-0.1 2.1-0.6 2.8c-0.3 0.3-2.1-0.1-2.4-0.6c-0.4-0.7 0-1.8 0.2-3.6zm-163.7 183.1c1.4 0.4 2.6 0.4 3 0.9c0.3 0.6 0 2.2-0.5 2.5c-0.7 0.3-1.9-0.1-2.8-0.2c0.1-0.9 0.2-1.8 0.3-3.2zm17.5 32.5c0.8-1.6 1-2.7 1.7-3.2c0.3-0.3 2.1 0.2 2.1 0.5c0.2 0.9 0.1 2.1-0.4 2.8c-0.3 0.4-1.7 0-3.4-0.1zm-311.1 97c-0.5 1.4-0.6 2.6-1.2 3c-0.6 0.4-1.7 0-2.6-0.1c0.3-0.9 0.3-2 0.8-2.7c0.3-0.4 1.5-0.2 3-0.2zm415.4-346c1.5 0.6 2.8 0.7 3 1.2c0.3 0.8-0.2 1.8-0.4 2.8c-0.9-0.2-2.1-0.2-2.7-0.8c-0.4-0.4 0-1.6 0.1-3.2zm-511.6 324.7c1.5 0.6 2.7 0.7 3 1.3c0.3 0.6-0.1 1.7-0.3 2.6c-0.9-0.2-2.1-0.1-2.8-0.6c-0.4-0.4 0-1.7 0.1-3.3zm441.6-116.6c0.6-1.7 0.8-2.8 1.4-3.6c0.2-0.2 2 0.2 2 0.4c0.1 1 0 2.2-0.4 3.1c-0.2 0.3-1.5 0-3 0.1zm24.4-96.5c-0.5 1.5-0.6 2.8-1.2 3.1c-0.7 0.3-1.8-0.3-2.7-0.5c0.2-0.8 0.2-2 0.7-2.5c0.5-0.4 1.7-0.1 3.2-0.1zm-123.6 98.6c0.7-1.5 0.8-2.7 1.4-3c0.6-0.4 1.7 0.1 2.6 0.3c-0.2 0.9-0.2 2.1-0.7 2.7c-0.4 0.4-1.7 0-3.3 0zm254.4-263.6c1.6 0.7 2.7 0.9 3.3 1.6c0.3 0.4-0.3 1.5-0.4 2.3c-1-0.3-2.1-0.3-2.8-0.8c-0.4-0.3-0.1-1.5-0.1-3.1zm26.5 102.1c1.5 0.7 2.7 1 2.8 1.5c0.2 0.9-0.2 2-0.4 3c-0.8-0.2-1.9-0.3-2.2-0.9c-0.4-0.7-0.2-1.8-0.2-3.6zm-166.5 89.4c0.6-1.6 0.8-2.8 1.4-3.3c0.4-0.4 2 0 2.2 0.5c0.3 0.7 0.2 2-0.3 2.5c-0.4 0.5-1.6 0.2-3.3 0.3zm-340.6 212.4c1.5 0.5 2.7 0.6 3 1.2c0.3 0.6 0.1 2-0.5 2.4c-0.5 0.4-1.9 0.1-2.4-0.4c-0.4-0.5-0.1-1.6-0.1-3.2zm260.2-182.7c0.5-0.8 0.8-1.9 1.5-2.1c0.7-0.3 1.7 0.2 2.6 0.3c-0.2 0.8-0.3 1.9-0.8 2.2c-0.8 0.5-1.9 0.3-2.8 0.4q-0.3-0.4-0.5-0.8zm-128.7 138.8c1.4 0.5 2.8 0.7 2.8 1c0.1 0.9-0.2 2-0.8 2.7c-0.3 0.3-2.1-0.1-2.2-0.4c-0.2-0.8 0.1-1.9 0.2-3.3zm372-331.2c-0.6 1.5-0.9 2.3-1.2 3.1c-0.9-0.4-1.9-0.5-2.4-1.2c-0.4-0.4 0-1.5 0.1-2.3c0.9 0.1 1.9 0.2 3.5 0.4zm-245.1 310.6c1.5 0.6 2.6 0.6 3 1.2c0.3 0.5-0.1 2-0.5 2.3c-0.7 0.4-2.1 0.2-2.6-0.3c-0.4-0.4 0-1.6 0.1-3.2zm163.2-183.1c1.5 0.7 2.8 0.8 3 1.4c0.2 0.6-0.2 1.9-0.8 2.4c-0.5 0.4-2.3 0.1-2.3-0.1c-0.3-0.9 0-2 0.1-3.7zm-15.2-149.7c1.8 0.7 2.9 0.9 3.6 1.6c0.4 0.4 0.1 1.5 0.1 2.3c-1.1-0.3-2.3-0.5-3.2-1.1c-0.4-0.2-0.3-1.2-0.5-2.8zm-124.5 338c1.6 0.8 2.7 0.9 3 1.6c0.4 0.6-0.1 1.7-0.2 2.6c-0.8-0.2-2-0.2-2.4-0.8c-0.5-0.6-0.2-1.7-0.4-3.4zm241.2-189.7c-0.9 1-1.9 2-3.4 3.6c-0.4-1.2-1.1-2.7-0.8-2.9c1-0.9 2.3-1.3 3.6-1.8q0.3 0.5 0.6 1.1zm-40.6-53.7c0.8-1.6 1-2.7 1.7-3.2c0.3-0.3 2 0.2 2.1 0.6c0.2 0.8 0.1 2.1-0.4 2.7c-0.3 0.4-1.7 0-3.4-0.1zm-51.9 33.1c-0.4 1.3-0.5 2.6-1 2.7c-0.9 0.3-1.9-0.1-2.9-0.3c0.2-0.8 0.2-2.1 0.8-2.5c0.6-0.4 1.7 0 3.1 0.1zm-208.6 152c0.5-1.3 0.7-2.7 1.1-2.7c0.9-0.1 1.8 0.3 2.7 0.5c-0.2 0.9-0.1 2.1-0.7 2.5c-0.5 0.4-1.7-0.1-3.1-0.3zm-339.3 116c-0.5 1.3-0.6 2.5-1 2.7c-0.8 0.2-1.8-0.2-2.7-0.4c0.1-0.9 0-2.1 0.6-2.5c0.5-0.4 1.7 0 3.1 0.2zm154.7-38.9c-0.5 1.4-0.8 2.3-1 3.1c-0.9-0.3-2-0.3-2.5-0.9c-0.3-0.4-0.1-2 0.3-2.2c0.6-0.4 1.7-0.1 3.2 0zm166.3-108.8c1.5 0.5 2.8 0.6 3 1.1c0.4 0.7 0 2.1-0.5 2.5c-0.5 0.4-2 0.1-2.4-0.4c-0.5-0.5-0.1-1.7-0.1-3.2zm-246.4 119.2c0.9-1.6 1.3-2.7 2-3.2c0.4-0.3 1.5 0.3 2.2 0.5c-0.2 0.8-0.1 2-0.7 2.5c-0.5 0.4-1.7 0.1-3.5 0.2zm504.3-378.6c-0.7 1.6-0.9 2.7-1.4 2.9c-0.8 0.3-1.9-0.1-2.8-0.1c0.1-0.8 0.1-2 0.5-2.3c0.8-0.5 1.9-0.3 3.7-0.5zm55.8 60.6c1.5 0.6 2.6 0.8 2.8 1.3c0.2 0.7 0 1.9-0.5 2.5c-0.3 0.3-2 0.1-2.2-0.3c-0.3-0.8-0.1-1.9-0.1-3.5zm-222.8-74.2c-0.7 1.3-1 2.5-1.4 2.5c-1 0-2-0.5-2.9-0.7c0.2-0.7 0.3-1.8 0.7-1.9c0.9-0.3 1.9 0 3.6 0.1zm147.6 82c1.4 0.6 2.5 0.7 3 1.3c0.3 0.4-0.2 2-0.7 2.2c-0.7 0.3-2 0.2-2.5-0.3c-0.4-0.4 0-1.7 0.2-3.2zm-530.7 299.9c0.6-1.5 0.8-2.5 1.5-3.1c0.2-0.3 1.8 0.2 1.9 0.5c0.1 0.9 0 2-0.4 2.8c-0.1 0.3-1.5-0.1-3-0.2zm69.5 16c0.5-1.4 0.6-2.5 1.2-3c0.4-0.3 1.6 0.2 2.4 0.4c-0.2 0.9-0.1 2-0.7 2.6c-0.3 0.4-1.5 0-2.9 0zm487.5-212.9c1.2 0.7 2.4 0.9 2.4 1.3c0 0.9-0.3 1.9-0.7 2.8c-0.1 0.1-1.9-0.2-1.9-0.6c-0.2-0.9 0-1.9 0.2-3.5zm-457.9 190.7c1.4 0.8 2.5 1 2.9 1.6c0.3 0.5-0.2 1.6-0.4 2.4c-0.8-0.3-1.8-0.4-2.4-0.9c-0.4-0.4-0.1-1.5-0.1-3.1zm103.3-25.3c1.3 0.6 2.6 0.7 2.7 1.2c0.3 0.8-0.2 1.7-0.4 2.6c-0.8-0.2-2-0.1-2.3-0.6c-0.4-0.6-0.1-1.7 0-3.2zm-283.5 82.8c-0.7 1.4-0.9 2.5-1.5 2.8c-0.5 0.3-2.1-0.2-2.2-0.6c-0.1-0.8 0.2-1.9 0.7-2.5c0.4-0.3 1.6 0.1 3 0.3zm534.5-222.3c1.5 0.7 2.6 0.8 2.8 1.3c0.3 0.8-0.1 1.8-0.2 2.7c-0.8-0.2-1.9-0.2-2.2-0.6c-0.5-0.7-0.3-1.7-0.4-3.4zm-514.6 226.4c1.3 0.7 2.5 1 2.6 1.5c0.2 0.7-0.3 1.7-0.6 2.5c-0.7-0.2-1.9-0.3-2.1-0.7c-0.4-0.7 0-1.7 0.1-3.3zm438.8-217.9c1.5 0.7 2.5 1 3.2 1.6c0.2 0.2-0.3 1.8-0.7 1.9c-0.8 0.2-1.9 0-2.5-0.5c-0.4-0.3-0.1-1.5 0-3zm100-100.2c-0.4 1.4-0.5 2.8-0.9 2.8c-0.8 0.2-1.9-0.1-2.4-0.7c-0.4-0.3-0.2-1.9 0.3-2.2c0.6-0.3 1.6 0 3 0.1zm-76.1 643c1.2-0.7 2.2-1.6 3.5-2c0.4-0.2 1.3 0.9 2.7 2c-2.5 0.4-4.1 0.7-5.7 1q-0.2-0.5-0.5-1zm-372.2-402.1c1.5 0.7 2.5 1 2.9 1.6c0.3 0.5-0.4 1.5-0.6 2.3c-0.8-0.3-1.8-0.3-2.3-0.9c-0.4-0.4 0-1.5 0-3zm53.8 89c0.5-1.3 0.6-2.4 1.2-2.8c0.4-0.3 2.1 0.1 2.1 0.4c0.2 0.9 0 2-0.4 2.8c-0.1 0.2-1.5-0.2-2.9-0.4zm440.2-441.4c1.3 0.4 2.6 0.6 2.6 0.8c0 0.9-0.3 2-0.8 2.8c-0.1 0.2-1.9 0-2-0.3c-0.1-0.9 0.1-1.9 0.2-3.3zm28.7-18.3c1.3 0.5 2.5 0.6 2.7 1.1c0.2 0.8-0.1 1.9-0.6 2.5c-0.3 0.3-2 0-2.2-0.4c-0.3-0.7 0-1.7 0.1-3.2zm-302.3 371.4c1.2 0.7 2.3 0.9 2.4 1.4c0.1 0.8-0.3 1.7-0.5 2.6c-0.7-0.2-1.9-0.3-2.1-0.7c-0.3-0.8 0.1-1.8 0.2-3.3zm257.8-283.8c1.3 0.5 2.6 0.7 2.7 1.1c0.1 0.7-0.2 1.9-0.8 2.4c-0.4 0.3-2-0.1-2.2-0.4c-0.3-0.8 0.1-1.7 0.3-3.1zm-115.9 193.6c1.3 0.5 2.4 0.7 2.5 1.1c0.2 0.8-0.1 1.8-0.2 2.7c-0.8-0.2-2-0.1-2.2-0.6c-0.4-0.7-0.1-1.7-0.1-3.2zm38.9-161c-0.4 1.3-0.5 2.6-0.9 2.7c-0.7 0.1-1.9-0.1-2.3-0.7c-0.4-0.5 0-1.5 0.1-2.3c0.9 0.1 1.7 0.2 3.1 0.3zm102.1 74.3c0.8-1.5 1-2.6 1.7-3.2c0.2-0.3 1.9 0.2 1.9 0.5c0 0.9-0.1 2-0.6 2.7c-0.2 0.4-1.4 0-3 0zm-86.7-48.1c1.4 0.8 2.5 1 2.9 1.7c0.3 0.5-0.1 1.5-0.1 2.3c-0.9-0.2-2-0.2-2.6-0.8c-0.4-0.4-0.1-1.6-0.2-3.2zm95.8-99.7c1.3 0.6 2.3 0.7 2.9 1.3c0.3 0.2-0.1 1.9-0.5 1.9c-0.8 0.3-1.9 0.2-2.6-0.3c-0.3-0.2 0.1-1.5 0.2-2.9zm-66.2-14.9c-0.4 1.2-0.6 1.9-0.9 2.5c-0.8-0.3-1.8-0.4-2.5-1c-0.2-0.2 0.2-1.8 0.4-1.9c0.8-0.1 1.7 0.2 3 0.4zm27.6 78.6c1.2 0.7 2.3 1 2.3 1.4c0 0.9-0.4 1.9-0.7 2.8c-0.6-0.3-1.7-0.5-1.9-1c-0.2-0.7 0.1-1.7 0.3-3.2zm38.5 62.1c-1.2-0.7-2.2-0.9-2.3-1.4c-0.3-0.8 0-1.7 0.1-2.6c0.8 0.2 2 0.2 2.3 0.6c0.3 0.7 0 1.8-0.1 3.4zm-193.7 99c-0.6 1.3-0.8 2.3-1.4 2.9c-0.3 0.2-1.3-0.3-2-0.4c0.2-0.9 0.2-1.9 0.7-2.6c0.2-0.3 1.3 0 2.7 0.1zm-399.7 134.2c0.6-1.3 0.9-2.3 1.5-2.8c0.3-0.3 1.3 0.3 2 0.5c-0.3 0.8-0.3 1.8-0.9 2.4c-0.2 0.3-1.3 0-2.6-0.1zm114.7-75.2c1.3 0.5 2.4 0.5 2.7 1.1c0.3 0.5-0.2 1.5-0.4 2.3c-0.8-0.3-1.8-0.3-2.3-0.8c-0.3-0.4 0-1.4 0-2.6zm-156.1 41.4c0.8-1.5 1.2-2.5 1.8-3.2c0.3-0.2 1.3 0.4 2 0.6c-0.3 0.8-0.4 1.8-0.9 2.5c-0.3 0.3-1.4 0.1-2.9 0.1zm381.2-65.1c1.2 0.5 2.3 0.6 2.4 1c0.1 0.8-0.3 1.7-0.5 2.6c-0.7-0.3-1.7-0.3-2-0.8c-0.3-0.5 0-1.5 0.1-2.8zm-161.8 65.3c0.7-1.5 1-2.5 1.6-3c0.4-0.3 1.4 0.2 2.1 0.3c-0.3 0.8-0.4 1.8-0.9 2.4c-0.3 0.4-1.3 0.2-2.8 0.3zm278-475.3c0.7-1.1 1-2.2 1.3-2.2c1 0 2 0.4 2.9 0.6c-0.2 0.6-0.3 1.8-0.5 1.8c-1 0.2-2-0.1-3.7-0.2zm-97.1 340.7c-0.4 1.2-0.5 2.4-1 2.6c-0.6 0.2-1.8-0.1-2.3-0.6c-0.3-0.4 0-1.8 0.4-2.1c0.5-0.4 1.6 0 2.9 0.1zm-98.3 3.3c-0.6 1.3-0.7 2.4-1.3 2.6c-0.6 0.3-1.7-0.1-2.2-0.6c-0.3-0.2 0.1-1.6 0.5-1.9c0.6-0.4 1.5-0.1 3-0.1zm288.8-322.9c0.5-1.2 0.8-2.4 0.9-2.4c0.9 0.1 1.9 0.3 2.5 0.9c0.3 0.2-0.1 1.3-0.2 2c-0.9-0.2-1.8-0.3-3.2-0.5zm-144.9 207.9c1.5 0.5 2.5 0.8 3.3 1.3c0.1 0.1-0.3 1.7-0.5 1.7c-0.9 0-1.9-0.2-2.8-0.6c-0.2 0 0-1.1 0-2.4zm-127.3 243.4c0.5-1.2 0.7-2.1 1.2-2.5c0.4-0.3 1.9 0.2 1.9 0.5c0.2 0.8-0.1 1.8-0.5 2.4c-0.2 0.3-1.4-0.2-2.6-0.4zm181.4-157.5c1.3 0.5 2.4 0.6 2.5 1.1c0.3 0.7-0.2 1.6-0.3 2.4c-0.7-0.2-1.8-0.1-2-0.5c-0.4-0.6-0.1-1.6-0.2-3zm0.3-96.6c-0.6 1.2-0.7 2.1-1.2 2.4c-0.6 0.2-1.5-0.2-2.2-0.3c0.2-0.8 0.2-1.8 0.7-2.3c0.3-0.3 1.3 0.1 2.7 0.2zm-472.7 259c-0.7 1.3-0.9 2.3-1.5 2.7c-0.4 0.2-1.3-0.3-2-0.5c0.2-0.8 0.3-1.7 0.8-2.3c0.3-0.3 1.4 0 2.7 0.1zm-8.5 23c1.1 0.4 2.3 0.5 2.4 0.9c0.1 0.7-0.2 1.8-0.7 2.3c-0.3 0.3-1.9 0-2-0.4c-0.2-0.7 0.1-1.6 0.3-2.8zm586.9-332.3c1.2 0.3 2.2 0.3 2.7 0.8c0.3 0.2 0 1.7-0.4 1.9c-0.6 0.4-1.6 0.1-2.4 0.1c0-0.8 0-1.6 0.1-2.8zm-97.6 124.2c-0.6 1.2-0.8 2.3-1.3 2.4c-0.7 0.2-1.6-0.2-2.4-0.4c0.2-0.7 0.2-1.8 0.7-2c0.6-0.4 1.6 0 3 0zm-157.4 159.8c-0.4 1.2-0.4 2.1-0.9 2.6c-0.3 0.3-1.8 0-2-0.4c-0.3-0.7-0.1-1.8 0.3-2.4c0.2-0.3 1.4 0.1 2.6 0.2zm-212.5-47.4c1.2 0.6 2.1 0.8 2.5 1.3c0.2 0.4-0.3 1.7-0.8 1.9c-0.5 0.3-1.9 0.1-2-0.3c-0.3-0.6 0.1-1.5 0.3-2.9zm494.3-231c-0.5 1.2-0.7 2.2-1.1 2.4c-0.7 0.2-1.6-0.1-2.4-0.2c0.2-0.8 0.1-1.9 0.5-2.1c0.6-0.4 1.6-0.1 3-0.1zm-333.3 270.7c0.7-1.3 0.9-2.3 1.5-2.6c0.6-0.3 1.5 0.3 2.3 0.4c-0.4 0.8-0.5 1.7-1.1 2.1c-0.4 0.4-1.4 0.1-2.7 0.1zm253.9-260.5c0.5-1.1 0.7-2.2 1.1-2.4c0.6-0.1 1.7 0.1 2.2 0.6c0.3 0.3 0 1.8-0.4 2c-0.6 0.3-1.6 0-2.9-0.2zm-225.4 243c0.5-1.3 0.7-2.4 1.2-2.7c0.5-0.2 1.7 0.3 2.2 0.8c0.2 0.3-0.1 1.7-0.6 1.9c-0.6 0.3-1.5 0-2.8 0zm-257.9 63.9c0.5-1.2 0.6-2.2 1.1-2.7c0.3-0.2 1.9 0.2 1.9 0.5c0.2 0.7 0 1.7-0.4 2.3c-0.2 0.3-1.3 0-2.6-0.1zm102.3-5.3c-0.4 1.2-0.5 2.2-1 2.6c-0.4 0.3-1.8-0.1-2-0.5c-0.2-0.6 0-1.7 0.4-2.2c0.3-0.3 1.4 0 2.6 0.1zm297.4-250.5c0.7 0.4 1.5 0.6 2.1 1.1c0.1 0.1-0.4 1.6-0.7 1.6c-0.7 0.1-1.7 0-2.3-0.5c-0.4-0.4-0.4-1.3-0.6-2.1q0.7 0 1.5-0.1zm267.4 229.8c-1.6 1-2.8 1.8-4.1 2.6c-0.5-2.9 0.6-3.7 4.1-2.6zm-483.1-31.1c0.4-1.2 0.5-2.3 0.9-2.5c0.6-0.3 1.6 0.1 2.4 0.2c-0.2 0.7 0 1.8-0.5 2c-0.5 0.4-1.5 0.2-2.8 0.3zm-57.3 36.3c0.5-1.2 0.6-2.2 1.1-2.8c0.2-0.2 1.2 0.2 1.8 0.3c-0.1 0.8-0.1 1.7-0.5 2.3c-0.3 0.3-1.2 0.2-2.4 0.2zm405.9-396.8c0.6-1.2 0.7-2.2 1.3-2.6c0.4-0.3 1.4 0.2 2.1 0.3c-0.2 0.8-0.2 1.7-0.7 2.3c-0.3 0.3-1.3 0-2.7 0zm-456.8 406.4c1.2 0.4 2.1 0.5 2.7 1c0.2 0.2-0.2 1.8-0.3 1.8c-0.8 0.1-1.7 0-2.3-0.4c-0.3-0.2-0.1-1.2-0.1-2.4zm506.5-298.2c0.5-1.3 0.7-2.2 1.2-2.7c0.4-0.2 1.9 0.3 1.9 0.5c0.1 0.8-0.1 1.8-0.6 2.4c-0.2 0.3-1.3-0.1-2.5-0.2zm-390 226.3c-0.3 1.2-0.4 2.4-0.7 2.5c-0.7 0.1-1.7-0.1-2.2-0.6c-0.3-0.2-0.2-1.6 0.1-1.7c0.6-0.3 1.5-0.2 2.8-0.2zm284.1-301.2c1.1 0.6 2.1 0.8 2.3 1.4c0.3 0.6 0 1.5-0.1 2.3c-0.7-0.2-1.8-0.1-2.1-0.6c-0.3-0.6-0.1-1.6-0.1-3.1zm26.6 102.2c1.2 0.8 2.1 1.1 2.3 1.6c0.2 0.6-0.3 1.4-0.5 2.1c-0.6-0.2-1.7-0.2-1.8-0.6c-0.3-0.7 0-1.6 0-3.1zm-82.9 152.6c1.2 0.6 2.2 0.8 2.4 1.3c0.2 0.6-0.3 1.5-0.4 2.3c-0.7-0.3-1.6-0.4-2-0.9c-0.3-0.5 0-1.4 0-2.7zm-175.4 34.3c-0.5 1.1-0.7 2.1-1.2 2.3c-0.4 0.3-1.5-0.2-1.8-0.7c-0.3-0.3 0-1.5 0.4-1.7c0.5-0.3 1.4 0 2.6 0.1zm346.6-239.3c-0.4 1.1-0.4 2.1-0.9 2.4c-0.4 0.2-1.7 0-1.9-0.4c-0.3-0.5-0.2-1.7 0.2-2.1c0.4-0.3 1.4 0 2.6 0.1zm-546 243.3c1.3 0.6 2.2 0.7 2.7 1.3c0.2 0.3-0.2 1.2-0.3 1.8c-0.8-0.1-1.7-0.1-2.3-0.5c-0.3-0.3-0.1-1.3-0.1-2.6zm-64.7 83.4c-0.6 1.3-0.7 2.2-1.3 2.7c-0.3 0.2-1.8-0.2-1.8-0.4c0-0.8 0.1-1.8 0.5-2.4c0.2-0.3 1.3 0 2.6 0.1zm-51.7-109.2c1.2 0.5 2.1 0.7 2.7 1.2c0.2 0.3-0.2 1.2-0.3 1.9c-0.9-0.3-1.8-0.3-2.5-0.8c-0.3-0.1 0-1.1 0.1-2.3zm618.7-349.4c-0.5 0.8-1.1 1.6-2.2 3.2c-0.5-1.6-0.8-2.4-1.1-3.3q1.5-0.5 2.9-0.9q0.2 0.5 0.4 1zm-256.7 381.5c-0.4 1.1-0.5 2.1-0.9 2.4c-0.4 0.3-1.6-0.1-1.9-0.6c-0.3-0.5-0.1-1.7 0.3-2c0.4-0.3 1.3 0.1 2.5 0.2zm142-212.2c1.2 0.5 2.2 0.6 2.5 1c0.2 0.6 0 1.6-0.4 2.1c-0.2 0.3-1.6 0.2-1.8-0.1c-0.3-0.7-0.2-1.6-0.3-3zm49.3-110.9c1.2 0.5 2.2 0.6 2.4 1.1c0.3 0.5-0.1 1.4-0.2 2.2c-0.7-0.2-1.7-0.1-2.1-0.6c-0.3-0.4-0.1-1.4-0.1-2.7zm-93.5 198.5c1.1 0.5 2.2 0.9 2.2 1.2c0 0.8-0.5 1.6-1 2.2c-0.2 0.2-1.6-0.3-1.6-0.6c-0.2-0.7 0.1-1.6 0.4-2.8zm133.6-162.4c0.5-0.6 0.8-1.5 1.5-1.8c0.5-0.2 1.6 0 2 0.4c0.3 0.4 0.2 1.6-0.2 2c-0.3 0.3-1.3 0.1-2 0.1q-0.6-0.4-1.3-0.7zm-58 154.8c0.9 0.4 1.8 0.5 1.9 0.9c0.2 0.7-0.1 1.6-0.1 2.4c-0.7-0.1-1.8-0.1-1.8-0.3c-0.2-0.8 0-1.7 0-3zm-424.3 149.9c1.4 0.6 2.3 0.7 2.9 1.2c0.2 0.2-0.1 1.2-0.3 1.8c-0.7-0.2-1.6-0.1-2.1-0.5c-0.4-0.3-0.3-1.2-0.5-2.5zm411.5-420.6c1.1 0.3 1.9 0.4 2.4 0.9c0.3 0.2-0.1 1.5-0.4 1.6c-0.6 0.3-1.5 0.1-2-0.2c-0.3-0.2 0-1.2 0-2.3zm-512 446.3c-0.5 1.1-0.7 2-1.1 2.1c-0.6 0.2-1.4-0.2-2.1-0.3c0.2-0.7 0.2-1.7 0.6-2c0.4-0.3 1.4 0.1 2.6 0.2zm489-329.9c-0.6 1.1-0.7 2-1.1 2.2c-0.7 0.2-1.5-0.1-2.2-0.2c0.1-0.6 0.1-1.6 0.5-1.8c0.5-0.4 1.4-0.2 2.8-0.2zm180.5 64.5c-0.4 1.2-0.6 2-1 2.4c-0.3 0.3-1.7-0.1-1.7-0.3c-0.1-0.7 0-1.6 0.4-2.2c0.2-0.3 1.2 0 2.3 0.1zm-107.5-169.3c-0.6 1.1-0.8 1.9-1.3 2.3c-0.3 0.2-1.5-0.3-1.7-0.7c-0.2-0.6 0.2-1.4 0.3-2.1c0.7 0.2 1.5 0.3 2.7 0.5zm-118 293.3c0.5-1.3 0.7-2.1 1.1-2.8c0.1-0.2 1.6 0.2 1.7 0.4c0.1 0.7-0.1 1.6-0.5 2.2c-0.2 0.3-1.1 0.1-2.3 0.2zm121.1-313.8q-1.2-0.6-2.3-1.2q0.5-0.9 1-1.9q1 1.1 2 2.2q-0.4 0.5-0.7 0.9zm8.5 168.5c1.2 0.6 2.1 0.7 2.4 1.2c0.3 0.4 0 1.6-0.3 1.8c-0.6 0.2-1.7 0.2-2-0.2c-0.4-0.5-0.1-1.4-0.1-2.8zm-135 165.6c1.1 0.5 2 0.7 2.4 1.2c0.2 0.3-0.2 1.6-0.6 1.7c-0.6 0.3-1.7 0.2-2.1-0.3c-0.3-0.3 0.1-1.3 0.3-2.6zm132-263.4c1.2 0.4 2.2 0.5 2.3 0.8c0.1 0.8-0.2 1.6-0.3 2.4c-0.6-0.1-1.7 0-1.8-0.3c-0.3-0.7-0.1-1.6-0.2-2.9zm-537.3 343.9c-0.4 1-0.5 2.1-0.8 2.1c-0.7 0.1-1.6-0.1-2.2-0.5c-0.2-0.2 0-1.7 0.3-1.8c0.7-0.2 1.5 0.1 2.7 0.2z" /></svg>