<svg version="1.2" xmlns="http://www.w3.org/2000/svg" viewBox="0 0 783 968" width="783" height="968"><style>.s0{fill:#ffffff}</style><path class="s0" d="m598.4 817.1c-1.6-1-2.5-3.7-1.6-5.1c0.8-1.5 5.5-2.4 6.7-1.1c0.9 0.9 0.8 2.6 1 3.2c-2 3.2-4.3 4.1-6.1 3zm0.4-25.1c-1.1 1.6-3.9 2.1-5.6 1c-1.8-1.2-2.5-3.8-1.3-5.5c1.1-1.7 3.2-2 5.3-0.6c2 1.3 2.7 3.5 1.6 5.1zm-23.8 5c-1.3 1.9-3.1 2.3-4.9 1c-2-1.3-2.6-3.7-1.5-5.5c1.1-1.6 3.3-1.9 5.1-0.7c1.9 1.3 2.4 3.3 1.3 5.2zm12.6-27.1c-1.6-1.2-1.9-3.3-0.7-5.1c1.2-1.7 2.7-2.6 4.7-1.5c1.9 1.1 2.5 3.6 1.3 5.5c-1.1 1.8-3.6 2.2-5.3 1.1zm-89.7 142.1c-1.7-1-2.3-3.3-1.3-5c1-1.9 3.4-2.6 5.2-1.6c1.7 1 2.3 3.5 1.2 5.3c-1.1 1.7-3.3 2.3-5.1 1.3zm-14.3 21.5c2 1.3 2.5 3.5 1.2 5.5c-1.2 1.8-2.8 2.1-4.7 0.9c-1.9-1.2-2.5-3.6-1.3-5.5c1-1.6 3-2 4.8-0.9zm5.7 24.3c2.1 1.2 1.5 3 0.6 4.7c-1.1 2.1-3 2.7-4.7 1.7c-1.7-1.1-2.5-3.7-1.5-5.2c1-1.6 3.9-2.3 5.6-1.2zm90.1-142.2c1.9 1.1 1.5 2.7 0.8 4.3c-1.2 2.3-3.4 3.3-5.1 2.3c-1.6-0.9-2.3-3.3-1.4-5c0.9-1.8 3.8-2.6 5.7-1.6zm-121.9 1.9c1.9 1.2 2.5 3.6 1.3 5.2c-1.3 1.7-2.9 2.2-4.8 1c-2-1.3-2.5-3.5-1-5.7c1.1-1.4 2.7-1.6 4.5-0.5zm45.8 117.2c-1.6-1-2.3-3.6-1.2-5.3c1.1-1.7 2.7-1.8 4.5-0.8c2 1.2 2.7 3.4 1.7 5.1c-0.9 1.6-3.3 2.1-5 1zm-27.4-145.3c1.7 1.3 2 3.2 1 5.1c-0.9 1.8-3.5 2.3-5.2 1.1c-1.7-1.2-2-2.9-1.2-4.4c1.5-2.3 3.9-3 5.4-1.8zm96.4-88.5c-1.6-1.1-2.2-3.4-1.3-4.9c0.9-1.4 5-2.2 6.2-0.9c0.8 0.9 0.8 2.5 1 3.1c-1.8 2.9-4.2 3.7-5.9 2.7zm-229.8 147.7c-1.4 1.9-3 2-4.8 0.8c-1.7-1.2-2.1-3.3-0.9-5.1c1.3-1.7 2.9-2 4.6-1.1c1.9 1.4 2.3 3.7 1.1 5.4zm116.7-0.5c-1.7-1.1-2.4-3.8-1.5-5.4c0.9-1.5 3.9-2 5.5-0.9c1.9 1.4 1.3 3.2 0.5 4.6c-1.4 2.2-3 2.7-4.5 1.7zm-5.6-48.5c-1.1 1.7-3.3 2.1-5 0.9c-1.9-1.3-2.2-2.9-1-4.8c1.2-1.8 3.4-2.3 5-1.3c1.6 1.1 2.1 3.4 1 5.2zm55.1 159.1c-1.7-0.9-2.7-3.5-1.9-4.9c0.8-1.4 4-1.8 6-0.7c2 1.1 1.6 2.6 0.9 4.1c-1.1 1.9-3.2 2.5-5 1.5zm61.2-185.4c-1 2-2.5 2.5-4.5 1.6c-2-1-2.7-3-1.8-4.8c0.8-1.8 3-2.6 4.6-1.7c1.8 0.8 2.5 3 1.7 4.9zm-142-65.9c-2-1.1-2.5-3-1.3-4.8c1.2-1.9 2.8-2.2 4.7-1.1c1.8 1 2.4 3.2 1.4 4.9c-1 1.6-3 2-4.8 1zm175 127.4c1-1.7 3.5-2.4 5-1.4c1.6 1.1 2.2 4.1 1.1 5.7c-1.4 1.8-2.9 1-4.2 0.4c-2.3-1.5-2.9-3.1-1.9-4.7zm-30 60.3c-1 1.6-3.7 2.1-5.4 1c-1.6-1.1-2-2.6-1-4.3c1.2-1.8 3.5-2.5 5.2-1.5c1.6 1 2.2 3.2 1.2 4.8zm8.9 41.5c2 1.4 1.6 3.2 0.5 4.8c-1 1.6-2.3 3-4.5 1.9c-1.6-0.8-1.9-3.5-0.7-5.4c1.1-1.7 3.1-2.3 4.7-1.3zm-15.5-69.8c1.7 1 2.1 3 0.9 4.7c-1.2 1.7-3.9 2.5-5.2 1.4c-1.7-1.4-1.7-3.1-0.8-4.8c1.2-1.8 3.4-2.4 5.1-1.3zm-41 33.9c1.8 1.2 1.7 2.9 0.7 4.5c-1 1.9-3.6 2.5-5.2 1.4c-1.6-1.2-1.9-2.7-1.2-4.2c1.4-2.2 4.1-2.9 5.7-1.7zm-92.2-168.8c-1.6-1-2.2-3.9-1.3-5.4c0.9-1.5 3.3-1.9 5.1-0.7c1.9 1.4 1.4 3.1 0.6 4.9c-1.2 1.3-2.5 2.5-4.4 1.2zm45.6 178.8c1.6 1.1 1.9 3.4 0.7 5.1c-1.3 1.8-2.9 1.7-4.6 0.8c-1.7-1-2.2-3.2-1.1-4.8c1.1-1.7 3.4-2.2 5-1.1zm-162.2-178.7c-1.1 1.9-3.1 2.4-4.9 1.3c-1.9-1.2-2.1-2.9-1-4.7c1.2-1.9 2.8-2.3 4.8-1.3c1.7 1.2 2.2 2.8 1.1 4.7zm-144.5 8.2c-0.8 1.9-3.8 2.5-5.4 1.2c-1.5-1.1-1.9-2.6-0.9-4.3c1-1.7 3.7-2.1 6.4-0.4c0 0.8 0.4 2.3-0.1 3.5zm338.2 114.8c1.2-1.5 2.7-2 4.5-0.9c1.8 1 2.7 3.7 1.8 5.2c-1.4 2.4-3.2 0.9-4.6 0.4c-2.2-1.3-2.9-3.1-1.7-4.7zm111.8-43.9c-1.7-1-2.4-3.5-1.4-4.9c0.9-1.4 3.8-1.8 5.5-0.8c1.8 1.2 1.4 2.7 0.7 4c-1.3 2.1-3.2 2.7-4.8 1.7zm-141.1 26.6c0.7-1.3 4.1-1.5 5.8-0.4c1.7 1 1.7 2.5 0.9 4c-1 1.8-3.3 2.4-5 1.4c-1.6-1-2.5-3.7-1.7-5zm-190.4-222.1c-0.6 1.8-3.6 2.6-5.2 1.6c-1.8-1.2-1.8-2.8-0.9-4.5c1.1-1.9 3.2-2.4 5.8-0.8c0.1 0.8 0.7 2.4 0.3 3.7zm23 210.7c1.5 1.1 1.5 2.7 0.7 4.1c-1.1 1.9-4.1 2.5-5.5 1.1c-0.9-0.9-1.1-2.5-1.4-3.3c1.6-2.4 4.7-3 6.2-1.9zm173 34.6c0.8-1.7 3.6-2.4 5.2-1.5c1.6 0.8 2.4 3.4 1.5 5c-1.5 2.2-3.3 1.2-4.8 0.6c-1.8-1-2.9-2.2-1.9-4.1zm-6.1-48.4c1.9 1.2 2.6 3.5 1.4 5.1c-1.2 1.7-2.8 1.9-4.5 0.9c-1.9-1.1-2.4-3.5-0.9-5.6c0.9-1.2 2.4-1.4 4-0.4zm-103.4 77.6c-0.4 1.5-3.8 1.5-5.6 0.2c-1.3-0.9-2.1-2.1-1-3.7c1.1-1.7 3.9-2.2 6.4-1.1c0.1 1.5 0.6 3.2 0.2 4.6zm-59.6-132.6c-2-0.9-2.8-3.7-1.7-5.3c1.3-1.7 3-1.6 4.6-0.6c1.8 1.2 2.2 3.5 0.5 6.1c-0.8-0.1-2.3 0.3-3.4-0.2zm3.7 18.1c1-1.5 3.9-2.1 5.4-1c1.7 1.4 1.7 3.2 0.6 4.9c-1.2 1.9-3 1.4-4.8 0.5c-1.3-1.2-2.5-2.5-1.2-4.4zm289.9-11c-1.6-1.1-1.9-2.6-1-4.3c0.9-1.8 3.6-2.7 5.1-1.8c1.5 0.9 1.9 3.2 0.9 4.8c-1 1.6-3.4 2.3-5 1.3zm-111.9 19.9c1.7 1.2 1.8 2.9 0.8 4.6c-0.9 1.7-3.6 2.6-4.9 1.3c-1-0.9-1.3-2.5-1.7-3.3c1.5-2.6 4.3-3.6 5.8-2.6zm-321.9-21.4c-1.1 1.8-3.8 2.5-5.4 1.4c-1.7-1.2-1.7-2.7-0.8-4.3c1.1-1.9 3.4-2.5 5.4-1.2c1.4 1 1.8 2.4 0.8 4.1zm262.3 83.6c1.9 1.4 1.5 3.3 0.4 5.1c-0.9 1.4-2.2 2.6-4.1 1.4c-1.6-1-2-3.7-0.7-5.7c1.1-1.1 2.7-2 4.4-0.8zm21.2-101.9c1-1.7 3.4-2.3 5-1.4c1.5 1 2.3 3.8 1.3 5.1c-1.4 1.8-3.2 1.2-4.9 0.4c-1.4-1.1-2.6-2.2-1.4-4.1zm-113.2 128c-1.1 1.7-2.6 1.9-4.2 0.9c-1.7-1.1-2.6-3.9-1.6-5.3c1.3-1.8 2.9-1.4 4.4-0.7c2 1.3 2.6 3.3 1.4 5.1zm-29.2-23.8c1.7 1.1 2 2.8 1 4.5c-1.2 1.9-3 2.1-4.8 1c-1.7-1-2.2-2.6-1.3-4.3c1.2-1.8 3.5-2.4 5.1-1.2zm267.3 18.2c-1.8-1.2-2.2-2.9-1-4.7c1.2-1.8 3-2.2 4.8-1.1c1.9 1.2 1.8 2.9 0.9 4.6c-1.3 1.9-2.9 2.4-4.7 1.2zm-287.6-86.5c1.3-1.6 3-2 4.9-1c1.6 0.8 2 3.1 0.9 4.8c-1 1.7-3.1 2.1-4.7 1.1c-1.5-1-2.1-3.5-1.1-4.9zm111.2 146.1c1.6 1.2 1.5 2.9 0.5 4.4c-1.2 1.6-2.8 2.4-4.8 1.2c-1.7-1.1-2.1-2.7-1.2-4.4c1.2-1.7 4.1-2.4 5.5-1.2zm-64.7-156.2c0.7-1.8 3.5-2.2 5.2-1.2c1.6 0.9 2.2 3.3 1.3 4.7c-1 1.4-3.6 1.6-6.3-0.2c-0.1-0.7-0.7-2.2-0.2-3.3zm192.1 181.6c-1.2 1.6-2.9 1.8-4.6 0.8c-1.7-1-2.6-3.8-1.3-4.9c1.1-0.9 2.8-1 4.3-1.4c1.8 1.7 2.6 4.1 1.6 5.5zm151.8-277.5c-0.9-1-1.4-2.9-1.2-4.2c0.3-1.5 4.6-2.6 5.8-1.4c0.8 0.7 0.8 2.3 1 2.8c-1.8 2.8-4.5 4-5.6 2.8zm-509.6 10.8c0.9-1.5 3.5-2.1 5.2-1.1c1.6 0.9 2.2 3.2 1.2 4.7c-1.3 2-3.1 1.5-4.7 0.9c-1.9-1.2-2.6-3.1-1.7-4.5zm20.8 68c1.7 1.2 1.7 3 0.6 4.5c-1.1 1.7-2.8 2.5-4.7 1.2c-1.7-1.1-1.9-2.7-1.1-4.1c1.4-2.1 3.6-2.8 5.2-1.6zm230 46.9c1.6 1.2 1.7 2.7 0.7 4.3c-1 1.8-3.5 2.2-5.3 1c-1.5-1-2-2.3-0.9-3.9c1.2-1.8 4-2.6 5.5-1.4zm124.1-96.2c-1.1 1.5-2.5 2.9-4.6 1.8c-1.5-0.8-2.1-3.6-1.1-5.1c0.9-1.4 3.6-2 5.5-0.8c1.3 1 1.2 2.6 0.2 4.1zm-391.8-9.9c-0.8 1.6-3.2 2-4.8 0.8c-1.6-1.2-2.6-2.8-1.4-4.7c1.2-1.7 3-1.8 4.9-1c1.6 1.4 2.2 3 1.3 4.9zm238.6 190.4c-0.1 1.4-3.8 1.6-5.6 0.5c-1.6-1-2-2.3-1-3.9c1-1.8 3.2-2.4 5.7-1.5c0.3 1.6 1.1 3.3 0.9 4.9zm-41.8 57.6c-1.6-1-2.3-2.5-1.2-4.4c0.9-1.6 3.5-2.3 5-1.3c1.7 1.2 1.8 2.8 0.9 4.6c-1.2 1.7-2.8 2.3-4.7 1.1zm213.1-27.8c1.1-1.7 2.8-2.1 4.5-1.3c2 1 2.4 2.7 1.5 4.6c-0.9 1.8-2.4 2.4-4.1 1.7c-2-1.1-2.8-3.4-1.9-5zm-23.4-18.7c0.8 0.9 1.2 2.8 0.9 3.9c-0.6 2-3.6 2.8-5.1 1.6c-1-0.9-1.3-2.5-1.7-3.4c1.6-2.5 4.7-3.5 5.9-2.1zm-397.4-248.8c-0.8 1.8-4.4 2.6-5.4 1.3c-0.8-1-1-2.9-0.5-4.1c0.7-2 3.4-2.4 5.9-0.7c0 0.8 0.5 2.3 0 3.5zm269 135.9c-1.5-0.9-1.8-3.6-0.6-5.1c1.2-1.7 2.9-1.9 4.5-0.9c1.9 1.1 1.7 2.8 0.9 4.6c-1.3 1.3-2.7 2.5-4.8 1.4zm212.2 51.1c-1.3 1.9-2.7 0.8-4 0.1c-2-1.2-2.9-3.7-1.7-5.1c0.8-0.9 2.4-1.2 3.1-1.5c2.7 1.7 3.7 4.8 2.6 6.5zm-18.6 27c-1.2 1.7-3.1 2.2-4.7 1c-1.6-1.2-2.1-2.7-1-4.5c1.1-1.7 3.5-2.2 5.1-1.1c1.4 1 1.7 2.9 0.6 4.6zm-163.4 56.8c0.8-1.8 4.2-2.7 5.4-1.3c0.8 0.9 1.1 2.8 0.7 4c-0.6 1.9-3.4 2.4-5.9 0.8c-0.1-0.8-0.6-2.3-0.2-3.5zm-0.4-244.4c1.7 1.4 1.7 3.1 0.7 4.9c-0.9 1.6-3.2 2-4.7 0.9c-1.6-1.2-2-2.6-1.3-3.8c1.5-2.3 3.8-3.1 5.3-2zm130 166.4c0.9-1.6 3.4-2.3 4.8-1.4c1.5 1 1.8 3.3 0.6 5.2c-1.1 1.6-2.5 2-4.3 1c-1.6-1.3-2.2-2.9-1.1-4.8zm-243.1-19.2c1.6 1.3 1.6 3 0.6 4.6c-1.2 1.9-2.9 2.2-4.7 1.1c-1.7-1-2.3-2.5-1.5-3.8c1.5-2.3 4.1-3 5.6-1.9zm-41.7-161c0.9-1.5 3.8-2 5.2-1.1c1.5 0.9 1.9 3.3 0.8 4.9c-1.3 1.7-2.9 1.5-4.6 0.6c-1.4-1.1-2.6-2.5-1.4-4.4zm276.9 16.1c-1.3 1.7-3 1.7-4.6 0.6c-1.7-1-2.4-2.5-1.4-4.4c0.9-1.7 3-2.1 4.8-1c1.7 1.1 2.3 3.2 1.2 4.8zm-20.2 151.4c-1.8-1.3-1.5-3.4-0.5-5.2c1-1.8 2.7-2.2 4.4-1.1c1.8 1.1 1.6 2.9 0.5 4.7c-1.1 1.3-2.3 3-4.4 1.6zm-204.5 64.7c0.4-1.5 4-2.2 5.3-1.1c1.6 1.2 1.7 3 0.8 4.7c-0.8 1.6-3 1.8-5.7 0c-0.1-0.7-0.8-2.3-0.4-3.6zm109.9 53.1c-1.7-1.1-2.4-2.8-1.4-4.7c0.8-1.7 3.2-2.1 4.8-1c1.9 1.3 1.8 3 0.9 4.8c-1.2 1.5-2.7 2-4.3 0.9zm-163.2-182.2c-1.7-1-2.3-3-1.4-5c0.7-1.6 3.4-2.2 4.7-1.1c1.9 1.4 1.5 3.2 0 5.9c-0.8 0.1-2.4 0.8-3.3 0.2zm137.3 66.2c-1.7-1-2.9-2.3-1.8-4.4c1-2 2.7-2.4 4.6-1.6c2 1 2.5 2.6 1.5 4.8c-1 1.5-2.4 2.2-4.3 1.2zm107.9 49c-1.8-1.2-1.9-3-0.8-4.8c1.2-1.8 3-2.1 4.8-0.9c1.7 1.1 1.8 2.7 0.7 4.6c-1.2 1.4-2.8 2.3-4.7 1.1zm-92-106.5c1.9 1.2 1.9 2.8 0.8 4.5c-1.1 1.7-2.6 2.3-4.4 1.2c-1.8-1.1-2.2-2.6-1.2-4.5c1.3-1.6 2.9-2.3 4.8-1.2zm-92.4 45.5c0.5-1.7 3.5-2.3 5-1.4c1.5 0.9 1.9 3.2 0.7 4.8c-1.3 1.7-2.8 1.8-5.4 0.4c-0.1-0.9-0.7-2.5-0.3-3.8zm-61.5-79.6c-0.7 1.8-3.3 2.1-5 1c-1.6-1.1-2-2.6-1-4.3c1.1-1.7 3.4-2.1 5.9-0.4c0.1 0.8 0.5 2.4 0.1 3.7zm156.9 155.6c1.7 1 1.9 2.6 0.9 4.2c-1.1 1.7-2.6 2.7-4.7 1.8c-1.6-0.8-2-3.2-0.9-5c1.2-1.5 2.9-2.1 4.7-1zm-291.2-319.8c-1.2 1.9-3.1 1.6-4.8 0.5c-1.5-1-2.3-2.4-1.2-4.2c0.9-1.5 3.5-1.9 5.4-0.7c1.2 1.1 1.7 2.8 0.6 4.4zm380.2 281c-1.4 1.5-3.2 1.3-4.7 0.2c-1.7-1.2-2.1-3.1-0.6-4.7c0.8-0.9 2.5-1 3.2-1.3c2.4 1.6 3.3 4.7 2.1 5.8zm-415.2-327.1c1.4 0.9 2 2.1 1.1 3.7c-1 1.8-4.1 2.8-5.4 1.5c-0.9-0.9-1-2.5-1.2-3.2c1.6-2.6 3.8-3.1 5.5-2zm497.5 259c-0.8 2-3.2 2.4-4.9 1.1c-1.5-1.2-2.2-2.8-1.1-4.6c0.8-1.4 3.4-1.6 6 0.1c0 0.8 0.5 2.3 0 3.4zm-193.3 141.1c-1.6-1-2.3-2.5-1.3-4.3c0.9-1.6 3.9-2.5 5.3-1.2c0.9 0.8 1.1 2.4 1.4 3.1c-1.5 2.6-3.9 3.4-5.4 2.4zm-282.2-302.9c-0.5 1.7-3.4 2.2-5 1.1c-1.6-1.1-2.1-2.6-1.1-4.3c0.9-1.5 3.6-1.9 5.9-0.4c0.1 0.9 0.6 2.4 0.2 3.6zm310.9 102.5c-1.8-0.9-2.8-3.8-1.8-5.2c1.5-1.9 3.3-1 4.9-0.2c1.8 0.9 2.2 2.3 1.4 4.1c-1.2 1.6-2.6 2.3-4.5 1.3zm-30.2-48c1.6 1.3 1.8 2.9 0.7 4.6c-1.3 1.8-3.1 2-4.8 0.8c-1.6-1-2-2.6-1.2-3.8c1.5-2.1 3.9-2.8 5.3-1.6zm-155.6-38.3c1.9 1.2 1.7 3.1 0.8 4.9c-0.8 1.5-2.1 2.2-3.9 1.3c-1.6-1-2.3-3.5-1.3-5.3c1.1-1.4 2.7-2 4.4-0.9zm16.3 69.9c1.5 1.1 1.7 2.6 0.7 4.1c-1.1 1.8-3.5 2.3-5.2 1c-1.5-1-1.9-2.4-1-3.7c1.2-1.9 3.9-2.5 5.5-1.4zm-83.7-25.9c-1.6-0.8-2.3-2.1-1.4-3.9c0.7-1.4 3.9-2.4 5-1.3c1 1 1.5 2.6 2.2 3.9c-1.4 1.8-4.1 2.3-5.8 1.3zm182 247.2c1.6 1 1.9 3.1 0.7 4.8c-1.1 1.7-2.7 1.9-4.3 0.8c-1.6-1-2.3-2.5-1.4-4.1c1.1-1.8 3.5-2.4 5-1.5zm69.9-230.3c-1.1 1.8-2.8 1.9-4.4 0.8c-1.8-1.2-2.2-2.9-1-4.7c1.1-1.7 2.6-1.8 4.4-0.8c1.3 1.2 2.2 2.8 1 4.7zm-32.4 178.2c-1.4 1.7-3.2 1.8-4.9 0.8c-1.9-1.2-1.7-3-0.7-4.6c1-1.7 2.6-1.9 4-1.1c1.9 1.2 2.6 3.6 1.6 4.9zm-112.8-175c1.7 1.1 1.9 2.6 1.1 4.3c-1 1.8-3.2 2.5-4.9 1.4c-1.6-1-2.1-2.4-1.3-3.9c1.2-2 3.5-2.7 5.1-1.8zm9.7 174.5c-1.6-0.5-2.3-3.9-1.3-5.2c1.2-1.5 2.8-2.2 4.6-1.1c1.5 0.9 1.6 3.4-0.1 6c-0.6 0-2.1 0.7-3.2 0.3zm170-135.8c-1.1 0.7-3.1 0.7-4.4 0.2c-1.8-0.8-2.4-2.7-1.2-4.3c0.8-1 2.6-1.2 3.4-1.6c2.5 1.7 3.5 4.9 2.2 5.7zm-255.3 56.4c-0.2 1.3-4.1 1.8-5.4 0.5c-0.8-0.8-1.3-2.5-1-3.7c0.3-1.5 3.7-2 6-1.1c0.2 1.4 0.7 3 0.4 4.3zm139.5-30.9c-0.2 1.3-3.7 1.5-5.2 0.5c-1.6-1.1-1.9-2.5-0.9-4c1.1-1.7 2.6-2.3 5.4-0.8c0.2 1.1 0.9 2.7 0.7 4.3zm-108-151.6c1.6 1.1 1.9 2.6 0.8 4.2c-0.9 1.5-3.7 2.1-5 0.8c-0.9-0.9-1.1-2.5-1.4-3.2c1.6-2.4 4.1-3 5.6-1.8zm-130.6-38.7c-1.3 1.6-2.9 1.6-4.4 0.6c-1.7-1.1-2.5-2.8-1.3-4.7c1-1.7 2.7-1.8 4.3-1c1.8 1.1 2.5 3.7 1.4 5.1zm413 102.3c-1.2 1.6-2.8 1.7-4.4 0.7c-1.7-1.1-2.7-2.7-1.4-4.6c1.1-1.7 2.8-1.8 4.4-1c1.8 1.1 2.4 3.4 1.4 4.9zm-225-27.2c1.5 1.2 2.2 2.8 1.1 4.6c-0.8 1.4-3.7 1.7-5.2 0.3c-0.9-0.8-1.1-2.3-1.5-3c1.6-2.4 4.2-3.1 5.6-1.9zm140 212.5c0.6-1.7 3.6-2.5 4.9-1.4c1.8 1.3 1.7 3.1 0.7 4.8c-1.1 1.9-2.8 1.7-5.3 0.5c-0.1-1-0.7-2.6-0.3-3.9zm-18.3 3.9c1.7 1.4 1.6 3 0.4 4.6c-1.1 1.6-2.7 2.3-4.4 1.1c-1.8-1.2-1.8-2.8-0.7-4.5c1.1-1.7 3.4-2.3 4.7-1.2zm28.5 22.4c-1 1.6-2.6 1.9-4.2 0.7c-1.6-1.1-2.1-2.6-1-4.4c1-1.7 3.2-2.2 4.8-1.1c1.7 1.4 1.6 3.1 0.4 4.8zm-94.9-76.2c-1.5-1-2.2-2.5-1.1-4.2c0.9-1.5 4.3-2.3 5.3-1c0.8 1 0.8 2.6 1 3.4c-1.8 2.3-3.4 3.1-5.2 1.8zm-205.6-178.6c1.7 0.8 1.9 2.3 0.9 3.9c-1 1.9-3.5 3-4.7 1.7c-1-0.9-1.2-2.6-1.5-3.5c1.8-2.5 3.4-3.1 5.3-2.1zm268.9 111c1.6 0.7 2 3 0.9 4.8c-1 1.6-2.5 2-4.2 1.1c-1.6-1-2.4-2.5-1.4-4.4c1.2-1.6 2.7-2.4 4.7-1.5zm-292-81.1c1-1.6 2.7-2.1 4.6-1.2c1.6 0.8 2.1 3.4 0.8 5c-0.8 0.8-2.3 1-3 1.3c-2.3-1.7-3.7-3.1-2.4-5.1zm181.7 134.3c-1 1.8-2.5 2.5-4.3 1.5c-1.8-1-2.3-2.7-1.4-4.5c1-1.7 2.5-2.2 4.4-1.4c1.8 1.1 2.2 2.6 1.3 4.4zm81.2-71c2 1 1.7 3.1 0.7 4.8c-0.8 1.4-2 2.5-3.8 1.6c-1.5-0.7-2-3.7-1.1-6.1c1.4-0.2 3.1-0.8 4.2-0.3zm-370.5-131.8c-1.2 1.7-3 1.5-4.6 0.4c-1.6-1-2.4-2.6-1.2-4.2c1.2-1.7 3.1-1.6 5.1-0.7c1.2 1.3 2 2.8 0.7 4.5zm26.3 116c-1.2 1.7-3 1.6-4.7 0.6c-1.6-1-2.6-2.6-1.3-4.3c1.1-1.8 3.1-1.6 4.8-0.9c1.7 1.3 2.3 3 1.2 4.6zm55.2-163.5c1-1.6 3.3-2.3 4.7-1.2c1.8 1.3 2 3.2 0.8 4.7c-0.8 0.9-2.4 1.1-3.1 1.4c-2.6-1.6-3.3-3.4-2.4-4.9zm65.2 180.5c0.9-1.6 3.6-2.2 5.1-1.2c1.6 1.1 1.5 2.6 0.6 4.1c-1.1 1.8-2.7 2.3-4.6 1.3c-1.6-1.1-2.1-2.5-1.1-4.2zm211.7 74.9c0.7-1.7 4.3-2.3 5.3-1c0.7 0.9 0.9 2.8 0.5 3.9c-0.7 1.8-3.4 2.2-5.8 0.5c0-0.8-0.5-2.3 0-3.4zm18-53c1.8 1.2 1.7 3 0.7 4.6c-1 1.5-2.5 2.3-4.2 1.2c-1.9-1.1-1.8-2.8-1-4.7c1.2-1.3 2.7-2.2 4.5-1.1zm46.7 13.9c0.4-1.7 3.1-2.3 4.6-1.4c1.8 1.1 1.9 2.6 1 4.3c-1 1.8-2.5 2.2-5.2 0.9c-0.1-1-0.8-2.5-0.4-3.8zm65.3 160.8c-1.2 1.5-2.7 1.7-4.1 0.6c-1.7-1.1-2.5-2.8-1.4-4.7c1-1.8 2.7-1.6 4.3-0.7c1.6 1.1 2.2 3.4 1.2 4.8zm-202.2-227.6c0.6-1.7 3.6-2.4 4.9-1.5c1.8 1.3 1.6 3 0.5 4.6c-1.1 1.8-2.7 1.9-5.3 0.5c-0.1-0.9-0.6-2.4-0.1-3.6zm-56.6-36.3c1.2-1.6 2.8-2 4.6-0.9c1.5 0.8 2 3.5 0.7 4.8c-1 0.9-2.7 1.1-4 1.6c-1.8-1.8-2.4-4.2-1.3-5.5zm220.9 223.4c-1.6-1-2.5-2.5-1.4-4.4c1.1-1.8 2.8-2.3 4.7-1.3c1.9 1.1 1.9 2.7 0.8 4.6c-0.9 1.5-2.3 2.1-4.1 1.1zm68-44.2c1.8 1.1 1.9 2.8 0.9 4.5c-1 1.7-2.5 2.5-4.4 1.4c-1.9-1-1.6-2.8-0.9-4.5c1.2-1.4 2.5-2.7 4.4-1.4zm-2.5 103.2c-0.9 0.7-2.7 1.1-3.7 0.7c-1.5-0.5-1.9-4.1-0.7-5.3c0.9-0.8 2.3-1 3-1.2c2.5 1.8 2.9 4.4 1.4 5.8zm-152.2-357.1c-0.5 1.6-3.4 2-5 0.9c-1.6-1.1-1.8-2.5-0.8-4c1.1-1.8 2.7-2.2 5.5-0.7c0.1 0.9 0.6 2.5 0.3 3.8zm110 292.8c-1.8-0.7-2.4-2.6-1.3-4.3c1.1-1.7 2.8-2.1 4.6-1.1c1.8 1 1.8 2.7 0.5 5.3c-1 0.1-2.6 0.6-3.8 0.1zm-111.8-170.4c-1.5-1-2.3-2.5-1-4.2c1.2-1.7 3.2-2 4.8-0.7c0.9 0.8 1.1 2.6 1.4 3.6c-1.9 2.3-3.5 2.4-5.2 1.3zm18.4 191.5c-1.6-1.1-1.7-3-0.7-4.6c1.1-1.7 2.9-2.1 4.6-1c1.5 1 1.9 2.5 0.9 3.7c-1.3 2-2.8 3.2-4.8 1.9zm122.7-129.3c1.6 1.3 1.8 3.1 0.6 4.6c-1.1 1.6-3.1 1.8-4.5 0.6c-0.9-0.8-1.1-2.4-1.6-3.7c1.8-1.9 4.2-2.6 5.5-1.5zm-364.9 7.8c1.6 0.7 2 3.3 1 5c-1 1.6-2.3 1.9-3.7 0.9c-1.5-1.1-3-2.3-1.9-4.6c1.2-1.6 2.7-2.1 4.6-1.3zm105.2 54.4c-1.6-1-2.4-2.4-1.4-4.2c0.9-1.5 3.5-1.9 5.2-1c1.6 0.9 1.7 2.2 1.1 3.3c-1.3 2.2-3.3 2.9-4.9 1.9zm21.8-33.7c1.8 1.3 1.6 2.9 0.5 4.5c-1 1.5-2.4 2.3-4.2 1.3c-1.4-0.9-1.8-3.4-0.8-4.9c1-1.5 3.1-2 4.5-0.9zm-27.4-208.9c-1.6-0.9-2-2.3-1.1-4c0.9-1.6 3.8-2.6 5-1.4c0.8 0.9 1.1 2.5 1.4 3.3c-1.8 2.4-3.3 3.1-5.3 2.1zm44.9 307.4c-1.5-1-2-2.5-1.1-4.3c0.7-1.5 3.6-2.4 4.7-1.3c0.9 1 1.2 2.7 1.6 3.6c-1.9 2.1-3.3 3.2-5.2 2zm38.6-63.1c1.7 0.6 2.4 3.4 1.4 4.9c-1 1.5-2.4 2-4 1c-1.7-0.9-2.2-3.3-0.6-5.8c0.7 0 2.1-0.5 3.2-0.1zm-329.8-169.3c1.5 1 1.5 2.3 0.6 3.8c-1.2 1.8-3.8 2.7-4.9 1.5c-0.9-0.9-1-2.5-1.3-3.2c1.7-2.6 3.9-3.2 5.6-2.1zm225.7 51.4c-1.4-0.9-2.2-2.3-1.2-3.9c0.9-1.5 4-2.2 5.4-0.9c0.8 0.8 0.9 2.3 1.2 3.1c-1.9 2.4-3.6 2.8-5.4 1.7zm97.3 193.1c1.7 1.2 1.7 2.9 0.6 4.5c-1.1 1.7-2.6 2-4.2 0.9c-1.5-1.2-2-2.8-0.9-4.6c1.3-1.5 2.8-2 4.5-0.8zm-100.9-318.1c0.9-1.9 3-2 4.8-1c1.6 0.8 2 2.4 1 3.9c-1.2 1.9-3 1.8-5.7 0.7c0-1-0.7-2.6-0.1-3.6zm295.2 206.6c-1.1 1.7-2.7 1.8-4.3 0.6c-1.4-1.1-2.4-2.6-1.1-4.4c1.2-1.6 2.9-1.7 4.7-0.8c1.5 1.3 1.8 2.9 0.7 4.6zm11.9-56.5c1.7 1.1 1.7 2.7 0.7 4.3c-1.1 1.7-2.7 2.2-4.5 1c-1.6-1-2-2.5-0.9-4.3c1.2-1.6 2.9-2.1 4.7-1zm-415.1-0.4c-1 1.8-3 2.3-4.6 0.9c-0.8-0.9-1.3-2.8-1-4c0.3-1.4 3.5-1.7 5.9-0.6c-0.1 1.2 0.3 2.7-0.3 3.7zm13.9-26.6c-1.9-1.1-1.8-3.2-0.8-4.9c0.9-1.5 2.4-1.9 4-0.9c1.5 1 1.8 3.3 0.2 5.7c-0.8 0-2.5 0.7-3.4 0.1zm143.3-32.5c-1.2 1.6-2.7 2-4.3 0.8c-1.6-1.2-2-3-0.6-4.5c0.9-0.9 2.6-1.1 3.5-1.4c2.4 1.9 2.5 3.4 1.4 5.1zm234.7 65.1c0.8 1 1 2.9 0.6 4.1c-0.6 1.8-3.4 2.4-4.5 1c-0.9-1-1-2.7-1.5-4.1c1.8-1.8 4.4-2.4 5.4-1zm-143.4 12c-1.1 1.8-2.8 1.9-4.5 0.9c-1.8-1.2-1.8-3.2-0.6-4.5c0.8-1 2.5-1.1 3.4-1.5c2 1.9 2.8 3.4 1.7 5.1zm-118.5-70.5c-1.8-0.9-1.9-3.1-1-4.8c0.9-1.6 2.5-1.9 4-1c1.8 1.1 2.1 2.7 0.7 5.3c-0.9 0.2-2.6 1-3.7 0.5zm433.6-24.1c-0.8-0.9-1.4-2.7-1.1-3.7c0.6-1.8 4.1-2.4 5.5-1c0.7 0.6 0.7 2 0.9 2.5c-1.7 2.7-4 3.5-5.3 2.2zm-568.7-141.6c-0.7-1-0.9-2.9-0.5-4.1c0.6-1.8 3.3-2.3 4.7-1.3c1.4 1 1.6 2.3 0.6 3.8c-1.2 1.9-3.8 2.9-4.8 1.6zm463.3 213.9c-1.6-0.8-2.1-3-1.1-4.5c1.2-1.6 3-2.3 4.5-1c1 0.8 1.1 2.6 1.6 4c-1.8 1.9-3.2 2.3-5 1.5zm-342.3-241.5c-0.7 1.7-3.7 2.3-5 1.3c-1.6-1.1-1.6-2.7-0.5-4.1c1.2-1.6 2.9-2 5.5-0.5c0.1 0.8 0.5 2.3 0 3.3zm297.2 149.5c1-1.5 2.4-2.4 4.1-1.4c1.8 1.1 2.2 3.1 1 4.7c-0.7 1-2.5 1.3-3.3 1.7c-2.5-1.7-2.9-3.2-1.8-5zm-384.9-84.3c0.5-1.5 3.8-2.4 4.7-1.3c0.8 1.1 1.6 3.1 1.1 4.2c-0.9 1.9-3 1.5-5.6 0.6c0-1-0.5-2.4-0.2-3.5zm340.2 191.5c1.8 0.8 2.1 2.7 1 4.4c-1 1.7-2.6 2.2-4.3 1.3c-1.8-1.1-1.8-2.8-0.7-5.4c1.1-0.1 2.8-0.8 4-0.3zm5.7 23.6c1.7 1.2 1.5 2.9 0.6 4.4c-1.1 1.6-2.9 1.8-4.6 0.7c-1.3-0.8-2.1-1.9-1.1-3.6c1-1.5 3.7-2.4 5.1-1.5zm106.1-48.4c0.6-1.7 3.2-2.1 4.7-1c1.5 1.1 1.7 2.7 0.7 4.3c-1 1.6-2.6 2-5.2 0.6c-0.1-1-0.6-2.6-0.2-3.9zm-443.1-18.3c-1.7-0.8-2.1-2.7-1-4.4c0.9-1.7 2.6-2.1 4.2-1.1c1.7 1.1 1.6 2.9 0.4 5.4c-0.9 0.1-2.5 0.6-3.6 0.1zm164.4 80.4c1.1-1.6 2.8-2.1 4.5-0.9c1.6 1.1 1.7 2.7 0.6 4.3c-1.1 1.7-2.5 1.8-4.3 0.8c-1.4-1.2-2.1-2.6-0.8-4.2zm2.1-97c0.6-1.8 4-2.8 5.1-1.5c0.7 0.9 1 2.8 0.5 3.8c-0.7 1.8-2.5 2.3-5.1 1c-0.2-0.8-0.8-2.2-0.5-3.3zm235 44.3c1.7 1.2 1.5 2.8 0.4 4.3c-1.1 1.6-2.7 1.9-4.3 0.8c-1.5-1.1-1.9-2.6-1.1-4.1c1.2-1.7 3.6-2.2 5-1zm-210.8 173c-0.1-1.4-0.8-3.4-0.1-4.2c0.7-0.9 2.9-1.3 4.2-1c1.6 0.3 2.1 3.2 0.7 4.4c-0.9 0.9-2.5 1-3.7 1.5q-0.6-0.3-1.1-0.7zm-212.6-297.8c1-1.7 3-2.2 4.8-1.1c1.7 1.1 1.4 2.7 0.5 4.1c-1.1 1.6-2.7 2-5.3 0.6c0-0.9-0.5-2.6 0-3.6zm94.6 178.3c-0.4 1.4-4.3 2-5.3 0.7c-0.7-0.9-0.9-2.7-0.5-3.8c0.7-1.7 3.2-2 5.5-0.5c0.1 0.8 0.6 2.3 0.3 3.6zm136.2-127.6c-1.5-0.4-1.9-3.3-0.9-4.8c1.2-1.6 3-1.9 4.3-0.6c0.9 0.9 1.1 2.6 1.9 4.8c-2.5 0.4-4 1-5.3 0.6zm95.2 100.1c-0.1-1.5-0.7-3.2-0.1-4.3c0.8-1.6 2.8-2.1 4.4-1c1.6 1.1 1.8 3 0.6 4.3c-0.8 1-2.5 1.2-3.9 1.7q-0.5-0.3-1-0.7zm-99.3 188c1.8 0.8 2.2 3.3 1.1 4.9c-1 1.5-2.3 1.7-3.8 0.8c-1.6-1-2.1-3.3-0.5-5.8c0.7 0 2.1-0.4 3.2 0.1zm158.7-35.6c1.1-1.4 2.5-1.7 4.1-0.7c1.6 1.1 2.2 3.5 0.9 4.8c-0.8 0.8-2.2 1-2.9 1.2c-2.5-1.6-3.1-3.9-2.1-5.3zm-519.3-269.3c-0.8 1.8-2.7 2.2-4.4 1.3c-1.7-0.9-2.3-2.5-1.3-4.2c1.1-1.8 2.8-1.8 5.4-0.7c0.1 0.9 0.7 2.5 0.3 3.6zm308.6 72.7c1.7 1.1 2.1 3.2 0.7 4.7c-0.7 0.8-2.6 1.2-3.7 0.8c-1.7-0.5-2-3-1-5.5c1.4 0 3-0.5 4 0zm60.4-36.7c0.7-1.7 3.9-2.4 4.9-1.1c0.7 0.9 0.9 2.7 0.6 3.8c-0.6 1.8-3.1 2.1-5.5 0.4c0-0.7-0.5-2.1 0-3.1zm276.3 35c0.5-1.6 3.3-2 4.7-0.9c1.5 1.1 1.6 2.6 0.7 4c-1.2 1.7-2.8 1.9-5.3 0.5c-0.1-0.9-0.5-2.4-0.1-3.6zm-495.9-54.7c-1 1.5-2.2 1.4-3.5 0.6c-2-1.2-2.9-3.5-1.7-4.7c0.9-0.9 2.5-1.1 3.3-1.4c2.3 1.6 2.9 4 1.9 5.5zm62-161.3c-0.6 1.7-3.3 2.2-4.9 1.2c-1.5-1-1.8-2.3-0.8-3.8c1.2-1.8 2.9-1.9 5.5-0.8c0.1 0.9 0.6 2.3 0.2 3.4zm464.6 136.3c0.6-1.5 3.5-1.8 5.2-0.8c1.6 1 1.5 2.4 0.6 3.8c-1.3 1.8-3 1.8-5.7 0.3c0-0.8-0.5-2.2-0.1-3.3zm-465.6 205.6c-0.9-0.8-1.4-2.7-1.2-3.9c0.3-1.5 3.8-2.2 4.8-1c0.8 1 0.8 2.6 1.1 3.5c-1.7 2.1-3.4 2.8-4.7 1.4zm36.4-56.6c-1.6-0.4-2.2-3.3-0.9-4.4c1-0.8 2.9-1.3 4-0.9c1.8 0.6 2 2.4 0.7 4.9c-0.9 0.1-2.5 0.7-3.8 0.4zm-112.8 20.7c0.8 0.7 1.2 2.6 0.9 3.7c-0.7 1.7-2.4 2.6-4.3 1.6c-1.8-1-1.8-2.6-1.1-4.3c1.3-1.6 3-2.4 4.5-1zm-47-184.6c0.4-1.6 3.3-1.8 5-0.7c1.4 1 1.9 2.2 0.9 3.7c-1.3 1.8-3 1.9-5.5 0.6c-0.2-0.9-0.8-2.4-0.4-3.6zm464.9 91.3c1.5 0.3 2.3 3.6 1.4 5.1c-1.1 1.7-2.6 1.3-4.1 0.5c-1.6-0.9-2.2-2.3-0.8-4.9c0.8-0.2 2.2-0.9 3.5-0.7zm106.5-68c-0.8 2-2.7 2-4.3 1c-1.6-1-2.5-2.3-1.5-4.1c0.9-1.5 3.1-1.9 5.7-0.3c0 0.8 0.6 2.3 0.1 3.4zm-22.6 30.1c-1.7-0.9-1.7-2.7-0.9-4.3c0.8-1.4 3.8-2.2 4.8-1c0.8 0.9 0.8 2.3 1.1 3.1c-1.7 2.1-3.2 3.2-5 2.2zm-9.3 45.6c0.8 0.7 1.3 2.8 0.8 3.9c-0.7 1.8-2.7 2.3-4.3 1.1c-0.9-0.8-1.1-2.4-1.5-3.3c1.8-2.3 3.5-3 5-1.7zm-148.4 8.7c0.9-1.6 2.4-2.1 3.9-1.1c1.7 1.1 2.4 3.1 1.3 4.7c-0.6 0.9-2.4 1.1-3.3 1.4c-2.2-1.7-2.9-3.2-1.9-5zm-96.4-119.7c-0.9 1.4-2.2 2.3-3.9 1.2c-1.5-0.8-2.4-3.7-1.2-4.8c0.9-0.8 2.5-0.9 3.3-1.1c2.4 1.5 2.8 3 1.8 4.7zm191.2 103.7c-1.9-0.9-2.8-3.6-1.6-4.8c0.8-0.7 2.5-1.1 3.5-0.8c1.7 0.5 2.5 3.8 1.2 5.9c-0.8 0-2.1 0.2-3.1-0.3zm-294.7-134.3c1.6 1.2 1.4 2.8 0.4 4.1c-1 1.6-2.6 2.1-4.3 1.1c-1.5-0.9-1.7-2.2-1.1-3.3c1.3-2.1 3.8-2.8 5-1.9zm156.1 378.7c1.9-0.1 2.9 0.9 3 2.7c0.1 2.6-0.9 3.1-6.1 3c-0.6-3.3 0.7-5.6 3.1-5.7zm-233.2-288c0.9 0.8 1.4 2.7 1 3.9c-0.5 1.5-3.7 2-5 0.7c-0.7-0.8-0.7-2.4-0.9-3.1c1.8-2.3 3.5-2.9 4.9-1.5zm97.5 2.4c0.8 0.7 1 2.9 0.5 4c-0.7 1.8-2.8 1.9-4.1 0.7c-0.9-0.8-1.1-2.4-1.5-3.4c1.9-2 3.7-2.7 5.1-1.3zm141.3-2.6c-0.8-0.8-1.5-2.5-1.2-3.6c0.3-1.7 3.9-2.8 4.7-1.7c0.8 1 0.9 2.6 1.2 3.5c-1.6 2.2-3.1 3.1-4.7 1.8zm-349.9-165.9c-0.8 1.7-2.7 2-4.4 0.9c-1.5-0.9-2.1-2.4-1.1-4c1.1-1.8 2.8-1.7 5.3-0.5c0.1 0.9 0.7 2.5 0.2 3.6zm284.8 395.2c0 1.5 0.4 3.1-0.2 4.3c-0.7 1.6-2.4 2-4 1c-1.6-1.1-2.1-2.8-0.9-4.2c0.9-1 2.6-1.3 4-1.8q0.5 0.3 1.1 0.7zm-155.1-234.6c1.4 0 3.1-0.5 4.3 0c1.6 0.7 1.9 2.5 0.9 4c-1 1.6-2.7 2.3-4.2 1.1c-1-0.9-1.2-2.6-1.7-4q0.3-0.6 0.7-1.1zm-113.1-66.4c-1.8-1.1-1.8-3.2-0.7-4.8c0.6-0.8 2.5-1.2 3.5-0.8c1.6 0.5 2 3.1 1 5.5c-1.3 0.1-2.8 0.6-3.8 0.1zm260.2 180.1c1.4-0.1 3.1-0.7 4.3-0.2c1.7 0.8 1.6 2.8 0.6 4.3c-0.9 1.4-2.6 2.2-3.9 0.9c-1-0.9-1.2-2.6-1.7-3.9q0.3-0.6 0.7-1.1zm15.5-148.7c1.1-1.5 2.6-2.1 4.3-1.1c1.9 1.1 1.7 3 0.6 4.4c-0.8 1-2.4 1.1-3.2 1.5c-2.3-1.7-2.8-3.1-1.7-4.8zm-284.6-180.2c0.9-1.7 3-2.3 4.4-1c0.9 0.8 1.2 2.9 0.8 4.1c-0.7 1.8-2.5 1.7-5 0.5c-0.1-1-0.7-2.6-0.2-3.6zm86.5 277c-1.5-0.6-2.3-2.7-1-3.8c1.2-0.9 3.3-1.1 4.9-1c0.5 0.1 0.7 2.5 1.3 4.8c-2.4 0.1-4 0.6-5.2 0zm328.6-77.7c1.8 0.8 2 2.7 0.9 4.4c-1 1.6-2.6 1.8-4.1 0.8c-1.6-1-2-2.4-0.6-5c1-0.1 2.6-0.7 3.8-0.2zm-379.3-56.1c-1.3 0.1-2.9 0.8-3.9 0.2c-1.8-0.9-1.8-2.8-0.9-4.5c0.8-1.6 2.6-2.1 3.9-1c1 1 1.1 2.8 1.6 4.3q-0.3 0.5-0.7 1zm-56.3-18c1.5-0.1 3.1-0.7 4.3-0.2c1.8 0.6 2.2 2.4 1 4.1c-1 1.6-2.7 2.2-4.2 0.9c-0.9-0.8-1.2-2.4-1.7-3.6q0.3-0.6 0.6-1.2zm200 326.1c-1 2.2-3 1.3-4.6 0.5c-1.9-0.9-1.5-2.2-0.6-3.6c1-1.6 2.4-2 5-0.7c0 1 0.7 2.6 0.2 3.8zm-172.9-205.2c-0.8-0.8-1.2-2.9-0.7-4c0.7-1.7 2.7-2.3 4.3-1c0.9 0.8 1 2.4 1.3 3.2c-1.7 2.4-3.4 3.2-4.9 1.8zm-46.8 10c-0.7-0.8-1-2.5-0.7-3.5c0.6-1.5 3.9-1.9 5-0.6c0.8 0.8 1 2.2 1.3 2.9c-1.5 2-4.6 2.6-5.6 1.2zm330.4-49c-1.7-0.7-2-2.5-1-4.1c1.2-1.8 3.1-1.9 4.5-0.7c0.9 0.7 1 2.4 1.8 4.7c-2.5 0.1-4.1 0.6-5.3 0.1zm-316.2-104.3c0.7-0.9 3-1.4 4.1-1c1.8 0.6 2.1 2.8 1 4.2c-0.7 0.9-2.4 1.1-4.6 2c-0.3-2.5-1.1-4.4-0.5-5.2zm-91.1 117.9c1.7 0.7 1.8 2.5 0.9 4c-1.1 1.6-2.8 2.4-4.4 1.1c-0.9-0.8-1-2.5-1.8-4.8c2.5-0.2 4.1-0.8 5.3-0.3zm366.1 20.4c-1.4-0.9-2.1-2.1-1.2-3.7c0.7-1.4 4.1-2.2 5.1-1c0.8 0.8 0.9 2.2 1.2 3c-1.7 2.2-3.3 2.7-5.1 1.7zm-272.1-236.2c0.6-0.8 2.8-1.3 3.9-0.9c1.9 0.7 2.3 2.8 1.2 4.3c-0.7 0.9-2.5 1-4.7 1.9c-0.3-2.5-1-4.3-0.4-5.3zm428.5 372c-0.6 0.8-2.4 1.3-3.4 1.1c-1.5-0.3-2.3-3.7-1.1-5c0.7-0.8 2.1-1 2.9-1.4c2.1 1.8 2.8 3.6 1.6 5.3zm-237.6-190.2c-0.9 1.7-2.4 1.6-3.7 0.6c-1.6-1.2-2.7-2.9-1.3-4.6c0.7-0.9 2.5-1 3.3-1.3c2.4 1.9 2.7 3.5 1.7 5.3zm-62.3-39.7c0.5-1.4 3.9-1.9 5.1-0.7c0.7 0.8 1 2.5 0.7 3.5c-0.6 1.7-3 2-5.5 0.4c-0.1-0.7-0.6-2-0.3-3.2zm-172.5-10.2c1.1-1.8 3.1-2 4.8-1.1c1.6 0.8 1.9 2.3 1 3.8c-1.3 1.8-3 1.7-5.7 0.7c0-1-0.6-2.5-0.1-3.4zm148.1 117.1c-1.5-1-2-2.5-0.9-4c1-1.5 2.8-2.3 4.2-1.1c1 0.8 1.2 2.6 1.6 3.6c-1.8 2.1-3.3 2.6-4.9 1.5zm104.5-96.5c-1 1.5-2.5 1.8-4.1 0.8c-1.5-1.2-1.8-3-0.7-4.4c0.8-0.9 2.4-1.2 3.5-1.6c2 1.9 2.4 3.5 1.3 5.2zm122.4 17.1c1.4-0.1 3.3-0.9 4.1-0.3c1 0.8 1.7 3.1 1.2 4.2c-0.7 1.9-2.9 1.8-4.3 0.6c-0.9-0.8-1.2-2.2-1.7-3.4q0.3-0.5 0.7-1.1zm-7.1-47.3c1.6 0.8 2.3 2.7 0.9 4.1c-0.8 0.8-2.8 1.2-4 0.8c-1.8-0.7-1.8-2.5-0.5-5c0.9 0 2.5-0.4 3.6 0.1zm210.2 173c1.6 1 1.8 2.8 0.8 4.4c-1 1.7-2.8 1.9-4.2 0.8c-0.9-0.8-1.2-2.2-1.8-3.3c2-1.8 3.4-3 5.2-1.9zm-632.4-98.9c-0.8 1.7-2.5 2.1-4.2 1.1c-1.6-1-2.2-2.5-1.2-4.2c1.2-2.1 2.9-1.4 5.3-0.3c0.1 0.9 0.6 2.4 0.1 3.4zm498.6 157.3c-0.7 0.8-2.7 1.1-3.7 0.7c-1.7-0.7-2.5-2.6-1.4-4.2c0.7-1 2.4-1.1 3.3-1.5c2.1 1.8 3.1 3.4 1.8 5zm-133.9 55.2c-0.5 0.7-2.6 0.9-3.7 0.4c-1.7-0.8-3-2.6-1.7-4.4c0.6-0.8 2.5-0.7 3.3-0.9c2.2 1.8 3.4 3.3 2.1 4.9zm-100.9-319.6c-0.1-1.3-0.6-2.7-0.2-3.8c0.5-1.7 3.1-2.2 4.4-1.2c1.5 1.1 1.7 2.9 0.5 4.1c-0.8 0.9-2.4 1-3.7 1.5q-0.5-0.3-1-0.6zm369.2 229.9c0.7-1.8 2.7-1.6 4.2-0.7c1.6 1 2.3 2.7 0.9 4.1c-0.8 0.9-2.4 1-4.5 1.8c-0.4-2.4-1.1-4.1-0.6-5.2zm-491-231.8c0.9-0.8 2.6-1.1 3.7-0.8c1.6 0.5 2.2 3.5 1 4.7c-0.7 0.8-2.1 0.9-2.6 1.1c-2.6-1.6-3.4-3.8-2.1-5zm-19 130.8c-1.7-0.7-2.9-2.4-1.6-4.1c0.7-0.9 2.8-1.7 3.8-1.3c1.9 0.6 2 2.5 1.1 5.1c-0.9 0.1-2.3 0.7-3.3 0.3zm217.5-28.5c1.6 0.5 2.5 3.8 1.3 4.3c-1.3 0.6-3.2 0.8-4.6 0.3c-0.8-0.3-0.9-2.2-1.6-4.3c2.2-0.2 3.7-0.7 4.9-0.3zm-250.6-115.7c1.5-0.1 3.3-0.6 4.5 0c0.7 0.3 1.2 2.7 0.7 3.7c-0.9 1.6-2.9 2.2-4.4 0.9c-0.9-0.8-1.1-2.4-1.5-3.6q0.3-0.5 0.7-1zm248.6 218.8c-0.6 0.7-2.6 1-3.5 0.6c-1.7-0.9-2.9-2.6-1.7-4.5c0.5-0.8 2.3-0.8 3.1-1c2.1 1.7 3.4 3.1 2.1 4.9zm-296.2-105.6c-0.8-0.5-1.2-2.5-0.9-3.7c0.4-1.5 3.6-2.2 4.6-0.9c0.8 0.9 0.8 2.4 1.4 4.6c-2.3 0.1-4.1 0.6-5.1 0zm187.7 76.1c1.3-0.8 3.3-1.2 4.7-0.7c1.6 0.5 1.5 2.3 0.5 3.7c-1.2 1.6-2.6 1.9-5.1 0.5c0-0.9-0.6-3.1-0.1-3.5zm-97.7-218c-0.8-0.7-1.2-2.8-0.7-3.7c0.8-1.7 2.8-2.3 4.4-1.1c0.8 0.7 0.9 2.3 1.2 3.1c-1.7 2.3-3.4 3-4.9 1.7zm124.7 337.9c-0.8-0.9-1.3-2.7-1-3.9c0.3-1.4 3.7-1.9 4.7-0.7c0.8 0.9 0.8 2.4 1.1 3.2c-1.7 2.1-3.4 2.7-4.8 1.4zm-107.9-48.9c-1.6-0.9-2.6-2.6-1.3-4.3c0.6-0.9 2.5-1.3 3.6-1.1c1.6 0.2 2.1 3.1 0.7 5.5c-0.7 0-2.1 0.4-3-0.1zm96.3-239.9c-1.2 0.1-2.7 0.6-3.7 0.1c-1.8-0.8-2.3-2.6-1.2-4.4c0.9-1.4 2.7-2 4-0.8c0.9 1 1.1 2.7 1.6 4.1q-0.3 0.5-0.7 1zm181.5 392.2c1-1.6 2.4-1.7 3.8-0.9c1.6 0.8 2.2 3.4 0.9 4.7c-0.8 0.8-2.1 1-3.2 1.4c-1.8-1.6-2.4-3.8-1.5-5.2zm-340.4-211.7c-0.9-0.7-1.3-2.6-1.1-3.8c0.3-1.5 3.5-2.2 4.4-1.1c0.8 1.1 0.9 2.6 1.6 4.9c-2.3 0.1-4.1 0.7-4.9 0zm413.7 103.2c-1.7-0.8-2.4-2.6-1.5-4.3c1-1.8 2.7-1.4 4.1-0.5c1.6 0.9 2.1 2.3 0.7 4.9c-0.8 0-2.2 0.4-3.3-0.1zm-460-219c1.7 1.1 1.6 3 0.6 4.6c-0.9 1.5-2.5 2.1-3.6 0.9c-1-1.1-1-3-1.7-5.4c2.2-0.1 3.8-0.7 4.7-0.1zm480 93.2c-0.3-1.6-1.1-3.3-0.7-4.7c0.5-1.8 2.5-2.1 3.8-0.8c0.9 0.8 1.1 2.4 1.8 4.4c-2.2 0.5-3.6 0.8-4.9 1.1zm74-17.5c-0.8 1.5-2.4 2.6-3.8 1.5c-1-0.9-2-2.9-1.7-4c0.6-2 2.7-1.6 4.2-1.2c1.9 0.9 2.1 2.3 1.3 3.7zm-503.9-180c-1.1 1.8-3.1 1.8-4.5 0.5c-0.8-0.7-0.8-2.4-1.2-3.6c1.6-0.4 3.1-0.8 5.5-1.4c0.1 2.2 0.7 3.6 0.2 4.5zm96.8 124.6c-1.7-1-2.1-3-0.7-4.4c0.8-0.8 3.3-1.3 3.6-1c0.8 1.3 1 3 1.6 5.3c-2.2 0.1-3.6 0.6-4.5 0.1zm222.5 213.7c1.6 0.6 2.3 3.5 1.1 4.7c-0.8 0.7-2.4 1.3-3.4 1.1c-1.6-0.5-2-3.4-0.5-5.7c0.6-0.1 1.8-0.5 2.8-0.1zm208.5-143.7c0.6-0.8 2.5-1.1 3.5-0.8c1.5 0.5 2.2 3.7 1.1 4.8c-0.8 0.7-2.2 0.8-3 1.1c-2.1-1.9-2.8-3.5-1.6-5.1zm-592.3-136.1c0.4-0.8 2.7-1.3 3.6-0.9c1.8 0.7 2.3 2.8 1.2 4.4c-0.6 0.8-2.2 1-4.4 1.8c-0.3-2.5-0.9-4.2-0.4-5.3zm95.3 76.3c0.1 1.3 0.6 2.8 0.2 3.9c-0.7 1.7-2.5 2.1-4.1 1.3c-1.6-0.8-2.2-2.6-1.1-3.9c0.9-1 2.6-1.3 4-1.9q0.5 0.3 1 0.6zm-12.6 52.2c0.8 0.6 1.2 2.4 0.8 3.4c-0.4 1.5-3.7 2.3-4.7 1.2c-0.8-0.8-0.9-2.3-1.1-3c1.8-2.1 3.4-3 5-1.6zm73.2-85.8c-0.8-0.8-1.1-2.4-0.8-3.5c0.5-1.5 3.7-2.3 4.7-1.2c0.7 0.8 0.8 2.3 1 2.9c-1.6 2.5-3.7 3.1-4.9 1.8zm257.5 40.8c-1.4 0.2-3.2 0.9-4 0.3c-0.9-0.7-1-2.5-1.4-3.9c1.4-0.4 3-1.3 4.3-1c0.8 0.2 1.2 2.3 1.7 3.5q-0.3 0.6-0.6 1.1zm-374.7-43c-0.1 1.4 0.3 3-0.2 4.2c-0.6 1.5-2.3 2-3.9 1.1c-1.6-0.9-2.2-2.6-1-3.9c0.9-1 2.6-1.4 4-2q0.5 0.3 1.1 0.6zm336.9 221.5c-0.2-1.4-1-3-0.7-4.3c0.4-1.6 2.4-2.4 3.7-1.3c1 0.8 1.5 2.8 1.4 4.2c-0.2 0.7-2.1 1.3-3.2 1.9q-0.6-0.2-1.2-0.5zm-30.1-46.3c1.8 0.8 1.9 2.9 0.7 4.2c-0.7 0.8-2.8 1.3-3.7 0.8c-0.9-0.5-1.2-2.3-2.2-4.5c2.5-0.3 4.1-1 5.2-0.5zm-121.8-90c-1.8-0.7-2.3-2.7-1.2-4.1c0.7-0.9 3-1.6 3.8-1.2c1 0.6 1.2 2.6 2.1 4.8c-2.2 0.3-3.7 0.9-4.7 0.5zm29.7 115.7c-1.3 0.1-3.2 0.8-3.9 0.2c-0.8-0.8-1.3-3-0.8-3.9c0.5-0.9 2.9-1.6 3.7-1.2c1 0.5 1.2 2.5 1.7 3.8q-0.4 0.6-0.7 1.1zm-186.5-398.9c-1.4 1-3.1 1.3-4.7 1.9c-0.4-1.2-1.3-2.7-1-3.6c0.7-1.9 2.5-2.2 5.2-1.3c0.1 0.8 0.9 2.7 0.5 3zm429.1 392.4c-0.4 1.7-2.1 1.9-3.5 1c-1.7-1-2.5-2.7-1.3-4.3c0.6-0.9 2.2-1 4.4-1.9c0.2 2.4 0.8 4 0.4 5.2zm-153.3-140.2c0.8 0.7 0.9 2.8 0.5 4c-0.5 1.5-2.1 2-3.6 1c-1.6-1.1-1.8-2.6-0.4-5.1c0.9 0 2.8-0.6 3.5 0.1zm-105.1 76.7c-1.3 0-2.9 0.3-4-0.2c-1.5-0.8-2.1-2.7-0.7-3.9c0.9-0.8 3-1.2 4-0.6c0.9 0.5 1 2.4 1.4 3.7q-0.3 0.5-0.7 1zm-157.2-140.2c0.7-1.6 2.5-1.8 4-0.7c1.5 1 1.6 2.5 0.6 4c-0.9 1.5-2.1 1.9-4.5 1c-0.1-1.4-0.6-3.1-0.1-4.3zm422.8 125c1.8 0.9 1.6 2.8 0.7 4.3c-0.9 1.4-2.2 2.1-3.7 1.2c-1.8-1.1-1.8-2.7-0.4-5.1c0.8-0.1 2.4-0.8 3.4-0.4zm-330.7-169.8c1.5 0.6 2.1 2.3 1 3.9c-1.1 1.6-2.9 1.9-4.3 0.8c-0.9-0.7-0.9-2.3-1.7-4.4c2.3-0.2 3.9-0.8 5-0.3zm5.6 48c1.3-0.8 3.2-1.5 4.6-1.1c1.7 0.5 1.6 2.5 0.6 3.6c-0.9 0.9-2.4 1.2-4.6 2.1c-0.3-2.2-1-4.4-0.6-4.6zm182.8 31.9c0.9 0.8 1.1 2.8 0.8 4c-0.6 1.6-2.4 2.3-3.8 1c-0.9-0.8-1-2.4-1.8-4.6c2.3-0.3 4.2-1 4.8-0.4zm-334.8 49.7c0.7-0.8 2.7-1.1 3.7-0.7c1.7 0.8 2.2 2.8 1 4.4c-0.6 0.8-2.1 0.9-2.9 1.2c-2-1.7-3.2-3.3-1.8-4.9zm123.6-100.8c1.4-0.2 3.2-1 4.2-0.4c0.8 0.5 1.1 2.8 0.7 4c-0.6 1.6-2.6 1.9-3.9 0.8c-0.9-0.7-1.1-2.2-1.7-3.4q0.3-0.5 0.7-1zm376.9 135.9c1.8 0.9 1.5 2.8 0.5 4.3c-1 1.6-2.6 2.1-3.9 0.8c-0.8-0.9-0.8-2.6-1.5-4.7c2.3-0.3 3.9-0.9 4.9-0.4zm-134.8-165.1c0.8 0.8 1 2.9 0.5 4c-0.6 1.6-2.5 2.1-3.8 1c-0.9-0.7-0.9-2.3-1.4-3.4c1.8-1.6 3.2-3.1 4.7-1.6zm293.7 129.4c0-0.3 2.3-1 3.2-0.7c1.5 0.5 2.2 4.5 1 5.6c-0.6 0.5-1.8 0.4-3.5 0.8c-0.4-2.3-0.8-4-0.7-5.7zm-577.8 36.3c-1.7-0.7-2.5-2.6-1.4-4c0.7-1 2.9-1.6 3.9-1.2c0.9 0.4 1.1 2.4 2.1 4.5c-2.2 0.3-3.6 1.1-4.6 0.7zm155.8 130.5c0 1.5 0.6 3.1 0.1 4.4c-0.5 1.6-2.4 2-3.5 0.8c-0.9-1-1.4-2.9-1-4c0.2-0.9 2.1-1.2 3.2-1.8q0.6 0.3 1.2 0.6zm299.4-184.2c-0.8 1.7-2.7 2.1-4.1 0.9c-0.8-0.8-1.5-3.1-1.1-3.6c0.8-1 2.6-1.1 4.9-1.9c0.2 2.2 0.8 3.7 0.3 4.6zm-216.8-77.5c0.9-1.7 2.9-1.8 4.2-0.6c0.8 0.7 1.3 3 0.9 3.6c-0.9 0.9-2.7 1-5.1 1.7c0-2.2-0.5-3.8 0-4.7zm-78.3 285.2c1.6 0.6 2.1 3.5 0.7 5c-0.6 0.6-2.1 1-2.9 0.6c-1.7-0.6-2.1-3.1-0.6-5.4c0.6 0 1.9-0.5 2.8-0.2zm70.6-234.8c0.1 1.4 0.7 2.9 0.3 4.1c-0.6 1.7-2.6 2.2-3.8 1c-0.9-0.8-1.2-2.8-0.9-3.9c0.3-0.9 2.1-1.2 3.3-1.8q0.5 0.3 1.1 0.6zm-98.8 124.4c-1.6-0.7-2.5-3.6-1.3-4.7c0.8-0.7 3.1-1.2 3.4-0.9c0.8 1.3 1.1 3 1.9 5.4c-2 0.1-3.1 0.5-4 0.2zm252-177.9c-0.8-1-1.2-2.9-0.8-4c0.7-1.8 2.7-1.9 3.9-0.7c0.9 0.9 0.9 2.5 1.4 3.8c-1.8 1.7-3.4 2-4.5 0.9zm-301.4 159.4c1.7 0.9 1.8 3 0.7 4.4c-0.6 0.8-2.5 1.4-3.3 1c-1.8-0.8-1.9-2.7-0.8-5.2c0.9-0.1 2.4-0.7 3.4-0.2zm-72.6 20.6c-1.7-0.7-2.2-2.6-0.9-3.9c0.8-0.8 2.9-1.4 3.9-1c0.9 0.4 1.1 2.4 2 4.6c-2.3 0.2-3.9 0.7-5 0.3zm-29.6-45.5c0 1.3 0.3 2.7-0.2 3.8c-0.7 1.6-2.4 1.9-3.9 0.9c-1.5-1-1.9-2.7-0.7-4c0.8-0.8 2.5-0.9 3.8-1.4q0.5 0.4 1 0.7zm426.9-139.5c-0.9-0.8-1.6-2.8-1.2-3.7c0.9-2 3-1.7 4.5-0.7c0.8 0.5 1 1.9 1.3 2.6c-1.6 1.9-3 3.2-4.6 1.8zm-489.6 79.8c1.8 0.8 1.3 2.6 0.4 4c-1 1.5-2.5 2.3-3.9 1.1c-0.8-0.7-0.8-2.4-1.3-4.4c2.1-0.4 3.8-1.1 4.8-0.7zm460.1-103c0.7-1.6 2.7-2 3.9-0.8c0.9 0.9 0.9 2.6 1.3 4c-1.3 0.4-2.6 0.7-4.7 1.4c-0.3-2.1-0.9-3.6-0.5-4.6zm164.2 61c1.7 0.9 2.1 2.7 1.1 4.4c-0.9 1.5-2.4 1.7-3.8 0.8c-1.7-1.1-1.5-2.6-0.2-5c0.6-0.1 2.1-0.7 2.9-0.2zm-281.1-59c0.7 0.3 1.1 2.5 0.8 3.6c-0.5 1.7-3.1 2.3-4.3 1.1c-0.8-0.8-0.9-2.1-1.7-4.1c2.4-0.4 4-1 5.2-0.6zm-12.2 275.2c-0.6 0.7-2.5 1-3.3 0.6c-1.7-0.9-2.1-2.9-1-4.5c0.6-0.7 2-0.8 2.9-1.1c1.8 1.8 2.7 3.4 1.4 5zm-142.8-187.3c-1.7-0.8-2.6-2.7-1.5-4.3c0.5-0.9 3-1.6 3.5-1.2c1 1 1.3 2.7 2.3 5.1c-2.1 0.2-3.4 0.7-4.3 0.4zm52-113.1c0.8 0.8 1.2 2.9 0.7 3.9c-0.8 1.8-2.8 1.7-4.2 0.5c-0.7-0.6-0.9-2-1.2-2.7c1.7-2.2 3.2-3.2 4.7-1.7zm-18.5 27.7c0.2 1.3 1.1 3.1 0.5 4c-0.6 0.9-2.6 1.7-3.7 1.3c-1.8-0.5-2.2-2.5-1.1-4c0.6-0.9 2.1-1.3 3.2-1.9q0.6 0.3 1.1 0.6zm-16.9 248c0 1.3 0.6 3-0.1 4c-0.5 0.8-2.5 1.4-3.6 1.1c-1.7-0.6-2.1-2.5-1.1-3.9c0.8-1 2.5-1.3 3.7-1.9q0.6 0.3 1.1 0.7zm258.4-130.8c0.9-0.8 2.8-0.7 4.2-1c0.3 1.4 1 3 0.6 4.1c-0.3 0.8-2.2 1-4.2 1.8c-0.3-2.3-1.2-4.4-0.6-4.9zm-421.5-247.3c0.7-0.8 2.6-0.6 4-0.9c0.2 1.4 1 2.9 0.5 4c-0.2 0.8-2.1 1-4.2 1.9c-0.2-2.4-1-4.3-0.3-5zm415.7 200.1c0 1.3 0.4 2.8-0.2 3.8c-0.8 1.6-2.7 2-3.9 0.7c-0.7-0.8-1.2-2.9-0.6-3.8c0.6-0.9 2.4-1 3.7-1.4q0.5 0.4 1 0.7zm-439.1-195.2c0.9-0.7 2.9-1 3.9-0.5c0.8 0.3 1.3 2.8 0.8 3.6c-0.6 0.8-2.4 0.9-4.6 1.6c-0.1-2.2-0.7-4.2-0.1-4.7zm318.2 421.6c-0.6 0.6-2.4 0.9-3.3 0.6c-1.7-0.7-2.5-3.5-1.3-4.6c0.7-0.7 2.1-0.7 2.7-0.8c2.2 1.6 3.2 3.1 1.9 4.8zm-140.9-285.5c-1.9-0.9-2.2-2.7-1.2-4.5c0.7-1.4 2-1.8 3.4-0.8c1.5 1 2.2 2.4 0.8 5c-0.7 0.1-2.1 0.7-3 0.3zm308.5 52.1c-0.8 1.6-2.6 2.2-3.9 1c-0.8-0.7-1.4-2.9-0.9-3.6c0.7-1 2.5-1.1 4.7-2c0.1 2.2 0.5 3.6 0.1 4.6zm-473.1-44.3c0.7 0.3 1.1 2.7 0.7 3.6c-0.7 1.7-2.6 2.2-4.1 1c-0.9-0.6-1-2.1-1.8-4.2c2.4-0.3 4.1-0.9 5.2-0.4zm239.3-0.4c-0.8-0.6-1.3-3.1-1.1-3.2c1.4-0.8 2.9-1.4 4.5-1.5c0.3 0 0.8 2.1 1.1 2.7c-1.5 2.4-3 3.2-4.5 2zm-206.3-177.9c0.3 0 0.8 2.3 0.4 3.2c-0.7 1.7-3.7 2.7-4.5 1.6c-0.7-0.9-0.6-2.3-1-4.3c2.2-0.3 3.6-0.7 5.1-0.5zm147.6 118.1c-0.1 0.5-2.3 1-3.1 0.6c-1.7-0.8-2.6-2.5-1.3-4.2c0.6-0.8 2.1-0.9 4.2-1.7c0.2 2.4 0.6 3.9 0.2 5.3zm110.5-54c0.7 0.7 0.7 2.3 1 3.5c-1.6 0.3-3.2 0.8-4.8 0.7c-0.5-0.1-0.8-1.9-1.1-2.6c1.6-2.2 3.3-2.8 4.9-1.6zm-155.7 82.9c1.2-0.1 2.7-0.6 3.8-0.1c1.6 0.7 2 2.6 0.8 3.9c-0.8 0.8-2.8 1.3-3.7 0.9c-0.9-0.6-1.1-2.4-1.6-3.7q0.3-0.5 0.7-1zm-151.8 87.4c-0.8-0.5-0.7-2.4-1-3.6c1.5-0.3 3-0.9 4.5-0.7c0.5 0.1 0.7 2.1 1.4 4.3c-2.3 0-4 0.6-4.9 0zm592.6 10.4c0.1 1.3 0.6 2.9 0.1 4c-0.3 0.6-2.9 1.1-3.3 0.6c-0.9-0.9-1.5-2.7-1.2-3.9c0.1-0.7 2.2-0.9 3.4-1.4q0.5 0.3 1 0.7zm-423.1-125.2c1-1.4 2.5-1.7 3.9-0.6c1.4 1.2 1.6 2.8 0.5 4.1c-0.7 0.8-2.1 1-2.9 1.3c-2-1.8-2.7-3.2-1.5-4.8zm-11.7 55.8c-1.7-0.7-2.2-2.5-1.2-4.1c0.9-1.5 2.7-2 3.9-0.8c0.9 0.9 0.9 2.6 1.6 4.7c-2 0.2-3.4 0.7-4.3 0.2zm160.8 159.8c-1.1 0-2.9 0.3-3.1-0.2c-0.7-1.3-0.8-3-1.1-4.6c1.2-0.2 3.1-0.9 3.5-0.4c0.9 1.2 1 2.9 1.5 4.4q-0.4 0.4-0.8 0.8zm-154.4-38.7c-1.3 0-2.7 0.5-3.8 0.1c-1.6-0.7-2.1-2.6-0.9-3.9c0.8-0.8 2.9-1.4 3.7-0.9c0.9 0.5 1.1 2.3 1.6 3.6q-0.3 0.5-0.6 1.1zm115.1-30.8c0.8 0.4 1.3 2.5 1.1 3.6c-0.4 1.6-2.1 2.5-3.7 1.4c-0.9-0.6-1.2-2.1-2.3-4.1c2.3-0.5 3.9-1.3 4.9-0.9zm346.5 20.3c1.8 1 1.9 3 0.8 4.5c-0.4 0.7-2.3 1.1-3.1 0.7c-1.6-0.7-2.1-2.4-0.6-4.9c0.6-0.1 2-0.7 2.9-0.3zm-316.9 20.6c1.4 0 2.9-0.5 4 0.1c1.5 0.7 2.1 2.5 0.8 3.9c-0.7 0.7-2.7 1.1-3.5 0.6c-1-0.6-1.3-2.3-1.9-3.6q0.3-0.5 0.6-1zm97.6-16.6c-0.4 0.8-2.7 1.2-3.7 0.7c-1.6-0.7-2.1-2.6-0.8-4.1c0.7-0.8 2.2-0.8 4.1-1.5c0.3 2.3 0.9 3.9 0.4 4.9zm-10.8-50.2c0.8 0.8 1 2.9 0.5 3.9c-0.3 0.8-2.6 1.2-3.5 0.8c-0.9-0.4-1.1-2.2-2-4.3c2.4-0.2 4.3-1 5-0.4zm-223.9-18.8c-1.4 0-2.9 0.5-4.1 0.1c-1.6-0.6-2.1-2.4-1-3.6c0.9-0.8 2.8-1.3 4-0.9c0.8 0.2 1.2 2.1 1.7 3.3q-0.3 0.5-0.6 1.1zm215.4-4.4c1.2-0.1 3-0.7 3.4-0.2c0.9 1.3 1.1 3 1.5 4.6c-1.4 0-3 0.5-4.1 0c-0.9-0.5-1-2.2-1.5-3.4q0.3-0.5 0.7-1zm-373-159.8c0 1.3 0.4 3-0.2 3.8c-0.7 0.8-2.6 1.3-3.7 0.9c-1.6-0.5-2-2.3-0.9-3.6c0.9-0.9 2.5-1.2 3.7-1.8q0.6 0.4 1.1 0.7zm-2.8 317.2c0.2 1.3 0.9 2.8 0.6 3.9c-0.6 1.6-2.3 2.4-3.8 1.2c-0.8-0.6-1-2.1-1.8-4c2.2-0.5 3.6-0.8 5-1.1zm7.6-293.7c0 1.4 0.4 2.9-0.1 4.1c-0.6 1.6-2.5 1.9-3.5 0.7c-0.8-1-1.2-2.9-0.8-4c0.3-0.8 2.2-1 3.4-1.5q0.5 0.4 1 0.7zm2.9 121.4c0.1 1.3 0.5 2.8 0 3.8c-0.7 1.6-2.6 2.1-3.9 0.8c-0.7-0.8-1.3-2.9-0.8-3.6c0.6-1 2.4-1.2 3.7-1.7q0.5 0.4 1 0.7zm439.1 22.5c1.4 0 3.1-0.4 4.3 0.1c0.7 0.3 1.2 3 0.8 3.3c-1.1 0.8-2.8 1.3-4 1c-0.8-0.2-1.2-2.1-1.8-3.2q0.3-0.6 0.7-1.2zm-53.9 86c1.2 0 2.6-0.6 3.6-0.1c1.6 0.6 2.2 2.3 1 3.8c-0.6 0.8-2 0.9-4 1.7c-0.3-2.4-0.5-3.9-0.6-5.4zm172-14.1c1.7 0.8 2.1 2.7 0.9 4.1c-0.7 0.8-2.8 1.5-3.4 1c-0.9-0.6-1.1-2.3-1.9-4.4c2.1-0.4 3.5-1.1 4.4-0.7zm8.2-74.9c0.1 1.4 0.5 3 0.1 4.3c-0.2 0.6-2.3 1.1-3.1 0.7c-1.9-0.7-2.2-2.5-1-4.1c0.6-0.7 2-1 3-1.4q0.5 0.2 1 0.5zm-70.1 15.7c0.2 1.4 0.9 3.1 0.5 4.2c-0.4 0.7-2.6 1.1-3.7 0.8c-0.7-0.2-0.9-2-1.7-3.9c2.2-0.5 3.5-0.8 4.9-1.1zm-87.3 47.8c-0.6 0.8-2.6 1.1-3.6 0.7c-1.5-0.6-2.2-2.5-1-3.8c0.7-0.9 2.4-0.9 4.4-1.5c0.2 2.1 0.8 3.8 0.2 4.6zm-376.9 59.9c-0.7 1.6-2.2 2-3.6 1c-1.5-1-2.2-2.6-1-4c0.7-0.8 2.4-0.7 4.6-1.3c0 2 0.4 3.3 0 4.3zm549.4-53.7c1.7 0.8 1.8 2.6 0.9 4.2c-0.8 1.4-2.1 2.2-3.4 1.1c-0.9-0.8-1.1-2.4-1.9-4.4c2.1-0.5 3.5-1.2 4.4-0.9zm-239.9-87.6c-0.6 0.7-2.8 1.1-3.1 0.7c-0.9-1.1-1.2-2.7-1.7-4.1q1.8-0.5 3.6-1.1c1.9 1.7 2.4 3.1 1.2 4.5zm-336.1 147.2c-0.9-0.6-1-2.3-1.5-3.6c1.5-0.3 3-1 4.4-0.7c0.6 0 0.9 2 1.7 4.1c-2.2 0.2-3.9 0.8-4.6 0.2zm107-174.5c1.3-0.1 3-0.6 3.7 0c0.8 0.7 1.2 2.6 0.8 3.6c-0.5 1.6-2.3 2-3.5 0.9c-0.9-0.8-1.1-2.3-1.6-3.4q0.3-0.6 0.6-1.1zm-91.7-96.5c-0.5 0.6-2.2 1-2.9 0.6c-1.9-1-1.8-2.9-0.7-4.4c0.5-0.8 1.8-0.9 2.5-1.2c1.9 1.8 2.5 3.5 1.1 5zm-67.8 38.8c-0.7-0.3-1.2-2.2-0.9-3.1c0.4-1.5 3.6-2.1 4.5-1c0.7 0.8 0.7 2.1 1.2 4.1c-2.2 0.1-3.7 0.5-4.8 0zm368.7 429.9c-0.5 0.7-2.4 1.1-3.2 0.7c-1.7-0.9-2.2-2.8-1.1-4.4c0.5-0.7 1.9-0.9 2.6-1.1c2 1.6 2.9 3.1 1.7 4.8zm-176.5-571.3c-1.5 0.8-3.2 1.1-4.9 1.5c-0.1-1.1-0.7-2.9-0.2-3.3c1.1-1 2.7-1.3 4.9-2.2c0.1 2 0.5 3.8 0.2 4zm258.5 281.6c0.4 0.1 0.8 2.5 0.4 3.4c-0.8 1.7-2.6 1.9-4 0.8c-0.7-0.7-0.9-2-1.7-3.9c2.4-0.2 4-0.7 5.3-0.3zm-129.1 81.4c0 0.3-2.8 0.8-3.1 0.4c-0.7-1.2-1.1-2.8-1.2-4.2c0-0.3 2-0.7 3.9-1.4c0.3 2.3 0.6 3.8 0.4 5.2zm152.2-86.8c0.8 0.5 1 2.7 0.5 3.8c-0.6 1.5-2.4 1.8-3.6 0.6c-0.8-0.7-1-2.1-1.9-4.1c2.4-0.2 4.1-0.9 5-0.3zm25.8-100.1c-0.7 0.8-2.8 1.3-3.7 0.8c-0.8-0.5-1.4-2.6-1.1-3.6c0.3-0.7 2.2-0.9 4.2-1.7c0.3 2.2 1.1 4 0.6 4.5zm-446.5 75.6c-0.7 1.6-2.4 2.1-3.6 0.9c-0.9-0.9-1-2.5-1.4-3.8c1.3-0.4 2.6-0.8 4.9-1.5c0.1 2.1 0.5 3.5 0.1 4.4zm-28.7-237.4c-0.8 1.6-2.5 1.6-4 0.7c-1.3-0.9-2.2-2.4-1-3.6c0.9-0.8 2.7-0.6 4.7-1c0.2 1.8 0.8 3.1 0.3 3.9zm4.8 364.8c-1.2-0.3-1.5-3.6-0.3-4.4c0.8-0.6 2.6-0.9 3.3-0.3c0.9 0.6 1 2.2 1.7 4.3c-2.2 0.2-3.5 0.6-4.7 0.4zm313.1-142c-1.2 0.1-2.6 0.6-3.5 0.2c-1.7-0.7-1.8-2.4-1-4c0.8-1.5 2.3-1.9 3.4-0.9c0.9 0.8 1.2 2.4 1.7 3.7q-0.3 0.5-0.6 1zm-104.9-124.4c-0.7-0.8-1.2-2.8-0.7-3.7c0.5-0.8 2.7-1.4 3.6-1c0.8 0.3 0.9 2.2 1.5 4.2c-2.1 0.3-3.9 1-4.4 0.5zm208.4 145.1c-0.1 1.3 0.3 3-0.3 3.8c-0.7 0.8-2.4 0.6-3.7 0.9c-0.2-1.3-0.9-2.8-0.5-3.8c0.5-0.9 2.2-1.1 3.4-1.6q0.5 0.4 1.1 0.7zm-321.4-124c0.1 1.3 0.7 2.8 0.3 4c-0.5 1.5-2.2 2.2-3.5 1c-0.8-0.8-0.9-2.4-1.5-4.5c2.1-0.2 3.4-0.4 4.7-0.5zm534.5 100.3c1.6 0.8 2.2 2.6 1 4.1c-0.7 0.7-2.6 1.3-3.4 0.8c-0.8-0.5-1-2.2-1.6-4c1.9-0.5 3.2-1.3 4-0.9zm-673.6-68.8c0.1 1.2 0.7 2.6 0.3 3.6c-0.6 1.5-2.1 2.8-3.7 1.6c-0.8-0.7-0.8-2.4-1.5-4.4c2.2-0.3 3.5-0.5 4.9-0.8zm104.8-72.4c1.7 0.8 2.1 2.7 0.9 4.1c-0.6 0.7-2.8 1.2-3.3 0.8c-0.9-0.8-1-2.4-1.7-4.5c2-0.3 3.2-0.8 4.1-0.4zm527 82.4c-0.3 0-0.9-2.2-0.6-3.2c0.5-1.5 3.3-2.1 4.4-0.9c0.6 0.6 0.7 1.7 1.3 3.4c-2.2 0.3-3.7 0.8-5.1 0.7zm-427.6-79.4c0.2 1.2 0.9 2.6 0.5 3.5c-0.8 1.7-2.6 1.9-4 0.8c-0.7-0.6-1.2-2.5-0.8-3.1c0.6-0.9 2.1-1.2 3.2-1.8q0.6 0.3 1.1 0.6zm-73.3 19.6c-0.7-0.5-1-2.2-0.6-2.9c0.8-1.6 2.6-2.5 4.3-1.4c0.7 0.5 0.7 2.1 0.8 2.7c-1.5 2.2-3 2.9-4.5 1.6zm-6.8-50.5c0.6 0.3 0.9 2.5 0.5 3.4c-0.7 1.7-2.6 1.9-3.9 0.8c-0.7-0.6-0.8-2-1.5-3.9c2.2-0.2 3.8-0.8 4.9-0.3zm-82.3 70.6c-0.6 1.4-2.3 2.1-3.6 0.9c-0.8-0.8-1-2.4-1.4-3.6c1.3-0.4 2.7-0.8 4.7-1.3c0.2 1.9 0.7 3.1 0.3 4zm245.3 116.7c-0.4 0.6-2.2 0.9-3 0.5c-1.6-0.9-2.7-2.5-1.6-4.3c0.5-0.7 1.9-0.8 2.5-1c2 1.6 3.2 3 2.1 4.8zm-59.3-162c0 1.1 0.4 2.5-0.1 3.4c-0.8 1.6-2.6 2.2-4.1 1c-0.6-0.5-0.8-2.5-0.4-3c0.9-1 2.4-1.4 3.7-2.1q0.4 0.4 0.9 0.7zm294.1 133.5c-1.6-0.7-1.7-2.3-0.8-3.7c0.9-1.4 2.4-1.8 3.5-0.6c0.8 0.9 0.9 2.4 1.6 4.5c-2.1 0-3.4 0.3-4.3-0.2zm-175.9-37.5c0.7 0.5 1.2 2.5 0.8 3.4c-0.7 1.5-2.6 1.8-3.9 0.6c-0.7-0.6-0.8-2-1.6-3.9c2.2-0.1 3.8-0.6 4.7-0.1zm-175.1 91.6c-1.1 0.2-2.8 0.7-3.1 0.4c-0.7-1.3-1-2.9-1.4-4.3c1-0.3 2-0.6 3.8-1.1c0.3 2.1 0.5 3.6 0.7 5zm475.6-61.4c-0.1 1.2 0.3 2.9-0.4 3.5c-0.8 0.7-2.5 0.6-3.8 0.8c-0.1-1.2-0.8-2.9-0.3-3.5c0.7-0.9 2.3-1.1 3.6-1.5q0.4 0.3 0.9 0.7zm-615.6-130.9c0.7 0.4 1.1 2.5 0.7 3.4c-0.7 1.5-2.5 2.1-3.9 0.8c-0.7-0.6-0.7-2-1.3-3.9c2-0.2 3.6-0.8 4.5-0.3zm31.4-76.5c-0.8 0.8-2.6 1.2-3.7 0.8c-0.6-0.2-1.1-2.4-0.7-3.3c0.3-0.8 2-1.1 3.9-1.9c0.3 2.2 1 3.9 0.5 4.4zm209.2 168.9c0.1 1.2 0.7 2.9 0.1 3.5c-0.8 0.8-2.4 0.8-3.7 1.1c-0.3-1.1-1.1-2.7-0.7-3.4c0.5-1 2.2-1.3 3.3-1.8q0.5 0.3 1 0.6zm-74.3 215.9c-1.1 0.2-2.4 0.8-3.3 0.4c-1.7-0.7-2.3-2.5-1.4-4.1c0.4-0.7 1.8-0.8 3.5-1.3c0.5 2 0.8 3.5 1.2 5zm-160.5-280.7c-1.1 0.1-2.3 0.5-3.1 0.1c-1.3-0.7-3.1-1.7-1.6-3.4c0.6-0.8 2.6-1.3 3.6-0.9c0.9 0.3 1.2 2.1 1.7 3.2q-0.3 0.5-0.6 1zm282 78.5c1.4-0.1 2.9-0.4 4.1 0c0.6 0.2 1.1 2.4 0.7 3.1c-0.9 1.6-2.6 1.7-4 0.6c-0.7-0.6-0.9-1.8-1.3-2.7q0.2-0.5 0.5-1zm-137.3-87.2c-0.9 1.7-2.7 1.9-4.1 0.7c-0.7-0.7-0.7-2.1-1-3.2c1.4-0.4 2.8-0.8 5-1.3c0.1 1.8 0.6 3.1 0.1 3.8zm183 56.1c-0.7 1.6-2.5 2.2-3.8 1c-0.8-0.7-1.2-2.7-0.8-3.4c0.5-0.9 2.2-1 4.2-1.7c0.2 2 0.8 3.2 0.4 4.1zm251 139.3c-0.7 1.6-2.4 2.4-3.8 1.3c-0.8-0.6-1.2-2.7-0.8-3.5c0.5-0.9 2.2-1.2 4.2-2.1c0.2 2.2 0.7 3.4 0.4 4.3zm-429.2-172.7c-1 0.7-2.7 1.1-3.8 0.8c-1.5-0.4-2-2.2-0.8-3.3c0.9-0.8 2.4-0.9 4.4-1.6c0.2 2 0.7 3.8 0.2 4.1zm229.7 43.4c0.4 0 1 2.1 0.6 2.9c-0.7 1.6-2.3 2.5-4 1.3c-0.7-0.5-0.7-1.9-1.3-3.7c2.1-0.3 3.5-0.7 4.7-0.5zm55.4 156.7c1 0.1 2.2-0.3 3 0.1c1.6 0.8 2.1 2.5 1.1 4c-0.5 0.6-2.6 1.1-2.8 0.8c-1-1.1-1.4-2.6-2-3.9q0.4-0.5 0.7-1zm-448.7-167.2c1.8 0.8 1.8 2.7 0.7 3.9c-0.6 0.8-2.6 1.4-3 1c-0.9-0.8-1.1-2.3-1.8-4.2c1.9-0.4 3.3-1 4.1-0.7zm224.5-70.5c-1.6-0.5-1.2-1.9-0.4-3.1c1-1.4 2.3-2.6 3.8-1.5c0.8 0.6 0.9 2.2 1.5 4.2c-2.2 0.3-3.7 0.8-4.9 0.4zm82.7 245.5c0.7 1.2 0.8 2.7 1.1 4.1c-1.1 0.2-2.8 0.9-3.2 0.5c-0.9-0.9-1.1-2.5-1.9-4.7c2 0 3.7-0.3 4 0.1zm-278.9-376.1c0.8 0.8 0.8 2.4 1.1 3.7c-1.2 0.3-2.6 1-3.5 0.6c-0.8-0.4-1.1-2-2.1-4c2.2-0.2 4-0.9 4.5-0.3zm1.1 223.9c-1 0-2.3 0.4-3-0.1c-1.6-0.9-2.3-2.6-1.2-4.1c0.4-0.6 2.5-1 2.9-0.6c0.9 1.1 1.3 2.6 2 3.9q-0.3 0.5-0.7 0.9zm101.2-76.2c1.4 0 2.9-0.4 4.1 0.1c0.5 0.2 0.9 2.2 0.6 3c-0.7 1.6-2.4 1.9-3.7 0.9c-0.8-0.7-1-2-1.5-3q0.2-0.5 0.5-1zm-24.7-18.6c1.5 0.6 2 2.4 0.7 3.6c-0.7 0.7-2.5 1.1-3.4 0.7c-0.8-0.3-1-2-1.8-4c2.2-0.2 3.6-0.8 4.5-0.3zm-79.5 188c0.1 1.4 0.6 2.9 0.3 4.3c0 0.4-2.6 1-3 0.5c-0.8-0.8-0.9-2.3-1.5-4.3c2-0.2 3.1-0.3 4.2-0.5zm-5-239.1c-1 0.8-2.6 1.3-3.8 1.1c-0.5-0.1-1.4-2.5-1-3.2c0.6-0.9 2.2-1.1 4.2-1.9c0.3 2 1 3.7 0.6 4zm624.9 174.3c0.6 0.5 0.9 2.8 0.4 3.3c-0.8 0.8-2.6 1.2-3.7 0.8c-0.7-0.3-0.8-2.2-1.4-4.3c2.2 0 3.9-0.5 4.7 0.2zm-474.9 61.5c0 0.2-2.4 0.7-2.6 0.4c-0.8-1.2-1.2-2.7-1.7-4.2c1-0.3 2-0.7 3.8-1.3c0.3 2.2 0.6 3.6 0.5 5.1zm307.9-48.5c0 1.2 0.4 2.8-0.2 3.6c-0.6 0.8-2.2 0.8-3.3 1.2c-0.3-1.2-1-2.7-0.6-3.6c0.5-0.9 2.1-1.2 3.2-1.8q0.4 0.3 0.9 0.6zm-143.1-89.9c0.7 0.8 1 2.7 0.6 3.7c-0.3 0.6-2.5 1.1-3.3 0.6c-0.8-0.4-0.9-2-1.6-3.9c2.1-0.3 3.9-0.9 4.3-0.4zm-145.8-89.8c1.2-0.1 2.5-0.7 3.5-0.3c1.8 0.7 1.6 2.5 0.6 3.7c-0.5 0.7-2.3 1-3.1 0.7c-0.8-0.5-1.1-2-1.6-3q0.3-0.6 0.6-1.1zm140.8 70.6c-0.4 0.6-2.8 0.9-3.1 0.5c-0.7-1-1.1-2.5-0.8-3.7c0.1-0.5 1.9-0.7 3.9-1.4c0.1 2.2 0.5 3.7 0 4.6zm-279 277c1.7 1 1.7 2.8 0.6 4.2c-0.5 0.7-2.6 1-2.8 0.7c-0.8-1-1-2.5-1.7-4.4c1.9-0.3 3.2-0.9 3.9-0.5zm3.1-93.7c0 0.3-2.2 0.7-2.9 0.3c-1.7-0.9-1.9-2.7-0.9-4.2c0.5-0.7 1.8-0.6 3.6-1.2c0.2 2.2 0.4 3.7 0.2 5.1zm31.2-303.1c-0.1 1.1 0.2 2.7-0.5 3.2c-0.9 0.7-2.4 0.7-3.7 1c-0.1-1-0.8-2.5-0.3-3c0.8-0.9 2.3-1.3 3.5-2q0.5 0.4 1 0.8zm399.3 153.6c0.3 1.4 0.9 2.8 0.7 4.1c-0.1 0.4-2.5 1-3.4 0.6c-0.7-0.3-0.7-2.1-1.3-3.8c1.9-0.4 3-0.7 4-0.9zm-434.2-194.8c0.7 0.3 1.2 2.3 0.9 3.2c-0.5 1.6-2.2 2-3.5 1c-0.8-0.6-1.1-1.9-2-3.7c2.2-0.3 3.7-1 4.6-0.5zm146 434.4c-0.1 0.4-2.6 1-2.7 0.7c-0.7-1.2-1.2-2.7-1.4-4.2c0-0.1 1.8-0.6 3.6-1.2c0.3 2 0.7 3.4 0.5 4.7zm19.8 88.5c0.6 1.2 0.8 2.7 1.1 4c-1.1 0.3-2.9 1.1-3.1 0.7c-0.8-1-1-2.5-1.6-4.6c1.8-0.1 3.4-0.5 3.6-0.1zm93.2-236c-0.1 0.5-2.6 0.9-2.7 0.7c-0.7-1.2-1.2-2.7-1.2-4c0-0.4 1.8-0.8 3.6-1.6c0.2 2.2 0.6 3.6 0.3 4.9zm325.7-72.8c-1.2 0.6-2.7 0.7-4.1 1c-0.2-1.1-0.8-2.8-0.5-3c1.1-0.8 2.6-1 4.8-1.6c-0.1 1.8 0.2 3.4-0.2 3.6zm-317.9-2c-0.5 0.7-2.2 0.7-3.4 1c-0.3-1.3-0.9-2.7-0.6-3.9c0.1-0.6 1.9-0.8 3.7-1.5c0.2 2.1 0.9 3.6 0.3 4.4zm250.6 138.8c-0.5 0.7-2.2 0.7-3.4 1c-0.3-1.3-0.9-2.6-0.7-3.8c0.1-0.6 1.9-0.8 3.8-1.4c0.2 1.9 0.9 3.5 0.3 4.2zm-377.8 56.1c0.7 1.1 1 2.6 1 4c0 0.3-2.4 1.1-2.8 0.8c-0.8-1-1.2-2.4-2-4.4c1.9-0.3 3.6-0.8 3.8-0.4zm-118.3-310.9c-0.3 0.6-2.7 1.2-3 0.9c-0.7-1-1.3-2.4-1.1-3.6c0.1-0.6 1.8-1 3.6-2c0.3 2.2 0.9 3.7 0.5 4.7zm389.7 104.2c0.8 0.7 0.7 2.2 1 3.4c-1.3 0.3-2.6 0.9-3.8 0.6c-0.5-0.1-0.7-1.9-1.4-3.8c2-0.2 3.6-0.8 4.2-0.2zm67 82.7c0.8 0.5 0.8 2.2 1.2 3.3c-1.3 0.4-2.6 1.1-3.8 0.9c-0.5-0.1-0.8-1.9-1.6-3.7c2-0.3 3.6-1 4.2-0.5zm-368.7-231.4c-1.2 0.6-2.7 0.9-4 0.8c-0.4 0-1.2-2.5-0.9-2.7c1.1-0.8 2.5-1.1 4.5-1.9c0.2 1.9 0.7 3.7 0.4 3.8zm9.7 43.5c1.5 0.7 2 2.4 0.9 3.7c-0.7 0.7-2.6 1.2-3.1 0.8c-0.9-0.7-1.2-2.2-2.1-4.2c2.1-0.2 3.4-0.7 4.3-0.3zm-46.2 10.5c0.7 0.5 1.1 2.4 0.7 3.2c-0.6 1.5-2.3 1.9-3.6 0.8c-0.7-0.7-0.7-2.1-1.4-4c2.1-0.1 3.6-0.5 4.3 0zm452.7 171.1c-1.3 0.1-2.8 0.6-3.8 0.1c-0.6-0.3-0.6-2.1-0.9-3.2c1.2-0.3 2.5-1 3.5-0.7c0.8 0.2 1.2 1.8 1.7 2.7q-0.2 0.6-0.5 1.1zm-275.7-16.1c0.6-0.7 2.5-1.1 3.4-0.7c0.7 0.4 1.3 2.4 0.9 3.2c-0.3 0.9-2 1.1-4 2c-0.2-2.2-0.9-3.8-0.3-4.5zm-33.9-65.1c0 1.2 0.5 2.9-0.1 3.5c-0.7 0.7-2.5 0.9-3.5 0.5c-0.5-0.2-0.9-2.4-0.5-3.1c0.5-0.8 2-1.1 3.1-1.5q0.5 0.3 1 0.6zm187.6 79.9c0.6 1 0.9 2.6 0.6 3.7c-0.2 0.6-2.5 1.2-3.1 0.8c-0.8-0.6-0.9-2.2-1.6-4c2-0.3 3.8-0.9 4.1-0.5zm-423 74.3c-1-0.1-2.5 0.2-2.9-0.3c-0.8-1.1-0.9-2.6-1.3-3.9c0.9-0.2 2.4-0.9 2.7-0.6c1 1 1.5 2.5 2.2 3.8q-0.3 0.5-0.7 1zm532.1-21.9c-0.7 0.7-2.6 1.1-3.4 0.6c-0.8-0.5-1.3-2.4-0.9-3.3c0.2-0.8 2-0.9 4-1.7c0.2 2.1 0.8 3.8 0.3 4.4zm-260.8-185.9c-1.3 0.2-2.7 0.7-4 0.5c-0.5 0-1.2-2.5-0.9-2.7c1-0.8 2.3-1 4.1-1.6c0.4 1.8 0.6 2.8 0.8 3.8zm-245.1-95.3c1.3-0.1 2.7-0.5 3.8 0c0.5 0.3 0.9 2.7 0.6 2.9c-1.1 0.7-2.5 1.1-3.8 1c-0.5-0.1-0.8-1.9-1.2-2.9q0.3-0.5 0.6-1zm542 223.7c-0.7 1.6-2.4 2-3.8 1c-0.7-0.5-1.2-2.5-0.9-2.9c1-0.8 2.4-1.2 4.4-2c0.2 1.9 0.7 3.1 0.3 3.9zm-524.5-272.4c-0.7 0.8-2.3 0.9-3.4 1.2c-0.3-1.1-1.1-2.5-0.7-3.2c0.5-0.9 2-1.3 3.9-2.3c0.1 2.1 0.7 3.7 0.2 4.3zm211.6 294.8c-0.1 0.3-2.6 0.7-2.8 0.3c-0.8-1.1-1.1-2.6-1.1-4c0-0.2 1.8-0.6 3.5-1.1c0.2 2.1 0.5 3.5 0.4 4.8zm145.4-8c-1.1 0-2.7 0.4-3.2-0.1c-0.7-0.8-0.9-2.4-0.6-3.5c0.1-0.5 2.3-1.1 2.8-0.7c0.8 0.8 1.2 2.2 1.7 3.4q-0.3 0.4-0.7 0.9zm116.6-6.6c1.2-0.1 2.7-0.6 3.5 0c0.7 0.4 1.2 2.5 0.7 3c-0.6 0.8-2.4 1.4-3.2 1c-0.8-0.3-1.1-2-1.6-3q0.3-0.5 0.6-1zm9.1 23.5c0.7 0.4 1.2 2.6 0.7 3.1c-0.6 0.7-2.3 1.2-3.3 0.9c-0.7-0.2-0.9-1.9-1.8-3.8c2.1-0.2 3.6-0.8 4.4-0.2zm-552.3-68.8c-1 0.2-2.3 0.9-3.1 0.5c-1.5-0.7-2.2-2.2-1.1-3.8c0.4-0.7 1.6-0.8 3.2-1.6c0.4 2.1 0.7 3.5 1 4.9zm-13.2-167.5c-0.8 0.6-2.6 1.2-3.3 0.8c-0.8-0.5-0.8-2.2-1.2-3.3c1.2-0.4 2.4-0.7 4.3-1.3c0.1 1.8 0.7 3.4 0.2 3.8zm352.4 66.7c-0.6-0.5-0.9-2.5-0.4-3.2c0.5-0.7 2.3-1 3.2-0.6c0.7 0.4 0.9 2 1.7 4c-2.2-0.1-3.7 0.4-4.5-0.2zm-149.3-14.5c-0.8-0.8-1-2.4-0.8-3.5c0.1-0.5 2.1-1.2 2.7-0.9c0.9 0.6 1.3 2 2.3 3.7c-2.1 0.4-3.7 1.1-4.2 0.7zm-27.5 79.8c-1 0-2.7 0.4-3 0c-0.7-1.1-0.7-2.5-1-3.8c1-0.2 2.5-0.9 3-0.5c0.9 0.8 1.2 2.2 1.7 3.4q-0.4 0.5-0.7 0.9zm357.2 67.1c-1-0.1-2.1 0-3-0.4c-1.5-0.8-2-2.3-0.9-3.6c0.5-0.6 2.4-1 2.7-0.7c0.9 1 1.3 2.4 1.9 3.7q-0.4 0.5-0.7 1zm-505.7-58.8c0-1.3-0.2-2.7 0.2-3.8c0.2-0.5 2.6-0.7 2.7-0.5c0.5 1.2 0.9 2.6 0.8 3.8c-0.1 0.5-1.8 0.7-2.8 1.1q-0.5-0.3-0.9-0.6zm270.6-11.3c-1.1 0-2.6 0.5-3.2 0c-0.8-0.6-1.3-2.4-0.9-3.1c0.3-0.7 2.3-1.3 3-0.9c0.9 0.5 1.1 2 1.7 3.1q-0.3 0.4-0.6 0.9zm22.9-8.9c0 1.2 0.5 2.6 0 3.5c-0.4 0.7-2 0.7-3.1 1c-0.3-1.2-1-2.5-0.7-3.5c0.2-0.8 1.8-1.1 2.8-1.6q0.5 0.3 1 0.6zm-347.2-114.1c-0.7-0.4-0.6-2.1-0.9-3.2c1.3-0.3 2.6-0.8 3.9-0.7c0.4 0.1 0.7 1.8 1.3 3.6c-2 0.2-3.4 0.7-4.3 0.3zm393.9 107.3c-0.5 0.7-2.3 1-3.2 0.7c-1.5-0.5-1.8-2.2-0.7-3.3c0.7-0.8 1.9-1 3.9-1.8c0 2.1 0.5 3.6 0 4.4zm-340.7-196.7c1.1 0 2.5-0.4 3.2 0.1c0.7 0.6 0.7 2.1 1 3.2c-1.1 0.2-2.5 0.9-3.3 0.5c-0.8-0.3-1-1.8-1.5-2.8q0.3-0.5 0.6-1zm13 45.9c1.4 1 2.4 2.5 1.1 4.2c-0.4 0.6-2.3 1-2.6 0.7c-0.7-1-1-2.3-1.7-4.1c1.6-0.4 2.7-1.1 3.2-0.8zm287.9 82.7c0.6 0.2 1 2.7 0.7 2.8c-1.1 0.7-2.5 1-3.8 1c-0.3 0-0.6-1.8-1.1-3.6c1.9-0.2 3.3-0.7 4.2-0.2zm287.4 85.6c-1 0.6-2.5 1-3.5 0.7c-0.6-0.3-1.3-2.5-0.9-3.1c0.5-0.8 2.1-0.8 3.9-1.4c0.3 1.8 0.9 3.6 0.5 3.8zm-204.6 70.6c-0.1 0.4-2.4 0.8-2.6 0.5c-0.8-1.1-1.2-2.4-1.2-3.7c-0.1-0.4 1.8-0.8 3.6-1.5c0.2 2.2 0.5 3.5 0.2 4.7zm-258.2-63.7c-0.8 0-2.2 0.2-2.4-0.2c-0.7-1.2-1-2.7-1.4-4.1c0.9-0.1 2.4-0.6 2.8-0.2c0.8 1 1.2 2.4 1.7 3.7q-0.3 0.4-0.7 0.8zm-158.3-163.9c0.7 0.5 1.1 2.3 0.7 3c-0.3 0.7-2.2 1.2-3 0.8c-0.8-0.4-1.1-1.9-1.9-3.6c2-0.2 3.5-0.7 4.2-0.2zm529.8 202.1c-0.8-0.7-0.8-2.2-1.1-3.4c1.1-0.2 2.4-0.9 3.3-0.5c0.7 0.3 1 1.8 1.9 3.6c-2 0.2-3.6 0.8-4.1 0.3zm-394.6-33.2c-0.9 0-1.9 0.4-2.6 0c-1.5-0.9-2.3-2.5-1.3-4.1c0.3-0.5 2.2-0.8 2.6-0.4c0.9 1 1.3 2.4 1.9 3.6q-0.3 0.5-0.6 0.9zm115.9-26.2c0 0.2-2.4 0.7-2.5 0.4c-0.7-1.1-1.1-2.5-1.2-3.8c0-0.2 1.6-0.6 3.2-1.3c0.3 2.1 0.6 3.4 0.5 4.7zm-89.6-78.5c-0.5 0.7-2.4 1.2-3.1 0.8c-0.7-0.5-1.3-2.3-0.9-3.1c0.3-0.8 1.9-1 3.7-1.7c0.2 1.9 0.8 3.3 0.3 4zm-99.1 214c1.4 0.9 1.8 2.5 0.7 3.8c-0.6 0.6-2.5 0.9-2.7 0.6c-0.8-1-1-2.3-1.8-4.4c2 0 3.1-0.4 3.8 0zm533.1-17.6c-0.3 0.7-1.9 0.6-3 0.9c-0.2-1.2-0.8-2.5-0.5-3.5c0.1-0.7 1.7-0.9 3.5-1.8c0.1 2.1 0.5 3.5 0 4.4zm-311.2-80.5c0.7 0.7 0.7 2.1 1.1 3.2c-1.1 0.3-2.4 1.1-3.3 0.8c-0.7-0.3-0.9-1.9-1.7-3.7c1.9-0.2 3.4-0.8 3.9-0.3zm359.8-28.6c-1.2 0.5-2.6 0.8-3.8 0.6c-0.4 0-1-2.4-0.7-2.6c1.1-0.7 2.4-0.9 4.4-1.5c0.1 1.8 0.4 3.4 0.1 3.5zm-477.9-63.3c-0.3 0.6-2 0.5-3 0.7c-0.3-1.2-0.9-2.4-0.6-3.5c0.1-0.6 1.6-0.9 3.4-1.7c0.2 2.1 0.6 3.5 0.2 4.5zm22.9-5.1c-0.1 0.5-1.8 0.5-2.7 0.7c-0.3-1.3-0.8-2.6-0.7-3.8c0-0.5 1.5-0.8 3.3-1.6c0.1 2.2 0.4 3.6 0.1 4.7zm408.9 201.4c-0.8-0.8-0.8-2.3-1.1-3.5c1-0.2 2.3-0.9 3-0.5c0.8 0.5 1 1.9 1.9 3.6c-1.9 0.2-3.5 0.8-3.8 0.4zm-6.8 191.5c1-0.9 2.7-1.1 4-1.6q0.3 0.5 0.6 1c-1.3 1.7-2.7 3.3-4.1 5.1c-1.7-1.6-1.7-3.3-0.5-4.5zm-296.2-246.4c-0.3 0.6-1.8 0.6-2.7 0.9c-0.4-1.2-1-2.4-0.9-3.5c0.1-0.6 1.7-1 3.6-1.9c0 2.2 0.4 3.5 0 4.5zm-64.4-183.5c0.6 0.5 1 2.5 0.5 2.9c-0.7 0.7-2.3 1.2-3.1 0.8c-0.7-0.2-0.9-1.9-1.6-3.7c2-0.1 3.4-0.5 4.2 0zm291.6 105.1c0.2 1.2 0.8 2.6 0.4 3.5c-0.2 0.6-2.2 0.9-3.1 0.5c-0.6-0.1-0.6-1.8-1-3.4c1.6-0.3 2.7-0.5 3.7-0.6zm-61.9 66.4c-0.6-0.8-0.8-2.3-0.5-3.2c0.2-0.6 2.2-1.1 2.8-0.7c0.7 0.6 0.9 2 1.6 3.8c-1.9 0.1-3.4 0.6-3.9 0.1zm282.3-63.2c-1.1 0.7-2.6 0.8-3.9 1.2c-0.1-1-0.8-2.5-0.4-2.8c1-0.8 2.4-1.1 4.5-2.1c-0.1 1.9 0.2 3.4-0.2 3.7zm-599.6-61.3c-0.5 0.7-2 0.7-3.1 1c-0.3-1.1-0.9-2.4-0.6-3.3c0.2-0.6 1.7-0.9 3.4-1.7c0.2 1.9 0.8 3.4 0.3 4zm213.8-27.1c0.7 0.7 1 2.6 0.5 3.2c-0.7 0.7-2.2 0.6-3.4 0.9c-0.2-1-0.4-2-0.7-3.7c1.6-0.2 3.2-0.8 3.6-0.4zm-211-70.1c-1.2 0-2.6 0.4-3.5-0.1c-0.7-0.3-0.6-1.9-0.9-2.9c1.2-0.2 2.5-0.6 3.7-0.3c0.6 0.2 0.8 1.5 1.3 2.4q-0.3 0.4-0.6 0.9zm-129.4 77.3c-0.9 0-2.5 0.4-2.7 0c-0.7-1.1-0.8-2.5-1.2-3.8c0.9-0.2 2.2-0.8 2.5-0.4c0.9 0.9 1.4 2.2 2 3.3q-0.3 0.5-0.6 0.9zm57-186.8c-0.1 0.9 0.1 2.3-0.4 2.7c-0.9 0.7-2.2 0.8-3.4 1.1c-0.2-0.9-0.8-2.2-0.5-2.5c0.9-0.9 2.2-1.4 3.3-2q0.5 0.3 1 0.7zm74.4 10c-1.2 0.5-2.6 0.7-3.9 0.7c-0.2 0-0.9-2.3-0.5-2.6c0.9-0.7 2.2-0.9 4-1.6c0.2 1.8 0.7 3.4 0.4 3.5zm455.2 289c-0.9 0.7-2.3 0.9-3.5 1.2c-0.2-0.9-1-2.3-0.6-2.7c0.7-0.9 2-1.2 3.9-2.2c0.2 1.9 0.7 3.4 0.2 3.7zm-224.9-23.2c-0.8 0.7-2.3 0.7-3.4 0.9c-0.2-1-0.8-2.4-0.3-3c0.4-0.8 1.9-1 3.7-1.7c0 1.9 0.5 3.5 0 3.8zm-55.5 423.4q-0.1-0.6-0.2-1.2c1.2-0.5 2.4-1.5 3.6-1.4c1.9 0.2 2.8 1.7 2.8 4.1c-2.2-0.5-4.2-1-6.2-1.5zm-143.6-333.4c0.1 1.2 0.5 2.6 0 3.6c-0.2 0.5-1.9 0.4-3 0.5c-0.1-1.1-0.6-2.3-0.3-3.4c0.2-0.6 1.6-0.8 2.4-1.2q0.5 0.2 0.9 0.5zm508.5-15.7c0.6 0.9 0.7 2.2 1 3.3c-1.1 0.3-2.5 1.1-3.3 0.7c-0.6-0.3-0.7-2-1.2-3.8c1.7-0.1 3.2-0.6 3.5-0.2zm-422.9-146.3c-0.9 0.8-2.2 0.9-3.4 1.3c-0.3-0.9-1-2.3-0.7-2.7c0.8-0.9 2.1-1.3 4-2.3c0.1 1.9 0.6 3.4 0.1 3.7zm-85.8-53.5c-0.2 0.4-2.5 0.6-2.7 0.4c-0.5-1.1-0.8-2.5-0.6-3.6c0.1-0.5 1.7-0.6 3.5-1.3c0 2.1 0.3 3.5-0.2 4.5zm128.8 138.3c0.6 0.7 0.6 2.1 0.8 3.2c-1.1 0.2-2.5 0.9-3.2 0.5c-0.7-0.3-0.8-1.9-1.3-3.8c1.8 0 3.3-0.4 3.7 0.1zm375.2 41c-0.7 0.7-2.1 0.7-3.2 1c-0.2-1.1-0.8-2.4-0.4-3.1c0.4-0.7 1.8-0.9 3.5-1.7c0.1 1.9 0.6 3.4 0.1 3.8zm-692.6-138.1c-0.7-1-0.6-2.3-0.8-3.5c0.9-0.2 2.4-0.7 2.7-0.3c0.8 0.9 1 2.2 1.8 4.2c-1.9-0.2-3.4 0.1-3.7-0.4zm160.3-60.1c-1.1 0.5-2.4 0.7-3.6 0.6c-0.3-0.1-0.9-2.3-0.5-2.6c0.8-0.7 2.1-0.9 3.8-1.4c0.2 1.6 0.6 3.2 0.3 3.4zm-31.4-16.6c-0.6-0.3-0.6-1.9-0.8-2.9c1.1-0.2 2.4-0.8 3.4-0.5c0.5 0.1 0.8 1.5 1.6 3.1c-2 0.2-3.3 0.7-4.2 0.3zm247.9 116.6c-0.8-0.2-2.1 0-2.4-0.5c-0.6-0.9-0.7-2.2-1-3.3c0.9-0.1 2.4-0.7 2.7-0.3c0.8 0.8 1 2.2 1.4 3.3q-0.4 0.4-0.7 0.8zm-211.4-76.6c-0.2 0.6-2.2 0.9-2.9 0.5c-0.7-0.4-1.1-2.1-0.8-2.9c0.2-0.7 1.7-0.9 3.3-1.7c0.3 1.9 0.8 3.3 0.4 4.1zm371.5 136.2c-0.5 0.7-1.9 0.6-2.9 0.8c-0.3-1.1-0.9-2.3-0.6-3.2c0.3-0.6 1.8-0.7 3.6-1.3c0 1.8 0.4 3.2-0.1 3.7zm-335.8-195.6c0.4 0.1 0.8 2.2 0.6 2.4c-1.1 0.6-2.3 1-3.5 1c-0.3 0.1-0.7-1.5-1.5-3.3c2.1-0.1 3.4-0.4 4.4-0.1zm267.4 212.1c-1.1 0-2.5 0.4-3-0.1c-0.7-0.7-0.7-2.1-1-3.2c1.1-0.1 2.3-0.6 3.1-0.2c0.7 0.4 1 1.7 1.4 2.7q-0.3 0.4-0.5 0.8zm-290.7-206.7c0.6 0.6 0.6 2 0.8 3c-1.1 0.1-2.4 0.7-3.2 0.3c-0.7-0.3-0.8-1.7-1.6-3.6c2 0.1 3.3-0.2 4 0.3zm25 455.8c1.4-0.3 2.9-1.1 4.1-0.9c1.9 0.5 2.1 2.2 1.5 4.3c-1.9-0.7-3.6-1.5-5.3-2.2q-0.2-0.6-0.3-1.2zm23.3-440c0-1.1-0.5-2.5 0-3.2c0.5-0.6 2-0.6 3-0.9c0.3 1 0.5 2 1 3.7c-1.8 0.2-2.9 0.3-4 0.4zm-147.4-19.1c0.6 0.9 1.1 2.3 1 3.4c-0.1 0.4-2.3 1.2-2.8 0.8c-0.8-0.5-0.9-1.9-1.6-3.6c1.6-0.3 3.2-0.9 3.4-0.6zm391.6 111.7c-0.6 0.7-2 0.6-3 0.9c-0.2-1.1-0.9-2.4-0.6-3.2c0.2-0.7 1.8-0.8 3.6-1.4c0 1.8 0.5 3.1 0 3.7zm-245.5-119.4c0.1 1 0.6 2.5 0.2 2.8c-0.9 0.7-2.3 0.8-3.4 1.1c-0.3-0.9-0.5-1.8-0.9-3.4c1.8-0.2 3-0.4 4.1-0.5zm211.8 200c-0.5-0.2-0.9-2.3-0.5-2.6c0.8-0.6 2.2-1.1 3.2-0.9c0.5 0.1 0.8 1.8 1.5 3.5c-2 0.1-3.2 0.4-4.2 0zm-256.8-287.9c0.3 0 0.7 2.2 0.5 2.3c-1.2 0.6-2.5 0.9-3.8 1.3c-0.3-0.9-0.5-1.7-0.9-3.3c1.7-0.2 3-0.5 4.2-0.3zm118 194.4c0 1 0.3 2.5-0.2 2.7c-1 0.5-2.3 0.6-3.5 0.5c-0.2 0-0.7-2.1-0.4-2.4c0.9-0.7 2.2-1 3.3-1.4q0.4 0.3 0.8 0.6zm-237.1-164.2c-0.1-1.1-0.6-2.4-0.2-3c0.6-0.8 2-0.8 3.1-1.2c0.3 0.9 0.5 1.8 0.9 3.3c-1.7 0.4-2.7 0.6-3.8 0.9zm49.6 110.8c-0.2-1.1-0.8-2.6-0.3-3.1c0.5-0.7 2-0.8 3.1-1.1c0.2 1 0.4 2 0.7 3.6c-1.5 0.2-2.5 0.4-3.5 0.6zm370.3 112c-0.9 0.6-2.2 0.6-3.4 0.8c-0.2-1-0.9-2.5-0.5-3c0.6-0.7 2.1-0.7 4-1.3c-0.1 1.7 0.3 3.1-0.1 3.5zm-424.5-246.1c-0.5-0.2-0.9-2.3-0.6-2.6c0.8-0.6 2.1-1 3.1-0.9c0.5 0.1 0.8 1.6 1.6 3.2c-1.9 0.2-3.1 0.6-4.1 0.3zm274 228.3c0.7 0.9 0.6 2.2 0.9 3.3c-1 0.2-2.4 0.9-2.8 0.5c-0.8-0.6-0.9-2-1.7-3.8c1.8 0 3.3-0.4 3.6 0zm311.3 80.2c-0.2 0.5-1.7 0.6-2.6 0.8c-0.3-1.2-0.8-2.4-0.7-3.6c0-0.3 1.5-0.6 3.1-1.2c0.1 1.8 0.5 3.1 0.2 4zm-430.6-175.7c0.7 0.8 0.8 2.2 1.1 3.3c-1 0.2-2.3 0.9-2.8 0.6c-0.8-0.6-1-2-1.9-3.8c1.9-0.1 3.3-0.5 3.6-0.1zm34.7 44.1c-0.5 0.7-1.9 0.7-2.9 1c-0.2-1.1-0.8-2.2-0.5-3.2c0.2-0.6 1.5-0.9 3.1-1.7c0.2 1.9 0.8 3.2 0.3 3.9zm-176-131.4c-0.3 0.6-1.9 0.5-2.9 0.8c-0.2-1.2-0.6-2.3-0.3-3.4c0.1-0.5 1.4-0.7 2.9-1.5c0.2 1.9 0.7 3.2 0.3 4.1zm372.3 258.1c-0.6-0.5-0.7-1.9-1-2.9c1-0.2 2.2-0.9 3-0.6c0.7 0.3 1 1.7 2 3.4c-2 0.1-3.3 0.6-4 0.1zm-342-218.8c0.4-0.7 1.7-0.7 2.7-1.1c0.3 1.1 1.1 2.3 0.8 3.2c-0.2 0.7-1.8 1-3.6 1.8c0-1.9-0.3-3.2 0.1-3.9zm88.6-41.1c-0.6-0.5-0.8-2.1-0.4-3c0.2-0.5 2-0.9 2.6-0.6c0.8 0.5 1 1.8 1.8 3.5c-2 0.1-3.4 0.6-4 0.1zm532 292.5c0.5 1 0.6 2.3 0.8 3.5c-0.9 0.1-2.3 0.7-2.7 0.4c-0.7-0.8-0.8-2.1-1.4-3.8c1.6-0.1 3.1-0.5 3.3-0.1zm-8-20.1c-0.5-0.2-0.8-2.3-0.3-2.7c0.7-0.6 2.1-0.8 3-0.5c0.6 0.2 0.8 1.6 1.4 3.3c-1.9 0-3.2 0.4-4.1-0.1zm-306.1-77.4c-0.2 0.4-2.2 0.8-2.7 0.4c-0.7-0.6-1.1-2.1-0.8-2.9c0.1-0.6 1.6-0.9 3.2-1.6c0.2 1.9 0.6 3.1 0.3 4.1zm97.7 2.2c-0.8 0.7-2.1 0.7-3.2 1c-0.2-1-0.8-2.2-0.4-2.8c0.4-0.7 1.7-0.9 3.4-1.7c0.1 1.8 0.6 3.2 0.2 3.5zm157.2 58.9c0.8 0.1 2.2-0.1 2.4 0.3c0.6 1 0.7 2.3 0.9 3.5c-0.8 0.1-2 0.6-2.3 0.3c-0.7-0.9-1.1-2.1-1.7-3.2q0.4-0.5 0.7-0.9zm-511.6-223c-0.1 0.5-1.6 0.5-2.5 0.7c-0.2-1.1-0.8-2.2-0.6-3.3c0-0.4 1.4-0.7 2.9-1.5c0.2 1.9 0.5 3.1 0.2 4.1zm168.9 6.4c1.2 0 2.5-0.3 3.6 0.1c0.5 0.2 0.6 1.6 0.9 2.4c-1.2 0.2-2.4 0.7-3.5 0.5c-0.6-0.1-1-1.3-1.5-2q0.3-0.5 0.5-1zm-298 71.4c-0.1 0.4-2.3 0.7-2.4 0.6c-0.5-1.1-0.9-2.3-0.8-3.5c0-0.4 1.4-0.7 3-1.5c0.1 2 0.4 3.3 0.2 4.4zm573.6 161.1c0.5 0.7 0.7 2.1 0.3 3c-0.2 0.5-2.2 0.8-2.6 0.4c-0.6-0.6-0.7-1.9-1.2-3.7c1.7 0.1 3.1-0.2 3.5 0.3zm-274-133.4c0.6 0.4 0.5 1.8 0.7 2.7c-1 0.2-2.2 0.8-3.1 0.5c-0.6-0.3-0.7-1.7-1.4-3.4c1.8 0 3.1-0.3 3.8 0.2zm-193.6-100.4c-0.4 0.6-1.9 0.5-2.9 0.8c-0.2-1.1-0.7-2.3-0.4-3.1c0.2-0.6 1.6-0.8 3.2-1.5c0.1 1.8 0.6 3.1 0.1 3.8zm157.4 160.8c-0.9-0.1-2.2 0.2-2.5-0.3c-0.5-0.9-0.6-2.2-0.9-3.3c0.9-0.2 2.3-0.8 2.5-0.5c0.8 0.9 1.1 2.2 1.5 3.3q-0.3 0.4-0.6 0.8zm179.1 32.3c-0.6 0.6-2 0.5-3 0.7c-0.1-1-0.7-2.2-0.3-3c0.2-0.6 1.7-0.7 3.3-1.2c0 1.6 0.5 3 0 3.5zm-301-33.7c0.5 0.9 0.6 2.2 0.4 3.2c-0.1 0.4-2.1 0.9-2.3 0.5c-0.7-0.7-0.9-1.9-1.7-3.8c1.9 0 3.4-0.3 3.6 0.1zm271.4 12.7c0.5 0.7 0.8 2.1 0.5 2.9c-0.2 0.6-2.2 1-2.7 0.6c-0.7-0.5-0.8-1.9-1.3-3.6c1.7 0 3.1-0.4 3.5 0.1zm59.8-58.3c-0.7 0.5-2.2 0.7-3 0.3c-0.5-0.2-0.9-2.2-0.5-2.6c0.7-0.6 2-0.7 3.7-1.2c-0.1 1.7 0.3 3.1-0.2 3.5zm78.3 128.3c-0.1 0.3-2.3 0.6-2.5 0.2c-0.5-0.9-0.8-2.1-0.6-3.2c0-0.4 1.5-0.6 3.1-1.1c0 1.9 0.3 3.1 0 4.1zm-535.2-319.6c-0.4 0.6-2.4 1-2.8 0.6c-0.7-0.6-0.9-2.1-0.8-3.1c0.1-0.4 1.6-0.6 3.1-1.2c0.3 1.7 1 3.1 0.5 3.7zm36.1-57c-0.6 0.7-2 0.7-3 1c-0.2-1-0.8-2.2-0.4-2.9c0.3-0.7 1.6-0.9 3.2-1.7c0.2 1.8 0.7 3.2 0.2 3.6zm348.3 360.7c-0.4 0.6-1.8 0.7-2.7 1c-0.2-1.1-0.8-2.3-0.6-3.3c0.1-0.5 1.6-0.8 3.3-1.6c0 1.9 0.4 3.2 0 3.9zm194.8 6c-0.7-0.6-1.1-2-0.9-2.9c0.1-0.5 2-1.1 2.6-0.8c0.7 0.4 1 1.7 1.8 3.3c-1.7 0.3-3.1 0.8-3.5 0.4zm-484.3-429.1c-1 0.6-2.2 0.8-3.4 0.8c-0.2 0-0.9-2-0.6-2.3c0.8-0.7 2-1 3.6-1.7c0.2 1.6 0.7 3.1 0.4 3.2zm258.7 281.4c0.1 1 0.7 2.4 0.3 2.8c-0.7 0.6-2 0.9-3 0.8c-0.4-0.1-0.6-1.6-1.1-3c1.7-0.3 2.7-0.4 3.8-0.6zm-271.2-9.8c-0.1 0.3-1.7 0.4-2.5 0.6c-0.3-1.2-0.6-2.4-0.7-3.6c0-0.2 1.4-0.5 2.7-0.9c0.2 1.7 0.6 2.8 0.5 3.9zm51.4-84.6c-0.5-1-0.5-2.2-0.5-3.4c0-0.1 2-0.6 2.2-0.3c0.6 0.9 0.9 2.1 1.6 3.7c-1.7 0-3.2 0.4-3.3 0zm282.4 156.2c-0.4 0.7-1.7 0.7-2.6 1c-0.3-1-0.8-2.1-0.6-3.1c0.1-0.5 1.5-0.7 3-1.4c0.1 1.7 0.6 2.9 0.2 3.5zm-137.7-66.7c-0.3 0.6-1.8 0.6-2.7 0.8c-0.2-1.1-0.7-2.2-0.5-3.1c0.2-0.6 1.4-0.8 2.9-1.6c0.2 1.9 0.7 3.1 0.3 3.9zm-208.9-172.4c-0.8 0.6-2 0.8-3 0.7c-0.3-0.1-0.9-2.1-0.6-2.4c0.8-0.7 2-0.8 3.7-1.5c0 1.6 0.3 2.9-0.1 3.2zm142.2 90c-0.8 0.6-2 0.7-3 1c-0.2-0.8-0.9-2.1-0.5-2.5c0.6-0.8 1.8-1 3.6-1.9c0 1.8 0.3 3-0.1 3.4zm-118.8-95.1c-0.9 0.5-2.2 0.6-3.1 0.3c-0.5-0.1-0.9-2.1-0.6-2.4c0.8-0.6 2-0.6 3.7-1.1c0 1.6 0.3 3 0 3.2zm281.3 274.9c0.1 1 0.6 2.3 0.1 3c-0.3 0.6-1.7 0.7-2.6 0.9c-0.3-0.9-0.8-1.9-0.6-2.7c0.3-0.7 1.4-1.1 2.2-1.7q0.4 0.3 0.9 0.5zm-100.4-120.6c-0.2 0.6-2.2 0.8-2.4 0.6c-0.5-0.9-0.8-2.1-0.7-3.1c0.1-0.3 1.6-0.5 3.1-1c0.1 1.6 0.4 2.8 0 3.5zm-171.5 10.6c0.1-0.3 2-0.8 2.1-0.6c0.5 1 0.9 2.1 1 3.3c0 0.2-1.4 0.6-2.7 1.2c-0.2-1.7-0.5-2.9-0.4-3.9zm414.4 106.1c-0.5-0.4-0.8-2-0.4-2.7c0.3-0.6 1.9-1 2.6-0.7c0.6 0.4 0.7 1.7 1.3 3.3c-1.6 0.1-2.9 0.6-3.5 0.1zm-385.1-206.9c-0.2 0.5-2.1 0.8-2.4 0.5c-0.6-0.7-1-2-0.9-2.9c0.1-0.5 1.6-0.7 3.2-1.4c0.1 1.8 0.5 3 0.1 3.8zm-46.4 10.3c-0.7 0.5-2 0.4-3 0.5c-0.1-0.9-0.7-2.1-0.3-2.8c0.3-0.6 1.6-0.7 3.2-1.3c0.1 1.7 0.6 3.2 0.1 3.6zm30.7-79.1c-0.9 0-2.2 0.3-2.7-0.2c-0.6-0.6-0.5-1.8-0.8-2.8c1-0.1 2.1-0.6 2.8-0.2c0.6 0.3 0.9 1.5 1.3 2.4q-0.3 0.4-0.6 0.8zm436.9 313.5c-0.1 0.9 0.2 2.2-0.2 2.7c-0.6 0.6-1.9 0.5-2.8 0.7c-0.2-0.9-0.7-2.1-0.3-2.8c0.3-0.6 1.6-0.8 2.4-1.2q0.5 0.3 0.9 0.6zm139.7-28.8c-1 0.6-2.2 0.8-3.3 1.1c-0.1-0.8-0.7-2.1-0.3-2.5c0.6-0.7 1.8-0.9 3.4-1.6c0.1 1.6 0.5 2.9 0.2 3zm-746.7 40.3c0.5 1.1 1.4 2.3 1.4 3.4c0 1-1.1 2-1.7 3q-0.4-0.2-0.8-0.4q-0.1-2.9-0.1-5.7q0.6-0.2 1.2-0.3zm474.9-52.9c-0.6 0.7-1.9 0.7-2.9 1c-0.2-1-0.7-2.1-0.4-2.8c0.3-0.7 1.5-1 3.1-1.8c0.2 1.8 0.7 3.1 0.2 3.6zm-166.1-87.5c0.6 0.6 1 2 0.7 2.7c-0.2 0.6-2 1-2.6 0.7c-0.6-0.4-0.7-1.7-1.3-3.3c1.6-0.1 2.9-0.5 3.2-0.1zm-27.7-18.1c0.5 0.6 0.4 1.8 0.6 2.7c-1 0.2-2.1 0.7-2.8 0.4c-0.7-0.4-0.8-1.7-1.5-3.4c1.9 0.1 3.1-0.2 3.7 0.3zm202.1 31c-1-0.1-2.2 0.1-2.9-0.4c-0.6-0.3-0.8-1.5-1.1-2.3c0.9-0.2 2.1-0.8 2.8-0.5c0.8 0.3 1.1 1.5 1.7 2.3q-0.3 0.4-0.5 0.9zm-372.5-233.9c-0.6-0.7-0.6-1.9-0.9-2.9c0.9-0.2 2-0.7 2.6-0.3c0.7 0.4 0.9 1.6 1.6 3.1c-1.7 0.1-3 0.5-3.3 0.1zm-5.8 71.3c-0.1 0.9 0.2 2-0.2 2.5c-0.6 0.7-1.8 0.8-2.7 1.2c-0.1-0.9-0.7-2-0.3-2.7c0.4-0.7 1.5-1 2.4-1.5q0.4 0.2 0.8 0.5zm110.1-45.3c-0.5 0.1-1.9-0.7-1.9-1.1c-0.2-2.1 1.2-2.9 3.3-2.8c0.7 1.8 0.6 3.3-1.4 3.9zm-52.2 84.6c-1-0.1-2.2 0.3-2.8-0.2c-0.6-0.5-0.6-1.8-0.9-2.7c0.9-0.1 1.9-0.6 2.6-0.3c0.7 0.4 1.1 1.5 1.6 2.3q-0.3 0.4-0.5 0.9zm159.4 180c0.1-0.4 2.1-0.5 2.2-0.2c0.4 0.9 0.6 2.1 0.4 3.1c-0.1 0.3-1.5 0.4-2.9 0.8c0-1.7-0.1-2.8 0.3-3.7zm142.5 93.5c-0.6-0.7-0.8-1.9-0.6-2.8c0.1-0.4 1.9-1 2.3-0.7c0.6 0.5 0.8 1.7 1.5 3.2c-1.6 0.2-2.9 0.6-3.2 0.3zm162.3-159.8c0.3 0 0.5 2 0.3 2.1c-0.9 0.5-2 0.8-3.1 0.7c-0.4 0-0.6-1.3-1.3-2.7c1.9-0.1 3-0.3 4.1-0.1zm95.3 99.8c0.6 0.2 1 2.1 0.7 2.3c-0.7 0.6-1.9 1-2.8 0.8c-0.5-0.1-0.7-1.4-1.5-3c1.8-0.1 2.9-0.5 3.6-0.1zm18.1-123.2c-0.1 0-0.4-1.8-0.2-1.9c1-0.4 2.2-0.7 3.3-0.8c0.2 0 0.5 1.2 1 2.6c-1.8 0.1-2.9 0.2-4.1 0.1zm-35.1 154.3c-0.9 0.1-2.1 0.5-2.4 0.1c-0.6-0.7-0.8-1.9-0.7-2.8c0-0.4 1.4-0.6 2.8-1.1c0.1 1.7 0.2 2.8 0.3 3.8zm-188.4-80c-0.4 0.5-2.2 0.8-2.6 0.4c-0.6-0.5-0.8-1.9-0.5-2.7c0.2-0.6 1.5-0.7 3-1.2c0.1 1.7 0.5 2.9 0.1 3.5zm-363.4-92.7c0.6 0.5 0.8 1.9 0.5 2.5c-0.3 0.6-2 1.2-2.2 0.9c-0.7-0.6-0.9-1.7-1.5-3.2c1.6-0.2 2.8-0.6 3.2-0.2zm472 141.5c-0.9 0.1-2.2 0.6-2.6 0.2c-0.6-0.5-1-1.8-0.8-2.7c0.1-0.4 1.5-0.6 2.9-1.1c0.2 1.7 0.3 2.6 0.5 3.6zm-132.1-43.8c-0.3 0.6-1.6 0.6-2.4 0.8c-0.3-1-0.8-2-0.6-2.8c0.2-0.6 1.5-0.8 3-1.6c0.1 1.8 0.5 3 0 3.6zm-323.2 317.1c-0.4-1.4-1.2-2.7-1.1-4c0-0.8 1.4-1.6 2.2-2.3q0.3 0.2 0.6 0.5q-0.4 2.8-0.7 5.6q-0.5 0.1-1 0.2zm-52.2-574.4c-0.3 0.5-1.7 0.4-2.5 0.6c-0.2-1-0.7-2.1-0.5-2.9c0.2-0.5 1.5-0.7 3-1.3c0 1.7 0.4 2.9 0 3.6zm227.5 144.2c-0.4 0.5-1.7 0.4-2.7 0.6c-0.1-1-0.6-2-0.3-2.9c0.1-0.5 1.4-0.7 2.9-1.3c0.1 1.7 0.5 3 0.1 3.6zm-142.3-90.5c-0.4 0.6-1.8 0.4-2.7 0.5c-0.1-0.9-0.6-1.9-0.3-2.6c0.3-0.6 1.4-0.8 2.9-1.5c0.1 1.8 0.6 3.1 0.1 3.6zm563.6 118.1c-1 0.5-2.2 0.6-3.4 0.8c-0.1-0.7-0.4-1.8-0.2-2c0.9-0.6 2.1-0.9 3.8-1.6c-0.1 1.5 0.1 2.7-0.2 2.8zm-587.2-115.5c0.6 0.6 0.6 1.8 0.9 2.7c-0.8 0.2-2 0.7-2.5 0.4c-0.7-0.5-1-1.6-1.9-3.3c1.8 0.1 3-0.2 3.5 0.2zm463.5 216.1c-0.2 0.5-1.6 0.4-2.5 0.6c-0.2-0.9-0.6-2-0.4-2.8c0.1-0.5 1.3-0.7 2.6-1.4c0.2 1.7 0.7 2.8 0.3 3.6zm-501.9-277.8c-0.3 0.5-2.1 0.9-2.4 0.6c-0.5-0.7-0.8-1.9-0.6-2.8c0.1-0.5 1.4-0.7 2.8-1.4c0.2 1.8 0.6 2.9 0.2 3.6zm163.8 182.7c-0.9 0.1-2.1 0.5-2.8 0.2c-0.5-0.3-0.8-1.9-0.5-2.5c0.4-0.5 1.6-0.5 3-0.9c0.1 1.4 0.2 2.3 0.3 3.2zm-21.2 29.4c-0.5-0.7-0.6-1.9-0.4-2.8c0-0.3 1.8-0.8 2.1-0.5c0.7 0.5 0.9 1.6 1.7 3.2c-1.7 0.1-3.1 0.5-3.4 0.1zm317.5 97.1c0.5 0.7 0.5 1.8 0.8 2.7c-0.9 0.1-2 0.5-2.6 0.1c-0.6-0.4-0.7-1.6-1.2-3c1.5 0 2.7-0.2 3 0.2zm-418.3-343c-0.6 0.6-1.8 0.6-2.7 0.8c-0.2-1-0.7-2-0.4-2.8c0.2-0.5 1.5-0.6 3-1.2c0.1 1.6 0.5 2.8 0.1 3.2zm511.6 324.8c-0.7 0.5-1.9 0.4-2.8 0.6c-0.2-0.9-0.6-2-0.3-2.6c0.3-0.6 1.5-0.7 3-1.3c0.1 1.6 0.5 2.9 0.1 3.3zm-444.7-120c-0.4-0.9-0.5-2.1-0.4-3.1c0-0.2 1.8-0.6 2-0.4c0.6 0.8 0.8 1.9 1.4 3.6c-1.5-0.1-2.8 0.2-3-0.1zm-18.2-96.3c0.5 0.5 0.5 1.7 0.7 2.5c-0.9 0.2-2 0.8-2.7 0.5c-0.6-0.3-0.7-1.6-1.2-3.1c1.5 0 2.7-0.3 3.2 0.1zm117.1 98.5c-0.5-0.6-0.5-1.8-0.7-2.7c0.9-0.2 2-0.7 2.6-0.3c0.6 0.3 0.7 1.5 1.4 3c-1.6 0-2.9 0.4-3.3 0zm-251.2-260.5c-0.7 0.5-1.8 0.5-2.8 0.8c-0.1-0.8-0.7-1.9-0.4-2.3c0.6-0.7 1.7-0.9 3.3-1.6c0 1.6 0.3 2.8-0.1 3.1zm-26.6 102.6c-0.3 0.6-1.4 0.7-2.2 0.9c-0.2-1-0.6-2.1-0.4-3c0.1-0.5 1.3-0.8 2.8-1.5c0 1.8 0.2 2.9-0.2 3.6zm163.4 85.5c-0.5-0.5-0.6-1.8-0.3-2.5c0.2-0.5 1.8-0.9 2.2-0.5c0.6 0.5 0.8 1.7 1.4 3.3c-1.7-0.1-2.9 0.2-3.3-0.3zm343.8 215.9c-0.5 0.5-1.9 0.8-2.4 0.4c-0.6-0.4-0.8-1.8-0.5-2.4c0.3-0.6 1.5-0.7 3-1.2c0 1.6 0.3 2.7-0.1 3.2zm-260.6-185.1c-0.9-0.1-2 0.1-2.8-0.4c-0.5-0.3-0.6-1.4-0.8-2.2c0.9-0.1 1.9-0.6 2.6-0.3c0.7 0.2 1 1.3 1.5 2.1q-0.2 0.4-0.5 0.8zm129.4 141.3c-0.1 0.3-1.9 0.7-2.2 0.4c-0.6-0.7-0.9-1.8-0.8-2.7c0-0.3 1.4-0.5 2.8-1c0.1 1.4 0.4 2.5 0.2 3.3zm-368.7-334.9c0.1 0.8 0.5 1.9 0.1 2.3c-0.5 0.7-1.5 0.8-2.4 1.2c-0.3-0.8-0.6-1.6-1.2-3.1c1.6-0.2 2.6-0.3 3.5-0.4zm241.7 314.2c-0.5 0.5-1.9 0.7-2.6 0.3c-0.4-0.3-0.8-1.8-0.5-2.3c0.4-0.6 1.5-0.6 3-1.2c0.1 1.6 0.5 2.8 0.1 3.2zm-163.2-182.6c0 0.2-1.8 0.5-2.3 0.1c-0.6-0.5-1-1.8-0.8-2.4c0.2-0.6 1.5-0.7 3-1.4c0.1 1.7 0.4 2.8 0.1 3.7zm14.6-150.6c-0.9 0.6-2.1 0.8-3.2 1.1c0-0.8-0.3-1.9 0.1-2.3c0.7-0.7 1.8-0.9 3.6-1.6c-0.2 1.5-0.1 2.6-0.5 2.8zm124.6 338.6c-0.4 0.6-1.6 0.6-2.4 0.8c-0.1-0.9-0.6-2-0.2-2.6c0.3-0.7 1.4-0.8 3-1.6c-0.2 1.7 0.1 2.8-0.4 3.4zm-240.2-194.2c1.3 0.5 2.6 0.9 3.6 1.8c0.3 0.2-0.4 1.7-0.8 2.9c-1.5-1.6-2.5-2.6-3.4-3.6q0.3-0.6 0.6-1.1zm36.6-52.5c-0.5-0.6-0.6-1.9-0.4-2.7c0.1-0.4 1.8-0.9 2.1-0.6c0.7 0.5 0.9 1.6 1.7 3.2c-1.7 0.1-3.1 0.5-3.4 0.1zm58.4 32.9c0.6 0.4 0.6 1.7 0.8 2.5c-1 0.2-2 0.6-2.9 0.3c-0.5-0.1-0.6-1.4-1-2.7c1.4-0.1 2.5-0.5 3.1-0.1zm202.4 152.4c-0.6-0.4-0.5-1.6-0.7-2.5c0.9-0.2 1.8-0.6 2.7-0.5c0.4 0 0.6 1.4 1.1 2.7c-1.4 0.2-2.6 0.7-3.1 0.3zm345.5 115.5c0.6 0.4 0.5 1.6 0.6 2.5c-0.9 0.2-1.9 0.6-2.7 0.4c-0.4-0.2-0.5-1.4-1-2.7c1.4-0.2 2.6-0.6 3.1-0.2zm-154.6-38.7c0.4 0.2 0.6 1.8 0.3 2.2c-0.5 0.6-1.6 0.6-2.5 0.9c-0.2-0.8-0.5-1.7-1-3.1c1.5-0.1 2.6-0.4 3.2 0zm-169.6-105.6c-0.4 0.5-1.9 0.8-2.4 0.4c-0.5-0.4-0.9-1.8-0.5-2.5c0.2-0.5 1.5-0.6 3-1.1c0 1.5 0.4 2.7-0.1 3.2zm243 115.8c-0.6-0.5-0.5-1.7-0.7-2.5c0.7-0.2 1.8-0.8 2.2-0.5c0.7 0.5 1.1 1.6 2 3.2c-1.8-0.1-3 0.2-3.5-0.2zm-497.1-377.9c0.4 0.3 0.4 1.5 0.5 2.3c-0.9 0-2 0.4-2.8 0.1c-0.5-0.2-0.7-1.3-1.4-2.9c1.8 0.2 2.9 0 3.7 0.5zm-59.6 63.6c-0.2 0.4-1.9 0.6-2.2 0.3c-0.5-0.6-0.7-1.8-0.5-2.5c0.2-0.5 1.3-0.7 2.8-1.3c0 1.6 0.2 2.7-0.1 3.5zm226.5-77.8c0.4 0.1 0.5 1.2 0.7 1.9c-0.9 0.2-1.9 0.7-2.9 0.7c-0.4 0-0.7-1.2-1.4-2.5c1.7-0.1 2.7-0.4 3.6-0.1zm-151 85.3c-0.5 0.5-1.8 0.6-2.5 0.3c-0.5-0.2-1-1.8-0.7-2.2c0.5-0.6 1.6-0.7 3-1.3c0.2 1.5 0.6 2.8 0.2 3.2zm527.5 296.9c-0.4-0.8-0.5-1.9-0.4-2.8c0.1-0.3 1.7-0.8 1.9-0.5c0.7 0.6 0.9 1.6 1.5 3.1c-1.5 0.1-2.9 0.5-3 0.2zm-69.4 15.8c-0.6-0.6-0.5-1.7-0.7-2.6c0.8-0.2 2-0.7 2.4-0.4c0.6 0.5 0.7 1.6 1.2 3c-1.4 0-2.6 0.4-2.9 0zm-484.4-209.4c0 0.4-1.8 0.7-1.9 0.6c-0.4-0.9-0.7-1.9-0.7-2.8c0-0.4 1.2-0.6 2.4-1.3c0.2 1.6 0.4 2.6 0.2 3.5zm457.6 190.3c-0.6 0.5-1.6 0.6-2.4 0.9c-0.2-0.8-0.7-1.9-0.4-2.4c0.4-0.6 1.5-0.8 2.9-1.6c0 1.6 0.3 2.7-0.1 3.1zm-103.2-25.2c-0.3 0.5-1.5 0.4-2.3 0.6c-0.2-0.9-0.7-1.8-0.4-2.6c0.1-0.5 1.4-0.6 2.7-1.2c0.1 1.5 0.4 2.6 0 3.2zm286.5 79.3c0.5 0.6 0.8 1.7 0.7 2.5c-0.1 0.4-1.7 0.9-2.2 0.6c-0.6-0.3-0.8-1.4-1.5-2.8c1.4-0.2 2.6-0.6 3-0.3zm-537.9-218.6c-0.3 0.4-1.4 0.4-2.2 0.6c-0.1-0.9-0.5-1.9-0.2-2.7c0.2-0.5 1.3-0.6 2.8-1.3c-0.1 1.7 0.1 2.7-0.4 3.4zm515.1 226.3c-0.2 0.4-1.4 0.5-2.1 0.7c-0.3-0.8-0.8-1.8-0.6-2.5c0.1-0.5 1.3-0.8 2.6-1.5c0.1 1.6 0.5 2.6 0.1 3.3zm-438.9-218.2c-0.6 0.5-1.7 0.7-2.5 0.5c-0.4-0.1-0.9-1.7-0.7-1.9c0.7-0.6 1.7-0.9 3.2-1.6c0.1 1.5 0.4 2.7 0 3zm-97-103.3c0.5 0.3 0.7 1.9 0.3 2.2c-0.5 0.6-1.6 0.9-2.4 0.7c-0.4 0-0.5-1.4-0.9-2.8c1.4-0.1 2.4-0.4 3-0.1zm72.6 644.1c-1.6-0.3-3.2-0.6-5.7-1c1.4-1.1 2.3-2.2 2.7-2c1.3 0.4 2.3 1.3 3.5 2q-0.3 0.5-0.5 1zm372.7-400.1c-0.5 0.6-1.5 0.6-2.3 0.9c-0.2-0.8-0.9-1.8-0.6-2.3c0.4-0.6 1.4-0.9 2.9-1.6c0 1.5 0.4 2.6 0 3zm-56.7 86.4c-0.4-0.8-0.6-1.9-0.4-2.8c0-0.3 1.7-0.7 2.1-0.4c0.6 0.4 0.7 1.5 1.2 2.8c-1.4 0.2-2.8 0.6-2.9 0.4zm-437.1-438.5c-0.1 0.3-1.9 0.5-2 0.3c-0.5-0.8-0.8-1.9-0.8-2.8c0-0.2 1.3-0.4 2.6-0.8c0.1 1.4 0.3 2.4 0.2 3.3zm-28.8-18.4c-0.2 0.4-1.9 0.7-2.2 0.4c-0.5-0.6-0.8-1.7-0.6-2.5c0.2-0.5 1.4-0.6 2.7-1.1c0.1 1.5 0.4 2.5 0.1 3.2zm302.4 371.5c-0.2 0.4-1.4 0.5-2.1 0.7c-0.2-0.9-0.6-1.8-0.5-2.6c0.1-0.5 1.2-0.7 2.4-1.4c0.1 1.5 0.5 2.5 0.2 3.3zm-257.7-284c-0.2 0.3-1.8 0.7-2.2 0.4c-0.6-0.5-0.9-1.7-0.8-2.4c0.1-0.4 1.4-0.6 2.7-1.1c0.2 1.4 0.6 2.3 0.3 3.1zm115.5 193.7c-0.2 0.5-1.4 0.4-2.2 0.6c-0.1-0.9-0.4-1.9-0.2-2.7c0.1-0.4 1.2-0.6 2.5-1.1c0 1.5 0.3 2.5-0.1 3.2zm-35.7-164.5c0.1 0.8 0.5 1.8 0.1 2.3c-0.4 0.6-1.6 0.8-2.3 0.7c-0.4-0.1-0.5-1.4-0.9-2.7c1.4-0.1 2.2-0.2 3.1-0.3zm-108.2 74.6c-0.5-0.7-0.6-1.8-0.6-2.7c0-0.3 1.7-0.8 1.9-0.5c0.7 0.6 0.9 1.7 1.7 3.2c-1.6 0-2.8 0.4-3 0zm89.5-44.9c-0.6 0.6-1.7 0.6-2.6 0.8c0-0.8-0.4-1.8-0.1-2.3c0.4-0.7 1.5-0.9 2.9-1.7c-0.1 1.6 0.2 2.8-0.2 3.2zm-95.4-100c-0.7 0.5-1.8 0.6-2.6 0.3c-0.4 0-0.8-1.7-0.5-1.9c0.6-0.6 1.6-0.7 2.9-1.3c0.1 1.4 0.5 2.7 0.2 2.9zm69-18.2c0.2 0.1 0.6 1.7 0.4 1.9c-0.7 0.6-1.7 0.7-2.5 1c-0.3-0.6-0.5-1.3-0.9-2.5c1.3-0.2 2.2-0.5 3-0.4zm-30.3 82.2c-0.2 0.5-1.3 0.7-1.9 1c-0.3-0.9-0.7-1.9-0.7-2.8c0-0.4 1.1-0.7 2.3-1.4c0.2 1.5 0.5 2.5 0.3 3.2zm-38.9 55.5c0.3-0.4 1.5-0.4 2.3-0.6c0.1 0.9 0.4 1.8 0.1 2.6c-0.1 0.5-1.1 0.7-2.3 1.4c-0.1-1.6-0.4-2.7-0.1-3.4zm196.5 102.3c0.5 0.7 0.5 1.7 0.7 2.6c-0.7 0.1-1.7 0.6-2 0.4c-0.6-0.6-0.8-1.6-1.4-2.9c1.4-0.1 2.5-0.4 2.7-0.1zm394.4 134.4c-0.6-0.6-0.6-1.6-0.9-2.4c0.7-0.2 1.7-0.8 2-0.5c0.6 0.5 0.9 1.5 1.5 2.8c-1.3 0.1-2.4 0.4-2.6 0.1zm-112.1-72.7c-0.5 0.5-1.5 0.5-2.3 0.8c-0.2-0.8-0.7-1.8-0.4-2.3c0.3-0.6 1.4-0.6 2.7-1.1c0 1.2 0.3 2.2 0 2.6zm153.2 38.7c-0.5-0.7-0.6-1.7-0.9-2.5c0.7-0.2 1.7-0.8 2-0.6c0.6 0.7 1 1.7 1.8 3.2c-1.5 0-2.6 0.2-2.9-0.1zm-378.2-62.2c-0.3 0.5-1.3 0.5-2 0.8c-0.2-0.9-0.6-1.8-0.5-2.6c0.1-0.4 1.2-0.5 2.4-1c0.1 1.3 0.4 2.3 0.1 2.8zm158.9 62.2c-0.5-0.6-0.6-1.6-0.9-2.4c0.7-0.1 1.7-0.6 2.1-0.3c0.6 0.5 0.9 1.5 1.6 3c-1.5-0.1-2.5 0.1-2.8-0.3zm-278.9-474.8c-0.2 0-0.3-1.2-0.5-1.8c0.9-0.2 1.9-0.6 2.9-0.6c0.3 0 0.6 1.1 1.3 2.2c-1.7 0.1-2.7 0.4-3.7 0.2zm103.7 340.4c0.4 0.3 0.7 1.7 0.4 2.1c-0.5 0.5-1.7 0.8-2.3 0.6c-0.5-0.2-0.6-1.4-1-2.6c1.3-0.1 2.4-0.5 2.9-0.1zm98.4 3.5c0.4 0.3 0.8 1.7 0.5 1.9c-0.5 0.5-1.6 0.9-2.2 0.6c-0.6-0.2-0.7-1.3-1.3-2.6c1.5 0 2.4-0.3 3 0.1zm-295-322.5c-0.1-0.7-0.5-1.8-0.2-2c0.6-0.6 1.6-0.8 2.5-0.9c0.1 0 0.4 1.2 0.9 2.4c-1.4 0.2-2.3 0.3-3.2 0.5zm148.1 209.8c-0.9 0.4-1.9 0.6-2.8 0.6c-0.2 0-0.6-1.6-0.5-1.7c0.8-0.5 1.8-0.8 3.3-1.3c0 1.3 0.2 2.4 0 2.4zm124.7 241.4c-0.4-0.6-0.7-1.6-0.5-2.4c0-0.3 1.5-0.8 1.9-0.5c0.5 0.4 0.7 1.3 1.2 2.5c-1.2 0.2-2.4 0.7-2.6 0.4zm-179-154.9c-0.2 0.4-1.3 0.3-2 0.5c-0.1-0.8-0.6-1.7-0.3-2.4c0.1-0.5 1.2-0.6 2.5-1.1c-0.1 1.4 0.2 2.4-0.2 3zm2.6-99.8c0.5 0.5 0.5 1.5 0.7 2.3c-0.7 0.1-1.6 0.5-2.2 0.3c-0.5-0.3-0.6-1.2-1.2-2.4c1.4-0.1 2.4-0.5 2.7-0.2zm472.7 259.1c0.5 0.6 0.6 1.5 0.8 2.3c-0.7 0.2-1.6 0.7-2 0.5c-0.6-0.4-0.8-1.4-1.5-2.7c1.3-0.1 2.4-0.4 2.7-0.1zm6.1 25.9c-0.1 0.4-1.7 0.7-2 0.4c-0.5-0.5-0.8-1.6-0.7-2.3c0.1-0.4 1.3-0.5 2.4-0.9c0.2 1.2 0.5 2.1 0.3 2.8zm-587.1-332.3c-0.8 0-1.8 0.3-2.4-0.1c-0.4-0.2-0.7-1.7-0.4-1.9c0.5-0.5 1.5-0.5 2.7-0.8c0.1 1.2 0.1 2 0.1 2.8zm100.5 121.4c0.5 0.2 0.5 1.3 0.7 2c-0.8 0.2-1.7 0.6-2.4 0.4c-0.5-0.1-0.7-1.2-1.3-2.4c1.4 0 2.4-0.4 3 0zm157 159.6c0.4 0.6 0.6 1.7 0.3 2.4c-0.2 0.4-1.7 0.7-2 0.4c-0.5-0.5-0.5-1.4-0.9-2.6c1.2-0.1 2.4-0.5 2.6-0.2zm210.2-44.3c-0.1 0.4-1.5 0.6-2 0.3c-0.5-0.2-1-1.5-0.8-1.9c0.4-0.5 1.3-0.7 2.5-1.3c0.2 1.4 0.6 2.3 0.3 2.9zm-491.6-233.8c0.4 0.2 0.3 1.3 0.5 2.1c-0.8 0.1-1.7 0.4-2.4 0.2c-0.4-0.2-0.6-1.2-1.1-2.4c1.4 0 2.4-0.3 3 0.1zm327.6 270.5c-0.6-0.4-0.7-1.3-1.1-2.1c0.8-0.1 1.7-0.7 2.3-0.4c0.6 0.3 0.8 1.3 1.5 2.6c-1.3 0-2.3 0.3-2.7-0.1zm-254.1-260.2c-0.4-0.2-0.7-1.7-0.4-2c0.5-0.5 1.6-0.7 2.2-0.6c0.4 0.2 0.6 1.3 1.1 2.4c-1.3 0.2-2.3 0.5-2.9 0.2zm225.5 242.8c-0.5-0.2-0.8-1.6-0.6-1.9c0.5-0.5 1.7-1 2.2-0.8c0.5 0.3 0.7 1.4 1.2 2.7c-1.3 0-2.2 0.3-2.8 0zm258.1 64c-0.4-0.6-0.6-1.6-0.4-2.3c0-0.3 1.6-0.7 1.9-0.5c0.5 0.5 0.6 1.5 1.1 2.7c-1.3 0.1-2.4 0.4-2.6 0.1zm-97.1-5.5c0.4 0.5 0.6 1.6 0.4 2.2c-0.2 0.4-1.6 0.8-2 0.5c-0.5-0.4-0.6-1.4-1-2.6c1.2-0.1 2.3-0.4 2.6-0.1zm-298.5-250.3c-0.2 0.8-0.2 1.7-0.6 2.1c-0.6 0.5-1.6 0.6-2.3 0.5c-0.3 0-0.8-1.5-0.7-1.6c0.6-0.5 1.4-0.7 2.1-1.1q0.8 0.1 1.5 0.1zm-268.9 229.7c1.6 1 2.8 1.8 4.1 2.6c0.5-2.9-0.6-3.7-4.1-2.6zm480.3-31.4c-0.5-0.2-0.3-1.3-0.5-2c0.8-0.1 1.8-0.5 2.4-0.2c0.4 0.2 0.5 1.3 0.9 2.5c-1.3-0.1-2.3 0.1-2.8-0.3zm57.7 36.4c-0.4-0.6-0.4-1.5-0.5-2.3c0.6-0.1 1.6-0.5 1.8-0.3c0.5 0.6 0.6 1.6 1.1 2.8c-1.2 0-2.1 0.1-2.4-0.2zm-406.2-396.6c-0.5-0.6-0.5-1.5-0.7-2.3c0.7-0.1 1.7-0.6 2.1-0.3c0.6 0.4 0.7 1.4 1.3 2.6c-1.4 0-2.4 0.3-2.7 0zm459.4 408.8c-0.6 0.4-1.5 0.5-2.3 0.4c-0.1 0-0.5-1.6-0.3-1.8c0.6-0.5 1.5-0.6 2.7-1c0 1.2 0.2 2.2-0.1 2.4zm-508.9-300.4c-0.5-0.6-0.7-1.6-0.6-2.4c0-0.2 1.5-0.7 1.9-0.5c0.5 0.5 0.7 1.4 1.2 2.7c-1.2 0.1-2.3 0.5-2.5 0.2zm395.3 226.3c0.3 0.1 0.4 1.5 0.1 1.7c-0.5 0.5-1.5 0.7-2.2 0.6c-0.3-0.1-0.4-1.3-0.7-2.5c1.3 0 2.2-0.1 2.8 0.2zm-287-298.3c-0.3 0.5-1.4 0.4-2.1 0.6c-0.1-0.8-0.4-1.7-0.1-2.3c0.2-0.6 1.2-0.8 2.3-1.4c0 1.5 0.2 2.5-0.1 3.1zm-26.5 102.2c-0.1 0.4-1.2 0.4-1.8 0.6c-0.2-0.7-0.7-1.5-0.5-2.1c0.2-0.5 1.1-0.8 2.3-1.6c0 1.5 0.3 2.4 0 3.1zm82.9 152.2c-0.4 0.5-1.3 0.6-2 0.9c-0.1-0.8-0.6-1.7-0.4-2.3c0.2-0.5 1.2-0.7 2.4-1.3c0 1.3 0.3 2.2 0 2.7zm178 31.5c0.4 0.2 0.7 1.4 0.4 1.7c-0.3 0.5-1.4 1-1.8 0.7c-0.5-0.2-0.7-1.2-1.2-2.3c1.2-0.1 2.1-0.4 2.6-0.1zm-346.6-239.3c0.4 0.4 0.5 1.6 0.2 2.1c-0.2 0.4-1.5 0.6-1.9 0.4c-0.5-0.3-0.5-1.3-0.9-2.4c1.2-0.1 2.2-0.4 2.6-0.1zm543.3 246c-0.6 0.4-1.5 0.4-2.3 0.5c-0.1-0.6-0.5-1.5-0.3-1.8c0.5-0.6 1.4-0.7 2.7-1.3c0 1.3 0.2 2.3-0.1 2.6zm67.4 80.7c0.4 0.6 0.5 1.6 0.5 2.4c0 0.2-1.5 0.6-1.8 0.4c-0.6-0.5-0.7-1.4-1.3-2.7c1.3-0.1 2.4-0.4 2.6-0.1zm49.2-106.8c-0.7 0.5-1.6 0.5-2.5 0.8c-0.1-0.7-0.5-1.6-0.3-1.9c0.6-0.5 1.5-0.7 2.7-1.2c0.1 1.2 0.4 2.2 0.1 2.3zm-618.4-352.7q1.4 0.4 2.9 0.9c-0.3 0.9-0.6 1.7-1.1 3.3c-1.1-1.6-1.7-2.4-2.2-3.2q0.2-0.5 0.4-1zm258.8 382.3c0.4 0.3 0.6 1.5 0.3 2c-0.3 0.5-1.5 0.9-1.9 0.6c-0.4-0.3-0.5-1.3-0.9-2.4c1.2-0.1 2.1-0.5 2.5-0.2zm-144.8-209c-0.2 0.3-1.6 0.4-1.8 0.1c-0.4-0.5-0.6-1.5-0.4-2.1c0.3-0.4 1.3-0.5 2.5-1c-0.1 1.4 0 2.3-0.3 3zm-49.1-111.2c-0.4 0.5-1.4 0.4-2.1 0.6c-0.1-0.8-0.5-1.7-0.2-2.3c0.2-0.4 1.2-0.5 2.4-1c0 1.3 0.2 2.3-0.1 2.7zm94 198.6c0 0.3-1.4 0.8-1.6 0.6c-0.5-0.6-1-1.4-1-2.2c0-0.3 1.1-0.7 2.2-1.2c0.3 1.2 0.6 2.1 0.4 2.8zm-135.3-164.5c-0.7 0-1.7 0.2-2-0.1c-0.4-0.4-0.5-1.6-0.2-2c0.4-0.4 1.5-0.6 2-0.4c0.7 0.3 1 1.2 1.5 1.8q-0.7 0.3-1.3 0.7zm59.3 157.1c0 0.2-1.1 0.2-1.8 0.3c0-0.8-0.3-1.7-0.1-2.4c0.1-0.4 1-0.5 1.9-0.9c0 1.3 0.2 2.2 0 3zm423.8 149.4c-0.5 0.4-1.4 0.3-2.1 0.5c-0.2-0.6-0.5-1.6-0.3-1.8c0.6-0.5 1.5-0.6 2.9-1.2c-0.2 1.3-0.1 2.2-0.5 2.5zm-411-420.8c-0.5 0.3-1.4 0.5-2 0.2c-0.3-0.1-0.7-1.4-0.4-1.6c0.5-0.5 1.3-0.6 2.4-0.9c0 1.1 0.3 2.1 0 2.3zm514.6 443.8c0.4 0.3 0.4 1.3 0.6 2c-0.7 0.1-1.5 0.5-2.1 0.3c-0.4-0.1-0.6-1-1.1-2.1c1.2-0.1 2.2-0.5 2.6-0.2zm-488.8-329.5c0.4 0.2 0.4 1.2 0.5 1.8c-0.7 0.1-1.5 0.4-2.2 0.2c-0.4-0.2-0.5-1.1-1.1-2.2c1.4 0 2.3-0.2 2.8 0.2zm-181 64.2c0.4 0.6 0.5 1.5 0.4 2.2c0 0.2-1.4 0.6-1.7 0.3c-0.4-0.4-0.6-1.2-1-2.4c1.1-0.1 2.1-0.4 2.3-0.1zm107.9-169.7c0.1 0.7 0.5 1.5 0.3 2.1c-0.2 0.4-1.4 0.9-1.7 0.7c-0.5-0.4-0.7-1.2-1.3-2.3c1.2-0.2 2-0.3 2.7-0.5zm113 293.6c-0.4-0.6-0.6-1.5-0.5-2.2c0.1-0.2 1.6-0.6 1.7-0.4c0.4 0.7 0.6 1.5 1.1 2.8c-1.2-0.1-2.1 0.1-2.3-0.2zm-119.5-314.5q1-1.1 2-2.2q0.5 1 1 1.9q-1.1 0.6-2.3 1.2q-0.3-0.4-0.7-0.9zm-7.9 172.2c-0.3 0.4-1.4 0.4-2 0.2c-0.3-0.2-0.6-1.4-0.3-1.8c0.3-0.5 1.2-0.6 2.4-1.1c0 1.3 0.3 2.2-0.1 2.7zm135.4 165.4c-0.4 0.5-1.5 0.6-2.1 0.3c-0.4-0.1-0.8-1.4-0.6-1.7c0.4-0.5 1.3-0.7 2.4-1.2c0.2 1.3 0.6 2.3 0.3 2.6zm-132.5-263.1c-0.1 0.3-1.2 0.2-1.8 0.3c-0.1-0.8-0.4-1.6-0.3-2.4c0.1-0.3 1.1-0.4 2.3-0.8c-0.1 1.3 0.1 2.2-0.2 2.9zm540.2 340.8c0.3 0.1 0.5 1.6 0.3 1.8c-0.6 0.4-1.5 0.6-2.2 0.5c-0.3 0-0.4-1.1-0.8-2.1c1.2-0.1 2-0.4 2.7-0.2z" /></svg>