<svg version="1.2" xmlns="http://www.w3.org/2000/svg" viewBox="0 0 1475 1195" width="1475" height="1195"><style>.s0{fill:#303030}</style><path class="s0" d="m171.5 783.5c2-1.9 6.1-2.1 7.8-0.4c1.7 1.8 1.3 8.8-1.1 10c-1.6 0.8-3.9 0.1-4.9 0.1c-3.7-4-4-7.5-1.8-9.7zm35.2 10.1c-1.9-2.3-1.5-6.3 0.7-8.3c2.4-2.2 6.3-2.1 8.3 0.2c2 2.2 1.5 5.3-1.2 7.7c-2.6 2.3-5.9 2.5-7.8 0.4zm2-35.5c-2.3-2.5-2.1-5.2 0.4-7.3c2.6-2.3 6.2-2.3 8.2 0c1.9 2.1 1.6 5.3-0.9 7.4c-2.5 2.3-5.6 2.2-7.7-0.1zm33.4 28c2.2-1.8 5.4-1.5 7.5 1c1.9 2.2 2.6 4.7 0.3 7.1c-2.2 2.3-6.1 2.2-8.2-0.2c-2.1-2.3-1.9-5.9 0.4-7.9zm-166.5-180.1c1.9-2 5.5-2 7.5 0c2.3 2.1 2.4 5.8 0.3 7.9c-2.1 2.1-5.7 1.9-7.9-0.3c-2-2.1-2-5.5 0.1-7.6zm-25-28.4c-2.5 2.4-5.9 2.3-8.1-0.3c-2.2-2.4-1.9-4.8 0.4-6.9c2.5-2.3 6.1-2.2 8.3 0.1c1.9 2.1 1.7 5-0.6 7.1zm-36.3-1c-2.6 2.4-4.9 0.9-6.9-1c-2.6-2.4-2.8-5.3-0.6-7.2c2.2-2.1 6-2.2 7.9-0.2c1.9 2 1.7 6.3-0.4 8.4zm166.4 180.6c-2.3 2.3-4.4 1.2-6.3-0.5c-2.8-2.5-3.4-5.9-1.4-8c2-1.9 5.6-2 7.6-0.1c2.2 2 2.3 6.3 0.1 8.6zm43.4-172.5c-2.4 2.2-6 2.1-7.8-0.2c-2-2.3-2.1-4.8 0.3-7c2.6-2.4 6-2.3 8.6 0.7c1.5 2 1.2 4.4-1.1 6.5zm-182.7 20.3c2.2-1.9 6-1.9 8 0.3c2.1 2.3 1.6 4.5-0.5 6.6c-2.5 2.4-5.9 2.6-7.8 0.6c-2-2-1.8-5.6 0.3-7.5zm215.4 16.3c-2.5 1.9-5.2 1.6-7.6-0.5c-2.2-1.9-1.9-5.9 0.4-7.8c2.4-2 4.9-1.8 6.7 0c2.6 2.9 2.8 6.6 0.5 8.3zm88.4 169.4c2.1-1.9 5.7-2 7.3-0.1c1.7 1.9 1.3 7.9-1.1 9.1c-1.5 0.8-3.7 0.2-4.7 0.2c-3.3-3.6-3.6-7.3-1.5-9.2zm-121.6-380c-2-2.5-1.6-4.9 0.8-6.9c2.3-2 5.5-1.7 7.4 0.7c2 2.4 1.9 4.8-0.1 6.8c-2.6 2.2-6.1 1.9-8.1-0.6zm-43.3 164.8c2.2-1.9 6.3-1.9 8.1 0c1.8 1.8 1.5 6.2-0.7 8c-2.8 2.2-5 0.7-6.7-1c-2.6-2.8-2.7-5.2-0.7-7zm70.6 10.5c-2-2.2-1.8-5.4 0.6-7.5c2.5-2.1 4.9-1.9 7 0.5c2.1 2.3 2.1 5.7 0 7.6c-2.1 1.8-5.6 1.6-7.6-0.6zm-245.3 17.5c2-2 5.9-2.5 7.6-0.8c1.8 1.7 1.1 6.3-1.2 8.7c-2.3 2.4-4.3 1.3-6.2-0.3c-2.2-2.3-2.3-5.5-0.2-7.6zm238.5 156.3c-2.5-2.1-2.7-4.4-0.6-6.9c2.1-2.4 5.2-2.7 7.4-0.8c2.2 1.9 2.5 5.2 0.7 7.2c-1.9 2.2-5.3 2.4-7.5 0.5zm146.5-175.2c2.3-2.4 5.1-2.4 7.3 0c2.2 2.3 2 4.7-0.2 7c-2.2 2.2-5.5 2.2-7.5 0.1c-1.9-2-1.8-5 0.4-7.1zm-245.8 198.5c2 2.1 2.1 5.8 0.1 7.6c-2.1 1.8-6.7 1.6-8.5-0.6c-2-2.6-0.3-4.5 1.1-6.1c2.9-2.7 5.4-2.9 7.3-0.9zm-73.7-65.1c-1.9-2-1.6-5.9 0.7-7.9c2.1-1.9 4.3-1.9 6.3 0.2c2.2 2.3 2.3 5.9 0.2 7.9c-2 1.9-5.3 1.8-7.2-0.2zm-62-3.1c-2.6 2.4-5 1.1-6.9-1c-1.8-2-3.3-4.5-1-7.1c1.7-2 5.6-1.4 7.9 1c2 2.2 2.1 5.3 0 7.1zm104.5 4.5c-2.1 2-5.2 1.9-7-0.4c-2-2.4-2.1-6.4-0.1-7.9c2.6-1.9 5-1.2 7.1 0.7c2.1 2.4 2 5.7 0 7.6zm-32.4-70.5c-2.4 2-4.7 1.2-6.7-0.7c-2.2-2.2-2.2-6 0.1-7.9c2.2-1.9 4.5-1.7 6.3-0.1c2.5 2.8 2.5 6.8 0.3 8.7zm272.8-66.3c2-1.8 6.4-1.6 8.1 0.2c1.9 1.9 1.5 5.4-0.9 7.4c-2.6 2.3-4.9 0.9-7.1-0.9c-1.3-2.2-2.6-4.5-0.1-6.7zm-269.3-3.2c-2.2 1.8-5.5 1.3-7.5-1c-2-2.5-1.3-4.8 0.7-6.8c2-2 5.3-1.8 7.1 0.2c2 2.3 1.8 5.8-0.3 7.6zm313.2-161.1c-2.2-2.3-2.2-5.4 0.1-7.4c2.4-2.3 4.9-1.9 7 0.4c2.2 2.3 2.2 4.7 0 7.2c-2.4 1.9-4.7 2.1-7.1-0.2zm43.1-206.8c-2.4-1.9-2.1-6.3 0.3-8.2c2.2-1.7 4.5-1.6 6.4 0.4c2.1 2.1 1.6 6.1-1.8 9.2c-1.2-0.3-3.5-0.3-4.9-1.4zm-289.7 433.3c1.8 2.2 1.8 4.7-0.4 6.8c-2.2 2.1-6.3 2.3-8 0.5c-2.8-2.9-0.1-4.8 1.2-6.7c2.6-2.6 5.4-2.8 7.2-0.6zm19.7 174.2c2-2 5.9-2.1 7.5-0.1c1.6 1.9 1.1 6.1-1.1 8c-2.3 2.1-4.3 1-5.8-0.4c-2.5-2.7-2.6-5.6-0.6-7.5zm15.8-209c1.5 1.5 0.6 6.4-1.6 8.4c-2.1 1.9-4.2 1.5-6-0.3c-2.2-2.1-2.2-5.6-0.1-7.5c2-1.9 6.2-2.2 7.7-0.6zm385.1-184.4c-2.3-1.5-2.3-6.2-0.3-7.9c2.3-2.1 4.7-1.6 6.8 0.4c2.2 2.2 2.1 5.4-1.2 8.5c-1.2-0.2-3.6 0-5.3-1zm-305.8-47.2c-2.2 1.7-4.3 1.1-6.1-0.7c-2.2-2.1-2-6.7 0.6-8.1c1.6-0.9 3.9-0.6 5.1-0.7c2.8 3.2 2.5 7.7 0.4 9.5zm-114.1 230.7c2 1.8 2 6.1 0.1 8c-1.8 1.9-5.7 2.1-7.5 0.2c-2.7-2.9-0.6-5.1 0.8-7c2.2-2.1 4.2-3.3 6.6-1.2zm70.5 9.8c-2.4 2.3-5.9 2.3-7.7 0c-1.9-2.3-1.7-4.6 0.5-6.7c2.2-2.2 5.7-2 8.1 0.8c1.5 1.8 1.1 3.9-0.9 5.9zm-70.4-175.1c-1.9-1.1-0.7-6 1.9-8c1.8-1.5 3.7-2.1 5.6 0c1.9 2.1 1.6 6.3-0.8 9.4c-2.3-0.4-4.8-0.3-6.7-1.4zm209.5-33.9c2.1-2.6 6.4-2.6 8.2-0.4c1.9 2.5 1.1 4.8-0.9 6.7c-2.3 2.1-5.9 1.8-8.8-1.5c0.3-1.2 0.4-3.4 1.5-4.8zm-26.9-1.7c1.8 2 1.4 6.4-0.7 8c-2.5 1.9-5.1 1.2-7-0.9c-2.3-2.5-0.9-4.9 1-7c2.2-1.4 4.5-2.5 6.7-0.1zm-93.9 412.9c2.1-1.9 4.4-1.8 6.4 0.1c2.2 2.1 2.4 6.2 0.6 8c-1.8 1.7-5.3 1.5-7.1-0.6c-1.9-2-1.9-5.7 0.1-7.5zm14.1-165.3c-2.3 2-4.7 1.5-6.7-0.6c-2.1-2-2.4-6-0.1-7.4c1.7-1.1 4.1-0.9 5.4-1.1c3 3.1 3.3 7.4 1.4 9.1zm151.9-445.7c-2.2-2.3-2.3-6.3 0-8.2c2.3-1.9 4.5-1.3 6.4 0.6c2.2 2.3 2.1 5.7-0.4 8.1c-1.9 1.5-4 1.6-6-0.5zm-217 338.2c-2.7 2.2-5.3 0.8-7.4-1.4c-1.6-1.8-2.9-4-0.4-6.2c2-1.9 5.9-1.5 8.2 1.1c1.3 2 1.9 4.5-0.4 6.5zm135.6 68.3c2.1 2.1 2 5.8 0.1 7.6c-1.9 1.8-6.2 1.9-7.7 0c-2-2.7-0.4-5 1.3-7c2.1-1.7 4.1-2.9 6.3-0.6zm-137.7-207.8c-2.1-2.2-1.7-4.4 0.3-6.3c2.2-2.1 6.5-2.3 8.1-0.3c2 2.5 0.8 4.7-0.7 6.4c-2.6 2.5-5.7 2.4-7.7 0.2zm44.6-32.2c-2.3 2-4.7 1.8-6.7-0.4c-2.3-2.4-1.9-4.9 0.3-7.1c2.1-2.1 4.5-2.1 6.6-0.1c2.1 2.2 2 5.8-0.2 7.6zm-126.6 369.9c2.3-2 4.8-2 6.9 0.4c2.1 2.4 1.9 5-0.2 7.1c-2.4 2.3-4.8 1.6-6.8-0.4c-2.3-2.5-2.4-4.9 0.1-7.1zm230.5-372.7c1.7 2.4 1.7 5-0.4 7.2c-1.8 2-5.1 1.6-7.1-0.5c-2-2.1-1.8-5.2 0.3-7.1c1.9-1.7 5.7-1.6 7.2 0.4zm-248 101.5c-2.3 1.7-4.6 1.1-6.3-1c-1.9-2.2-2.3-4.9 0.1-7.1c2.1-2 4.5-2 6.5 0c2.1 2.2 1.9 6.5-0.3 8.1zm244.7-32.2c2.3 1.6 1.9 5.9-0.2 7.8c-1.9 1.9-5.5 1.9-7.1 0c-1.6-1.8-0.9-5.7 2.5-8.8c1.1 0.2 3.4 0 4.8 1zm-328.7 202.2c-1.8-2.3-1.4-4.7 0.6-6.7c2.1-2.1 6.4-2.4 7.4-0.1c0.9 1.9 0.4 4.4 0.5 6.7c-3.2 1.9-6.9 2.1-8.5 0.1zm334 318.9c1.8-0.9 4.6-0.9 6.4-0.1c2 1 1.9 7.5-0.1 8.7c-1.4 0.8-3.6 0.2-4.4 0.3c-3.3-3.5-4-7.8-1.9-8.9zm177.4-722.5c1.8 1.9 1.6 5.7-0.4 7.7c-2 1.9-5.5 2-7.2-0.1c-2.2-2.6-1-4.9 0.6-6.9c2.4-2.3 5.3-2.5 7-0.7zm-103.8 3.6c-2.4 2-4.8 1.3-6.6-0.8c-1.9-2.2-2.4-4.9 0-7.1c2.3-2 4.6-1.7 6.3 0c2.5 2.8 2.5 6.2 0.3 7.9zm-153 306.6c-2.3 1.8-4.6 1.3-6.4-0.7c-2.1-2.1-1.8-5.8 0.6-7.8c2-1.7 4-2 5.9 0.2c2.1 2.4 2.1 6.6-0.1 8.3zm88.8 211.2c-1.8-2.1-3.2-4.5-0.9-7.1c1.8-1.9 6-1.6 7.7 0.3c1.6 1.9 1.3 5.9-1 8.2c-1.9 1.4-4.1 0.6-5.8-1.4zm161.9-548.6c-2-1.7-1.6-5.2 0.7-7.1c2.3-1.8 5-2.5 7.1-0.1c2.1 2.3 1.5 4.9-0.4 7.2c-2.5 1.8-5 2-7.4 0zm-358.6 264.5c-1.9-0.7-0.9-6 1.4-8.2c1.9-1.8 3.9-1.9 5.9 0.1c2.1 2.1 2.1 5.5 0 8.6c-2.5-0.1-5.1 0.3-7.3-0.5zm-65.6-80.7c2.1-1.9 4.5-2.3 6.7-0.1c2 2 2 5.9 0 7.6c-2.3 1.9-4.6 1.5-6.8-0.5c-1.9-2.3-2.2-4.8 0.1-7zm-41.2 310.9c2.1 2.2 2 4.7 0.1 6.9c-2.1 2.4-4.6 2.3-7 0.3c-2.2-1.9-2.4-4.3-0.8-6.4c2.2-2.4 5.8-2.7 7.7-0.8zm35.3-25.9c-1.6 0.8-4.4 0.6-6-0.3c-2.4-1.5-2.5-6.1-0.2-7.7c1.6-1 4.1-0.9 5.4-1.2c3 3.2 3.2 8 0.8 9.2zm501-466.2c-2.3-1.9-2.1-7.2 0.2-8.2c1.7-0.6 4.4-0.2 6 0.8c2.4 1.8 2 5.8-1.4 8.7c-1.1-0.3-3.4-0.2-4.8-1.3zm-293.3 327.9c1.8-1.8 5.7-1.3 7.4 1c1.9 2.4 1.5 4.8-0.5 6.7c-2.3 2.2-4.6 1.3-6.7-0.5c-1.4-2.4-2.6-4.8-0.2-7.2zm-152.3 279.8c-2.2-2.5-0.1-4.2 1.5-5.7c2.3-2.4 6.3-2.8 7.7-0.5c1 1.5 0.8 3.8 1 5c-3.4 3.2-8.2 3.3-10.2 1.2zm-31-36.5c-2-2.3-1.9-5.2 0.4-7c2.3-1.7 4.6-2 6.7 0.4c2 2.2 1.7 5.6-0.4 7.5c-2 1.7-4.7 1.3-6.7-0.9zm-18.4-251.8c2.3 1.8 2.2 7-0.2 8.1c-1.6 0.8-4.4 0.5-5.9-0.5c-2.5-1.6-2.1-5.7 1.1-8.7c1.2 0.3 3.5 0.1 5 1.1zm344.8 91.7c-2.5 2-5 1.4-7.1-0.7c-2-2-1.7-5.3 0.5-7.1c2.2-1.7 4.4-1.7 5.8-0.3c2.7 3 2.9 6.6 0.8 8.1zm-283.8 120.5c2 1.9 2 5.6 0.2 7.3c-2 1.7-5.4 1.3-7.5-1.1c-1.9-2.2-1.9-4.3 0.2-6.4c2.4-1.8 4.9-2 7.1 0.2zm118.9-335.5c-2.4 1.8-4.8 1.2-6.7-0.9c-2.2-2.3-1.9-4.9 0.3-7c2.1-2 4.4-2.3 6-0.7c2.6 3 2.6 7 0.4 8.6zm242.9 2.1c1.7 1.8 1.4 6-0.4 7.7c-1.9 1.8-5.4 1.5-7.2-0.7c-2-2.4-1.1-4.6 0.8-6.8c2.2-1.5 4.5-2.6 6.8-0.2zm-127.3 384.3c-1.9-2.5-1.2-4.8 0.8-6.8c2.1-2 4.5-2.4 6.8-0.3c2 1.9 1.8 5.1-0.4 7.1c-2.2 2.1-5.4 2.1-7.2 0zm-205.9-85.7c2.6-2.1 5.4-0.9 7.5 1.2c2.2 2.1 2 4.7-0.1 6.7c-2.3 2.1-4.6 1.1-6.9-1.1c-1.3-2-3.3-4.4-0.5-6.8zm-14-312.8c2 1.2 1.5 6.5-0.4 7.9c-2.4 1.8-4.9 1.3-7-0.6c-1.9-1.8-1.4-4.9 2.1-8c1.1 0.1 3.6-0.3 5.3 0.7zm-116.4 134.9c2.2-2 4.8-2.4 7.2-0.2c1.9 1.8 1.7 5.2-0.5 7.1c-2.5 2.2-4.9 1.5-7.1-0.5c-1.7-2.3-1.7-4.5 0.4-6.4zm318.6-161.2c2.1-2 5.1-2.2 7.6-0.1c1.9 1.6 1.8 5.6-0.2 7.1c-2.8 2-5.2 0.9-8.4-2.2c0.2-1.2-0.2-3.8 1-4.8zm-145.2 168.6c2-2.1 4.4-3.3 6.9-1c2.3 2.2 2.4 4.8 0.4 7.1c-2 2.4-4.5 2.5-7.2 0.3c-1.9-1.9-2.2-4.2-0.1-6.4zm-109.9 133.6c2.4-2.2 5-1.6 7 0.6c2.1 2.4 1.9 5-0.4 7.1c-2.3 1.9-4.6 1.5-6.8-0.7c-1.5-2.3-2.2-4.9 0.2-7zm184.9-89.6c-2.3 2.2-4.6 1.7-6.6-0.5c-2.1-2.2-2.3-4.6 0-6.7c2.1-2.1 4.5-2 6.8 0c1.8 2.5 2.1 5-0.2 7.2zm-29.2-147.4c2.1 1.4 1.9 5.8 0.1 7.6c-1.8 1.8-5.3 1.4-7.1-0.9c-1.8-2.3-1.4-4.6 1.5-7.7c1.4 0.2 3.8-0.1 5.5 1zm135.5-56.7c-2.3-1.5-1.8-5.3 0.5-7.3c2.1-1.9 4.3-1.9 6.3 0.2c2 2.2 1.7 5.6-1.5 8.5c-1.3-0.3-3.7-0.2-5.3-1.4zm-278.7 162.5c-2.1 2.1-4.4 1.6-6.3-0.4c-2-2.2-2.9-4.7-0.7-7.2c1.7-1.9 5.2-1.6 7.3 0.6c1.7 2.3 1.9 4.8-0.3 7zm561-289.7c-2.2-2.4-1.1-5 1.1-6.9c1.9-1.8 4.2-2.3 6.3-0.2c1.8 1.9 1.4 5.8-1 7.9c-2 1.4-4.5 1.3-6.4-0.8zm-540 429.9c-1.5-2.6-0.6-5.1 1.5-6.8c2.4-1.9 5.3-1.7 6.9 0.9c1 1.5 0.5 3.9 0.6 5.1c-3.2 2.7-7.8 2.8-9 0.8zm618.2-461.8c-1.8 1.7-3.7 2-5.6 0.2c-2.2-2.1-2.5-6.9-0.1-8.2c1.6-0.9 3.9-0.4 5-0.5c3 3.2 2.9 6.6 0.7 8.5zm-553.2 603.5c-2.5-1.9-2.1-5.4 0.3-7.3c2.3-1.8 4.7-2.1 6.9 0.1c1.7 1.7 1 5.5-2.4 8.5c-1.1-0.3-3.4-0.3-4.8-1.3zm-125.9-325.9c2-1.8 4.3-2.2 6.4-0.2c2 1.9 2.1 6.5-0.2 7.9c-1.5 1-3.8 0.7-4.9 0.9c-3.1-3.2-3.4-6.8-1.3-8.6zm533.7-283.3c-2.1-1.4-1.7-5.7 0.4-7.5c2.1-1.8 4.4-2 6.4 0.1c1.8 1.8 1.3 5.8-1.7 8.5c-1.2-0.2-3.5-0.1-5.1-1.1zm-262 399.5c2-2.1 6.4-2.5 8-0.5c2.2 2.8 0.2 4.9-1.5 6.9c-2 2.2-4.1 2.3-6.3 0.4c-1.8-2.2-2.3-4.5-0.2-6.8zm79.1-24.4c-2.4 1.8-4.8 1.4-6.7-0.8c-2.1-2.5-1.6-5.1 0.7-7.1c2-1.8 4.3-1.7 5.8-0.1c2.4 2.8 2.4 6.5 0.2 8zm112.8-204.9c-2.4 2.2-5.1 1.3-7.2-0.7c-1.8-1.7-2.4-3.9-0.3-5.9c2-2 5.7-2.1 7.9 0.1c1.5 2.1 1.8 4.6-0.4 6.5zm-104.8-3.5c-2 1.7-4.2 1.5-6-0.5c-2.1-2.2-1.8-5.8 0.6-7.8c2-1.7 4-1.7 5.6 0c2.2 2.5 2 6.6-0.2 8.3zm68.2-108.2c1.8-1.8 3.9-2.3 6-0.5c1.8 1.5 2 6.4-0.1 7.6c-1.7 1.1-4.1 1.2-6.3 1.7c-1.9-2.7-1.6-6.7 0.4-8.8zm-417.4 163.3c-1.9 1.8-5.1 1.5-7-0.9c-1.9-2.3-1.6-4.5 0.4-6.4c2.2-1.9 4.5-2.2 6.5-0.4c2 2.3 1.9 5.9 0.1 7.7zm298.5 185.6c-2.1-2.3-1.7-4.7 0.5-6.6c2.3-2.1 4.8-2 7 0.4c2 2.1 1.5 4.3-0.5 6.4c-2.3 1.5-4.8 2.2-7-0.2zm-239.1-113.2c-1.9-2.5-1.3-5.2 0.8-7.2c2.3-2.2 4.7-1.2 6.6 0.8c2 2.1 1.7 4.3 0.1 6.1c-2.4 2.2-6.1 2.3-7.5 0.3zm289.3-92.8c-2.1 2-4.3 1.8-6.3-0.1c-2.3-2.1-2.4-5.5-0.2-7.4c2-1.9 4.2-2.1 6-0.3c2.3 2.4 2.5 6 0.5 7.8zm-249.7-52.3c1.4-2.1 6.3-1.8 7.9 0.2c1.6 2.3 2 4.7-0.2 6.9c-1.8 1.7-5.4 1-8.4-2.4c0.1-1-0.2-3.2 0.7-4.7zm127.3 291c-0.6-1.8 0.3-4.6 1.4-6.2c1.7-2.3 4.8-2.5 6.5-0.1c1.1 1.5 0.7 4.1 0.9 5.4c-3.2 2.9-8.1 3.1-8.8 0.9zm16.9-381.2c-1.7-0.8-0.9-6.4 1.3-7.8c1.5-0.8 4.1-0.9 5.6-0.1c2.1 1.1 1.5 6.1-0.6 9c-2.1-0.3-4.5-0.2-6.3-1.1zm-9.1 208.3c-1.7-0.7-0.7-5.8 1.3-7.5c2-1.9 4.2-1.7 6 0.3c1.9 2.2 2.1 4.5-1 7.8c-1.5-0.1-4.2 0.3-6.3-0.6zm254.7-94.9c-2.2 1.8-4.5 1.6-6.4-0.5c-1.7-1.9-1.5-6 0.9-7.4c1.5-0.9 3.8-0.5 5-0.7c2.8 3.2 2.6 6.8 0.5 8.6zm103.8-169.6c-1.7-2.3-1.1-4.6 0.9-6.4c2.2-1.9 4.8-2.4 7-0.1c2 2.2 1.6 4.6-0.2 6.5c-2.3 2.1-6.1 2.1-7.7 0zm-300.2 543.6c-1.8-2.3-1.4-4.5 0.6-6.4c2.2-2 4.8-2.8 7.1-0.3c2 2.2 1.4 4.7-0.3 6.6c-2.3 2.2-5.7 2.1-7.4 0.1zm123.3-306.8c-2.3 1.6-4.8 1.9-6.9-0.2c-1.7-1.7-1-5.9 1.5-7.5c1.5-0.9 3.6-0.8 4.7-1c2.9 3.2 2.8 7.1 0.7 8.7zm-352.6 117c2.2 1.4 2.1 6 0.2 7.5c-2.6 1.9-5.1 1.2-7.2-0.9c-2.2-2.3-1.3-4.6 1.5-7.7c1.4 0.2 3.8 0 5.5 1.1zm1.4-27.2c-2.6 1.8-4.8 1-6.7-1.2c-1.8-2.3-2.2-4.7 0.2-6.7c2.3-2 4.7-1.4 6.6 0.7c2 2.3 2 5.6-0.1 7.2zm-42.3 31.7c-1.8-2.1-1.7-4.4 0.5-6.3c2.2-1.8 4.6-2 6.7 0.3c1.9 2 1.8 5.3-0.4 7.1c-2.5 1.9-4.9 1.1-6.8-1.1zm143.3-105.1c1.9-1.8 4.3-2.1 6.3 0c1.8 1.9 1.6 7-0.6 7.9c-1.6 0.8-3.9 0.2-5.1 0.1c-2.7-3.4-3.1-5.8-0.6-8zm329.6-222.3c-1.9 2-4.1 1.7-6-0.2c-2.3-2.2-2.8-6.2-0.6-7.4c1.7-0.9 4.2-0.6 5.6-0.7c2.8 3.4 3.1 6 1 8.3zm-258.2 337.1c-1.5 2-5.1 1.7-7.1-0.5c-1.9-2-1.9-4.3 0.1-6.3c2-2 4.3-2.5 6.7-0.4c1.7 2.3 2.3 4.8 0.3 7.2zm224.7-381c1.8 2 1.9 4.7 0 6.9c-1.8 2-5.7 1.8-7.4-0.8c-0.9-1.4-0.6-3.5-0.8-4.7c3.3-2.5 5.8-3.9 8.2-1.4zm-258.1 205.3c-2.1-1.9-2.6-4.4-0.4-6.6c2.1-2 4.6-2.2 6.8-0.2c2 2 2.2 4.4 0.4 6.8c-2.3 2.1-4.6 2.1-6.8 0zm69.4 141.5c-2.1 2.4-4.9 1.2-6.9-0.9c-1.7-1.6-2.8-3.7-0.9-5.9c1.5-1.9 6-1.5 9.1 0.6c-0.4 2.1-0.1 4.8-1.3 6.2zm325.9-472.6c-1.9-2.4-0.9-4.8 1.2-6.7c2-1.8 4.5-2.3 6.3-0.1c1.9 2.4 1.2 5-0.9 7.5c-2.2 1.2-4.7 1.7-6.6-0.7zm-173.5-6.8c-1.9-2.2-1.1-4.8 0.9-6.8c2.1-2 4.7-2.6 6.6-0.3c2 2.4 1.1 5-0.6 7.2c-2.5 1.8-5 2-6.9-0.1zm209.7 139.7c2 1.9 2 5.5 0 7.1c-2.5 1.9-5.3 1.6-7-0.8c-1-1.4-0.6-3.7-0.7-4.8c3.2-3.1 5.9-3.3 7.7-1.5zm-279.1 23.6c1.9 2 1.7 5.9-0.3 7.7c-2.2 1.8-4.2 1.2-6-0.7c-2.2-2.3-2.2-4.7-0.2-6.9c2.3-2 4.5-2.1 6.5-0.1zm-185.6 270.3c2 1.6 1.5 6.9-0.7 7.8c-1.6 0.6-4.2 0.2-5.6-0.8c-2.3-1.7-1.8-5.6 1.4-8.3c1.1 0.2 3.5 0.1 4.9 1.3zm67.9 45.3c-2.4 2.1-4.9 1.3-6.7-0.8c-1.8-1.9-2.3-4.3-0.2-6.4c2.3-2.2 4.7-1.4 7 0.5c1.4 2.2 2.1 4.6-0.1 6.7zm-37.2 60.5c2.2 1.2 2 5.3 0.1 7.1c-2.1 2.1-4.4 1.7-6.3-0.2c-2.3-2-2.2-4.4 0.6-7.7c1.4 0.2 3.8-0.1 5.6 0.8zm-251.5 31.3c-1.7-2.1-1.3-4.3 0.6-6c2.3-1.9 5-2.4 7.2-0.2c2.1 2.1 1.3 4.4-0.6 6.3c-2.2 2-5.6 2-7.2-0.1zm397.3-199c2.2 1.5 2.2 6 0.3 7.5c-2.5 2-4.8 1.2-6.7-1c-2-2.3-1.6-4.6 1.4-7.7c1.2 0.3 3.5 0.1 5 1.2zm72.7-66.1c1.7 2.4 1.6 4.8-0.5 6.9c-1.8 1.7-5.7 1.5-7-0.9c-0.9-1.7-0.6-4.1-0.8-6.2c3.1-1.9 6.8-1.8 8.3 0.2zm-398.6 227.1c2.1-2 4.4-2.6 6.7-0.4c2.2 2.3 2.2 4.9 0.1 7.1c-2.2 2.3-4.5 1.6-6.8-0.5c-1.7-1.9-2.1-4.1 0-6.2zm36.7 112.5c-2.2 2.1-4.7 1.7-6.7-0.4c-2-2-2.5-4.5-0.4-6.7c2.3-2.4 4.6-1.3 6.7 0.4c1.6 2.2 2.9 4.5 0.4 6.7zm-144.6-42.5c-0.7-1.5-0.5-4.2 0.4-5.6c1.3-1.9 6.5-1.1 7.7 1.2c0.9 1.5 0.5 3.5 0.6 4.6c-3.5 2.8-7.3 2.5-8.7-0.2zm561.1-79.7c-2.1-1.2-1.5-5.4 0.7-7.4c2-1.8 4.1-1.5 5.9 0.4c2.1 2.3 2.1 4.7-1.1 8c-1.3-0.2-3.8 0-5.5-1zm-454.5 44.5c1.7-2.3 4.5-2.4 6.6-0.2c1.9 2.1 1.9 4.8-0.2 6.9c-2.2 2.1-4.5 1.6-7.7-1.4c0.3-1.3 0.1-3.8 1.3-5.3zm282.5-93.2c2-1.8 4.4-2.3 6.3 0.1c2 2.4 1.7 5.4-0.8 7c-1.5 1.1-4.1 0.6-5.6 0.7c-2.5-3.6-2.1-5.9 0.1-7.8zm-277-46.4c2.2-1.9 4.9-1.3 6.8 0.8c1.9 2.2 1.8 4.8-0.4 6.7c-1.9 1.7-4.1 1.8-5.6 0c-2.2-2.7-3.4-5.3-0.8-7.5zm136 221.8c-2.4 1.7-5 1.3-6.7-0.8c-1.9-2.3-1.4-5.1 0.9-6.7c1.5-1 3.8-0.7 5.8-0.9c2 3.3 2 6.9 0 8.4zm126.9-517.4c-1.6 2-5.4 1.6-7.5-0.5c-1.9-1.9-1.7-3.9 0.2-5.5c2.1-1.7 4.4-3.4 7.1-0.9c1.8 2.2 2.1 4.6 0.2 6.9zm-116.4 127.8c1.9-1.8 4.1-2.5 6.3-0.4c1.8 1.7 1.4 5.7-0.5 7.7c-1.9 1.9-3.8 1.6-5.1 0.3c-2.6-2.6-2.8-5.7-0.7-7.6zm39.2 43.5c-2.5 2-4.8 1.1-6.6-1c-1.7-2-2.3-4.3-0.2-6.4c1.8-1.7 5.6-1.3 7.3 0.7c1.7 2 1.6 5.1-0.5 6.7zm305 40.3c1.8-1.9 4-1.9 6-0.1c2 1.9 2.2 6.3 0.1 7.5c-1.6 0.9-3.9 0.6-5.2 0.8c-2.7-3.4-3.1-5.9-0.9-8.2zm-450.6-52.8c2-1.9 4.4-2 6.5-0.1c1.9 1.7 2.1 6 0.1 7.2c-1.8 0.9-4.2 0.6-5.7 0.8c-2.3-3.4-3.2-5.8-0.9-7.9zm74.5 78.2c-1.5 2.2-5.7 2-7.5 0c-1.7-1.9-1.8-4 0.1-6c2-1.9 5.5-1.8 8.4 1.4c-0.2 1 0 3.2-1 4.6zm363.4-401.1c-2.1 1.8-3.9 1.3-5.6-0.5c-2.1-2.3-2.5-6.3-0.3-7.5c1.6-0.9 3.8-0.5 4.9-0.6c3.1 3.4 3.1 6.8 1 8.6zm-157.8 298.8c1.8-1.6 4-2.2 6-0.1c1.8 1.8 1.5 6.4-0.9 7.8c-1.4 0.9-3.6 0.5-4.7 0.6c-2.6-3.6-2.7-6.1-0.4-8.3zm-309.1 64.3c-2.4 2-4.7 1.2-6.6-0.9c-2-2.1-1.9-4.4 0.4-6.2c2.2-1.7 4.6-1.8 6.7 0.4c1.7 2.4 1.8 4.8-0.5 6.7zm486.8-22.1c2.3 2.1 1.6 5-0.4 7.1c-1.8 1.9-4.2 2-6 0c-2.2-2.5-1.4-5 1.2-8.3c1.4 0.3 3.9 0 5.2 1.2zm-402.9 338.1c-2-2.2-1.6-4.5 0.6-6.2c2.2-1.7 4.7-2.5 6.7 0.1c1.9 2.3 1.4 4.6-0.6 6.8c-2.4 1.6-4.8 1.4-6.7-0.7zm75.1 38.1c-2.2 2.1-4.5 1.4-6.3-0.6c-1.9-2.2-2-4.6 0.3-6.7c2-1.9 4.2-1.9 6.4 0.3c1.7 2.4 1.8 4.9-0.4 7zm157.4-585c-2.2-2.1-2.1-5.2 0.5-6.8c1.5-0.9 4.4-0.8 6 0c1.9 1 1 5.6-1.4 8.6c-1.7-0.6-3.9-0.6-5.1-1.8zm32.3 29.6c2.2-2.2 5.1-1.3 7.1 0.7c1.9 1.9 1.8 4.1-0.2 6c-1.9 1.8-5.3 1.4-8-1.8c0.2-1.1-0.1-3.7 1.1-4.9zm-8.3 214.3c-1.9-2.2-1.8-4.5 0.4-6.3c2.4-1.9 5.1-1.7 6.6 0.8c1 1.6 0.6 4.1 0.8 5.5c-3.6 2.6-5.9 2.2-7.8 0zm-180.5 306.3c-1.7 0.7-4.5 0.3-6-0.7c-2.3-1.6-2.1-5.7 0.3-6.8c1.8-0.8 4.2-0.4 6.3-0.5c1.8 3.2 1.7 7.1-0.6 8zm37.2-206.7c-2.1-2.2-1.6-4.7 0.5-6.6c2.3-2.1 5.1-1.4 6.6 0.8c1 1.4 0.6 3.9 0.7 5.4c-3.3 2.1-5.7 2.6-7.8 0.4zm144.3-140.4c1.9-2.1 5-1.6 7.1 0.4c1.9 1.9 1.8 4.3-0.1 6.1c-2.2 2-4.6 1.9-7.8-1.1c0.1-1.3-0.4-4.1 0.8-5.4zm-129.8 620.4c1.5-0.8 4.2-1 5.6-0.1c2.3 1.4 1.8 6.6-0.7 8.1c-1.2 0.7-3.1 0.3-3.9 0.3c-3.1-3.4-3.4-7-1-8.3zm414.5-748.2c1.7-0.7 4.4-0.2 6 0.8c2.2 1.5 2 5.5 0 7.1c-2 1.6-3.9 1.5-5.6-0.6c-2.2-2.4-2.6-6.5-0.4-7.3zm-476.7 572.3c1.7-1.9 5.1-1.9 6.7 0.1c1.9 2.3 2.1 5.1-0.3 6.7c-1.5 1.1-4.1 0.6-6.2 0.8c-2-3.3-2.1-5.5-0.2-7.6zm469.8-391.3c-2-1.6-1.7-6.2 0.2-7.6c2.1-1.8 4.3-1.2 5.9 0.8c1.9 2.4 1.8 4.9-1.4 8.1c-1.2-0.3-3.3-0.3-4.7-1.3zm-323.1 362.4c1.8 2 2.6 4.4 0.5 6.4c-2.3 2.1-5.3 1.9-7.1-0.4c-1.1-1.4-0.8-4-1-5.3c3.3-2.9 5.6-2.9 7.6-0.7zm264.3-510.7c2 1.3 2.1 6.2 0.1 7.1c-1.8 0.8-5 1-6.3 0c-2.4-2-1.1-4.8 1.3-8.1c1.3 0.3 3.5 0.1 4.9 1zm-398.6 407.1c-1.8 2.4-4.5 2-6.6-0.2c-1.9-2-2.1-4.5-0.1-6.4c2.1-2.2 4.6-1.6 7.8 1c-0.2 1.6 0.1 4.1-1.1 5.6zm-35.4-0.8c-2.3 1.9-4.7 1.1-6.3-0.8c-2-2.2-1.5-4.7 0.6-6.7c1.7-1.6 3.6-2.3 5.5-0.2c1.8 2 2 6.1 0.2 7.7zm28.1 167.9c2.3 1.5 1.9 5.4-0.2 7c-2.2 1.7-4.6 1.4-6.4-0.6c-1.9-2.1-1.8-4.5 1.2-7.6c1.4 0.3 3.8 0.2 5.4 1.2zm193.3-617.7c1.8-2.2 4.5-1.9 6.6 0.2c2 2 2 4.4 0 6.3c-2.3 2-4.7 1.3-7.8-1.4c0.2-1.4 0-3.8 1.2-5.1zm-175.5 201.3c1.8 2.2 1.9 4.8-0.4 6.8c-2.1 1.8-4.5 1.3-6.3-0.8c-1.9-2.2-1.6-4.3 0.5-6.4c2.1-1.5 4.4-2 6.2 0.4zm136 39.7c2.3 1.5 2.4 6.6 0.2 7.7c-1.5 0.7-4.3 0.3-5.6-0.7c-2.2-1.7-2.2-4.3 0.6-7.6c1.2 0.1 3.4-0.3 4.8 0.6zm-151.2 314.6c-2.4 1.8-4.5 0.9-6.2-1.1c-1.9-2.3-1.7-4.5 0.5-6.4c2.1-1.8 4.3-1.8 6.1 0c2 2.3 1.8 5.9-0.4 7.5zm-164.4-362.7c2 0.4 5.1 0.2 6 1.4c1 1.5 0.7 4.6-0.2 6.4c-1 2.1-5.3 1.7-6.5-0.6c-0.8-1.7-0.5-3.9-0.7-5.9q0.7-0.6 1.4-1.3zm500.3-187.1c2 2.1 2 5-0.3 7.2c-2.1 2-4.2 1-5.9-0.9c-1.9-2.2-1.8-4.6 1.1-7.7c1.4 0.3 3.9 0.2 5.1 1.4zm-287.1 66c-1.9-1.1-1.3-6.8 1-7.8c1.4-0.7 4.1-0.2 5.4 0.8c2.2 1.6 1.8 5.2-1.3 7.9c-1.2-0.2-3.5 0-5.1-0.9zm128.4 240.2c1.1-2 5.4-1.4 7.1 0.6c1.8 2.2 1.5 4.8-0.7 6.2c-1.6 0.9-4.1 0.5-7.6 0.9c0.5-3.6 0.2-6 1.2-7.7zm-177.1 96.3c2.1 0.5 4.7 0.3 6.1 1.6c2 1.7 2 4.7-0.3 6.6c-2.2 1.8-4.9 1.3-6.3-0.8c-1-1.6-0.6-4.1-0.9-6.2q0.7-0.6 1.4-1.2zm-227.6-211c-1.8 2.2-5.6 1.9-7.4-0.2c-1.7-2-1.5-3.9 0.3-5.7c2-2 5.5-1.8 8.5 1.4c-0.3 1.1-0.3 3.2-1.4 4.5zm-9.8 237.2c1.7 2.1 1.4 4.2-0.6 6c-2 1.9-5.7 1.9-7-0.4c-0.9-1.5-0.6-3.6-0.7-4.6c3.2-2.9 6.7-3 8.3-1zm576-630.4c-2.3-1.7-2.1-4.5-0.1-6.6c1.9-2 4.3-2.3 6.3-0.2c2.1 2.2 1.5 4.6-0.9 7.8c-1.5-0.2-3.9 0.1-5.3-1zm-219.2 407.6c-2.1 2.1-5.2 1.9-6.9-0.7c-0.8-1.3-0.6-4.1 0.3-5.5c1.4-2.2 5.1-1.7 8.1 0.7c-0.4 1.8-0.3 4.3-1.5 5.5zm29.1 99.1c2.1 1.7 1.9 6.4-0.4 7.3c-1.5 0.7-4.1 0.3-5.6-0.6c-2.2-1.5-1.7-5.1 1.5-7.9c1 0.2 3.2 0.2 4.5 1.2zm-153.8 376.2c2 1.4 1.5 5.5-0.4 7.1c-2.2 1.7-4.4 1.3-6-0.6c-2-2.2-1.6-4.6 1.3-7.7c1.3 0.3 3.6 0.2 5.1 1.2zm264.4-678.4c-1.7-1.9-1.1-3.6 0.6-5.2c2.3-2.2 6-2.7 7.3-0.5c0.9 1.6 0.5 3.9 0.7 5.1c-3.1 2.8-6.7 2.6-8.6 0.6zm204.1 148.4c-2.2-1.5-1.8-5.5 0.2-7.4c1.9-1.7 3.9-1.6 5.6 0.3c2.1 2.4 1.6 4.8-1 8.1c-1.2-0.2-3.4-0.1-4.8-1zm-367.8 603.5c2 1.5 1.4 5.6-0.7 7.6c-2.1 1.9-4.1 1.2-5.6-0.6c-2-2.4-1.4-4.9 1.7-8.1c1.1 0.3 3.3 0.1 4.6 1.1zm-114-734.2c1.5-0.9 4.4-0.9 6 0c2 0.9 1.6 6.1-0.4 7c-1.7 0.7-4 0.2-5.3 0.2c-2.3-3.2-2.7-5.8-0.3-7.2zm66.2 72.8c1.1-2.1 5.3-1.9 6.4 0.4c0.8 1.7 0.8 4.6-0.2 6c-1.5 2.3-4.1 1.9-7.2-0.9c0.2-1.4 0-3.8 1-5.5zm13.3-166.8c-1.2 0.8-4.2 0.7-5.5-0.2c-2.2-1.6-2.8-4.3-0.7-6.6c2.1-2.2 4.3-1.6 6.4 0.1c1.9 2.3 2.3 5-0.2 6.7zm278.1 3.5c2.1 1.2 1.4 5.3-0.9 7.3c-1.9 1.6-3.8 1.8-5.5-0.2c-2.2-2.4-1.5-4.8 1.2-8c1.3 0.2 3.6-0.1 5.2 0.9zm-304.4 620.8c-1 2-6 1.9-7.6 0.1c-2-2.1-1-4.2 0.7-5.9c2-2 4.1-2.3 7.3 0.6c-0.1 1.2 0.4 3.5-0.4 5.2zm55.7 175.9c-2.5-1.9-1.8-4.5 0.3-6.5c1.9-1.8 4.1-2.5 6.3-0.4c1.8 1.7 1.4 5-1.8 8c-1.1-0.2-3.5 0-4.8-1.1zm-33.9-43.2c2-2.1 4.4-1.5 6.3 0.3c1.8 1.6 1.7 6.2-0.3 7.2c-1.5 0.7-3.6 0.2-4.8 0.3c-2.3-3.2-3.4-5.6-1.2-7.8zm-60.8-30.4c-1.3 0.9-4.5 0.7-5.9-0.3c-2.2-1.7-2.2-4.8 0.2-6.5c1.4-1 3.8-0.7 5.2-0.9c2.5 3.4 2.8 6.1 0.5 7.7zm43.8-212.5c1.9 1.8 2 4.1 0 5.9c-2.2 2-5.2 2.3-7.1 0.1c-1.1-1.2-0.6-3.8-0.7-5.2c3.2-2.4 5.6-2.9 7.8-0.8zm205.3-90.6c-1.7-1.8-2.4-4-0.3-6c1.8-1.8 6.1-1.9 7.2 0.1c0.8 1.6 0.3 3.9 0.4 5.1c-3.2 2.9-5.4 2.8-7.3 0.8zm-218.5 230.2c1.9-2.3 6.1-2.5 7.3-0.3c0.7 1.4 0.6 4-0.2 5.3c-1.3 2.1-6.3 1.9-8.8-0.7c0.4-1.1 0.6-3 1.7-4.3zm300.6-364.5c-2.2 1.7-4.3 0.8-6-1c-1.8-2.1-1.8-4.5 0.2-6.5c1.8-1.8 3.8-1.6 5.1-0.3c2.4 2.6 2.6 6.3 0.7 7.8zm-593 76.9c-0.5 2.7-2.4 3.7-5 3.2c-3.7-0.8-4-2.5-1.8-9.8c4.9 0.5 7.5 3.1 6.8 6.6zm494.3-219.9c-1.5 0.8-4.4 0.8-5.9-0.1c-2-1.2-1.4-6 0.9-7.3c1.5-0.7 3.6-0.2 4.7-0.2c2.6 3.4 2.9 6.1 0.3 7.6zm-40.2 136.5c-1.4 0.9-4.5 0.3-5.9-0.8c-2.2-1.7-1.7-4.6 0.5-6.1c1.5-1 3.9-0.6 5.4-0.8c2.2 3.5 2.5 6.3 0 7.7zm-49.7 200.2c1.3-0.9 4.1-1.2 5.5-0.4c2.2 1.1 2.4 6.6 0.5 7.4c-1.7 0.7-4 0.2-5.2 0.2c-2.5-3.1-3.3-5.5-0.8-7.2zm366.1-430.6c-2.2-1.8-1.8-4.6 0.4-6.6c1.8-1.8 4.2-1.9 6 0c2.2 2.2 1.4 4.6-1.3 7.7c-1.3-0.3-3.8 0-5.1-1.1zm-664.9 252.1c-2.1-0.6-4.6-0.6-6.1-1.8c-2-1.6-1.8-4.2 0.2-6c2.1-2 4.8-2 6.2 0.3c1.1 1.6 0.8 4.1 1.1 6.3q-0.7 0.6-1.4 1.2zm389.4-130c-0.5 2.1-0.4 4.6-1.6 6.1c-1.6 2-4.2 1.7-6-0.2c-1.9-2-2.2-4.8 0.1-6.3c1.5-1.1 4.1-0.7 6.2-1q0.7 0.7 1.3 1.4zm136.4-134.2c2.2-2.3 5.2-1.4 7 0.7c0.8 1.1 0.7 3.9-0.1 5.2c-1.4 2.1-5.2 1.7-8.3-0.7c0.4-1.8 0.3-4.1 1.4-5.2zm-352.3 298.6c-0.4 2.1-0.1 4.7-1.3 6.1c-1.8 2.2-4.6 1.3-6.3-0.6c-1.7-1.9-2.2-4.5 0.1-6c1.6-1 4.1-0.6 6.2-0.8q0.7 0.6 1.3 1.3zm203.8 78.1c1.7 2.1 2 4.5 0 6.5c-2.3 2.2-5 1.2-6.5-0.9c-1-1.4-0.7-3.8-0.8-5.1c3.2-2.6 5.4-2.7 7.3-0.5zm361.7-333.1c2.1 1.9 2.1 5.1-0.3 6.6c-1.4 0.9-4.6 0.6-6-0.5c-2.3-1.7-1.5-4.2 1.2-7.2c1.3 0.3 3.8 0 5.1 1.1zm-423.4 17.2c1.5-1.9 4.7-2.2 5.8 0.1c0.9 2 0.4 5-0.5 7.2c-0.3 0.7-3.7 0.1-7.2 0.1c0.8-3.4 0.7-5.9 1.9-7.4zm-14.5 492.6c-1.8 2.3-4.6 1.8-6.6-0.4c-1.8-2-1.5-4.2 0.4-6c2-1.9 4.2-1.9 7.3 1c-0.2 1.4 0.1 4-1.1 5.4zm222.3-513.5c0.4-1.9 0.1-4.3 1.3-5.6c1.9-2.2 4.7-1.4 6.7 0.5c1.9 1.8 2 4.5-0.1 5.8c-1.7 1.1-4.4 0.6-6.7 0.7q-0.6-0.7-1.2-1.4zm46.7-72.5c-0.4 2.1-0.1 4.6-1.2 6.2c-1.7 2.1-4.3 2-6.3-0.2c-1.8-2-2.1-4.7 0.3-6.3c1.5-1 3.9-0.7 5.8-1q0.7 0.6 1.4 1.3zm-535.3 158.6c-2.9-2.2-0.7-4.6 1-6.6c1.9-2.3 3.6-1.3 5.2 0.5c2 2 2 4.2-0.9 7.3c-1.3-0.3-3.9 0-5.3-1.2zm354.6-166.1c1.4-0.8 4.5-0.6 5.9 0.4c2.2 1.7 2.2 4.8-0.2 6.5c-1.4 1-3.8 0.6-5 0.7c-2.8-3.3-3.2-6-0.7-7.6zm3.5-69.8c1.5-0.7 4-0.5 5.2 0.4c2 1.3 1.3 6.2-0.9 7.3c-1.5 0.8-3.5 0.5-4.6 0.6c-2.3-2.7-1.9-7.3 0.3-8.3zm-55.7 484.3c1.7-2.1 4.4-1.8 6.3 0.2c2 2.3 1.5 5.1-0.7 6.6c-1.4 1-3.9 0.5-7.4 0.7c0.8-3.5 0.7-6 1.8-7.5zm266.6-406.3c1 1.3 0.9 4.7-0.2 6.2c-1.5 2.2-4.6 1.8-6.2-0.2c-1-1.4-0.6-3.8-1.1-7.3c3.6 0.5 6.7 0.1 7.5 1.3zm-131.9-172.9c-1.5 2.1-4.2 1.5-5.9-0.4c-1.9-2.1-2.4-4.9 0.1-6.6c1.5-0.9 4-0.4 7.4-0.6c-0.7 3.4-0.4 6-1.6 7.6zm-166.9 508.3c1.6-1.6 3.7-2.2 5.6-0.4c1.6 1.6 1.5 6.7-0.5 7.7c-1.5 0.7-3.5 0.4-4.8 0.5c-2.3-3.3-2.5-5.6-0.3-7.8zm435.7-294.3c1.1 1.1 0.9 4.5-0.1 5.9c-1.7 2.4-4.8 2-6.5-0.1c-1.1-1.3-0.6-3.8-0.9-7.3c3.6 0.6 6.4 0.3 7.5 1.5zm-686.4 463.5c-0.9-1.2-1-3.9-0.3-5.3c1-2 6.1-1.7 7.5 0.3c0.8 1.4 0.7 3.4 0.9 4.7c-3.4 2.3-6.2 2.6-8.1 0.3zm358-263.2c-2-1.9-1.4-3.8 0.6-5.4c2.3-1.8 5-2.6 7 0c1 1.3 0.4 3.8 0.5 5c-3.5 2.8-6 2.6-8.1 0.4zm79.4-72.7c1.9 1.2 1.4 6.1-0.9 7.3c-1.3 0.8-3.8 0.6-5.1-0.2c-2.2-1.4-1.7-5.1 1.4-7.9c1 0.1 3.2-0.1 4.6 0.8zm79.7-239.3c2.1 2.1 1.7 5-0.3 7.2c-1.8 1.8-4 1.7-5.7-0.2c-2.1-2.4-1.2-4.8 1.2-8.2c1.3 0.3 3.8 0.1 4.8 1.2zm-221.2 164.5c2-1.7 4.3-1.9 6.1 0.2c1.7 2 2.1 4.8-0.1 6.4c-1.5 1-4.1 0.6-5.6 0.8c-2.4-3.3-2.5-5.5-0.4-7.4zm96.7 183.7c-1.7-1.9-1.6-4.2 0.5-6c2.2-1.8 4.8-1.5 6.3 0.7c1.1 1.5 0.8 3.8 1.1 5.4c-3.5 2.2-6 2.1-7.9-0.1zm-70.3 166.1c-0.4 2 0 5.1-1.2 5.9c-1.5 1.1-5 1.2-6.4 0.2c-2.3-1.8-1.4-4.8 0.9-6.4c1.4-0.9 3.5-0.7 5.3-1.1q0.7 0.7 1.4 1.4zm69.3 7.9c-1.7 1.9-4.7 2.2-6.1-0.2c-0.9-1.5-0.6-4.5 0.4-6c1.7-2.3 4.2-1.6 7.2 1.2c-0.3 1.3-0.3 3.7-1.5 5zm-323.4 231c-2 1.8-4.6 1.4-6.4-0.5c-2-2.2-1.7-4.7 0.5-6.3c1.3-1 3.5-0.9 5.3-1.2c1.7 3.4 2.9 5.8 0.6 8zm378.4-854.2c-2.1-1.7-2-4.3 0.1-6.3c1.9-1.9 4.3-2.2 6.4-0.1c2.4 2.4 0.7 4.6-1.7 7.6c-1.2-0.3-3.5-0.1-4.8-1.2zm-410.2 643.5c-0.8-1.2-0.5-4.2 0.4-5.5c1.7-2.2 4.7-2.6 6.5-0.3c1.1 1.3 0.6 3.7 0.8 5.1c-3.3 2.3-5.9 3.1-7.7 0.7zm-27.3-209.6c-0.8-1-0.2-4.1 0.9-5.4c1.7-2.1 4.8-3.2 6.8-0.7c1 1.1 0 3.8 0 5c-3.2 2.3-5.9 3.5-7.7 1.1zm488.9-21.5c1.9 0.3 4 0.1 5.5 1.1c2.1 1.3 1.9 5.2 0 6.7c-2.2 1.7-4.7 1.3-6-0.8c-0.9-1.5-0.6-3.8-0.8-5.8q0.7-0.6 1.3-1.2zm-463.7 433.6c2.3 1.7 1.3 4.4-0.6 6.1c-2 1.9-4.6 2.3-6.2-0.2c-0.9-1.5-0.5-3.8-0.8-7.1c3.5 0.4 6.2 0 7.6 1.2zm512.4-604.6c0.7 1.5 0.5 4.1-0.3 5.5c-1.3 2.1-5.7 1.8-7-0.4c-0.8-1.3-0.5-3.3-0.6-4.1c3.3-3.1 6.8-3.3 7.9-1zm-177.3-76.2c1.6-2.1 4.5-3.2 6.4-0.7c1 1.4 1.3 4.5 0.4 5.9c-1.5 2.4-4.3 1.8-7.7-0.4c0.2-1.3-0.1-3.5 0.9-4.8zm-42 317.4c-1.3 2-6.2 2-6.5 0.2c-0.4-2.1 0.1-4.9 1.3-6.7c0.6-0.9 3.5-0.4 6.7-0.6c-0.6 3.3-0.5 5.5-1.5 7.1zm258-309.7c-0.6 2.3-0.6 4.9-1.9 6.5c-0.6 0.8-4.2 0.5-5.4-0.5c-2-1.8-2-4.9 0.5-6.6c1.3-0.9 3.6-0.5 5.5-0.7q0.6 0.7 1.3 1.3zm-402.6 267.8c-0.8-1-0.4-3.9 0.5-5c1.8-2.1 4.8-3.2 7-0.8c0.9 1.1 0.2 3.6 0.2 4.8c-3.2 2.2-5.7 3.5-7.7 1zm260.8-377.6c1-0.9 4-0.7 5.5 0.1c2 1.2 1.7 6-0.4 6.9c-1.6 0.7-3.7 0.2-7.1 0.2c0.9-3.3 0.8-5.9 2-7.2zm-178.3 235.9c0.7 2.1 0.5 5.1-0.7 6.9c-1.4 2.1-3.8 1.2-5.4-0.8c-1.8-2.2-1.7-4.3 1.2-7.3c1.3 0.3 4.6 0.3 4.9 1.2zm344.5-55.4c1.2-0.9 4.3-0.6 5.4 0.4c2.1 1.8 2.2 4.9-0.1 6.6c-1.2 1-3.6 0.5-4.8 0.5c-2.5-3.2-3-5.9-0.5-7.5zm-523.7 48.2c1.5-0.9 4.3-0.9 5.9 0c1.9 0.9 1.3 5.9-0.9 6.9c-1.5 0.7-3.6 0.2-4.8 0.3c-2.4-3.2-2.6-5.8-0.2-7.2zm109.7-133.7c1.8-2 4.7-2.7 6.6-0.3c0.9 1.3 0.9 4.1 0.2 5.6c-1 2.1-5.2 1.8-8-1.1c0.2-1 0.2-3.1 1.2-4.2zm301.9 226.4c0.4-1.8 0.2-4.1 1.3-5.3c1.8-2.2 4.6-2.2 6.6 0c1.8 1.9 1.9 4.6-0.4 5.9c-1.6 1-4.1 0.6-6.3 0.8q-0.6-0.7-1.2-1.4zm-621.6 107.7c1.8 1.9 1.5 3.9-0.1 5.7c-1.8 1.9-5.7 1.7-7.1-0.6c-0.8-1.3-0.5-3.3-0.7-5.1c2.9-1.8 6.2-1.8 7.9 0zm427.1-400c1.3-0.9 4.2-0.8 5.9 0c1.9 1 1.7 5.7-0.3 6.6c-1.7 0.7-3.9 0.2-7.4 0.4c0.7-3.3 0.6-6.1 1.8-7zm-301.9 544.3c1.8-2.1 4.7-2.4 6.8-0.4c2.1 1.9 0.9 4.2-0.8 5.9c-2 1.9-4.2 2.1-7.3-0.9c0.3-1.1 0.3-3.3 1.3-4.6zm482.7-565.7c-2.1 1.9-4.7 1.1-6.7-0.9c-1.8-1.8-2-4.4 0.1-5.5c1.9-0.9 4.5-0.2 8.3-0.2c-0.7 3.1-0.5 5.6-1.7 6.6zm-312.7 641.4c2.3 0.2 5.1-0.2 6.9 0.9c2.3 1.3 1.9 4.3-0.3 5.6c-1.5 1-3.8 0.6-7 0.9c0.2-3.3 0.3-5.4 0.4-7.4zm-3.3 110.9c-1.9-1.7-2.7-4.2-0.6-5.8c1.5-1.2 4.8-1.8 6.2-0.9c2.6 1.6 1.3 4.4 0 6.4c-1.9 2.3-3.9 2-5.6 0.3zm444.2-642.3c-2.1-2.2-1.4-5.1 0.9-6.5c1.4-0.9 3.8-0.3 5.7-0.3c-0.1 2.3-0.1 4.7-0.2 8.2c-3.1-0.6-5.4-0.4-6.4-1.4zm-212.3 89.4c2.1-2 5-1.8 6.5 0.7c0.8 1.4 0.6 5.2 0 5.4c-2.1 0.7-4.5 0.3-8.1 0.3c0.7-3.1 0.5-5.4 1.6-6.4zm-385.4 232.9c-1.4 2-5.8 1.9-7-0.2c-0.8-1.4-1-3.9-0.3-5.2c1.3-2.1 5.5-1.5 8.3 1.4c-0.2 0.9-0.1 2.8-1 4zm123.9 348.2c0.8 1.2 0.6 3.9-0.3 5.2c-1.2 2-6 1.8-7.1-0.1c-0.7-1.5-0.3-3.5-0.4-4.7c3.4-2.2 6-2.7 7.8-0.4zm415.6-783.5c1 0.8 0.9 4.3 0 5.5c-1.7 2.2-4.8 2.1-6.6-0.1c-1-1.1-0.6-3.5-1-6.8c3.6 0.5 6.3 0.2 7.6 1.4zm-143.6 105.5c-1.8-0.4-4.1-0.2-5.5-1.2c-2.2-1.6-2.1-4.3-0.3-6.3c1.8-2 4.5-2.2 5.9 0c1.1 1.6 0.9 4.1 1.2 6.3q-0.6 0.6-1.3 1.2zm-68.8-37.4c-1.1 0.8-3.8 0.6-5.2-0.2c-1.9-1.2-1.7-6.1 0.3-7.2c1.4-0.7 3.4-0.3 4.5-0.4c2.3 3.4 3 6 0.4 7.8zm93.3 135.5c1.4-0.8 3.9-0.7 5.2 0.2c2 1.3 2 6.1 0.1 7.1c-1.5 0.7-3.7 0.2-4.6 0.3c-2.9-3.2-3-6.4-0.7-7.6zm-154.8 347.6c0.3-2 0-4.8 1.2-5.7c1.3-1.1 3.9-0.4 5.9-0.6c0 2.2 0.8 4.8-0.2 6.5c-0.6 1.1-3.6 0.8-5.6 1.1q-0.6-0.7-1.3-1.3zm202.2-512.1c-2-0.5-4.3-0.5-5.8-1.7c-1.9-1.5-2-4-0.1-6c1.9-1.9 4.5-2.1 5.9 0.1c1.1 1.7 0.9 4.2 1.3 6.4q-0.7 0.6-1.3 1.2zm-439.6 391.4c2.1 0.2 4.6-0.3 6.3 0.6c2.1 1.2 2.5 4.3 0.5 5.8c-1.6 1-4.6 1-6.4 0.3c-1.1-0.5-1.1-3.4-1.6-5.2q0.6-0.7 1.2-1.5zm76.7-25c-1.8 2.2-4.8 1.6-6.2-0.5c-0.8-1.4-0.8-4.5 0.2-5.5c1.1-1.2 3.8-0.9 7.1-1.4c-0.4 3.5 0 6.1-1.1 7.4zm172.9-137.7c1.6-2.2 4.7-2.2 6.2-0.1c1 1.4 1.2 4.8 0.2 5.8c-1.1 1.2-4 0.8-7.5 1.2c0.4-3.3 0.1-5.6 1.1-6.9zm-174.4-1.8c0.3-1.9 0.1-4.8 1.2-5.5c1.4-0.9 4.6-0.8 5.7 0.3c1.1 1 1.3 4.7 0.3 5.7c-1.1 1.1-3.9 0.6-6 0.8q-0.6-0.6-1.2-1.3zm633-112.3c-0.8-2.2-0.6-4.8-0.8-7.3c1.8 0 4.2-0.8 5.4 0.1c2.3 1.6 2.2 4.3-0.2 7.7c-1.2-0.1-4.1 0.2-4.4-0.5zm-715.5 456.8c-2.2-1.3-1.8-3.8-0.1-5.4c2-2 4.8-2.5 6.6-0.2c1 1.2 0.6 3.6 1 6.9c-3.5-0.5-5.9-0.3-7.5-1.3zm255.7-163.2c-1.4 0.8-4.3 0.3-5.9-0.7c-2-1.3-2-3.8 0-5.5c2.1-1.9 4.3-1.6 7.3 1.3c-0.3 1.3-0.2 4.2-1.4 4.9zm-68.5-177.1c0.6-1.9 0.6-4.3 1.8-5.6c1.7-1.8 4.6-1.9 5.7 0.5c0.8 1.6 0.5 4.7-0.6 5.8c-1.1 1.1-3.8 0.5-5.8 0.6q-0.6-0.6-1.1-1.3zm257.1-168.7c2 1.6 1.5 4.2-0.5 5.9c-2 1.7-4.2 1.3-6-0.6c-1.7-1.9-1.8-3.8 0.3-6.8c2.1 0.5 4.6 0.3 6.2 1.5zm-336.1 548.9c-1.8 2.2-4.4 1.2-6.2-0.7c-1.6-1.7-2.2-3.9-0.3-5.7c2.2-2 4.4-1.5 7.4 1.4c-0.2 1.1 0.2 3.7-0.9 5zm364.5-402.1c-1.4 1.9-4 2.1-5.8-0.1c-1.9-2.1-1.7-4.8 0.4-6.3c1.3-1 3.6-0.5 6.8-0.8c-0.6 3.4-0.3 5.8-1.4 7.2zm-69.8-10.2c0.6 2.1 0.8 5-0.2 6.8c-1.3 2.3-4.2 1.4-5.3-0.5c-1-1.6-0.8-3.9-1.3-7.2c3.3 0.4 6.6 0.2 6.8 0.9zm-114.1 245.7c-1.4 0.8-4.4 0.4-5.9-0.5c-2.1-1.4-2.4-4.2-0.1-5.7c1.6-0.9 3.9-0.5 7.3-0.8c-0.5 3.3-0.2 6.3-1.3 7zm56.4-490.8c0.8 1.2 0.6 4.2-0.4 5.4c-1.8 2.1-4.8 2.1-6.6-0.2c-0.9-1.1-0.5-3.3-0.6-4.5c3.2-2.3 5.8-3.4 7.6-0.7zm95.6 212.2c-0.4 2.1 0 4.9-1.2 6.1c-1 0.9-4.3 0.5-5.8-0.5c-2.1-1.5-1.8-4.3 0.2-5.8c1.4-1 3.6-0.7 5.5-1q0.6 0.6 1.3 1.2zm-334.2 480.1c-1.9 2.1-4.4 1-6.2-0.9c-1.9-2.1-2-4.5 0.4-5.8c1.5-0.9 3.9-0.3 7.2-0.3c-0.6 3.2-0.2 5.8-1.4 7zm283.8-127.6c-1.4 0.8-4.4 0.2-5.9-0.9c-1.9-1.4-2-4.3 0.2-5.8c1.2-0.9 3.5-0.4 5.2-0.6c1.6 3.2 3.3 5.6 0.5 7.3zm-293.5 365.1c0.5 0.1 0.6 3.5-0.2 4.7c-1.2 2-7.1 1.4-8.2-0.6c-0.5-1.1 0-2.7 0.1-5.4c3.4 0.4 6 0.5 8.3 1.3zm167.2-828.3c1.5-2.2 4.6-2.6 6.2-0.4c1 1.3 1.1 4.5 0.1 5.8c-0.9 1.2-3.7 0.8-7.1 1.3c0.3-3.1-0.1-5.5 0.8-6.7zm-243 170.3c-2.1-0.5-4.5-0.4-6.1-1.5c-2.1-1.4-2-4.2 0.2-5.3c1.6-0.9 4.4-0.8 6 0.1c1.1 0.7 0.8 3.5 1.2 5.3q-0.6 0.7-1.3 1.4zm146.7 491.7c-2-1.7-2-4.6 0.4-6.1c1.4-0.9 4.8-1 5.4-0.2c1 1.5 0.6 4.1 0.9 7.6c-3.3-0.5-5.6-0.2-6.7-1.3zm191.2-276.4c2.1 2 1.5 4.9-0.7 6.2c-1.3 0.9-4.8 0.7-5.4-0.1c-0.9-1.7-0.4-4.2-0.6-7.8c3.3 0.8 5.6 0.6 6.7 1.7zm-372.7-218.1c-1.3 2.1-5.7 1.6-7.3-0.9c-0.6-1-0.5-3.4 0.3-4.3c1.5-2.1 5.2-1.7 7.8 1.1c-0.2 0.9 0.1 2.9-0.8 4.1zm304.6 188.2c-2-0.3-4.4-0.1-5.9-1.1c-2.3-1.5-2.1-4.5-0.1-5.8c1.5-0.9 4.5-0.6 5.9 0.4c1.1 0.7 1 3.4 1.3 5.2q-0.6 0.7-1.2 1.3zm-138.1-186.2c1.4-2 5.9-2.2 7-0.1c0.8 1.3 0.6 4.9 0.1 5.1c-2.3 0.7-4.8 0.5-8.4 0.7c0.6-2.9 0.5-4.6 1.3-5.7zm155.6 422.5c1.7-0.8 4.6-0.7 6 0.4c2.2 1.5 1.6 4.4-0.5 5.7c-1.5 0.9-3.9 0.4-5.8 0.5c-1.8-3.1-1.7-5.6 0.3-6.6zm-110.9-485.2c-2 2.1-4.9 1.4-6.5-0.7c-0.9-1.1-1-4-0.2-5c1.9-2.3 4.5-1.6 7.6 0.8c-0.2 1.3 0.2 3.7-0.9 4.9zm-1.6-110.2c1.5-2 4.5-2 5.8 0.2c0.9 1.6 0.9 4.7-0.1 5.9c-0.9 1.2-3.8 0.7-7.2 1.2c0.6-3.4 0.4-5.8 1.5-7.3zm75.3-24.4c-1.8-0.6-4-0.6-5.3-1.7c-2-1.7-1.7-4.1 0.2-5.9c2-1.8 4.6-1.7 5.9 0.4c0.9 1.6 0.4 4 0.5 6q-0.6 0.6-1.3 1.2zm35.5 654.5c1.4-0.9 4.5-1.2 5.7-0.3c2.4 2 1.2 4.8-0.7 6.6c-1 0.9-3.1 0.7-4.2 0.9c-2.1-3-3.4-5.5-0.8-7.2zm72.3-720.4c-1.8 2.2-4.1 0.9-5.7-1c-1.7-1.9-2.3-4.4 0-5.9c1.2-0.9 3.6-0.2 6.6-0.2c-0.3 3.2 0.2 5.8-0.9 7.1zm-28.5 687.6c2 1.6 1.8 4.5-0.3 5.8c-1.6 0.9-4.1 0.3-6.1 0.3c-0.1-2-0.1-4-0.2-7.2c3.1 0.4 5.4 0.1 6.6 1.1zm-148 208.4c-2 2-4.6 2-6.7-0.2c-1.7-1.8-1.5-3.9 0.3-5.6c2.3-2 4.4-1.1 7.2 1.6c-0.1 1 0.2 3.2-0.8 4.2zm189.3-374c-0.6 0.8-3.9 0.6-5.4-0.3c-2.1-1.2-2-5.2 0.2-6.5c1.3-0.7 3.3-0.4 6.4-0.7c-0.4 3.4-0.1 6-1.2 7.5zm-383.4-121.3c-0.8-1-0.5-3.7 0.4-4.7c1.9-2.1 4.8-2 6.6 0.2c0.9 1.1 0.4 3.2 0.6 4.6c-3.3 1.7-5.9 2.4-7.6-0.1zm318.1-130.4c1.8-2.1 4.7-2.7 6.6-0.6c1 1.1 1.1 4.9 0.3 5.4c-1.7 1.1-4.3 0.9-7.9 1.4c0.4-3.1 0.1-5.1 1-6.2zm139.9 116c-1.5 0.8-4.6 0.6-5.9-0.4c-2.2-1.9-1.3-4.7 0.9-6.1c1.2-0.9 3.2-0.6 4.2-0.7c2.5 3.1 3.3 5.7 0.8 7.2zm-32.2-36.5c-2-0.2-4.7 0.3-5.7-0.8c-1.1-1.2-1.4-4.4-0.6-5.8c1.5-2.3 4.5-2.1 6.2 0c1 1.2 0.9 3.5 1.3 5.3q-0.6 0.7-1.2 1.3zm-343.3-117.5c-1.9-0.5-4.5-0.4-5.6-1.7c-1-1.1-1-4.1-0.2-5.5c1.4-2.2 4.3-2.1 5.8-0.1c1.1 1.5 0.9 3.9 1.3 5.9q-0.6 0.7-1.3 1.4zm86.8 413.6c0.9 1.7 0 4.2-0.2 6.4c-2-0.2-4.5 0.2-6-0.8c-1-0.7-0.5-3.5-0.9-6.6c3.4 0.4 6.6 0 7.1 1zm508-500.8c0.9 1.4 0 3.9-0.2 6c-2-0.2-4.5 0.3-5.9-0.7c-1-0.7-0.6-3.4-1-6.7c3.5 0.6 6.4 0.3 7.1 1.4zm-439.3 510.6c-1.8-0.6-4-0.6-5.2-1.8c-1.9-1.7-1.8-4.5 0.5-5.8c1.4-0.7 4.6-0.5 5.5 0.6c1.1 1.1 0.5 3.8 0.7 5.8q-0.8 0.6-1.5 1.2zm441.2-545.4c0.7 1.6 0.4 4.5-0.7 5.8c-0.8 0.9-4.4 0.7-5.3-0.3c-1.1-1.1-0.5-3.8-0.7-7.2c3.3 0.7 6.2 0.6 6.7 1.7zm-714.7 289.2c-0.7-1-0.4-3.6 0.4-4.7c1.6-2.2 5.9-2.3 7-0.2c0.6 1.3 0.1 3.2 0.1 4.1c-3.1 2.5-5.6 3.5-7.5 0.8zm455.9-90.7c1.9-2.2 4.6-2 6.7 0c1.8 1.7 1.8 3.6-0.1 5.2c-2 1.7-4.3 2.1-7.3-0.8c0.1-1.1-0.2-3.3 0.7-4.4zm-190.1 415.2c-2-1.6-2.1-4.4 0-5.8c1.4-0.9 4.6-0.9 5.5 0.1c1.1 1.3 0.7 3.9 1.1 7.4c-3.2-0.8-5.3-0.7-6.6-1.7zm241.2-650.1c-0.7 0.8-4.2 0.6-5.4-0.4c-2-1.7-2.1-4.6 0.2-6.3c1.1-0.9 3.3-0.4 6.6-0.8c-0.6 3.5-0.3 6-1.4 7.5zm-89.8 337.4c1.1-0.9 4.8-0.6 4.9-0.2c0.6 2.1 0.8 4.6 0.4 6.8c-0.1 0.5-3.3 0.4-4.2 0.5c-2.8-2.9-3.3-5.4-1.1-7.1zm328.8-223.6c-0.2 0.4-3.5 0.3-4.6-0.6c-2.2-1.6-2.5-6.2-0.6-7c1.5-0.6 3.5 0.1 6.4 0.3c-0.4 3.1-0.4 5.4-1.2 7.3zm-222.3 163.6c-0.6-0.4-0.6-3.7 0.3-4.7c1.7-2 4.6-2.6 6.5-0.2c0.9 1.1 0.5 3.3 0.8 6.5c-3.5-0.6-5.8-0.6-7.6-1.6zm34.4 176c-1.2 0.9-3.5 0.2-5.3 0.2c0.2-2.4 0.1-4.9 0.9-7c0.2-0.7 2.9-0.5 4-0.7c2.4 3.2 2.7 5.8 0.4 7.5zm-58-250.8c-0.4 1.8-0.3 4.1-1.4 5.4c-1.6 2-4.4 1.9-5.7-0.3c-0.9-1.4-0.9-4.5 0.1-5.5c1.1-1.1 3.7-0.7 5.7-0.9q0.6 0.6 1.3 1.3zm-66-246.9c1-0.9 3.6-0.1 5.5-0.1c-0.2 2.2 0.1 4.6-0.8 6.5c-0.3 0.7-3.3 0.3-6.5 0.4c0.7-3.2 0.6-5.8 1.8-6.8zm-238.5 831.5c-1.9-0.4-4.4-0.3-5.7-1.4c-0.8-0.7-0.5-4.5 0.4-4.9c1.6-0.9 4.3-1.1 5.9-0.3c0.9 0.4 0.5 3.5 0.7 5.4q-0.6 0.6-1.3 1.2zm336.4-549.2c1.6 2 1.4 4.1-0.7 5.6c-2.2 1.7-4.5 1.3-5.9-0.8c-0.9-1.3-0.6-3.3-0.8-4.5c3.3-2.2 5.6-2.6 7.4-0.3zm-74.4-37.7c1.8-2.1 4.4-2.1 6.3-0.1c1.8 1.9 1.8 4.6-0.4 5.9c-1.5 0.9-3.9 0.3-7.2 0.5c0.6-3 0.4-5.1 1.3-6.3zm-286.1 166.4c0.5-1.5 0.7-4.1 1.5-4.3c2.2-0.5 4.6 0 6.9 0.2c-0.2 1.7 0.1 4.7-0.7 5c-2 0.8-4.5 0.5-6.8 0.6q-0.4-0.7-0.9-1.5zm113-203.1c0.4-1.8 0.3-4 1.3-5.3c1.6-2.1 4.4-2.1 5.7 0.2c0.9 1.4 0.9 4.5 0 5.5c-1.1 1.1-3.7 0.7-5.7 1q-0.6-0.7-1.3-1.4zm-0.1 173.9c-0.8 1-4 1-5.4 0.2c-2.2-1.2-2.7-3.9-0.7-5.6c1.3-1.1 3.5-1.1 6.7-1.9c-0.2 3.5 0.4 6.1-0.6 7.3zm-159.5 480.8c-2 2.2-4.9 1.6-6.7-0.5c-0.8-0.9-0.6-3.6 0.2-4.6c1.7-2 4.2-2.1 7.2 0.9c-0.1 0.9 0.3 3.2-0.7 4.2zm90.6-454.4c-0.4 1.9-0.4 4.2-1.5 5.5c-1.6 1.9-4.4 2-5.8-0.3c-0.8-1.2-0.6-4.3 0.3-5.1c1.4-1.2 3.9-1 5.9-1.4q0.5 0.7 1.1 1.3zm-13.4 143.7c-0.9-0.8-0.6-4.1 0.4-5.4c1.7-2 4.6-2 6.1 0.4c0.8 1.3 0.3 3.4 0.5 6.4c-3.2-0.5-5.8-0.2-7-1.4zm74.8 3.8c-1.3 0.8-4.4 0.4-5.7-0.7c-0.9-0.7-0.7-4.1 0.3-5.3c0.9-1 3.5-0.7 6.8-1.1c-0.6 3.4-0.2 6.3-1.4 7.1zm111.2-308.5c0.5-2 0.4-4.3 1.4-5.8c1.4-2 4.2-2.1 5.4 0c0.9 1.5 0.8 4.4-0.2 5.9c-0.6 1.1-3.4 0.9-5.2 1.2q-0.7-0.7-1.4-1.3zm-75.1 305.3c-0.4 1.7-0.3 4.5-1.1 4.9c-2.1 0.7-4.7 0.4-7 0.4c0.4-2 0.4-4.5 1.6-5.8c0.9-1 3.4-0.6 5.3-0.9q0.6 0.7 1.2 1.4zm366.2-465.4c-1.9-0.6-4.4-0.5-5.2-1.7c-0.9-1.4-0.9-4.2 0-5.6c1.3-2 4.1-2 5.4 0.1c1 1.6 0.8 3.9 1.1 5.9q-0.7 0.6-1.3 1.3zm-446.4-123.9c-1.9-0.2-4.2 0.3-5.6-0.6c-2.1-1.4-2.5-4.1-0.3-5.8c1.2-0.9 3.4-0.6 6.3-1c-0.1 3.3-0.2 5.4-0.4 7.4zm411.4 121.8c-1.9-0.6-4.2-0.6-5.7-1.7c-2-1.5-1.8-4.2 0.4-5.2c1.6-0.8 4.5-0.7 5.9 0.3c1 0.7 0.6 3.5 0.7 5.4q-0.6 0.6-1.3 1.2zm-172.3-41.8c-1.8-0.4-4.1-0.4-5.4-1.5c-2-1.6-2-4.4 0.4-5.7c1.4-0.8 4.5-0.8 5.4 0.2c1.1 1.2 0.7 3.9 0.9 5.9q-0.6 0.5-1.3 1.1zm-197.6 610.4c-0.5 2.1-0.5 4.6-1.7 6.1c-0.7 0.9-4.6 0.6-4.9-0.1c-0.8-1.8-0.9-4.5 0-6c0.6-1.1 3.4-1 5.2-1.4q0.7 0.7 1.4 1.4zm-100.9-108.5c-0.4 1.8-0.2 4-1.2 5.2c-1.5 2-4.1 2.3-5.7 0.1c-0.9-1.3-0.6-3.3-1-6.4c3.6 0.5 5.7 0.8 7.9 1.1zm-45.1 247.9c-1.8 2.2-4.6 1.9-6.2-0.3c-0.8-1.3-0.9-4.4-0.1-5.1c1.3-1.1 3.7-0.7 7-1.1c-0.3 3.1 0.2 5.4-0.7 6.5zm102.6 40c-2.1-0.5-4.5-0.5-6.1-1.6c-0.8-0.5-0.7-3.6 0.1-4.7c1.7-2.3 4.4-2.1 6.1 0.2c0.9 1.1 0.7 3.1 1 4.7q-0.6 0.7-1.1 1.4zm4.3-104.9c-2.1-0.2-4.7 0.2-6-0.9c-1-0.8-0.7-4 0.1-5.4c0.6-0.9 3.2-0.6 6.1-1c-0.1 3.3-0.2 5.3-0.2 7.3zm-34.5-141.1c-0.8-1.1-0.5-4.1 0.4-5.4c1.5-1.9 4.3-2.1 5.8 0.1c0.9 1.4 0.3 3.6 0.4 6.8c-3.1-0.6-5.7-0.4-6.6-1.5zm57.9-554c-1.9-1.5-1.9-3.8 0.1-5.5c1.9-1.6 4.5-2.1 5.9 0.1c0.9 1.4 0.2 3.7 0.1 7c-2.8-0.7-4.9-0.6-6.1-1.6zm-131.8 794.7c-1.8 2.2-4.2 1.7-6.2-0.3c-1.6-1.6-2.3-3.7-0.3-5c1.5-1 3.8-0.7 6.9-1.1c-0.1 3.1 0.5 5.4-0.4 6.4zm214.2-305c-0.8-1.2-0.5-4.4 0.2-4.7c1.9-0.8 4.2-0.6 6.4-0.8q0.1 2.8 0.2 5.6c-3 2-5.3 2.1-6.8-0.1zm-80.7-529.5c1.3-1 3.8-0.5 5.7-0.7c-0.1 2.2 0.3 4.6-0.6 6.5c-0.3 0.8-3.2 0.5-6.5 0.9c0.6-3.2 0.4-5.8 1.4-6.7zm205.8 216.9c-0.4 1.8-0.3 4.5-1.4 5.2c-1.3 0.9-4.1 0.7-5.5-0.2c-2-1.3-1.9-4 0.2-5.4c1.4-0.9 3.6-0.7 5.4-1q0.6 0.7 1.3 1.4zm170.7-92.8c-0.7-1.1-0.6-3.6 0.2-4.4c2.2-2.2 4.8-1.4 6.6 0.7c0.8 1 0.5 2.9 0.7 4.1c-3.3 1.9-5.9 2.1-7.5-0.4zm-29.2-110.3c0.7-0.9 3.6-0.8 4.8-0.1c1.9 1.1 1.6 5.8-0.3 6.7c-1.4 0.7-3.3 0.2-6.3 0.2c0.7-3.1 0.7-5.4 1.8-6.8zm-745.5 357.4c-0.8-1-0.6-3.8 0.2-4.8c1.9-2.1 4.7-2.1 6.7 0.2c0.8 0.9 0.5 2.9 0.6 3.9c-3 2.2-5.6 3-7.5 0.7zm872.4-33.1c-0.5-2.3-0.3-4.8-0.3-7.3c1.7 0.3 4.3 0 4.8 0.9c1 1.9 0.8 4.3 1.2 7.7c-2.9-0.6-5.5-0.6-5.7-1.3zm-494.7 258.1c-0.4 0.6-3.9 0.2-5.1-0.8c-2-1.6-1.7-4.3 0.5-5.8c1.1-0.8 3-0.5 6.1-1c-0.6 3.5-0.5 5.9-1.5 7.6zm-66.1-212.7c-0.5-0.2-0.1-4.3 0.5-4.5c2-0.7 4.4-0.5 6.5-0.1c0.4 0.1 0.2 3 0.4 6c-3.3-0.6-5.6-0.6-7.4-1.4zm64.9 247.4c-0.9 0.8-4.2 0.3-5.5-0.7c-2-1.5-1.6-4.1 0.4-5.5c1.3-0.9 3.4-0.6 6.5-1.1c-0.5 3.5-0.2 6.2-1.4 7.3zm131.4 74c-0.9-1.2-0.7-4.3 0.3-5.4c1-1 4.2-1 5.4-0.2c1 0.8 0.6 3.5 0.9 6.6c-3.2-0.4-6 0-6.6-1zm62-657.9c-1.9-1.5-1.9-4.2 0.2-5.4c1.5-0.9 3.9-0.5 5.8-0.6c0.1 2 0.2 4.1 0.3 7.5c-3-0.6-5.1-0.5-6.3-1.5zm345.7 49.3c-2-1.9-1.4-4.2 0.5-5.9c1.8-1.6 4.3-2.3 5.5 0c0.8 1.4-0.1 3.9-0.4 7c-2.6-0.5-4.7-0.2-5.6-1.1zm-516.2-131.2c0.7-1.5 5.6-0.7 6.3 1.2c0.5 1.5 0.2 4.1-0.8 4.9c-1.3 1-3.6 0.5-6.8 0.8c0.5-3.3 0.5-5.3 1.3-6.9zm81.9 495.1c0.3-1.7 0.1-3.8 1-5c1.7-2.1 4.1-1.6 6 0.1c1.9 1.7 1.9 4 0.1 5.2c-1.6 0.9-3.9 0.7-5.9 1q-0.6-0.7-1.2-1.3zm215.1-100.8c1.4-0.8 4.4-0.6 5.4 0.4c1 1 1.1 4.2 0.2 5.4c-0.8 1-3.6 0.4-6.6 0.6c0.4-3.1 0.1-5.9 1-6.4zm-283.4 238.8c-1.8-0.5-4.3-0.6-5.2-1.8c-0.8-1.2 0-3.6 0.1-5.5c1.9 0.2 4.4-0.3 5.5 0.8c1.1 0.9 0.7 3.5 1 5.3q-0.7 0.6-1.4 1.2zm296.3-406.1c-1.9-0.3-4.2-0.1-5.7-1c-2-1.3-2.3-4-0.1-5.4c1.4-0.8 3.7-0.3 6.8-0.5c-0.4 3.1-0.7 5-1 6.9zm-343.3 715.5c-1.7 2-4.6 2.2-6.2-0.1c-0.8-1.2-0.8-4.2 0.1-5c1-1 3.5-0.6 6.3-0.8c0 2.8 0.6 5-0.2 5.9zm351.4-923.6c-1.8-0.2-3.9 0-5.2-0.9c-1.9-1.4-3.1-4-0.8-5.8c1.2-0.9 3.6-0.3 6.7-0.4c-0.3 3.2-0.5 5.1-0.7 7.1zm62.6 175.1c-1.9 2.1-4.6 2.1-6.2-0.2c-0.8-1.2-0.7-4.4 0.2-5c1.4-0.9 3.8-0.5 7-0.7c-0.5 2.9-0.2 4.9-1 5.9zm-315.3 711.9c0.2-0.5 3.5-0.5 4.7 0.3c2 1.4 1.7 5.5-0.4 6.6c-1 0.7-2.6 0.3-5.2 0.5c0.3-3.2 0.2-5.5 0.9-7.4zm273.4-572.8c-1.7-0.2-3.9 0.2-5-0.7c-2.1-1.7-1.7-4.4 0.3-5.9c1.2-0.7 4-0.8 4.7 0.1c1.1 1.1 1 3.4 1.3 5.2q-0.6 0.6-1.3 1.3zm0.1-110.9c0.9-0.6 3.4-0.4 4.3 0.4c2 1.8 2.6 4.6 0.4 6.5c-1 0.9-3.2 0.2-4.1 0.2c-2.5-3-3-5.3-0.6-7.1zm73.8 9.6c-0.6 0.7-3.9 0.4-5.1-0.6c-2-1.6-1.6-4.3 0.5-5.8c1.1-0.8 3.1-0.3 6.1-0.6c-0.6 3.2-0.4 5.6-1.5 7zm-68.5-142.6c-1.8-1.5-2.1-4.1 0.1-5.5c1.5-0.9 3.7-0.4 5.7-0.6c0 2 0 4 0 7.2c-2.7-0.5-4.7-0.3-5.8-1.1zm-257.2 301.6c-0.7-0.8-0.4-3.4 0.4-4.3c1.8-2 4.5-2.9 6.7-0.7c0.8 0.9 0.3 2.9 0.4 3.9c-2.9 2.2-5.4 3.4-7.5 1.1zm250.9-22.4c-1.7-0.4-3.8-0.3-4.8-1.3c-1.9-1.9-2.1-4.6 0.2-6.2c0.9-0.7 3.8-0.3 4.3 0.6c1.1 1.6 1.1 3.9 1.5 5.9q-0.6 0.5-1.2 1zm-299.4 364.2c1.6-2 3.9-1.6 5.5 0.3c1.6 1.7 1.7 4-0.4 5.1c-1.6 0.8-3.8 0.4-7 0.6c0.8-2.9 0.9-4.9 1.9-6zm119.3-233.8c-0.9 0.9-4 0.8-5-0.1c-2-1.7-1.6-4.3 0.5-5.8c1.2-0.8 3.1-0.4 6.2-0.8c-0.7 3.2-0.6 5.6-1.7 6.7zm-63.1-281.5c0.2-1.5 0.1-4.2 0.7-4.4c2.1-0.6 4.4-0.4 6.6-0.4c0 1.5 0.1 3 0.2 5.7c-3.2-0.4-5.3-0.6-7.5-0.9zm-93 693.7c-1.6-0.5-4.2-0.7-4.7-1.8c-0.8-1.5 0.1-3.7 0.2-5.7c1.8 0.3 4.4-0.1 5.1 0.9c1 1.3 0.6 3.7 0.8 5.6q-0.7 0.5-1.4 1zm417.1-818.4c-0.8 0.8-3.8 0.6-5-0.3c-1.9-1.5-2-4.2 0.3-5.7c1.2-0.8 3.2-0.3 6-0.5c-0.5 3-0.2 5.4-1.3 6.5zm96.1 73.2c-0.8-1.4-0.7-4.1 0.2-5.5c0.5-0.7 3.9-0.6 5 0.3c1 0.7 0.7 3.2 1.2 6.2c-3.2-0.4-6-0.1-6.4-1zm-317.3 231.2c-1.7-0.4-4.3-0.3-5-1.3c-0.8-1.4-0.1-3.7-0.1-5.6c1.7 0.1 4.2-0.6 5.1 0.3c1.2 1.1 0.9 3.5 1.3 5.4q-0.6 0.6-1.3 1.2zm-276.3-186.4c0.1-1.7-0.3-3.8 0.6-4.9c1.7-2.1 4.4-2.2 6.4-0.4c0.8 0.8 0.3 2.9 0.5 5.5c-3.1-0.1-5.3-0.2-7.5-0.2zm456.4-120.3c0.3-1.5 0.2-3.4 1.1-4.4c1.4-1.5 3.6-3.6 5.4-0.9c0.9 1.2 0.8 4.2-0.1 5.4c-0.8 1.1-3.4 0.9-5.2 1.3q-0.6-0.7-1.2-1.4zm-217.1 368c-0.5 2-0.6 4.3-1.7 5.8c-0.5 0.7-3.7 0.6-4.6-0.2c-1.9-1.8-1.4-4.4 0.7-5.9c1.1-0.8 2.9-0.6 4.4-0.9q0.6 0.6 1.2 1.2zm174.7-160.6c-2-1.9-1.7-4.5 0.6-6c1.2-0.8 3.2-0.2 4.9-0.3c0 2.2 0 4.3 0 7.5c-2.7-0.5-4.6-0.3-5.5-1.2zm-148.2 236.7c-2-1.6-2.2-4.3 0-5.7c1.3-0.8 4.3-0.7 5.2 0.2c1 1 0.5 3.5 0.8 6.6c-2.9-0.5-4.9-0.2-6-1.1zm-291.3 301.2c-2-1.5-2.5-4.2-0.3-5.8c1.1-0.8 4.1-0.7 5.2 0.3c1.1 0.9 0.8 3.4 1.3 6.6c-3.1-0.5-5.1-0.2-6.2-1.1zm405.7-539.7c-0.6-1.7-0.6-4.2 0.4-5.7c1.1-1.9 3.8-2 4.9 0.1c0.8 1.5 0.4 3.8 0.6 6.8c-2.9-0.5-5.6-0.4-5.9-1.2zm-147.9 307.5c-0.2 0.4-3.4 0.5-4.3-0.3c-2-1.7-2.7-4.3-0.3-6.2c0.9-0.7 2.9-0.2 5.6-0.4c-0.4 3-0.3 5.1-1 6.9zm-242 18.8c-0.4 1.4-0.4 3.2-1.3 4.2c-1.8 1.9-4.3 2-5.9 0c-0.8-0.9-0.8-4.1-0.2-4.3c1.9-0.9 4.2-0.9 6.3-1.3q0.5 0.7 1.1 1.4zm405.3-569.4c-1.8 2.2-4.4 1.5-5.8-0.5c-0.8-1.1-0.9-4.2-0.2-4.6c1.5-0.9 3.6-0.6 6.6-1c-0.2 2.9 0.2 5-0.6 6.1zm14.6 343.2c1.3-2.1 3.2-1 4.6 0.6c1.5 1.8 2.7 4.1 0.6 5.9c-1.1 0.9-3.4 0.3-6.5 0.5c0.5-3.2 0.3-5.5 1.3-7zm-377.5 23.8c-1.9 0.5-4.1 0.1-6.2 0c0.2-1.7-0.2-4.3 0.6-4.8c1.7-0.9 4-0.6 7.3-0.9c-0.8 2.9-0.9 5.4-1.7 5.7zm635.9-251.1c-1.5 0.9-3.8 0.2-5.7 0.2c0.1-1.8-0.5-4.1 0.5-5.2c0.8-1.1 3.2-0.8 6.4-1.4c-0.5 3.1-0.3 5.8-1.2 6.4zm-316.3-83.1c0.4-1.4 0.4-3.3 1.3-4.2c1.9-1.8 4.5-2.2 6.3-0.1c0.7 0.9 0.4 3.9-0.3 4.2c-1.8 1-4.1 1-6.3 1.4q-0.5-0.6-1-1.3zm69.3 171.5c-0.5 1.9-0.6 4.2-1.7 5.8c-0.4 0.6-3.4 0.4-4.5-0.4c-1.9-1.5-1.8-4 0.2-5.5c1.2-0.8 3.2-0.7 4.8-1.1q0.6 0.6 1.2 1.2zm35.6-27.8c-1.5 1.8-4.1 1.9-5.4-0.3c-0.7-1.4-0.6-4 0.3-5.2c0.8-1 3.2-0.6 6.3-1c-0.5 3.2-0.2 5.3-1.2 6.5zm-235.2-183.2c-2-0.3-4.3-0.2-6.1-1.1c-0.5-0.2-0.4-4 0.4-4.5c1.4-0.8 3.6-0.3 6.6-0.4c-0.4 2.8-0.6 4.4-0.9 6zm339.1 83.3c-0.7-1.7-0.8-4.1 0-5.7c0.3-0.7 4-1 4.8-0.1c1 1.1 0.7 3.5 1.1 6.5c-2.9-0.3-5.6 0-5.9-0.7zm-481.7 815.1c-1 0.8-4.4 0.3-5-0.6c-0.8-1.4-0.6-4.2 0.4-5.5c0.6-0.9 3.3-0.3 6.5-0.4c-0.8 3.2-0.8 5.6-1.9 6.5zm92.6-692.6c-0.4-0.2-0.2-3.8 0.3-3.9c2.1-0.6 4.3-0.6 6.5-0.8c0.2 1.5 0.3 3 0.5 5.9c-3.2-0.4-5.4-0.6-7.3-1.2zm-47.9 452.3c-1.8-0.5-4.1-0.4-5-1.6c-0.9-1.1-0.4-3.4-0.5-5.2c1.8 0.2 4.2-0.3 5.3 0.6c1.1 1 0.9 3.4 1.3 5.1q-0.6 0.6-1.1 1.1zm180.8-167.7c-1.5 0.7-4.2 0.4-5.4-0.6c-0.8-0.7-0.6-3.9 0.3-4.9c0.8-0.9 3.2-0.5 6.2-0.8c-0.5 3.1-0.3 5.9-1.1 6.3zm181.7-171.7c-0.2 1.8 0 3.9-0.9 5.1c-1.6 2.2-4.2 1.3-5.4-0.5c-0.8-1-0.7-3.7 0.2-4.6c0.9-1 3.1-0.9 4.8-1.3q0.7 0.7 1.3 1.3zm-152.8 171.8c-0.7-0.7-0.2-4.3 0.5-4.5c1.6-0.6 4-0.5 5.5 0.2c0.8 0.4 0.3 3.1 0.5 6.2c-3.1-0.8-5.3-0.8-6.5-1.9zm-285.2-497.9c-2.1 1.9-4.7 1.4-6.2-0.8c-0.7-0.9-0.5-4 0.1-4.2c1.8-0.7 3.9-0.5 6.9-0.7c-0.3 2.8 0 4.9-0.8 5.7zm130.9 39.8c-0.3-0.2-0.1-3.4 0.7-4.3c2-2 4.6-1.6 6.3 0.4c0.7 0.9 0.2 2.7 0.3 5.5c-3.2-0.6-5.4-0.8-7.3-1.6zm415.7 158.5c-1.5-0.6-3.8-0.8-4.3-1.9c-0.7-1.5-0.1-3.7 0-5.6c1.5 0.2 3.8-0.2 4.3 0.6c1 1.6 1 3.8 1.5 5.7q-0.8 0.6-1.5 1.2zm-367.4 504.9c-2.1-0.1-4.3 0.2-6-0.7c-0.7-0.3-0.5-3.8 0.4-4.9c0.7-0.9 3.2-0.3 5.9-0.4c-0.2 2.8-0.2 4.4-0.3 6zm438.8-538.5c-0.8 0.9-3.8 0.8-5 0c-2-1.3-1.9-3.8 0-5.4c1.2-0.8 3.1-0.7 6-1.4c-0.4 3.3 0 5.6-1 6.8zm-667.9 41.6c-0.6-0.2-0.4-4 0-4.1c2.1-0.5 4.3-0.6 6.4-0.4c0.3 0.1 0.3 2.8 0.5 5.6c-3-0.4-5.2-0.3-6.9-1.1zm-132.2-5.5c-2 0.4-4.1 0.1-6.2 0.1c0-1.7-0.4-4.5 0.2-4.8c1.8-0.7 4-0.4 7.1-0.5c-0.5 2.6-0.5 5.1-1.1 5.2zm297.6 220.6c-0.7-0.3-0.4-4.1 0-4.2c2-0.4 4.2-0.6 6.1-0.1c0.6 0.2 0.5 2.9 0.9 5.8c-3.2-0.6-5.3-0.6-7-1.5zm-20.4 486.6c-0.4-1.9 0.1-4 0.2-6.1c1.5 0.1 4.2-0.2 4.4 0.4c0.6 1.8 0.3 4 0.4 7.3c-2.6-0.8-4.9-0.9-5-1.6zm122.9-447.3c-0.8-1.1-0.1-3.4-0.1-5.2c1.9 0.1 4.1-0.3 5.7 0.5c0.8 0.4 0.4 3 0.7 5.9c-3-0.5-5.4-0.2-6.3-1.2zm-290.4 300.8c-0.9-1.1-0.2-3.4-0.1-5.2c1.9 0.1 4-0.3 5.7 0.4c0.7 0.3 0.3 3 0.5 6c-2.9-0.5-5.3-0.2-6.1-1.2zm63.6-553.8c-1.9 0.5-4.1 0.4-6-0.1c-0.4-0.1-0.7-3.9-0.1-4.2c1.7-0.9 3.8-0.8 7-1.3c-0.4 2.9-0.3 5.4-0.9 5.6zm483.1-49.4c-0.8-0.6-0.7-4.3-0.1-4.5c1.6-0.7 3.9-0.9 5.5-0.2c0.8 0.4 0.8 2.9 1.4 5.9c-3.2-0.5-5.4-0.2-6.8-1.2zm-294.1 510.1c-1.2 0.8-3.5 0.1-5.3 0.1c0.2-1.9-0.2-4 0.7-5.6c0.4-0.7 2.9-0.3 5.9-0.6c-0.6 3-0.3 5.5-1.3 6.1zm-141.9 63.2c-1.1 0.9-3.4 0.3-5.2 0.3c0-1.9-0.5-4 0.2-5.6c0.3-0.7 2.9-0.5 5.8-0.8c-0.3 2.9 0.1 5.4-0.8 6.1zm465.6-432.3c-0.4-2-0.3-4.2 0.3-6.1c0.2-0.5 4-0.6 4.2-0.1c0.7 1.7 0.6 3.8 0.9 6.9c-2.7-0.3-5.4-0.3-5.4-0.7zm-65.1-2.8c-1.5 1.8-4.1 1.9-5.5-0.2c-0.7-1.2-0.8-4.1 0-4.7c1.4-1 3.6-0.8 6.8-1.3c-0.6 3-0.4 5.1-1.3 6.2zm2.7-69.1c-1 0.8-3.7 0.6-4.8-0.2c-1.9-1.5-1.8-4.1 0.3-5.4c1.1-0.8 3.1-0.3 6.1-0.5c-0.7 2.9-0.6 5.2-1.6 6.1zm-412.3 573.5c0.4-1.8 0.2-4.1 1.2-5.3c0.8-0.8 3.2-0.1 4.9-0.1c0 1.8 0.5 3.9-0.3 5.2c-0.6 1-3 0.9-4.5 1.3q-0.6-0.5-1.3-1.1zm126.8-382.6c0.8 1.1 0.7 4-0.3 5c-0.8 0.9-3.9 1-4.9 0.2c-1-0.9-0.7-3.3-1.2-6.5c3.2 0.6 5.7 0.3 6.4 1.3zm104.6-23.2c-1.7-0.4-4.2-0.4-4.9-1.4c-0.7-1.2-0.3-3.8 0.7-5.1c0.4-0.7 3.7-0.5 4.5 0.4c1 1 0.8 3.3 1 5q-0.6 0.5-1.3 1.1zm-183.5 234.3c-1.7 0.5-4 0.3-5.5-0.6c-0.7-0.4-0.7-3.9 0.1-4.6c1.1-0.9 3.4-0.5 6.3-0.7c-0.4 2.8-0.3 5.7-0.9 5.9zm55-624.4c0.5-1.4 0.6-3.6 1.5-4c1.8-0.6 4-0.3 6.1-0.3c-0.1 1.4 0.3 3.7-0.3 4c-1.8 1-4 1.2-6.1 1.7q-0.6-0.7-1.2-1.4zm-170.1 758.4c-0.7-1.2-0.6-4.1 0.4-5c1-0.9 3.9-0.9 5.1-0.1c0.9 0.7 0.5 3.3 0.7 6.4c-3-0.5-5.5-0.3-6.2-1.3zm360.7-297.4c0.2-2 0-4.1 0.8-5.9c0.2-0.6 4-0.7 4.2-0.2c0.7 1.7 0.4 3.7 0.6 6.5c-2.6-0.2-4.1-0.3-5.6-0.4zm227-309.5c-0.4 1.8-0.4 4-1.5 5.3c-0.5 0.7-4.1 0.3-4.3-0.3c-0.6-1.7-0.6-3.9 0-5.6c0.3-0.7 3-0.4 4.6-0.6q0.6 0.6 1.2 1.2zm-520.3 679.6c-2-1.7-1.9-4.3 0.1-5.8c0.9-0.8 4-0.8 4.3-0.2c0.9 1.7 0.8 3.9 1.3 7c-2.8-0.4-4.7-0.2-5.7-1zm582.3-636.6c-0.9-1.2-0.3-3.5-0.4-5.3c1.6 0.1 3.9-0.5 4.8 0.3c1.1 1.1 1 3.3 1.8 6.4c-3.1-0.6-5.5-0.4-6.2-1.4zm-495.7 186.9c-0.3-0.1 0.1-3.9 0.7-4.1c1.9-0.6 4.1-0.4 6 0c0.4 0.1 0.2 2.7 0.3 5.5c-3.1-0.6-5.2-0.7-7-1.4zm-43.6 208.1c0.4-1.6 0.4-4 1.4-4.5c1.4-0.7 3.7-0.4 5.1 0.4c0.7 0.4 0.7 3.8 0 4.2c-1.5 1-3.6 0.9-5.5 1.2q-0.5-0.6-1-1.3zm-34.7 166.9c-0.4 1.7-0.3 3.9-1.3 4.9c-0.9 0.8-4.1 0.7-4.6-0.1c-0.8-1.3-1-3.9-0.2-5c0.8-1 3.2-0.8 4.9-1.1q0.6 0.7 1.2 1.3zm-36.5 3.9c-1 0.8-4.2 0.7-4.7-0.1c-0.9-1.2-0.8-3.8-0.1-5.1c0.5-0.9 3-0.6 6-1.1c-0.5 3.1-0.2 5.4-1.2 6.3zm305.6-752.7c0.1-1.5-0.4-3.5 0.4-4.4c1.5-1.9 4-2.4 5.8-0.3c0.8 1 0.6 2.7 1 5.2c-3.1-0.2-5.2-0.3-7.2-0.5zm241.2 44.8c-0.6-1.5-0.8-4.2 0.1-5c0.9-1 3.4-0.4 5.1-0.4c0.1 1.8 0.1 3.6 0.1 6.4c-2.5-0.4-4.9-0.3-5.3-1zm-227.2 471.6c0.9-0.8 3.9-0.4 4.6 0.5c0.8 1 0.6 3.8-0.3 4.8c-0.8 0.9-3.1 0.5-6.3 0.9c0.9-3 0.9-5.4 2-6.2zm76.9-205c1.3-0.8 3.6-0.6 5.1 0.1c0.7 0.3 1 3.5 0.2 4.2c-1.1 1-3.2 1-6 1.8c0.2-3-0.2-5.7 0.7-6.1zm-102.2-69c0.3-1.5 0.4-3.9 1.1-4.2c1.7-0.6 3.8-0.1 5.7 0c-0.1 1.5 0.4 3.9-0.4 4.4c-1.4 1-3.6 0.8-5.4 1.1q-0.5-0.6-1-1.3zm-229.6 478.2c0.6-1.4 0.8-3 1.7-4c1.7-1.8 4-1.9 5.5 0.1c0.6 1 0.5 3.7-0.2 4c-1.7 0.9-3.9 1-5.9 1.3q-0.5-0.7-1.1-1.4zm274-690.7c1.7 0.5 3.8 0.8 5.2 1.8c0.6 0.5 0.1 3.8-0.3 3.9c-1.8 0.3-4 0.4-5.7-0.3c-0.6-0.2-0.3-2.8-0.4-4.3q0.6-0.6 1.2-1.1zm-86.3 385.8c0.3-1.6 0.2-3.8 1.2-4.6c1.1-0.8 3.8-0.8 4.7 0c0.9 0.7 0.9 3.8 0.1 4.5c-1 1.1-3.2 0.9-5 1.2q-0.5-0.5-1-1.1zm3.9 35.6c-1.7-0.4-3.9-0.2-4.9-1.3c-0.9-0.8-0.3-3.1-0.3-4.7c1.8 0 3.9-0.5 5.2 0.3c1 0.6 0.8 3 1.1 4.6q-0.5 0.5-1.1 1.1zm292.1-446.2c0.8-0.9 3.1-0.2 4.8-0.2c-0.1 1.9 0.1 4-0.5 5.8c-0.3 0.6-2.8 0.3-5.6 0.4c0.5-2.8 0.3-5 1.3-6zm-300.2 514.6c-0.8-0.9-0.6-3.6 0.2-4.8c1.4-1.9 3.8-1.6 5 0.3c0.8 1.2 0.6 3.1 1.1 6.2c-3.1-0.7-5.4-0.6-6.3-1.7zm406.1-405.9c-0.4 1.5-0.3 3.7-1.3 4.4c-1.1 0.8-3.2 0.3-4.8 0.3c0.1-1.7-0.4-3.8 0.4-4.9c0.8-1 3-0.7 4.6-1q0.6 0.6 1.1 1.2zm-69.7 1c-1.9 1.6-4.4 2.3-6.2 0c-0.7-0.9-0.6-3.7 0-3.9c1.6-0.8 3.6-0.7 6.3-1c0 2.4 0.6 4.3-0.1 4.9zm-225.3 374.6c-0.6 0.7-4.1 0.3-4.3-0.1c-0.4-1.8-0.3-4 0.2-5.8c0.1-0.4 2.7-0.1 5.4-0.1c-0.5 2.7-0.3 4.8-1.3 6zm-229.3 372.9c-0.4-1.7-0.5-4 0.4-5.3c0.6-0.8 3.9-0.9 4.6-0.1c0.9 1 0.4 3.3 0.6 6c-2.7-0.3-5.4-0.1-5.6-0.6zm-22.3-315.2c-0.5-0.3-0.2-3.7 0.3-3.9c1.8-0.7 3.9-0.8 5.7-0.3c0.5 0.1 0.4 2.8 0.7 5.6c-3.1-0.5-5.1-0.6-6.7-1.4zm187.3-339.9c0.4-1.2 0.6-3.3 1.3-3.4c2-0.6 4.1-0.4 6.2-0.4c-0.2 1.4 0.1 3.7-0.7 4c-1.7 0.8-3.9 0.8-5.8 1.1q-0.5-0.7-1-1.3zm291.1-161.3c-1 0.8-3.8 0.7-4.6-0.1c-0.8-0.8-0.8-3.6 0-4.6c0.9-0.9 3.1-0.8 5.9-1.3c-0.6 2.9-0.3 5.2-1.3 6zm-485.2 670.5c1.3-0.8 3.4-0.2 5.2-0.2c-0.1 1.6 0.3 3.7-0.5 4.8c-0.8 0.9-3 0.8-5.9 1.4c0.5-3 0.3-5.4 1.2-6zm195.9-543.8c0.3-1.2 0.2-2.8 1-3.5c1.8-1.9 4.3-2.3 6.3-0.4c0.6 0.6 0.2 3.5-0.5 3.9c-1.7 0.9-3.9 0.9-5.9 1.3q-0.4-0.7-0.9-1.3zm-6.8 173.4c-0.4-0.1-0.2-3.6 0.3-3.8c1.8-0.5 3.9-0.5 5.8-0.2c0.4 0.1 0.3 2.6 0.6 5.1c-2.9-0.4-4.9-0.4-6.7-1.1zm144.5-96.7c-0.8-1-0.7-3.8 0.1-4.6c0.9-0.9 3.7-0.9 4.7-0.1c0.9 0.7 0.6 3.1 1 5.9c-2.8-0.5-5-0.3-5.8-1.2zm-264.4-220.6c-1.8 1.7-4.2 1.7-5.5-0.5c-0.7-0.9-0.4-3.7 0.1-3.9c1.6-0.8 3.7-0.6 6.8-0.9c-0.7 2.8-0.6 4.5-1.4 5.3zm-176.6 758.3c-0.8-0.7-0.1-3 0-4.6c1.7 0.1 3.8-0.2 5.1 0.6c0.9 0.5 0.7 2.7 1.2 5.6c-3-0.7-5.1-0.6-6.3-1.6zm231.2-408.4c-1.2 0.8-3.3 0.3-5 0.3c0-1.6-0.7-3.8 0.1-4.8c0.8-0.9 3.1-0.6 5.8-1c-0.4 2.7-0.1 5-0.9 5.5zm-95.6 518.1c-0.3-1.8-0.1-3.9 0.5-5.7c0.2-0.4 3.8-0.3 4 0.1c0.6 1.8 0.4 3.8 0.5 6.8c-2.6-0.6-5-0.7-5-1.2zm269.8-649.8c-0.7-0.6 0-3 0.1-4.5c1.8 0 3.8-0.4 5.2 0.4c0.8 0.4 0.6 2.7 1.1 5.6c-3.1-0.6-5.2-0.5-6.4-1.5zm-1.5 34.2c-0.6-0.4 0-2.7 0.1-4.1c1.9 0.1 3.9-0.2 5.6 0.4c0.6 0.3 0.5 2.5 1 5.3c-3.2-0.7-5.2-0.7-6.7-1.6zm-438.5 500.3c1.5-0.7 3.5-0.2 5.3-0.2c-0.1 1.5 0.4 3.6-0.4 4.4c-1 0.9-3 0.8-5.8 1.3c0.4-2.7 0.2-5.2 0.9-5.5zm-267.5-81.8c1 1.7 0.6 4.1 0.8 6.1q-0.8 0.3-1.7 0.5c-1.8-2.5-3.6-5-5.6-7.7c2.9-1.8 5.3-1.2 6.5 1.1zm459.4-324.6c-0.7-0.6-0.2-2.7-0.3-4.2c1.9 0 3.9-0.5 5.4 0.2c0.8 0.4 0.6 2.7 1.2 5.7c-3-0.8-5-0.8-6.3-1.7zm283.1-21.5c-0.8 0.7-3.8 0.5-4.3-0.3c-0.7-1.2-0.8-3.7 0-4.8c0.7-0.8 3.1-0.4 6-0.7c-0.8 2.8-0.7 5-1.7 5.8zm-258.3 371.5c-1.8-0.2-4 0.1-5.2-0.8c-0.7-0.5-0.3-3.4 0.5-4.6c0.4-0.7 2.8-0.1 5.2 0c-0.2 2.3-0.4 3.9-0.5 5.4zm-70.3-112.3c1.3-0.7 3.6-0.4 4.8 0.4c0.6 0.5 0.6 3.5-0.2 4.2c-1.1 0.8-3.1 0.5-5.9 0.9c0.6-2.8 0.5-5.1 1.3-5.5zm-17.5 421.7c-0.6-1.8-0.2-3.9-0.2-5.8c1.4 0.1 3.7-0.2 4 0.4c0.8 1.7 0.8 3.8 1.3 7.1c-2.7-0.8-4.9-1-5.1-1.7zm312.9-822.1c-0.8-1-0.2-3.1-0.2-4.8c1.7 0.1 3.7-0.3 4.8 0.5c0.9 0.5 0.7 2.7 1.2 5.4c-2.8-0.4-5.1-0.2-5.8-1.1zm-42.6 311.7c-1.1 0.7-4 0.4-4.6-0.5c-0.7-1.3-0.1-3.4 0-5.2c1.5 0.1 3 0.2 5.5 0.4c-0.3 2.4 0 4.9-0.9 5.3zm178.6-270.9c0.5-1.8 0.5-3.9 1.5-5c0.7-0.8 2.9-0.1 4.5-0.1c-0.3 1.7-0.2 3.7-1 5.2c-0.4 0.8-2.5 0.7-3.9 0.9q-0.5-0.5-1.1-1zm-60.1-211.7c0.3-1.3 0.4-3.6 1.1-3.9c1.8-0.6 3.8-0.2 5.7-0.1c0 1.2 0.3 3.3-0.3 3.6c-1.6 0.9-3.6 1.1-5.5 1.6q-0.5-0.6-1-1.2zm242 150.9c-1.3-0.5-3.4-0.7-3.7-1.5c-0.7-1.6-0.3-3.5-0.3-5.3c1.3 0.1 3.4-0.3 3.7 0.3c1 1.6 1.1 3.6 1.6 5.4q-0.7 0.5-1.3 1.1zm-42.3 101.2c-0.2-2 0-4 0.5-5.9c0.1-0.3 3.5-0.3 3.8 0.3c0.8 1.5 0.5 3.5 0.8 6.3c-2.6-0.3-5.1-0.4-5.1-0.7zm-579.6 532.5c-0.6-1.6-0.3-3.6-0.3-5.4c1.4 0 3.6-0.6 4.1 0.1c0.9 1.3 0.9 3.3 1.6 6.3c-2.8-0.4-5.1-0.3-5.4-1zm117.7-308.3c-0.6-1.5 0-3.5 0.1-5.2c1.5 0.1 3.6-0.2 4.4 0.7c0.9 1 0.6 3 1 5.8c-2.8-0.6-5.2-0.5-5.5-1.3zm-576-238.3q0.8 0.1 1.7 0.2c0.3 1.9 1.2 4 0.6 5.5c-1 2.6-3.5 3.5-6.9 2.5c1.6-3 3.1-5.6 4.6-8.2zm524.4-76.4c-1.8-0.4-3.9-0.4-5.1-1.4c-0.7-0.5 0.2-2.9 0.3-4.4c1.7 0.2 3.6 0.1 4.9 0.9c0.8 0.4 0.7 2.5 1 3.8q-0.6 0.6-1.1 1.1zm-170.1 722.7c-1.4 0.6-3.3 0.2-5 0.2c0.1-1.7-0.6-3.9 0.3-4.8c0.7-0.9 3.1-0.3 5.8-0.3c-0.4 2.4-0.3 4.6-1.1 4.9zm366.1-540.8c-0.7-1.5-0.3-3.5-0.4-5.3c1.4 0 3.5-0.6 4 0.1c1 1.3 1 3.3 1.8 6.4c-2.8-0.6-5-0.5-5.4-1.2zm108-100.7c-0.6-0.5 0-3.9 0.4-4c1.7-0.3 3.8-0.2 5.3 0.5c0.6 0.3 0.3 2.6 0.4 5.4c-2.9-0.8-4.9-0.9-6.1-1.9zm-243.7 129.2c-1.3 0.6-3.2 0-4.9-0.1c0.1-1.6-0.4-3.8 0.5-4.7c0.8-0.8 3-0.3 5.9-0.4c-0.7 2.6-0.7 4.8-1.5 5.2zm-199.7 513.5c-0.6-1.3-0.1-3.3 0-5c1.5 0.2 3.5-0.1 4.5 0.7c0.8 0.8 0.6 2.9 1 5.6c-2.7-0.6-5-0.4-5.5-1.3zm456.5-924.3c1.6-0.5 3.5 0.1 5.3 0.2c-0.2 1.4 0 3.7-0.7 4c-1.5 0.8-3.5 0.6-6.5 0.9c0.9-2.6 1.1-4.8 1.9-5.1zm24.2 248.8c-0.3-1.7-0.1-3.7 0.6-5.3c0.1-0.4 3.5-0.4 3.8 0.3c0.7 1.3 0.4 3.2 0.5 5.8c-2.3-0.3-4.8-0.4-4.9-0.8zm35.3-38c0.7-0.7 2.8-0.1 4.4-0.1c-0.2 1.7 0.1 3.6-0.6 5.1c-0.3 0.7-2.5 0.5-5 0.9c0.5-2.8 0.2-4.9 1.2-5.9zm-258.1 305.4c0.5-1.1 0.8-3 1.6-3.3c1.5-0.5 3.3-0.1 5-0.1c-0.2 1.4 0.1 3.6-0.6 4c-1.5 0.7-3.4 0.5-5.2 0.7q-0.4-0.7-0.8-1.3zm187.8-269.1c-0.6-0.5-0.4-3.5 0.4-4.2c0.9-0.8 3.4-0.9 4.5-0.2c0.8 0.6 0.6 2.8 1.1 5.4c-2.8-0.4-4.9-0.1-6-1zm-332.4 472.3c-0.7-1-0.1-2.9 0-4.5c1.6 0.1 3.6-0.3 4.7 0.5c0.8 0.5 0.4 2.8 0.6 5.4c-2.6-0.6-4.7-0.5-5.3-1.4zm402.8-399.5c-0.3 0.6-3.5 0.3-3.6-0.1c-0.5-1.7-0.6-3.6-0.2-5.4c0.1-0.4 2.5-0.4 5.3-0.7c-0.6 3-0.7 4.8-1.5 6.2zm-400.2 296.7c0.4-1.4 0.4-3.5 1.3-4.1c1.3-0.7 3.2-0.2 4.9-0.2c-0.3 1.5-0.1 3.5-0.9 4.5c-0.9 0.8-2.8 0.7-4.3 0.9q-0.5-0.5-1-1.1zm401.3-331.7c-1 0.7-2.9 0.1-4.5 0.1c0.2-1.6-0.1-3.6 0.7-4.6c0.8-0.9 2.9-0.6 5.7-0.9c-0.8 2.7-0.9 4.7-1.9 5.4zm-652.3-137c0 2.1 0.6 4.5-0.3 6.2c-1.3 2.5-3.8 2.2-6.6 0.5c1.8-2.3 3.5-4.5 5.2-6.7q0.9 0 1.7 0zm611.9 199.2c1.5 0.4 3.6 0.3 4.4 1.2c0.7 1 0.2 3 0.2 4.6c-1.5 0-3 0-5.7 0c0.5-2.6 0.8-4.2 1.1-5.8zm82.6-200.6c-1.6 0.5-3.6 0.7-5.2 0.1c-0.5-0.2-0.8-3.6-0.1-4.2c1-0.9 3.1-0.6 5.7-0.9c-0.2 2.5 0.1 4.8-0.4 5zm-305.5 509.9c-0.8-1.1-0.2-3-0.2-4.6c1.7 0.1 3.7-0.4 4.8 0.4c0.8 0.5 0.4 2.8 0.6 5.5c-2.5-0.5-4.6-0.4-5.2-1.3zm261.1-300.9c-1.4-0.3-3.7-0.2-4-0.9c-0.7-1.5-0.3-3.5-0.3-5.3c1.4 0.1 2.7 0.1 5.2 0.1c-0.4 2.6-0.6 4.4-0.9 6.1zm-362.1 222.9c0.5-0.6 3.5-0.3 3.8 0.3c0.7 1.4 0.9 3.5 0.2 4.8c-0.4 0.8-2.8 0.5-5.5 0.8c0.6-2.8 0.6-4.7 1.5-5.9zm503.1-253.2c-0.2 0.3-3.4 0.1-3.4-0.2c-0.5-1.9-0.4-3.9-0.5-5.8c1.3-0.1 2.7-0.1 5-0.1c-0.4 2.6-0.5 4.4-1.1 6.1zm-318.8 92.9c-1.3-0.4-3.6-0.6-3.7-1.3c-0.4-1.6 0.1-3.5 0.6-5.2c0.1-0.3 3.3-0.2 3.5 0.4c0.7 1.5 0.6 3.4 0.8 5.2q-0.6 0.5-1.2 0.9zm321.2-272.3c1.5 0.3 3.7 0.1 4.3 1c0.8 1.1 0.4 3.1 0.5 4.7c-1.4 0.1-2.7 0.1-5 0.1c0.1-2.5 0.2-4.1 0.2-5.8zm-175 28.1c1.6 0.2 3.9-0.1 4.5 0.7c0.8 1.1 0.3 3.2 0.3 4.9c-1.5-0.1-3-0.2-5.3-0.4c0.2-2.3 0.4-3.7 0.5-5.2zm-297.8 479.7c-0.5-1.5-0.1-3.3 0-5c1.5 0.1 3.9-0.4 4.4 0.4c0.9 1.1 0.4 3.2 0.5 6c-2.5-0.6-4.6-0.7-4.9-1.4zm507.4-505.4c0.4-0.6 3.5-0.4 3.8 0.1c0.6 1.4 0.7 3.4 0.1 4.7c-0.3 0.7-2.5 0.6-5.1 1.1c0.5-2.8 0.4-4.7 1.2-5.9zm-425.6 300c-1.4 0.6-3.2 0.1-4.9 0c0-1.4-0.4-3.7 0.3-4.1c1.2-0.8 3.2-0.6 6.1-0.9c-0.7 2.5-0.7 4.7-1.5 5zm-230.6 408.5c-0.7-0.5-0.2-2.6-0.2-4c1.8 0.1 3.7-0.1 5.4 0.4c0.4 0.2 0.3 2.4 0.5 4.8c-2.6-0.4-4.5-0.4-5.7-1.2zm410.4-540.6c-1.4 0.6-3.3 0.2-5 0.3c0-1.5-0.5-3.6 0.2-4.2c1.1-0.9 3.1-0.7 6.1-1.2c-0.6 2.6-0.6 4.8-1.3 5.1zm-75.2 32.3c-0.8-1-0.4-3-0.4-4.5c1.6 0.1 3.4-0.3 4.7 0.5c0.8 0.4 0.7 2.5 1.2 5c-2.7-0.4-4.8-0.1-5.5-1zm251.8-198.5c-0.8-0.7-0.1-2.9 0-4.4c1.6 0.2 3.4 0.1 4.8 0.8c0.7 0.3 0.5 2.3 1 4.6c-2.8-0.4-4.8-0.1-5.8-1zm-504.7 427.3c0.9-0.7 2.9-0.2 4.4-0.3c0 1.5 0.5 3.4-0.3 4.4c-0.7 0.9-2.7 0.8-5.5 1.5c0.6-2.8 0.5-4.8 1.4-5.6zm437.8-399.4c0.7 0.8 0.4 2.7 0.5 4.1c-1.7 0.1-3.7 0.7-4.8 0c-0.9-0.6-0.7-2.9-1.2-5.7c2.7 0.7 4.6 0.6 5.5 1.6zm24.5 140.4c0.9-0.7 3.3-0.3 4.4 0.5c0.6 0.5 0.5 3.2-0.3 4c-0.9 0.8-2.8 0.7-5.5 1.2c0.6-2.8 0.4-5.1 1.4-5.7zm-613.5 639.4c-1.6 0.4-3.5 0-5.2-0.1c0.1-1.4-0.2-3.6 0.4-4c1.4-0.7 3.3-0.3 5.9-0.5c-0.5 2.3-0.5 4.4-1.1 4.6zm31.3-3.7c0.6-0.6 3.6-0.1 4 0.6c0.6 1.3 0.3 3.4-0.4 4.6c-0.6 0.7-2.6 0.4-5.2 0.7c0.7-2.8 0.7-4.8 1.6-5.9zm224.8-402.3c-0.5-0.3-0.2-3.3 0.5-3.8c1.1-0.8 3.3-0.8 4.4-0.1c0.8 0.4 0.6 2.6 1 5.1c-2.8-0.4-4.6-0.3-5.9-1.2zm-40 136.9c-0.6-1.4-0.2-3.2-0.1-4.9c1.4 0.2 3.3-0.2 4.1 0.6c0.8 0.9 0.6 2.8 1.1 5.4c-2.6-0.5-4.8-0.4-5.1-1.1zm-142.4 199.4c-0.5 1.2-0.7 3.2-1.4 3.4c-1.6 0.4-3.5 0-5.3-0.1c0.2-1.2 0-3 0.6-3.3c1.5-0.8 3.4-0.9 5.1-1.2q0.5 0.6 1 1.2zm507.7-636.9c-0.6-0.4-0.1-2.5 0-3.8c1.6 0.1 3.4-0.2 4.8 0.3c0.6 0.3 0.6 2.3 1.1 4.7c-2.8-0.5-4.6-0.4-5.9-1.2zm-72.8 235.6c-0.5 1.8-0.6 3.7-1.5 5.1c-0.4 0.7-2.5 0.2-3.7 0.3c0.1-1.7-0.1-3.6 0.6-5.1c0.3-0.8 2.2-0.9 3.4-1.3q0.6 0.5 1.2 1zm11.9-447.1c-0.5-0.3-0.2-3.5 0.1-3.5c1.7-0.3 3.6-0.4 5.1 0.2c0.6 0.2 0.6 2.3 1 4.8c-2.9-0.6-4.8-0.7-6.2-1.5zm-443.9 747.8c-1.2 0.5-3.3 0.2-4.3-0.6c-0.6-0.5-0.4-3.4 0.3-3.9c1.2-0.7 3-0.2 5.7-0.2c-0.7 2.3-0.8 4.4-1.7 4.7zm291.6-335.8c-0.7 0.7-2.7 0.1-4.1 0c0.2-1.6-0.2-3.4 0.6-4.5c0.5-0.8 2.6-0.5 5.3-0.9c-0.8 2.7-0.8 4.6-1.8 5.4zm214.8-235c-0.7-0.8-0.1-2.8 0-4.3c1.5 0.1 3.4-0.3 4.5 0.5c0.8 0.5 0.5 2.5 0.9 5c-2.6-0.5-4.7-0.3-5.4-1.2zm-286.3 161.1c0.4-1.2 0.6-3.1 1.3-3.3c1.6-0.5 3.4-0.1 5.1-0.1c-0.1 1.3 0.3 3.5-0.3 3.7c-1.5 0.8-3.4 0.7-5.2 0.9q-0.4-0.6-0.9-1.2zm-113.1 240.3c-0.7-1.1-0.1-3 0-4.5c1.5 0.2 3.5-0.1 4.5 0.7c0.7 0.6 0.3 2.7 0.4 5.1c-2.4-0.6-4.5-0.5-4.9-1.3zm161.2-411.6c-1.5 0.4-3.3 0-4.7-0.7c-0.5-0.2-0.4-3.2 0.1-3.4c1.3-0.7 3.1-0.6 6-0.9c-0.7 2.6-0.8 4.8-1.4 5zm-120.4 377.8c-1.2 0.5-3.4 0.4-4.4-0.4c-0.7-0.5-0.5-3.4 0.2-4c1-0.8 2.9-0.4 5.6-0.5c-0.6 2.4-0.6 4.5-1.4 4.9zm59.6 106.3c-0.5-1.2-0.2-3.3 0.6-4.3c0.5-0.6 3.5-0.4 3.9 0.3c0.7 1.2 0.2 3 0.3 5.7c-2.4-0.8-4.5-0.9-4.8-1.7zm-210.5 61.9c-0.5-0.3 0-3.4 0.6-3.6c1.4-0.4 3.3-0.2 4.7 0.4c0.5 0.2 0.3 2.3 0.4 4.7c-2.7-0.6-4.4-0.7-5.7-1.5zm652.9-633.6c-0.8-0.9-0.6-3.8 0.1-4.2c1.2-0.7 3.3-0.6 4.7 0c0.6 0.3 0.3 2.5 0.5 4.8c-2.5-0.2-4.7 0.2-5.3-0.6zm66.6 72.4c-0.7-1.2-0.2-3.1-0.2-4.7c1.5 0.1 3.4-0.3 4.3 0.5c0.8 0.7 0.6 2.7 1.1 5.2c-2.5-0.4-4.7-0.2-5.2-1zm-640.2 354.6c-0.7-0.8-0.3-2.7-0.4-4.1c1.6 0.1 3.5-0.3 4.9 0.4c0.7 0.4 0.6 2.6 1 5.2c-2.7-0.6-4.6-0.6-5.5-1.5zm-82 272.3c1.1-0.6 3.2-0.6 4.4 0c0.6 0.3 0.8 3.2 0.2 3.9c-0.9 0.9-2.8 0.8-5.4 1.3c0.3-2.5 0-4.7 0.8-5.2zm788-520.5c-0.3-1.6-0.3-3.4 0.2-5c0.1-0.4 3.2-0.6 3.5-0.1c0.7 1.4 0.6 3.2 1 5.8c-2.4-0.3-4.6-0.3-4.7-0.7zm-494.5 258.3c-1.4-0.1-3.6 0.2-4-0.5c-0.7-1.2-0.5-3.2 0-4.6c0.2-0.5 2.4-0.2 4.6-0.4c-0.3 2.5-0.4 4-0.6 5.5zm116.2-378.6c-0.4-0.2 0.1-2.5 0.1-3.8c1.8 0.2 3.6 0.1 5.3 0.5c0.4 0.1 0.2 2.1 0.4 4.1c-2.5-0.3-4.3-0.2-5.8-0.8zm99.9 104.4c1.6-0.2 3.4 0.2 5 0.7c0.2 0.1 0.1 2.9-0.3 3.1c-1.5 0.7-3.3 0.6-5.9 0.9c0.6-2.3 0.7-4.6 1.2-4.7zm-327 339.2c-0.7-0.8-0.2-2.7-0.3-4.1c1.5 0.1 3.3-0.2 4.5 0.4c0.7 0.3 0.5 2.3 0.9 4.7c-2.5-0.4-4.4-0.2-5.1-1zm146.1-169c-0.7-0.6 0-2.7 0-4.1c1.5 0.2 3.3-0.1 4.5 0.6c0.7 0.4 0.6 2.3 1.2 4.6c-2.8-0.4-4.7-0.2-5.7-1.1zm322.1-229.3c-0.5-1.3-0.4-3.1 0.2-4.5c0.2-0.4 3.3-0.4 3.6 0.2c0.7 1.2 0.4 3 0.6 5.6c-2.2-0.6-4.1-0.6-4.4-1.3zm-180.6 166.4c-0.6-1.3-0.3-3-0.3-4.6c1.3 0.1 3.3-0.4 3.7 0.3c0.9 1.1 0.8 3 1.4 5.8c-2.5-0.7-4.4-0.7-4.8-1.5zm179-131.5c-0.3-1.4-0.1-3.3 0.7-4.5c0.3-0.6 3.4-0.4 3.6 0.2c0.5 1.3 0.2 3 0.2 5.6c-2.2-0.6-4.4-0.8-4.5-1.3zm-494 292.7c-1.5-0.3-3.4-0.1-4.3-0.9c-0.7-0.7-0.2-2.7-0.3-4.2c1.4 0.1 3.1-0.3 4.1 0.3c0.9 0.6 1 2.4 1.5 3.7q-0.5 0.5-1 1.1zm208-95.9c-0.7-0.6-0.3-3.5 0.1-3.6c1.4-0.5 3.2-0.4 4.6 0.1c0.5 0.3 0.1 2.4 0.2 4.7c-2.3-0.5-4.1-0.4-4.9-1.2zm49.9-245.8c0.4 0.2 0.3 3.1 0 3.1c-1.6 0.4-3.3 0.5-4.9 0.2c-0.5-0.1-0.5-2.1-0.8-4.3c2.5 0.4 4.2 0.4 5.7 1zm-306.2 544.1c0.8-0.6 3.2-0.4 3.9 0.4c0.7 0.7 0.7 3.2 0 3.9c-0.7 0.8-2.7 0.4-5.1 0.6c0.5-2.3 0.3-4.3 1.2-4.9zm437.2-464.7c-0.6-0.5-0.3-3.2 0.3-3.6c1.2-0.6 3.2-0.7 4.4-0.1c0.6 0.2 0.4 2.5 0.7 5c-2.6-0.6-4.4-0.5-5.4-1.3zm3.1-69.3c-0.5-1.2 0.2-2.9 0.3-4.5c1.4 0.2 3.3-0.1 4.2 0.7c0.7 0.7 0.3 2.6 0.5 5c-2.4-0.5-4.7-0.4-5-1.2zm99.9 73.2c0.4-1.3 0.5-3.2 1.4-3.8c1-0.6 2.7-0.1 4.1 0c-0.1 1.3 0.1 3.1-0.6 3.9c-0.8 0.8-2.6 0.7-4 0.9q-0.5-0.5-0.9-1zm-607.2 497.4c-1.2-0.4-3.1-0.5-3.7-1.4c-0.6-1 0-2.8 0.1-4.2c1.4 0.2 3.2-0.1 4.1 0.7c0.7 0.7 0.5 2.5 0.7 3.9q-0.6 0.5-1.2 1zm-12.2 207.8c-0.4-1.6-0.2-3.3-0.3-5c1.3 0.1 3.3-0.2 3.7 0.4c0.8 1.2 0.6 3 1 5.4c-2.2-0.4-4.2-0.3-4.4-0.8zm225.4-1067.9c-1.8 0.3-3.8 1.2-5.5 0.7c-1.3-0.4-2.3-2.3-3.4-3.6q0.4-0.5 0.8-1q4 1.1 8.1 2.2q0 0.8 0 1.7zm-104.9 689.6c-0.7-1.1-0.2-3-0.2-4.5c1.4 0.1 3.2-0.3 4.1 0.4c0.8 0.7 0.7 2.5 1.3 5.1c-2.6-0.5-4.7-0.3-5.2-1zm186.2-201.2c-1.1 0.6-3.2 0.7-4.1 0c-0.7-0.6-0.7-3.2 0-3.9c0.7-0.8 2.7-0.4 5.2-0.6c-0.5 2.3-0.4 4.2-1.1 4.5zm36-32.3c-1 0.6-2.7 0-4.1-0.1c0.1-1.4-0.2-3.3 0.6-4.1c0.7-0.8 2.6-0.4 5.3-0.8c-0.8 2.6-0.9 4.5-1.8 5zm-120 273.3c0.5-1.4 0.6-3.1 1.5-4c0.8-0.7 2.5-0.4 3.8-0.6c-0.1 1.4 0.3 3.2-0.4 4.1c-0.7 1-2.6 1-3.9 1.5q-0.5-0.5-1-1zm470.5-436.8c1.2-0.5 2.9-0.1 4.4-0.1c-0.1 1.3 0.2 3.1-0.5 3.7c-0.8 0.8-2.6 0.7-5 1.2c0.5-2.4 0.4-4.5 1.1-4.8zm-98.3-35.1c-1.3-0.4-3-0.4-3.6-1.3c-0.7-1-0.4-2.7-0.6-4.1c1.4 0.1 3.1-0.2 3.9 0.5c0.8 0.8 0.9 2.6 1.3 4q-0.5 0.4-1 0.9zm22.3 172.4c0-0.8 1.6-2.5 2.2-2.4c3.1 0.7 3.7 2.9 2.7 5.8c-2.8 0.4-4.9-0.3-4.9-3.4zm-99.6-105.6c0.4-1.4 0.4-3.3 1.3-3.9c0.9-0.7 2.7-0.2 4.1-0.2c-0.1 1.3 0.1 2.9-0.6 3.7c-0.8 0.9-2.5 1-3.8 1.4q-0.5-0.5-1-1zm-314.1 156.6c0.4 0.4-0.2 3.2-0.5 3.3c-1.5 0.2-3.2 0-4.6-0.6c-0.4-0.3 0-2.3 0-4.5c2.3 0.8 3.9 1 5.1 1.8zm-185.7 165.7c1.2-0.6 3-0.5 4.1 0.2c0.6 0.3 0.7 3 0.2 3.4c-1 0.8-2.7 0.6-5.1 0.9c0.3-2.3 0.2-4.3 0.8-4.5zm164 289.2c-0.1 0.3-3 0-3.1-0.4c-0.3-1.5-0.3-3.2 0.2-4.6c0.2-0.5 2.1-0.5 4.4-0.9c-0.6 2.7-0.8 4.4-1.5 5.9zm-176.7 96.6c-0.6 0.7-3.3 0.6-3.6 0c-0.6-1.1-0.6-3 0-4.1c0.3-0.7 2.3-0.6 4.7-1c-0.4 2.5-0.3 4.3-1.1 5.1zm166.8 72.1c0.1-0.2 2.8 0.1 2.8 0.4c0.3 1.6 0.2 3.4-0.1 5c-0.1 0.3-1.9 0.2-4 0.3c0.5-2.5 0.7-4.2 1.3-5.7zm-204.3-107.9c0.2-1.2 0.2-3.1 0.8-3.4c1.2-0.5 3-0.4 4.3 0.1c0.4 0.2 0.2 2.2 0.4 4.3c-2.4-0.4-3.9-0.7-5.5-1zm184.1-235.3c-0.6-0.8-0.3-3.4 0.4-3.8c0.9-0.6 3-0.4 4 0.3c0.6 0.5 0.3 2.4 0.5 4.7c-2.4-0.5-4.3-0.4-4.9-1.2zm267.9-477.2c-0.8 0.5-2.9 0.4-3.7-0.3c-0.7-0.6-0.9-3.3-0.5-3.5c1.2-0.7 2.8-0.5 5.2-0.8c-0.4 2.2-0.2 4.1-1 4.6zm-377.8 611.8c0.2-1.3 0-3.2 0.7-3.7c1-0.7 2.9-0.6 4-0.1c0.6 0.3 0.3 2.3 0.5 4.5c-2.4-0.3-3.8-0.5-5.2-0.7zm111.6-169.6c-0.7-0.7-0.1-2.5-0.1-3.8c1.4 0.1 3-0.3 4.1 0.4c0.7 0.4 0.6 2.3 1.1 4.7c-2.6-0.5-4.3-0.5-5.1-1.3zm-325-575.5c2-0.1 4.2-0.7 6.1-0.1c1.1 0.4 1.6 2.6 2.4 4q-0.5 0.3-1 0.6q-3.8-1.5-7.7-3q0.1-0.7 0.2-1.5zm829.7 143.4c-0.5-0.6 0.1-2.4 0.2-3.7c1.4 0.1 3.1-0.2 4.2 0.5c0.6 0.4 0.4 2.3 0.7 4.7c-2.4-0.7-4.2-0.6-5.1-1.5zm-289.2 266.3c-0.7-0.8 0-2.6 0.1-4c1.4 0.1 3.1-0.1 4.2 0.6c0.6 0.4 0.4 2.3 0.7 4.6c-2.4-0.5-4.4-0.3-5-1.2zm181.3-166.3c-0.6-0.9 0.1-2.7 0.3-4.1c1.3 0.1 2.9-0.1 3.8 0.6c0.7 0.6 0.6 2.3 1 4.6c-2.5-0.5-4.5-0.3-5.1-1.1zm-379.5 749.9c-0.2-1.7 0.1-3.4 0.2-5.2c1 0.2 2.8 0.1 2.9 0.5c0.6 1.6 0.5 3.3 0.8 5.9c-2-0.6-3.8-0.8-3.9-1.2zm384.8-784.3c-1.1 0.7-2.8 0.3-4.2 0.3c0.1-1.3-0.3-3.1 0.4-3.7c0.9-0.8 2.7-0.8 5.3-1.4c-0.7 2.5-0.7 4.4-1.5 4.8zm-479.8 571.9c-0.6-0.6-0.1-2.5 0-3.8c1.4 0.1 3-0.2 4.2 0.4c0.6 0.3 0.5 2.1 0.8 4.3c-2.3-0.4-4.1-0.2-5-0.9zm581.2-602.7c-0.6-0.5-0.4-3.3 0.2-3.6c1.1-0.5 3-0.4 4.1 0.2c0.7 0.4 0.5 2.3 0.9 4.5c-2.5-0.4-4.3-0.3-5.2-1.1zm-319.5 161.9c0.3-1.4 0.1-3.1 0.9-4c0.5-0.6 2.9-0.5 3.6 0.2c0.6 0.7 0.2 2.5 0.2 4.6c-2.1-0.4-3.4-0.6-4.7-0.8zm-33.5-40.9c1.2-0.5 3-0.3 4.2 0.3c0.5 0.3 0.5 2.9-0.1 3.3c-1 0.8-2.6 0.6-5.2 1.1c0.5-2.4 0.5-4.5 1.1-4.7zm-256.7 410.8c-1.3 0.5-2.8 0.1-4.2 0.1c0.2-1.3 0.1-3 0.9-3.7c0.7-0.7 2.4-0.3 4.7-0.5c-0.7 2.1-0.8 3.8-1.4 4.1zm641.6-460.1c-0.5-1.1 0-2.7 0-4.1c1.4 0.1 3.1-0.2 4.1 0.5c0.6 0.5 0.3 2.4 0.5 4.7c-2.3-0.5-4.2-0.4-4.6-1.1zm-651.2 598.5c-0.6-1.1 0.1-2.8 0.2-4.2c1.3 0.2 3-0.1 3.7 0.6c0.7 0.7 0.4 2.4 0.7 4.7c-2.3-0.5-4.3-0.4-4.6-1.1zm337.2-581.5c1.4-0.3 3.1 0 4.5 0.5c0.3 0.1 0.2 2.9-0.2 3.1c-1.4 0.5-3.1 0.4-5.6 0.6c0.6-2.1 0.8-4.1 1.3-4.2zm142.6 10.6c-0.8 0.6-2.5 0.1-3.8 0.1c0.1-1.4-0.3-3.1 0.4-4c0.6-0.7 2.4-0.4 4.8-0.6c-0.6 2.2-0.6 4-1.4 4.5zm-183.2 128c1.1-0.6 2.8-0.1 4.2 0c-0.1 1.3 0.2 3-0.5 3.8c-0.7 0.7-2.4 0.4-4.8 0.8c0.5-2.3 0.4-4.3 1.1-4.6zm462.4-255.7c-0.5-1.2-0.1-2.8-0.1-4.2c1.2 0.1 3-0.3 3.4 0.3c0.8 1 0.7 2.7 1.1 5.1c-2.3-0.6-4.1-0.5-4.4-1.2zm-134.7-76.3c-0.7-0.6-0.4-2.3-0.5-3.4c1.5 0.1 3.2-0.1 4.5 0.5c0.6 0.3 0.5 2.2 1 4.5c-2.4-0.7-4.1-0.8-5-1.6zm-182.3 198c0.9-0.5 2.8-0.2 3.7 0.5c0.6 0.5 0.5 3-0.1 3.3c-1.1 0.7-2.7 0.5-5.2 0.8c0.7-2.4 0.8-4.2 1.6-4.6zm-434.3 403.1c-0.6-0.8-0.4-3 0.3-3.6c0.7-0.6 2.9-0.4 3.6 0.3c0.7 0.6 0.4 2.4 0.6 4.7c-2.3-0.6-4-0.6-4.5-1.4zm359.4-297.4c0.5-1.3 0.7-2.9 1.6-3.8c0.7-0.6 2.3-0.3 3.4-0.4c-0.1 1.4 0.3 3-0.4 3.9c-0.6 0.8-2.3 0.9-3.6 1.3q-0.5-0.5-1-1zm-248.1 129c-0.4-0.2-0.2-2.9 0.3-3.2c1.2-0.6 2.8-0.6 4.1-0.2c0.4 0.2 0.2 2.2 0.3 4.3c-2.1-0.3-3.6-0.3-4.7-0.9zm611.6-393.2c-1.2-0.2-2.8 0-3.4-0.7c-0.7-0.9-0.5-2.5-0.7-3.8c1.3-0.2 2.5-0.3 4.8-0.6c-0.3 2.4-0.5 3.8-0.7 5.1zm-534.4 222c-0.5-1-0.2-2.9 0.5-3.7c0.6-0.6 2.8-0.5 3.4 0.1c0.7 0.7 0.4 2.4 0.6 4.6c-2.2-0.4-4.1-0.3-4.5-1zm319.2-161c-0.4-0.2-0.1-2.8 0.7-3.3c0.8-0.7 2.8-0.9 3.7-0.3c0.7 0.5 0.4 2.4 0.8 4.7c-2.5-0.4-4-0.4-5.2-1.1zm206.7 77.5c-0.4-1.6-0.2-3.4-0.2-5c1.1 0.3 2.8 0.3 3.2 1c0.7 1.3 0.6 2.9 0.9 5.6c-2.1-0.9-3.7-1.1-3.9-1.6zm-524.5 47.7c-0.6-0.9-0.2-2.5-0.2-3.8c1.3 0.2 3 0 3.8 0.7c0.8 0.7 0.6 2.4 1 4.8c-2.3-0.8-4-0.9-4.6-1.7zm364.7-265.3c-1.3 1.6-2.4 3.3-4 4.4c-0.4 0.3-2.2-1.3-3.8-2.3c2.9-1.5 4.7-2.5 6.5-3.4q0.6 0.7 1.3 1.3zm60.1 71.4c1.1-0.5 2.9-0.2 4.1 0.4c0.5 0.3 0.5 2.9-0.1 3.3c-1 0.8-2.6 0.6-5.1 1.1c0.5-2.4 0.4-4.5 1.1-4.8zm-68.4 70c-0.8 0.6-2.6 0.1-3.9 0.1c0.2-1.4 0-3.1 0.7-4.2c0.4-0.6 2.3-0.3 4.3-0.5c-0.5 2.1-0.3 3.9-1.1 4.6zm-291.4 227.7c0.7-0.7 2.4-0.2 3.7-0.2c0 1.4 0.3 3-0.2 4.1c-0.2 0.6-2.2 0.3-4.2 0.5c0.2-2.1 0-3.9 0.7-4.4zm-293.3 443.4c-0.9 0.6-2.6 0-3.9-0.1c0.1-1.3-0.1-2.9 0.5-3.9c0.4-0.6 2.2-0.3 4.3-0.5c-0.4 2.1-0.2 3.9-0.9 4.5zm112.9-203.3c-0.5 0.5-2.8 0.1-3.2-0.5c-0.6-0.9-0.3-2.5-0.4-3.8c1.3 0 2.6-0.1 4.8-0.2c-0.5 2.1-0.4 3.7-1.2 4.5zm212.9-199.2c-0.5-0.8-0.3-3 0.4-3.6c0.8-0.6 2.9-0.5 3.7 0.2c0.7 0.6 0.3 2.4 0.5 4.7c-2.2-0.6-4-0.5-4.6-1.3zm-255 298.8c0.8-0.7 2.5-0.1 3.8-0.1c0 1.2 0.4 2.9-0.2 3.4c-1 0.8-2.6 0.8-5.2 1.5c0.8-2.5 0.8-4.2 1.6-4.8zm720.7-558.1c-0.6 0.6-2.2 0-3.4 0c0.3-1.4 0.1-3 0.9-4.1c0.4-0.6 2.1-0.4 4.6-0.8c-1 2.4-1.2 4.1-2.1 4.9zm-67.2-108c-0.4-0.4-0.1-2.9 0.5-3.2c1-0.5 2.7-0.3 3.7 0.3c0.6 0.4 0.4 2.1 0.7 4.3c-2.3-0.6-3.9-0.6-4.9-1.4zm24.2 348.8c-0.3 0.5-1.9 0.2-3 0.3c0.1-1.5-0.2-3.1 0.2-4.5c0.1-0.4 1.9-0.4 4-0.9c-0.5 2.4-0.5 3.9-1.2 5.1zm-63.2-245.2c-0.6-0.8-0.2-2.8 0.5-3.7c0.5-0.6 2.8-0.6 3.3 0c0.7 0.8 0.4 2.4 0.7 4.7c-2.2-0.4-4.1-0.2-4.5-1zm-618.1 631.5c1.3-0.3 2.9-0.1 4.2 0.5c0.4 0.2 0.4 2.7 0 2.9c-1.2 0.7-2.7 0.6-5 0.9c0.4-2.2 0.4-4.3 0.8-4.3zm4-103.9c1.1-0.5 2.6 0 4 0.1c-0.1 1.2 0.2 3-0.4 3.5c-0.9 0.7-2.6 0.4-4.8 0.6c0.6-2 0.5-3.8 1.2-4.2zm478.2-603.6c-0.4-0.2-0.2-2.9 0-2.9c1.4-0.3 2.9-0.4 4.2 0c0.5 0.2 0.4 1.9 0.9 3.9c-2.4-0.4-3.9-0.4-5.1-1zm-441.1 573.1c-0.6-1-0.3-2.5-0.4-3.7c1.2 0 2.9-0.3 3.5 0.3c0.7 0.8 0.6 2.4 1.1 4.7c-2.2-0.6-3.8-0.6-4.2-1.3zm74.5-135.9c-0.6-0.7-0.1-2.3-0.1-3.6c1.4 0.1 2.9-0.1 3.9 0.5c0.6 0.4 0.4 2.1 0.6 4.3c-2.1-0.5-3.8-0.4-4.4-1.2zm-220.1 373.8c-1 0.6-2.7 0.6-3.8 0.1c-0.5-0.3-0.7-2.8-0.1-3.3c0.8-0.8 2.4-0.7 4.6-1.1c-0.3 2.2-0.1 4-0.7 4.3zm511.5-675.6c-0.5-0.6-0.1-2.2 0-3.3c1.3 0.2 2.8 0 3.8 0.7c0.6 0.4 0.4 2.1 0.8 4.5c-2.3-0.9-3.9-1-4.6-1.9zm-513.7 640.7c-0.6-0.5-0.2-2.2-0.3-3.4c1.3 0 2.9-0.4 3.9 0.2c0.6 0.3 0.5 2.1 1 4.2c-2.2-0.4-3.8-0.3-4.6-1zm473.5-536.3c-0.5-1.1-0.3-2.7 0.2-3.8c0.2-0.5 2.7-0.6 2.9-0.2c0.7 1.2 0.7 2.7 1.2 5.2c-2.3-0.6-4-0.6-4.3-1.2zm182.3-97.7c-0.5 0.5-2.9 0.2-3.3-0.4c-0.6-1-0.5-2.7 0-3.7c0.2-0.5 2.1-0.2 4.2-0.3c-0.3 2-0.2 3.6-0.9 4.4zm-935.8-141.1c1-2.1 2-4.3 3.5-7.6c1 2.3 2.3 3.9 1.9 4.5c-1.1 1.6-2.8 2.8-4.2 4.1q-0.6-0.5-1.2-1zm423.4 676.6c-0.6-0.9-0.2-2.3-0.3-3.5c1.2-0.1 2.8-0.6 3.4 0c0.8 0.7 0.7 2.3 1.3 4.6c-2.3-0.5-3.8-0.4-4.4-1.1zm-100.3-112.5c1.3-0.3 2.9-0.2 4 0.3c0.4 0.3 0.4 2.8-0.2 3.3c-0.8 0.6-2.4 0.3-4.4 0.5c0.3-2 0.2-4.1 0.6-4.1zm783.4-450.7c-0.3-0.1 0-2.7 0.5-2.9c1.3-0.4 2.8-0.3 4.1 0c0.3 0.1 0.2 2 0.3 4c-2.2-0.4-3.6-0.5-4.9-1.1zm36.9-33.6c-0.5-0.4-0.3-2.9 0.2-3.2c1.1-0.5 2.8-0.5 3.8 0.1c0.6 0.4 0.3 2.2 0.5 4.3c-2.1-0.5-3.7-0.4-4.5-1.2zm-638.1 286c-0.6-0.4-0.2-2.2-0.2-3.3c1.3 0.1 2.7-0.2 3.8 0.4c0.6 0.3 0.6 1.9 1.1 3.8c-2.2-0.3-3.8-0.2-4.7-0.9zm497.9-256c-0.5-0.3-0.4-2.8 0.2-3.2c0.9-0.6 2.7-0.7 3.7-0.2c0.6 0.2 0.3 2.1 0.5 4.1c-2-0.2-3.5 0-4.4-0.7zm-317 89.6c-0.5-0.4 0.1-2.1 0.1-3.3c1.3 0.2 2.8 0.1 3.9 0.7c0.5 0.4 0.3 2 0.6 3.9c-2.1-0.5-3.7-0.5-4.6-1.3zm245.7 11.9c-1.2-0.2-2.9-0.1-3.4-0.8c-0.6-0.7-0.6-2.5-0.1-3.4c0.3-0.5 2.1-0.2 4.1-0.3c-0.3 2-0.5 3.2-0.6 4.5zm-64.5-180.8c1.3-0.4 2.8-0.2 4.1 0.2c0.3 0.1 0.4 2.7 0 2.9c-1.2 0.7-2.7 0.7-5.1 1.1c0.5-2.2 0.5-4.1 1-4.2zm29.6 143.2c-0.6-1-0.2-2.6-0.2-3.9c1.1 0.2 2.7 0 3.3 0.7c0.8 0.8 0.7 2.4 1.3 4.7c-2.3-0.7-4-0.7-4.4-1.5zm177-96.8c-0.4-1.1-0.1-2.7 0.5-3.8c0.3-0.4 2.7-0.4 3 0.1c0.6 1.1 0.4 2.5 0.6 4.7c-2-0.5-3.9-0.4-4.1-1zm-0.4 104.2c-0.2 0.3-2.6 0.2-2.8-0.2c-0.5-1.1-0.4-2.6-0.5-3.9c1-0.1 2-0.1 3.9-0.3c-0.2 1.9-0.1 3.3-0.6 4.4zm-104.5-73.8c-0.6-0.4-0.5-2-0.7-3c1.4 0 3-0.3 4.3 0.1c0.5 0.1 0.5 1.8 1.1 3.8c-2.3-0.4-3.7-0.3-4.7-0.9zm-63.6-75.7c0.6 0.5 0.1 2.2 0.1 3.4c-1.3-0.2-2.8-0.1-3.7-0.8c-0.7-0.4-0.6-1.9-1.1-3.8c2.3 0.5 3.9 0.4 4.7 1.2zm-218.5 238.3c-1.1 0.4-2.5 0.1-3.8 0c0-1-0.3-2.6 0.2-3c1-0.6 2.4-0.5 4.5-0.8c-0.4 2-0.3 3.6-0.9 3.8zm-338.4 505.2c1-0.5 2.4-0.3 3.7-0.3c0 1.1 0.5 2.7 0 3c-1 0.7-2.5 0.7-4.6 1.1c0.4-2 0.3-3.6 0.9-3.8zm144.9-130.5c-0.6-1-0.3-2.3-0.3-3.5c1.2 0 2.8-0.4 3.4 0.2c0.6 0.7 0.3 2.3 0.5 4.3c-1.8-0.5-3.3-0.4-3.6-1zm-112.5 201.4c1.1-0.5 2.6-0.3 3.9-0.4c0 1 0.4 2.7 0 3c-1.1 0.7-2.7 0.8-5.2 1.4c0.7-2.2 0.7-3.7 1.3-4zm230.5-509.8c-0.5-0.6-0.2-2-0.3-3.1c1.3 0.1 2.8-0.1 3.9 0.4c0.4 0.2 0.2 1.8 0.5 3.7c-2-0.4-3.4-0.3-4.1-1zm-147.8 200.6c1.1-0.6 2.5-0.3 3.8-0.4c-0.1 1.1 0.2 2.7-0.4 3.1c-0.9 0.7-2.4 0.6-4.7 1.1c0.6-2 0.7-3.5 1.3-3.8zm775.1-213.7c0.1-0.4 1.7-0.1 2.7-0.1c-0.1 1.4 0.1 2.9-0.3 4.2c-0.1 0.5-1.7 0.5-3.6 1.1c0.5-2.4 0.6-3.9 1.2-5.2zm-519.2 17.4c-0.7 0.6-2.8 0.4-3.2-0.3c-0.6-0.7-0.5-2.6 0.1-3.3c0.5-0.6 2.1-0.3 4.1-0.5c-0.4 2-0.3 3.6-1 4.1zm-42.1 137.4c-0.6 0.6-2.8 0.5-3 0.1c-0.4-1-0.6-2.7 0-3.4c0.5-0.7 2.1-0.5 4.2-0.8c-0.5 2-0.5 3.5-1.2 4.1zm566.2-293.9c1 0.1 2.7-0.1 2.9 0.4c0.6 1.1 0.6 2.6 0.3 3.8c0 0.3-1.9 0.2-3.7 0.4c0.2-2 0.4-3.3 0.5-4.6zm-351.9 129.5c-0.2-1.4 0-2.9 0.3-4.3c0.1-0.2 2.5-0.2 2.6 0.1c0.4 1.3 0.4 2.8 0.6 5.1c-1.9-0.5-3.4-0.6-3.5-0.9zm-387.5 84.6c1-0.4 2.6-0.4 3.6 0.1c0.4 0.2 0.5 2.5 0 2.9c-0.8 0.6-2.2 0.4-4 0.7c0.1-1.8 0-3.5 0.4-3.7zm286.1-193.8c-0.5-0.6 0-2 0.1-3.1c1.2 0.1 2.6-0.1 3.4 0.4c0.6 0.4 0.4 2 0.7 4c-2-0.6-3.5-0.6-4.2-1.3zm139.7 41.3c-0.9 0.5-2.3 0.2-3.5 0.1c0.2-1-0.1-2.4 0.5-3.1c0.5-0.6 1.9-0.5 3.7-0.8c-0.3 1.9-0.1 3.5-0.7 3.8zm-544 568.5c-0.9 0.5-2.3 0.2-3.5 0.3c0-1.1-0.4-2.6 0.2-3.1c0.7-0.7 2.2-0.6 4.2-1c-0.4 1.9-0.3 3.4-0.9 3.8zm-38.8-1.2c-0.4-0.3-0.3-2.6 0.3-2.9c0.9-0.6 2.5-0.6 3.4-0.2c0.5 0.2 0.3 2 0.4 3.8c-1.8-0.3-3.2-0.1-4.1-0.7zm690.4-702.1c0.3-1.2 0.3-2.6 1.1-3.4c0.5-0.5 2.7-0.3 2.9 0.2c0.5 0.9 0.1 2.3 0.1 4.1c-1.8-0.4-2.9-0.6-4.1-0.9zm-209 95.8c-0.6 0.6-2.1 0.1-3.2 0.2c0.1-1.2-0.2-2.6 0.3-3.5c0.4-0.6 1.9-0.5 3.8-0.9c-0.4 2-0.2 3.5-0.9 4.2zm-284.6 161c-0.9 0.4-2.5 0.1-3.3-0.5c-0.5-0.4-0.4-2.7 0.1-3c0.8-0.5 2.2-0.2 4-0.2c-0.3 1.8-0.2 3.5-0.8 3.7zm-16.9 313.1c-0.4-0.3-0.2-2.4 0.4-3c0.5-0.6 2.5-0.8 2.9-0.4c0.7 0.7 0.6 2.2 1 4.1c-2-0.2-3.4-0.1-4.3-0.7zm515.6-604.7c-0.6 0.5-2.1 0-3.2-0.1c0.2-1.2 0-2.6 0.6-3.4c0.5-0.6 1.9-0.4 3.8-0.6c-0.5 1.9-0.5 3.4-1.2 4.1zm-505.4 359.6c0.9-0.6 2.2-0.5 3.4-0.7c-0.1 1.1 0.3 2.6-0.3 3.3c-0.6 0.7-2.1 0.7-4.2 1.2c0.5-1.9 0.5-3.3 1.1-3.8zm463-259.9c0.4-0.4 2.6-0.3 3 0.3c0.5 0.8 0.5 2.4-0.1 3.2c-0.3 0.6-1.9 0.4-3.7 0.7c0.3-1.9 0.1-3.4 0.8-4.2zm-427.6 226.1c0.5-0.5 2.6-0.5 2.9 0c0.6 0.9 0.8 2.7 0.3 3.3c-0.6 0.7-2.2 0.5-4.2 0.8c0.4-1.9 0.3-3.4 1-4.1zm-187.8 339.7c1.1-0.4 2.5-0.2 3.5 0.3c0.4 0.2 0.4 2.5-0.1 2.9c-0.9 0.6-2.3 0.3-4.2 0.5c0.4-1.8 0.3-3.5 0.8-3.7zm44.5-134.8c-0.9 0.4-2.5 0.3-3.3-0.3c-0.5-0.3-0.4-2.5 0.1-2.9c0.8-0.6 2.2-0.3 4.1-0.5c-0.4 1.8-0.3 3.4-0.9 3.7zm465.7-326.3c-0.9-0.5-2.3-0.8-2.7-1.5c-0.4-1-0.3-2.5 0.2-3.5c0.1-0.4 2.4-0.6 2.5-0.3c0.5 1 0.5 2.2 0.7 3.4q-0.4 1-0.7 1.9zm-222.3-465.8c-2 1.9-3.6 3.3-5.2 4.8c3.9 1.8 5.4 0.5 5.2-4.8zm-137.2 688.9c0.5-0.5 2 0.1 3 0.2c-0.1 1.2 0.1 2.6-0.6 3.4c-0.4 0.6-1.9 0.3-3.8 0.4c0.6-1.9 0.6-3.3 1.4-4zm-73.1 67.7c1-0.4 2.2 0 3.4 0.1c-0.1 0.9 0.1 2.5-0.3 2.7c-1 0.5-2.4 0.3-4.3 0.5c0.5-1.6 0.6-3.1 1.2-3.3zm712.8-422.8c0.9-0.4 2.3-0.1 3.5 0c-0.1 1 0.2 2.5-0.4 3c-0.7 0.6-2.2 0.5-4.2 0.8c0.5-1.9 0.5-3.4 1.1-3.8zm-750.1 493.3c-0.3-1.1-0.1-2.4 0.3-3.4c0.1-0.3 2.4-0.3 2.6 0.1c0.5 1 0.3 2.3 0.4 4.3c-1.6-0.5-3.1-0.6-3.3-1zm615.9-604.1c1.1-0.4 2.5-0.3 3.6 0.1c0.3 0.1 0.4 2.5-0.1 2.8c-0.8 0.7-2.2 0.5-4.1 0.8c0.3-1.8 0.1-3.4 0.6-3.7zm-468.5 471.9c-0.2 0.3-2.3-0.1-2.5-0.5c-0.4-1-0.4-2.5 0.1-3.3c0.3-0.5 2-0.1 3.8-0.1c-0.6 1.8-0.7 3-1.4 3.9zm529.1-292c-0.5-0.6 0-2.1 0-3.2c1.1 0.2 2.5 0.1 3.3 0.8c0.7 0.5 0.6 1.9 1 3.8c-2-0.6-3.5-0.6-4.3-1.4zm-134.1-75.9c-0.5-0.4-0.1-1.8-0.2-2.8c1.1 0 2.4-0.4 3.2 0.1c0.7 0.4 0.7 1.8 1.4 3.8c-2.2-0.5-3.6-0.5-4.4-1.1zm-245.9 59.3c-0.6-0.7-0.4-2-0.5-3.1c1.1 0.1 2.5-0.2 3.4 0.3c0.6 0.4 0.4 2 0.8 3.8c-1.8-0.4-3.2-0.3-3.7-1zm-111.7 239c-0.4 0.5-2.3 0.5-2.6 0c-0.6-0.6-0.8-2.3-0.3-2.9c0.5-0.6 1.9-0.5 3.7-0.8c-0.3 1.8-0.2 3.1-0.8 3.7zm468.4-398.2c-0.7 0.4-2.5 0.2-3-0.4c-0.5-0.5-0.4-2.3 0.2-2.9c0.5-0.6 1.9-0.2 3.6-0.4c-0.3 1.8-0.2 3.3-0.8 3.7zm-552.2 673c-0.4-1 0.1-2.3 0.1-3.4c1 0.1 2.4-0.2 2.8 0.3c0.5 0.9 0.5 2.2 0.8 4.3c-1.9-0.6-3.4-0.6-3.7-1.2zm-139.3 64.5c-1 0.4-2.4 0.2-3.5-0.2c-0.3-0.1-0.3-2.3 0.1-2.7c0.9-0.5 2.3-0.5 4.3-0.8c-0.4 1.9-0.3 3.5-0.9 3.7zm132 109.8c-0.3-1.2-0.1-2.5-0.1-3.8c1 0 2.5-0.2 2.8 0.3c0.5 0.9 0.4 2.3 0.6 4.2c-1.6-0.3-3.2-0.3-3.3-0.7zm731.1-738.6q-1.2 1.9-2.3 3.8c-1.2-0.8-2.3-1.5-4.3-2.9c2.6-0.9 4-1.4 5.4-1.8q0.6 0.4 1.2 0.9zm-637 220.5c-0.5 0.4-2.3 0.2-2.9-0.4c-0.5-0.6-0.6-2.4-0.2-2.9c0.7-0.5 2.1-0.2 3.8-0.4c-0.2 1.7-0.1 3.2-0.7 3.7zm349.6-125.2c-0.4-0.3 0-2.4 0.4-2.5c0.9-0.4 2.5-0.4 3.1 0.1c0.6 0.6 0.3 2 0.5 4c-1.9-0.7-3.2-0.9-4-1.6zm175.3-27.3c-0.5-0.6 0-2 0-3c1.1 0.1 2.5-0.2 3.2 0.4c0.6 0.5 0.3 2 0.5 3.8c-1.8-0.5-3.2-0.5-3.7-1.2zm-315.6 57.6c-0.4-0.2-0.5-2.3-0.2-2.5c1-0.6 2.4-0.9 3.4-0.7c0.5 0.1 0.5 1.9 0.9 3.7c-1.9-0.1-3.1 0-4.1-0.5zm283.2-128.6c0.2-1 0.2-2.5 0.8-2.8c0.7-0.4 2.5-0.1 2.9 0.5c0.5 0.6 0.3 2.3-0.2 3c-0.6 0.8-2 0.9-3.1 1.4q-0.2-1.1-0.4-2.1zm-244.1 24.2c-0.3-0.1 0.2-1.7 0.3-2.6c1.2 0.2 2.5 0.2 3.5 0.7c0.4 0.2 0.2 1.6 0.4 3c-1.8-0.4-3.1-0.5-4.2-1.1zm-370.7 541c-0.4-0.9 0-2.1 0.1-3.2c0.9 0.1 2.4-0.1 2.6 0.3c0.5 1.1 0.3 2.4 0.5 4.5c-1.6-0.8-3-1-3.2-1.6zm748.7-420.4c-0.3-0.8-0.1-2.2 0.4-3c0.3-0.4 2.3-0.3 2.5 0.2c0.5 0.8 0.3 2 0.4 3.8c-1.6-0.5-3.1-0.5-3.3-1zm-820.3 557.8c-0.5 0.5-1.9 0-3 0c0.1-1-0.2-2.2 0.3-3c0.3-0.6 1.7-0.5 3.3-0.8c-0.2 1.8 0 3.3-0.6 3.8zm649.4-564.5c-0.5 0.4-1.9-0.1-2.8-0.1c0.2-1.1 0-2.3 0.6-3.1c0.3-0.5 1.6-0.4 3.5-0.7c-0.6 1.9-0.7 3.2-1.3 3.9zm-22.3-279.5c-0.9 0.3-2.2 0.1-3.2-0.3c-0.3-0.1-0.3-2.2 0.2-2.5c0.8-0.5 2-0.3 3.8-0.6c-0.3 1.7-0.3 3.2-0.8 3.4zm198.6 216.2c-1-0.1-2.3 0.1-3.1-0.4c-0.5-0.4-0.6-2.2-0.2-2.6c0.6-0.6 1.9-0.6 3.6-1c-0.1 1.8-0.2 2.9-0.3 4zm-456.6 48.3c0.9-0.4 2.2-0.2 3.1 0.2c0.3 0.2 0.3 2.4 0 2.5c-1.1 0.4-2.3 0.3-4.3 0.5c0.5-1.6 0.6-3 1.2-3.2zm488.5-49.6q1.2 1.8 2.4 3.6q-1.5 0.4-3.1 0.8q-0.4-1.8-0.9-3.7q0.9-0.3 1.6-0.7zm-239.8-76.2c-0.4-0.5-0.1-2.2 0.5-2.8c0.3-0.4 2.2-0.3 2.6 0.2c0.6 0.6 0.4 1.9 0.7 3.8c-1.9-0.5-3.3-0.5-3.8-1.2zm-284.5 128.4c-0.4-0.8-0.1-2.3 0.4-3.1c0.4-0.5 2.3-0.5 2.6-0.1c0.6 0.7 0.5 2 0.8 3.8c-1.8-0.3-3.4 0-3.8-0.6zm421.2-87.3c-0.4-0.4 0.1-1.8 0.2-2.7c1.2 0.1 2.5 0 3.5 0.5c0.4 0.2 0.2 1.7 0.3 3.5c-1.9-0.6-3.2-0.6-4-1.3zm-684.8 632.7c-0.2 0.3-2.3 0.1-2.5-0.3c-0.4-0.9-0.4-2.3 0-3.2c0.2-0.4 1.7-0.3 3.3-0.4c-0.3 1.8-0.2 3-0.8 3.9z" /></svg>