<svg version="1.2" xmlns="http://www.w3.org/2000/svg" viewBox="0 0 975 1203" width="975" height="1203"><style>.s0{opacity: .1;fill:#ffffff}</style><path class="s0" d="m647.4 141.3c0 0.8 0.6 2.7-0.1 4c-1 1.9-6.7 2.2-8.1 0.8c-1.4-1.3-1.2-4.7 0.3-6.3c1.8-1.8 4.7-1.6 7.9 1.5zm0 33.6c-2 2.2-4.5 2.5-6.3 0.9c-1.8-1.6-1.9-4.8-0.2-6.7c1.7-1.9 5-2.1 6.8-0.6c1.8 1.5 1.6 4.2-0.3 6.4zm-28.5 1.5c-1.8 2-4.4 2.3-6.1 0.8c-1.9-1.6-1.9-4.6 0-6.7c1.7-2.1 3.9-2.2 5.9-0.4c1.9 1.8 2 4.3 0.2 6.3zm29.2 20.6c1.9 1.8 2 4.9 0.1 6.7c-1.9 2-3.9 1.3-5.8-0.2c-2-1.7-2.3-4.3-0.8-6.1c1.6-1.9 4.6-2.1 6.5-0.4zm-147.3-135.5c1.8 1.8 1.9 4.8 0.2 6.5c-1.6 1.6-4.7 1.5-6.4-0.3c-1.7-1.7-1.6-4.5 0-6.2c1.7-1.6 4.5-1.6 6.2 0zm-35.1-19.8c-1.9-1.8-2-4.8-0.2-6.8c1.8-1.9 3.7-2.1 5.7-0.3c2.1 1.8 2.2 4.5 0.2 6.6c-1.7 1.9-4 2-5.7 0.5zm-1.9-29.8c-1.6-1.5-1.6-4.6 0.1-6.5c1.6-1.7 4-1.6 5.9 0.5c1.6 1.7 2.8 3.5 0.8 5.7c-1.7 1.7-5.2 1.8-6.8 0.3zm147.2 135.3c-1.5-1.6-1.5-4.6 0.1-6.2c1.7-1.6 4.5-1.2 6.5 1.2c1.4 1.5 2.3 3.3 0.4 5.1c-1.8 1.8-5.4 1.7-7-0.1zm-139.1 36.4c-2.5-2.1-2.5-4.8-0.6-7c1.8-1.9 3.8-1.8 5.8-0.3c1.8 1.6 1.9 4.5 0.1 6.4c-1.7 1.9-3.7 2.2-5.3 0.9zm28-150.2c1.7 1.6 1.5 4.3-0.5 6.4c-1.7 1.7-3.5 2.1-5.4 0.4c-1.8-1.6-1.8-4.8-0.2-6.5c1.6-1.7 4.5-1.9 6.1-0.3zm0.4 175.6c-1.5-1.5-1.6-3.5 0-5.5c1.6-1.9 4.8-2.1 6.4-0.3c1.7 1.9 1.9 4.1 0.3 6.2c-1.3 1.9-4.4 1.8-6.7-0.4zm152.6 73.7c0 0.8 0.5 2.6-0.2 3.9c-1 1.9-5.9 2.2-7.5 0.9c-1.4-1.4-1.4-4.3 0.1-6c1.6-1.7 4.6-1.5 7.6 1.2zm-317.3-93.7c-1.6 1.6-3.6 1.7-5.6 0.1c-1.9-1.6-2.1-4.2-0.5-6.1c1.6-1.9 3.6-2.3 5.7-0.6c2 1.6 2.3 4.4 0.4 6.6zm139.8-41.5c1.4 1.5 2.6 3.3 0.8 5.5c-1.5 1.8-5 2.1-6.5 0.6c-1.6-1.5-1.6-4.8 0-6.6c1.5-1.6 3.4-1.5 5.7 0.5zm3.3 63.3c-1.5 1.7-4.3 1.7-6.2 0c-1.9-1.7-2.1-3.7-0.3-5.7c1.6-2 4.2-2.2 6-0.5c1.8 1.6 2 4.5 0.5 6.2zm20.1-206.2c1.3 1.6 2.2 3.2 0.3 5.1c-2 1.9-5.8 2.4-7.2 1c-1.3-1.4-1-4.6 0.7-6.3c1.7-1.6 4.3-1.6 6.2 0.2zm120.9 200.5c-1.6 1.5-4.3 1.2-5.8-0.5c-1.6-1.8-1.4-4.4 0.6-6.1c2-1.7 3.9-1.5 5.7 0.5c1.5 1.8 1.3 4.6-0.5 6.1zm-136.8 113.1c1.7 1.7 1.7 4.4-0.1 6.1c-1.9 1.8-3.8 2-5.8 0.2c-1.9-1.8-1.9-4.1 0-6c1.8-1.7 4.2-1.8 5.9-0.3zm157-206.2c1.3-1.1 2.9-2.5 5-0.8c1.8 1.4 2 5.1 0.5 6.9c-1.5 1.6-4.5 1.5-6.2-0.1c-1.7-1.6-1.5-3.6 0.7-6zm-53.7-48.2c-1.6 1.7-4.6 1.6-6.4-0.2c-1.8-1.7-1.8-3.4-0.2-5.2c1.6-1.8 4.8-2.1 6.4-0.5c1.7 1.5 1.8 4.2 0.2 5.9zm-8.5-56.5c-1.9-1.8-2.4-5-0.8-6.4c2.1-1.9 4.1-0.7 5.8 0.8c1.7 1.5 2.7 3.5 0.8 5.6c-1.5 1.8-4 1.7-5.8 0zm3.3 85.2c-1.6-1.7-2.1-3.6-0.6-5.7c1.2-1.7 4.5-1.6 6.5 0c1.8 1.5 1.9 4 0.3 5.7c-1.6 1.7-4.3 1.7-6.2 0zm-58.5-26.6c-1.3-1.5-1.4-3.3 0.1-5.2c1.5-1.8 4.6-1.8 6.4-0.1c1.6 1.7 2.2 3.6 0.6 5.5c-1.5 1.9-4.8 1.8-7.1-0.2zm-41.6 222.9c1.5 1.8 2.6 3.6 0.8 5.8c-1.6 1.9-4.5 2.2-6.1 0.7c-1.5-1.4-1.6-4.9-0.1-6.6c1.8-2 3.6-1 5.4 0.1zm-14.2-219.5c-1.7-1.5-1.8-4.2-0.1-5.9c1.6-1.6 3.4-2.2 5.4-0.5c2 1.6 2.3 4.3 0.9 6.1c-1.5 1.8-4.4 1.9-6.2 0.3zm-125.2 261.1c-2 1.8-4 1.7-5.9 0c-1.9-1.8-2.2-3.8-0.4-5.8c1.7-1.9 4.3-1.9 6.1 0c1.9 1.9 1.7 3.8 0.2 5.8zm-167.9 33.3c-2.5 2.9-5.8 3.2-7.5 1.5c-1.6-1.6-1.7-3.5-0.3-5.2c1.5-2 5.1-2.2 6.6-0.2c0.9 1.1 1 3 1.2 3.9zm353.2-246.3c1.5-1 3-3.2 5.4-1c1.5 1.5 1.3 4.8-0.4 6.6c-1.7 1.8-3.7 1.8-5.6 0.3c-1.7-1.4-1.5-3.7 0.6-5.9zm147.8 22.4c1.2 1.3 2 2.9 0.3 4.8c-1.5 1.8-5 2.2-6.5 0.9c-1.6-1.3-1.6-4.5 0.1-6.2c1.6-1.5 3.9-1.5 6.1 0.5zm-176.3 6.2c1.6-1.7 4.4-1.7 6.1 0.1c1.5 1.5 1.9 3.2 0.3 4.9c-1.7 1.8-5.6 2.5-6.8 1.3c-1.4-1.3-1.1-4.7 0.4-6.3zm-150.3 324.9c-2.5 2.6-5.1 2.7-6.9 0.9c-1.6-1.7-2-3.6-0.3-5.5c1.4-1.6 5.2-1.7 6.4 0.2c0.9 1.4 0.7 3.4 0.8 4.4zm-47-254.2c0.1-1-0.1-2.8 0.6-4.2c1.1-2.1 4.9-2.2 6.6-0.4c1.5 1.4 2 3.1 0.6 4.9c-1.5 1.8-5.2 2-7.8-0.3zm197.1-98.2c1.6-1.1 3.4-2.8 5.7-0.7c1.6 1.5 1.4 4.7-0.1 6.2c-1.6 1.5-5.1 1.5-6.6-0.1c-1.7-1.9-0.7-3.6 1-5.4zm2.2 63.7c-2.3-2-2.4-4.8-0.6-6.7c1.6-1.7 3.5-2 5.4-0.4c1.9 1.5 1.9 4.3 0 6.3c-1.6 1.7-3.3 2-4.8 0.8zm-137-52.8c-2.5 2.1-5.9 2.3-7.7 0.7c-1.7-1.5-1.2-3.1 0-4.6c1.7-2 5.7-3.1 6.6-1.5c0.9 1.5 0.8 3.6 1.1 5.4zm-24.9 164.3c2.7 2.4 2.9 5.3 1.2 7.2c-1.6 1.6-3.4 2.3-5.4 0.7c-1.8-1.5-1.8-5 0.2-6.6c1.2-1 3-1 4-1.3zm-5.3-26.2c1.8-1.5 3.7-2.6 5.8-0.8c1.7 1.5 2.3 3.6 0.7 5.7c-1.3 1.8-4.9 2.1-6.5 0.6c-2-1.8-1.1-3.6 0-5.5zm343.2-71.3c1.7 1.5 1.9 4.4 0.5 5.8c-1.5 1.5-4.8 1.3-6.5-0.5c-1.6-1.6-1.7-3.5-0.1-5.2c1.5-1.7 4.5-1.7 6.1-0.1zm-148.5 10.5c0.2-1.1 0-3 0.9-4.4c1.1-1.8 4.4-1.6 6.1 0c1.6 1.7 2 3.7 0.4 5.6c-1.4 1.5-4.9 1.3-7.4-1.2zm-356 130.1c-2 2-4.8 2-6.6 0.2c-1.6-1.5-2.1-3.3-0.5-5.1c1.5-1.9 4.8-1.9 6.7-0.1c1.6 1.7 1.6 3.4 0.4 5zm270.4-181.7c-2.1-1.9-2.5-5.1-1-6.7c1.9-2.1 3.6-1 5.1 0.3c1.9 1.7 3 3.8 1.1 6c-1.5 1.9-3.6 1.4-5.2 0.4zm61.5 105.1c1.6-1.4 3.5-2.6 5.7-1c1.6 1.2 1.5 4.7 0 6.2c-1.4 1.6-4.5 1.7-6.2 0c-1.8-1.8-0.9-3.5 0.5-5.2zm-170.2-100.8c-1.5 1.2-3.3 2.1-5.3 0.5c-1.6-1.3-1.4-4.8 0.3-6.6c1.5-1.6 3.3-1.9 5.1-0.3c1.8 1.7 1.9 4.2-0.1 6.4zm-32.4 30.2c-1.6-1.7-1.6-3.6 0.1-5.4c1.8-1.8 3.8-2.1 5.8-0.3c1.7 1.7 1.9 3.7 0.3 5.6c-1.5 1.8-4.4 1.8-6.2 0.1zm314-103.6c1.6 1.6 2.2 3.6 0.3 5.5c-1.7 1.8-3.8 2-5.7 0.3c-2-1.8-2-3.8-0.4-5.7c1.8-2 3.7-2 5.8-0.1zm-310.4 182.3c1.5-1.7 4.1-1.8 5.8-0.2c1.7 1.6 2 4.4 0.4 5.8c-1.8 1.7-3.9 1.7-5.9 0.3c-1.7-1.2-1.7-4.3-0.3-5.9zm76.5-196.1c-1.6-1.7-1.6-3.6 0.1-5.4c1.8-2 4-1.6 5.8-0.1c1.7 1.4 2.2 3.3 0.8 5.2c-1.3 1.8-4.8 1.9-6.7 0.3zm-20.4 195.4c2.5-2.8 5.7-3.4 7.2-2.1c1.5 1.4 1.5 4.3 0 5.9c-1.6 1.6-5.1 2-6.4 0.1c-0.9-1.1-0.7-3-0.8-3.9zm165.8-257.4c-1.9 0-3.9 0.4-5.5-0.3c-1.8-0.9-1.6-4.4 0.1-6.1c1.7-1.6 3.6-2 5.5-0.4c1.6 1.2 1.4 4.3-0.1 6.8zm267.6 267.1c0 0.7 0.5 2.5-0.2 3.6c-1 1.7-6.3 1.7-7.1 0.1c-0.7-1.5-0.6-3.8 0.1-5.2c0.9-1.8 4.4-1.2 7.2 1.5zm-596.5 137.6c1.6-1.3 3.5-2.3 5.7-0.5c1.6 1.4 1.6 4.3 0 5.9c-1.6 1.6-4.7 1.7-6.3 0.3c-1.4-1.4-1.3-3.8 0.6-5.7zm-4.1-79.3c-1.4-1.3-1.6-3.2 0-5c1.8-2 4-1.6 5.8-0.1c1.7 1.5 2.3 3.4 0.7 5.4c-1.4 1.8-4.2 1.8-6.5-0.3zm250-124.5c-1.7-1.5-1.6-3.2-0.2-4.8c1.7-1.9 4.7-2.2 6.5-0.5c1.6 1.5 2 3.4 0.5 5.2c-1.4 1.8-4.8 1.8-6.8 0.1zm180.3 77.1c-1.8 1.9-5.1 2.1-6.6 0.8c-1.6-1.4-1.8-4.8-0.3-6.2c2.1-1.9 4.1-0.8 5.8 0.7c1.7 1.3 2.3 3.1 1.1 4.7zm-449 133.4c-1.8 1.6-4 2.1-5.9 0.4c-1.9-1.7-1.3-4 0.2-5.8c1.5-1.9 4.3-2.2 5.7-0.5c1.6 1.9 1.5 3.9 0 5.9zm216.4-292.7c-2.5 1.8-5.3 1.8-7 0.1c-1.6-1.6-1.6-3.2-0.1-4.9c1.8-1.8 6.1-2.6 6.7-1.1c0.7 1.8 0.3 4 0.4 5.9zm-60.6-59.4c1.7 1.7 2 3.6 0.4 5.5c-1.4 1.6-4.5 1.6-6.1 0c-1.8-1.8-1.5-3.8 0-5.5c1.8-1.9 3.9-1.7 5.7 0zm248.8-39.9c1.8-1.4 3.7-1.2 5.2 0.6c1.7 2 1.8 4.1-0.2 5.8c-1.8 1.5-3.8 1.5-5.6-0.1c-1.6-1.6-1.4-4.5 0.6-6.3zm-29.3 34.4c0.2-1.1 0.1-3.1 1-4.4c1.3-1.9 5-1.8 6.2 0.2c0.8 1.3 1 3.6 0.3 4.9c-1 1.9-4.9 1.8-7.5-0.7zm-372.1 413.4c-2.4 2.8-5.7 3.1-7.1 1.1c-0.8-1.2-1.2-3.5-0.6-4.9c0.7-1.9 5.1-2 6.6-0.1c0.9 1.1 0.9 3 1.1 3.9zm272.5-243.1c1.6 1.7 2.3 3.6 0.5 5.5c-1.6 1.6-3.6 2-5.5 0.4c-1.9-1.5-2.3-4.6-0.8-6.1c1.9-1.9 3.9-1 5.8 0.2zm221.6-116.2c-0.9-0.1-2.8 0.1-4-0.8c-1.9-1.1-1.6-4.4 0.3-6.3c1.3-1.2 2.6-2.9 4.7-1.1c1.8 1.6 1.6 5.5-1 8.2zm-28.1-28.1c-1.5 1.8-4.3 2-6.1 0.4c-1.9-1.7-1.7-3.7-0.3-5.5c1.5-1.9 3.8-2 5.7-0.3c1.8 1.6 2.1 3.8 0.7 5.4zm-207.1-24.5c2.4-2.6 5.7-2.9 7.1-0.9c0.8 1.2 1 3.5 0.4 4.8c-0.9 2-5.2 2.1-6.6 0.2c-0.9-1.2-0.7-3.1-0.9-4.1zm69.1 284.7c-1.2-1.2-1.2-2.9 0.2-4.7c1.5-1.8 4.2-2.1 5.8-0.4c1.7 1.7 2.2 3.7 0.6 5.8c-1.3 1.7-4.2 1.5-6.6-0.7zm104.8-236.7c1.7-1.7 3.5-1.7 5.2-0.2c2 1.8 2.4 4.6 0.9 6.2c-1.3 1.4-4.3 1.5-5.9-0.1c-1.8-1.9-1.6-3.9-0.2-5.9zm-280.7 102.5c-1.4-1.2-1.1-3.2 0.5-4.8c1.7-1.8 3.8-2.1 5.7-0.3c1.7 1.6 2.3 3.5 0.8 5.5c-1.4 1.8-4.6 1.8-7-0.4zm8.9 193c1.7-1.6 3.5-2.3 5.5-0.7c1.8 1.5 2 4.3 0.5 5.9c-1.3 1.4-4.8 1.7-6.3 0.3c-1.9-1.9-1-3.7 0.3-5.5zm313.5-92.5c-1.6 1.8-4.2 2-5.8 0.3c-1.7-1.9-1.3-3.8 0.3-5.5c1.6-1.7 3.5-2.2 5.5-0.6c1.7 1.4 1.7 4 0 5.8zm-64.3-173.4c1.7 1.8 2.6 3.7 0.8 5.6c-1.6 1.7-3.7 1.9-5.5 0.1c-1.7-1.8-2.6-4-0.9-6.1c1.9-2.3 3.9-0.7 5.6 0.4zm-261.6-16.1c2.6-2.9 5.1-3.3 6.6-1.7c1.6 1.6 1.9 3.7 0.5 5.6c-1.2 1.6-5.5 2-6.5 0.3c-0.8-1.3-0.5-3.3-0.6-4.2zm116-91c1.6 1.8 2.2 3.7 0.4 5.8c-1.5 1.7-4.3 2-5.8 0.3c-1.8-1.9-1.5-4 0.2-5.8c1.5-1.8 3.3-1.7 5.2-0.3zm-133 259.4c2.5 2.6 3.5 4.6 1.8 6.9c-1.2 1.6-4.4 1.7-5.8 0.1c-1.7-2-1.5-4.5 0.1-6.2c0.8-0.9 3-0.6 3.9-0.8zm139-117.6c1.8 2.3 1.7 4.3-0.2 5.9c-2 1.6-4.1 1.6-5.8-0.3c-1.9-2.1-0.9-4 0.8-5.6c1.8-1.8 3.7-1.5 5.2 0zm109.6-89.9c1.8 1.8 2.1 3.7 0.5 5.5c-1.7 1.9-3.8 2.1-5.7 0.4c-1.9-1.6-2.3-3.7-0.6-5.7c1.8-2 3.9-1.4 5.8-0.2zm-84.8 151.2c-1.6-1.9-1.7-3.8 0-5.6c1.7-1.8 3.7-1.6 5.5 0c1.7 1.7 2.2 3.6 0.4 5.4c-1.8 1.9-3.9 1.6-5.9 0.2zm-115.3-28.4c2.6-2.4 4.4-2.8 6.4-1.2c1.8 1.4 2.1 4.2 0.6 5.7c-1.4 1.5-5 1.7-6.2-0.1c-0.8-1.3-0.6-3.3-0.8-4.4zm-44.3 119.3c-2.4 2.7-5.2 2.9-6.9 1.3c-1.8-1.6-1.8-3.5-0.2-5.2c1.6-1.9 4.7-2.3 6-0.4c0.9 1.3 0.8 3.3 1.1 4.3zm125.8-231.4c-1.8-1.8-2-4.6-0.4-6c2-1.8 4.1-1.1 5.8 0.5c1.7 1.6 2 3.5 0.4 5.2c-1.8 1.8-3.9 1.6-5.8 0.3zm-230.2 462.6c-1.7 2-4.9 2.4-6.4 0.9c-1.8-1.7-1.3-3.6 0.1-5.2c1.6-1.7 3.7-2.7 5.7-0.9c1.7 1.6 1.7 3.6 0.6 5.2zm349.7-438.4c-0.9-0.1-2.9 0.2-4.1-0.5c-2.2-1.4-2.3-3.7-0.7-5.7c1.4-1.7 3.4-2.5 5.5-1.2c1.6 1 1.6 4.8-0.7 7.4zm-383.3 496.5c0-0.9-0.4-2.8 0.3-4.1c1.2-1.9 5-1.7 6.7 0c1.5 1.6 1.3 3.2-0.1 4.6c-1.6 1.9-4.3 1.9-6.9-0.5zm500.7-447c-2.4 2.8-5.5 3.4-6.9 2c-1.8-1.8-1.5-3.8-0.1-5.6c1.6-2 4.4-2.3 5.9-0.3c0.9 1.2 0.9 3 1.1 3.9zm-260.1-105.5c-0.1 0.9 0.1 2.8-0.6 4c-1.2 1.9-5 1.8-6.5 0.2c-1.7-1.7-1.3-3.6 0.1-5.3c1.5-1.6 4.4-1.4 7 1.1zm-237.4 438.6c-2.3 2.5-5.5 2.8-7 1.4c-1.7-1.7-1.5-3.6-0.1-5.3c1.5-1.7 5-2 6.2-0.3c0.8 1.3 0.7 3.2 0.9 4.2zm330.8-217.8c1.6 1.8 1.5 3.5-0.3 5.1c-1.6 1.4-3.4 3-5.7 1.2c-1.6-1.3-1.3-4.9 0.5-6.5c1.8-1.7 3.7-1.3 5.5 0.2zm-32 64.2c-1.3-1.3-1.4-3.1 0.1-4.8c1.6-1.9 3.8-2.2 5.8-0.5c1.8 1.5 2.1 3.5 0.7 5.5c-1.3 1.7-4.3 1.8-6.6-0.2zm-166 92.5c-1.9-1.8-1.8-4.8-0.2-6.4c1.7-1.7 3.5-1.3 4.9 0.2c1.6 1.8 2.4 3.9 0.6 5.9c-1.6 1.8-3.7 1.6-5.3 0.3zm-4.4-85.6c-1.3-1.3-1.4-3 0-4.6c1.7-2 4.6-2.2 6.4-0.5c1.6 1.5 1.8 3.2 0.4 4.9c-1.4 1.8-4.8 1.9-6.8 0.2zm-74.4 55.1c-0.4 1.8-0.5 3.7-1.3 5.2c-1 1.6-5 1.5-6.3 0c-1.4-1.7-1.1-3.4 0.5-4.9c1.7-1.6 4.9-1.8 7.1-0.3zm119.9-340.3c-1.5-1.6-1.2-3.5 0.4-5.3c1.5-1.6 3.4-1.9 5.2-0.3c1.9 1.6 2.2 4.1 0.7 5.7c-1.4 1.5-4.4 1.6-6.3-0.1zm158 249.3c-1.8 1.7-3.5 2-5.3 0.4c-1.9-1.8-2-3.8-0.3-5.7c1.5-1.8 3.5-2.2 5.4-0.4c1.9 1.8 1.4 3.8 0.2 5.7zm-92.8-194.7c-1.5 1.4-3.3 1.6-5 0c-1.6-1.6-2.4-3.6-0.6-5.4c1.6-1.7 3.8-2.2 5.9-0.7c1.5 1.2 1.4 4.2-0.3 6.1zm-82 229.6c-1.4-1.5-1.2-3.3 0.3-5c1.6-1.7 4.3-1.6 6 0.2c1.6 1.7 1.8 3.5 0.1 5.2c-1.5 1.6-4.4 1.5-6.4-0.4zm-32.4-203.9c2.8 2.4 3.4 5.4 1.9 6.8c-1.7 1.8-3.7 1.6-5.6 0.2c-1.6-1.3-1.9-5.3-0.1-6.4c1.2-0.8 3-0.5 3.8-0.6zm232.9 111.6c-1-0.2-3.1 0.1-4.3-0.8c-2-1.4-1.9-3.9 0-5.3c1.4-0.9 3.6-1.6 5.1-1.1c1.8 0.6 1.6 4.6-0.8 7.2zm-309.5 11.8c-2.4 1.7-6.5 2.1-7.4 0.5c-0.6-1.2-0.6-3.4 0.1-4.6c1.1-1.8 5.7-2.5 6.4-1.1c0.8 1.5 0.6 3.4 0.9 5.2zm169.7-7.5c-2.8 2.6-4.6 2.4-6.4 0.8c-1.7-1.5-1.8-3.2-0.3-4.9c1.4-1.6 5.5-2.4 6.1-1c0.8 1.7 0.5 3.9 0.6 5.1zm-85.1 202.2c0.1-0.9-0.1-2.7 0.6-4c1.1-2 4.5-2.2 6.1-0.7c1.7 1.5 1.8 3.4 0.3 5.1c-1.4 1.8-4.4 1.9-7-0.4zm-131.4 91.5c-1.6 1.4-3.6 1.8-5.3 0.2c-1.9-1.8-1.5-4 0.1-5.8c1.4-1.6 3.3-2.1 5.2-0.7c1.7 1.3 1.7 4.4 0 6.3zm443.8-245.3c-1.7 1.4-3.7 1.9-5.5 0.2c-2-1.8-1.4-3.9 0.3-5.7c1.5-1.7 3.3-2 5.2-0.5c1.7 1.4 1.7 4.2 0 6zm-257.6 94.1c0.2-0.9 0.1-2.6 0.8-3.8c1.3-2.1 4.7-2.7 6.1-1.3c1.8 1.7 1.5 3.8 0.2 5.6c-1.3 1.8-4.5 1.8-7.1-0.5zm101.8-291.7c2.5-2.2 4.4-3 6.3-1.1c1.7 1.6 2.3 3.7 0.7 5.8c-1.2 1.6-5 1.6-6.1-0.2c-0.9-1.3-0.7-3.3-0.9-4.5zm-27.2 5.8c-1.7-1.6-2.2-3.5-0.6-5.4c1.6-2 3.7-1.6 5.5-0.1c1.8 1.4 2.4 3.3 0.9 5.4c-1.2 1.7-3.9 1.7-5.8 0.1zm32.7-29c-1.5 1.7-4.2 1.8-5.9 0.2c-1.8-1.7-1.7-3.6-0.2-5.4c1.6-1.8 3.4-1.9 5.2-0.4c1.8 1.5 2.4 3.5 0.9 5.6zm-80.2 111.8c0 1 0.5 2.8-0.1 4.2c-0.8 1.8-4.9 1.9-6.4 0.5c-1.8-1.7-1.5-3.6-0.1-5.2c1.8-2 3.8-1.7 6.6 0.5zm-194.9 267.6c0.1-1.1-0.2-3.1 0.6-4.5c1-1.8 4.2-1.4 6 0.5c1.6 1.5 1.9 3.3 0.2 4.8c-1.9 1.7-4 1.5-6.8-0.8zm276.2-210.1c-1.7-2-1.3-3.9 0.3-5.5c1.6-1.6 3.5-1.6 5.2 0c1.7 1.6 1.9 4.5 0.4 5.8c-2 1.6-4 1.1-5.9-0.3zm-304.1 177c1 0.1 2.7-0.1 3.9 0.6c2 1.4 2.2 4.6 0.6 6c-1.8 1.6-4 1.5-5.6 0c-2.1-1.9-1-4 1.1-6.6zm166.5-198.5c-1.9 1.6-3.9 1.4-5.5-0.3c-1.7-1.7-1.5-3.8 0.2-5.5c1.7-1.8 3.7-1.4 5.4 0.3c1.6 1.8 1.6 3.7-0.1 5.5zm110.5 52.2c-1.8-2.5-2.1-6.2-0.6-7.5c1.9-1.5 3.5-0.6 4.9 0.8c1.7 1.6 2.7 3.9 0.7 5.6c-1.1 1-3.3 0.8-5 1.1zm-380.3 270.3c-2 1.7-4.2 2.3-6.1 0.7c-1.8-1.5-1.4-3.6 0.1-5.2c1.5-1.6 3.5-2.5 5.5-0.9c1.9 1.5 1.5 3.6 0.5 5.4zm-6-141.3c-1.8 1.3-3.9 2.1-5.9 0.5c-1.9-1.6-1.3-3.8 0.3-5.4c1.6-1.7 3.7-2.4 5.5-0.8c1.8 1.5 1.6 3.7 0.1 5.7zm115.2 159.1c0.8 0.1 2.8-0.2 3.9 0.6c2 1.4 2.2 3.6 0.6 5.7c-1.3 1.6-4.2 1.6-5.8 0c-1.5-1.4-1.3-3.7 1.3-6.3zm18.1-226.7c1.9-1.6 3.8-1.6 5.7 0.1c1.5 1.5 2 3.1 0.5 4.9c-1.4 1.6-4.6 1.8-6.2 0.3c-1.7-1.7-1.6-3.5 0-5.3zm219.6-150.2c2.2-2.6 5.4-3 6.7-1.1c0.9 1.1 1.2 3.3 0.7 4.6c-0.7 1.8-5.1 2.2-6.4 0.5c-0.9-1.1-0.8-3.1-1-4zm32.5 59.5c-1.5-1.9-2.1-3.8-0.4-5.7c1.7-1.8 3.7-1.4 5.3 0.1c1.6 1.5 2.4 3.6 0.6 5.5c-1.7 1.8-3.7 1.3-5.5 0.1zm54.3-35c2.7-2.3 4.6-2.4 6.3-0.5c1.5 1.6 1.8 3.4 0.1 5.1c-1.5 1.6-4.8 1.7-5.8-0.1c-0.7-1.4-0.5-3.4-0.6-4.5zm26.3-194.8c-1.5 1.6-3.4 2.3-5.1 0.6c-1.8-1.9-1.5-4.1 0.1-5.9c1.4-1.6 3.2-1.9 4.9-0.5c1.7 1.3 1.7 4.1 0.1 5.8zm-163.6 314.2c2.5-2.4 4.4-2.7 6.3-1.1c1.8 1.5 2.4 3.4 0.8 5.4c-1.2 1.6-4.9 1.6-6.1-0.1c-0.9-1.3-0.8-3.1-1-4.2zm-53.2 56.6c1.8 0.2 3.7 0 5.1 0.7c2 1.1 2.2 4.3 0.7 5.8c-1.7 1.7-3.7 1.7-5.6 0.4c-1.6-1.2-1.7-4.3-0.2-6.9zm190.7-318.4c1.8 1.9 2.3 3.8 0.5 5.5c-1.9 1.8-4 1.8-5.8 0c-1.8-1.9-1.3-3.8 0.3-5.5c1.7-1.7 3.5-1.4 5 0zm81.3 29.6c-1.3-1.7-2.2-3.6-0.3-5.4c1.8-1.8 3.8-1.4 5.5 0.3c1.7 1.6 2 3.6 0.3 5.5c-1.8 2-3.7 0.9-5.5-0.4zm-29-110.5c-0.9-0.1-2.6 0.2-3.8-0.5c-1.8-1-2.4-5.2-0.9-6.3c1.1-0.8 3.3-0.9 4.5-0.3c2.2 1.1 2.5 4.2 0.2 7.1zm-64.5 455.2c-2.7 2.6-4.6 2.6-6.5 0.8c-1.6-1.4-1.8-3.1-0.3-4.8c1.6-1.8 5-2.2 6-0.5c0.8 1.4 0.7 3.4 0.8 4.5zm39.9-376.4c2.4 2.6 2.9 4.5 1.1 6.3c-1.7 1.7-3.8 1.7-5.5 0.1c-1.8-1.6-1.8-4 0.1-5.4c1.2-0.9 3.2-0.8 4.3-1zm-74 231.5c-0.2 1.2 0.2 3.3-0.6 4.6c-1.4 1.9-3.8 2.2-5.8 0.6c-1.9-1.6-1.5-3.5 0-5.2c1.5-1.7 3.4-2.1 6.4 0zm-38.2-225.3c1.5 1.2 1.5 3 0.1 4.6c-1.6 1.8-3.8 1.9-5.6 0.3c-1.7-1.5-2.2-3.7-0.6-5.5c1.8-2.2 3.9-1.2 6.1 0.6zm168.1 110.3c0.2-1.6 0-3.5 0.8-4.7c1.2-1.9 3.5-2.3 5.4-0.8c1.7 1.4 2.1 3.5 0.6 5.5c-1.1 1.6-4.1 1.6-6.8 0zm-421.2 103.4c-2-2.2-0.7-4 0.7-5.7c1.3-1.6 3-1.8 4.5-0.2c1.8 1.7 2.1 4.8 0.4 6.1c-1.8 1.5-3.8 1.3-5.6-0.2zm116.2-94.2c1.1 1.1 1.3 2.6-0.2 4.1c-1.7 1.6-4.9 1.9-6.3 0.5c-1.7-1.8-1.2-3.6 0.3-5.2c1.6-1.7 4.1-1.5 6.2 0.6zm23.8 31.8c-1.6-1.4-1.9-4.5-0.6-5.9c1.8-1.8 3.6-1.3 5.3 0.1c1.7 1.5 2.4 3.4 0.8 5.4c-1.3 1.7-3.9 1.8-5.5 0.4zm45.1 249.1c-0.2 1.1 0.1 3-0.7 4.3c-1 1.7-4.6 1.5-6.1-0.1c-1.5-1.6-1.5-3.4 0.1-4.9c1.9-1.8 3.9-1.5 6.7 0.7zm-43.3-367.6c-0.2 1.3 0.1 3.2-0.7 4.6c-0.9 1.7-4.5 1.5-5.9 0c-1.5-1.7-1.4-3.7 0.1-5.3c1.8-1.9 3.7-1.1 6.5 0.7zm53.6 60.9c-2.6-2.4-2.7-5.3-1.1-6.9c1.6-1.5 3.3-1.5 4.9 0c1.6 1.4 1.7 4.8-0.1 6.1c-1.1 0.7-2.9 0.6-3.7 0.8zm-330.8 294.9c0.1-0.9-0.2-2.7 0.5-4c1-1.8 4.3-1.5 6.1 0.2c1.5 1.4 1.9 2.9 0.5 4.6c-1.6 1.7-4.3 1.7-7.1-0.8zm257.7-127.7c0 1 0.3 2.7-0.4 3.9c-1.1 1.9-4.9 2.2-6.4 0.7c-1.7-1.6-1.2-3.4 0.1-4.9c1.8-1.8 3.8-1.8 6.7 0.3zm40.4-252.1c-1.8-1.7-1.8-3.6-0.3-5.4c1.4-1.9 3.3-2 5-0.4c1.7 1.6 2.4 3.5 0.8 5.4c-1.6 1.9-3.6 1.8-5.5 0.4zm-13.6 392.5c2.7-2 4.7-2.7 6.7-0.9c1.6 1.5 1.6 3.4 0 4.9c-1.7 1.6-4.1 2.1-5.8 0.3c-0.9-1-0.7-3.1-0.9-4.3zm277.6-319c-1.8 1.6-3.7 2-5.6 0.5c-2.1-1.7-1.4-3.7-0.1-5.4c1.4-1.9 3.3-2.2 5.1-0.6c1.8 1.6 1.9 3.5 0.6 5.5zm24.8 56.1c-1.8-1.7-1.8-3.6-0.2-5.2c1.6-1.9 3.6-1.8 5.4-0.2c1.7 1.4 2.2 3.3 0.6 5.1c-1.8 1.8-3.9 1.7-5.8 0.3zm-470.4 132.4c-2.4 1.9-6.2 2.6-7 1.1c-0.7-1.3-0.8-3.7 0-4.9c1.3-2.1 3.8-2.2 5.5-0.4c0.9 1 1 2.8 1.5 4.2zm26.6 21.2c2.7 2.3 3 5 1.5 6.6c-1.5 1.6-3.4 1.7-4.9 0.2c-1.6-1.7-2.3-4.1-0.6-5.9c1-0.9 3.1-0.7 4-0.9zm171 0.5c-1.2-0.2-3.2 0.1-4.5-0.6c-2.1-1.3-2.2-3.5-0.6-5.4c1.4-1.8 3.3-1.9 5.1-0.4c1.8 1.6 2.2 3.4 0 6.4zm243.6-153.2c0.1-1.7-0.3-3.7 0.4-5.1c0.9-1.9 4.3-2.1 5.5-0.2c0.9 1.2 1.2 3.4 0.6 4.8c-0.7 1.9-3.9 2-6.5 0.5zm-162.6 36.3c-1.2-0.1-3.2 0.2-4.4-0.6c-1.8-1.2-2.4-3.5-0.7-5.4c1.6-1.7 3.6-2.1 5.5-0.4c1.8 1.7 1.3 3.7-0.4 6.4zm-109.9 110.7c2.4 2.7 2.5 4.6 0.9 6.4c-1.5 1.5-3.5 1.6-4.9 0.1c-1.7-1.7-2.1-4.3-0.4-5.9c1.1-0.9 3.4-0.5 4.4-0.6zm508.9-104.5c-0.1 0.6 0.3 2.2-0.3 3.2c-1.2 2-5.5 2.4-6.6 0.5c-0.7-1.1-0.6-3.3 0.1-4.5c1.1-2 4-1.7 6.8 0.8zm-611.7 337.8c1.7 1.4 1.8 2.9 0.5 4.5c-1.3 1.7-4.6 1.9-5.8 0c-0.9-1.2-1.2-3.5-0.7-4.9c0.7-1.8 4-1.4 6 0.4zm467.5-389.2c-0.1 1.8 0.3 3.9-0.6 5.1c-1.3 1.9-3.6 1.7-5.5 0.2c-1.6-1.3-1.7-4-0.1-5.4c1.8-1.6 3.6-1.6 6.2 0.1zm-324.7 387c-2.6 2.6-4.6 2.7-6.6 1.2c-1.6-1.3-2.1-3.1-0.6-4.9c1.2-1.5 4.8-1.7 6.2-0.1c0.8 1.1 0.8 2.9 1 3.8zm295.4-273.7c1.1 0.2 3.2 0 4.4 0.9c1.9 1.5 2 3.9 0.3 5.7c-1.6 1.8-3.6 1.1-5.2-0.3c-1.8-1.7-1.8-3.6 0.5-6.3zm-418.3 217.9c2.7-1.9 5-3 6.6-1c0.9 1.1 0.7 3.7 0 5.2c-0.7 1.5-4.7 1.5-5.7-0.1c-0.8-1.2-0.7-3-0.9-4.1zm328.7-320.3c-2.2-2.6-2.6-4.6-0.9-6.4c1.6-1.6 3.6-1.4 5.3 0.1c1.8 1.7 2.1 4 0.2 5.4c-1.2 0.9-3.4 0.7-4.6 0.9zm-2.4-29.9c-1.7-1.6-1.1-3.2 0.2-4.5c1.6-1.8 3.7-2.2 5.5-0.6c1.5 1.4 2.2 3.3 0.6 5.2c-1.3 1.5-4.7 1.3-6.3-0.1zm142.4 18.6c2.5-2.5 4.5-2.5 6.2-1c1.7 1.5 1.9 3.4 0.5 5.3c-1.4 1.7-4.5 1.9-5.7 0.1c-0.9-1.3-0.8-3.3-1-4.4zm-499.2 161.2c2.2 2.5 2.8 4.5 1.1 6.4c-1.5 1.7-3.5 1.6-5.1 0c-1.7-1.7-1.9-3.9-0.2-5.4c1.1-0.9 3.1-0.8 4.2-1zm159.9-147.2c1.7-1.8 3.4-2.1 5.2-0.5c1.7 1.5 2.1 3.4 0.6 5.2c-1.5 1.8-3.7 1.8-5.5 0.3c-1.9-1.5-1.6-3.3-0.3-5zm32.2 112c2.7-2.3 4.8-2.3 6.2-0.5c0.9 1.1 1.2 3.4 0.6 4.6c-0.9 1.8-5.1 1.8-6.3-0.1c-0.7-1.2-0.4-3-0.5-4zm251.3-119.1c-1.5-1.5-1.5-3.3 0-5c1.5-1.8 3.3-2 5.1-0.5c1.7 1.5 2.4 3.2 1 5.2c-1.4 1.7-4.2 1.9-6.1 0.3zm-289-135.6c1.7 0.2 3.5-0.1 4.9 0.6c1.9 1 2.2 4.5 0.5 5.3c-1.5 0.8-4 1-5.2 0.2c-1.1-0.8-0.8-3.3-1.2-5q0.5-0.5 1-1.1zm-155 405.2c2.6-2.4 4.5-2.4 6.3-0.9c1.5 1.4 2.4 3.1 0.7 4.8c-1.8 1.9-4.2 1.9-5.8 0.2c-1-0.9-0.9-3-1.2-4.1zm55.8-225.9c-2.2 2.5-5.1 2.9-6.4 1.1c-0.8-1.1-1.2-3.3-0.7-4.5c0.9-1.8 5.5-2.3 6.4-0.8c0.7 1.3 0.5 3.2 0.7 4.2zm201.6 99.6c-0.3 2.8 0.1 4.8-0.7 6.2c-1.1 1.8-3.2 2-5.1 0.5c-1.6-1.3-2.1-4.8-0.5-5.7c1.4-0.9 3.4-0.6 6.3-1zm73.4-144.7c1.7 0.2 3.8-0.1 5 0.8c1.7 1.1 2.2 3.3 0.7 5.1c-1.6 1.8-4 1.9-5.4 0.2c-1-1.1-0.9-3.3-1.3-4.9q0.5-0.6 1-1.2zm-176.9-183.4c-2.6-2.4-2.7-5.3-1.1-6.9c1.4-1.5 3-1.6 4.6-0.3c1.8 1.5 2 4.6 0.2 6.1c-1.1 0.9-2.8 0.9-3.7 1.1zm198.1-15.9c0.9 0.1 2.6-0.2 3.8 0.5c1.9 1.1 1.9 4.1 0.4 5.8c-1.5 1.6-3.2 1.8-4.9 0.4c-1.7-1.3-1.6-4.1 0.7-6.7zm-514.7 481.1c-2.6 2-4.5 2.5-6.3 0.7c-1.7-1.6-1.5-3.6 0.1-5.1c1.7-1.6 4-1.8 5.4 0.1c0.9 1.1 0.6 3.1 0.8 4.3zm327.5-182c-2-2.4-2.4-5.4-0.6-6.6c1.2-0.7 3.5-0.9 4.6-0.2c2 1.3 2.2 3.9 0.5 5.6c-1 1-3 0.9-4.5 1.2zm84.4 18.9c2.3-2.7 5.2-3.1 6.4-1.3c0.8 1.2 1.1 3.3 0.6 4.6c-0.8 1.8-4.6 2-6 0.3c-0.8-1.1-0.8-2.8-1-3.6zm307.2-126.1c2.5-2.4 4.4-2.7 6.2-1.1c1.6 1.4 1.9 3.2 0.5 4.9c-1.3 1.6-4.6 2-5.7 0.4c-0.9-1.3-0.8-3.1-1-4.2zm-553.4 227c-1-0.1-2.9 0.1-4.2-0.6c-1.8-1-1.4-4 0.4-6c1.3-1.3 2.7-1.8 4.3-0.4c1.6 1.5 1.7 4.4-0.5 7zm122.4 163.4c-2.7 2.2-4.7 2.5-6.6 0.8c-1.6-1.3-1.7-3-0.3-4.5c1.6-1.7 4.9-2 6.1-0.2c0.8 1.1 0.6 2.9 0.8 3.9zm491.1-307.8c2.5-2.6 4.6-3.1 6.6-1.4c1.5 1.2 2 2.9 0.4 4.5c-1.6 1.8-5 2.3-6.2 0.6c-0.7-1.1-0.7-2.8-0.8-3.7zm-592.6-88.9c-0.1 1.1 0.4 2.9-0.2 4.3c-0.8 1.7-5 1.9-5.8 0.3c-0.6-1.3-0.7-3.6 0.1-4.9c1.1-2 3.3-1.6 5.9 0.3zm58 52.9c2.3 2.5 2.6 4.7 0.7 5.9c-1.2 0.8-3.5 0.8-4.9 0.2c-1.9-0.9-2.1-4.3-0.3-5.3c1.4-0.8 3.3-0.6 4.5-0.8zm-146.2 11.9c-1.4-1.7-1.8-3.6-0.1-5.2c1.9-1.8 4.2-1.3 5.4 0.5c0.8 1.1 0.9 3.5 0.2 4.5c-1.4 2.1-3.6 1.7-5.5 0.2zm7.6 222.4c2.6-2.2 4.5-2.7 6.5-1c1.6 1.4 1.5 3 0.2 4.5c-1.7 1.9-5 2.5-6 0.8c-0.8-1.3-0.6-3.2-0.7-4.3zm503.3-243.8c-2.3-2.6-2.1-4.4-0.5-6c1.4-1.3 3.1-2.2 4.9-0.6c1.5 1.4 1.5 5.4-0.1 6.2c-1.4 0.7-3.3 0.3-4.3 0.4zm148.7 49c-2.4 2.6-5.1 2.9-6.5 1.4c-1.7-1.8-1.1-3.6 0.4-5.1c1.6-1.7 3.7-2.3 5.3-0.3c0.9 1.2 0.7 3.1 0.8 4zm-29.8-30.6c0 0.9 0.4 2.7-0.2 3.9c-0.8 1.7-4.5 1.7-5.8 0.3c-1.5-1.6-2-3.6-0.3-5.2c1.8-1.8 3.8-0.9 6.3 1zm-37.4-51c0.2-1.1-0.1-3.1 0.8-4.3c1.4-1.9 3.9-1.9 5.3-0.1c0.8 1.1 1 3.7 0.2 4.8c-1.3 1.9-3.5 1.7-6.3-0.4zm-166.6 29.8c1.2 0.1 3.3-0.3 4.3 0.6c1.8 1.6 1.5 4 0 5.8c-1.5 1.7-3.4 1.5-4.9 0c-1.7-1.8-1.3-3.7 0.6-6.4zm-75.3 179.8c-0.9 0-2.8 0.3-4.1-0.3c-1.7-0.8-1.6-4.4-0.1-5.9c1.7-1.7 3.4-1.1 4.9 0.2c1.7 1.6 1.7 3.5-0.7 6zm192.2-185.6c2.1 2 2.3 6.1 0.5 7.2c-1 0.7-3.1 0.7-4.3 0.1c-1.8-0.9-1.6-4.4 0.3-5.9c1-0.9 2.6-1.1 3.5-1.4zm-307.5 246.1c-1.1-1.1-1.2-2.6 0.3-4.1c1.6-1.7 3.5-1.7 5.2-0.2c1.5 1.3 2.3 3.1 0.8 4.9c-1.1 1.5-4.2 1.4-6.3-0.6zm63.9-488.8c5.9-1.7 7.3-1.5 7.9 1.5c0.5 2.2-0.3 3.6-2.5 4.1c-2.9 0.6-5-1.6-5.4-5.6zm-180.5 408.6c0.1-0.8-0.4-2.6 0.2-3.8c1.1-1.9 4.9-2.4 6-0.7c0.7 1.2 0.7 3.5 0 4.8c-1.2 2.1-3.4 1.8-6.2-0.3zm111.4-32.5c0.1-1.2-0.1-3.2 0.7-4.4c1.1-1.8 3.5-2.3 4.9-0.4c0.9 1.1 1.4 3.6 0.7 4.8c-1.2 2-3.5 1.8-6.3 0zm175.6-40c0 1.1 0.4 2.9-0.2 4.3c-0.7 1.6-5.1 1.4-6-0.4c-0.6-1.2-0.4-3.4 0.3-4.5c1.4-2 3.4-1.4 5.9 0.6zm-356.6 302.3c-2.5 2.2-4.5 2.8-6.3 1.1c-1.5-1.5-1.4-3.4 0-5c1.7-1.7 3.9-2 5.5-0.3c0.8 1.1 0.6 3.1 0.8 4.2zm204-545.5c-1.7-0.3-3.8 0-5.1-0.9c-1.9-1.2-1.8-3.4-0.2-5.1c1.4-1.6 3.6-1.7 4.8-0.1c1.1 1.2 1.1 3.2 1.6 4.9q-0.5 0.6-1.1 1.2zm-106.3 315.5c0.2-1.7-0.1-3.8 0.8-5.1c1.3-1.8 3.5-1.6 5.2-0.1c1.5 1.5 1.7 3.6 0.1 4.9c-1.2 1-3.3 1-4.9 1.4q-0.6-0.6-1.2-1.1zm-104.2 111.2c1.9 2.6 2.3 5.6 0.6 6.8c-1.1 0.6-3.4 0.8-4.2 0.1c-1.8-1.5-2.5-3.9-0.7-5.8c0.9-0.9 2.9-0.7 4.3-1.1zm238.5-287.3c0.2-1.8-0.1-3.8 0.7-5.1c1.2-1.9 3.4-1.5 4.9-0.1c1.6 1.4 2.2 3.6 0.5 5.1c-1.1 1-3.3 0.8-5 1.1q-0.5-0.5-1.1-1zm65.3 161.3c1 0.1 2.9-0.2 4.1 0.6c1.7 1.3 2.5 3.5 0.7 5.4c-1.6 1.6-3.6 1.4-5.3-0.1c-1.8-1.5-1.7-3.3 0.5-5.9zm-273.3 296.9c2.4-2.2 4.5-2.9 5.8-1c0.9 1.2 1.1 3.8 0.4 4.9c-1.2 2-3.8 2-5.4 0.3c-0.9-1-0.6-3.1-0.8-4.2zm21-342.8c0 2.8 0.5 5.7-0.1 5.9c-1.8 0.7-4.3 1.1-5.9 0.4c-1.9-0.9-1.6-3.5-0.1-4.7c1.3-1 3.3-0.9 6.1-1.6zm391.7-9.4c-2.4-2.5-2.4-4.3-0.8-6c1.4-1.5 3.2-1.8 4.9-0.3c1.8 1.6 2.1 3.9 0.3 5.3c-1.1 1-3.3 0.8-4.4 1zm-413.7 181.5c-0.1 1.8 0.3 4-0.6 5.4c-1 1.8-3.3 1.6-4.7 0.1c-1.6-1.6-2.2-3.9-0.4-5.5c1-0.9 3-0.7 4.6-1q0.6 0.5 1.1 1zm-61.4 36c0.2-1.6 0-3.5 0.8-4.8c1.3-1.9 3.5-1.7 5.2-0.2c1.8 1.6 1.9 3.8 0.1 5.1c-1.3 0.9-3.4 0.7-5.1 1q-0.5-0.6-1-1.1zm131.6-431.3c-2.6 2.4-4.3 2.3-6 0.7c-1.4-1.3-2.2-2.7-0.4-4.3c1.7-1.3 3.6-3.1 5.5-0.8c0.9 1.2 0.7 3.3 0.9 4.4zm-130.4 285.5c-0.1 1 0.2 3-0.6 4.1c-1.4 2-3.9 2-5.3 0.2c-0.8-1.1-1-3.7-0.3-4.8c1.3-2.1 3.5-1.7 6.2 0.5zm-56.4 2.1c-0.1 0.9 0.1 2.5-0.5 3.7c-1 1.9-4.9 2.4-6 0.8c-0.7-1-0.9-3-0.3-4.2c0.8-1.9 4.5-2.2 6.8-0.3zm394.7-46.7c-0.2 2.8 0.2 4.8-0.6 6c-1.3 1.8-3.5 2.2-5.4 0.5c-1.6-1.5-1.9-3.7-0.1-5c1.2-1 3.2-0.9 6.1-1.5zm-338.9 212.9c2.8 0.4 4.8 0.1 5.9 0.9c1.7 1.3 2 3.8 0.2 5.1c-1.3 0.8-4 1-5.1 0.1c-1-0.7-0.6-3.2-1-6.1zm-146.4-100.2c0.2-2.8-0.2-4.8 0.6-6c1.4-2.1 3.7-1.6 5.4-0.1c1.5 1.4 2 3.6 0.2 4.8c-1.2 1-3.3 0.8-6.2 1.3zm427.7-137.3c-0.1 1 0.2 2.7-0.5 3.9c-0.8 1.6-4.9 1.8-6.2 0.4c-1.6-1.5-1-3.2 0.3-4.6c1.7-1.7 3.7-1.6 6.4 0.3zm-248 349.2c2.8 0.2 4.9-0.2 6 0.7c1.7 1.4 2 3.9 0 5.3c-1.1 0.8-3.9 0.9-4.7 0.1c-1-0.9-0.8-3.2-1.3-6.1zm379.5-547.4c-1-0.2-2.7 0-3.8-0.7c-1.7-1.1-1.9-5.3-0.3-6.1c1.2-0.6 3.4-0.5 4.3 0.2c1.9 1.6 1.7 3.8-0.2 6.6zm-215 292.1c-1 0-3 0.4-4.1-0.4c-2.1-1.6-1.4-3.8 0-5.7c1.3-1.6 2.9-2.1 4.5-0.5c1.7 1.7 1.9 3.8-0.4 6.6zm-59.7 54.5c2.3-2.5 5.3-2.9 6.5-1.2c0.6 1 0.7 3.1 0.2 4.2c-1 1.8-5.1 2.3-6.1 0.7c-0.7-1.1-0.5-2.9-0.6-3.7zm-195.7 64.8c2.7-1.9 4.8-2.7 6.7-0.9c1.6 1.4 1.6 3.2 0.1 4.6c-1.7 1.7-4.1 2-5.8 0.3c-0.9-0.9-0.8-2.9-1-4zm141.4-176.2c-0.2 1.2 0.2 3.3-0.7 4.6c-1.3 1.8-3.6 1.4-5.2 0c-1.7-1.4-1.6-3.3-0.2-4.9c1.5-1.7 3.4-1.6 6.1 0.3zm144 85c-1.3-0.2-3.3 0-4.5-0.9c-1.7-1.2-2-3.4-0.5-5.2c1.4-1.7 3.3-1.7 4.9-0.3c1.8 1.5 1.8 3.5 0.1 6.4zm134.4-65c0.2-1.4 0.1-3.2 0.8-4.3c1.3-1.9 3.8-2.6 5.3-0.7c0.8 1.1 0.7 3.9-0.2 5.2c-0.7 0.9-3.1 0.7-4.8 0.9q-0.6-0.5-1.1-1.1zm3.4 58.9c-2.3-2.4-2.8-4.5-0.9-5.8c1.2-0.9 3.6-1.1 4.8-0.4c2 1.2 1.8 3.6 0.2 5c-1.1 1-3 1-4.1 1.2zm186.2-265.6c0.3-1.5 0.2-3.2 1-4.3c1.3-1.8 3.4-2.1 5.1-0.4c1.6 1.5 2 3.6 0.4 5.2c-1.7 1.9-3.7 0.9-6.5-0.5zm-689.9 313.3c-2.5 2-4.2 3.3-6.2 1.4c-1.7-1.7-1.4-3.7 0.1-5.3c1.6-1.6 3.7-1.7 5.2 0c0.8 1 0.7 2.9 0.9 3.9zm523.9-332.4c-1.1-0.1-3.2 0.2-4.2-0.6c-1.9-1.5-1.5-4 0.3-5.3c1-0.8 3.4-1 4.4-0.4c2 1.4 1.4 3.6-0.5 6.3zm-171.5-22.2c-1 0-3.1 0.7-4.1 0c-2-1.7-1.1-4.2 0.6-5.6c1.1-0.9 3.6-1.4 4.4-0.7c2 1.5 1 3.6-0.9 6.3zm-15.7 391.5c1.6 0.2 3.5-0.1 4.7 0.6c1.7 1.1 2.1 3.1 0.7 4.9c-1.3 1.6-4.4 1.7-5.5 0c-0.8-1.2-0.6-2.9-0.9-4.4q0.5-0.6 1-1.1zm352.1-383.5c2.7 0.2 4.6-0.1 5.8 0.7c2 1.2 1.7 3.3 0.2 5c-1.5 1.5-3.6 2.3-5.1 0.5c-0.9-1.2-0.5-3.4-0.9-6.2zm-491.9 417.9c0.7 0.1 2.3-0.2 3.4 0.4c1.7 1.1 2 4.7 0.3 5.7c-1.1 0.7-3.3 0.9-4.5 0.3c-1.9-0.9-1.7-3.7 0.8-6.4zm-59.1-139c1.8 2.8 2.3 5.1 0.3 6.3c-1.1 0.8-3.6 0.5-4.7-0.3c-2.1-1.6-1.2-3.9 0.5-5.2c1.1-0.8 2.8-0.6 3.9-0.8zm249.5-32.3c0.1-2.7-0.3-5 0.5-5.5c1.4-0.9 3.7-1.4 5.4-1.1c1.5 0.3 1.5 4.3-0.2 5.4c-1.2 0.8-3.1 0.7-5.7 1.2zm-248.2 208.2c0.2-1.5-0.2-3.4 0.6-4.5c1.4-2 3.9-2 5.4-0.3c0.8 0.9 1 3.8 0.4 4.4c-1.3 1-3.5 1-5.3 1.5q-0.5-0.6-1.1-1.1zm219-321.1c-1 0-3.1 0.6-3.9-0.2c-2.1-1.8-1.1-4.2 0.6-5.7c0.9-0.8 3.3-1 4.1-0.4c2 1.6 1 3.7-0.8 6.3zm-301.7 204.9c0 2.8 0.5 4.5-0.1 5.8c-0.8 1.7-4.7 2-5.6 0.3c-0.7-1.2-0.9-3.7-0.1-4.4c1-1.1 3.1-1 5.8-1.7zm185.8-147.9c2.4-2.4 4.2-2.4 6-1c1.5 1.3 2.3 3.3 0.6 4.4c-1.5 1-3.9 1.2-5.6 0.6c-0.8-0.2-0.8-2.9-1-4zm-38.2 285.5c0 1 0.4 2.9-0.4 3.9c-1.4 1.9-3.9 1.8-5.4 0.1c-0.8-0.9-1-3.4-0.3-4.4c1.3-2.1 3.5-1.7 6.1 0.4zm39.2-427.5c0 0.9 0.3 2.7-0.2 3.9c-0.8 1.8-4.9 2.3-5.7 0.8c-0.7-1.4-0.7-3.6 0-4.9c1.1-2 3.2-1.8 5.9 0.2zm-111.6 88.3c2.3 2.4 2.6 5.8 0.9 6.6c-1.3 0.6-3.5 0.6-4.6-0.2c-2-1.5-1.4-3.9 0.3-5.4c0.9-0.8 2.6-0.7 3.4-1zm182.4 248.3c-0.1 1.7 0.2 3.8-0.6 5.2c-1 1.8-3.3 1.7-4.8 0.3c-1.8-1.7-1.8-3.9 0-5.5c1-0.8 2.9-0.7 4.3-1q0.6 0.5 1.1 1zm87-514.6c1.4 0.2 3-0.1 4.1 0.6c1.9 1.1 2 4.3 0.5 5.7c-1.4 1.4-3.1 1.6-4.6 0.2c-1.5-1.4-1.5-4.1 0-6.5zm-321 353.5c-0.1 2.8 0.3 4.6-0.3 6.1c-0.7 1.6-4.5 1.8-5.4 0.1c-0.6-1.3-0.7-3.7 0.1-4.7c0.7-1 2.9-0.9 5.6-1.5zm442.5-246c2.4 2.5 2.3 4.3 0.7 6c-1.4 1.4-3.2 2.3-4.8 0.6c-1.6-1.7-1.4-4 0.4-5.5c1-0.9 2.8-0.9 3.7-1.1zm-471.1 396.3c0.1-3-0.5-5.2 0.2-6.7c0.9-1.7 3-1.6 4.5-0.1c1.6 1.6 2.3 3.8 0.7 5.5c-0.8 0.9-2.8 0.8-5.4 1.3zm535.1-256.8c-0.2 2.5 0.1 4.4-0.7 5.7c-1.1 1.7-3.5 2.1-4.6 0.2c-0.9-1.5-0.5-3.7-0.7-5.6c1.7-0.1 3.3-0.2 6-0.3zm84.3 2.1c-1.6 1.1-3.9 2.2-5.2 0c-0.7-1.1-0.2-3.8 0.7-5.1c1.3-1.7 3.4-1 4.8 0.5c1.3 1.5 1.6 3-0.3 4.6zm-523 363.2c-2.9 0-4.8 0.1-6.8 0.1c0.1-1.5-0.4-3.4 0.3-4.6c1.2-1.9 3.6-2.4 5.3-0.7c0.9 0.8 0.7 2.7 1.2 5.2zm77-179.8c0 2.9 0.4 4.9-0.2 6.6c-0.2 0.5-3.2 0.7-4.4 0c-2-1.2-2.2-3.6-0.6-5.3c0.9-0.8 2.7-0.7 5.2-1.3zm181.8-312.3c-2.4-2.3-2.9-5.7-1.1-6.8c1-0.6 3.1-0.4 4.2 0.3c1.7 1 1.7 4.5 0.1 5.7c-1 0.7-2.5 0.6-3.2 0.8zm287.8 93.9c1 0 2.7-0.3 3.8 0.3c1.6 0.9 1.8 4.8 0.2 5.8c-1.1 0.7-3.4 0.9-4.3 0.2c-1.9-1.4-1.5-3.6 0.3-6.3zm-641.2 339.3c2.7 0.3 4.7 0 5.6 0.8c1.8 1.4 1.8 4 0 5.4c-0.9 0.8-3.8 0.8-4.4 0c-1-1.1-0.7-3.3-1.2-6.2zm86.3-109.9c-1.7-0.3-3.8-0.1-5.1-1c-1.8-1.1-1.6-3.4 0-4.8c1.6-1.5 3.8-1.6 5.2 0.2c0.8 1.2 0.6 3 0.9 4.5q-0.5 0.5-1 1.1zm-35.8-57.5c0-0.9-0.3-2.6 0.3-3.7c0.8-1.6 4.8-1.8 5.8-0.2c0.7 1.1 0.8 3.3 0.2 4.2c-1.5 2.1-3.6 1.5-6.3-0.3zm123.1 77c0 0.7 0.3 2.5-0.3 3.7c-0.8 1.6-4.7 1.6-5.8 0c-0.6-1.1-0.7-3.2-0.1-4.3c1-1.9 3.6-1.8 6.2 0.6zm278.7-125.9c-0.3 1.6-0.1 4.1-0.9 4.6c-1.4 0.8-3.5 0.2-5.3 0.2c0.1-1.7-0.4-3.9 0.5-4.9c0.7-0.9 3-0.7 4.6-0.9q0.5 0.5 1.1 1zm-420.2 165c-1.8-0.3-3.8-0.1-5.2-1c-1.8-1.2-1.6-3.2 0-4.8c1.5-1.6 3.6-1.5 4.8 0.1c1 1.2 1 3.1 1.4 4.7q-0.5 0.5-1 1zm321.8-360.7c1.5 0.4 3.9 0.4 4.2 1.3c0.7 1.5 0.7 3.9-0.2 5.2c-1.2 1.7-3.7 1.4-4.7-0.4c-0.8-1.4-0.3-3.4-0.5-5.2q0.6-0.4 1.2-0.9zm-27.7 64.5c0.5-2.8 0.2-4.9 1.2-5.8c0.8-0.8 3.3-0.9 4.4-0.2c1.8 1.1 2.3 3.6 0.5 5c-1.1 0.9-3.2 0.6-6.1 1zm-100.7 139.2c-0.4 2.9 0 5.2-1 6.2c-0.8 0.8-3.6 0.6-4.7-0.2c-1.8-1.3-1.8-3.7 0-5.1c1.1-0.8 3-0.5 5.7-0.9zm-6-140.3c-0.2 1.7 0.2 4-0.7 4.9c-0.8 0.7-3.8 0.6-4.7-0.3c-0.8-0.9-0.9-3.5-0.2-4.7c0.6-0.9 2.9-0.7 4.5-1q0.5 0.6 1.1 1.1zm-92.4 519c-2.8 1.9-5 2-6.4 0.1c-0.7-0.9 0-2.9 0-4.4c2 0.2 4.1 0 6 0.7c0.5 0.2 0.3 2.6 0.4 3.6zm373.7-581.3c-2.8-0.3-4.7 0-5.7-0.8c-1.9-1.5-1.5-3.7 0.1-5.4c1.4-1.4 3.4-1.7 4.5 0.1c0.8 1.3 0.6 3.3 1.1 6.1zm-138.4 203.7c-2.4-2.4-2.7-4.3-1.1-6c1.4-1.6 3.4-1.6 4.5 0c0.8 1.3 1.3 3.7 0.6 4.8c-0.6 1-3 0.9-4 1.2zm-139.5-56.2c-0.1 1.7 0.4 3.9-0.5 4.8c-0.9 0.9-3.5 1.1-4.8 0.5c-1.9-0.9-1.9-3.3-0.4-4.6c1.1-1 3.1-1.1 4.6-1.5q0.6 0.4 1.1 0.8zm-140.1 203.9c2.5-1.7 4-1.7 5.6-0.2c1.6 1.4 1.9 3.2 0.5 4.9c-1.4 1.6-3.5 2-4.9 0.3c-0.9-1.2-0.8-3.3-1.2-5zm445.3-268.5c-2.3-2.5-2.8-4.2-1.1-6c1.5-1.6 3.2-1.1 4.6 0.2c1.6 1.5 2.4 3.6 0.6 5.1c-1.1 0.9-3.1 0.5-4.1 0.7zm-330.1 297.9c0.3-2.7-0.1-4.6 0.6-5.6c1.3-1.7 3.5-1.9 5.2-0.4c1.8 1.5 1.7 3.6 0.1 4.8c-1.2 0.9-3.1 0.7-5.9 1.2zm-3.2-63.7c2.8 0.4 4.6 0.3 5.9 1c1.5 1 2.3 3.3 0.5 4.4c-1.5 0.8-3.9 0.7-5.6 0.2c-0.6-0.2-0.5-2.9-0.8-5.6zm195.6-86.5c0.3-2.8 0-4.7 0.7-5.9c1.2-1.9 3.5-1.7 4.7 0c0.7 1.3 1 3.7 0.3 4.8c-0.5 0.9-2.9 0.7-5.7 1.1zm-394.3 38.8c0.9 0.1 2.7-0.2 3.6 0.5c1.9 1.4 1.9 3.9 0.2 5.4c-0.9 0.8-3.4 1-4.4 0.3c-2.2-1.4-1.3-3.5 0.6-6.2zm171.6 83.1c0.3-1.5 0.1-3.3 0.9-4.4c1.2-1.7 3.5-2 4.7-0.2c0.8 1.2 1.2 3.9 0.4 4.7c-1 1-3.3 0.7-5 0.9q-0.5-0.5-1-1zm387.3-270.5c0-2.7-0.5-4.6 0.2-5.9c1.1-1.9 3.1-1.8 4.7-0.3c1.7 1.4 2.5 3.5 0.8 5.1c-1 0.9-3.1 0.6-5.7 1.1zm-104.4 230c0.1-1.4-0.3-3.2 0.4-4.3c1.3-1.7 3.6-1.7 4.8-0.1c0.9 1.2 1.3 3.7 0.7 4.8c-1.4 2.3-3.4 0.9-5.9-0.4zm303-245.8c2.1-0.1 3.5-0.6 4.3-0.1c1.7 0.8 2.1 5.6 0.6 6.7c-1 0.6-3.8 0.5-3.9 0.1c-0.6-1.9-0.7-4-1-6.7zm-669.8 142.6c-0.4 2.7-0.1 5.1-1 5.8c-1 0.8-3.7 0.7-4.8-0.1c-1.7-1.3-1.4-3.8 0.3-5.1c1.1-0.7 3-0.4 5.5-0.6zm132.5-196.6c-1.5-0.3-3.8-0.1-4.3-1c-0.8-1.2-0.8-3.6-0.1-4.9c0.9-1.7 3.2-1.8 4.3-0.2c0.9 1.4 0.8 3.4 1.2 5.1q-0.6 0.5-1.1 1zm403.6 124c-2.9-0.2-5 0.1-6.2-0.7c-0.7-0.5-0.6-3.3 0.1-4.4c1.2-1.9 3.6-2 5.1-0.3c0.8 0.9 0.6 2.8 1 5.4zm-228.1 145.2c2.9 0.1 5-0.3 6.3 0.5c0.7 0.4 0.8 3.3 0.1 4.4c-1.1 1.7-3.4 2.2-5 0.5c-0.9-0.9-0.8-2.8-1.4-5.4zm-180-298c-2.3-2.1-2.6-5.1-0.9-6.4c0.8-0.6 2.7-0.7 3.5-0.1c2 1.2 2.4 4.8 0.8 5.9c-1 0.7-2.6 0.5-3.4 0.6zm155.9 248.9c-1.5-0.4-3.7-0.2-4.3-1.1c-0.8-1.2-1-3.7-0.3-4.8c1.1-1.7 3.5-1.8 4.7 0c0.8 1.3 0.7 3.2 0.9 4.8q-0.5 0.5-1 1.1zm-146.3-114.7c-0.2 2.9 0 5-0.6 6.8c-0.1 0.4-3 0.6-4.1-0.1c-1.7-0.9-1.6-4.5 0-5.7c0.9-0.7 2.4-0.6 4.7-1zm345.6 127.6c-0.1 1.6 0.4 3.5-0.4 4.7c-1 1.8-3.4 2.3-4.7 0.5c-0.8-1.2-0.9-3.6-0.2-4.9c0.8-1.6 2.8-1.7 5.3-0.3zm-405.4-89.3c-2-2.6-2.5-4.7-0.7-6.3c0.8-0.7 3.2-0.6 4.1 0.2c1.7 1.3 2.3 3.7 0.5 5.3c-0.9 0.9-2.9 0.6-3.9 0.8zm-80.1-3.3c-0.3 2.8 0 5.1-0.9 5.9c-1 0.8-3.6 0.7-4.8 0c-1.8-1.1-1.9-3.5-0.2-4.7c1.2-0.9 3.2-0.7 5.9-1.2zm-26.8 63.7c-1.6-0.1-3.6 0.3-4.9-0.4c-1.7-1.1-1.8-3.2-0.3-4.8c1.4-1.6 3.4-1.8 4.8-0.2c0.9 1.1 0.9 2.9 1.3 4.3q-0.4 0.6-0.9 1.1zm541.1 28.4c-0.1 1 0.1 2.6-0.7 3.4c-1.4 1.7-3.7 2.6-5.3 0.6c-0.8-0.9-0.6-3.5 0.2-4.6c1.4-2.1 3.4-1.1 5.8 0.6zm-599.7 59.2c0-2.4-0.6-4.3 0.1-5.4c1.2-1.9 3.3-1.4 4.8 0c1.6 1.3 2.7 3.2 0.8 4.7c-1 0.9-3.1 0.5-5.7 0.7zm566.2-29.4c2.7 0 4.3 0.1 5.9 0.1c0 1.7 0.5 3.7-0.3 5c-1 1.7-3.4 1.9-4.7 0.2c-0.8-1-0.5-2.8-0.9-5.3zm167.7-114.8c-2.3-2.3-3-4-1.4-5.8c1.4-1.5 3.1-1.7 4.6-0.3c1.8 1.7 1.8 3.9 0.2 5.4c-0.9 0.8-2.7 0.6-3.4 0.7zm-308.1 154.9c0.2-2.6-0.1-4.2 0.6-5.3c1-1.8 4.3-1.9 5.3-0.1c0.7 1.2 0.9 3.9 0.2 4.4c-1.2 0.9-3.3 0.6-6.1 1zm-92.8-307.7c-1.1-0.1-2.9 0.3-3.7-0.4c-1.8-1.5-1.9-3.8-0.2-5.4c0.8-0.7 3-0.9 3.9-0.3c2 1.4 1.4 3.5 0 6.1zm-101.5 252.6c-0.4 2.9-0.3 5-1.2 6.5c-0.4 0.6-3.4 0.5-4.3-0.3c-1.8-1.6-1.3-3.9 0.5-5.4c0.8-0.7 2.5-0.4 5-0.8zm83.7 114.3c0.1-0.8-0.1-2.5 0.6-3.5c1.2-1.7 3.5-2.5 5-0.7c0.8 1.1 1 3.6 0.3 4.8c-1.2 2.1-3.3 1.4-5.9-0.6zm-25-24.6c-1.4-0.4-3.3-0.3-4.3-1.1c-1.7-1.4-1.9-3.9 0-5c1.2-0.7 3.8-0.5 4.8 0.4c0.9 0.8 0.5 3.1 0.6 4.7q-0.5 0.5-1.1 1zm-95.9-280c-1.6-0.3-3.6-0.2-4.8-1.1c-1.6-1.2-1.7-3.6 0.1-4.7c1.1-0.7 3.6-0.7 4.5 0.1c1 0.9 0.9 3 1.3 4.6q-0.5 0.6-1.1 1.1zm338 63.9c2.5 0.3 4.8-0.1 5.4 0.7c0.8 1.2 0.4 3.2 0.6 4.9c-1.8 0.1-3.9 0.9-5.2 0.2c-0.8-0.5-0.5-3.1-0.8-5.8zm-409.3 414.5c2.7 0.3 4.9 0 5.5 0.8c0.8 1.1 0.4 3.2 0.6 4.8c-1.7 0.1-3.8 0.9-4.9 0.2c-1-0.6-0.7-3-1.2-5.8zm417.1-351.5c-1.7-0.1-3.8 0.3-4.8-0.5c-0.8-0.8-1-3.4-0.4-4.6c1-1.8 3.3-1.9 4.7-0.4c1 1.1 1 2.9 1.4 4.3q-0.4 0.6-0.9 1.2zm-445.7 353.4c2.8 0.2 4.9-0.3 5.9 0.5c0.8 0.7 0.9 3.7 0.2 4.4c-1.1 0.9-3.5 1.1-4.8 0.5c-0.8-0.3-0.7-2.8-1.3-5.4zm236.9-571.6c-0.7 0-2.3 0.5-3.3-0.1c-1.7-0.8-1.7-4.4 0.1-5.7c0.9-0.6 3.1-0.9 3.9-0.3c2.1 1.6 1.4 3.6-0.7 6.1zm-69.9 365.3c2.4 2.5 2.1 4.3 0.7 6c-1.3 1.5-2.9 1.5-4.2 0c-1.7-1.7-1.9-3.9-0.1-5.4c1-0.8 2.8-0.5 3.6-0.6zm336.8-149.2c-2.8-0.4-5 0-6-0.9c-0.8-0.7-0.8-3.4-0.1-4.5c1.1-1.7 3.4-1.6 4.8 0c0.8 1.1 0.7 2.8 1.3 5.4zm-538.2 192.6c0.2-2.6-0.1-4.4 0.6-5.4c1.4-1.8 3.8-1.7 5.1-0.1c0.8 1 1 3.8 0.4 4.4c-1.2 0.9-3.3 0.7-6.1 1.1zm287.4-73.5c-0.1 0.8-0.1 3.3-0.5 3.4c-1.8 0.4-3.8 0.2-5.6-0.3c-0.3-0.1-0.5-3.1 0.2-4c1.5-1.8 3.4-1.4 5.9 0.9zm-194.4 268.4c-0.2-2.4-0.7-4-0.3-5.3c0.6-1.5 4.4-1.3 5.8 0.5c0.7 0.9 0.8 3.6 0.4 3.8c-1.5 0.6-3.4 0.6-5.9 1zm140.8-176.2c-2.6-0.3-4.4 0.1-5.3-0.7c-2-1.5-1.5-3.9 0.2-5.3c0.8-0.7 3.5-0.7 3.8-0.2c0.8 1.4 0.8 3.3 1.3 6.2zm136.3 21.5c0.1-0.9 0-3.1 0.6-3.3c1.7-0.7 3.7-0.5 5.7-0.7c0 1.5 0.5 3.3-0.2 4.3c-1.4 1.9-3.5 1.7-6.1-0.3zm-199.7-48c0.2-1.6-0.1-3.8 0.8-4.7c0.8-0.8 3.3-0.8 4.4-0.1c1.9 1.1 1.9 3.4 0.3 4.7c-1.1 0.9-2.9 0.8-4.4 1.1q-0.6-0.5-1.1-1zm-194.9-54.2c-0.1 2.6 0.2 5-0.3 5.3c-1.6 0.7-3.6 0.4-5.3 0.6c-0.1-1.6-0.7-3.6 0-4.5c0.8-1 2.9-0.8 5.6-1.4zm672.3-192.2c-1.6-0.1-4.1 0.2-4.4-0.6c-0.7-1.3-0.5-3.5 0.2-4.8c0.4-0.7 3.4-1 4-0.3c0.9 1.1 0.8 3 1.1 4.6q-0.5 0.6-0.9 1.1zm-447.2 267.4c1 0.2 2.7 0 3.7 0.7c1.7 1.1 2 3 0.7 4.8c-1.3 1.7-3 1.8-4.6 0.6c-1.9-1.5-1.6-3.4 0.2-6.1zm-25.9-55.7c-0.1 2.7 0.4 4.7-0.4 5.9c-1.1 1.8-3.2 1.7-4.7 0.3c-1.7-1.6-1.7-3.7 0-5.1c1-0.8 2.7-0.6 5.1-1.1zm132-231.6c-0.1 1.8 0.2 3.9-0.5 5.5c-0.3 0.6-2.7 0.4-4.1 0.6c-0.1-1.9-0.5-3.9-0.1-5.7c0.1-0.6 2.3-0.8 3.5-1.2q0.6 0.4 1.2 0.8zm-165.9 92.5c-0.2 1.6 0.1 3.8-0.8 4.6c-0.8 0.8-3.3 0.8-4.5 0.1c-1.9-1.1-1.8-3.4-0.2-4.7c1.1-0.8 2.9-0.7 4.4-1q0.5 0.5 1.1 1zm134.9-0.6c0.7-2.7 0.6-4.5 1.5-5.5c1.4-1.7 3.7-1.2 4.6 0.5c0.7 1.2 0.6 3.8-0.2 4.4c-0.9 0.9-3.1 0.4-5.9 0.6zm395.1-130.2c-2.5-2.5-2.5-4.5-0.8-5.9c0.8-0.7 3-0.7 3.8-0.1c1.7 1.4 2.2 3.8 0.4 5.4c-0.8 0.8-2.7 0.5-3.4 0.6zm-368.7 72.5c0.4-1.6 0.2-3.7 1.2-4.8c0.6-0.8 3.1-0.9 4.2-0.3c1.8 1.2 1.7 3.5 0.2 4.8c-1.1 0.9-3 0.9-4.5 1.2q-0.5-0.4-1.1-0.9zm119.6-4.3c-2.5-0.1-4.2 0.3-5.3-0.4c-1.9-1.3-1.9-3.6-0.3-5c1-0.8 3.7-1.1 4.4-0.4c1 1 0.7 3.1 1.2 5.8zm-3.9 56.4c0.4-2.7 0.1-4.8 0.9-5.5c1-0.8 3.8-1 4.4-0.2c0.8 1 1.2 3.6 0.5 4.6c-0.6 0.9-3 0.7-5.8 1.1zm-245 90.8c-0.3 1.5-0.1 3.7-1 4.3c-1.2 0.7-3.6 0.8-4.8 0.1c-1.7-0.9-1.7-3.2 0-4.4c1.2-0.8 3.1-0.8 4.7-1.1q0.5 0.5 1.1 1.1zm247.1-63.5c0.1-1.5-0.2-3.5 0.7-4.3c1.1-1 3.1-0.9 4.7-1.3c0 1.9 0.3 4-0.4 5.7c-0.2 0.7-2.5 0.6-3.9 0.9q-0.6-0.5-1.1-1zm-380 300.9c-1.6-0.2-3.5-0.1-4.8-0.9c-1.7-1-1.7-3.3-0.1-4.3c1.1-0.8 3.5-0.8 4.6-0.1c0.9 0.7 0.9 2.8 1.3 4.2q-0.5 0.6-1 1.1zm-106-364.9c0.3-2.4 0-4.1 0.8-5.1c1.3-1.8 3.6-1.5 4.7 0.2c0.8 1.2 0.4 3.1 0.5 4.6c-1.7 0.1-3.3 0.2-6 0.3zm104.4 336.4c-1.5-0.1-3.8 0.3-4.4-0.6c-0.8-1.1-0.9-3.5-0.3-4.8c0.8-1.8 3.1-2 4.3-0.3c0.9 1.2 0.9 3.1 1.3 4.6q-0.4 0.6-0.9 1.1zm-34.1-140.5c-1.6-0.2-3.7 0.1-4.7-0.8c-0.8-0.7-0.9-3.3-0.2-4.4c1-2 3.3-1.9 4.7-0.3c0.9 1 0.8 2.9 1.2 4.4q-0.5 0.5-1 1.1zm498.2-163.6c0.3-1.5 0.2-3.7 1.1-4.2c1.3-0.8 3.5-0.7 4.9-0.1c0.6 0.3 0.8 3.5 0.1 4.1c-1.2 0.9-3.2 0.9-4.9 1.3q-0.6-0.5-1.2-1.1zm-88.3-87.6c2.5 0.3 4.2 0.1 5.2 0.8c1.8 1.3 1.5 3.5-0.1 4.7c-1 0.8-2.8 0.6-4.2 0.9c-0.3-1.7-0.5-3.4-0.9-6.4zm198-29.8c0.3-2.7 0-4.6 0.8-5.7c0.6-0.7 3.2-0.6 4.2 0.1c1.8 1.2 2 3.6 0.2 5c-0.9 0.8-2.7 0.4-5.2 0.6zm36.8 84c-1.3-0.2-3 0-3.9-0.8c-1.8-1.4-2-3.6-0.2-5c0.9-0.6 3.5-0.7 3.9-0.1c0.9 1.4 0.9 3.3 1.3 5q-0.6 0.4-1.1 0.9zm-90.5 2.8c0.3-2.4 0-4.5 0.8-4.9c1.2-0.7 3.8-0.9 4.4-0.2c0.9 1.1 0.6 3.2 0.8 4.9c-1.7 0.1-3.3 0.1-6 0.2zm-108-22.9c-2.6-0.1-4.5 0.4-5.6-0.3c-1.8-1.2-1.6-3.5 0-4.7c1-0.8 3.5-1 4.4-0.3c0.9 0.6 0.7 2.8 1.2 5.3zm-452.2 47c-2.7 0-4.6 0.6-5.7-0.2c-1.8-1.1-1.4-3.2-0.1-4.8c1.4-1.6 3.3-1.6 4.5 0c0.8 1 0.7 2.6 1.3 5zm642.2-112.4c0.4-2.5 0.2-4.4 0.9-5.6c1.1-1.6 2.9-1.1 4.2 0.2c1.6 1.6 2 3.7 0.2 5.1c-0.9 0.7-2.7 0.2-5.3 0.3zm-243.7 180q-2.3 0-4.5-0.1c0.1-1.8 0-3.7 0.7-5.3c0.2-0.5 2.8-0.7 3.7-0.1c1.9 1.2 1.7 3.1 0.1 5.5zm-426.9-72.4c-0.3 2.7 0 5-0.7 5.3c-1.5 0.7-3.5 0.4-5.3 0.5c0.2-1.6-0.2-3.6 0.6-4.6c0.7-0.9 2.8-0.7 5.4-1.2zm170.5 167.9c0.3-1.5 0.1-3.2 0.8-4.4c1.1-1.6 3.3-1.7 4.4-0.1c0.7 1.1 0.9 3.4 0.2 4.5c-0.6 0.9-2.8 0.7-4.2 1.1q-0.6-0.6-1.2-1.1zm-74.4 146.5c-0.9-0.2-2.5 0.1-3.3-0.6c-1.7-1.4-2.4-3.6-0.6-5.3c0.7-0.7 2.8-0.8 3.6-0.2c2 1.3 1.9 3.4 0.3 6.1zm-84.8-31.4c0 2.5 0.4 4-0.1 5.1c-0.7 1.6-4.6 1.9-5.4 0.3c-0.6-1-0.7-3.4 0-3.9c1.1-0.9 3-0.9 5.5-1.5zm285.8-600.7c-0.8-0.1-2.4 0.2-3.2-0.5c-1.8-1.5-1.9-3.8-0.1-5.4c0.8-0.7 3.1-0.9 3.9-0.2c1.9 1.6 1.3 3.7-0.6 6.1zm-25.5 710.3c-2.8-0.3-4.8-0.2-6.3-1c-0.7-0.3-0.5-2.5-0.7-3.9c2 0 4.1-0.2 6 0.3c0.5 0.1 0.5 2.3 1 4.6zm203.5-407c0.4-2.5 0.2-4.1 0.9-5c1.2-1.8 3.3-2.1 4.7-0.4c0.8 0.9 1.1 3.8 0.6 4.1c-1.4 0.8-3.3 0.8-6.2 1.3zm-166.3-49.1c-2.5-0.2-4.8 0-4.9-0.4c-0.3-1.7-0.4-3.6 0.1-5.3c0.2-0.5 3.5-0.8 3.7-0.4c0.6 1.5 0.7 3.3 1.1 6.1zm194.9 48c0.4-2.6 0.2-4.2 0.9-5.3c1.1-1.7 3.3-2 4.5-0.4c0.8 1.1 1.2 3.8 0.5 4.6c-0.8 0.9-3 0.6-5.9 1.1zm67.2 111.4c-2.6-0.3-4.8 0.1-5.4-0.7c-0.7-1-0.6-3.6 0.2-4.4c0.8-0.8 3.3-1 4.4-0.3c0.8 0.5 0.5 2.8 0.8 5.4zm-536.7 50.4c-2.9-0.1-4.5-0.1-6.2-0.2c0.2-1.6-0.2-3.5 0.5-4.7c1-1.8 3.2-1.7 4.4-0.2c0.8 1 0.7 2.7 1.3 5.1zm39.8 281.5c-2.5 0.2-4.5 1-5.7 0.3c-1.9-1-1.3-3 0-4.4c1.4-1.6 3.3-2.1 4.8-0.5c0.7 0.8 0.5 2.5 0.9 4.6zm-102.3-426.7c-0.2 2.6 0.2 4.5-0.6 5.5c-0.6 0.8-2.8 1.1-4 0.7c-1.6-0.6-2.2-4.6-1-5.2c1.3-0.6 3-0.6 5.6-1zm399.6 68.8c-0.2 1.6 0 3.5-0.8 4.7c-1 1.6-2.9 1.5-4.2 0c-1.4-1.6-1.8-3.5-0.1-4.9c0.9-0.8 2.7-0.6 4.1-0.8q0.5 0.5 1 1zm-78.2 173.7c-0.1 2.4 0.4 4.7-0.4 5.3c-1 0.8-3.6 0.7-4.4-0.1c-0.9-0.8-1-3.3-0.3-4.4c0.3-0.8 2.7-0.5 5.1-0.8zm188.9-229.3c-1.5-0.3-3.6 0-4.4-0.8c-0.8-1-0.5-3-0.6-4.6c1.5 0 3.5-0.7 4.5 0c1 0.7 1 2.7 1.5 4.2q-0.5 0.6-1 1.2zm-336.3 241.5c0.2-2.6-0.2-4.5 0.5-5.6c1.1-1.8 3.3-1.6 4.3 0.1c0.8 1.2 0.6 3.1 0.8 4.6c-1.5 0.3-3 0.5-5.6 0.9zm585-280.9c0.2-2.3-0.2-4.3 0.7-5.2c0.7-0.7 3.1-0.7 4.1 0c1.9 1.3 1.7 3.6 0.1 5.1c-0.8 0.6-2.6 0.1-4.9 0.1zm-755 287.3c0.1-2.6-0.4-4.5 0.3-5.5c1.5-1.9 3.6-0.9 4.7 0.6c0.8 1 0.6 2.8 0.8 4.2c-1.6 0.2-3.2 0.4-5.8 0.7zm143.9 51.2c0.2-2.6-0.2-4.5 0.6-5.7c0.4-0.7 3.1-0.8 4.1-0.1c1.8 1.2 1.8 3.5 0.1 5c-0.8 0.7-2.4 0.5-4.8 0.8zm592.1-258.9c-0.2 2.1 0.1 3.4-0.4 4.3c-1 1.7-4.3 1.9-5.4 0.3c-0.6-1-0.6-3.7-0.3-3.9c1.6-0.5 3.5-0.5 6.1-0.7zm-474.8 225c-1.5-0.3-3.3-0.2-4.3-1.1c-0.6-0.6-0.6-2.9 0-3.8c1.2-1.7 3.4-2 4.8-0.3c0.8 0.9 0.4 2.7 0.6 4.1q-0.6 0.6-1.1 1.1zm-83.7-0.5c0 0.7 0.6 2.5-0.1 3.3c-1.6 1.9-3.9 1.3-5.4-0.3c-0.6-0.7-0.8-2.8-0.2-3.5c1.4-2 3.3-1.6 5.7 0.5zm-3.6 60.9c0.2-2.4-0.2-4 0.5-5c1.2-1.7 3.3-2 4.7-0.3c0.8 0.9 1.1 3.6 0.4 4.1c-1.1 0.9-3 0.8-5.6 1.2zm-109.9-52.3c-2.5 0-4.2 0-5.8 0c0.1-1.6-0.2-3.5 0.5-4.7c1.1-1.7 3.2-1.5 4.4 0c0.7 0.8 0.6 2.5 0.9 4.7zm244.6-208.5c-0.9-0.1-2.5 0.3-3.2-0.4c-1.8-1.7-1.1-3.9 0.5-5.4c0.7-0.7 2.9-0.9 3.5-0.3c1.9 1.7 0.9 3.7-0.8 6.1zm-18.3 199.6c-1.7-0.4-3.5-0.4-4.8-1.3c-0.7-0.4-1.1-2.7-0.6-3.5c1.4-1.9 3.6-1.7 5.1-0.2c0.8 0.9 0.8 2.6 1.1 3.9q-0.4 0.6-0.8 1.1zm303.1-247c-0.2 2.7 0.2 4.5-0.5 5.8c-0.9 1.7-2.8 1.6-4.2 0.3c-1.5-1.3-1.8-3.1-0.2-4.5c0.9-0.8 2.5-0.9 4.9-1.6zm-201.3 100.4c0.3-2.5 0-4.1 0.7-5c1.2-1.8 3.3-2.1 4.7-0.5c0.7 0.9 0.8 3.3 0.1 4.1c-0.9 0.9-2.9 0.8-5.5 1.4zm-223.6-46.7c-2.2-0.1-3.4-0.2-4.7-0.2c0.1-1.8-0.1-3.7 0.4-5.3c0.1-0.5 2.3-0.4 3.6-0.6c0.2 1.7 0.4 3.5 0.7 6.1zm564.8-81c-1.6-0.1-3.5 0.2-4.6-0.6c-0.8-0.6-0.5-2.7-0.7-4.1c1.6-0.2 3.5-0.9 4.7-0.3c0.9 0.5 1 2.6 1.5 3.9q-0.5 0.6-0.9 1.1zm-672.7 340.3c0.2-2.3-0.2-3.9 0.4-4.8c1.2-1.9 3.4-1.8 4.7-0.3c0.7 1 0.9 3.5 0.2 4.1c-0.9 0.9-2.9 0.7-5.3 1zm65.9 82.6c-2.5-0.4-4.5-0.1-5.1-1c-0.7-0.9-0.8-3.6-0.2-4c1.2-0.7 3.3-0.9 4.5-0.2c0.7 0.4 0.5 2.6 0.8 5.2zm187-263.1c-1.5-0.2-3.5-0.1-4.4-1c-0.7-0.7-0.2-2.7-0.2-4.2c1.5 0 3.4-0.6 4.5 0.1c0.9 0.6 0.7 2.7 1 4.1q-0.4 0.5-0.9 1zm-151-220.3c-2.1-0.1-3.8 0.2-4.5-0.4c-1.5-1.6-1.4-3.8 0.4-5.2c0.9-0.7 2.6-0.4 3.9-0.5c0.1 1.8 0.1 3.6 0.2 6.1zm-97.3 367.3c-0.3 1.4-0.1 3.6-1 4.2c-1.1 0.8-3.5 0.8-4.5 0.1c-2.2-1.5-0.4-3.3 0.8-4.4c0.8-0.7 2.4-0.7 3.6-0.9q0.5 0.5 1.1 1zm298.4-179.2c0.2-1.2 0-2.7 0.7-3.6c1.2-1.7 3.3-2.1 4.8-0.6c0.7 0.8 0.8 3.4 0.2 3.8c-1.3 0.9-3.2 1-4.8 1.4q-0.5-0.5-0.9-1zm-129.2 148.1c-2.7-0.1-4.4-0.1-6.1-0.1c0-1.3-0.5-3 0.2-3.9c1.2-1.9 3.3-2.2 4.9-0.5c0.7 0.7 0.6 2.2 1 4.5zm193.1-120.6c-2.5-0.2-4.5 0.2-5.3-0.7c-0.8-0.7-0.9-3.1-0.2-4.2c1.2-1.8 3.4-1.7 4.7 0c0.7 0.9 0.5 2.5 0.8 4.9zm246-237.5c-2.6-0.5-4.6-0.2-5.4-1.1c-0.8-0.9-0.9-3.3-0.2-4.3c1.2-1.7 3.4-1.3 4.7 0.3c0.7 0.9 0.5 2.5 0.9 5.1zm-440.6 330.8c-2.5-0.2-4.3 0.2-5.5-0.5c-1.8-0.9-1.7-3.1-0.1-4c1.2-0.8 3.2-0.8 4.6-0.3c0.7 0.2 0.6 2.4 1 4.8zm244.5-124.7c0.1-2.3-0.3-3.8 0.3-4.6c1.6-2 3.7-1.4 5 0.2c0.6 0.8 0.6 3.4 0.2 3.5c-1.4 0.6-3.1 0.6-5.5 0.9zm19.9-199.2c0.2-1.7 0.2-3.6 1-5.1c0.2-0.5 2.8-0.5 3.5 0.1c1.6 1.4 1.6 3.4 0 4.8c-0.8 0.8-2.3 0.8-3.5 1.1q-0.5-0.4-1-0.9zm-468.8 332.2c0.3-2.4 0-4.2 0.8-5.4c0.3-0.6 2.8-0.5 3.7 0.1c1.7 1.2 2.3 3.3 0.5 4.8c-0.9 0.7-2.6 0.3-5 0.5zm290.8 10.3c-0.1 2.5 0.4 4.4-0.4 5.3c-1.4 1.7-3.3 0.7-4.8-0.5c-1.3-1.1-2.2-2.7-0.5-3.8c1.3-0.8 3.2-0.6 5.7-1zm9.2-305.5c0.2-2.8 0-4.7 0.7-6c0.4-0.7 2.6-0.4 3.9-0.5c0.1 1.7 0.5 3.5 0 5.1c-0.2 0.6-2.3 0.7-4.6 1.4zm-205.7 518.3c0.5-2.5 0.3-4.5 1.1-5.2c0.9-0.7 2.8-0.3 4.3-0.4c0 1.6 0.5 3.5-0.2 4.6c-0.4 0.8-2.6 0.6-5.2 1zm-61.5-258.1c-0.3 1.7-0.3 3.6-1.1 5.1c-0.3 0.6-2.8 0.8-3.4 0.3c-1.8-1.5-1.5-3.7 0-5.2c0.7-0.7 2.3-0.7 3.5-1q0.5 0.4 1 0.8zm138 54.7c0.3-1.3 0.2-2.9 0.9-3.9c1.2-1.7 3.2-1.8 4.4-0.2c0.7 0.9 0.9 3.3 0.3 3.7c-1.2 0.9-3.1 0.9-4.7 1.3q-0.4-0.4-0.9-0.9zm-27.1 31c0.4-2.5 0.1-4.5 0.9-5.1c0.9-0.8 3.1-0.9 4.2-0.3c1.8 1 1.7 3.2 0.2 4.4c-0.9 0.8-2.7 0.6-5.3 1zm-149.1-192.1c0.1-2.5-0.3-4.2 0.4-5.4c0.3-0.7 3.4-0.8 3.6-0.3c0.7 1.5 0.7 3.3 0.9 5c-1.3 0.2-2.6 0.3-4.9 0.7zm73.4 280.7c-2.4-0.3-4.4 0-5.3-0.9c-0.7-0.6-0.5-3.6 0.1-3.9c1.3-0.7 3.3-0.6 4.7 0c0.6 0.2 0.3 2.4 0.5 4.8zm659.6-396.4c0.2-2.6-0.3-4.8 0.4-5.3c1.1-0.8 3.3-0.9 4.4-0.3c0.8 0.5 1.2 3.2 0.6 4c-0.7 1-2.8 0.9-5.4 1.6zm-559.1 80.1c-2.3-0.2-3.5-0.3-4.8-0.4c0.2-1.8 0.1-3.7 0.6-5.3c0.2-0.4 3.1-0.6 3.2-0.3c0.5 1.6 0.6 3.4 1 6zm367.4-44.2c-1.4-0.4-3.4-0.2-4.1-1.1c-0.8-0.9-0.4-2.8-0.5-4.3c1.4 0.1 3.3-0.4 4.2 0.4c0.9 0.7 0.9 2.6 1.3 4q-0.4 0.5-0.9 1zm-141.2 147.5c0.3-2.4-0.1-4.4 0.7-5.1c0.8-0.7 3.4-0.9 4-0.2c0.8 1 1 3.2 0.5 4.4c-0.4 0.7-2.7 0.5-5.2 0.9zm-136.1 146.3c0.3-1.3 0.2-3.1 1-3.9c0.8-0.7 3-0.8 3.8-0.2c1.5 1 2.2 3.1 0.4 4.4c-1 0.8-2.7 0.6-4.1 0.8q-0.5-0.6-1.1-1.1zm142.9-118.3c-2.6-0.2-4.8 0.2-5.1-0.4c-0.6-1.3-0.7-3.2-0.2-4.5c0.3-0.6 3.2-1 3.7-0.4c1 0.9 0.9 2.8 1.6 5.3zm-412.7-237.3c0.2-2.4 0-4.2 0.6-5.6c0.2-0.4 2.7-0.7 3.5-0.1c1.7 1.3 2.2 3.4 0.6 5.1c-0.7 0.7-2.4 0.4-4.7 0.6zm38.5 112.1c-2.3-0.1-3.8 0.4-4.5-0.2c-1.7-1.4-2-3.5-0.3-5.1c0.7-0.7 3.3-0.9 3.5-0.6c0.6 1.5 0.8 3.3 1.3 5.9zm127 334.4c-1.5-0.4-3.4-0.4-4.6-1.2c-0.7-0.4-0.4-2.3-0.5-3.5c1.5-0.1 3.3-0.6 4.6 0c0.8 0.4 1 2.3 1.5 3.5q-0.5 0.6-1 1.2zm408.4-300.8c0-2.2-0.4-4.3 0.3-4.8c0.9-0.8 3.8-0.9 4-0.4c0.7 1.4 0.4 3.3 0.6 4.9c-1.3 0.1-2.7 0.2-4.9 0.3zm-440.4 358.7c0.6-2.4 0.5-4 1.2-4.9c1.2-1.6 3.3-1.7 4.4 0c0.6 1 0.7 3.4-0.1 4c-0.9 0.9-2.8 0.5-5.5 0.9zm40.5-540.2c-2.2-0.1-4.5-0.1-4.5-0.3c-0.2-1.7-0.2-3.6 0.3-5.3c0.1-0.3 3.1-0.4 3.3 0c0.7 1.4 0.6 3.2 0.9 5.6zm-9.6-112.5c0.1-2.6-0.2-4.4 0.4-5.8c0.2-0.5 2.5-0.1 3.9-0.2c0 1.7 0.3 3.5-0.1 5.1c-0.1 0.4-2 0.5-4.2 0.9zm185.5 247.5c-2.4-0.3-4.5-0.2-4.7-0.7c-0.4-1.5-0.3-3.4 0.1-5c0.1-0.3 3.1-0.5 3.4 0c0.8 1.4 0.7 3.2 1.2 5.7zm397.4-18.3c-2.7-0.1-4.5 0.2-6-0.3c-0.5-0.2-0.2-2.4-0.3-3.6c1.7-0.1 3.4-0.5 5-0.2c0.5 0.1 0.6 2 1.3 4.1zm-365.5 101.4c-2.4-0.2-4.6 0.1-4.9-0.6c-0.6-1.3-0.3-3-0.4-4.6c1.5 0 3.4-0.6 4.2 0.1c0.9 0.7 0.6 2.7 1.1 5.1zm245.5-237.2c-2.4-0.1-4.6 0.2-4.8-0.4c-0.6-1.3-0.3-3-0.3-4.6c1.4 0 3.3-0.6 4.2 0.1c0.8 0.6 0.5 2.6 0.9 4.9zm-457.6 47.8c0.4-2.6 0.3-4.3 1-5.7c0.3-0.5 3.4-0.3 3.5 0.1c0.4 1.6 0.4 3.3 0 4.9c-0.1 0.4-2.2 0.4-4.5 0.7zm-34.9 399c-2.4-0.6-4.5-0.5-4.8-1.2c-0.5-1.3-0.4-3.1 0.2-4.5c0.2-0.4 3.2-0.5 3.7 0.1c0.8 1.1 0.5 2.9 0.9 5.6zm410.6-244.6c0.2-2.4-0.1-4.5 0.5-4.8c1.2-0.7 3-0.4 4.5-0.5c0.1 1.5 0.6 3.3 0 4.3c-0.6 0.8-2.6 0.6-5 1zm51.6-116.1c0.3-2.4 0.1-4.5 0.7-4.8c1.3-0.6 3-0.1 4.5-0.1c0 1.4 0.5 3.3-0.2 4.2c-0.6 0.8-2.7 0.4-5 0.7zm-347.4 383.7c-2.6-0.3-4.3-0.2-5.7-0.8c-0.4-0.2-0.3-3.3 0.1-3.4c1.5-0.5 3.3-0.6 5-0.3c0.3 0.1 0.3 2.2 0.6 4.5zm-8-56.5c0.4-2.6 0.3-4.4 1.1-5.5c0.5-0.7 2.9-0.6 3.8 0c1.7 1.1 1.7 3.2 0.2 4.4c-0.9 0.8-2.6 0.6-5.1 1.1zm-56.3 2.4c0.2-2.4-0.2-4 0.4-5c1.1-1.6 3.2-1.7 4.4-0.2c0.7 0.9 0.8 3.1 0.2 3.9c-0.7 0.9-2.6 0.8-5 1.3zm474.1-336.7c-0.3 1.3-0.2 3.2-1 3.7c-1.1 0.7-2.8 0.2-4.3 0.3c0-1.4-0.6-3.4 0.1-4c1-0.9 2.9-0.7 4.4-1q0.4 0.5 0.8 1zm-314.3 97.3c2.6 0.4 4.6 0.1 5.3 0.9c0.7 0.9 0.6 3.4-0.1 4.1c-0.9 0.7-3.2 0.8-4.2 0.2c-0.8-0.6-0.5-2.7-1-5.2zm-18.8 91.6c-1.4-0.2-3.2 0-4.1-0.8c-0.7-0.7-0.9-3.3-0.3-3.7c1-0.8 3.2-1.2 4.1-0.6c0.9 0.6 0.9 2.7 1.2 4.1q-0.5 0.5-0.9 1zm187.4-150.1c0.2-2.4-0.2-4.2 0.6-5.1c0.6-0.7 3.4-0.7 3.7-0.1c0.8 1.2 0.9 3.1 0.5 4.5c-0.2 0.5-2.5 0.4-4.8 0.7zm-503.8 45.2c-0.4 1.7-0.6 3.5-1.4 5c-0.3 0.5-2.1 0.2-3.3 0.2c0.1-1.6-0.2-3.4 0.3-4.9c0.3-0.7 2.1-0.9 3.3-1.2q0.6 0.4 1.1 0.9zm619.1-134.8c-2.6-0.2-4.7 0.2-5.2-0.6c-0.7-0.9-0.7-3.3 0.1-4.1c0.7-0.8 3.1-0.9 4-0.3c0.8 0.5 0.6 2.6 1.1 5zm-243.6 293.9c-2.3-0.2-3.9 0-5.3-0.6c-0.4-0.1-0.3-3.2 0.2-3.4c1.4-0.6 3.2-0.5 4.8-0.6c0.1 1.2 0.1 2.4 0.3 4.6zm-254 179.6c0.1-1.3-0.1-3.4 0.5-3.7c1.4-0.5 3.2-0.5 4.6 0c0.5 0.2 0.8 3.1 0.2 3.5c-1.1 0.9-2.8 0.9-4.3 1.2q-0.5-0.5-1-1zm556.7-418.9c-2.6-0.4-4.3-0.3-5.7-1.1c-0.5-0.2-0.5-2.7 0.1-3.5c1.3-1.6 3.4-1.7 4.8-0.1c0.6 0.8 0.4 2.4 0.8 4.7zm-519.5 475.5c-2.5-0.6-4.3-0.5-5.2-1.4c-0.7-0.7-0.2-2.6-0.2-3.9c1.4 0 3.3-0.4 4.3 0.3c0.8 0.6 0.6 2.5 1.1 5zm152.6-403.7c-2.2-0.1-4.4 0-4.4-0.3c-0.4-1.6-0.5-3.4 0-4.9c0.2-0.5 3.2-0.8 3.3-0.5c0.6 1.5 0.7 3.2 1.1 5.7zm169.9-40.5c-0.3 1.5-0.2 3.2-1 4.4c-0.3 0.6-3.1 0.6-3.4 0.1c-0.7-1.2-1-3.1-0.4-4.2c0.4-0.8 2.4-0.8 3.7-1.1q0.6 0.4 1.1 0.8zm134.2-30.2c0.2-1.3 0-3.3 0.8-3.9c0.9-0.7 3.1-0.6 4.1 0.1c0.6 0.4 0.7 3 0.1 3.7c-0.8 0.9-2.6 0.8-4 1.1q-0.5-0.5-1-1zm-0.9-27.7c0.3-2.5 0.1-4.5 0.8-5c1.1-0.6 3.2-0.6 4.2 0.1c0.6 0.4 0.7 3 0.1 3.8c-0.7 0.8-2.6 0.6-5.1 1.1zm-609.1 254.2c-2-0.3-3.4-0.1-4.2-0.8c-1.7-1.4-1.3-3.5 0.2-4.7c0.8-0.7 2.4-0.3 3.7-0.4c0.1 1.7 0.2 3.4 0.3 5.9zm37 195.3c-2.3 0-3.8-0.1-5.3-0.1c0.1-1.4-0.4-3.4 0.3-4.2c0.8-0.7 3-0.6 4.2 0c0.6 0.2 0.5 2.2 0.8 4.3zm389.3-191.4c-0.3 2.6 0 4.5-0.8 5.1c-0.8 0.8-3 0.9-3.9 0.3c-0.7-0.6-1-3-0.4-3.8c0.7-0.9 2.6-0.9 5.1-1.6zm-167.5 63.8c-0.6 2.3-0.6 4-1.5 4.9c-0.5 0.6-3.1 0.4-3.4-0.1c-0.6-1.2-0.7-3.2-0.1-4.2c0.4-0.7 2.5-0.4 5-0.6zm-60.2-82c-0.2 1.5-0.1 3.3-0.9 4.4c-0.4 0.7-2.3 0.3-3.6 0.4c-0.1-1.6-0.5-3.3 0-4.6c0.3-0.7 2.2-0.7 3.4-1q0.6 0.4 1.1 0.8zm390.5-187.2c-0.3 1.6-0.3 3.3-1 4.8c-0.3 0.5-2.5 0.6-3.3 0.1c-1.7-1.2-1.6-3.1-0.1-4.5c0.8-0.7 2.2-0.9 3.3-1.3q0.5 0.4 1.1 0.9zm-564.2 221.7c1.3 0.1 3.4-0.2 3.6 0.4c0.5 1.3 0.5 3.1 0.2 4.6c-0.1 0.3-2.8 0.7-3.2 0.2c-0.8-1.1-1-2.8-1.5-4.3q0.5-0.4 0.9-0.9zm315-68.6c-0.2 1.4-0.1 3.2-0.9 4c-0.7 0.7-3.2 0.6-3.7-0.1c-0.7-0.7-0.7-2.9 0-3.8c0.6-0.8 2.4-0.7 3.7-1q0.5 0.4 0.9 0.9zm27.2 3.2c-1.2-0.2-3.2-0.1-3.6-0.9c-0.7-1.1-0.3-2.8-0.3-4.3c1.3 0.1 3.1-0.4 3.8 0.3c0.9 0.8 0.8 2.6 1.1 4q-0.5 0.5-1 0.9zm-358.4 236.4c-0.2 2.3 0.1 4.3-0.4 4.5c-1.4 0.6-3.1 0.4-4.7 0.5c0-1.4-0.6-3.3 0.1-4c0.8-0.8 2.7-0.6 5-1zm416.6-238.8c-2.5-0.4-4-0.2-5-0.9c-1.6-1-1.8-2.9-0.3-4c1-0.7 3.2-0.9 3.9-0.2c0.9 0.7 0.8 2.6 1.4 5.1zm-333.8 325.3c0.2-1.2 0-3.1 0.8-3.7c0.9-0.7 2.6-0.3 4-0.4c0 1.4 0.5 3.1-0.2 4c-0.6 0.8-2.4 0.7-3.7 1q-0.4-0.4-0.9-0.9zm-2.2-55.8c0.3-2.2 0.2-3.9 0.8-5.2c0.2-0.4 2.5-0.6 3.2 0c1.9 1.5 1.3 3.6 0 5.1c-0.5 0.5-2 0.1-4 0.1zm304.9-182.9c0.1-2.2-0.2-4.4 0.2-4.5c1.4-0.4 3.2-0.4 4.7-0.1c0.3 0.1 0.7 3.1 0.1 3.5c-1 0.8-2.7 0.7-5 1.1zm309.9-183.7c-2.2-0.1-4 0.3-4.9-0.4c-0.6-0.6-0.5-3.3 0.1-3.8c1.1-0.7 3-0.7 4.3-0.3c0.4 0.1 0.3 2.3 0.5 4.5zm-256.6-17.2c-2.3-0.3-4.6-0.2-4.6-0.6c-0.4-1.4-0.3-3.2 0.2-4.6c0.2-0.5 3-0.7 3.2-0.3c0.7 1.4 0.7 3 1.2 5.5zm-277.7 148.2c-0.2 1.6-0.2 3.4-0.8 4.8c-0.3 0.6-2.2 0.4-3.3 0.5c0-1.7-0.2-3.4 0.3-5.1c0.1-0.5 1.8-0.6 2.8-1q0.5 0.4 1 0.8zm-137.6 237.8c0.4-2.3 0.3-4.1 1.1-4.8c0.7-0.7 3-0.7 3.7-0.1c0.7 0.7 0.7 3 0.1 3.8c-0.7 0.8-2.6 0.6-4.9 1.1zm557.2-398c-0.5 2.4-0.4 4.2-1.1 4.8c-0.9 0.7-2.6 0.3-4 0.4c0-1.5-0.4-3.2 0.2-4.2c0.5-0.8 2.5-0.6 4.9-1zm-447.8 161.6c-0.3 1.7-0.3 3.4-1.1 4.8c-0.3 0.6-2.6 0.9-3.1 0.4c-1.6-1.6-1.3-3.6 0.2-5.1c0.7-0.7 2-0.6 3-0.8q0.5 0.3 1 0.7zm141.4-0.8c-2.1-0.3-4.1-0.2-4.2-0.5c-0.2-1.6-0.2-3.3 0.2-4.8c0.1-0.3 3-0.5 3.1-0.2c0.5 1.4 0.6 3.1 0.9 5.5zm-78.9 117.1c-2.3-0.3-4.2 0-4.8-0.8c-0.7-0.8-0.6-3.1 0.1-3.8c0.6-0.7 2.9-0.7 3.7-0.1c0.8 0.6 0.6 2.5 1 4.7zm-185.3-219.2c0.2-2.6 0.1-4.2 0.7-5.6c0.2-0.4 2.4-0.6 3.2-0.1c1.7 1.1 1.8 3.1 0.4 4.5c-0.6 0.7-2.1 0.6-4.3 1.2zm624.7-140.2c-2.4-0.5-4.2-0.3-4.6-1c-0.7-1.1-0.4-2.8-0.5-4.2c1.3 0 3.2-0.6 3.7 0c0.9 1 0.8 2.7 1.4 5.2zm-339.3 184.3c0.4-2.3 0.1-4.1 0.9-4.8c0.8-0.6 2.6-0.1 3.9 0c0 1.3 0.4 3-0.3 4c-0.4 0.7-2.3 0.5-4.5 0.8zm428.5-74.8c-2.5-0.1-4.1 0.1-5.5-0.4c-0.4-0.1-0.5-3.1-0.1-3.2c1.4-0.5 3.1-0.7 4.6-0.5c0.4 0.1 0.5 2 1 4.1zm-530.3 221.4c-2.4-0.4-4.2-0.3-4.6-0.9c-0.6-1.2-0.3-2.8-0.3-4.3c1.3 0 3.2-0.6 3.7 0c0.8 0.9 0.7 2.7 1.2 5.2zm28-1c-2.3-0.4-4.1-0.3-4.3-0.8c-0.5-1.4-0.3-3.1-0.4-4.6c1.2-0.1 3.1-0.6 3.4-0.1c0.7 1.2 0.8 2.9 1.3 5.5zm411.7-364c-0.4 2.2-0.3 3.9-1.1 4.7c-0.6 0.7-2.3 0.3-3.6 0.3c0-1.4-0.4-3.1 0.2-4.3c0.3-0.6 2.3-0.4 4.5-0.7zm-72.1-222.8c2.2 1.6 4.2 3.1 6.3 4.6q-0.2 0.7-0.4 1.4c-1.7-0.2-3.7 0.1-5.1-0.7c-1.8-1-2.3-2.9-0.8-5.3zm-262.8 385.3c-2.4-0.5-4.4-0.4-4.7-1c-0.5-1.3-0.1-2.9-0.1-4.4c1.2 0.1 2.9-0.4 3.4 0.2c0.8 1.1 0.8 2.7 1.4 5.2zm-23.7 227.2c0.2-2.4-0.1-4.3 0.6-4.9c0.8-0.6 2.9-0.6 3.9 0c0.6 0.4 0.8 2.8 0.2 3.5c-0.7 0.8-2.4 0.8-4.7 1.4zm303.6-211.8c0-1.9-0.6-3.9 0-4.2c1-0.7 3.3-1 3.8-0.4c0.8 1 0.5 2.7 0.6 4.2c-1.2 0.1-2.5 0.2-4.4 0.4zm-82.8-58.8c-0.2 2.3 0 4-0.7 4.8c-0.5 0.7-3 0.7-3.4 0.2c-0.7-1-0.9-2.9-0.4-3.9c0.4-0.7 2.3-0.6 4.5-1.1zm341.2-9.1c-2.7-0.4-4.4-0.4-5.8-1.1c-0.5-0.2-0.2-2.1-0.3-3.2c1.6 0 3.3-0.3 4.7 0.1c0.6 0.2 0.7 2 1.4 4.2zm-671.7 256c-2.2-0.4-3.9-0.3-4.4-1c-0.6-1-0.3-2.6-0.3-3.9c1.3 0 3-0.5 3.8 0.1c0.8 0.6 0.6 2.5 0.9 4.8zm249.3-38.9c-0.2-2-0.3-3.2-0.4-4.5c1.5 0 3.3-0.5 4.3 0.1c0.7 0.5 1 2.8 0.4 3.8c-0.4 0.6-2.4 0.4-4.3 0.6zm-216 146c-0.3 1.1-0.1 2.8-0.8 3.1c-1.2 0.7-2.8 0.6-4.3 0.8c0-1.2-0.5-3 0.1-3.6c1-0.8 2.7-0.8 4.1-1.2q0.4 0.5 0.9 0.9zm-172.7-49.1c-0.4 1.5-0.6 3.2-1.3 4.5c-0.3 0.5-2 0.2-3 0.3c0-1.6-0.3-3.3 0.1-4.7c0.2-0.6 2.1-0.6 3.2-0.9q0.5 0.4 1 0.8zm121.3 197.7c-1.5-0.4-3.2-0.6-4.4-1.3c-0.6-0.3-0.2-2-0.3-3.1c1.5 0 3.1-0.3 4.3 0.2c0.7 0.3 0.9 2 1.3 3.1q-0.5 0.5-0.9 1.1zm84.1-31.5c-2.4-0.2-4 0-5.2-0.6c-0.5-0.2-0.4-3.1-0.2-3.1c1.5-0.5 3.2-0.6 4.7-0.5c0.3 0.1 0.4 2.1 0.7 4.2zm435.1-472.7c-2.5-0.5-4.1-0.5-5.2-1.3c-0.6-0.4-0.1-2.2-0.1-3.4c1.5 0.1 3.1-0.2 4.4 0.3c0.6 0.3 0.5 2.2 0.9 4.4zm-251.5 96.2c-2.3-0.4-4-0.1-4.8-0.9c-0.7-0.6-0.4-2.3-0.6-3.5c1.5-0.1 3.1-0.6 4.3-0.1c0.6 0.3 0.6 2.2 1.1 4.5zm-188.9-478.1c0.8 2.8 0.1 4.8-2 5.6c-1.3 0.4-3-0.3-4.5-0.5q-0.1-0.7-0.2-1.4c2.2-1.2 4.3-2.4 6.7-3.7zm-70 432.4c-1.1-0.2-2.8-0.1-3.2-0.7c-0.6-1.1-0.5-2.7-0.7-4.1c1.3-0.1 3.2-0.8 3.6-0.2c0.9 1 0.9 2.7 1.2 4.1q-0.4 0.5-0.9 0.9zm586.9-138.8c0-2.3-0.5-4.2 0.2-4.8c0.8-0.7 2.6-0.2 4-0.2c0 1.4 0.3 2.9-0.2 4.1c-0.2 0.6-2 0.5-4 0.9zm-436.6 302.2c-2.5-0.6-4.1-0.6-5.2-1.4c-0.6-0.4-0.1-2.2-0.1-3.3c1.5 0 3.1-0.2 4.3 0.4c0.6 0.2 0.5 2.1 1 4.3zm-81.6 88.8c-2.3-0.2-4.2 0.1-4.4-0.4c-0.6-1.3-0.7-2.9-0.4-4.3c0.1-0.4 2.8-0.8 3.2-0.4c0.8 1.1 0.9 2.7 1.6 5.1zm99.7-202.7c0.1-2.3-0.4-4.1 0.3-4.8c0.8-0.7 2.6-0.3 3.9-0.4c0.1 1.4 0.6 2.9 0.1 4c-0.4 0.7-2.2 0.7-4.3 1.2zm424.5-159.7c-2.2-0.4-3.9-0.1-4.5-0.9c-0.7-0.7-0.4-2.4-0.6-3.6c1.4-0.1 3-0.5 4.1 0c0.7 0.4 0.6 2.3 1 4.5zm-751.5 366.5c-0.3 2.5-0.1 4.1-0.7 5.3c-0.3 0.6-2.2 0.4-3.3 0.6c-0.1-1.5-0.6-3-0.1-4.3c0.2-0.7 2-0.8 4.1-1.6zm199.6 25.3c-2.1-0.1-3.7 0.2-4.8-0.4c-0.5-0.3-0.5-3-0.2-3.2c1.3-0.5 2.9-0.6 4.3-0.4c0.4 0.1 0.4 2.1 0.7 4zm-26.9 23.8c-0.3 2.1-0.2 3.8-0.7 4.1c-1.2 0.6-2.8 0.4-4.2 0.4c0-1.2-0.5-3 0.1-3.5c0.8-0.8 2.5-0.6 4.8-1zm245.6-209c-0.1 1.5 0 3.1-0.6 4.3c-0.2 0.5-2.1 0.3-3.2 0.4c0-1.3-0.3-2.8 0.1-4c0.3-0.7 1.7-0.9 2.7-1.3q0.5 0.3 1 0.6zm-219.9 157.5c-2.2-0.4-3.9-0.2-4.4-0.9c-0.6-0.9-0.6-2.9 0.1-3.6c0.6-0.7 3-0.9 3.5-0.3c0.7 0.8 0.5 2.5 0.8 4.8zm386-271.8c-2.2-0.2-4 0.2-4.5-0.5c-0.6-0.9-0.3-2.5-0.4-3.8c1.3-0.1 2.9-0.6 3.7 0c0.7 0.5 0.7 2.2 1.2 4.3zm-332.5 325.6c0.3-2.3 0.3-4.3 0.6-4.3c1.4-0.3 3-0.3 4.4 0.1c0.3 0.1 0.5 2.7 0.1 3c-1.1 0.6-2.6 0.7-5.1 1.2zm248.3-327c-0.2 1.2-0.1 2.8-0.8 3.5c-0.8 0.7-2.4 0.5-3.6 0.7c0-1.3-0.5-2.9 0.1-3.9c0.5-0.8 2.2-0.8 3.4-1.1q0.4 0.4 0.9 0.8zm-276.2 328.2c0.3-2.3 0-4 0.7-4.6c0.8-0.7 2.5-0.5 3.8-0.6c0 1.3 0.5 2.9-0.1 3.7c-0.5 0.8-2.2 0.8-4.4 1.5zm-107.3-535.1c1.7-1.4 3.5-2.7 5.4-4.2c1.4 2.2 1.7 4.3-0.4 5.4c-1.3 0.7-3.3 0.2-5 0.2q0-0.7 0-1.4zm167.2 499.7c0 2.2 0 3.4 0 4.6c-1.3 0-2.9 0.5-3.7-0.2c-0.8-0.6-0.7-2.3-1-3.5c1.3-0.3 2.6-0.5 4.7-0.9zm-172.5 68.6c0.2-2.1-0.1-3.8 0.7-4.6c0.5-0.6 3.2-0.4 3.4 0.1c0.5 1.2 0.3 2.9-0.1 4.2c-0.1 0.4-2.1 0.2-4 0.3zm421.4-245.3c-2.2-0.2-4.1 0.1-4.5-0.5c-0.7-1-0.3-2.6-0.3-3.9c1.3-0.1 2.9-0.5 3.7 0c0.8 0.5 0.7 2.3 1.1 4.4zm-251.7 209.5c-0.1-2-0.1-3.1-0.1-4.3c1.5 0.1 3.1-0.3 4.3 0.3c0.6 0.2 0.5 2.1 0.7 3.3c-1.4 0.2-2.8 0.4-4.9 0.7zm191.8-297.4c-0.3 2.1 0 4.1-0.7 4.4c-1 0.6-2.8 0.4-3.9-0.1c-0.5-0.2-0.7-2.7-0.2-3.1c1-0.8 2.5-0.7 4.8-1.2zm-216.6 412.6c0-1.9 0-3 0-4.1c1.6 0.1 3.3 0 4.8 0.4c0.3 0 0.5 2.7 0.2 2.8c-1.4 0.5-2.9 0.6-5 0.9zm80.1-260c-1.4-0.2-2.9-0.1-4.2-0.7c-0.5-0.2-0.5-2.8-0.3-2.8c1.3-0.5 2.9-0.9 4.2-0.6c0.6 0.2 0.7 2 1.1 3.1q-0.4 0.5-0.8 1zm-216.8 260.9c-0.1 1.9-0.1 3-0.1 4.1c-1.3-0.1-3 0.2-3.9-0.4c-0.7-0.5-0.5-2.3-0.8-3.5c1.4-0.1 2.7-0.1 4.8-0.2zm22.5-143c0.1 1.9 0.2 3.1 0.2 4.3c-1.3 0-3 0.4-3.9-0.2c-0.7-0.6-0.4-2.4-0.6-3.7c1.2-0.1 2.4-0.2 4.3-0.4zm388.5-238.6c-2.3-0.1-4 0.2-4.9-0.4c-0.7-0.5-0.3-2.4-0.3-3.6c1.3-0.1 2.8-0.5 4 0c0.7 0.2 0.7 2 1.2 4zm-409 409.1c-0.4 2-0.3 3.8-0.9 4.1c-1.1 0.5-2.7 0.4-3.8-0.1c-0.5-0.3-0.6-2.8-0.1-3.1c1-0.7 2.5-0.6 4.8-0.9zm236.1-345.2c0.2-2.3 0-3.9 0.7-4.9c0.4-0.6 2.2-0.2 3.3-0.3c0.1 1.4 0.5 2.9 0.1 4.1c-0.3 0.6-2.1 0.6-4.1 1.1zm338.6-184.7c-2-0.2-3.8-0.1-3.9-0.5c-0.5-1.3-0.3-2.9-0.4-4.3c1.2 0 2.9-0.4 3.3 0.1c0.7 1 0.6 2.6 1 4.7zm-446.6 331.3c0.4-2.4 0.3-4 1-4.9c0.5-0.6 2.2-0.2 3.4-0.2c0 1.3 0.3 2.9-0.2 4.1c-0.3 0.5-2 0.5-4.2 1zm31.4-57.9c-2.1-0.5-3.7-0.4-4.1-1c-0.6-1-0.3-2.6-0.4-3.9c1.2 0.1 2.9-0.3 3.7 0.4c0.7 0.5 0.4 2.3 0.8 4.5zm-162.1 205.7c-1.9-0.4-3.5-0.3-3.8-0.8c-0.5-1.2-0.4-2.6-0.6-4c1.2 0 3-0.6 3.6 0c0.7 0.8 0.5 2.5 0.8 4.8zm352.7-417.7c-0.6 2.3-0.5 3.9-1.3 4.5c-0.8 0.6-2.3 0.2-3.6 0.2c0.1-1.2-0.3-2.8 0.3-3.6c0.6-0.7 2.3-0.6 4.6-1.1zm-332 353.8c2.3 0.5 4.1 0.3 4.6 1c0.6 1 0.1 2.6 0 3.9c-1.1-0.1-2.7 0.3-3.4-0.4c-0.7-0.7-0.7-2.2-1.2-4.5zm120.5 23.4c-0.4 2.2-0.3 3.8-1 4.5c-0.6 0.6-2.8 0.7-3.2 0.2c-0.6-0.9-1-2.8-0.4-3.6c0.5-0.8 2.3-0.6 4.6-1.1zm513.7-498.6c0.1-2.1-0.1-3.7 0.5-4.8c0.2-0.5 2.1-0.2 3.2-0.3c0.1 1.4 0.4 2.9 0.1 4.2c-0.2 0.5-1.9 0.5-3.8 0.9zm5.6 23.3c-0.3 2.1 0 3.8-0.6 4.2c-1 0.7-2.7 0.9-3.7 0.4c-0.6-0.3-1-2.8-0.5-3.2c0.8-0.8 2.5-0.8 4.8-1.4zm-332.3 189.6c-2.1-0.3-3.9-0.1-4.2-0.8c-0.6-0.9-0.5-2.7 0-3.6c0.5-0.6 2.9-0.8 3.2-0.4c0.7 1 0.6 2.6 1 4.8zm111.7-33.3c-2.2-0.4-3.7-0.2-4.5-0.9c-0.6-0.6-0.3-2.2-0.4-3.4c1.3 0 2.8-0.4 4 0.1c0.6 0.3 0.5 2.1 0.9 4.2zm160.9-121.2c0.3-1.4 0.3-2.9 0.9-4.2c0.3-0.4 1.8-0.3 2.7-0.4c0.1 1.4 0.4 3 0.1 4.3c-0.1 0.6-1.8 0.8-2.7 1.1q-0.5-0.4-1-0.8zm-518.1 420c-2-0.5-3.6-0.4-3.8-0.9c-0.5-1.2-0.2-2.6-0.3-4c1.1 0 2.8-0.4 3.1 0.1c0.7 1 0.6 2.5 1 4.8zm190.6-65.3c0.3-0.9 0.4-2.5 1-2.7c1.2-0.6 2.8-0.4 4.2-0.6c-0.1 1.1 0.3 2.7-0.2 3.1c-1.2 0.7-2.8 0.8-4.2 1.2q-0.4-0.5-0.8-1zm-363 15.9c-2.1-0.4-3.8-0.3-4-0.8c-0.4-1.3-0.3-2.9-0.1-4.2c0-0.2 2.7-0.5 2.9-0.1c0.6 1.2 0.7 2.7 1.2 5.1zm605.5-366c0-2.2-0.4-3.7 0.2-4.6c0.4-0.6 2.8-0.8 3.1-0.3c0.7 0.9 0.9 2.5 0.5 3.6c-0.2 0.6-1.9 0.7-3.8 1.3zm-274.7 238c0.2-2.1 0-3.8 0.6-4.3c0.9-0.6 2.5-0.3 3.7-0.4c0.1 1.1 0.6 2.7 0.1 3.3c-0.7 0.8-2.3 0.8-4.4 1.4zm-186.5 178.3c-2.1-0.3-3.8-0.1-4.2-0.8c-0.6-0.9-0.3-2.4-0.4-3.7c1.2 0 2.9-0.5 3.6 0.1c0.7 0.6 0.6 2.2 1 4.4zm131.5-237.3c-0.2 1.4-0.1 3-0.7 4.2c-0.2 0.5-2 0.2-3 0.3c-0.1-1.4-0.4-2.9 0-4.1c0.2-0.6 1.8-0.8 2.7-1.1q0.5 0.3 1 0.7zm196.3-89.1c-2-0.1-3.7 0.3-4.2-0.3c-0.7-0.8-0.4-2.4-0.6-3.7c1.3 0 2.8-0.5 3.7 0c0.7 0.4 0.6 2.1 1.1 4zm-341.2 128.7c0.3-2.3 0.1-3.7 0.7-4.8c0.2-0.5 2.6-0.5 2.8-0.1c0.6 1.1 0.9 2.6 0.6 3.8c-0.2 0.5-2 0.6-4.1 1.1zm308.5-98.2c0.1-2.2-0.2-3.8 0.4-4.6c0.5-0.6 2.9-0.7 3.3-0.2c0.6 0.9 0.7 2.6 0.3 3.6c-0.3 0.7-2 0.7-4 1.2zm92.2 51.3c-2.2 0-3.7 0.4-4.7-0.2c-0.5-0.3-0.7-2.7-0.2-3.1c0.8-0.7 2.5-1 3.5-0.6c0.7 0.3 0.8 2 1.4 3.9zm50.4-171c-2-0.1-3.7 0.2-3.9-0.2c-0.5-1.2-0.6-2.7-0.2-3.9c0.1-0.5 2.7-0.9 2.9-0.5c0.6 1 0.7 2.5 1.2 4.6zm-518.1 532.5c-1.9-0.2-3.7 0.1-3.9-0.4c-0.5-1.1-0.6-2.9-0.1-3.8c0.4-0.6 2.8-0.8 3.5-0.2c0.7 0.6 0.3 2.3 0.5 4.4zm59.4 54.2c-2.1-0.4-3.6-0.2-4.2-0.9c-0.7-0.7-0.3-2.3-0.4-3.4c1.3 0 2.8-0.5 3.8 0.1c0.6 0.4 0.5 2.2 0.8 4.2zm290-522.1c-2.2-0.3-3.9-0.2-4.3-0.8c-0.5-1.1-0.2-2.6-0.3-4c1.2 0.1 2.7-0.3 3.4 0.4c0.7 0.7 0.7 2.2 1.2 4.4zm225.4-72.1c-0.5 2.1-0.4 3.7-1.1 4.4c-0.6 0.6-2.9 0.4-3.2-0.1c-0.5-1-0.5-2.7 0-3.6c0.4-0.6 2.2-0.4 4.3-0.7zm-428.8 647.5c-2.1-0.3-3.6-0.3-4.7-0.8c-0.4-0.2-0.3-2.8 0-2.9c1.3-0.4 2.8-0.4 4.1-0.1c0.4 0.1 0.4 1.9 0.6 3.8zm205.9-406.8c0.2-1.9-0.1-3.6 0.4-3.8c1.1-0.4 2.7-0.6 3.7 0c0.5 0.3 0.3 2.1 0.4 3.3c-1.2 0.1-2.5 0.2-4.5 0.5zm-304 99.1c-1.6-0.2-3.2 0-3.3-0.3c-0.3-1.4-0.3-2.9-0.4-4.4c1.1 0 2.9-0.4 3.1-0.1c0.5 1.3 0.4 2.7 0.6 4.8zm88.4 75.7c-0.2 2.2-0.2 3.6-0.7 4.8c-0.1 0.4-2.4 0.5-2.5 0.3c-0.4-1.3-0.8-2.8-0.6-4c0.1-0.5 1.9-0.6 3.8-1.1zm274-261.6c-1.9-0.4-3.6-0.2-3.8-0.8c-0.6-1-0.3-2.4-0.4-3.7c1.2 0.1 2.7-0.3 3.4 0.3c0.6 0.6 0.5 2.1 0.8 4.2zm-137.9 119.6c-1.9-0.4-3.5-0.3-3.8-0.9c-0.5-1-0.3-2.4-0.4-3.7c1.1 0 2.8-0.5 3.3 0c0.7 0.8 0.5 2.4 0.9 4.6zm-187.1 261.9c-2.1-0.2-3.6 0-4.6-0.6c-0.5-0.2-0.5-2.8-0.1-2.9c1.1-0.5 2.6-0.6 3.6-0.2c0.6 0.3 0.6 1.9 1.1 3.7zm136-147.1c-2.3-0.5-3.8-0.4-4.7-1.1c-0.5-0.4-0.2-2-0.2-3.1c1.2 0 2.7-0.2 3.7 0.3c0.6 0.3 0.6 1.8 1.2 3.9zm-107.5 145.8c-2.1 0-3.5 0.2-4.6-0.2c-0.4-0.2-0.6-2.6-0.2-2.9c1-0.6 2.5-0.8 3.7-0.6c0.5 0.1 0.6 1.9 1.1 3.7zm237-405.9c-1-0.4-2.4-0.5-2.9-1.2c-0.6-0.8-0.2-2.2-0.3-3.4c1.2 0.1 2.8-0.4 3.4 0.2c0.7 0.8 0.5 2.4 0.7 3.6q-0.4 0.4-0.9 0.8zm-76.4 172.9c-1.8-0.1-3.6 0.2-3.8-0.2c-0.5-1.1-0.5-2.6-0.1-3.8c0.1-0.3 2.4-0.6 2.9-0.1c0.7 0.7 0.6 2.2 1 4.1zm-202.5 32c1.8 0.3 3.5 0.3 3.6 0.7c0.2 1.3 0.1 2.7-0.2 4c0 0.2-2.4 0.4-2.5 0c-0.5-1.2-0.6-2.6-0.9-4.7zm449.1-246.1c-0.1 1.9 0.1 3.5-0.5 4.1c-0.6 0.6-2.6 0.6-3.2 0c-0.6-0.6-0.8-2.5-0.3-3.2c0.5-0.7 2.1-0.6 4-0.9zm-382.4 362.1c-2-0.3-3.9-0.1-4.1-0.6c-0.5-1-0.3-2.6 0.2-3.6c0.2-0.5 2.5-0.7 2.9-0.2c0.6 0.8 0.6 2.3 1 4.4zm-56.7 2.2c-1.9-0.2-3.5 0.2-4-0.5c-0.7-0.7-0.4-2.2-0.6-3.3c1.3-0.2 2.7-0.7 3.7-0.3c0.6 0.3 0.5 2.1 0.9 4.1zm59.7 78.2c-0.2 1.1-0.1 2.5-0.8 3.2c-0.6 0.6-2.1 0.4-3.2 0.5c0-1.1-0.5-2.6 0-3.4c0.5-0.7 2-0.8 3.1-1.1q0.4 0.4 0.9 0.8zm404.5-495.3c-1.1-0.1-2.7 0.1-3.2-0.6c-0.7-0.7-0.4-2.2-0.6-3.3c1.2-0.1 2.6-0.5 3.5 0c0.7 0.4 0.7 1.9 1.1 3q-0.4 0.4-0.8 0.9zm171.1-7.4c-2-0.3-3.4-0.1-4.4-0.8c-0.5-0.3-0.3-1.9-0.4-3c1.4 0.1 2.9-0.1 4.1 0.3c0.4 0.1 0.4 1.7 0.7 3.5zm-873.9 180.5q-0.9-3.3-1.8-6.6q0.5-0.3 0.9-0.7c1 1 2.5 1.7 2.9 2.9c0.3 1.3-0.4 2.9-0.6 4.4q-0.7 0-1.4 0zm565.2-81.4c-2.1-0.5-3.6-0.4-4.1-1.1c-0.6-0.8-0.3-2.2-0.4-3.4c1.3 0.1 2.8-0.3 3.7 0.2c0.6 0.4 0.4 2.1 0.8 4.3zm-168.8 148.6c0.2-2.1-0.1-3.7 0.5-4.3c0.6-0.6 2.7-0.6 3.2 0c0.6 0.7 0.5 2.4 0 3.4c-0.3 0.5-1.8 0.5-3.7 0.9zm-26.7 30c0.2-2.3 0-3.9 0.6-4.4c0.7-0.7 2.2-0.4 3.4-0.5c0 1.1 0.5 2.5 0.1 3.3c-0.5 0.8-2 0.8-4.1 1.6zm228-98.7c-0.4 1.1-0.4 2.6-1.2 3.2c-0.8 0.6-2.3 0.2-3.4 0.3c0.1-1-0.1-2.4 0.5-3c0.7-0.8 2.1-0.9 3.2-1.3q0.4 0.4 0.9 0.8zm-353.6 382.2c-0.4 2-0.3 3.4-0.9 4.1c-0.6 0.6-2 0.3-3.1 0.4c0-1.2-0.3-2.6 0.1-3.6c0.3-0.6 1.9-0.5 3.9-0.9zm-33.3-78.5c-1.1-0.3-2.6-0.3-3.3-1c-0.5-0.7-0.3-2.1-0.4-3.2c1.2 0.2 2.6 0 3.4 0.5c0.7 0.5 0.7 1.9 1.1 2.9q-0.4 0.4-0.8 0.8zm144.3 21.4c-2.4 0.8-4.2 0.3-4.7-2.2c-0.2-0.5 1.2-1.8 1.9-1.8c2.5 0 3.1 1.7 2.8 4zm-88.2-84.4c-0.3 1.1-0.4 2.4-1.1 3.1c-0.6 0.6-2 0.3-3 0.5c0-1.2-0.4-2.6 0.1-3.4c0.5-0.7 2.1-0.7 3.2-1.1q0.4 0.5 0.8 0.9zm125.6-261.3c1.9 0 3.5-0.3 3.7 0.1c0.5 1 0.6 2.4 0.5 3.6c-0.1 0.3-2.4 0.8-2.7 0.5c-0.7-1-0.9-2.3-1.5-4.2zm140.5-148c-0.3 2-0.1 3.3-0.7 4.1c-0.4 0.5-2.6 0.4-2.9-0.1c-0.5-0.9-0.6-2.4-0.1-3.4c0.2-0.5 1.8-0.3 3.7-0.6zm227.6 135.6c0.3-1.9 0.2-3.4 0.7-3.6c1.1-0.4 2.5-0.4 3.7-0.1c0.3 0 0.6 2.4 0.4 2.5c-1.2 0.6-2.6 0.7-4.8 1.2zm79.5-144.5c0.4-1.9 0.2-3.5 0.8-3.8c0.9-0.5 2.5-0.5 3.4 0c0.4 0.2 0.5 2.5 0 2.9c-0.7 0.7-2.2 0.6-4.2 0.9zm67.7 134.1c-0.2 1.7-0.1 3.3-0.3 3.3c-1.3 0.3-2.8 0.3-4.1 0.1c-0.2 0-0.5-2.2-0.3-2.3c1.3-0.5 2.6-0.6 4.7-1.1zm-91.9-161.1c-1.8-0.1-3.4 0.1-3.6-0.3c-0.4-1.1-0.4-2.5 0-3.5c0.2-0.5 1.8-0.5 2.7-0.6c0.3 1.2 0.5 2.5 0.9 4.4zm-192 149.8c-1.9-0.2-3.4 0.1-3.8-0.4c-0.6-0.9-0.8-2.5-0.3-3.3c0.4-0.6 2.5-0.8 3.1-0.4c0.7 0.6 0.6 2.1 1 4.1zm-394.4 215.4c0.3-1.9 0.1-3.3 0.7-4.2c0.2-0.3 2.3-0.2 2.8 0.4c0.6 0.6 0.7 2.3 0.3 3c-0.5 0.6-2 0.5-3.8 0.8zm503.9-304.9c-1.8-0.1-3.4 0.1-3.7-0.3c-0.4-1-0.5-2.5 0.1-3.3c0.4-0.6 2-0.4 3-0.6c0.2 1.1 0.3 2.3 0.6 4.2zm-138 91c-2-0.4-3.5-0.3-3.9-0.9c-0.5-0.8-0.2-2.2-0.2-3.4c1 0 2.5-0.4 3 0.1c0.7 0.7 0.7 2.1 1.1 4.2zm-469.6-269.3q1.2 3.1 2.5 6.3q-0.3 0.3-0.5 0.7c-1.2-0.6-3-1-3.3-2c-0.5-1.4 0-3.3 0.1-4.9q0.6-0.1 1.2-0.1zm116.9 681.1c-1.9-0.2-3.5 0-3.8-0.6c-0.6-0.8-0.3-2.2-0.4-3.4c1 0 2.5-0.6 3-0.1c0.7 0.7 0.7 2.2 1.2 4.1zm217.2-236c-1.8-0.3-3.4-0.1-3.7-0.6c-0.6-0.9-0.4-2.3-0.5-3.4c1.1-0.1 2.6-0.6 3.3-0.1c0.7 0.5 0.5 2.1 0.9 4.1zm-135.9 148c-1.9-0.4-3.2-0.2-3.7-0.8c-0.6-0.7-0.4-2.1-0.5-3.1c1.1-0.1 2.6-0.8 3.3-0.3c0.7 0.5 0.6 2.1 0.9 4.2zm612.4-310.7c-2.1-0.2-3.5-0.2-4.8-0.6c-0.4-0.2-0.3-1.6-0.4-2.4c1.4-0.1 2.9-0.4 4.2-0.1c0.4 0 0.5 1.4 1 3.1zm-645.2 312.1c0.5-2.2 0.4-3.6 1.1-4.3c0.5-0.6 2-0.3 3-0.4c0 1.2 0.3 2.6-0.2 3.4c-0.4 0.7-1.9 0.7-3.9 1.3zm471.6-388.7c-1.8-0.3-3.3-0.1-3.5-0.6c-0.5-1-0.3-2.3-0.4-3.5c1.1 0 2.7-0.5 3.1 0c0.6 0.8 0.5 2.2 0.8 4.1zm-491.9 474.4c-1.9-0.3-3.5-0.1-3.8-0.7c-0.5-0.9-0.5-2.4-0.1-3.3c0.2-0.5 2.5-0.7 2.9-0.2c0.7 0.8 0.6 2.2 1 4.2zm131.9-261c-1.7-0.1-3.2 0.3-3.7-0.2c-0.6-0.6-0.7-2.5-0.2-3c0.7-0.6 2.1-0.5 3.3-0.7c0.1 1.1 0.3 2.2 0.6 3.9zm-30.2-32.1c-0.4 2.1-0.3 3.4-0.9 4.3c-0.3 0.4-2.5 0.4-2.7 0c-0.5-1-0.7-2.4-0.3-3.4c0.2-0.5 1.9-0.5 3.9-0.9zm328.2-207.5c0.2-1.8-0.1-3.2 0.4-3.8c0.6-0.6 2-0.5 3-0.8c0 1.2 0.4 2.5 0 3.5c-0.3 0.5-1.7 0.6-3.4 1.1zm-371.5 526.2c-1.9-0.2-3.4 0.1-3.8-0.5c-0.6-0.7-0.3-2.1-0.4-3.3c1.1 0 2.5-0.4 3.3 0c0.6 0.4 0.5 1.9 0.9 3.8zm488.8-531.4c-1.9-0.2-3.3 0-3.9-0.6c-0.6-0.6-0.3-2-0.5-3c1.2-0.1 2.5-0.6 3.4-0.2c0.6 0.3 0.6 1.9 1 3.8zm-472.3 270.4c-0.2 2-0.1 3.4-0.5 4.5c-0.2 0.4-2.4 0.4-2.5 0.2c-0.4-1.1-0.7-2.5-0.4-3.7c0.1-0.4 1.7-0.5 3.4-1zm1.6 118.5c0.1-1.9-0.1-3.4 0.4-3.9c0.8-0.5 2.2-0.2 3.3-0.3c0 1.1 0.4 2.4-0.1 3.1c-0.4 0.6-1.9 0.6-3.6 1.1zm111.9-151.5c-0.3 1.9-0.1 3.3-0.7 3.9c-0.6 0.6-2 0.3-3.1 0.4c0-1.1-0.5-2.5 0-3.4c0.3-0.5 1.9-0.5 3.8-0.9zm-211.6 381.8c-2-0.4-3.3-0.3-4.2-0.9c-0.5-0.3-0.2-1.8-0.2-2.8c1.1 0 2.4-0.3 3.4 0.1c0.5 0.2 0.5 1.7 1 3.6zm-62-109.4c-1.9-0.4-3.4-0.3-3.6-0.8c-0.5-1.1-0.4-2.4-0.5-3.7c1 0.1 2.4-0.2 2.8 0.4c0.7 0.7 0.8 2.1 1.3 4.1zm164.2-154.2c-0.3 2.1-0.1 3.4-0.7 4.3c-0.3 0.4-2.3 0.5-2.7 0c-0.5-0.7-0.8-2.2-0.4-3c0.3-0.6 1.8-0.7 3.8-1.3zm326.5-349.4c-1.9-0.1-3.4 0.1-3.8-0.4c-0.6-0.7-0.7-2.4-0.2-3c0.4-0.6 2.2-0.7 2.9-0.3c0.6 0.4 0.6 1.9 1.1 3.7zm-243.2 290.5c-0.3 1-0.4 2.3-1 2.9c-0.8 0.5-2.1 0.2-3.2 0.3c0.1-0.9-0.2-2.2 0.3-2.7c0.7-0.8 2.1-0.9 3.1-1.3q0.4 0.4 0.8 0.8zm105.3-199.5c-1.7-0.1-3.4 0.1-3.5-0.2c-0.3-1.1-0.3-2.4 0.2-3.3c0.2-0.5 2.4-0.7 2.6-0.3c0.5 0.9 0.4 2.1 0.7 3.8zm-326 495.8c0.2-1.9 0.3-2.9 0.5-3.9c1 0.2 2.3 0 3.1 0.6c0.6 0.4 0.4 1.8 0.6 2.7c-1.1 0.2-2.2 0.3-4.2 0.6zm186.3-433c-1.8-0.1-3.2 0.2-3.8-0.4c-0.5-0.5-0.5-2.3-0.1-2.8c0.7-0.6 2.3-0.8 3.1-0.4c0.5 0.3 0.4 1.9 0.8 3.6zm-131.4 261.1c-1.9-0.3-3.4-0.1-3.8-0.7c-0.5-0.7-0.3-2.3 0.2-3c0.4-0.6 2.5-0.9 2.7-0.6c0.6 1 0.6 2.2 0.9 4.3zm63.7 167.6c-2.2-0.3-3.6-0.2-4.6-0.8c-0.6-0.3-0.6-1.7-0.9-2.6c1.4 0 2.8-0.1 4.1 0.2c0.5 0.1 0.6 1.4 1.4 3.2zm39.1-427.4c-2-0.3-3.4-0.2-4-0.8c-0.6-0.7-0.4-2.1-0.5-3.1c1 0 2.3-0.4 3 0.1c0.7 0.5 0.8 1.9 1.5 3.8zm-219.2 292.7c0.8-1.4 1.6-2.9 2.9-5.2c0.8 1.3 2.1 2.7 1.8 3.1c-0.9 1.3-2.3 2.2-3.6 3.2q-0.5-0.5-1.1-1.1zm63.3 49.2c-0.4 2.1-0.3 3.4-0.9 4.2c-0.3 0.5-2.4 0.5-2.6 0.1c-0.6-1-0.8-2.4-0.4-3.4c0.3-0.5 1.9-0.4 3.9-0.9zm49.5-54c0.2-1.6-0.1-3.2 0.4-3.5c0.9-0.5 2.3-0.4 3.5-0.5c0 1 0.4 2.5-0.2 3.1c-0.5 0.7-2 0.6-3.7 0.9zm193.3-239.2c-0.2 1.7 0 3.2-0.4 3.4c-1 0.4-2.2 0.2-3.3 0.2c-0.1-1.1-0.5-2.5 0.1-3.1c0.4-0.6 1.9-0.3 3.6-0.5zm354.8-238.1c0.1-1.7-0.1-3.2 0.4-3.5c0.8-0.5 2.1-0.3 3.2-0.4c0 1.1 0.5 2.5 0 3.2c-0.4 0.6-1.9 0.4-3.6 0.7zm-166 92.5c0-1.9 0.1-2.9 0.1-4c1.1 0.1 2.4-0.2 3.1 0.3c0.6 0.4 0.8 2.2 0.4 2.6c-0.6 0.7-1.9 0.6-3.6 1.1zm-158 176.4c-1.8-0.1-3.3 0.2-3.8-0.4c-0.5-0.6-0.6-2.4-0.1-3c0.4-0.6 2.2-0.8 2.9-0.3c0.6 0.4 0.6 1.9 1 3.7zm246.9-213.1c-0.6 2.1-0.6 3.4-1.3 4.2c-0.4 0.5-1.8 0.2-2.7 0.2c-0.1-1.1-0.5-2.4 0-3.1c0.5-0.7 1.9-0.7 4-1.3zm-463.7 591c0.3-2 0.2-3.4 0.7-3.7c0.8-0.6 2.2-0.5 3.3-0.7c0.1 0.9 0.5 2.3 0.1 2.8c-0.8 0.7-2.1 0.9-4.1 1.6zm-83-52.4c-1.8-0.3-3.2-0.1-3.5-0.7c-0.5-0.7-0.6-2.1-0.2-3c0.2-0.4 2.2-0.7 2.6-0.3c0.6 0.8 0.6 2.1 1.1 4zm279.4 16.6c0.4-1.7 0.4-3.1 0.8-3.2c1.1-0.4 2.4-0.2 3.6-0.2c0 0.9 0.2 2.2-0.2 2.4c-0.9 0.6-2.2 0.6-4.2 1zm-195.1-48.8c-1.9-0.2-3.2-0.1-3.9-0.6c-0.5-0.4-0.4-2.3 0.1-2.7c0.7-0.6 2.3-0.8 3-0.4c0.6 0.3 0.4 1.9 0.8 3.7zm518.3-508.7c-0.3 1.9-0.2 3.1-0.7 4c-0.2 0.4-2.3 0.4-2.4 0c-0.5-1-0.6-2.3-0.4-3.4c0-0.3 1.7-0.3 3.5-0.6zm-84.9 3c-0.2 1.7 0.1 3.1-0.5 3.8c-0.4 0.5-1.9 0.3-2.8 0.3c-0.1-1.1-0.5-2.3-0.1-3.2c0.3-0.5 1.7-0.5 3.4-0.9zm-495.5 395.3c-1.6-0.4-3-0.4-3.1-0.7c-0.4-1.1-0.3-2.3-0.1-3.5c0.1-0.1 2.2-0.3 2.4 0c0.5 1 0.5 2.3 0.8 4.2zm468.2-360.7c-1.9-0.4-3.2-0.3-3.8-0.9c-0.5-0.5-0.2-1.8-0.3-2.8c1 0 2.3-0.2 3 0.3c0.6 0.3 0.6 1.6 1.1 3.4zm-111 61c-1.8-0.2-3.2 0-3.5-0.5c-0.6-0.8-0.3-2.1-0.4-3.2c1 0 2.3-0.4 2.9 0.1c0.6 0.5 0.6 1.9 1 3.6zm300.7-182.7c0.4-1.7 0.3-3.1 0.9-3.7c0.4-0.5 2.5-0.3 2.6 0c0.4 0.9 0.5 2.3 0 3.1c-0.3 0.6-1.8 0.4-3.5 0.6zm-546.6 420.6c-1.9-0.3-3.3-0.1-3.7-0.6c-0.5-0.8-0.4-2.1-0.5-3.2c0.9 0 2.1-0.4 2.7 0.1c0.7 0.6 0.8 1.8 1.5 3.7zm522.4-419.2c-1.7-0.4-3.1-0.3-3.4-0.8c-0.5-0.8-0.1-2.1-0.1-3.2c0.9 0.1 2.3-0.2 2.7 0.3c0.6 0.6 0.5 1.9 0.8 3.7zm-437.7 386.1c-2.1-0.4-3.3-0.4-4.2-0.9c-0.4-0.2-0.3-2.2 0.1-2.4c0.9-0.4 2.2-0.6 3.1-0.2c0.5 0.3 0.5 1.7 1 3.5zm-84.3 146.1c0-1.7-0.3-3.4 0.1-3.5c0.9-0.4 2.3-0.5 3.1 0c0.5 0.3 0.7 2.3 0.3 2.7c-0.6 0.6-1.9 0.5-3.5 0.8zm-110.7-763.3c-1.1 1.2-2 2.6-3.3 3.4c-0.5 0.4-1.9-0.7-3.7-1.5c2.7-1.2 4.4-2 6.1-2.8q0.5 0.4 0.9 0.9zm552.4 347.9c-1.9-0.4-3.2-0.3-3.8-1c-0.5-0.5 0-1.8 0-2.8c1 0.1 2.2-0.2 2.8 0.3c0.6 0.4 0.5 1.7 1 3.5zm-89.4-85.8c-0.2 1.6 0.1 2.9-0.5 3.6c-0.4 0.5-2.4 0.5-2.6 0.1c-0.4-0.9-0.5-2.2-0.3-3.2c0.1-0.3 1.7-0.3 3.4-0.5zm-370.6 643.6c-1.6 0-3.1 0.1-3.2-0.1c-0.2-1.1-0.3-2.4 0-3.4c0.2-0.4 2.3-0.6 2.4-0.4c0.5 1 0.5 2.2 0.8 3.9zm-27.3 29.9c-1.7-0.2-3.2 0-3.5-0.5c-0.5-0.8-0.5-2.2-0.1-3c0.3-0.5 2.3-0.7 2.7-0.2c0.6 0.7 0.5 2 0.9 3.7zm233.4-520.5c-1.6-0.4-2.9-0.4-3.2-0.9c-0.4-0.9-0.2-2.1-0.3-3.1c1 0 2.4-0.3 2.7 0.1c0.6 0.8 0.5 2.1 0.8 3.9zm-209.2 406c-1.7-0.2-3.2 0-3.4-0.4c-0.4-0.8-0.4-2.3 0.1-3c0.4-0.5 2.4-0.6 2.7-0.2c0.5 0.7 0.3 2 0.6 3.6zm73.6-258.5c-1.6-0.2-2.9 0-3.2-0.5c-0.5-0.8-0.4-2.1-0.5-3.1c0.9-0.1 2.3-0.5 2.7-0.1c0.6 0.7 0.6 2 1 3.7zm4.9 197.2c0.1-1.6-0.2-3.1 0.3-3.3c0.7-0.4 2.2-0.5 2.8 0c0.6 0.5 0.4 1.8 0.6 2.8c-1 0.1-2 0.3-3.7 0.5zm-140.4-53.9c-0.4 1.9-0.4 3.2-0.9 4.1c-0.2 0.4-2.3 0.3-2.4 0.1c-0.3-1.1-0.5-2.4-0.2-3.4c0.1-0.4 1.7-0.4 3.5-0.8zm114.7 28.5c-1.9-0.4-3.2-0.4-3.9-1c-0.6-0.5-0.4-1.8-0.6-2.8c1.1 0.1 2.4-0.3 3.2 0.2c0.7 0.4 0.7 1.8 1.3 3.6zm-79.5 144.2c-1.8-0.2-3 0-3.8-0.5c-0.4-0.2-0.4-2.2-0.1-2.4c0.9-0.5 2.2-0.7 3.1-0.4c0.5 0.1 0.4 1.7 0.8 3.3zm80.7-3.2c0.1-1.5 0.2-2.3 0.2-3.2c1.1 0.1 2.3 0 3.2 0.4c0.3 0.2 0.4 2.2 0.2 2.3c-0.9 0.4-2.1 0.3-3.6 0.5zm-56-81.9c-1.6-0.5-2.9-0.5-3.1-0.9c-0.3-1.1-0.1-2.3-0.1-3.5c0.9 0.2 2.1 0.1 2.5 0.6c0.5 0.8 0.4 2 0.7 3.8zm-63.5-59.6c1.6 0.5 2.8 0.4 3.2 0.9c0.5 0.8 0.4 2 0.6 3c-1 0.1-2.3 0.5-2.8 0c-0.6-0.7-0.6-2-1-3.9zm192.5-173.6c0.3-1.8 0.2-2.9 0.7-3.7c0.3-0.4 1.6-0.2 2.4-0.2c0.1 1.1 0.4 2.2 0 3.1c-0.1 0.5-1.5 0.4-3.1 0.8zm418.7-277.7c-0.4 1.7-0.3 2.9-0.9 3.7c-0.2 0.4-1.6 0.1-2.4 0.1c0-1.1-0.2-2.2 0.2-3.1c0.2-0.5 1.5-0.4 3.1-0.7zm-108.9 121.9c-1.6-0.1-2.9 0.1-3.5-0.4c-0.5-0.5-0.1-1.8-0.2-2.8c1 0.1 2.2-0.2 2.9 0.2c0.5 0.3 0.5 1.6 0.8 3zm166.9-95.8c-0.5 2.1-0.6 3.3-1.1 4.2c-0.3 0.4-1.6 0-2.5 0c0.1-1.1-0.1-2.2 0.4-3.1c0.2-0.5 1.5-0.6 3.2-1.1zm-418.6 192.5c-1.6-0.2-2.9 0-3.1-0.4c-0.4-0.9-0.2-2.1-0.3-3.1c0.9 0 2.1-0.2 2.6 0.2c0.5 0.6 0.4 1.7 0.8 3.3zm166-125c-0.4 1.9-0.3 3.1-0.9 3.9c-0.3 0.4-1.6 0.2-2.5 0.3c0.1-1.1-0.1-2.2 0.3-3.1c0.3-0.5 1.5-0.6 3.1-1.1zm-173.4 632.5c-0.5 1.6-0.5 2.8-0.9 2.9c-1.1 0.4-2.3 0.2-3.5 0.3c0-0.8-0.2-2.1 0.1-2.3c1.1-0.4 2.3-0.5 4.3-0.9zm6.7-421.8c0.1-1.6-0.1-3 0.4-3.3c0.6-0.5 2.1-0.6 2.7-0.1c0.5 0.3 0.7 2 0.3 2.6c-0.5 0.5-1.8 0.4-3.4 0.8zm112.2-34.2c0.2-1.7 0.1-3 0.6-3.4c0.6-0.5 2-0.4 2.8 0c0.3 0.1 0.4 1.9-0.1 2.4c-0.5 0.6-1.7 0.6-3.3 1zm-233 460.6c-0.1 1.5 0 3-0.3 3c-1 0.2-2.2 0.2-3-0.2c-0.5-0.2-0.3-1.6-0.4-2.4c1-0.1 2.1-0.2 3.7-0.4zm102.8-283.9c-1.9-0.2-3.1-0.1-4.2-0.5c-0.2 0-0.2-2 0-2.1c1.1-0.2 2.3-0.4 3.4-0.2c0.3 0 0.4 1.3 0.8 2.8zm71.4-319.3c-0.2 1.5 0 2.6-0.6 3.3c-0.3 0.4-2.2 0.3-2.4-0.1c-0.3-0.8-0.4-2 0-2.9c0.1-0.3 1.6-0.2 3-0.3zm-160.2 237.2c-1.6-0.2-2.9-0.1-3.2-0.5c-0.5-0.7-0.3-1.9-0.4-2.9c0.9 0 2.1-0.4 2.5 0c0.6 0.6 0.6 1.7 1.1 3.4zm29.5 111.1c0.3-1.5 0.2-2.6 0.6-3c0.6-0.5 1.8-0.3 2.6-0.4c0.1 1 0.4 2.1 0 2.8c-0.3 0.5-1.6 0.4-3.2 0.6zm464.2-443.7c0.3-1.7 0.3-2.9 0.9-3.5c0.3-0.4 1.6-0.1 2.4-0.2c0 1 0.2 2.2-0.2 3c-0.3 0.5-1.6 0.4-3.1 0.7zm2.7-29.1c-1.4-0.1-2.9 0.1-3.1-0.3c-0.3-0.8-0.3-2.1 0.1-2.8c0.3-0.4 2.2-0.6 2.4-0.2c0.5 0.7 0.4 1.9 0.6 3.3zm-573.1 563.4c-1.5 0-2.6 0.3-3.4-0.1c-0.4-0.2-0.5-2-0.1-2.4c0.6-0.6 1.8-0.6 2.8-0.9c0.2 1 0.4 1.9 0.7 3.4zm74.1-173.1c0.3-1.6 0.2-2.8 0.7-3.1c0.7-0.5 1.9-0.3 2.9-0.3c-0.1 0.9 0.3 2.1-0.2 2.6c-0.6 0.5-1.8 0.4-3.4 0.8zm131.9-232.3c0-1.5-0.3-2.6 0.1-3.3c0.3-0.4 2.1-0.5 2.5-0.1c0.5 0.6 0.7 1.9 0.4 2.7c-0.1 0.5-1.6 0.4-3 0.7zm259.2-11c-1.6-0.3-2.8-0.3-3.4-0.8c-0.3-0.4-0.1-2 0.3-2.4c0.6-0.5 2.2-0.7 2.5-0.3c0.5 0.7 0.4 1.8 0.6 3.5zm-497.7 418.2c0.2-1.5 0-2.8 0.5-3.1c0.7-0.5 1.8-0.4 2.8-0.5c0 0.9 0.5 2.1 0 2.6c-0.5 0.6-1.7 0.5-3.3 1zm300.1-414.3c-0.4 1.7-0.4 3-1 3.5c-0.5 0.5-1.7 0.1-2.7 0.2c0.2-1 0.1-2.1 0.6-2.8c0.4-0.5 1.5-0.5 3.1-0.9zm-212 378c-0.2 1.5 0 2.8-0.5 3.1c-0.7 0.4-2 0.4-2.6 0c-0.5-0.3-0.6-2.1-0.2-2.4c0.6-0.5 1.8-0.4 3.3-0.7zm184.6-349c-0.2 1.6 0 3-0.6 3.4c-0.5 0.5-2 0.2-2.7-0.2c-0.4-0.3-0.4-2 0-2.4c0.6-0.5 1.8-0.5 3.3-0.8zm277.1-153.1c-0.2 1.6 0 2.7-0.4 3.4c-0.3 0.4-2.2 0.4-2.4 0.1c-0.4-0.8-0.5-2-0.2-2.8c0.1-0.5 1.5-0.4 3-0.7zm-116.1 37.7c0.1-1.5-0.1-2.7 0.4-3.3c0.3-0.5 2.1-0.5 2.4-0.1c0.4 0.6 0.5 1.9 0.2 2.7c-0.2 0.4-1.6 0.4-3 0.7zm-265 379.8c-1-0.1-2-0.1-2.8-0.5c-0.2-0.1-0.1-2 0.3-2.1c0.8-0.4 2-0.5 2.8-0.1c0.6 0.3 0.9 1.4 1.3 2.1q-0.8 0.3-1.6 0.6zm-378.7-181.8c1.5-1.6 2.7-2.9 3.9-4.3c1.5 3.2 0.4 4.4-3.9 4.3zm565.7-113.3c-0.1 1.6 0.1 2.9-0.3 3.2c-0.7 0.5-1.8 0.4-2.8 0.5c-0.1-0.9-0.5-2-0.1-2.5c0.5-0.6 1.7-0.7 3.2-1.2zm54.7-59.4c-0.1 1.6 0 2.7-0.4 3.5c-0.2 0.4-1.4 0.2-2.2 0.2c-0.1-0.9-0.4-1.9-0.1-2.7c0.2-0.5 1.4-0.6 2.7-1zm-344.9 581.7c-0.2 1.6-0.1 2.8-0.6 3.4c-0.4 0.5-1.7 0.2-2.5 0.3c0-1-0.3-2.1 0.1-2.8c0.2-0.5 1.5-0.5 3-0.9zm400.6-608.4c-1.6-0.2-2.7 0-3.5-0.4c-0.3-0.2-0.4-2-0.1-2.1c0.8-0.3 1.9-0.5 2.7-0.3c0.4 0.2 0.5 1.4 0.9 2.8zm-491.1 499.3c-0.2 1.6-0.1 2.7-0.6 3.4c-0.3 0.4-2.2 0.3-2.3 0c-0.3-0.9-0.4-2-0.1-2.9c0.2-0.4 1.6-0.3 3-0.5zm379.2-380.6c-0.1-1.5-0.4-2.9 0-3.1c0.7-0.4 1.9-0.4 2.7-0.1c0.4 0.1 0.7 1.8 0.4 2c-0.7 0.6-1.7 0.7-3.1 1.2zm-234.2 434.1c-1.5-0.4-2.7-0.3-3.1-0.9c-0.5-0.6-0.5-1.8-0.6-2.7c0.9 0 2.1-0.4 2.6 0.1c0.6 0.5 0.6 1.8 1.1 3.5zm-62.2-109.4c-1.6-0.5-2.7-0.6-3.1-1.1c-0.4-0.7-0.1-1.7 0-2.6c0.7 0 1.9-0.3 2.2 0.1c0.5 0.7 0.5 1.8 0.9 3.6zm48.4-201.2c-1.5-0.3-2.8-0.2-3.1-0.7c-0.4-0.7-0.2-1.8-0.3-2.7c0.9 0.1 2-0.1 2.6 0.4c0.5 0.4 0.5 1.5 0.8 3zm191.3-93.5c0.3-1.5 0.2-2.7 0.7-3.1c0.4-0.4 1.8-0.2 2.3 0.3c0.4 0.3 0.4 1.8 0 2.2c-0.5 0.4-1.6 0.3-3 0.6zm-325.1 382.2c0-1.4-0.2-2.6 0.2-3c0.5-0.4 2-0.6 2.4-0.2c0.5 0.5 0.7 1.9 0.3 2.5c-0.3 0.5-1.5 0.4-2.9 0.7zm553.4-448.3c-1.6-0.2-2.7-0.2-3.5-0.6c-0.4-0.3-0.2-1.5-0.3-2.3c1 0 2.1-0.4 2.8-0.1c0.5 0.3 0.6 1.5 1 3zm48.7-115.9c0.3-1.7 0.2-2.8 0.7-3.5c0.3-0.4 2.1-0.3 2.2-0.1c0.3 0.9 0.5 2.1 0.2 2.9c-0.2 0.4-1.6 0.4-3.1 0.7zm93.2 109.6c-1.6-0.2-2.6 0-3.4-0.5c-0.4-0.2-0.2-1.4-0.3-2.2c1.1 0 2.2-0.2 3.2 0.1c0.3 0 0.3 1.3 0.5 2.6zm-604.4 592.9c0.4-1.1 0.8-2.2 1.5-4.4c1.1 1.7 1.7 2.6 2.3 3.5q-1.5 1-3 1.9q-0.4-0.5-0.8-1zm177.9-518.1c0.1-1.5-0.1-2.6 0.3-3.1c0.4-0.4 1.9-0.3 2.4 0.2c0.4 0.4 0.6 1.8 0.2 2.3c-0.4 0.5-1.5 0.4-2.9 0.6zm-98 287.9c-1.6-0.2-2.8 0.1-3.2-0.4c-0.5-0.5-0.5-1.8-0.2-2.5c0.2-0.4 1.8-0.7 2.1-0.4c0.6 0.7 0.7 1.7 1.3 3.3zm-22.6 142.8c-1.5-0.2-2.8 0-3.1-0.4c-0.5-0.6-0.3-1.8-0.4-2.7c0.9 0 2-0.4 2.5 0c0.6 0.4 0.6 1.6 1 3.1zm46.5-257.2c-1.5-0.3-2.9-0.3-3-0.7c-0.2-0.9 0.1-2 0.5-2.8c0.2-0.3 1.9-0.2 2.1 0.2c0.4 0.7 0.3 1.8 0.4 3.3zm-103.8 228.1c-0.3 0.8-0.5 2-1.1 2.5c-0.6 0.4-1.9 0.5-2.5 0.1c-0.5-0.3-0.7-1.7-0.4-2.3c0.3-0.5 1.5-0.5 2.3-0.7q0.9 0.2 1.7 0.4zm19.1-196.1c-1.2-0.1-2.3 0-2.5-0.3c-0.4-0.9-0.4-1.9-0.6-2.9c0.8 0 2-0.4 2.1-0.2c0.5 0.9 0.6 1.9 1 3.4zm442.1-303.3c-1.8-0.2-2.9-0.1-3.7-0.4c-0.3-0.2-0.2-1.4-0.3-2.2c0.9 0 1.9-0.4 2.7-0.1c0.5 0.2 0.6 1.3 1.3 2.7zm-343.9 610.9c-1.4-0.1-2.4 0.1-3.1-0.3c-0.4-0.2-0.4-1.8-0.1-2c0.6-0.5 1.7-0.6 2.4-0.4c0.5 0.2 0.5 1.4 0.8 2.7zm451.6-671.5c0.3-1.3 0.2-2.4 0.7-2.7c0.6-0.3 1.6-0.2 2.4-0.2c0.1 0.8 0.4 2 0 2.4c-0.4 0.5-1.6 0.3-3.1 0.5zm-461 530.5c0.2-1.5 0.1-2.6 0.6-2.9c0.6-0.5 1.6-0.3 2.5-0.5c0 0.8 0.4 1.9 0 2.3c-0.5 0.5-1.6 0.6-3.1 1.1zm-227.7-18.6c0.1-1.4 0-2.4 0.4-3.1c0.3-0.4 1.9-0.4 2-0.1c0.4 0.8 0.5 1.8 0.3 2.6c-0.1 0.4-1.4 0.3-2.7 0.6zm175.9 161.6c0.3-1.4 0.3-2.4 0.8-3c0.3-0.3 1.8-0.2 2.1 0.3c0.4 0.6 0.3 1.6 0.3 2.5c-0.8 0-1.7 0.1-3.2 0.2zm45.4-373.8c-0.2 1.7-0.1 2.7-0.4 3.6c-0.1 0.2-1.9 0.3-2 0c-0.4-0.8-0.5-1.9-0.2-2.6c0.2-0.4 1.3-0.5 2.6-1zm-42.6 398.3q1.5 0.4 3 0.7q-0.3 1.3-0.6 2.6q-1.5-1-3-2q0.3-0.6 0.6-1.3zm-61.8-191.2c-1.5-0.3-2.6-0.1-3.1-0.6c-0.4-0.4-0.5-1.9-0.2-2.2c0.6-0.4 1.9-0.7 2.4-0.4c0.5 0.5 0.5 1.6 0.9 3.2zm104.4-232.2c-1.5-0.2-2.5-0.1-3.1-0.6c-0.4-0.3-0.3-1.8 0.1-2.1c0.6-0.5 1.9-0.7 2.5-0.3c0.5 0.2 0.3 1.5 0.5 3zm-70.8 343.8c-1.4-0.1-2.6 0.1-2.8-0.2c-0.4-0.8-0.3-1.9-0.5-2.8c0.8-0.1 2-0.5 2.3-0.2c0.5 0.7 0.6 1.7 1 3.2zm512.4-561.3c0.1-1.3 0-2.6 0.3-2.7c0.8-0.4 1.9-0.4 2.7 0c0.3 0.1 0.5 1.8 0.2 2c-0.7 0.4-1.7 0.4-3.2 0.7z" /></svg>