<svg version="1.2" xmlns="http://www.w3.org/2000/svg" viewBox="0 0 933 1153" width="933" height="1153"><style>.s0{opacity: .3;fill:#ffffff}</style><path class="s0" d="m212.7 969.7c0.2-0.7 0.2-2.7 1.1-3.8c1.5-1.6 7.1-0.5 8.1 1.3c1 1.6 0 4.8-1.9 6c-2.2 1.3-4.9 0.3-7.3-3.5zm8.7-32.4c2.5-1.6 5-1.4 6.3 0.7c1.4 2 0.7 5.1-1.5 6.5c-2.1 1.4-5.4 0.8-6.7-1.2c-1.3-1.9-0.5-4.4 1.9-6zm28 5.8c2.2-1.4 4.8-1.1 6 0.9c1.4 2 0.7 4.9-1.7 6.5c-2.2 1.5-4.4 1.1-5.8-1.2c-1.4-2.2-0.8-4.6 1.5-6.2zm-22.9-27.4c-1.4-2.2-0.7-5.2 1.6-6.5c2.4-1.4 4.2-0.2 5.5 1.7c1.5 2.2 1.1 4.7-0.8 6.1c-2 1.4-4.9 0.8-6.3-1.3zm107.2 169c-1.3-2.1-0.7-5.1 1.4-6.3c2.1-1.2 5-0.3 6.2 1.9c1.2 2.1 0.4 4.9-1.6 6c-2.1 1.2-4.8 0.4-6-1.6zm28.8 28.3c1.4 2.2 0.7 5.1-1.6 6.5c-2.2 1.4-4.1 1.1-5.6-1.1c-1.5-2.3-0.9-4.9 1.5-6.5c2.1-1.3 4.5-0.9 5.7 1.1zm-5.9 29.2c1.2 1.9 0.3 4.9-1.8 6.2c-2 1.3-4.2 0.6-5.6-2c-1.1-2-1.7-4.1 0.7-5.6c2.1-1.3 5.6-0.5 6.7 1.4zm-107.1-168.8c1 2 0.1 4.8-1.8 6c-2 1.1-4.6 0-6-2.8c-0.9-1.9-1.3-3.8 0.9-5.1c2.3-1.2 5.7-0.3 6.9 1.9zm143.7 0.9c1.8 2.6 1.2 5.3-1.2 6.8c-2.3 1.5-4.2 0.9-5.7-1.2c-1.4-1.9-0.7-4.8 1.5-6.2c2.2-1.3 4.1-1.1 5.4 0.6zm-65.9 137.8c-1.2-2-0.3-4.6 2.1-6c2.1-1.3 4-1.2 5.3 1c1.3 2 0.5 5-1.4 6.3c-2 1.3-4.9 0.6-6-1.3zm45.1-169.7c1 1.8 0.6 3.8-1.5 5.3c-2 1.4-5.1 0.7-6.2-1.4c-1.2-2.3-0.8-4.5 1.2-6.1c1.9-1.4 4.7-0.5 6.5 2.2zm-128.4-110.7c0.3-0.8 0.3-2.7 1.2-3.7c1.4-1.6 6.3-0.7 7.4 1.1c1.1 1.7 0.3 4.5-1.6 5.7c-1.9 1.3-4.8 0.3-7-3.1zm282.2 172.7c2-1.2 3.9-0.8 5.4 1.3c1.5 2.1 1.1 4.6-1 6c-2.1 1.4-4.1 1.3-5.7-0.9c-1.5-2.1-1-4.8 1.3-6.4zm-145.7 3.8c-1-1.7-1.7-3.8 0.6-5.5c1.9-1.4 5.4-0.7 6.5 1.1c1.1 1.8 0.2 5-1.8 6.4c-1.8 1.2-3.7 0.6-5.3-2zm13.2-61.9c1.9-1.3 4.6-0.6 5.9 1.5c1.5 2.2 1.1 4.1-1.1 5.6c-2.1 1.5-4.7 1-6-1c-1.3-2.1-0.8-4.9 1.2-6.1zm-72.8 193.9c-0.9-1.9-1.3-3.7 1-5c2.4-1.3 6.2-0.8 7.2 0.9c1 1.7-0.2 4.7-2.3 5.9c-2 1.1-4.6 0.4-5.9-1.8zm-64.9-225c1.9-1 4.5 0 5.5 2c1.1 2.2 0.2 4.6-2.2 5.7c-2.4 1.2-4.2 0.5-5.3-1.9c-1.1-2.1-0.2-4.8 2-5.8zm161.5-73.8c-1.3-2-0.6-4.6 1.6-5.9c2.2-1.3 4.2-0.9 5.6 1.3c1.4 2.2 0.8 4.5-1.6 5.8c-2.1 1.2-4.5 0.7-5.6-1.2zm-205.1 158.5c-1.6 0.8-3.4 1.7-5-0.4c-1.4-1.9-0.6-5.5 1.3-6.8c1.8-1.2 4.7-0.4 5.9 1.7c1.2 1.9 0.5 3.8-2.2 5.5zm39.4 60.5c2-1.2 4.8-0.4 6.1 1.9c1.3 2 0.8 3.7-1.1 5c-2.1 1.4-5.2 0.8-6.4-1.1c-1.2-1.9-0.6-4.6 1.4-5.8zm-6.5 56.8c1.5 2.3 1.1 5.5-0.8 6.4c-2.6 1.3-4.2-0.4-5.4-2.3c-1.3-1.9-1.8-4.1 0.6-5.7c1.9-1.2 4.3-0.5 5.6 1.6zm19-83.2c1 2 1.1 4.1-1 5.7c-1.6 1.3-4.7 0.4-6.2-1.7c-1.4-2-0.9-4.4 1.1-5.6c2-1.2 4.6-0.6 6.1 1.6zm49.5 40.8c0.9 1.8 0.6 3.7-1.4 5c-1.9 1.4-4.9 0.6-6.2-1.6c-1.1-1.9-1.2-3.9 0.8-5.4c2-1.4 5.2-0.5 6.8 2zm97.9-204.5c-1-2.1-1.6-4.2 0.8-5.8c2-1.4 4.9-1 6 0.9c1.1 1.8 0.3 5.2-1.5 6.4c-2.3 1.5-3.8 0-5.3-1.5zm-43.1 215.8c1.3 1.8 0.7 4.4-1.3 5.6c-2 1.2-4 1.2-5.5-0.9c-1.4-2.1-1.1-4.8 0.8-6.1c1.9-1.3 4.7-0.7 6 1.4zm188.6-219.8c2.4-1.2 4.3-0.7 5.6 1.5c1.4 2.2 1.2 4.2-1.1 5.6c-2.1 1.4-4.6 0.7-5.9-1.5c-1.3-2.3-0.6-4.2 1.4-5.6zm170.7 11.2c3.2-2.1 6.5-1.6 7.7 0.5c1.2 2 0.7 3.8-1.1 5.1c-2 1.5-5.5 0.8-6.5-1.5c-0.5-1.3-0.1-3.1-0.1-4.1zm-404.8 146.5c-1.8 0.6-3.8 2.3-5.5-0.5c-1.1-1.8-0.1-4.9 2-6.2c2.2-1.3 4.1-0.7 5.5 1.2c1.4 1.8 0.6 3.9-2 5.5zm-137-59.9c-0.8-1.5-1.3-3.3 0.9-4.7c2-1.3 5.4-0.8 6.6 0.8c1.2 1.7 0.3 4.8-1.8 5.9c-1.9 1.2-4.1 0.5-5.7-2zm171.8 39.7c-1.9 1.2-4.7 0.5-5.9-1.7c-1-1.8-0.9-3.6 1-4.8c2.1-1.3 6.1-1 7 0.5c1 1.6-0.1 4.8-2.1 6zm229.3-274.9c3.1-2 5.6-1.4 6.9 0.9c1.1 2 1.1 4-1.1 5.4c-1.8 1.2-5.5 0.2-6.1-2c-0.5-1.5 0.2-3.4 0.3-4.3zm-20.4 257.6c-0.3 0.9-0.6 2.8-1.6 3.9c-1.7 1.7-5.3 0.9-6.5-1.3c-1.1-1.7-1.1-3.5 0.7-4.9c1.9-1.3 5.5-0.5 7.4 2.3zm-215.8 43.8c-1.8 0.8-3.9 1.9-5.6-0.7c-1.2-1.9-0.2-5 1.7-6c1.9-1.1 5.3-0.2 6.3 1.8c1.1 2.3-0.2 3.7-2.4 4.9zm14.4-62c1.7 2.5 1.1 5.3-1.1 6.6c-2.1 1.2-4 1-5.4-1c-1.4-2-0.6-4.7 1.7-6.1c1.9-1.2 3.7-1 4.8 0.5zm118.7 86.4c2.9-1.3 6.3-0.7 7.6 1.3c1.2 1.9 0.3 3.3-1.2 4.4c-2.2 1.6-6.3 1.6-6.8-0.2c-0.4-1.7 0.2-3.7 0.4-5.5zm66.6-152.2c-2-3-1.5-5.9 0.7-7.2c1.9-1.3 3.9-1.4 5.4 0.6c1.3 1.9 0.4 5.3-2 6.4c-1.3 0.6-3.1 0.1-4.1 0.2zm-1.7 26.6c-2.1 1-4.3 1.6-5.8-0.6c-1.3-2-1.3-4.2 0.8-5.8c1.7-1.3 5.2-0.7 6.4 1.1c1.5 2.3 0.1 3.8-1.4 5.3zm-350-19.9c-1.2-1.9-0.7-4.7 1.1-5.8c1.7-1 5 0.1 6.1 2.2c1.1 2 0.7 3.8-1.2 5.1c-1.9 1.2-4.8 0.4-6-1.5zm146.2 28.3c-0.4 1-0.8 2.9-2 4c-1.6 1.5-4.7 0.4-5.9-1.6c-1.1-2.1-1.1-4 1-5.5c1.7-1.1 5.1 0.1 6.9 3.1zm377.5-33.5c2.4-1.4 5.2-0.8 6.5 1.5c1.1 1.8 1.1 3.7-0.9 5.1c-1.9 1.4-5.1 0.5-6.4-1.7c-1.2-2-0.7-3.7 0.8-4.9zm-308.2 105.5c1.6 2.4 1.1 5.5-0.8 6.8c-2.3 1.4-3.7-0.1-4.8-1.7c-1.4-2.1-1.9-4.5 0.4-6.1c2.1-1.4 3.9-0.4 5.2 1zm-32.2-117.4c-1.9 0.9-4.1 1.6-5.8-0.6c-1.2-1.5-0.2-4.9 1.6-6c1.8-1.1 4.8-0.4 6 1.6c1.3 2.3 0 3.7-1.8 5zm138.3 141.4c1.7-0.8 3.7-1.2 5.3 0.9c1.2 1.6 0.1 4.9-2 6.2c-1.9 1.2-3.7 1.1-5-1c-1.3-2.1-0.7-4.5 1.7-6.1zm39.2-20.8c1 2.1 0.5 3.9-1.6 5.1c-2.1 1.3-4.2 1.1-5.6-1.2c-1.3-2-0.9-4 1.1-5.4c1.9-1.4 4.7-0.7 6.1 1.5zm-330.2 18.8c-1.1-2-1.2-4.1 1.1-5.5c2.2-1.2 4.2-0.8 5.7 1.3c1.4 2.2 0.9 4.2-1.2 5.6c-2.2 1.5-4.1 0.9-5.6-1.4zm347-95.8c-1.9 1.3-4.4 0.7-5.6-1.3c-1.3-2-0.8-4.7 1.1-5.7c2.2-1.2 4.2-0.6 5.8 1.3c1.2 1.5 0.5 4.5-1.3 5.7zm-124.7 169.7c1.1 2 0.6 3.9-1.4 5.2c-2.3 1.4-4.3 0.5-5.7-1.5c-1.2-1.8-1.2-3.7 0.6-5.2c1.7-1.4 5.2-0.6 6.5 1.5zm70.4-183.5c-3.2 2-6.4 1.8-7.5 0.1c-1.1-1.7-0.4-4.5 1.5-5.6c2-1.2 5.4-0.6 6.2 1.5c0.5 1.3-0.1 3.1-0.2 4zm-226.8 205.7c1.8 0.5 3.9 0.6 5.2 1.7c1.5 1.3 0.4 4.7-1.6 5.9c-2.1 1.1-4.1 0.9-5.5-1c-1.2-1.6-0.3-4.5 1.9-6.6zm-189.4-327.3c0.2-0.6 0.2-2.5 1.2-3.4c1.4-1.3 6.4 0 6.8 1.8c0.3 1.5-0.4 3.8-1.4 5c-1.3 1.4-4.5-0.1-6.6-3.4zm611.8 21.5c-1.9 0.8-4 1.3-5.6-1c-1.2-1.7-0.4-4.5 1.5-5.6c2-1.2 5-0.5 6.1 1.3c1.1 1.7 0.3 3.9-2 5.3zm-16.5 77.6c1 1.7 0.7 3.6-1.4 4.9c-2.2 1.5-4.2 0.6-5.6-1.4c-1.3-1.9-1.3-3.9 0.8-5.4c1.8-1.4 4.5-0.6 6.2 1.9zm-273.7 55.6c1.2 1.9 0.6 3.5-1.1 4.7c-2.1 1.4-5.1 0.9-6.4-1.2c-1.1-1.9-1-3.7 0.8-5.1c1.9-1.4 5.2-0.5 6.7 1.6zm-154.3-121.1c2.3-1.4 5.5-0.7 6.6 1c1.2 1.7 0.5 5.1-1.3 6c-2.5 1.3-4.2-0.3-5.4-2.1c-1.3-1.8-1.4-3.7 0.1-4.9zm468.2-12.7c2.3-1 4.5-0.9 5.8 1.2c1.5 2.2 0.3 4.2-1.6 5.6c-1.9 1.4-4.8 0.9-5.7-1c-1-2.3-0.4-4.2 1.5-5.8zm-284.7 226.7c2.9-1 5.5-0.3 6.8 1.8c1.1 2 0.7 3.5-1.2 4.7c-2.2 1.3-6.6 1-6.7-0.6c-0.2-1.9 0.7-3.9 1.1-5.9zm43.1 73.2c-1.1-2.2-1-4.1 1.1-5.5c1.7-1.2 4.8-0.4 5.9 1.6c1.3 2.2 0.5 4-1.5 5.2c-2.2 1.4-4.1 0.7-5.5-1.3zm-250.6-25.9c-2.1 0.8-3.8 0.2-4.9-2c-1.1-2.3-0.6-4.3 1.8-5.5c2.1-1 4-0.5 5.3 1.6c1.2 1.9 0.2 4.7-2.2 5.9zm37.2-25.7c-0.5 1-0.9 2.9-2.1 4c-1.7 1.5-5.3 0.5-6-1.8c-0.4-1.4 0.1-3.7 1-4.7c1.5-1.7 5.2-0.5 7.1 2.5zm466.4-303c3-2 6.3-1.5 7.1 0.8c0.6 1.4 0.3 3.7-0.6 4.9c-1.2 1.6-5.5 0.6-6.4-1.6c-0.6-1.3-0.1-3.2-0.1-4.1zm-326.1 164.3c-1.1-2.1-1.3-4.1 0.9-5.4c2-1.2 4-1 5.5 1c1.4 1.9 1 5-0.8 6.1c-2.4 1.4-4.1-0.1-5.6-1.7zm-244.2 54.9c0.9 0.3 2.8 0.7 3.8 1.8c1.5 1.6 0.3 4.6-2 6c-1.5 0.9-3.3 2.2-4.8-0.1c-1.3-2-0.2-5.8 3-7.7zm19.9 34.4c1.9-1.3 4.7-0.8 6 1.2c1.4 2.2 0.7 4-1.1 5.4c-1.9 1.5-4.2 0.9-5.6-1.2c-1.3-2-1-4.2 0.7-5.4zm193.8 77.3c-3.1 1.9-6.4 1.3-7.1-1c-0.5-1.4-0.1-3.7 0.8-4.8c1.4-1.6 5.5-0.6 6.4 1.6c0.6 1.4-0.1 3.2-0.1 4.2zm6.9-292.9c0.9 1.4 0.4 3.1-1.4 4.5c-1.9 1.3-4.6 0.9-5.7-1.1c-1.2-2.1-1.2-4.2 0.9-5.8c1.7-1.3 4.4-0.4 6.2 2.4zm-162.5 201.5c-2.1 1.2-3.8 0.8-5.1-1.2c-1.4-2.2-1.1-5 0.7-6.1c1.7-1.1 4.6-0.4 5.7 1.6c1.3 2.3 0.6 4.2-1.3 5.7zm297.7-26.4c1 1.6 0.2 3.4-1.8 4.6c-2.1 1.3-4.2 1-5.6-1.3c-1.2-1.9-1.2-3.9 0.7-5.4c1.8-1.4 4.9-0.6 6.7 2.1zm41.4-188.7c-2.1 1.1-4.1 1.3-5.6-0.8c-1.3-1.8-0.8-4.6 1-5.7c1.7-1.1 5.1-0.5 6.2 1.3c1.4 2.3 0 3.8-1.6 5.2zm-326.9 8.2c2.1-1.2 4.7-0.8 5.7 1.2c1.2 2.3 0.3 4.1-1.6 5.3c-2 1.2-4 1.2-5.5-0.8c-1.4-1.8-0.7-4.3 1.4-5.7zm17.3 184.2c-1.2-2.2-1.5-4.3 0.7-5.6c2-1.3 4-0.9 5.3 1.3c1.1 2.1 1.5 4.6-0.7 6.1c-2.5 1.7-4-0.3-5.3-1.8zm248.5 83.2c-3.2 2.2-5.8 1.9-6.8 0c-1.1-2-0.9-4.1 1-5.6c1.5-1.3 5.8-0.5 6.3 1.4c0.5 1.5-0.4 3.4-0.5 4.2zm-135.6 57.9c-1.1-2.2-1.2-4.1 1.1-5.7c1.9-1.3 4.7-0.8 5.7 1.2c1.2 2.3 0.4 4.2-1.7 5.6c-1.9 1.3-3.7 0.7-5.1-1.1zm195.6-216.2c-1.7-3.2-2.2-5.3 0.1-7.1c1.5-1.2 4.7-0.5 5.6 1.4c1.1 2.4 0.3 4.7-1.7 6c-1.1 0.6-3-0.2-4-0.3zm-164.7 77.6c-1.2-2.6-0.6-4.5 1.8-5.6c2.2-1 4.3-0.5 5.5 1.8c1.3 2.5-0.2 4.2-2.3 5.3c-2.2 1.1-3.9 0.4-5-1.5zm-129.1 58.5c-1.3-2.1-1.1-4.1 0.9-5.4c2.1-1.4 4.2-1.1 5.6 1.1c1.4 2.1 1.3 4.2-0.9 5.6c-2.2 1.5-4.1 0.4-5.6-1.3zm121-124c1.1 2.2 0.7 4-1.4 5.3c-2.2 1.4-4 0.7-5.3-1.4c-1.3-2-1.3-4 1-5.3c2.2-1.4 4.1-0.6 5.7 1.4zm104 57.2c-3.1 1.7-4.9 1.5-6.4-0.4c-1.4-1.9-1-4.7 0.8-5.8c1.7-1 5.3-0.3 6 1.7c0.4 1.5-0.3 3.4-0.4 4.5zm73.7-103.7c3-2 5.8-1.5 7 0.5c1.3 2 0.8 3.8-1.1 5.1c-2.1 1.4-5.2 0.9-5.9-1.2c-0.6-1.5 0-3.4 0-4.4zm-181.4 190.9c1.3 2.2 0.8 5-1.2 5.9c-2.4 1.2-4.2 0-5.4-2c-1.3-1.9-1.1-3.9 1-5.1c2.1-1.2 4.1-0.6 5.6 1.2zm342.1-387.3c2.2-1.5 5.4-0.9 6.4 0.9c1.3 2.1 0.3 3.8-1.4 4.9c-2 1.3-4.3 1.7-5.8-0.6c-1.2-1.9-0.7-3.9 0.8-5.2zm-451.3 333c0.9 0.4 2.9 0.5 3.9 1.6c1.7 1.8 1.3 4.1-0.8 5.6c-1.8 1.3-3.9 1.5-5.6-0.2c-1.4-1.4-0.3-5 2.5-7zm498.8-380.4c-0.3 0.9-0.4 2.9-1.4 3.9c-1.6 1.6-5.3 0.4-6.5-1.8c-1-1.9-0.3-3.3 1.3-4.4c2.1-1.3 4.7-0.7 6.6 2.3zm-599.3 302.2c3-2 6.1-1.8 7.1-0.1c1.3 2.1 0.5 4-1.3 5.4c-2.1 1.5-4.9 1.1-5.8-1.2c-0.6-1.4-0.1-3.2 0-4.1zm223.8 169.2c0.4-0.8 0.7-2.7 1.7-3.7c1.6-1.5 5.3-0.4 6.3 1.5c1.2 2.1 0.4 3.8-1.5 5.1c-1.8 1.2-4.6 0.2-6.5-2.9zm342.9-362.1c2.8-1.9 6-1.4 7.1 0.4c1.2 2 0.6 3.8-1.3 5.1c-1.9 1.3-5.3 0.7-6-1.3c-0.4-1.4 0.2-3.3 0.2-4.2zm-375.9 124.7c-1.1-2.1-0.5-3.8 1.6-4.8c2-1 4.1-2.1 5.8 0.2c1.2 1.7 0 5.1-2.1 6.2c-2.2 1.1-4 0.3-5.3-1.6zm47.6-53.7c0.9 1.5 0.5 3.3-1.4 4.6c-2.1 1.3-4.2 1.1-5.7-1c-1.4-2-1.1-4 0.7-5.5c1.7-1.4 4.6-0.6 6.4 1.9zm184.3-46.5c1.2 2.2 0.4 5.2-1.6 6.3c-2 1.2-3.6 0.3-4.6-1.5c-1.1-2.1-1.3-4.4 1-5.8c2-1.3 3.9-0.6 5.2 1zm-18 83.9c1 1.6 0.6 3.2-1.2 4.5c-2.1 1.4-5 0.9-6.3-1.3c-1.2-1.8-0.9-3.5 0.9-4.8c1.8-1.3 5.1-0.6 6.6 1.6zm86.2-34c0.8-1.6 1.4-3.5 2.6-4.7c1.4-1.3 5.2-0.1 6 1.6c1 2 0.2 3.6-1.7 4.6c-2.1 1.2-5.2 0.5-6.9-1.5zm-204 297.7c1 1.9 0.3 3.7-1.7 5c-1.9 1.2-3.7 0.9-5.1-1c-1.5-2.1-1.1-4.6 0.8-5.7c1.8-1.1 4.6-0.4 6 1.7zm-88-281.7c2.1-1.1 3.9-1 5.2 1c1.4 2.2 0.9 4.2-1.2 5.6c-2 1.3-4 1.1-5.3-1c-1.4-2.3-0.4-4.1 1.3-5.6zm39.2 212c1.8-0.9 3.6-0.6 4.8 1.4c1.2 1.9 1.5 4-0.8 5.4c-2 1.2-4.2 1.1-5.8-0.9c-1.2-1.6-0.4-4.4 1.8-5.9zm138.6-200.4c1 1.8 0.4 3.4-1.5 4.6c-2 1.3-4.7 0.5-5.8-1.7c-1.1-2-0.8-3.8 1.2-5c1.9-1.2 4.7-0.3 6.1 2.1zm-21.5 205.3c-2-3.1-1.8-6.1-0.1-7.1c2.2-1.3 4.1-0.5 5.5 1.3c1.3 1.6 0.5 5.6-1.5 6.2c-1.4 0.4-3.1-0.3-3.9-0.4zm-196.1-168.1c1 0.4 3.1 0.7 4.1 1.9c1.5 1.8 0.7 4.2-1.5 5c-1.5 0.6-3.9 0.7-5.2-0.2c-1.6-1-0.3-4.8 2.6-6.7zm302.1 68.7c2.7-1 6.8-0.4 7.2 1.5c0.3 1.3-0.3 3.4-1.3 4.3c-1.5 1.5-6.1 1-6.4-0.6c-0.4-1.6 0.3-3.4 0.5-5.2zm-165.9-36.7c3.4-1.8 5.1-1.1 6.4 0.9c1.2 1.9 0.9 3.6-0.9 4.8c-1.9 1.2-6 0.9-6.3-0.6c-0.2-1.9 0.6-3.9 0.8-5.1zm134.5-173.3c-0.3 0.9-0.5 2.7-1.6 3.8c-1.5 1.5-4.9 0.9-6-0.9c-1.2-2-0.9-3.8 1-5.1c1.9-1.4 4.7-0.7 6.6 2.2zm150.7-54.3c1.9-1 3.9-0.9 5.2 1.2c1.3 2.2 0.4 4.2-1.6 5.5c-1.9 1.2-3.8 1.2-5.2-0.6c-1.4-1.7-0.6-4.8 1.6-6.1zm-492.2 122c2-0.9 4-0.8 5.3 1.2c1.5 2.3 0.4 4.2-1.7 5.5c-1.9 1.2-3.7 1.1-5.1-0.9c-1.3-1.7-0.6-4.4 1.5-5.8zm273.1-24.2c-0.4 0.8-0.7 2.5-1.7 3.5c-1.8 1.6-5.3 1.3-6.2-0.3c-1.3-2.2-0.5-4.1 1.3-5.5c1.6-1.4 4.8-0.6 6.6 2.3zm-173.7 255.4c-3.1 1.5-5.1 1.8-6.4-0.5c-1.2-2-1.3-4.2 0.8-5.8c1.6-1.2 5.2-0.3 5.9 1.7c0.5 1.5-0.2 3.4-0.3 4.6zm27.7 1.4c1.3 2.1 1.3 4-0.8 5.5c-2.1 1.4-4 0.6-5.3-1.3c-1.4-1.9-1.5-3.9 0.4-5.5c1.7-1.4 4.3-0.7 5.7 1.3zm-39.1 19.7c2-1.4 4.5-0.8 5.7 1.2c1.4 2.1 0.8 3.9-1.2 5.3c-1.9 1.3-3.7 1-5-0.9c-1.4-2-1.5-4 0.5-5.6zm106.4-87.3c0.3-1 0.3-2.9 1.2-4c1.2-1.6 5.2-0.6 6.3 1.2c1.3 2 0.5 3.8-1.3 5c-2.2 1.5-4 0.6-6.2-2.2zm257.5-208.1c-0.4 1.1-0.6 3.1-1.7 4.2c-1.4 1.5-4.4 0.3-5.7-2c-1.1-1.9-0.9-3.7 1.1-4.7c2.3-1.2 4.2-0.4 6.3 2.5zm-321.1 131.5c1.1 2.3 0.3 4.1-1.7 5.2c-2 1.2-3.8 0.7-5-1.3c-1.3-2-0.8-4.9 1.1-5.7c2.3-1 4.1-0.1 5.6 1.8zm339.5-92.2c-0.9-0.4-2.7-0.6-3.6-1.7c-1.6-1.8-0.9-4.9 1-5.9c2.2-1.1 4.2-0.4 5.4 1.5c1.5 2.3-0.1 4-2.8 6.1zm-212.1 148.5c2.2-0.9 4.1-0.3 5.2 1.8c1.1 2.1 0.4 4.1-1.6 5.3c-2.2 1.2-4 0.3-5.1-1.8c-1.2-2.1-0.7-3.9 1.5-5.3zm-93.3-78.9c1.1 2.8 0.4 6.5-1.4 7.3c-2.1 1-3.5-0.3-4.5-2c-1.2-2-1.6-4.4 0.8-5.6c1.3-0.7 3.4 0.1 5.1 0.3zm437.3-162.7c2.4-1.1 4.6-1.1 6.1 0.9c1.3 1.9 0.4 3.8-1.5 5c-1.8 1.2-4 1.5-5.5-0.5c-1.5-2-0.5-3.9 0.9-5.4zm-30.7 138.1c2-0.9 4.3-1.1 5.7 1c1.4 2 0.4 4-1.6 5.1c-2 1.2-4.2 1.3-5.6-0.6c-1.3-2-0.5-4 1.5-5.5zm-70.1-183.5c-0.8-0.4-2.8-0.5-3.7-1.6c-1.5-1.9-1.2-4.1 0.9-5.7c1.7-1.3 4.5-0.4 5.6 1.5c1.1 1.8 0.3 3.9-2.8 5.8zm-76.2 214.2c-2.3 1.1-4.1 0.6-5.5-1.6c-1.1-1.8-1.1-3.5 0.8-4.8c1.8-1.2 4.9-0.6 6.1 1.3c1.2 2.1 0.6 3.8-1.4 5.1zm-251 88.3c-2.8 1.9-6 1.5-6.8-0.7c-0.5-1.3-0.3-3.5 0.5-4.6c1.2-1.6 5.5-0.8 6.3 1.1c0.6 1.4 0.1 3.2 0 4.2zm-16.1-65.9c1.1 2.2 1.2 4.2-1 5.6c-2.1 1.2-3.9 0.4-5.1-1.5c-1.2-1.9-1.4-4 0.8-5.4c2.1-1.4 3.9-0.3 5.3 1.3zm-61.4 19.7c-3.2 1.6-5.1 1.1-6.2-1.1c-1.1-1.9-0.9-3.8 1.2-5c1.8-1.1 5-0.4 5.5 1.6c0.4 1.6-0.3 3.4-0.5 4.5zm-75.9 181.4c2-1.1 4-1.3 5.2 0.8c1.2 2.2 0.3 4.2-1.7 5.6c-1.8 1.2-3.6 1-4.9-0.7c-1.2-1.7-0.5-4.4 1.4-5.7zm239.4-261.2c-3.1 1.7-5 1.5-6.4-0.5c-1.3-2-1.4-4 0.6-5.5c1.7-1.2 5.2-0.3 6 1.8c0.4 1.4-0.1 3.2-0.2 4.2zm66-40.9c-1.6-0.6-3.6-0.9-4.7-2c-1.6-1.5-1-4.7 0.8-5.7c2.1-1.2 4-0.7 5.5 1.1c1.3 1.5 0.6 4.5-1.6 6.6zm-266.6 258.2c-1.2-2.2-1.3-4.2 1-5.4c2.2-1.2 4.3-0.7 5.6 1.5c1.3 2.3 0.3 4-1.7 5.2c-2.1 1.2-3.7 0.5-4.9-1.3zm-70.9-49.6c0.9 2 1.3 4.1-1.1 5.3c-2.2 1.3-4 0.3-5.2-1.7c-1.2-2-1-4.1 1.1-5.4c2.3-1.4 3.9 0 5.2 1.8zm-0.5 114.2c0.8 0.4 2.5 0.5 3.5 1.5c1.5 1.4 1 5.7-0.8 6.3c-1.2 0.5-3.3 0-4.4-0.9c-1.8-1.6-1.3-4.6 1.7-6.9zm180.1-422.9c3.2-1.8 5.1-1.3 6.5 0.8c1.1 1.8 0.9 3.5-1 4.8c-2 1.3-5.4 0.9-5.9-1.1c-0.5-1.5 0.2-3.4 0.4-4.5zm-136 353.2c-1.7-3.1-1.6-5.1 0.6-6.4c2.1-1.2 4.1-0.6 5.4 1.4c1.3 2 0.6 4.3-1.5 5.1c-1.4 0.6-3.4-0.1-4.5-0.1zm131.5-204.4c0.4-1.2 0.6-3.3 1.7-4.3c1.8-1.6 4.2-1.2 5.7 0.9c1.5 2 0.6 3.7-1.2 5c-2 1.3-3.9 1.1-6.2-1.6zm-21.5 227.4c-1.1-1.5-0.6-3.2 1.1-4.4c2.1-1.3 4.1-0.9 5.5 1.1c1.2 2 1.1 4.2-0.9 5.6c-2.3 1.5-4.1 0-5.7-2.3zm-133.8-150c-0.6 1.5-0.9 3.4-2 4.4c-1.7 1.5-4 1.2-5.4-0.7c-1.3-1.8-1.1-3.9 0.8-5.5c1.5-1.2 4.4-0.4 6.6 1.8zm433.6 9.1c1.4 2.7-0.4 4.1-2.2 5.4c-1.7 1.2-3.3 0.9-4.4-1c-1.2-2.1-0.7-5.2 1.2-6c2.2-1 4-0.3 5.4 1.6zm-136.7 60.9c-0.7-1.2-0.5-2.8 1.4-3.9c2-1.1 5.2-0.5 6.1 1.2c1.2 2.2 0.3 3.8-1.6 5c-1.9 1.1-4.3 0.3-5.9-2.3zm-14.7-36.8c1.2 1.8 0.7 4.8-1 5.8c-2.1 1.3-3.8 0.3-5-1.4c-1.3-1.9-1.5-3.9 0.6-5.5c1.7-1.3 4.2-0.7 5.4 1.1zm21-252.3c0.4-1 0.6-2.9 1.7-4c1.4-1.4 4.8-0.3 5.9 1.7c1 1.9 0.6 3.7-1.4 4.7c-2.3 1.2-4.1 0.4-6.2-2.4zm-53.4 366.3c0.5-1.2 0.8-3.2 1.9-4.3c1.3-1.4 4.7-0.3 5.7 1.5c1 2.1 0.4 3.9-1.5 5.1c-2.2 1.4-3.9 0.2-6.1-2.3zm-36-72.7c1.9 2.9 1.3 5.8-0.7 6.9c-1.9 1.1-3.6 0.6-4.8-1.2c-1.1-1.8-0.4-5.2 1.7-5.9c1.3-0.4 3 0.1 3.8 0.2zm395.8-199.3c-0.3 0.9-0.5 2.7-1.5 3.8c-1.4 1.4-4.5 0.3-5.8-1.8c-1.1-1.7-1.1-3.3 0.7-4.5c1.9-1.3 4.6-0.6 6.6 2.5zm-282 56.6c0.4-0.8 0.5-2.6 1.5-3.6c1.6-1.5 5.3-0.8 6.3 1c1.3 2 0.3 3.6-1.4 4.7c-2.1 1.3-4.1 0.8-6.4-2.1zm-104.2 233.1c1.3 2.2 0.8 4-1.1 5.4c-1.8 1.4-3.7 1-4.9-1c-1.3-1.9-1.4-4 0.7-5.4c2-1.4 3.8-0.8 5.3 1zm114.8-375.6c-3.2 1.3-5.3 1.5-6.8-0.8c-1.2-1.9-0.7-3.7 1.2-4.7c2.2-1.2 4.6-1.1 5.8 1.2c0.6 1.2-0.1 3.1-0.2 4.3zm-350.7 236.3c2.1-1.1 4-1 5.5 1c1.5 2.1 0.4 3.9-1.4 5.3c-1.8 1.4-3.7 1.2-5-0.8c-1.3-2-0.9-3.9 0.9-5.5zm-9.5-60.6c1.3 2.2 0.8 3.9-1.1 5.1c-2.1 1.4-4 0.8-5.3-1.2c-1.3-1.8-1.3-3.8 0.8-5.1c2.1-1.3 4.1-0.7 5.6 1.2zm488.7-6.1c2.8-1.3 6.6-1 7 0.8c0.4 1.4-0.2 3.7-1.2 4.7c-1.9 1.7-4.3 1.1-5.5-1.1c-0.7-1.2-0.3-2.9-0.3-4.4zm-20.3-27.4c-2-2.9-1.6-5.6 0.3-6.7c1.9-1.2 3.7-0.8 4.7 1c1.2 2.1 1.3 4.6-0.9 5.8c-1.2 0.7-3.2-0.1-4.1-0.1zm-165.1-44.7c1.2 0.4 3.2 0.6 4.3 1.8c1.6 1.7 1.1 3.9-0.8 5.3c-1.9 1.4-3.7 0.9-5.1-1c-1.3-2-1.2-3.8 1.6-6.1zm-274.8 84.9c-0.6 1.6-0.7 3.6-1.8 4.9c-1.3 1.6-4.6 0.9-5.4-1.3c-0.5-1.4-0.2-3.6 0.7-4.8c1.2-1.7 4.3-0.9 6.5 1.2zm166.4 7c1.2 0.5 3.2 0.6 4.1 1.7c1.4 1.7 1.4 4-0.8 5.4c-1.9 1.3-4 1.1-5.3-1c-1.3-2.1-0.4-3.9 2-6.1zm134.8-78.5c-1.7-3.2-1.3-5.1 0.8-6.3c1.8-1.2 3.7-0.8 4.8 1.1c1.1 2.1 0.9 4.7-1.2 5.8c-1.3 0.6-3.4-0.4-4.4-0.6zm-518.6-30.7c0.2-0.6 0.2-2.3 1.1-3.1c1.7-1.6 5.9-0.8 6.5 1.3c0.4 1.2-0.3 3.3-1.3 4.3c-1.5 1.6-4.3 0.6-6.3-2.5zm678.3-168c-1.3-1.8-1-3.3 0.7-4.5c1.7-1.2 4.9-0.6 5.6 1.5c0.5 1.4 0.2 3.7-0.6 4.9c-1.2 1.6-4.3 0.3-5.7-1.9zm-552.4 254.9c0.6-1.6 0.8-3.8 2-4.7c1.8-1.6 3.9-0.8 5.3 1.1c1.3 1.8 0.6 4.4-1.3 5.4c-2.1 1-3.8 0.5-6-1.8zm413.9-289.8c3.1-1.8 5.1-1.3 6.6 0.6c1.2 1.7 1.3 3.5-0.6 4.9c-1.5 1.1-5.2 0.4-6-1.5c-0.5-1.3-0.1-3 0-4zm-356.2 188c-1.1-0.5-3.1-0.8-4-2c-1.5-1.9-1-4.3 1.2-5.6c2-1.3 3.7-0.1 4.9 1.7c1.3 2 0.8 3.8-2.1 5.9zm460.4-102.3c-3.1 1.2-5.6 1.7-6.6-0.7c-0.6-1.2 0.3-3.7 1.3-5c1.1-1.3 5-0.2 5.6 1.6c0.4 1.4-0.2 3-0.3 4.1zm-400.4 224.4c1.4 3.1 1.4 5.1-0.8 6.4c-1.9 1.1-3.8 0.4-5-1.5c-1.3-2.1-1.1-4.3 1.2-5.3c1.4-0.5 3.4 0.2 4.6 0.4zm-5.4 29.5c1.3 2 0.3 3.3-1.3 4.3c-2 1.3-4.1 1.1-5.5-0.9c-1.1-1.7-1.2-3.8 0.8-5.1c1.6-1.1 4.8-0.1 6 1.7zm-132.7-54.8c-3.1 1.7-5 1.2-6.3-0.7c-1.2-1.9-0.9-3.8 0.9-5.2c1.8-1.3 4.9-0.7 5.6 1.3c0.5 1.5-0.1 3.4-0.2 4.6zm523.9-26.5c-1.4-3.1-1.5-5.1 0.5-6.5c1.9-1.2 3.9-0.7 5 1.3c1.3 2.1 0.9 4.3-1.2 5.3c-1.3 0.6-3.2-0.1-4.3-0.1zm-192.6 100.8c-2 1.2-3.8 1.1-5.1-0.9c-1.3-1.9-1.2-3.9 0.7-5.2c2-1.4 4-0.7 5.5 1.1c1.4 2 0.6 3.7-1.1 5zm-2.1-116.6c-3.1 1.5-5.2 1-6.1-1.1c-0.5-1.3-0.2-3.6 0.6-4.6c1.4-1.5 5.4-0.4 6.1 1.8c0.4 1.3-0.4 3-0.6 3.9zm-273.5 50.1c1 1.8 0.6 3.5-1.3 4.8c-1.9 1.3-3.7 1-5.1-0.9c-1.3-1.8-1.5-3.7 0.4-5.2c1.8-1.3 4.6-0.8 6 1.3zm244 205.7c-1.5-0.6-3.4-0.8-4.5-1.8c-1.6-1.5-1-4.9 0.9-5.3c1.6-0.3 4.1 0.1 5 1.2c0.8 1 0 3.3-0.1 5.1q-0.7 0.4-1.3 0.8zm254.6-351.3c-3.1 1.7-5 1.2-6.3-0.8c-1.1-1.6-1.5-3.5 0.6-4.8c2.2-1.3 4.5-0.7 5.7 1.3c0.6 1.2 0 3.2 0 4.3zm-112.3 203.8c2.7-1.8 5.7-1.4 6.4 0.6c0.5 1.3 0.3 3.5-0.5 4.5c-1.3 1.5-5.9 0.8-6.3-0.8c-0.4-1.5 0.3-3.3 0.4-4.3zm-169-148.4c1-2.6 1.2-4.7 2.3-5.7c1.5-1.5 3.6-1.2 5 0.7c1.2 1.7 0.8 5.2-1 5.7c-1.6 0.4-3.4-0.3-6.3-0.7zm-108.4 120.8c-1.6-0.7-3.6-0.9-4.6-2.1c-1.4-1.5-1.2-3.7 0.7-5.1c2-1.3 4.3-0.8 5.3 1.2c0.6 1.4 0 3.4-0.1 5.1q-0.6 0.5-1.3 0.9zm123.4 222.9c1.9 3 1.3 5.8-0.7 7c-1.7 1-3.3 0.8-4.5-1c-1.3-1.9-0.7-4.9 1.4-5.9c1.3-0.5 3-0.1 3.8-0.1zm-195.4-35.9c-0.8-0.3-2.6-0.5-3.5-1.5c-1.6-1.5-0.8-4.4 1.1-5.6c1.8-1.2 3.6-1 4.9 0.8c1.2 1.7 0.4 4.4-2.5 6.3zm621.7-331.4c3-1.3 5-1.3 6.3 0.8c1.2 2.1 0.5 3.9-1.5 5c-2.1 1.1-4.3 0.6-5.2-1.5c-0.6-1.3 0.2-3.2 0.4-4.3zm-363.4 90.9c1.2 2.9 0.8 5.9-1.2 6.6c-1.3 0.4-3.6-0.1-4.5-1c-1.6-1.8-1.1-4.3 1-5.6c1.1-0.7 3.1 0 4.7 0zm-76.7-40c-2.9 1.9-5.8 1.6-6.5-0.5c-0.5-1.3-0.2-3.4 0.6-4.6c1.2-1.5 5-0.7 5.9 1.3c0.5 1.3 0 3 0 3.8zm-329.3 42.3c-3.1 1.6-5 1.4-6.4-0.6c-1.1-1.7-1-3.5 0.8-4.9c1.7-1.2 5-0.7 5.7 1.2c0.5 1.4-0.1 3.2-0.1 4.3zm593.2-76.1c1 0.4 2.8 0.6 3.9 1.7c1.5 1.4 0.3 4.2-2 5.6c-1.5 1-3 1.1-4.1-0.7c-1.3-1.8-0.6-4.7 2.2-6.6zm-75.9-189.5c3.1-1.4 5.2-1.2 6.6 0.9c1.1 1.7 0.8 3.3-1 4.5c-1.9 1.2-5.1 0.6-5.8-1.4c-0.5-1.3 0.1-3 0.2-4zm-554 170.2c-3.2 1.8-5.3 1.8-6.8-0.3c-1.1-1.6-1.1-3.3 0.8-4.5c2-1.3 5.4-0.9 6.1 1c0.5 1.3-0.1 2.9-0.1 3.8zm549.4 239.3c0.3-1.1 0.4-3 1.3-4.2c1.1-1.4 5.3-0.5 5.6 1.2c0.3 1.5-0.3 3.7-1.3 4.8c-1.6 1.6-3.6 0.7-5.6-1.8zm-42.4-66.1c-1.5-3.1-1.3-5.2 0.9-6c1.3-0.4 3.6 0.2 4.7 1.2c1.6 1.3 0.9 4.7-1 5.2c-1.6 0.4-3.4-0.3-4.6-0.4zm144.3 26.3c0.9 2 0.9 3.9-1.3 5.1c-2.2 1.2-4.3 0.1-5-2c-0.5-1.2 0-3.5 1-4.4c1.8-1.6 3.8-0.7 5.3 1.3zm50.3-216.8c-3.1 1.5-5.1 1.5-6.6-0.8c-1.2-1.7-0.7-3.2 1-4.3c2.1-1.4 5.5-1.1 6 0.8c0.4 1.4-0.3 3.2-0.4 4.3zm-549.4 105.2c1.7 3.2 1 4.8-1 5.9c-1.7 1-3.6 1.4-4.9-0.6c-1-1.7 0-5.7 1.8-6c1.5-0.3 3.2 0.5 4.1 0.7zm-130.9-85.8c3-1.9 5.7-1.5 6.7 0.3c1.2 2.2 0.1 3.8-1.7 4.9c-2 1.2-4.2 1.2-5.2-1.1c-0.6-1.4 0.1-3.2 0.2-4.1zm20.8 37.3c0.3-0.9 0.4-2.7 1.3-3.8c1.2-1.3 4.8-0.4 5.7 1.3c1 1.9 1 4-1.1 5.1c-2.1 1.2-3.8-0.1-5.9-2.6zm23 58.9c-0.5 1.1-0.7 3-1.8 3.9c-1.9 1.5-4.3 0.9-5.2-1.2c-0.5-1.3 0-3.8 1-4.7c1.8-1.5 3.9-0.7 6 2zm168.6 14.3c-1.1-0.4-3.2-0.5-4-1.6c-1.3-2-0.4-4.3 1.6-5.6c1.8-1.2 3.6-0.6 4.7 1.3c1.2 2.1 0.3 3.9-2.3 5.9zm119.3-154.2c0.9 0.3 2.8 0.5 3.9 1.4c1.4 1.3 0.4 4.7-1.4 5.7c-2.1 1.3-3.6 0.2-4.7-1.5c-1.2-1.9-0.7-3.7 2.2-5.6zm-233.7 129.6c-1.5-2.5-0.6-6.5 1.4-7.1c1.2-0.3 3.2 0.1 4.2 1c1.5 1.4 0.4 4.7-1.8 5.7c-1.3 0.5-2.8 0.3-3.8 0.4zm360.8-158.1c0.8 1.3 0.5 2.8-1.4 3.9c-2 1.2-3.8 0.7-5.1-1.2c-1.1-1.7-1.4-3.5 0.5-4.9c1.5-1.2 4.5-0.2 6 2.2zm-188.3 455.6c-6.1 0.1-7.4-0.5-7.2-3.5c0.1-2.2 1.3-3.4 3.5-3.3c2.9 0.2 4.4 2.8 3.7 6.8zm280.1-348c-0.2 0.8-0.3 2.6-1.2 3.6c-1.5 1.6-5.3 1.1-5.9-0.8c-0.4-1.4 0.2-3.6 1.2-4.6c1.7-1.8 3.8-1 5.9 1.8zm-116 2.6c-0.4 1.1-0.7 3.1-1.8 4.1c-1.6 1.4-4 1.2-4.9-0.9c-0.6-1.3-0.3-3.9 0.6-4.8c1.7-1.7 3.8-0.8 6.1 1.6zm-180-6.9c0.3-0.9 0.4-2.8 1.3-4c1.1-1.4 5.3 0 5.7 1.9c0.3 1.3-0.4 3.4-1.5 4.3c-1.8 1.6-3.6 0.5-5.5-2.2zm422.7-199.6c3.1-1.5 5.1-1.6 6.4 0.6c1.1 1.8 0.5 3.6-1.3 4.7c-2 1.3-4.3 1-5.3-1.1c-0.6-1.2 0.1-3.1 0.2-4.2zm-338.3 474.1c1.7 0.7 3.7 1 4.8 2.1c1.5 1.7 0.9 3.8-1.1 5c-1.8 1.2-3.9 0.8-4.7-1.1c-0.7-1.4-0.2-3.4-0.2-5.2q0.6-0.4 1.2-0.8zm184.4-277.3c-0.6 1.6-0.9 3.8-2.1 4.8c-1.7 1.4-3.8 0.6-5-1.3c-1.1-1.8-0.7-3.9 1.2-4.8c1.4-0.6 3.4 0 5.1 0q0.4 0.7 0.8 1.3zm129.4-80.4c-1.1-3-0.7-6 1.2-6.7c1.2-0.4 3.5 0.1 4.1 1c1.4 1.9 1.4 4.4-0.8 5.7c-1.1 0.7-3 0-4.5 0zm-304.7 215.8c-0.6 1.6-0.9 3.7-2 4.7c-1.6 1.6-3.6 0.6-4.7-1.1c-1.2-1.8-1.2-4.1 0.8-5.1c1.4-0.6 3.4 0.1 5.1 0.2q0.4 0.7 0.8 1.3zm-21.3-172.7c-0.9-0.4-2.9-0.6-3.8-1.7c-1.3-1.7-1.6-4 0.7-5.3c2-1.2 3.8-0.4 5.1 1.4c1.4 2 0.8 3.6-2 5.6zm340.9-216.1c-2.9 1.5-5.1 1.7-6-0.6c-0.5-1.3 0-3.8 1-4.7c1.7-1.6 4.2-1 5.2 1.1c0.6 1.2-0.1 3.1-0.2 4.2zm-109 325.7c0.7-2.7 0.9-5.6 1.5-5.6c1.9-0.3 4.5 0 5.8 1.1c1.6 1.4 0.7 3.8-1.1 4.6c-1.5 0.6-3.4 0-6.2-0.1zm-380.9-92.3c1.7 3.1 1.2 4.8-0.7 6c-1.8 1.1-3.6 0.9-4.8-0.9c-1.4-2.1-1.1-4.3 1-5.3c1.4-0.6 3.4 0.1 4.5 0.2zm446.6-68.2c0.6-1.8 0.8-4 2-5.1c1.4-1.4 3.6-0.7 4.6 1.2c1.1 1.9 1.1 4.3-1 5.3c-1.3 0.7-3.2-0.1-4.8-0.2q-0.4-0.6-0.8-1.2zm68.7-18.9c-0.7 1.5-1 3.4-2.1 4.4c-1.8 1.5-3.8 0.7-5-1.1c-1.3-2-0.9-4.1 1.2-5c1.4-0.5 3.4 0.2 5.1 0.4q0.4 0.6 0.8 1.3zm-238.8 382.5c3.1-1.6 4.8-1.1 6 0.9c1 1.6 1.5 3.2-0.8 4.2c-1.9 0.9-4.2 2.1-5.4-0.6c-0.6-1.4 0.1-3.4 0.2-4.5zm199.9-242c0.4-0.9 0.5-2.9 1.6-3.8c1.9-1.6 4.3-0.9 5.2 1.2c0.5 1.3 0 3.8-1 4.7c-1.8 1.7-3.8 0.8-5.8-2.1zm55 12.6c0.3-0.9 0.5-2.5 1.5-3.5c1.3-1.5 5.3-1 5.9 0.8c0.5 1.2 0.1 3.2-0.8 4.2c-1.2 1.5-4.9 0.9-6.6-1.5zm-393.4-57.1c1-2.6 1.1-4.7 2.2-5.6c1.6-1.4 3.9-1.2 5.3 0.9c1.2 1.8 0.9 4.1-1.1 4.9c-1.5 0.6-3.4 0-6.4-0.2zm382.5-117.9c-2.6-1.1-4.6-1.3-5.5-2.4c-1.3-1.7-0.9-4.2 1.2-4.9c1.4-0.5 4 0 4.9 1.1c0.8 1-0.2 3.3-0.6 6.2zm115.4 134.7c-0.9 2.6-1 4.7-2.1 5.6c-1.8 1.6-3.9 0.6-5.2-1.3c-1.1-1.7-1-3.9 1-4.7c1.5-0.6 3.4 0.1 6.3 0.4zm-448.5 21.9c0.3-1 0.5-2.6 1.4-3.7c1.2-1.3 5.2-0.4 6.1 1.2c1.1 2 0.1 3.4-1.5 4.4c-2.1 1.3-4 0.6-6-1.9zm329.8-273.1c-2.6-1-4.7-1.1-5.6-2.2c-1.3-1.8-0.9-4.4 1.4-5.2c1.3-0.5 4 0.1 4.6 1.2c0.7 1.1-0.1 3.3-0.4 6.2zm-508.2 430.5c1 0.4 2.6 0.7 3.5 1.7c1.3 1.5 0.4 5.6-1.4 6c-1.2 0.2-3.3-0.4-4-1.4c-1.4-2-0.7-4.1 1.9-6.3zm283.3-226.5c0.9 0.3 3 0.4 3.8 1.5c1.7 2 0.4 4.1-1.5 5.5c-1.6 1.2-3.3 1.2-4.4-0.7c-1.2-2.1-0.9-4.1 2.1-6.3zm71.7-37.2c-2.9 1.9-5.8 1.5-6.5-0.5c-0.4-1.2 0-3.2 0.9-4.1c1.4-1.5 5.4-0.9 6 0.8c0.4 1.4-0.3 3-0.4 3.8zm205.8-12c-3.1 1.2-5.3 1.4-6.7-0.8c-1.1-1.7-0.7-3.5 1.1-4.5c2.1-1.1 4.5-0.8 5.7 1.3c0.7 1.1 0 2.9-0.1 4zm-182.1 133.7c0.4-1.2 0.7-3.3 1.8-4.3c1.8-1.4 3.9-0.4 5.1 1.3c1.2 1.9 0.6 3.7-1.1 4.8c-2 1.3-3.7 0.7-5.8-1.8zm-117.1-119.4c1.2 0.6 3.1 0.9 4.1 2c1.3 1.7 1 3.8-0.9 5.2c-1.8 1.3-3.6 0.8-4.8-1c-1.3-1.9-0.9-3.9 1.6-6.2zm-146.7 28c-0.6 1.3-0.9 3-1.9 3.9c-1.7 1.5-4.3 1.6-5.2-0.6c-0.6-1.3 0.3-4 1.4-5c1-0.7 3.3 0.2 5 0.3q0.4 0.7 0.7 1.4zm11.9-57.8c1.6 2.9 1.6 5.1-0.6 5.9c-1.3 0.5-3.8 0.1-4.7-0.9c-1.6-1.6-0.8-4 1.1-4.9c1.3-0.6 3.2-0.1 4.2-0.1zm-248.5 208.4c-0.7 1.3-1 3.1-2.1 3.9c-1.7 1.4-3.8 1.1-5-0.9c-1.2-1.9-1-4 0.9-5.2c2.2-1.4 3.9 0.1 6.2 2.2zm747.4-124.1c3-1.2 5-2.1 6.4 0.3c1.2 2.1 0.4 3.9-1.5 5c-1.9 1.2-4 0.8-5-1.3c-0.5-1.2 0.1-2.9 0.1-4zm-592 185.5c1 0.4 3.1 0.6 3.9 1.7c1.4 1.9 0.4 4.2-1.6 5.1c-1.3 0.5-3.7 0-4.4-0.9c-1.6-1.9-0.4-3.8 2.1-5.9zm159.9 65.9c0.9 0.2 3.2 0 3.9 1c1.5 2.2 0 4.3-2 5.3c-1.2 0.5-3.8 0.4-4.4-0.5c-1.5-2-0.1-3.8 2.5-5.8zm116.5-374.2c-1.5-0.5-3.4-0.7-4.4-1.8c-1.4-1.5-1.2-3.5 0.6-4.9c1.6-1.2 4.7-0.5 5.3 1.5c0.5 1.3-0.1 2.9-0.3 4.5q-0.6 0.4-1.2 0.7zm-439.4 279.4c-2.5-1-4.4-1.1-5.4-2.2c-1.6-1.7-0.8-3.7 1.1-4.9c1.8-1.1 4.1-1.3 5 0.8c0.6 1.4-0.3 3.4-0.7 6.3zm583.3-276.4c-0.6-0.2-2.3-0.4-3.1-1.3c-1.5-1.5-0.8-5 1.1-5.6c1.3-0.4 3.4 0 4.5 0.9c1.6 1.4 0.6 4.1-2.5 6zm21.1 149.5c-1-3.1-0.9-5.4 1.3-6.2c1.3-0.4 3.7 0.5 4.6 1.6c1.5 2.1 0.1 4.1-1.9 4.9c-1.2 0.5-2.9-0.2-4-0.3zm-249.3-33.3c-0.8 2.5-1 4.9-1.9 5.2c-1.7 0.5-4 0.4-5.5-0.4c-1.4-0.6-0.4-4.5 1.5-5.1c1.4-0.5 3.2 0.1 5.9 0.3zm293.6-136.9c-0.6 1.4-0.7 3.3-1.7 4.2c-1.9 1.6-4.3 0.9-5.3-1.1c-0.6-1.1-0.1-4 0.7-4.3c1.6-0.7 3.7-0.1 5.5-0.1q0.4 0.7 0.8 1.3zm-294.6 253.5c0.9 0.3 3.1 0.2 3.7 1.2c1.5 2.3 0 4.4-2.1 5.3c-1 0.6-3.4 0.2-4-0.6c-1.6-2.1 0-3.8 2.4-5.9zm344.4-119.9c0.7-2.6 0.7-4.4 1.6-5.5c1.2-1.5 5.1-0.7 5.5 1.1c0.4 1.4-0.1 3.8-1 4.4c-1.3 0.7-3.3 0.1-6.1 0zm-217.7 94.8c-3 1.7-4.7 1.3-6.1-0.6c-1.1-1.6-1.3-3.8 0.6-4.4c1.6-0.5 4.1-0.1 5.5 0.9c0.7 0.4 0 3 0 4.1zm110.7-265.9c0.3-0.9 0.4-2.9 1.4-3.6c1.9-1.4 4.3-0.7 5.3 1.3c0.5 1.1 0.1 3.5-0.8 4.4c-1.9 1.6-3.9 0.6-5.9-2.1zm-148.4 402.9c0.2-1 0.3-2.7 1.2-3.8c1.2-1.5 5.3-0.9 5.7 0.8c0.3 1.4-0.3 3.6-1.3 4.7c-1.6 1.6-3.6 0.8-5.6-1.7zm130.6-56.5c-1.6-2.9-1-6.2 0.8-6.6c1.4-0.2 3.6 0.4 4.4 1.4c1.6 2 0.4 4.1-1.6 5.1c-1.1 0.6-2.8 0.1-3.6 0.1zm-112-287c0.6-1.7 0.8-3.7 2-4.9c1.5-1.5 3.6-0.8 4.7 1c1.3 2.1 0.7 4.2-1.4 5.2c-1.2 0.6-3 0-4.5-0.1q-0.4-0.6-0.8-1.2zm-217.1 474.5c-1.4-0.5-3-0.7-3.9-1.6c-1.5-1.6-0.8-4.7 1-5.7c1.8-0.9 3.4-0.7 4.5 1.1c1.1 1.7 0.4 4.3-1.6 6.2zm401.5-258.4c0.8-2.7 0.9-4.5 1.9-5.7c1-1.4 4.8-0.6 5.2 1.2c0.3 1.4-0.2 3.8-1.3 4.6c-0.9 0.8-3 0.1-5.8-0.1zm-491.1 123.1c-1.7-3-1.1-4.7 0.9-5.9c1.7-1 3.7-1.4 4.8 0.6c1.1 2.1 0.3 4.3-1.8 5.2c-1.2 0.6-2.9 0.1-3.9 0.1zm557.6-260.9c-0.8 3-0.8 5.2-1.9 6.5c-1.3 1.4-3.3 0.7-4.4-1.1c-1.1-1.9-1.2-4.2 0.8-5.5c1-0.6 2.9 0 5.5 0.1zm-583.3 109.7c0.9-2.4 1-4.4 2.1-5.4c1.5-1.4 3.9-1.1 4.5 1c0.5 1.7-0.5 3.7-0.8 5.6c-1.6-0.3-3.2-0.7-5.8-1.2zm-80.9-24c1.9-0.5 4.3-1 5.1 1.4c0.4 1.3-0.8 3.7-2.1 4.7c-1.6 1.4-3.5 0.1-4.4-1.7c-1-1.7-0.8-3.3 1.4-4.4zm599.2-215.3c2.8 0.6 4.7 1.1 6.6 1.5c-0.5 1.5-0.5 3.5-1.5 4.4c-1.6 1.6-4.1 1.5-5.3-0.6c-0.6-1 0-2.8 0.2-5.3zm-121 153.6c0.8-2.8 1-4.8 2-6.3c0.3-0.4 3.3 0.2 4.2 1.1c1.7 1.7 1.3 4.1-0.8 5.3c-1 0.6-2.8 0-5.4-0.1zm-256.3 254.7c1.7 2.8 1.2 6.2-0.7 6.8c-1.2 0.3-3.1-0.4-4-1.3c-1.4-1.4-0.5-4.9 1.3-5.6c1.2-0.4 2.6 0.1 3.4 0.1zm-253.8-165.2c-0.9-0.3-2.6-0.4-3.5-1.3c-1.4-1.2-0.5-5 1.3-5.6c1.2-0.4 3.5 0 4.2 0.9c1.4 1.9 0.5 3.9-2 6zm707.2-161.8c-2.5-1-4.5-1.2-5.2-2.2c-1.3-1.9-0.7-4.3 1.4-5.2c1.1-0.5 3.9 0.2 4.3 1.1c0.7 1.3-0.2 3.3-0.5 6.3zm-111.8 83.9c1.6 0.7 3.7 1 4.7 2.2c1.4 1.6 0.7 3.7-1.2 4.6c-2 1.1-4.2 0.6-5-1.5c-0.5-1.3 0.1-3.1 0.3-4.6q0.6-0.4 1.2-0.7zm19.7 64.8c-0.2 0.8-0.3 2.5-1.2 3.5c-1.2 1.3-5.2 0.4-5.7-1.4c-0.4-1.2 0-3.3 0.9-4.1c2-1.6 3.9-0.5 6 2zm-98.9-106.3c0.2-0.7 0.2-2.5 1.2-3.5c1.1-1.3 4.9-0.3 5.5 1.5c0.4 1.2 0 3.2-0.9 4.2c-1.5 1.5-4 0.8-5.8-2.2zm-301.8 49.5c0.7-1.5 1.1-4 2.1-4.2c1.5-0.4 3.4 0.7 5.1 1.2c-0.5 1.6-0.6 3.8-1.7 4.6c-1 0.7-3.1-0.2-4.7-0.3q-0.4-0.7-0.8-1.3zm448.6-50.7c1.6 0.8 3.6 1.1 4.7 2.4c1.4 1.6 0.7 3.5-1.2 4.6c-1.9 1.1-3.9 0.5-4.7-1.3c-0.6-1.4-0.1-3.3-0.1-4.9q0.6-0.4 1.3-0.8zm-404.3 265.2c-1.3-0.8-3.6-1.4-3.7-2.4c-0.2-1.6 0.4-3.9 1.6-4.9c1.5-1.4 3.9-0.4 4.4 1.6c0.4 1.5-0.5 3.4-0.9 5.1q-0.7 0.3-1.4 0.6zm43.5-55.2c-1.2 2.6-1.5 4.7-2.6 5.4c-1 0.5-3.5-0.1-4.4-1c-1.4-1.6-1.3-4.1 0.8-5c1.4-0.6 3.3 0.3 6.2 0.6zm133.3-108.4c1.1-2.7 1.4-5 2.5-5.7c1.1-0.5 3.7 0.3 4.6 1.4c1.3 1.7 0.7 4.1-1.4 4.9c-1.2 0.5-3-0.2-5.7-0.6zm-30.5 137.1c0.6-1.5 0.8-3.9 1.9-4.5c1-0.5 3.9 0.4 4.5 1.4c0.6 1.1 0 3.7-1 4.7c-0.8 0.7-3-0.1-4.6-0.3q-0.4-0.6-0.8-1.3zm223.6-477.4c3.2-1.1 5.3-0.7 6.1 1.5c0.5 1.2-0.6 2.9-1.1 4.3c-1.9-0.7-4-1.1-5.5-2.2c-0.5-0.3 0.3-2.6 0.5-3.6zm-511.4 464.8c2.6 1 4.5 1.2 5.3 2.2c1.4 2 0.4 4-1.6 5.2c-1.6 1-3.7 0.8-4.2-1.2c-0.5-1.5 0.2-3.4 0.5-6.2zm186.4-160.9c1.6 2.9 1.4 4.8-0.5 6.1c-1.8 1.1-3.8 0.6-4.4-1.3c-0.4-1.4-0.3-3.8 0.7-4.8c0.8-0.8 3.1 0 4.2 0zm120.2 90.3c0.5-1.6 0.6-3.9 1.7-4.5c1.1-0.6 3.6-0.2 4.7 0.8c1.6 1.3 1 3.7-0.8 4.6c-1.3 0.6-3.2 0.2-4.8 0.2q-0.4-0.5-0.8-1.1zm188-160.7c-2.8 1-4.3 0.6-5.4-1.2c-1.1-1.8-1-3.6 0.8-4.8c1.7-1.2 3.9-1.1 4.7 0.9c0.7 1.4 0 3.4-0.1 5.1zm-499.6 144.2c1.7 2.9 1.6 4.7-0.4 6c-1.9 1.2-3.5 0.3-4.5-1.3c-1.1-1.9-1.4-4.1 0.8-5.1c1.2-0.6 3.2 0.2 4.1 0.4zm396-202.3c-1 2.5-1.1 4.4-2.1 5.2c-1.7 1.3-3.8 0.9-5.1-1c-1.3-1.9-0.6-3.9 1.2-4.7c1.3-0.5 3.2 0.2 6 0.5zm-13.4 62.3c-2.6-1.2-4.4-1.5-5.4-2.5c-1.3-1.4-1.4-3.8 0.7-4.4c1.6-0.4 3.8 0.4 5.4 1.3c0.5 0.3-0.3 2.9-0.7 5.6zm-211.4 32.9c-0.9 2.6-1.1 4.6-2.2 5.6c-1.6 1.5-3.8 0.7-4.4-1.3c-0.5-1.4-0.1-3.8 0.8-4.7c0.8-0.7 3.1 0.1 5.8 0.4zm391 64.6c-0.9-0.4-2.7-0.5-3.4-1.4c-1.4-1.9-0.8-4.3 1.2-5.3c1.2-0.5 3.6-0.1 4.4 0.8c1.7 2 0.3 3.8-2.2 5.9zm-144.3-124.7c-0.6 1.4-0.9 3.2-2 4.1c-1.5 1.3-3.9 0.9-4.6-1.1c-0.5-1.3-0.1-4.1 0.9-4.6c1.1-0.8 3.3 0.1 5 0.3q0.4 0.7 0.7 1.3zm-444.1 161.1c-0.7 2.6-0.7 4.6-1.7 5.6c-1.5 1.6-3.5 1-4.7-0.9c-1.1-1.8-1.5-4.1 0.6-5.1c1.2-0.7 3.2 0.1 5.8 0.4zm160.4-195.2c-0.5 1.4-0.6 3.2-1.6 4c-1.6 1.4-3.8 0.7-4.6-1.1c-0.5-1.4-0.3-3.9 0.6-4.8c1.9-1.8 3.5 0 5.6 1.9zm-356.3 159.1c-2.1-0.5-3.5-0.4-4.2-1.1c-1.4-1.3-0.6-6 1.2-6.6c1.1-0.3 3.8 0.5 3.8 0.9c0.1 2-0.4 4-0.8 6.8zm683.8 35.5c1.1-2.5 1.5-4.8 2.6-5.3c1.2-0.5 3.7 0.3 4.5 1.3c1.4 1.8 0.4 4.1-1.6 4.8c-1.2 0.5-2.9-0.4-5.5-0.8zm-178.8 155.6c1.4 0.7 3.7 1.1 3.9 2.1c0.5 1.4-0.1 3.7-1.1 4.8c-1.4 1.4-3.6 0.9-4.3-1c-0.5-1.5 0.1-3.4 0.2-5.1q0.7-0.4 1.3-0.8zm-357.7-224.2c2.7 1 4.8 1.1 5.8 2.3c0.5 0.6-0.3 3.3-1.3 4.2c-1.7 1.6-4 1-5-1c-0.5-1.1 0.2-2.8 0.5-5.5zm257.9-81.2c-2.8-0.9-4.9-1-6-2.1c-0.6-0.6 0.1-3.4 1-4.3c1.5-1.4 3.9-1.2 5 0.8c0.7 1.1 0.1 2.9 0 5.6zm96.7 334.4c1.7 2.6 1.2 5.6-0.7 6.4c-1 0.4-2.8 0-3.5-0.7c-1.6-1.8-1.1-5.3 0.8-6c1.1-0.4 2.6 0.2 3.4 0.3zm-86.2-280.7c1.4 0.7 3.6 1.1 3.9 2.1c0.4 1.4 0 3.8-1 4.7c-1.4 1.4-3.8 0.9-4.5-1.2c-0.5-1.4 0.2-3.3 0.4-4.9q0.6-0.3 1.2-0.7zm111.6 148.6c1-2.8 1.3-4.8 2.4-6.4c0.2-0.4 3.1 0.2 4 1.1c1.3 1.4 0.3 4.8-1.6 5.6c-1 0.4-2.4-0.1-4.8-0.3zm-300.8-212.7c0.5-1.5 0.6-3.5 1.7-4.5c1.4-1.4 3.8-1.3 4.6 0.8c0.5 1.3 0 3.7-1 4.8c-1.2 1.4-3.2 0.9-5.3-1.1zm368.6 191.2c1.2 3 1.2 5.2-1 6.2c-1 0.5-3.2-0.2-3.9-1.2c-1.4-1.7-1.3-4.1 0.8-5.3c1.1-0.6 3 0.2 4.1 0.3zm76.4 23.9c1.1-2.6 1.4-4.9 2.4-5.4c1.2-0.6 3.7 0.2 4.7 1.2c1.5 1.5 0.9 3.8-1.1 4.6c-1.3 0.5-3.2-0.1-6-0.4zm42.4-54.6c1.6 0.5 3.6 0.6 4.6 1.7c1.4 1.5 1 3.5-0.9 4.7c-1.8 1.2-3.7 0.9-4.6-1.1c-0.6-1.2-0.2-3-0.2-4.5q0.5-0.4 1.1-0.8zm-515.3-167.5c0.4-0.9 0.6-2.5 1.5-3.1c1.9-1.2 4.3-1.5 5.4 0.8c0.5 1.1-0.4 3.5-1.4 4.4c-1.9 1.7-3.6 0.2-5.5-2.1zm594.6 98c-0.6 2.4-0.6 4.4-1.5 5.2c-1.7 1.5-3.5 0.5-4.7-1.2c-1.1-1.7-1.7-3.8 0.5-4.8c1.2-0.5 3.1 0.4 5.7 0.8zm-554.5-118c-2.6-0.8-4.1-1.2-5.7-1.7c0.5-1.6 0.5-3.7 1.6-4.7c1.4-1.4 3.8-1 4.6 0.9c0.5 1.2-0.2 3-0.5 5.5zm-191.7 67.4c1.6 2.8 1.9 4.7-0.2 6c-1.7 1.1-3.4 0.8-4.5-0.9c-1.3-2.1-0.7-4.2 1.3-5.3c1-0.6 2.7 0.1 3.4 0.2zm337.7-69.8c-0.9 2.4-1 4-2 4.9c-1.4 1.4-4.6 0.7-5.1-1.3c-0.4-1.3 0.2-3.9 1-4.3c1.4-0.5 3.3 0.3 6.1 0.7zm10 321.1c1.1 0.4 2.8 0.5 3.5 1.4c1.3 1.9 0.8 4.2-1.2 5.3c-1 0.5-3.2 0.1-3.9-0.7c-1.5-1.9-0.5-3.8 1.6-6zm163.4-217.6c1.2-2.8 1.6-4.8 2.8-6c0.6-0.5 3.5 0.3 4.2 1.3c1.3 2 0.1 4.2-1.9 5.2c-1 0.4-2.6-0.2-5.1-0.5zm-51.3-132.2c-0.3 0.8-0.5 2.5-1.4 3.3c-1.6 1.3-4 1.5-5-0.6c-0.6-1.3-0.1-3.8 0.9-4.7c1.7-1.8 3.6-0.6 5.5 2zm17.8 30.3c1.3 0.7 3.1 1.1 3.9 2.2c1.3 1.8 0.8 4.2-1.3 4.8c-1.3 0.4-3.8-0.5-4.5-1.6c-0.7-1.1 0.3-3.1 0.6-4.7q0.6-0.4 1.3-0.7zm20.1 295.3c1.5 0.7 3.5 1.1 4.4 2.3c1.3 1.5 0.8 3.9-1.2 4.5c-1.3 0.4-3.7-0.3-4.4-1.3c-0.7-1.1-0.1-3.1-0.1-4.8q0.7-0.4 1.3-0.7zm-309.9-149.2c-2.3-0.9-4.6-1.2-5-2.1c-0.5-1.4 0.4-3.2 0.7-4.9c1.7 0.3 3.9 0.2 5 1.2c0.7 0.6-0.3 3.1-0.7 5.8zm502.7-294.5c-2.5-1-4.8-1.2-5.1-2.1c-0.5-1.4 0.4-3.2 0.7-4.9c1.6 0.3 3.9 0.1 4.7 1.1c0.8 0.9-0.1 3.1-0.3 5.9zm-493.9 231.6c1.6 0.6 3.8 0.7 4.5 1.7c0.6 1 0.1 3.5-0.8 4.5c-1.4 1.6-3.7 1.1-4.7-0.8c-0.6-1.2-0.2-3-0.2-4.5q0.6-0.4 1.2-0.9zm522-226c-2.7-0.9-4.8-1-5.5-2c-0.6-0.9 0-3.9 0.9-4.3c1.2-0.6 3.6-0.2 4.7 0.7c0.7 0.6 0 2.9-0.1 5.6zm-376.8 490.8c0.7 0.2 2.4 0.1 3.2 0.9c1.4 1.3 0.5 4.7-1.6 5.5c-1.1 0.4-3.2 0.1-3.8-0.7c-1.7-2-0.4-3.8 2.2-5.7zm162.1-334.7c-1.7-3.1-0.9-4.7 0.9-6c1.6-1.1 3.2-0.7 4.1 1c1.1 2.1 0.7 4.3-1.4 5.3c-1.1 0.5-2.8-0.2-3.6-0.3zm-363.9 56.9c2.6 1.1 4.7 1.3 5.5 2.4c0.6 0.9-0.1 3.5-1 4.4c-1.6 1.4-3.8 0.6-4.6-1.3c-0.6-1.2 0-2.8 0.1-5.5zm569.7-46.8c-1 2.5-1.1 4.3-2 5.1c-1.8 1.4-4.1 0.7-5-1.2c-0.5-1.2 0-4 0.8-4.3c1.4-0.6 3.4 0.1 6.2 0.4zm-296.6-3.3c0.2-0.7 0.8-3.2 1.3-3.2c1.8 0.1 3.7 0.8 5.3 1.7c0.3 0.2-0.3 3.2-1.3 3.9c-1.8 1.4-3.6 0.4-5.3-2.4zm257.2-209c-0.5 2.4-0.4 4.1-1.2 5.2c-0.9 1.3-4.5 0.1-5.4-2c-0.4-1 0.2-3.7 0.6-3.7c1.7-0.2 3.4 0.2 6 0.5zm-181.7 133.8c2.5 0.9 4.3 1.1 5 2c1.5 2 0.4 4.1-1.6 5.1c-1 0.4-3.6-0.2-3.7-0.8c-0.4-1.6 0.1-3.4 0.3-6.3zm-126-56.1c-0.4 0.9-0.8 3-1.4 3.1c-1.9 0.2-3.8-0.5-5.7-0.8c0.4-1.4 0.3-3.4 1.2-4.1c1.9-1.5 3.9-0.7 5.9 1.8zm180.5 98.1c-0.7 1.5-0.9 3.7-2 4.3c-1 0.6-3.4-0.1-4.4-1.1c-1.4-1.5-0.9-3.7 1-4.6c1.3-0.5 3 0.1 4.6 0.1q0.4 0.7 0.8 1.3zm174.2 102.8c0.8-2.5 1-4.9 1.7-5c1.6-0.3 3.5 0.4 5.3 0.8c-0.4 1.5-0.3 3.6-1.3 4.3c-1 0.7-3 0-5.7-0.1zm-699.1 11.6c1.4 0.6 3.9 0.9 4.1 1.7c0.3 1.5-0.5 3.6-1.5 4.7c-0.6 0.5-3.6 0-4-0.8c-0.6-1.3 0.1-3.2 0.2-4.8q0.6-0.4 1.2-0.8zm501.1-142.5c-0.9-0.4-2.6-0.7-3.4-1.6c-1.3-1.6-1.2-3.5 0.6-4.9c1.7-1.2 3.4-0.9 4.6 0.7c1.4 1.9 0.6 3.6-1.8 5.8zm10.6 60.5c0.8-2.6 0.9-4.6 1.9-5.6c1.5-1.5 3.6-0.8 4.7 0.9c1.2 2 0.6 4-1.4 5c-1.1 0.5-2.7-0.1-5.2-0.3zm-187.4 189.5c0.5-1.7 0.8-3.8 1.8-5.1c0.5-0.6 2.7 0.2 4.2 0.4c-0.4 1.9-0.5 3.9-1.4 5.5c-0.3 0.6-2.4 0.2-3.7 0.3q-0.5-0.5-0.9-1.1zm184.2-46.4c0.6-1.5 0.8-3.6 1.9-4.2c1-0.6 3.4 0.1 4.4 1.1c1.5 1.5 0.9 3.7-1.1 4.5c-1.2 0.6-2.9 0-4.4-0.1q-0.4-0.6-0.8-1.3zm-130.5-34.3c-1.3 2.4-1.8 4.2-2.9 4.9c-1.8 1.3-3.8 0.3-4.3-1.7c-0.3-1.3 0.4-3.8 1.3-4.2c1.2-0.6 3.1 0.4 5.9 1zm-415.3 23.5c1.7 3 1.2 4.9-0.8 5.9c-0.9 0.4-3.1-0.1-3.7-0.9c-1.3-1.8-1.1-4.2 1-5.4c1-0.5 2.7 0.3 3.5 0.4zm374.8 25.4c-0.7 1.5-1.1 3.5-2.3 4.3c-0.9 0.6-3.3 0.1-4.1-0.8c-1.5-1.6-0.8-3.8 1-4.7c1.3-0.6 3.1 0 4.6 0q0.4 0.6 0.8 1.2zm-116.6-26.8c2.4 0.8 4.2 0.8 5 1.8c1.5 1.7 0.9 3.9-1 4.8c-1.2 0.6-3.9 0.1-4.3-0.8c-0.7-1.1 0.1-3.1 0.3-5.8zm18.4-53.5c-1.1 2.5-1.3 4.6-2.3 5.1c-1.1 0.5-3.9 0-4.3-0.9c-0.6-1.3-0.2-3.8 0.7-4.6c0.8-0.8 3.1 0.1 5.9 0.4zm260.1-24.2c0.7-1.4 1.1-3.7 2.1-3.9c1.4-0.5 3.7 0.1 4.7 1.1c1.4 1.3 0.7 3.5-1.1 4.2c-1.4 0.5-3.3 0-4.9-0.1q-0.4-0.7-0.8-1.3zm-255-2.7c-0.6 1.4-0.8 3.5-1.8 4c-1.4 0.6-3.3 0-5 0c0.6-1.8 0.8-3.9 1.9-5.4c0.4-0.6 2.6 0.1 4 0.2q0.5 0.6 0.9 1.2zm444.8-192.3c1.5 0.6 3.4 1 4.4 2.1c1.4 1.5 0.9 3.6-1 4.2c-1.3 0.4-3.5-0.1-4.4-1.1c-0.8-0.9-0.2-2.9-0.2-4.4q0.6-0.4 1.2-0.8zm8 379.9c-0.9 2.2-1.1 4-2.1 4.7c-1.8 1.4-3.8 0.5-4.5-1.4c-0.4-1.3 0.5-3 0.8-4.6c1.6 0.4 3.2 0.7 5.8 1.3zm-13.8-352c1.5 0.6 3.8 0.8 4.1 1.7c0.5 1.4 0 3.7-0.9 4.8c-1.3 1.5-3.5 1.1-4.3-0.8c-0.5-1.4-0.1-3.2-0.1-4.9q0.6-0.4 1.2-0.8zm-3.5 144.6c1.6 0.6 3.7 0.8 4.5 2c0.5 0.9-0.1 3.4-1 4.3c-1.5 1.6-3.7 1-4.6-0.9c-0.6-1.3-0.1-3-0.1-4.6q0.6-0.4 1.2-0.8zm-523.5 29.1c-0.7 1.3-1.1 3.5-2.1 3.8c-1.5 0.4-3.5-0.3-4.8-1.3c-0.4-0.3 0.2-3.5 0.9-3.9c1.5-0.6 3.5-0.1 5.2 0q0.4 0.7 0.8 1.4zm62.7 107.4c-2.4-0.9-4.1-1.1-4.8-2.1c-1.5-1.7-0.7-3.7 1.2-4.5c1.2-0.5 2.9 0.1 4.3 0.2c-0.2 1.8-0.4 3.5-0.7 6.4zm-199-22.4c-1 2.5-1.2 4.5-2.3 5.3c-0.7 0.5-3.2-0.3-4-1.2c-1.4-1.7-1-4 1.1-4.9c1-0.5 2.7 0.4 5.2 0.8zm-13.8-90.7c1.2 0.6 2.8 0.8 3.6 1.8c1.4 1.8 1 4-1.2 4.8c-1 0.5-3.5-0.2-3.7-0.8c-0.5-1.6-0.1-3.5 0-5.2q0.6-0.3 1.3-0.6zm88.2 20.7c-1 2.2-1.3 4.4-2.1 4.6c-1.3 0.4-3.9-0.1-4.3-1c-0.6-1.3 0.3-3.2 0.5-4.9c1.6 0.3 3.2 0.7 5.9 1.3zm98.3 50.1c2.5 0.7 4.4 0.8 5.3 1.8c1.5 1.6 0.6 3.8-1.2 4.5c-1.2 0.5-3.6 0.1-4.3-0.8c-0.7-0.9 0-3 0.2-5.5zm449 71.7c2.5 0.7 4.6 0.6 5.5 1.6c1.4 1.6 0.5 3.5-1.2 4.7c-1.8 1.2-3.6 0.7-4.4-1.1c-0.5-1.2 0-2.8 0.1-5.2zm-649.5-57.7c-1 2.3-1.2 4.2-2.3 5.2c-1.5 1.3-3 0.3-3.9-1.3c-1.2-2-1.1-4 1-5c1.1-0.4 2.8 0.5 5.2 1.1zm282-110.8q2.2 0.6 4.4 1.3c-0.6 1.7-1 3.6-2 4.9c-0.4 0.5-3 0-3.7-0.8c-1.5-1.7-0.9-3.4 1.3-5.4zm393.6 180.4c1-2.5 1.4-4.8 2.1-4.9c1.6-0.3 3.5 0.5 5.2 0.9c-0.5 1.5-0.7 3.5-1.7 4.3c-1 0.7-2.9-0.1-5.6-0.3zm-121.2-206.3c-0.6 1.4-0.9 3.1-1.9 4c-1.5 1.4-3.6 0.9-4.3-1c-0.4-1.2 0.1-3.5 1-4.3c0.8-0.7 2.9-0.1 4.4 0q0.4 0.7 0.8 1.3zm109.8-122.2c0.9 0.4 2.4 0.5 3 1.4c1.3 1.8 1.4 4.1-0.8 5.3c-0.8 0.5-2.9 0-3.5-0.7c-1.6-1.9-1-3.8 1.3-6zm73.7 52.2c0.7-2.4 0.7-3.9 1.5-4.9c1.1-1.3 4.9-0.6 5.3 1.2c0.4 1.1-0.2 3.4-1 3.7c-1.3 0.6-3.2 0.1-5.8 0zm-431.5 506.3c0.8 0.3 2.4 0.5 3 1.3c1.4 2 0.8 4.2-1.3 5.3c-0.9 0.5-3.2 0-3.8-0.8c-1.4-2-0.3-3.9 2.1-5.8zm208.5-679.5c2.6 1.1 4.6 1.4 5.8 2.6c0.6 0.5-0.1 2.6-0.3 4c-1.9-0.6-4-0.9-5.7-1.8c-0.5-0.3 0.1-2.4 0.2-4.8zm-301.9 340.5c-1 2.3-1.2 3.9-2.1 4.6c-1.7 1.4-3.8 1.1-4.7-0.8c-0.5-1.2-0.1-4 0.5-4.2c1.5-0.4 3.4 0.1 6.3 0.4zm147.9 90.5c2.4 0.7 4.7 1.2 4.6 1.6c0 1.7-0.5 3.6-1.4 5.1c-0.3 0.4-3.6-0.2-3.6-0.6c-0.3-1.6 0.1-3.4 0.4-6.1zm-175.8-96.9c-1 2.4-1.3 4.1-2.2 4.9c-1.5 1.4-3.7 1.1-4.4-0.8c-0.6-1.3-0.3-3.9 0.6-4.5c1-0.7 3.1 0.1 6 0.4zm-36-124.9c2.4 0.9 4.6 1.1 5 2c0.4 1.2-0.3 3.6-1.3 4.2c-1.1 0.6-3.5 0.1-4.4-0.8c-0.6-0.7 0.3-2.9 0.7-5.4zm531.4 90.2c2.7 0.8 4.3 1.3 5.9 1.7c-0.5 1.5-0.6 3.5-1.7 4.5c-1.4 1.4-3.5 0.8-4.3-1c-0.5-1.2 0-2.8 0.1-5.2zm34.4-282.3c2.5 0.5 4.6 0.3 5.6 1.2c1.5 1.5 0.5 3.3-1.2 4.3c-1.7 1.1-3.7 1.2-4.7-0.8c-0.5-0.9 0.1-2.5 0.3-4.7zm-11.7 438.7c0.9-2.5 1.1-4.4 2.1-5.1c0.8-0.7 3-0.4 4 0.3c1.4 1 1 5-0.4 5.3c-1.4 0.3-3-0.2-5.7-0.5zm-368.1-169.8c0.6-1.5 0.9-3.4 2-4.4c1.3-1.3 3.1-0.7 4.1 1.1c0.9 1.8 0.8 3.8-1.2 4.7c-1.1 0.5-2.8-0.1-4.2-0.2q-0.3-0.6-0.7-1.2zm120.4-147.6c0.8-2.3 0.9-4.6 1.9-5c1.1-0.5 3.6 0.2 4.2 1.2c0.6 1 0.1 3.4-0.8 4.4c-0.6 0.6-2.8-0.3-5.3-0.6zm-241.7 172.6c1.4 0.6 3.5 0.9 4 1.9c0.6 1.1-0.3 3-0.6 4.5c-1.5-0.3-3.5-0.1-4.3-1.1c-0.8-0.9-0.3-2.9-0.4-4.4q0.7-0.5 1.3-0.9zm387.3-146.2c-0.8 2.4-0.9 4.3-1.9 5.3c-1.5 1.4-3.6 0.6-4.2-1.3c-0.4-1.3 0.3-3.1 0.5-4.7c1.5 0.2 3 0.4 5.6 0.7zm-637.7 119.9c-0.9 2.2-1 4.2-2 4.8c-0.9 0.5-3.2-0.1-4-1c-1.5-1.8-0.7-4 1.2-5c0.9-0.4 2.5 0.6 4.8 1.2zm803.6-82.1c-0.7 2.4-0.8 4.5-1.8 5.2c-1.9 1.4-3.7-0.1-4.3-1.8c-0.5-1.2 0.2-2.9 0.3-4.3c1.6 0.3 3.2 0.5 5.8 0.9zm-125.7-86.8c-0.9 2.5-1.1 4.5-2.1 5.4c-0.6 0.6-3.2 0-4-0.9c-1.4-1.7-0.9-3.9 1.2-4.9c0.9-0.5 2.5 0.2 4.9 0.4zm-639 96.9c0.7-2 0.8-3.4 1.5-4.1c1.4-1.3 4.6-0.7 5.3 1.2c0.4 1.1-0.4 3.7-0.7 3.7c-1.7 0.2-3.5-0.4-6.1-0.8zm516.9-94.4c1.3 0.6 3.1 1 3.8 2.1c0.5 0.7-0.1 3-1 3.7c-1.6 1.3-3.8 1-4.7-0.9c-0.5-1.1 0.3-2.8 0.5-4.2q0.7-0.4 1.4-0.7zm80.6 22.1c0.2-0.7 0.2-2.6 1-3.2c2.1-1.3 4.1-0.3 5.1 1.7c0.5 0.9 0.1 2.9-0.6 3.5c-1.9 1.5-3.6 0.6-5.5-2zm19.3-57.9c-0.8 2.3-0.8 3.9-1.7 4.7c-1.6 1.3-3.8 1.1-4.7-0.9c-0.5-1.1-0.1-3.8 0.7-4.1c1.3-0.6 3.1 0.1 5.7 0.3zm92.6 79c2.5 0.7 4.1 1.1 5.7 1.5c-0.6 1.5-0.7 3.4-1.8 4.4c-1.5 1.4-3.4 0.6-4.2-1.1c-0.5-1.1 0.1-2.6 0.3-4.8zm-290.1 138.1c0.7 0.2 2.4 0.3 2.9 1.1c1.3 2.2 0.1 4.1-1.9 5.1c-0.8 0.5-3 0.2-3.5-0.5c-1.3-2.2 0.2-3.9 2.5-5.7zm69.3-188.1c1.5 0.8 3.3 1.3 4.3 2.5c0.6 0.6 0.3 2.9-0.4 3.5c-1.8 1.5-3.9 0.8-5-1.1c-0.5-1.1 0-2.7 0-4.1q0.5-0.4 1.1-0.8zm-356.7 160.1c0.8-2.5 1-4.3 1.9-5.4c1.3-1.5 3.1-0.9 4.2 0.7c1.1 1.7 0.9 3.6-1 4.5c-1.1 0.5-2.6 0.1-5.1 0.2zm220.3-44.8c-0.9 2.3-1 3.9-1.9 4.6c-1.6 1.4-3.8 1.1-4.6-0.7c-0.5-1.1 0-3.5 0.9-4c1.1-0.7 3-0.1 5.6 0.1zm203.9 103c2.2 0.6 3.3 1 4.5 1.3c-0.5 1.7-0.8 3.6-1.7 5.1c-0.3 0.4-2.4-0.2-3.6-0.4c0.2-1.7 0.5-3.5 0.8-6zm-566.4-68c1.4 0.5 3.4 0.7 4.2 1.7c0.6 0.9-0.2 2.8-0.4 4.2c-1.5-0.2-3.5-0.1-4.5-0.9c-0.8-0.7-0.4-2.8-0.5-4.2q0.6-0.4 1.2-0.8zm737.8-154.7c-0.7 2.2-0.8 3.9-1.6 4.7c-1.7 1.5-3.8 0.8-4.6-1.1c-0.5-1 0-3.5 0.8-4c1.1-0.6 3 0.2 5.4 0.4zm-42.3-96.8c2.3 1.1 4.3 1.3 4.7 2.3c0.5 1.1-0.1 3.7-0.9 3.9c-1.2 0.5-3.4 0-4.4-0.9c-0.6-0.6 0.3-2.7 0.6-5.3zm-248.7 205.7c1.4 0.7 3.4 1.1 4 2.2c0.5 0.9-0.5 2.7-0.9 4.1c-1.5-0.4-3.4-0.3-4.3-1.3c-0.7-0.8 0-2.7 0-4.2q0.6-0.4 1.2-0.8zm88.9 251.9c2 0.7 3.7 0.8 4.1 1.6c1.1 1.9 0.4 4.1-1.6 4.9c-1.1 0.5-2.6-0.3-4-0.5c0.4-1.7 0.9-3.5 1.5-6zm189-329.5c0.7-1.3 1.1-3.4 2.1-3.8c1.2-0.5 3.5 0.1 4.3 1c1.8 2-0.4 3.3-1.9 4.1c-1 0.5-2.4 0-3.7-0.1q-0.4-0.6-0.8-1.2zm-334.6 95.8c-0.5 1.2-0.7 2.6-1.6 3.3c-1.6 1.3-3.8 1.2-4.8-0.7c-0.5-0.9 0.1-3.4 0.8-3.7c1.4-0.5 3.3-0.1 4.9-0.1q0.4 0.6 0.7 1.2zm163.1-109.5c2.6 0.7 4.2 1.1 5.9 1.6c-0.4 1.3-0.3 3-1.2 3.7c-1.7 1.5-3.8 1.2-4.9-0.8c-0.5-0.9 0.1-2.3 0.2-4.5zm-217.8 66.4c2.4 0.9 4.5 1 5.1 2c0.5 1-0.1 3.3-1 4.2c-1.6 1.4-3.6 0.7-4.5-1.2c-0.5-1.1 0.2-2.6 0.4-5zm-299 165.8c2.4 1.1 4.4 1.4 4.9 2.4c0.6 1.1 0.1 3.5-0.9 4.2c-1.6 1.4-3.7 0.4-4.4-1.5c-0.5-1.1 0.1-2.6 0.4-5.1zm511.2-205.5c2.3 0.8 4.2 0.9 5.2 1.9c1.4 1.3 0.8 3.4-0.9 3.9c-1.4 0.4-3.4-0.1-4.6-0.9c-0.6-0.4 0.1-2.6 0.3-4.9zm-268.4 57.2c-0.7 2.1-0.7 3.7-1.5 4.3c-2 1.5-3.9 0.4-4.8-1.5c-0.4-0.9 0.3-3.4 0.7-3.5c1.5-0.2 3.1 0.3 5.6 0.7zm-70.8 187.2c-0.7 1.6-1.2 3.4-2.3 4.7c-0.3 0.4-2.8-0.2-3.4-1.1c-1.2-1.7-0.6-3.7 1.3-4.6c1-0.5 2.4-0.1 3.6-0.1q0.4 0.5 0.8 1.1zm538.8-199.5c-0.9 2.2-1.2 4-2.2 5c-0.5 0.4-2.9-0.3-3.6-1.1c-1.2-1.6-1.3-3.8 0.8-4.7c1.1-0.5 2.6 0.3 5 0.8zm-278.3-85.3c0.8-2.3 0.8-4.3 1.8-5c1.8-1.3 3.4 0.2 4.5 1.8c0.9 1.4 1.4 3.1-0.5 3.7c-1.4 0.5-3.2-0.2-5.8-0.5zm-87.9 292.8c-1 2.6-1.2 4.5-2.3 5.6c-0.5 0.5-2.5-0.4-3.8-0.6c0.4-1.6 0.4-3.5 1.3-4.8c0.4-0.6 2.4-0.2 4.8-0.2zm332.9-447.5c-1.2 2.4-1.5 4.3-2.5 4.8c-1.1 0.5-2.8-0.5-4.2-0.8c0.4-1.5 0.4-3.5 1.3-4.4c0.7-0.6 2.8 0.1 5.4 0.4zm-7.5 265.3c0.8-1.6 1.3-3.4 2.4-4.7c0.5-0.4 2.9 0 3.4 0.7c1.3 1.8 0.5 3.9-1.4 4.9c-0.9 0.6-2.4 0.1-3.6 0.1q-0.4-0.5-0.8-1zm-119.1-88.6c-0.6 1.2-0.9 2.8-1.9 3.6c-1.5 1.2-3.5 0.8-4.3-1c-0.5-1 0-3.4 0.7-3.7c1.4-0.5 3.2-0.1 4.9 0q0.3 0.6 0.6 1.1zm34.2-22.9c-1 2.3-1.2 4.3-2.2 4.7c-1.1 0.5-3.2 0-4.1-0.8c-1.5-1.5-0.9-3.5 0.9-4.3c1.1-0.5 2.8 0.1 5.4 0.4zm94.3 224.2c-0.7 2.3-0.8 4.1-1.8 5.1c-0.5 0.5-3.5-0.2-3.6-0.7c-0.3-1.6 0.2-3.4 0.5-5.1c1.3 0.2 2.6 0.4 4.9 0.7zm1.7-290.2c2.3 0.9 4.3 1.2 4.9 2.2c0.5 0.8-0.4 3.7-1.1 3.8c-1.4 0.3-3.3-0.3-4.5-1.2c-0.5-0.4 0.3-2.5 0.7-4.8zm-739.7 212.1c-0.8 2.6-0.9 4.8-1.7 5.1c-1.3 0.5-3.5 0-4.4-0.9c-0.6-0.6-0.3-3.4 0.5-4c1-0.7 2.9-0.2 5.6-0.2zm560.8 67.4c2.2 0.8 3.4 1.2 4.5 1.6c-0.6 1.7-1 3.5-2 5c-0.2 0.4-3.1-0.2-3.1-0.5c-0.1-1.7 0.3-3.5 0.6-6.1zm-366.3-52.4c1.3 0.7 3.2 1.1 3.7 2.2c0.5 1-0.4 2.8-0.6 4.2c-1.4-0.4-3.4-0.5-4-1.4c-0.8-1-0.2-2.8-0.2-4.3q0.5-0.3 1.1-0.7zm174.5-105.9c-0.8 2.2-1 4.2-1.9 4.7c-1 0.5-3.6 0-3.9-0.8c-0.6-1.2-0.2-3.3 0.6-4.4c0.5-0.6 2.7 0.2 5.2 0.5zm169.4-106.1c-0.7 1.2-1 3-2 3.5c-0.9 0.5-3.1 0-3.7-0.8c-1.2-1.4-1.4-3.6 0.7-4.4c1.2-0.5 2.8 0.2 4.2 0.4q0.4 0.6 0.8 1.3zm-168.6 77.3c2.4 0.8 4.6 1 4.7 1.7c0.3 1.4-0.1 3.2-1 4.4c-0.3 0.5-3.2 0.1-3.6-0.6c-0.7-1.1-0.2-2.9-0.1-5.5zm337.1 336c-0.8 2.3-1 4-2 5.2c-0.3 0.4-2.7 0-3.3-0.7c-1.4-1.7-1.3-3.9 0.7-5.1c0.8-0.5 2.3 0.2 4.6 0.6zm-8.1-118.2c2.2 0.6 3.8 0.6 4.3 1.3c1.2 1.8 1 3.9-1 5.1c-0.9 0.4-3.5-0.1-3.6-0.4c-0.2-1.7 0.1-3.4 0.3-6zm-36.2-355.9c1.4 0.7 3.2 1.2 4.2 2.4c0.5 0.5-0.3 2.3-0.4 3.5c-1.6-0.4-3.4-0.4-4.5-1.2c-0.7-0.6-0.4-2.5-0.5-3.8q0.6-0.5 1.2-0.9zm-472.3 184.9c-0.6 2.1-0.7 4.2-1.5 4.5c-1.1 0.5-3.9-0.2-4-0.7c-0.3-1.5 0.4-3.2 0.7-4.9c1.3 0.3 2.6 0.6 4.8 1.1zm518.2-232.5c-1.1 2.2-1.4 3.7-2.4 4.4c-1.6 1.2-3.6 0.7-4.2-1.2c-0.4-1.1 0.2-3.4 1.1-3.8c1.1-0.6 2.9 0.2 5.5 0.6zm-178.9 511.2c2.1 0.7 4.3 1.3 4.3 1.5c-0.3 1.7-0.8 3.5-1.7 5c-0.1 0.3-3.1-0.4-3.2-0.9c-0.2-1.5 0.3-3.1 0.6-5.6zm-19.9 111.2c-0.7 2.4-0.9 4.2-1.8 5.5c-0.4 0.4-2.5-0.5-3.8-0.8c0.4-1.7 0.6-3.5 1.3-4.9c0.2-0.4 2.2 0.1 4.3 0.2zm-115-287.1c2.2 0.9 4.3 1.4 4.3 1.9c0 1.6-0.6 3.3-1.4 4.8c-0.1 0.3-3.2-0.3-3.3-0.9c-0.3-1.5 0.1-3.2 0.4-5.8zm-388.6-85.2c2.6 0.8 4.3 1 5.7 1.9c0.4 0.3-0.4 2.3-0.7 3.6c-1.6-0.4-3.4-0.5-4.8-1.2c-0.5-0.2-0.2-2.1-0.2-4.3zm379.3-3.3c2.2 0.9 4.4 1.1 4.5 1.8c0.3 1.4-0.5 3.1-0.8 4.6c-1.4-0.4-3.4-0.3-4.1-1.2c-0.6-0.9 0.1-2.7 0.4-5.2zm-298.6 165.5c2.3 0.8 4.5 1.1 4.6 1.7c0.2 1.4-0.6 3-0.9 4.5c-1.4-0.3-3.4-0.2-4.1-1.1c-0.6-0.9 0.2-2.7 0.4-5.1zm454.4 72.3c-1 2.4-1.4 4.1-2.5 5.3c-0.3 0.4-3.3-0.6-3.3-1c0-1.6 0.4-3.4 1.2-4.8c0.3-0.4 2.3 0.2 4.6 0.5zm136.9-376.3c2.3 1.1 4.3 1.6 4.4 2.3c0.2 1.4-0.5 3.2-1.3 4.3c-0.4 0.4-3.3-0.3-3.6-1c-0.4-1.3 0.2-3 0.5-5.6zm-459.8 129.9c-0.8 2.3-1.1 4.4-1.7 4.6c-1.4 0.3-3.1-0.4-4.6-0.7c0.4-1.4 0.3-3.3 1.2-4.2c0.7-0.6 2.6 0.1 5.1 0.3zm-79.9 98.9c-0.9 2.2-1.3 4.3-1.9 4.4c-1.4 0.2-3-0.6-4.5-1c0.4-1.4 0.4-3.4 1.4-4.1c0.8-0.6 2.6 0.3 5 0.7zm434.9-280.7c2.3 0.9 4 1.3 5.3 2.2c0.3 0.3-0.6 3.2-1 3.3c-1.7 0-3.4-0.4-4.9-1.1c-0.3-0.1 0.3-2.2 0.6-4.4zm-7 56.6c-1 2.4-1.4 4.2-2.5 5c-0.6 0.5-2.9-0.1-3.6-0.9c-1.4-1.6-0.8-3.6 1-4.4c1-0.5 2.6 0.1 5.1 0.3zm55 12.2c-0.7 2.3-0.8 4-1.6 4.7c-1.5 1.4-3.6 0.9-4.3-0.9c-0.5-1 0-3.2 0.8-3.8c0.9-0.7 2.7-0.1 5.1 0zm-545.1 202.5c0.7-1.1 1.1-3 2-3.2c1.2-0.4 2.8 0.5 4.2 0.8c-0.4 1.3-0.3 3.4-1.1 3.8c-1.2 0.6-3 0-4.5-0.2q-0.3-0.6-0.6-1.2zm328.8-12.6c-2.4-1-4.4-1.3-4.8-2.3c-0.5-1 0.2-3.3 1.1-3.8c1-0.5 3.3 0 4.1 0.9c0.6 0.7-0.2 2.6-0.4 5.2zm41.9-83.6c1.3 0.6 3.1 0.8 3.7 1.8c0.5 0.9 0 3.5-0.6 3.7c-1.2 0.5-3.4 0.3-4.2-0.5c-0.7-0.8-0.1-2.8 0-4.2q0.5-0.4 1.1-0.8zm-219.8 96.5c-0.8 2.2-1 4.1-1.9 4.8c-0.8 0.5-3.5-0.2-3.7-0.9c-0.4-1.3 0-3.2 0.7-4.5c0.3-0.4 2.5 0.3 4.9 0.6zm498.3 86.7c0.8-1.5 1.4-3.2 2.6-4.5c0.4-0.4 2.1 0.4 3.2 0.7c-0.4 1.6-0.6 3.4-1.5 4.7c-0.5 0.6-2.3 0.2-3.5 0.3q-0.4-0.6-0.8-1.2zm-632.9-30c2.4 0.8 4.6 1 4.9 1.9c0.4 1.1-0.3 3.3-1.2 4c-0.9 0.6-3.2 0.1-4-0.8c-0.6-0.7 0.1-2.6 0.3-5.1zm311.4-220.8c2.1 0.7 3.7 1 4.9 1.9c0.3 0.2-0.5 3.2-1 3.3c-1.6 0.2-3.3-0.4-4.9-0.7c0.3-1.2 0.5-2.4 1-4.5zm291.8-107.8c-0.5 1.2-0.9 3.4-1.5 3.4c-1.4 0.2-3.2-0.3-4.4-1.2c-0.4-0.2 0-3.1 0.7-3.4c1.3-0.5 3-0.1 4.5 0q0.3 0.6 0.7 1.2zm-646.2 260.6c2.4 1 4.1 1.4 5.3 2.5c0.4 0.3-0.3 2.8-1.1 3.4c-1.6 1.2-3.7 0.7-4.6-1.2c-0.4-1 0.2-2.4 0.4-4.7zm624.9-324.9c2.2 1.2 4 1.7 4.6 2.7c0.5 0.9-0.4 2.6-0.8 3.9c-1.4-0.5-3.2-0.5-4-1.5c-0.7-0.7 0-2.6 0.2-5.1zm-252 350.5c2.2 0.7 4.3 1.1 4.3 1.4c-0.1 1.6-0.4 3.4-1.3 4.7c-0.3 0.5-3.3 0-3.3-0.3c-0.2-1.6 0.1-3.3 0.3-5.8zm-174.5-4.9c0.7-1.4 1-3.1 2.1-4c0.5-0.5 3.2 0.2 3.3 0.8c0.4 1.3 0.1 3.2-0.7 4.2c-0.6 0.6-2.5 0.1-3.9 0.1q-0.4-0.5-0.8-1.1zm-137.4-5.6c-0.6 1.3-0.9 3.3-1.8 3.6c-1.1 0.5-3.2-0.2-3.9-1.1c-0.5-0.6 0-3.1 0.9-3.7c0.9-0.6 2.7 0 4.1 0q0.3 0.6 0.7 1.2zm-6.3 27.1c-1 2.3-1.3 4.3-2.1 4.5c-1.2 0.3-3.2-0.2-4-1.1c-0.5-0.6 0-3.1 0.9-3.7c0.9-0.6 2.7 0.1 5.2 0.3zm654.1-88c1.8 0.9 3.3 1.1 3.8 1.9c1.3 1.8 0.4 3.7-1.4 4.5c-0.9 0.4-2.4-0.4-3.6-0.6c0.3-1.7 0.7-3.3 1.2-5.8zm14.8-198.2c2.2 0.7 3.7 1.1 5.1 1.5c-0.5 1.3-0.5 3.4-1.4 3.9c-0.9 0.6-3-0.1-4-1c-0.5-0.4 0.1-2.3 0.3-4.4zm-425.5 84.1c0.9-2.4 1.1-4.3 2-4.7c1-0.5 3.2-0.1 3.8 0.8c0.6 0.7 0.3 3.1-0.5 3.7c-0.9 0.7-2.8 0.2-5.3 0.2zm178.2-18.2c1.2-2.1 1.7-3.8 2.7-4.4c0.7-0.5 3.2 0.4 3.3 1c0.2 1.4-0.1 3.3-1 4.1c-0.6 0.6-2.5-0.3-5-0.7zm37 94.7c0.6-1.4 0.9-3.1 2-4c0.6-0.5 2.3 0.3 3.6 0.6c-0.4 1.5-0.4 3.3-1.3 4.5c-0.4 0.5-2.3 0-3.5 0q-0.4-0.5-0.8-1.1zm-425.7 79.8c0.7-1.5 1.2-3.1 2.2-4.3c0.4-0.5 2.6 0 3.2 0.7c1.4 1.6 0.8 3.4-1 4.3c-1 0.5-2.3 0.4-3.5 0.5q-0.5-0.6-0.9-1.2zm602.3-68.1c-1.1-0.4-3.2-0.7-3.3-1.3c-0.2-1.4 0.3-3.1 1-4.5c0.1-0.3 2.9 0 3.1 0.6c0.6 1.3 0.3 3 0.4 4.5q-0.6 0.3-1.2 0.7zm-322-15.2c0.6-1.3 1-3.1 2-3.7c0.8-0.5 3.2 0.2 3.6 1c0.4 0.9-0.2 3-1.1 3.7c-0.7 0.6-2.5 0.1-3.8 0q-0.4-0.5-0.7-1zm-25.4-10.2c1.1 0.6 3 0.9 3.3 1.8c0.4 1.2-0.5 2.8-0.8 4.2c-1.3-0.4-3.2-0.4-3.7-1.2c-0.6-1.1 0-2.8 0-4.2q0.6-0.3 1.2-0.6zm407.4-135.6c0.7-2.1 1-4.2 1.5-4.3c1.5-0.1 3.1 0.5 4.7 0.8c-0.3 1.3-0.3 3.3-1.1 3.8c-1 0.6-2.8-0.1-5.1-0.3zm-464.2 122.9c2.3 1 3.8 1.2 4.6 2.1c1.3 1.4 1 3.3-0.8 4c-1.1 0.4-3.3 0-3.8-0.8c-0.7-1-0.1-2.8 0-5.3zm406.6-227.9c-0.5 1.2-0.8 3-1.7 3.4c-1.1 0.4-2.6-0.4-4-0.7c0.4-1.3 0.4-3.1 1.2-3.8c0.8-0.6 2.5 0 3.8 0q0.4 0.5 0.7 1.1zm-12.3 54.5c-0.9 2.1-1.2 3.7-2.1 4.8c-0.3 0.4-2.6-0.1-3.1-0.8c-1.5-1.9-0.4-3.8 1.3-4.9c0.6-0.4 2 0.4 3.9 0.9zm-341.9 97.8c-0.6 2.1-0.9 4.2-1.3 4.2c-1.5 0-3.2-0.3-4.6-1.1c-0.3-0.2 0.2-3.1 0.8-3.4c1.2-0.5 2.8 0.1 5.1 0.3zm-346.9 97.1c2.1 0.7 4 0.8 4.6 1.7c0.5 0.8-0.3 3.4-1 3.7c-1.2 0.4-3-0.1-4.2-0.9c-0.4-0.2 0.3-2.3 0.6-4.5zm243.5 83.1c2.1 0.9 4.3 1.3 4.3 1.7c-0.1 1.6-0.6 3.2-1.5 4.5c-0.2 0.4-3-0.2-3.1-0.6c-0.3-1.5 0.1-3.1 0.3-5.6zm306.5-71.2c0.7-1.6 1.1-3.3 2.1-4.5c0.4-0.5 2.2 0.2 3.3 0.3c-0.5 1.7-0.8 3.4-1.6 4.9c-0.3 0.5-1.9 0.2-3 0.2q-0.4-0.4-0.8-0.9zm194.5-194.1c-1 2.1-1.3 3.9-2.3 4.3c-0.9 0.5-3.1-0.1-3.6-0.9c-0.5-0.9 0.1-3.1 0.9-3.6c0.9-0.6 2.6 0 5 0.2zm-641.2 240.2c1.1-2.2 1.4-4 2.3-4.4c1-0.4 2.6 0.4 3.9 0.7c-0.4 1.4-0.4 3.2-1.3 4c-0.6 0.6-2.5-0.1-4.9-0.3zm474.3-40.3c0.8-1.4 1.3-3.1 2.3-4.3c0.5-0.5 2.8-0.2 3.2 0.4c1.1 2 0.2 3.9-1.6 5c-0.8 0.4-2 0-3 0q-0.4-0.5-0.9-1.1zm-136.7-35.7c1.9 0.7 3.9 1.2 3.8 1.5c-0.1 1.6-0.6 3.2-1.4 4.6c-0.2 0.3-3-0.3-3-0.6c-0.2-1.5 0.2-3.1 0.6-5.5zm106.5-92.8c2.1 1 4 1.2 4.4 2.1c0.5 0.9-0.2 3.1-1.1 3.6c-0.7 0.5-3 0-3.6-0.8c-0.6-0.8 0.1-2.6 0.3-4.9zm122.2 259.8c-0.9 2.4-1.2 4-2 5.1c-0.4 0.4-2.6 0-3.2-0.7c-1.4-1.5-1-3.4 0.7-4.4c0.8-0.5 2.2-0.1 4.5 0zm-639.6-26.3c2.1 1.1 3.9 1.4 4.1 2.2c0.4 1.2-0.4 2.7-0.6 4.1c-1.3-0.3-3.2-0.2-3.6-1c-0.6-1.1-0.1-2.8 0.1-5.3zm375.3-90.2c-0.9 2.1-1.1 4-2 4.4c-1 0.4-2.5-0.6-3.8-1c0.4-1.3 0.4-3 1.3-3.8c0.6-0.6 2.3 0.1 4.5 0.4zm-433.2-38.7c2.4 0.8 4 1 5.2 1.8c0.4 0.3-0.3 3.2-0.7 3.2c-1.5 0.1-3.2-0.2-4.6-0.8c-0.4-0.1 0-2 0.1-4.2zm569.5-76.5c2.2 1 4 1.3 4.2 2c0.3 1.3-0.4 2.8-0.7 4.2c-1.3-0.3-3.3-0.2-3.6-0.9c-0.6-1.1 0-2.8 0.1-5.3zm-27.3-6.3c2.1 0.9 3.9 1.3 4 1.9c0.1 1.4-0.5 3-0.9 4.5c-1.1-0.2-3.1-0.3-3.2-0.8c-0.4-1.4 0-3 0.1-5.6zm-491.9 245c1-2 1.3-3.7 2.3-4.3c0.8-0.5 2.3 0.4 3.5 0.6c-0.3 1.4-0.4 3.2-1.2 4.2c-0.5 0.5-2.4-0.2-4.6-0.5zm12 233.9c-1.7-2.1-3.3-4.1-4.8-6.1q0.3-0.6 0.7-1.2c1.6 0.6 3.5 0.8 4.7 1.9c1.5 1.4 1.4 3.5-0.6 5.4zm353.6-304.2c2.2 1.1 4.1 1.5 4.2 2.2c0.3 1.3-0.6 2.8-1 4.2c-1.1-0.3-2.9-0.3-3.2-1c-0.5-1.2 0-2.8 0-5.4zm81.7-213.3c-0.8 2.3-1 4.2-1.8 4.5c-1 0.5-3-0.1-3.8-0.9c-0.5-0.5-0.1-3 0.7-3.5c0.9-0.6 2.5-0.1 4.9-0.1zm-348.1 126c-0.4 1.9-0.4 3.9-1.1 4.1c-1.1 0.4-3.5 0.1-3.7-0.6c-0.5-1.2 0.2-2.8 0.5-4.3c1.2 0.2 2.4 0.4 4.3 0.8zm64.7 78.2c0.9-2.1 1.1-3.8 2-4.5c0.7-0.4 3.1 0.2 3.3 0.8c0.4 1.1 0.1 3-0.6 3.8c-0.5 0.6-2.4 0-4.7-0.1zm-331.8-79.5c2.4 1.1 4.1 1.5 5.3 2.5c0.4 0.4-0.4 2.1-0.6 3.3c-1.5-0.4-3.2-0.6-4.5-1.4c-0.5-0.3-0.2-2.1-0.2-4.4zm715-73.4c2 1 3.8 1.3 4 2.1c0.4 1.1-0.4 2.5-0.7 3.8c-1.3-0.3-3.1-0.2-3.7-1.1c-0.6-0.8 0.1-2.5 0.4-4.8zm-250.8-27c-0.4 2-0.6 3.2-0.9 4.4c-1.4-0.3-3.2-0.3-4.1-1.1c-0.5-0.7-0.2-3 0.6-3.8c0.5-0.5 2.4 0.2 4.4 0.5zm246.4-85.1c0.5-1 0.8-2.7 1.5-2.8c1.4-0.4 2.9 0.1 4.4 0.3c-0.3 1.2-0.3 3.1-1 3.5c-1.2 0.6-2.8 0.1-4.3 0.1q-0.3-0.6-0.6-1.1zm154.1 92.2c0.8-1.4 1.4-3 2.4-4.1c0.4-0.4 1.9 0.3 3 0.5c-0.4 1.6-0.6 3.3-1.4 4.5c-0.3 0.5-2.1 0.1-3.3 0.1q-0.3-0.5-0.7-1zm-66-222.4c1.3 0.8 2.9 1.3 3.9 2.4c0.4 0.4-0.3 2-0.5 3c-1.4-0.4-3-0.5-4.1-1.3c-0.6-0.5-0.3-2.1-0.4-3.3q0.5-0.4 1.1-0.8zm-89.4 8.6c2.2 0.8 3.8 1.1 4.8 1.9c0.5 0.4-0.3 3.1-0.6 3.1c-1.5 0.1-3.2-0.2-4.6-0.8c-0.3-0.1 0.2-2.1 0.4-4.2zm-542.6 344c2.3 1.2 3.8 1.6 4.7 2.6c0.4 0.5-0.5 2.2-0.8 3.3c-1.4-0.5-3.1-0.6-4.2-1.5c-0.5-0.3 0.1-2.1 0.3-4.4zm267.8-27.8c2.2 0.9 3.8 1.1 4.4 2c0.5 0.9-0.2 2.4-0.3 3.7c-1.5-0.3-3.1-0.3-4.2-1.1c-0.5-0.4 0-2.3 0.1-4.6zm58.7 510.7c0-2.9 1.1-4.7 3.4-4.9c1.3-0.1 2.8 1 4.2 1.6q-0.1 0.7-0.2 1.5c-2.4 0.6-4.7 1.1-7.4 1.8zm179.6-399.6c1 0.5 2.6 0.8 2.8 1.6c0.4 1.2-0.2 2.7-0.3 4c-1.3-0.2-3.3 0-3.6-0.6c-0.5-1.2-0.1-2.9 0-4.3q0.5-0.4 1.1-0.7zm-602.9-17.8c-0.6 2.2-0.6 4.2-1.4 4.6c-0.9 0.4-2.6-0.5-3.9-0.9c0.4-1.3 0.4-2.9 1.2-3.9c0.4-0.5 2.1 0.1 4.1 0.2zm500-178.9c2.2 1.2 3.8 1.7 4.6 2.7c0.5 0.5-0.4 2.1-0.7 3.3c-1.4-0.5-3.1-0.7-4.1-1.6c-0.5-0.4 0-2.1 0.2-4.4zm101.8-64.6c2.1 0.7 4 0.9 4.1 1.5c0.3 1.3-0.1 3-0.7 4.2c-0.2 0.4-2.9 0.1-3.2-0.4c-0.5-1.2-0.2-2.8-0.2-5.3zm-148.8 169.9c-0.7 2.2-0.7 4.1-1.6 4.6c-0.8 0.5-2.5-0.4-3.8-0.6c0.3-1.4 0.2-3 1-3.9c0.5-0.6 2.2-0.1 4.4-0.1zm-451.4 44.4c2.1 0.9 3.7 1.2 4.2 2c0.4 0.9-0.3 2.5-0.4 3.7c-1.4-0.3-3.1-0.3-3.9-1.1c-0.6-0.6 0-2.3 0.1-4.6zm820.8-159.5c0.9-2.3 1.2-3.9 2.1-5c0.4-0.4 2.1 0.2 3.2 0.4c-0.2 1.4-0.1 3-0.9 4.1c-0.4 0.6-2.2 0.3-4.4 0.5zm-186.3-76.1c2.1 0.7 3.6 0.8 4.5 1.7c0.5 0.4-0.2 3-0.6 3c-1.4 0.2-3-0.1-4.3-0.7c-0.3-0.1 0.2-2.1 0.4-4zm32.1-16c0.9-1.9 1.2-3.7 1.9-3.8c1.2-0.2 2.7 0.4 4 0.7c-0.3 1.2-0.2 3-1 3.4c-0.9 0.5-2.5-0.1-4.9-0.3zm-291.3 138.3c0.6-1.4 0.8-3 1.7-4c0.4-0.5 2.1 0.2 3.3 0.4c-0.4 1.3-0.5 2.8-1.2 3.9c-0.4 0.6-1.9 0.4-2.9 0.6q-0.4-0.5-0.9-0.9zm253.2-95.2c2 0.9 3.8 1.2 4 2c0.4 1-0.2 2.9-1 3.5c-0.8 0.5-3.1 0-3.4-0.6c-0.5-1.1 0.1-2.6 0.4-4.9zm-443.1 162.6c2 0.8 3.9 0.9 4.1 1.6c0.4 1.1-0.3 2.6-0.6 3.9c-1.2-0.3-2.9-0.2-3.5-1c-0.6-0.7-0.1-2.3 0-4.5zm405.4-228.4c-0.9 2.2-1.4 4-1.7 4c-1.5-0.1-3-0.6-4.2-1.3c-0.3-0.2 0.1-2.7 0.6-2.9c1.3-0.3 2.8 0.1 5.3 0.2zm-324.5 251.5c0.5-1.1 0.8-2.7 1.7-3.1c0.9-0.5 2.4 0.1 3.7 0.2c-0.4 1.3-0.4 3-1.2 3.8c-0.6 0.6-2.3 0.2-3.5 0.2q-0.4-0.5-0.7-1.1zm351.8-245.5c-0.9 2.2-1.1 3.9-2 4.3c-0.9 0.5-2.5-0.2-3.8-0.4c0.3-1.2 0.3-2.9 1.1-3.6c0.7-0.6 2.3-0.2 4.7-0.3zm-34.9 544.7c-2.1 0.8-4.1 1.7-6.3 2.6c-0.8-2.5-0.5-4.6 1.7-5.1c1.5-0.3 3.3 0.7 5 1.1q-0.2 0.7-0.4 1.4zm-32.2-526c0.5-2.1 0.9-3.3 1.2-4.4c1.2 0.3 3 0.3 3.6 1.1c0.6 0.8 0 2.4-0.1 3.7c-1.3-0.1-2.6-0.2-4.7-0.4zm184.4-21.6c-0.8 2-0.9 3.7-1.8 4.3c-0.7 0.4-3.3-0.5-3.3-1c-0.2-1.3 0.4-2.9 1.1-4c0.3-0.4 2.1 0.3 4 0.7zm-470.6 127.9c2.1 0.8 4 0.9 4.3 1.7c0.4 1-0.4 2.5-0.8 3.8c-1.2-0.3-2.9-0.2-3.5-1c-0.6-0.7-0.1-2.4 0-4.5zm297.4-137.2c-0.5 1.9-0.7 3-1 4.1c-1.4-0.4-3.1-0.5-4.1-1.3c-0.5-0.4 0.1-2.2 0.2-3.4c1.4 0.2 2.8 0.3 4.9 0.6zm-262.2 237.6c0.8-2 1.1-4 1.8-4.1c1.1-0.3 2.8 0.3 3.7 1.1c0.4 0.4 0 2.8-0.6 3.1c-1.1 0.5-2.6 0-4.9-0.1zm316-342.5c-0.5 1.9-0.8 2.9-1.1 3.9c-1.5-0.5-3.1-0.8-4.5-1.5c-0.3-0.2 0.2-2.7 0.6-2.8c1.4-0.2 2.9 0.2 5 0.4zm-144.7 230.4c1.3 0.6 2.8 0.9 3.9 1.7c0.4 0.4-0.2 2.9-0.4 2.9c-1.5 0.1-3.1 0-4.3-0.6c-0.5-0.3-0.2-2.1-0.2-3.2q0.5-0.4 1-0.8zm277-195.9c0.5-1.8 0.8-2.8 1.1-3.9c1.3 0.4 2.9 0.5 3.7 1.4c0.5 0.7-0.1 2.3-0.2 3.6c-1.3-0.3-2.6-0.6-4.6-1.1zm-58.8 132.4c0.4-1.9 0.7-3.1 0.9-4.3c1.3 0.4 3 0.4 3.7 1.3c0.6 0.6-0.1 2.4-0.3 3.6c-1.2-0.2-2.4-0.3-4.3-0.6zm-437.1 129.9c2.3 0.7 4 0.7 4.7 1.6c0.5 0.6-0.3 2.4-0.6 3.6c-1.3-0.3-2.9-0.3-3.9-1.1c-0.6-0.4-0.1-2-0.2-4.1zm501-289.3c1-1.9 1.3-3.7 2-3.8c1.1-0.2 2.7 0.3 3.6 1.1c0.4 0.4-0.1 2.9-0.6 3c-1.2 0.4-2.7-0.1-5-0.3zm-317.3 272.2c-0.9 2.2-1.1 3.8-2 4.6c-0.5 0.5-2.2-0.3-3.3-0.6c0.3-1.3 0.3-2.9 1-3.9c0.4-0.5 2.1-0.1 4.3-0.1zm-374.9 90.8c1.8 0.8 3.6 1.1 3.6 1.5c0.1 1.4-0.5 2.9-0.8 4.3c-1.1-0.3-2.8-0.3-3-1c-0.5-1.1 0-2.6 0.2-4.8zm517.1-204.4c-1 2.3-1.3 3.8-2.3 4.5c-0.6 0.5-2.2-0.4-3.3-0.7c0.4-1.3 0.5-2.9 1.3-3.9c0.4-0.5 2.1 0 4.3 0.1zm-45.3 47.9c1.9 0.9 3.5 1.2 3.7 2c0.3 1.1-0.4 2.5-0.6 3.8c-1.2-0.4-2.9-0.4-3.5-1.3c-0.5-0.7 0.2-2.3 0.4-4.5zm209.8-156.8c1.8 0.9 3.3 1.2 3.4 1.8c0.3 1.2-0.2 2.6-0.4 3.9c-1.2-0.2-3.1-0.2-3.4-0.9c-0.5-1 0.1-2.5 0.4-4.8zm-448.8 312.2c1.2-2.1 1.5-3.7 2.4-4c0.9-0.4 2.3 0.4 3.5 0.7c-0.3 1.1-0.4 2.8-1.2 3.4c-0.8 0.5-2.3 0-4.7-0.1zm412.3-255.9c-2.1-1-4-1.3-4.2-2.1c-0.3-1.1 0.6-2.5 1-3.8c1.1 0.4 2.7 0.5 3.1 1.2c0.6 0.9 0.1 2.4 0.1 4.7zm-110.4-53.7c1-2.1 1.2-3.6 2.1-4.1c0.8-0.5 2.9 0 3.2 0.6c0.4 1.1 0.2 3-0.5 3.6c-0.7 0.6-2.4 0-4.8-0.1zm-625.2 348.6c-0.7 2-0.9 3.6-1.7 4.5c-0.4 0.5-2.1-0.3-3.2-0.5c0.3-1.4 0.3-2.9 1-4.1c0.3-0.4 2 0 3.9 0.1zm0.7-23.9c0.8-2 0.9-3.7 1.6-4c1.1-0.3 2.8-0.1 3.7 0.6c0.5 0.5 0.2 3-0.4 3.3c-1 0.5-2.6 0.1-4.9 0.1zm370-97.2c1.9 0.9 3.7 1.2 3.8 1.8c0.3 1.1-0.2 2.8-1 3.5c-0.5 0.5-3 0.1-3.1-0.4c-0.4-1.2 0.1-2.6 0.3-4.9zm-116.5 3.3c2 0.9 3.5 1.2 4 2c0.5 0.8-0.2 2.2-0.4 3.4c-1.3-0.4-2.9-0.4-3.8-1.2c-0.5-0.3 0-2.1 0.2-4.2zm-186.8 75.4c-0.6 1.3-1.1 2.7-2 3.8c-0.4 0.4-1.8-0.2-2.7-0.3c0.3-1.4 0.3-3 1-4.2c0.3-0.5 1.9-0.2 2.9-0.3q0.4 0.5 0.8 1zm609.1-271.6c1.8 1 3.4 1.3 3.5 1.9c0.1 1.2-0.5 2.6-0.8 3.9c-1.1-0.3-2.8-0.3-3-0.9c-0.4-1.1 0.1-2.6 0.3-4.9zm-201 13.7c-0.5 0.9-1 2.3-1.7 2.4c-1.3 0.2-2.8-0.3-4.1-0.5c0.3-1 0.4-2.7 0.9-2.9c1.4-0.4 2.9-0.1 4.4-0.1q0.3 0.5 0.5 1.1zm354.7 78.6c2 1 3.6 1.4 3.7 1.9c0 1.3-0.4 2.8-1 4.1c-0.1 0.2-2.7-0.2-2.8-0.7c-0.3-1.3 0-2.8 0.1-5.3zm-679.5 196.9c-0.6 2.1-0.6 3.6-1.4 4.4c-0.5 0.4-2.9 0-3.1-0.6c-0.5-1-0.3-2.7 0.4-3.5c0.4-0.6 2.1-0.2 4.1-0.3zm326.9-158.8c-0.8 2-1 3.7-1.7 3.9c-1.1 0.4-2.5-0.3-3.7-0.5c0.2-1.1 0.1-2.8 0.8-3.2c0.9-0.6 2.4-0.2 4.6-0.2zm226.3-123.9c1.9 0.8 3.6 1 3.8 1.7c0.4 1.1-0.3 2.5-0.5 3.7c-1.2-0.3-3-0.2-3.5-0.9c-0.5-0.8 0.1-2.4 0.2-4.5zm-188.5 195.1c0.6-1.4 0.9-2.9 1.8-3.9c0.3-0.4 2 0.3 3 0.5c-0.3 1.4-0.4 2.9-1.1 4c-0.3 0.5-1.9 0.3-2.9 0.3q-0.4-0.4-0.8-0.9zm-212.6 35.2c1.9 0.6 3.6 0.7 4 1.4c0.4 1-0.3 2.4-0.5 3.7c-1.2-0.3-2.8-0.2-3.5-0.9c-0.6-0.6-0.1-2.2 0-4.2zm362.9-36c-0.9 2.2-1.1 3.6-2 4.5c-0.3 0.4-2.6-0.2-2.7-0.6c-0.3-1.2-0.2-2.8 0.4-3.9c0.3-0.4 2.1 0 4.3 0zm-323.5 15.1c-0.6 2.1-0.7 3.7-1.5 4.3c-0.7 0.4-3-0.1-3.2-0.7c-0.4-1-0.1-2.7 0.6-3.6c0.4-0.5 2.1 0 4.1 0zm-75.7-73.5c2.1 0.6 3.7 0.7 4.4 1.4c0.5 0.5 0.1 2.9-0.5 3.1c-1 0.5-2.7 0.3-3.6-0.4c-0.5-0.4-0.2-2.1-0.3-4.1zm-93 152.1c1.9 0.6 3.7 0.9 3.7 1.3c0.2 1.3-0.1 2.8-0.7 3.8c-0.3 0.4-2.9 0.2-3-0.2c-0.3-1.3 0-2.7 0-4.9zm638.3-380.2c1.8 0.6 3.6 0.9 3.7 1.4c0.1 1.2-0.2 2.9-1 3.7c-0.5 0.5-2.8 0-3.3-0.7c-0.5-0.7 0.2-2.4 0.6-4.4zm-43.4-67.7c1.9 0.9 3.5 1.1 3.9 1.9c0.4 0.9-0.3 2.3-0.5 3.5c-1.2-0.4-2.8-0.4-3.6-1.2c-0.6-0.5 0.1-2.2 0.2-4.2zm-415.2 429.2c2 0.9 3.8 1.2 3.9 1.9c0.3 1.2-0.4 2.6-0.7 4c-1.1-0.4-2.7-0.5-3.2-1.3c-0.5-0.9-0.1-2.3 0-4.6zm-236.3 11.3c1-1.9 1.3-3.4 2.2-4c0.6-0.3 2.9 0.4 3 1c0.2 1.1-0.2 2.7-1 3.5c-0.5 0.5-2.1-0.2-4.2-0.5zm581.7-514.4c2 0.8 3.4 1.2 4.3 2c0.4 0.3-0.4 2.7-0.8 2.7c-1.3 0.1-2.8-0.2-3.9-0.9c-0.4-0.2 0.1-1.9 0.4-3.8zm-304.2 339.7c-0.6 1.7-0.9 3.4-1.3 3.5c-1.2 0.1-2.8-0.2-3.6-0.9c-0.5-0.5 0.3-2.2 0.4-3.3c1.3 0.1 2.5 0.3 4.5 0.7zm319.3-17.1c1.5 0.5 3.1 0.8 3.1 1.1c0 1.5-0.5 2.9-0.7 4.3c-1.1-0.2-3-0.3-3-0.7c-0.2-1.3 0.3-2.7 0.6-4.7zm-65.8-96.1c0.8-2 1.1-3.4 1.9-4.4c0.3-0.3 2.5 0.2 2.5 0.4c0.1 1.4 0.1 2.8-0.5 4c-0.1 0.4-2 0.1-3.9 0zm-332.3 181.9c1.7 0.8 3.3 1.1 3.5 1.7c0.2 1.1-0.4 2.4-0.7 3.6c-1.1-0.3-2.6-0.3-3.1-1.1c-0.5-0.7 0.1-2.2 0.3-4.2zm164.1-79.9c1.8 0.9 3.3 1.2 3.4 1.9c0.3 1.1-0.3 2.4-0.5 3.6c-1.1-0.2-2.9-0.2-3.2-0.8c-0.5-1 0.1-2.5 0.3-4.7zm248.5-204.5c2 0.7 3.5 0.9 4.3 1.7c0.4 0.4-0.3 2.8-0.6 2.9c-1.2 0.1-2.7-0.1-3.6-0.8c-0.5-0.4-0.1-1.9-0.1-3.8zm-169.5 106.9c2.2 1 3.6 1.3 4.3 2.3c0.5 0.5-0.3 2-0.5 3c-1.3-0.4-2.7-0.5-3.6-1.2c-0.5-0.5-0.1-2-0.2-4.1zm141.7-113c2 0.5 3.4 0.6 4.4 1.3c0.3 0.3-0.2 2.7-0.6 2.9c-1.2 0.3-2.7 0.1-3.8-0.4c-0.4-0.2 0-1.9 0-3.8zm-334.1 330.7c0.9 0.6 2.3 1.1 2.6 1.9c0.3 1-0.4 2.2-0.7 3.3c-1.1-0.3-2.7-0.3-3.1-1.1c-0.5-0.9 0-2.3 0.1-3.6q0.6-0.2 1.1-0.5zm118.6-147.2c1.8 0.5 3.6 0.7 3.6 1.2c0.2 1.1-0.2 2.6-0.8 3.6c-0.2 0.3-2.6-0.1-2.9-0.7c-0.5-0.8 0-2.2 0.1-4.1zm203.9 21.4c-1.7-0.8-3.3-1.2-3.3-1.5c0.1-1.4 0.6-2.7 1.2-3.9c0.1-0.2 2.4 0.3 2.5 0.7c0.2 1.3-0.2 2.6-0.4 4.7zm-497.5 121.5c0.6-1.8 0.8-3.4 1.5-3.8c0.8-0.4 2.7 0.1 3.1 0.8c0.5 0.7 0.2 2.7-0.5 3.2c-0.7 0.5-2.2 0-4.1-0.2zm463.1-250.7c1.9 0.7 3.7 1 3.8 1.6c0.2 1.1-0.3 2.6-1.1 3.4c-0.4 0.4-2.6 0-2.8-0.5c-0.5-1 0-2.4 0.1-4.5zm55.3 12.4c1.9 0.7 3.4 0.8 3.8 1.6c0.4 0.8-0.2 2.2-0.3 3.4c-1.3-0.2-2.8-0.1-3.7-0.7c-0.5-0.5 0.1-2.2 0.2-4.3zm-37.4-90.9c0.5-1 0.8-2.4 1.6-2.9c0.8-0.4 2.1 0.2 3.2 0.3c-0.2 1.2-0.2 2.7-0.9 3.3c-0.6 0.6-2.1 0.3-3.2 0.3q-0.4-0.5-0.7-1zm-518.9 373.7c1.1 0.5 2.6 0.7 3 1.4c0.4 0.9-0.2 2.2-0.4 3.4c-1.1-0.3-2.6-0.2-3.3-0.9c-0.6-0.6-0.2-2.1-0.3-3.2q0.5-0.3 1-0.7zm-167.2-37.1c1.9 0.8 3.3 1 4.1 1.9c0.4 0.5-0.3 1.9-0.5 3c-1.3-0.4-2.7-0.6-3.9-1.3c-0.3-0.3 0.2-1.8 0.3-3.6zm890.9 51.8q0 3.4-0.1 6.8q-0.4 0.3-0.9 0.5c-0.8-1.2-2.1-2.3-2.1-3.5c0-1.4 1.1-2.8 1.7-4.1q0.7 0.2 1.4 0.3zm-567-67.6c1.8 1 3.3 1.3 3.7 2.1c0.3 0.9-0.3 2.2-0.6 3.3c-1.2-0.3-2.7-0.3-3.4-1.1c-0.6-0.6 0.1-2.1 0.3-4.3zm201.4-99.9c-0.7 2-0.8 3.6-1.5 4c-0.8 0.4-2.8-0.1-3.1-0.8c-0.4-0.8 0.1-2.5 0.8-3.3c0.4-0.4 1.9 0 3.8 0.1zm33.6-22c-0.8 2.1-1 3.7-1.7 4.1c-0.8 0.4-2.2-0.2-3.4-0.4c0.2-1.1 0.1-2.6 0.8-3.3c0.6-0.6 2.1-0.2 4.3-0.4zm-245.7 36.3c0.6-1 1-2.4 1.9-2.8c0.9-0.4 2.3 0.4 3.4 0.6c-0.4 1-0.6 2.4-1.3 2.8c-0.9 0.5-2.3 0.3-3.4 0.4q-0.3-0.5-0.6-1zm440.4-277.7c0.9-1.8 1.2-3.2 2-3.7c0.6-0.4 2 0.2 3 0.4c-0.3 1.2-0.3 2.6-1 3.5c-0.4 0.4-2-0.1-4-0.2zm11.9 84.4c1 0.6 2.3 1 2.8 1.9c0.4 0.8-0.2 2.1-0.4 3.1c-1.1-0.4-2.5-0.6-3.1-1.3c-0.6-0.6-0.2-2-0.3-3.1q0.5-0.3 1-0.6zm-133.9-58c2.5-0.1 4.2 0.8 4 3.4c0 0.5-1.7 1.4-2.3 1.3c-2.4-0.7-2.6-2.5-1.7-4.7zm63.3 104.4c0.6-1 1.1-2.2 2-2.7c0.7-0.4 1.9 0.2 3 0.3c-0.3 1.1-0.3 2.6-1 3.2c-0.7 0.6-2.2 0.2-3.4 0.2q-0.3-0.5-0.6-1zm-188.9 219.9c-1.8-0.5-3.4-0.6-3.5-1c-0.3-1.2 0-2.6 0.4-3.7c0.1-0.3 2.5-0.2 2.7 0.3c0.5 1 0.3 2.4 0.4 4.4zm-174 106.6c0.8-1.8 1-3.2 1.8-3.8c0.5-0.4 2.6 0.3 2.7 0.8c0.2 1-0.1 2.5-0.7 3.3c-0.4 0.4-1.9-0.1-3.8-0.3zm-184.8-189.9c-0.7 1.7-1.1 3.2-1.5 3.2c-1.2 0.1-2.6-0.2-3.7-0.8c-0.3-0.1 0-2.4 0.3-2.5c1.3-0.2 2.7 0 4.9 0.1zm-114.2 118.9c-0.8 1.9-1.1 3.5-1.7 3.6c-1 0.2-2.5-0.2-3.3-0.9c-0.3-0.4 0.1-2.5 0.8-2.9c0.8-0.4 2.2 0.1 4.2 0.2zm-30.6-147c0.6-1.6 0.9-3.1 1.1-3.1c1.4 0.1 2.7 0.4 4 1c0.2 0.1-0.1 2.3-0.3 2.3c-1.3 0.1-2.7-0.1-4.8-0.2zm47.1 179.4c1.6 0.6 3.3 0.9 3.3 1.3c0.1 1.1-0.2 2.5-0.9 3.3c-0.3 0.5-1.8 0-2.8 0c0.1-1.3 0.2-2.6 0.4-4.6zm224.2-94.9c1.7 0.6 3.3 0.7 3.5 1.3c0.4 1 0.1 2.7-0.5 3.3c-0.5 0.5-2.6 0.1-3.1-0.5c-0.5-0.7 0-2.2 0.1-4.1zm436.7-106.1c-0.8 1.8-1 3.2-1.8 3.9c-0.3 0.3-2.3-0.4-2.6-1.1c-0.4-0.8-0.1-2.4 0.5-3c0.6-0.4 2 0.1 3.9 0.2zm-565.7 164.1c1.7 0.6 3.4 0.8 3.5 1.3c0.2 1-0.2 2.5-0.9 3.2c-0.6 0.5-2-0.1-3.1-0.2c0.1-1.2 0.3-2.3 0.5-4.3zm156.8-52.1c1.9 0.9 3.4 1.1 3.6 1.8c0.3 1-0.4 2.2-0.6 3.3c-1.1-0.2-2.6-0.2-3-0.9c-0.5-0.7 0-2.1 0-4.2zm384 381.7q-0.4-3.4-0.8-6.8q0.4-0.3 0.7-0.6c0.9 1 2.6 1.8 2.6 2.8c0.1 1.6-0.8 3.2-1.3 4.8q-0.6-0.1-1.2-0.2zm63.4-688.2c1.7 0.7 3.3 0.9 3.5 1.5c0.3 1-0.3 2.3-0.5 3.4c-1-0.2-2.6-0.1-3-0.7c-0.5-0.8-0.1-2.2 0-4.2zm-271 171.7c1.8 0.8 3.3 0.9 3.5 1.6c0.4 0.9-0.2 2.2-0.4 3.4c-1.1-0.2-2.7-0.1-3.2-0.8c-0.5-0.7 0-2.1 0.1-4.2zm169.6-107.8c1.7 0.9 3.1 1.1 3.4 1.8c0.4 0.8-0.2 2.1-0.3 3.1c-1.1-0.2-2.7 0-3.3-0.6c-0.5-0.6 0-2.2 0.2-4.3zm-671.9 141.6c2 0.8 3.4 1.2 4.5 1.9c0.3 0.2-0.2 1.6-0.3 2.4c-1.4-0.3-2.8-0.4-4.1-1c-0.3-0.1-0.1-1.5-0.1-3.3zm704-134.4c-1 1.9-1.3 3.3-2.2 3.8c-0.6 0.5-2-0.2-3-0.4c0.3-1.1 0.4-2.5 1.1-3.2c0.5-0.5 2-0.2 4.1-0.2zm-556.1 253.3c1.6 0.8 3.1 1.1 3.2 1.6c0.2 1.1-0.3 2.3-0.6 3.4c-1-0.2-2.7-0.2-2.9-0.8c-0.4-0.9 0.1-2.2 0.3-4.2zm597.9-330.9c1.8 0.8 3.3 1.1 3.4 1.7c0.3 1-0.1 2.5-0.7 3.3c-0.3 0.3-2.6-0.1-2.9-0.7c-0.4-0.8 0.1-2.2 0.2-4.3zm-195 218.1c1.7 0.4 3.2 0.4 3.6 1.1c0.4 0.7 0 2.6-0.6 2.9c-0.9 0.4-2.2-0.1-3.4-0.2c0.2-1.1 0.3-2.1 0.4-3.8zm20.9 38.7c0.9-1.9 1.1-3.2 1.9-3.9c0.5-0.3 2.6 0.3 2.6 0.7c0.3 1.1 0.1 2.5-0.5 3.3c-0.4 0.5-2 0-4-0.1zm-370.8 115.5c-0.6 1.7-0.6 3.1-1.3 3.6c-0.7 0.5-2.1 0-3.1-0.1c0.3-1.1 0.3-2.4 0.9-3.3c0.4-0.4 1.8-0.1 3.5-0.2zm495.1-412.1c1.7 0.7 3.3 0.8 3.5 1.4c0.4 0.9-0.2 2.2-0.4 3.3c-1.1-0.2-2.5-0.2-3.2-0.8c-0.5-0.5 0-2 0.1-3.9zm-609.6 386.8c1.7 0.7 3.1 0.8 3.5 1.6c0.4 0.7-0.2 2-0.3 3c-1.2-0.2-2.6-0.1-3.3-0.7c-0.5-0.4 0-2 0.1-3.9zm526.1-139c0.7-1.9 1-3.2 1.7-4.2c0.2-0.3 2.4 0.2 2.4 0.5c0.1 1.2 0 2.5-0.5 3.6c-0.2 0.4-1.8 0.1-3.6 0.1zm29.2-114.8c-0.7 1.8-0.8 3.3-1.5 3.6c-0.8 0.4-2.1-0.3-3.2-0.5c0.2-1.1 0.2-2.5 0.8-3c0.7-0.5 2-0.1 3.9-0.1zm-147.3 117.3c0.7-1.7 0.9-3.2 1.6-3.5c0.8-0.4 2 0.2 3.1 0.3c-0.3 1.2-0.2 2.6-0.9 3.3c-0.4 0.5-1.9 0-3.8-0.1zm303.1-313.9c1.9 0.8 3.2 1.1 3.8 1.9c0.4 0.4-0.2 1.8-0.4 2.7c-1.2-0.3-2.5-0.3-3.3-1c-0.5-0.3-0.1-1.7-0.1-3.6zm31.6 121.7c1.7 0.8 3.2 1.1 3.3 1.7c0.2 1.1-0.3 2.4-0.5 3.6c-0.9-0.3-2.3-0.4-2.6-1c-0.5-1-0.2-2.3-0.2-4.3zm-198.5 106.4c0.8-2 1-3.3 1.8-4c0.4-0.3 2.3 0.1 2.6 0.7c0.3 0.8 0.2 2.4-0.4 3c-0.5 0.5-2 0.2-4 0.3zm-405.8 252.9c1.8 0.7 3.3 0.8 3.6 1.5c0.4 0.7 0 2.4-0.6 2.9c-0.6 0.4-2.3 0.1-2.9-0.5c-0.5-0.6-0.1-1.9-0.1-3.9zm310.1-217.6c0.5-0.8 0.9-2.2 1.7-2.5c0.9-0.3 2.1 0.3 3.2 0.5c-0.3 0.9-0.4 2.2-1 2.6c-0.9 0.5-2.3 0.3-3.4 0.4q-0.3-0.5-0.5-1zm-153.4 165.4c1.6 0.6 3.3 0.8 3.3 1.2c0.1 1.1-0.3 2.4-0.9 3.2c-0.4 0.3-2.6-0.1-2.6-0.4c-0.3-1.1 0.1-2.3 0.2-4zm443.3-394.5c-0.7 1.8-1.1 2.7-1.5 3.7c-1-0.4-2.3-0.6-2.9-1.4c-0.4-0.5 0.1-1.8 0.1-2.8c1.2 0.1 2.3 0.3 4.3 0.5zm-292.1 370c1.7 0.6 3.1 0.7 3.6 1.4c0.3 0.6-0.1 2.4-0.7 2.8c-0.8 0.4-2.4 0.2-3-0.4c-0.5-0.5 0-2 0.1-3.8zm194.5-218.1c1.8 0.8 3.3 1 3.6 1.6c0.2 0.8-0.3 2.3-1.1 2.9c-0.5 0.5-2.6 0.1-2.7-0.2c-0.3-1 0-2.3 0.2-4.3zm-18.1-178.4c2 0.9 3.4 1.1 4.2 1.9c0.5 0.5 0.2 1.8 0.2 2.8c-1.3-0.4-2.7-0.6-3.9-1.3c-0.4-0.2-0.3-1.5-0.5-3.4zm-148.4 402.7c1.9 0.9 3.3 1.1 3.6 1.8c0.4 0.8-0.1 2.1-0.3 3.2c-1-0.3-2.3-0.3-2.9-1c-0.5-0.7-0.2-2-0.4-4zm287.5-226c-1.2 1.2-2.3 2.4-4.1 4.3c-0.5-1.4-1.4-3.2-1-3.5c1.2-1 2.8-1.5 4.3-2.2q0.4 0.7 0.8 1.4zm-48.4-63.9c0.9-1.9 1.1-3.2 1.9-3.8c0.5-0.4 2.5 0.2 2.6 0.6c0.3 1 0.1 2.5-0.5 3.3c-0.4 0.5-2 0-4-0.1zm-61.9 39.3c-0.5 1.6-0.6 3.1-1.2 3.3c-1 0.3-2.3-0.2-3.5-0.3c0.3-1.1 0.3-2.6 0.9-3c0.8-0.5 2.1 0 3.8 0zm-248.5 181.1c0.6-1.6 0.8-3.1 1.2-3.2c1.1-0.2 2.2 0.4 3.3 0.7c-0.3 1-0.2 2.4-0.9 2.9c-0.6 0.4-2-0.2-3.6-0.4zm-404.3 138.1c-0.6 1.6-0.8 3.1-1.3 3.3c-1 0.3-2.1-0.3-3.2-0.4c0.2-1.1 0.1-2.6 0.7-3.1c0.6-0.5 2 0.1 3.8 0.2zm184.2-46.3c-0.5 1.7-0.8 2.7-1.1 3.8c-1-0.4-2.4-0.5-3-1.1c-0.4-0.5-0.1-2.4 0.4-2.7c0.7-0.4 2 0 3.7 0zm198.3-129.6c1.7 0.6 3.2 0.7 3.5 1.4c0.4 0.8 0.1 2.5-0.6 2.9c-0.6 0.5-2.4 0.2-2.9-0.4c-0.5-0.6-0.1-2 0-3.9zm-293.6 142c1-1.9 1.4-3.2 2.3-3.8c0.5-0.3 1.8 0.4 2.7 0.6c-0.3 1-0.2 2.4-0.9 3c-0.6 0.5-2 0.2-4.1 0.2zm600.8-450.9c-0.8 1.9-1 3.3-1.6 3.5c-1 0.3-2.3-0.1-3.4-0.2c0.2-1 0.1-2.4 0.7-2.7c0.9-0.6 2.2-0.4 4.3-0.6zm66.6 72.2c1.7 0.7 3 0.9 3.2 1.5c0.3 0.9 0.1 2.3-0.5 3c-0.4 0.3-2.4 0.1-2.6-0.4c-0.4-0.9-0.1-2.2-0.1-4.1zm-265.6-88.4c-0.8 1.6-1.2 2.9-1.6 2.9c-1.2 0-2.4-0.5-3.5-0.8c0.2-0.8 0.4-2.2 0.8-2.3c1.1-0.2 2.3 0.1 4.3 0.2zm175.9 97.6c1.7 0.8 3 0.9 3.6 1.7c0.3 0.4-0.2 2.3-0.8 2.5c-0.8 0.4-2.4 0.2-3-0.4c-0.5-0.5 0-1.9 0.2-3.8zm-632.4 357.2c0.8-1.7 1-2.9 1.8-3.7c0.3-0.3 2.2 0.3 2.3 0.7c0.2 1.1 0 2.3-0.5 3.4c-0.1 0.2-1.7-0.2-3.6-0.4zm82.8 19.2c0.7-1.7 0.8-3.1 1.5-3.6c0.5-0.4 1.9 0.2 2.8 0.4c-0.2 1.1-0.1 2.4-0.7 3.1c-0.5 0.5-1.9 0.1-3.6 0.1zm580.9-253.6c1.5 0.7 2.9 1.1 2.9 1.5c0.1 1.1-0.4 2.3-0.9 3.3c0 0.1-2.2-0.3-2.2-0.6c-0.3-1.1 0.1-2.3 0.2-4.2zm-545.6 227.1c1.7 0.9 3 1.2 3.5 1.9c0.4 0.6-0.3 1.9-0.4 2.8c-1-0.3-2.3-0.4-2.9-1c-0.5-0.5-0.1-1.8-0.2-3.7zm123.1-30.1c1.6 0.6 3.1 0.8 3.3 1.4c0.2 0.9-0.3 2.1-0.5 3.1c-1-0.2-2.4-0.1-2.8-0.8c-0.5-0.6-0.1-1.9 0-3.7zm-337.8 98.6c-0.8 1.6-1 2.9-1.8 3.4c-0.5 0.3-2.5-0.3-2.5-0.8c-0.2-0.9 0.1-2.3 0.8-3c0.4-0.4 1.8 0.2 3.5 0.4zm636.9-264.8c1.7 0.8 3.1 1 3.3 1.6c0.4 0.9-0.1 2.1-0.2 3.2c-0.9-0.3-2.2-0.2-2.6-0.8c-0.6-0.8-0.3-2-0.5-4zm-613.1 269.7c1.5 0.8 2.9 1.1 3.1 1.7c0.2 0.9-0.5 2-0.7 3.1c-1-0.3-2.4-0.4-2.7-1c-0.4-0.8 0.1-2 0.3-3.8zm522.7-259.6c1.9 0.8 3.1 1.2 3.9 1.9c0.2 0.3-0.4 2.2-0.8 2.3c-1 0.2-2.3 0-3-0.6c-0.5-0.4-0.1-1.7-0.1-3.6zm119.2-119.3c-0.4 1.7-0.6 3.3-1 3.3c-1 0.2-2.3-0.1-2.9-0.8c-0.5-0.4-0.2-2.3 0.3-2.6c0.8-0.5 2 0 3.6 0.1zm-90.6 765.9c1.4-0.9 2.6-2 4.1-2.4c0.6-0.2 1.6 1.1 3.2 2.4c-3 0.5-4.9 0.8-6.7 1.1q-0.3-0.5-0.6-1.1zm-443.5-479c1.7 0.9 3 1.2 3.4 1.9c0.3 0.6-0.5 1.8-0.7 2.7c-1-0.3-2.2-0.3-2.7-1c-0.5-0.5-0.1-1.8 0-3.6zm64.1 106c0.6-1.5 0.7-2.8 1.4-3.3c0.5-0.4 2.5 0.1 2.5 0.5c0.2 1 0 2.3-0.5 3.2c-0.2 0.3-1.7-0.2-3.4-0.4zm524.5-525.8c1.6 0.5 3.1 0.8 3.1 1c-0.1 1.1-0.3 2.4-0.9 3.3c-0.2 0.3-2.4 0-2.4-0.3c-0.2-1.1 0.1-2.2 0.2-4zm34.2-21.7c1.5 0.6 3 0.7 3.2 1.3c0.3 0.9-0.1 2.3-0.7 3c-0.3 0.3-2.4 0-2.6-0.5c-0.4-0.8 0-2.1 0.1-3.8zm-360.2 442.3c1.4 0.8 2.7 1.1 2.8 1.7c0.2 1-0.3 2.1-0.5 3.1c-0.9-0.3-2.3-0.3-2.5-0.8c-0.4-0.9 0-2.1 0.2-4zm307.2-338c1.5 0.6 3.1 0.8 3.2 1.3c0.1 0.9-0.3 2.2-1 2.8c-0.5 0.4-2.4 0-2.6-0.5c-0.3-0.8 0.2-2 0.4-3.6zm-138.1 230.6c1.5 0.6 2.8 0.8 3 1.3c0.2 1-0.2 2.1-0.3 3.2c-0.9-0.2-2.4-0.1-2.6-0.6c-0.5-0.9-0.1-2.1-0.1-3.9zm46.3-191.7c-0.5 1.5-0.6 3-1.1 3.1c-0.8 0.2-2.2-0.1-2.7-0.7c-0.4-0.6 0.1-1.9 0.1-2.9c1.1 0.1 2.1 0.3 3.7 0.5zm121.7 88.4c0.9-1.8 1.2-3 2-3.8c0.3-0.3 2.3 0.3 2.3 0.6c0 1.1-0.1 2.4-0.7 3.3c-0.2 0.4-1.7 0-3.6-0.1zm-103.3-57.3c1.7 1 2.9 1.3 3.4 2c0.4 0.7-0.1 1.9-0.2 2.8c-1-0.3-2.3-0.3-3-1c-0.5-0.5-0.2-1.8-0.2-3.8zm114.1-118.7c1.6 0.7 2.8 0.8 3.5 1.5c0.3 0.3-0.2 2.2-0.6 2.4c-0.9 0.2-2.3 0.1-3.1-0.4c-0.4-0.3 0.1-1.8 0.2-3.5zm-78.8-17.7c-0.5 1.4-0.8 2.2-1.1 3c-1-0.4-2.2-0.6-3-1.2c-0.3-0.3 0.2-2.2 0.5-2.3c0.9-0.1 2 0.2 3.6 0.5zm32.8 93.6c1.5 0.8 2.8 1.2 2.8 1.6c0 1.2-0.5 2.3-0.8 3.4c-0.8-0.4-2.1-0.6-2.3-1.2c-0.3-0.9 0.1-2 0.3-3.8zm45.9 73.9c-1.4-0.8-2.6-1.1-2.8-1.7c-0.3-0.9 0.1-2 0.2-3c0.9 0.2 2.4 0.2 2.7 0.7c0.4 0.8 0 2.1-0.1 4zm-230.8 118c-0.7 1.6-0.9 2.7-1.7 3.4c-0.3 0.3-1.5-0.3-2.4-0.5c0.3-1.1 0.3-2.2 0.9-3c0.2-0.4 1.5 0 3.2 0.1zm-476.3 159.8c0.8-1.6 1-2.8 1.8-3.4c0.3-0.3 1.6 0.4 2.4 0.6c-0.3 1-0.4 2.2-1 2.9c-0.3 0.4-1.6 0-3.2-0.1zm136.7-89.6c1.5 0.6 2.8 0.7 3.2 1.3c0.4 0.6-0.3 1.8-0.5 2.8c-0.9-0.3-2.1-0.4-2.7-1c-0.4-0.4 0-1.6 0-3.1zm-186 49.4c1-1.9 1.4-3.1 2.2-3.8c0.3-0.3 1.5 0.4 2.4 0.6c-0.4 1-0.5 2.2-1.2 3c-0.4 0.4-1.6 0.1-3.4 0.2zm454.2-77.6c1.4 0.5 2.8 0.8 2.8 1.2c0.2 0.9-0.3 2-0.5 3c-0.8-0.2-2-0.3-2.4-0.8c-0.4-0.7 0-1.8 0.1-3.4zm-192.8 77.8c0.9-1.8 1.2-3 1.9-3.6c0.5-0.3 1.6 0.2 2.5 0.4c-0.3 1-0.4 2.1-1 2.9c-0.4 0.4-1.6 0.1-3.4 0.3zm331.3-566.1c0.8-1.4 1.2-2.6 1.6-2.6c1.1-0.1 2.3 0.4 3.4 0.7c-0.2 0.7-0.3 2-0.7 2.1c-1.1 0.2-2.3-0.1-4.3-0.2zm-115.7 405.7c-0.5 1.5-0.6 2.9-1.2 3.1c-0.7 0.3-2.2 0-2.7-0.6c-0.4-0.5-0.1-2.2 0.5-2.6c0.5-0.4 1.8 0 3.4 0.1zm-117.2 4c-0.7 1.5-0.8 2.9-1.5 3.1c-0.7 0.3-2-0.1-2.7-0.7c-0.2-0.2 0.2-2 0.7-2.3c0.7-0.5 1.8-0.1 3.5-0.1zm344.2-384.7c0.5-1.3 0.9-2.8 1.1-2.8c1 0.1 2.2 0.4 2.9 1c0.4 0.4-0.1 1.6-0.2 2.5c-1.1-0.2-2.1-0.4-3.8-0.7zm-172.7 247.7c1.8 0.6 2.9 0.9 3.9 1.5c0.2 0.1-0.3 2.1-0.5 2c-1.1 0-2.4-0.2-3.4-0.6c-0.3-0.1 0-1.4 0-2.9zm-151.6 290c0.6-1.4 0.7-2.6 1.4-3.1c0.4-0.3 2.2 0.3 2.3 0.7c0.1 0.9-0.2 2.1-0.7 2.8c-0.3 0.3-1.6-0.2-3-0.4zm216.1-187.7c1.5 0.6 2.8 0.8 3 1.3c0.3 0.8-0.2 1.9-0.4 2.9c-0.8-0.2-2.1-0.1-2.4-0.6c-0.4-0.8-0.1-1.9-0.2-3.6zm0.3-115c-0.7 1.4-0.9 2.5-1.4 2.8c-0.7 0.3-1.8-0.2-2.6-0.3c0.2-1 0.2-2.2 0.8-2.7c0.4-0.4 1.6 0 3.2 0.2zm-563.2 308.5c-0.8 1.5-1.1 2.7-1.8 3.1c-0.5 0.3-1.6-0.3-2.4-0.5c0.3-0.9 0.3-2.1 1-2.7c0.4-0.4 1.6 0 3.2 0.1zm-10.2 27.3c1.4 0.5 2.8 0.7 2.9 1.1c0.2 0.9-0.2 2.1-0.8 2.7c-0.4 0.4-2.3 0-2.4-0.4c-0.3-0.8 0.1-1.9 0.3-3.4zm699.4-395.8c1.5 0.4 2.6 0.4 3.2 1c0.4 0.2 0 2-0.5 2.3c-0.7 0.4-1.9 0.1-2.9 0.1c0.1-0.9 0.1-1.9 0.2-3.4zm-116.4 148c-0.7 1.4-0.9 2.7-1.5 2.8c-0.8 0.3-1.8-0.2-2.8-0.4c0.3-0.9 0.3-2.1 0.8-2.5c0.7-0.4 1.9 0 3.5 0.1zm-187.5 190.3c-0.4 1.4-0.4 2.6-1 3.2c-0.4 0.3-2.1-0.1-2.4-0.6c-0.3-0.8-0.2-2.1 0.3-2.8c0.3-0.3 1.7 0.1 3.1 0.2zm-253.2-56.5c1.4 0.7 2.6 1 3 1.7c0.3 0.4-0.3 1.9-0.9 2.2c-0.6 0.4-2.3 0.1-2.5-0.4c-0.3-0.7 0.2-1.8 0.4-3.5zm589-275.1c-0.6 1.4-0.8 2.6-1.3 2.8c-0.8 0.3-1.9-0.1-2.8-0.2c0.1-0.9 0-2.2 0.6-2.5c0.7-0.4 1.8-0.1 3.5-0.1zm-397.2 322.4c0.9-1.5 1.2-2.7 1.9-3c0.6-0.3 1.8 0.3 2.7 0.5c-0.4 0.8-0.6 1.9-1.3 2.5c-0.5 0.4-1.6 0-3.3 0zm302.6-310.2c0.6-1.4 0.8-2.7 1.3-2.8c0.8-0.3 2.1 0.1 2.6 0.6c0.4 0.4 0 2.2-0.4 2.4c-0.8 0.4-1.9 0-3.5-0.2zm-268.6 289.4c0.7-1.5 0.8-2.9 1.5-3.2c0.6-0.3 2 0.3 2.5 0.9c0.3 0.4-0.1 2-0.6 2.3c-0.7 0.4-1.8 0-3.4 0zm-307.2 76.1c0.5-1.5 0.6-2.6 1.3-3.2c0.3-0.3 2.2 0.2 2.2 0.5c0.2 0.9 0 2.1-0.5 2.9c-0.2 0.3-1.6-0.1-3-0.2zm121.8-6.3c-0.5 1.4-0.6 2.6-1.2 3.1c-0.4 0.3-2.2-0.1-2.3-0.6c-0.3-0.7-0.1-2 0.5-2.6c0.3-0.4 1.6 0 3 0.1zm354.3-298.3c0.9 0.4 1.9 0.6 2.6 1.2c0.2 0.2-0.4 1.9-0.8 2c-0.9 0.1-2.1-0.1-2.8-0.7c-0.5-0.4-0.4-1.6-0.6-2.4q0.8-0.1 1.6-0.1zm318.7 273.6c-1.8 1.2-3.3 2.1-4.8 3.1c-0.6-3.4 0.7-4.4 4.8-3.1zm-575.7-37c0.5-1.5 0.6-2.8 1.1-3c0.8-0.3 1.9 0.1 2.9 0.3c-0.2 0.8-0.1 2.1-0.5 2.4c-0.7 0.4-1.9 0.2-3.5 0.3zm-68.2 43.3c0.5-1.5 0.7-2.6 1.3-3.3c0.2-0.3 1.4 0.2 2.2 0.3c-0.2 0.9-0.2 2-0.7 2.7c-0.3 0.4-1.4 0.2-2.8 0.3zm483.7-472.6c0.7-1.6 0.8-2.7 1.5-3.2c0.5-0.3 1.6 0.2 2.5 0.4c-0.3 0.9-0.3 2-0.8 2.7c-0.4 0.4-1.6 0.1-3.2 0.1zm-544.4 484c1.5 0.5 2.6 0.6 3.2 1.2c0.3 0.3-0.1 2.1-0.4 2.1c-0.9 0.1-1.9 0-2.7-0.5c-0.3-0.2-0.1-1.4-0.1-2.8zm603.6-355.3c0.6-1.4 0.8-2.6 1.4-3.1c0.4-0.3 2.3 0.3 2.3 0.6c0.1 0.9-0.2 2.1-0.7 2.8c-0.3 0.3-1.6-0.1-3-0.3zm-464.8 269.6c-0.3 1.4-0.4 2.8-0.8 3c-0.8 0.2-1.9-0.2-2.6-0.7c-0.4-0.2-0.2-1.9 0.1-2.1c0.8-0.3 1.8-0.1 3.3-0.2zm338.5-358.7c1.4 0.7 2.6 1 2.9 1.6c0.3 0.7-0.1 1.8-0.1 2.8c-0.9-0.2-2.2-0.2-2.5-0.7c-0.5-0.8-0.2-2-0.3-3.7zm31.8 121.7c1.4 0.9 2.5 1.3 2.7 1.9c0.3 0.7-0.3 1.7-0.6 2.5c-0.7-0.2-2-0.2-2.1-0.7c-0.4-0.8-0.1-1.9 0-3.7zm-98.8 181.8c1.4 0.7 2.6 0.9 2.8 1.5c0.3 0.8-0.2 1.8-0.4 2.7c-0.8-0.3-1.9-0.5-2.4-1.1c-0.4-0.5 0-1.6 0-3.1zm-208.9 40.8c-0.7 1.4-0.9 2.6-1.5 2.8c-0.6 0.3-1.8-0.3-2.2-0.8c-0.3-0.4 0.1-1.9 0.5-2.1c0.6-0.4 1.7 0 3.2 0.1zm412.9-285c-0.4 1.3-0.5 2.5-1 2.8c-0.6 0.3-2.1 0.1-2.4-0.4c-0.3-0.6-0.1-2 0.4-2.5c0.4-0.4 1.6 0 3 0.1zm-650.6 289.7c1.5 0.7 2.6 1 3.2 1.6c0.3 0.4-0.2 1.5-0.3 2.2c-0.9-0.2-2.1-0.1-2.7-0.6c-0.5-0.4-0.2-1.6-0.2-3.2zm-77.1 99.5c-0.7 1.5-0.9 2.5-1.5 3.1c-0.4 0.3-2.1-0.2-2.2-0.5c0-0.9 0.1-2.1 0.6-2.8c0.3-0.3 1.6 0.1 3.1 0.2zm-61.6-130.1c1.5 0.6 2.5 0.8 3.2 1.4c0.3 0.3-0.2 1.4-0.3 2.2c-1.1-0.2-2.2-0.4-3.1-0.9c-0.2-0.1 0.1-1.3 0.2-2.7zm737.3-416.2c-0.7 1-1.4 1.9-2.6 3.8c-0.7-1.9-1-2.9-1.4-4q1.8-0.5 3.5-1q0.2 0.6 0.5 1.2zm-306 454.4c-0.4 1.4-0.5 2.5-1.1 2.9c-0.4 0.3-1.9-0.2-2.2-0.8c-0.3-0.5-0.1-2 0.3-2.3c0.6-0.4 1.6 0.1 3 0.2zm169.2-252.8c1.5 0.6 2.7 0.7 3 1.3c0.3 0.6 0 1.8-0.5 2.4c-0.2 0.4-1.9 0.2-2.1-0.1c-0.4-0.8-0.2-1.9-0.4-3.6zm58.8-132c1.4 0.5 2.7 0.6 2.9 1.2c0.3 0.7-0.2 1.7-0.3 2.6c-0.9-0.2-2-0.1-2.4-0.6c-0.5-0.5-0.2-1.7-0.2-3.2zm-111.5 236.3c1.4 0.7 2.8 1.2 2.7 1.5c0 0.9-0.5 1.9-1.2 2.6c-0.2 0.2-1.9-0.3-1.9-0.7c-0.2-0.9 0.2-1.8 0.4-3.4zm159.3-193.4c0.5-0.7 1-1.8 1.7-2.1c0.7-0.3 2 0 2.4 0.5c0.4 0.5 0.3 1.9-0.2 2.3c-0.4 0.5-1.5 0.1-2.4 0.1q-0.7-0.4-1.5-0.8zm-69.1 184.5c1.1 0.4 2.2 0.6 2.2 0.9c0.2 1 0 2-0.1 2.9c-0.8-0.1-2.1 0-2.1-0.3c-0.3-0.9-0.1-2 0-3.5zm-505.6 178.5c1.6 0.6 2.7 0.8 3.5 1.4c0.2 0.2-0.2 1.4-0.4 2.1c-0.8-0.1-1.9-0.1-2.5-0.5c-0.5-0.4-0.3-1.5-0.6-3zm490.3-501.1c1.3 0.5 2.3 0.6 2.9 1.1c0.3 0.3-0.1 1.9-0.4 2c-0.8 0.3-1.9 0.1-2.5-0.3c-0.3-0.3 0-1.4 0-2.8zm-610.1 531.7c-0.6 1.3-0.8 2.3-1.3 2.5c-0.7 0.2-1.6-0.2-2.4-0.4c0.2-0.8 0.1-2 0.6-2.4c0.6-0.3 1.6 0.1 3.1 0.3zm582.7-393c-0.7 1.4-0.8 2.5-1.3 2.6c-0.8 0.3-1.7-0.1-2.6-0.2c0.2-0.7 0.1-1.9 0.5-2.2c0.7-0.4 1.7-0.1 3.4-0.2zm215.1 76.9c-0.5 1.3-0.7 2.3-1.2 2.9c-0.4 0.2-2-0.2-2-0.5c-0.1-0.8 0-1.9 0.4-2.5c0.2-0.4 1.4 0 2.8 0.1zm-128.1-201.7c-0.7 1.3-0.9 2.3-1.5 2.7c-0.4 0.3-1.9-0.3-2-0.8c-0.3-0.7 0.2-1.6 0.3-2.5c0.9 0.2 1.7 0.4 3.2 0.6zm-140.6 349.4c0.6-1.6 0.8-2.6 1.3-3.4c0.2-0.2 1.9 0.2 2 0.6c0.1 0.8 0 1.8-0.5 2.5c-0.3 0.4-1.4 0.1-2.8 0.3zm144.3-373.7q-1.4-0.8-2.8-1.5q0.6-1.2 1.3-2.3q1.2 1.3 2.3 2.6q-0.4 0.6-0.8 1.2zm10.1 200.7c1.4 0.6 2.5 0.7 2.9 1.3c0.3 0.5 0 1.9-0.4 2.2c-0.7 0.3-2 0.2-2.4-0.3c-0.4-0.5-0.1-1.6-0.1-3.2zm-160.9 197.2c1.4 0.6 2.4 0.8 2.9 1.4c0.2 0.4-0.2 1.9-0.7 2c-0.7 0.3-2 0.2-2.5-0.3c-0.4-0.4 0.1-1.6 0.3-3.1zm157.4-313.8c1.3 0.5 2.6 0.6 2.6 1c0.2 0.9-0.1 1.9-0.3 2.8c-0.7-0.1-2 0-2.1-0.4c-0.4-0.8-0.2-1.8-0.2-3.4zm-640.3 409.6c-0.4 1.3-0.6 2.5-1 2.6c-0.8 0.1-1.9-0.2-2.5-0.7c-0.3-0.2 0-2 0.3-2.1c0.8-0.2 1.7 0.1 3.2 0.2z" /></svg>