<svg version="1.2" xmlns="http://www.w3.org/2000/svg" viewBox="0 0 1247 1151" width="1247" height="1151"><style>.s0{fill:#303030}</style><path class="s0" d="m324.6 1051.4c0.4-2.8 3.6-5.4 5.9-5c2.5 0.4 6.4 6.2 5.2 8.6c-0.8 1.6-3.1 2.4-3.9 3c-5.3-0.9-7.7-3.6-7.2-6.6zm34.2-13.1c-2.8-0.6-5-4.1-4.4-7.1c0.6-3.1 3.8-5.3 6.8-4.7c2.9 0.6 4.3 3.3 3.6 6.8c-0.7 3.5-3.2 5.6-6 5zm-19.7-29.6c-3.3-0.6-4.8-2.9-4-6.1c0.7-3.4 3.6-5.5 6.6-4.9c2.8 0.6 4.4 3.3 3.7 6.5c-0.7 3.3-3.2 5.1-6.3 4.5zm43.6 2.5c0.7-2.8 3.4-4.5 6.6-3.7c2.8 0.6 4.9 2.1 4.5 5.5c-0.4 3.2-3.6 5.3-6.8 4.7c-3-0.6-5-3.6-4.3-6.5zm-241.3-44.5c0.4-2.8 3.2-5 6.1-4.6c3 0.4 5.4 3.3 5 6.2c-0.5 2.9-3.5 5-6.5 4.5c-2.9-0.5-5-3.3-4.6-6.1zm-36.9-7.8c-0.7 3.4-3.4 5.3-6.7 4.6c-3.2-0.6-4.5-2.7-3.9-5.8c0.6-3.3 3.6-5.4 6.8-4.8c2.8 0.5 4.3 3 3.8 6zm-29.8 20.9c-0.6 3.5-3.3 3.7-6.1 3.4c-3.4-0.4-5.3-2.6-4.8-5.5c0.6-3 3.6-5.3 6.3-4.9c2.6 0.5 5.1 4.1 4.6 7zm241.5 45c-0.4 3.2-2.8 3.5-5.3 3.4c-3.8-0.3-6.3-2.7-5.9-5.6c0.4-2.7 3.2-5 5.9-4.7c3 0.3 5.7 3.7 5.3 6.9zm-68.6-164.1c-0.6 3.1-3.5 5.2-6.3 4.5c-3-0.7-4.6-2.6-4-5.9c0.7-3.4 3.4-5.3 7.3-4.5c2.5 0.7 3.6 2.8 3 5.9zm-134.1 125.6c0.5-2.8 3.7-5.1 6.5-4.5c3.1 0.5 4.1 2.7 3.6 5.6c-0.6 3.4-3.1 5.6-5.9 5.1c-2.7-0.4-4.7-3.4-4.2-6.2zm182.2-116c-0.9 3.1-3.2 4.5-6.3 4.2c-2.9-0.2-5.1-3.5-4.4-6.5c0.8-3 2.8-4.3 5.3-4c3.9 0.8 6.2 3.6 5.4 6.3zm172.3 82.7c0.5-2.7 3.4-4.9 5.8-4.4c2.5 0.5 5.8 5.6 4.6 8c-0.8 1.5-2.9 2.4-3.7 3c-4.8-0.9-7.2-3.7-6.7-6.6zm-324.9-231.4c-3.2-0.8-4.3-3-3.6-6c0.6-3 3.4-4.7 6.3-3.9c3.1 0.7 4.4 2.7 4 5.5c-0.7 3.4-3.6 5.2-6.7 4.4zm64 157.9c0.6-2.8 3.8-5.3 6.5-4.9c2.5 0.4 4.8 4.1 4.1 6.9c-0.8 3.4-3.5 3.5-5.9 3.3c-3.7-0.8-5.2-2.6-4.7-5.3zm62.7-33.9c-2.9-0.5-4.6-3.2-3.9-6.3c0.7-3.2 2.7-4.5 5.9-3.8c3 0.6 5 3.3 4.4 6c-0.5 2.8-3.5 4.7-6.4 4.1zm-185.9 161c0.4-2.9 3.3-5.6 5.6-5.2c2.5 0.3 4.7 4.4 4.3 7.7c-0.4 3.2-2.7 3.6-5.1 3.5c-3.2-0.5-5.2-3.1-4.8-6zm284.6-17.7c-3.2-0.2-4.8-1.9-4.6-5.2c0.2-3.2 2.5-5.3 5.5-5c2.8 0.2 5.1 2.7 4.8 5.3c-0.2 2.9-2.8 5.1-5.7 4.9zm12.3-228.1c0.5-3.2 2.8-4.9 5.9-4.3c3.2 0.6 4.5 2.6 4 5.7c-0.4 3-3.1 5-5.9 4.6c-2.7-0.5-4.4-3-4-6zm-77.9 306.2c2.9 0.5 5.2 3.4 4.6 6c-0.5 2.8-4.3 5.3-7.1 4.6c-3.1-0.8-2.9-3.3-2.7-5.5c0.6-3.8 2.5-5.5 5.2-5.1zm-98-8c-2.7-0.4-4.8-3.8-4.2-6.7c0.6-2.8 2.4-4.1 5.2-3.6c3.2 0.5 5.4 3.3 4.9 6.2c-0.5 2.7-3.1 4.6-5.9 4.1zm-51.4 34.7c-0.7 3.4-3.4 3.9-6.2 3.3c-2.7-0.5-5.3-1.6-5.1-5.1c0.2-2.6 3.7-4.5 6.9-3.9c3.1 0.6 5 2.9 4.4 5.7zm86.3-58.9c-0.5 2.8-3 4.5-5.9 3.8c-3-0.7-5.5-3.9-4.7-6.3c0.9-3 3.2-3.9 6-3.6c3.2 0.6 5.1 3.3 4.6 6.1zm-68.2-37.2c-0.7 3.1-3 3.9-5.8 3.5c-3-0.5-5.3-3.5-4.6-6.3c0.7-2.9 2.6-4.1 5-3.9c3.7 0.7 6.1 3.9 5.4 6.7zm178.8-216.4c0.5-2.7 4.1-5.1 6.6-4.7c2.6 0.4 4.4 3.5 3.7 6.5c-0.7 3.4-3.3 3.6-6.2 3.5c-2.4-1-4.8-2.1-4.1-5.3zm-217.6 158.7c-0.6 2.7-3.6 4.4-6.6 3.6c-3.1-0.7-3.9-2.9-3.5-5.7c0.4-2.9 3.1-4.7 5.8-4.1c3 0.6 4.9 3.5 4.3 6.2zm154.4-316.6c-3.2-0.5-5-3-4.4-6c0.6-3.3 2.7-4.5 5.8-3.9c3.1 0.6 4.6 2.5 4.3 5.8c-0.7 2.9-2.5 4.5-5.7 4.1zm-89.4-191.5c-3.1 0-5.5-3.7-4.7-6.6c0.7-2.7 2.6-4 5.4-3.6c2.9 0.4 4.9 3.9 4 8.5c-1.1 0.4-2.9 1.8-4.7 1.7zm27.5 520.6c2.8 0.7 4.3 2.6 3.8 5.6c-0.5 3-3.6 5.7-6.2 5.2c-4-0.6-2.9-3.7-3-6c0.6-3.6 2.7-5.5 5.4-4.8zm120.1 127.7c0.4-2.8 3.5-5.2 6-4.6c2.4 0.6 4.5 4.2 3.9 7c-0.6 3.1-2.8 3.5-4.9 3.2c-3.6-0.7-5.4-2.9-5-5.6zm-112.5-176.9c2.1 0.4 4.3 4.8 3.8 7.8c-0.6 2.7-2.5 3.6-5.1 3.3c-3-0.4-5-3.1-4.5-6c0.4-2.7 3.6-5.4 5.8-5.1zm198-378.3c-2.8 0.2-5.6-3.5-5-6.2c0.6-3 2.8-4 5.6-3.6c3.1 0.4 5 3 4.2 7.4c-1.1 0.6-2.9 2.2-4.8 2.4zm-273.2 145.4c-0.7 2.7-2.8 3.5-5.3 3.1c-3-0.4-5.6-4.2-4.4-6.9c0.8-1.6 2.8-2.8 3.7-3.6c4.1 1 6.7 4.7 6 7.4zm46.8 253.1c2.7 0.2 5.2 3.6 4.9 6.3c-0.3 2.6-3.4 5.1-6 4.7c-3.8-0.7-3.4-3.7-3.4-6.1c0.4-3 1.4-5.1 4.5-4.9zm62.3-34.4c-0.5 3.3-3.3 5.4-6.2 4.7c-2.9-0.8-4-2.8-3.6-5.7c0.5-3.1 3.4-5.1 7-4.3c2.3 0.6 3.3 2.5 2.8 5.3zm-161.2-98.1c-2.2 0.3-4.1-4.3-3.3-7.5c0.6-2.2 1.7-3.9 4.4-3.4c2.9 0.6 5.2 4.1 5 8.1c-2 1-4 2.6-6.1 2.8zm147.4-152.6c0.2-3.3 3.6-5.8 6.4-5.2c3 0.8 3.7 3.1 3.2 5.9c-0.6 3.1-3.6 4.9-7.9 4c-0.4-1.1-1.7-2.9-1.7-4.7zm-22.5 14.8c2.6 0.5 4.9 4.2 4.2 6.8c-0.9 3.1-3.4 4-6.2 3.5c-3.2-0.7-3.6-3.4-3.4-6.3c1-2.4 2.2-4.7 5.4-4zm172.1 386.9c0.5-2.8 2.4-4.1 5.2-3.8c2.9 0.4 5.6 3.5 5.2 6c-0.4 2.5-3.3 4.4-6 3.9c-2.8-0.5-5-3.5-4.4-6.1zm-87.7-140.9c-0.7 3-2.9 4-5.8 3.6c-2.8-0.3-5.4-3.4-4.5-5.9c0.7-1.9 2.8-3.2 3.7-4.1c4.2 0.7 7.1 3.9 6.6 6.4zm-145.3-447.8c-3.2-0.5-5.6-3.7-4.9-6.6c0.7-2.9 2.8-3.7 5.4-3.3c3.1 0.4 5.2 3.3 4.6 6.6c-0.6 2.4-2.3 3.7-5.1 3.3zm28.7 400.7c-0.8 3.4-3.7 3.9-6.7 3.3c-2.4-0.4-4.7-1.4-4.1-4.7c0.5-2.7 3.9-4.7 7.3-4c2.2 0.8 4.2 2.5 3.5 5.4zm149.6-26.5c2.9 0.5 5.1 3.5 4.6 6.1c-0.5 2.6-3.8 5.2-6.2 4.5c-3.2-0.9-3.3-3.7-3.2-6.3c0.7-2.6 1.7-4.8 4.8-4.3zm-234.8-83.9c-3-0.6-4-2.5-3.5-5.3c0.6-2.9 3.8-5.6 6.3-5c3.1 0.8 3.5 3.2 3.3 5.5c-0.7 3.6-3.1 5.4-6.1 4.8zm16.5-52.5c-0.7 3-2.8 4.2-5.7 3.7c-3.2-0.5-4.4-2.8-4-5.8c0.5-3 2.4-4.4 5.2-4.2c3.1 0.6 5.2 3.5 4.5 6.3zm120.1 372.1c0.7-3.1 2.7-4.5 5.8-3.9c3.1 0.7 4.5 2.8 4.1 5.9c-0.6 3.2-2.9 4.1-5.7 3.7c-3.4-0.7-4.9-2.5-4.2-5.7zm-38.6-436.6c2.8 0.9 4.3 3 4 6.1c-0.3 2.6-3.2 4.3-6 3.8c-2.8-0.5-4.6-3.1-4-5.9c0.5-2.5 3.6-4.7 6-4zm-137.8 229.8c-0.8 2.8-3.1 3.7-5.7 3.1c-2.8-0.7-4.8-2.6-4.2-5.8c0.6-2.9 2.4-4.3 5.3-4c2.9 0.6 5.4 4.2 4.6 6.7zm176.6-172.3c2.8 0 5 3.6 4.6 6.4c-0.5 2.7-3.3 4.8-5.7 4.2c-2.4-0.5-4.1-4-3.3-8.5c1-0.5 2.7-2.1 4.4-2.1zm-142 358.8c-2.9-0.8-4-2.9-3.6-5.8c0.4-2.9 3.7-5.7 5.9-4.5c1.8 1 2.9 3.3 4.3 5.1c-1.3 3.4-4.2 5.8-6.6 5.2zm458.4 55.3c0.9-1.7 3.1-3.5 5-3.9c2.3-0.4 6.1 4.8 5.2 7c-0.6 1.5-2.7 2.3-3.4 2.9c-4.7-0.9-7.8-3.8-6.8-6zm-290.7-684.8c2.6 0.5 4.7 3.6 4.3 6.4c-0.4 2.7-3.2 4.9-5.8 4.3c-3.3-0.8-3.7-3.4-3.7-5.9c0.6-3.3 2.8-5.2 5.2-4.8zm-80.9 65c-0.8 3.1-3.1 4-5.9 3.4c-2.8-0.7-4.8-2.5-4.1-5.8c0.5-2.9 2.6-4.1 4.9-3.7c3.7 0.7 5.8 3.4 5.1 6.1zm61 337.2c-0.7 2.8-2.8 3.8-5.5 3.3c-2.9-0.5-4.9-3.7-4.2-6.7c0.6-2.5 2.1-3.9 4.9-3.3c3 0.6 5.6 4 4.8 6.7zm197.7 116c-2.7-0.7-5.3-1.8-5-5.2c0.3-2.6 3.8-4.9 6.3-4.3c2.5 0.5 4.7 3.9 4.1 7.1c-0.7 2.2-2.8 2.9-5.4 2.4zm-198.9-536.4c-2.6-0.1-4.5-3.1-3.7-6c0.7-2.8 2.4-5.1 5.6-4.4c3 0.6 4.1 3.1 4 6.1c-0.9 2.9-2.9 4.5-5.9 4.3zm-128.8 426.6c-2 0.6-4.3-4.2-3.8-7.3c0.5-2.7 2-3.9 4.8-3.5c2.9 0.4 5 3.1 5.1 6.9c-2 1.4-3.9 3.3-6.1 3.9zm-100.8-25.3c0.5-2.8 2.2-4.5 5.3-4.1c2.8 0.4 5.1 3.5 4.5 6.1c-0.7 2.9-2.8 4-5.8 3.6c-2.9-0.6-4.6-2.4-4-5.6zm153.2 273.7c2.9 0.5 4.3 2.5 4.2 5.4c-0.2 3.2-2.4 4.7-5.4 4.5c-3-0.3-4.6-2-4.6-4.7c0.4-3.3 3.1-5.7 5.8-5.2zm12.7-41.9c-0.8 1.6-3.2 3.1-5 3.3c-2.9 0.3-5.7-3.4-4.7-6c0.6-1.8 2.6-3.2 3.5-4.2c4.4 0.8 7.4 4.5 6.2 6.9zm121.9-673.4c-2.9-0.2-6-4.5-4.7-6.7c1-1.5 3.5-2.8 5.3-2.9c3-0.1 5.1 3.4 4.1 7.7c-1 0.5-2.9 1.9-4.7 1.9zm-38.4 438.2c0.3-2.5 3.8-4.4 6.5-3.7c3 0.8 4.1 3 3.7 5.8c-0.5 3.1-2.9 3.8-5.8 3.6c-2.5-1.1-4.9-2.3-4.4-5.7zm45.6 315.2c-3.2-0.6-2.6-3.2-2.3-5.4c0.5-3.3 3.5-5.9 6-5c1.7 0.7 2.9 2.6 3.7 3.5c-0.7 4.5-4.5 7.5-7.4 6.9zm-46.7-10.6c-3-0.6-4.6-3-3.8-5.8c0.8-2.7 2.5-4.3 5.6-3.7c2.8 0.5 4.7 3.5 4.1 6.2c-0.6 2.6-3 3.9-5.9 3.3zm-165.5-190.5c2.9 0 6 4.2 4.7 6.5c-0.8 1.6-3.3 3.1-5 3.2c-3 0.1-5.1-3.3-4.3-7.7c1-0.5 2.8-2 4.6-2zm331.1-133.1c-0.9 3-3.3 4-6.2 3.6c-2.8-0.4-4.5-3.2-3.8-6c0.7-2.6 2.4-4 4.5-3.6c3.9 0.7 6.2 3.4 5.5 6zm-155.1 266.4c2.7 0.4 4.9 3.3 4.4 5.7c-0.5 2.6-3.5 4.3-6.6 3.6c-2.9-0.5-4.1-2.2-3.7-5.2c0.9-2.9 2.7-4.5 5.9-4.1zm-105.8-339.9c-0.8 2.9-3.1 3.8-5.9 3.3c-3.1-0.6-4.5-2.8-4-5.8c0.5-2.8 2.2-4.5 4.4-4.1c4 0.8 6.3 4 5.5 6.6zm195.7-143.8c2.5 0.5 4.8 4 4.3 6.5c-0.4 2.5-3.4 4.4-6.1 3.7c-3.1-0.7-3.7-3.1-3.4-5.9c0.8-2.5 2-4.8 5.2-4.3zm128.3 384c-3-0.8-3.9-3.1-3.4-5.9c0.5-2.8 2.1-4.6 5.2-4.3c2.8 0.3 4.5 3 4 6c-0.6 2.9-3.1 4.9-5.8 4.2zm-216.2 54.7c0.8-3.2 3.7-3.9 6.7-3.5c3 0.4 4.4 2.5 3.9 5.4c-0.5 3.1-3 3.6-6.1 3.3c-2.3-0.8-5.3-1.6-4.5-5.2zm-198.6-242.1c2.3-0.2 5.1 4.3 4.4 6.6c-0.8 2.8-3.1 4-5.9 3.7c-2.6-0.3-4.1-3.1-3.1-7.7c0.9-0.6 2.6-2.4 4.6-2.6zm-12.4 177.8c0.6-3 2.4-4.8 5.6-4.5c2.7 0.3 4.5 3.2 3.9 6c-0.7 3.2-3 4.1-6 3.8c-2.7-0.8-4.1-2.5-3.5-5.3zm158.5-320c0.6-2.8 2.9-4.8 6.1-4.6c2.6 0.2 4.8 3.4 4.1 5.8c-1 3.3-3.6 3.8-8 3.3c-0.6-1.1-2.4-2.9-2.2-4.5zm-15.2 222c0.3-2.8 1.5-5.2 5-4.9c3.1 0.3 4.7 2.4 4.5 5.4c-0.2 3.2-2.1 4.8-5.6 4.6c-2.6-0.4-4.2-2-3.9-5.1zm-8 172.8c0.7-3.2 3-4.3 6-3.7c3.1 0.7 4.5 2.9 3.9 5.9c-0.6 3-2.8 4-5.8 3.6c-2.7-1-4.7-2.6-4.1-5.8zm94.4-182.4c-0.5 3.1-2.7 4-5.6 3.5c-2.9-0.6-4.5-2.3-4-5.4c0.5-2.9 2.4-4.3 5.4-4c2.9 0.9 4.7 2.7 4.2 5.9zm-111.7-100.6c2.6-0.2 5.1 3.5 4.7 6c-0.4 2.5-3.4 4.3-6.2 3.6c-2.9-0.8-3.9-2.9-3.5-7.2c1.3-0.6 3.1-2.3 5-2.4zm74.6-126.5c-2.8 0.1-4.6-3.2-4-6.2c0.6-2.8 2.4-4.1 5.2-3.6c2.9 0.5 4.7 3.4 3.8 7.7c-1.1 0.5-3 2-5 2.1zm-125.9 297c-0.4 2.9-2.5 4-5.3 3.5c-2.9-0.6-5-2.1-4.8-5.4c0.2-2.6 3.2-4.4 6.2-3.9c2.7 0.8 4.4 2.7 3.9 5.8zm275.8-568c-3.2-0.6-3.9-3.4-3.3-6.2c0.5-2.5 2-4.4 5-3.9c2.5 0.4 4.5 3.7 3.9 7c-0.8 2.2-2.8 3.7-5.6 3.1zm-175 667.7c-2.8-1.2-3.5-3.7-2.8-6.3c0.7-3.1 3.2-4.6 6-3.5c1.7 0.7 2.8 2.8 3.6 3.7c-1 4.1-4.6 6.9-6.8 6.1zm218.5-740.1c-0.4 2.4-1.8 3.9-4.4 3.5c-3-0.4-6.1-4-5-6.5c0.7-1.7 2.9-2.7 3.8-3.4c4.3 0.8 6.2 3.5 5.6 6.4zm-81.6 814.6c-3.1 0-4.9-3-4.1-6c0.8-2.8 2.6-4.5 5.6-4.1c2.4 0.4 4 3.8 3.1 8.3c-1 0.4-2.8 1.8-4.6 1.8zm-296-185.6c0.6-2.6 2.2-4.3 5.1-4c2.6 0.4 5.5 4 4.6 6.5c-0.7 1.7-2.7 2.9-3.5 3.7c-4.4-0.7-6.7-3.5-6.2-6.2zm257.7-546.5c-2.5 0.2-4.8-3.5-4.1-6.2c0.6-2.7 2.3-4.2 5.2-3.8c2.5 0.4 4.5 3.9 3.7 7.9c-1.1 0.5-2.9 2-4.8 2.1zm29.5 476.9c0.3-2.9 3.6-5.8 6.1-5.2c3.5 0.9 3.2 3.8 2.9 6.5c-0.2 2.9-1.8 4.2-4.7 4c-2.8-0.7-4.6-2.3-4.3-5.3zm48.8-66.9c-0.9 2.8-3.1 4-5.9 3.3c-3.1-0.7-4.4-3-3.7-6c0.6-2.7 2.4-4 4.6-3.7c3.6 0.8 5.8 3.8 5 6.4zm-32.4-231.7c-0.6 3.2-3.3 4.1-6.2 3.8c-2.5-0.3-4.2-1.7-3.8-4.6c0.4-2.8 3.3-5.1 6.4-4.6c2.4 0.7 4.1 2.6 3.6 5.4zm-86 60c-0.7 2.6-2.5 3.7-5.1 3.2c-3-0.5-5-3.5-4.3-6.6c0.6-2.6 2.3-3.8 4.6-3.4c3.1 0.7 5.4 4.1 4.8 6.8zm-10.3-127.5c0.4-2.6 1.8-4.2 4.5-4c2.4 0.2 5.4 3.9 4.6 6.1c-0.8 2-2.7 3.4-4.1 5.1c-3.2-1-5.3-4.3-5-7.2zm-236.4 380.7c-0.4 2.7-3.2 4.3-6.2 3.5c-2.8-0.6-3.9-2.6-3.4-5.3c0.5-2.8 2.2-4.5 4.9-4.2c3 0.6 5.1 3.5 4.7 6zm350.2-30.1c-3.1-0.6-4.2-2.8-3.6-5.6c0.6-3 2.7-4.5 5.9-3.9c2.8 0.6 3.8 2.6 3.4 5.5c-0.9 2.5-2.5 4.6-5.7 4zm-259.3 52.6c-3-0.9-4.1-3.4-3.7-6.2c0.5-3.2 3.1-3.9 5.8-3.4c2.8 0.5 4 2.4 3.7 4.9c-0.6 3.1-3.5 5.4-5.8 4.7zm176.1-247.6c-0.5 2.9-2.4 4-5.1 3.7c-3.1-0.3-5.2-3-4.6-5.8c0.5-2.8 2.1-4.2 4.6-3.9c3.3 0.6 5.6 3.3 5.1 6zm-231.3 107.7c-0.1-2.6 4-5.3 6.4-4.6c2.7 0.8 4.5 2.6 4 5.6c-0.4 2.5-3.7 4.1-8.1 3.2c-0.5-0.9-2.1-2.5-2.3-4.2zm276.3 156.7c-1.6-1.1-2.6-3.8-2.6-5.8c0-2.9 2.3-4.8 5.1-4c1.8 0.6 3 2.9 4 3.8c-0.9 4.2-4.7 7.4-6.5 6zm-214.8-315.3c-1.9 0.3-4.6-4.7-3.6-7.1c0.6-1.5 2.7-3.2 4.4-3.4c2.3-0.4 4.8 4 4.8 7.5c-1.8 1.1-3.6 2.6-5.6 3zm117.4 172.2c-1.8 0.4-4-4.2-3.4-6.8c0.5-2.7 2.3-3.8 5-3.3c2.8 0.6 4.4 2.3 3.8 6.9c-1.2 0.8-3.1 2.6-5.4 3.2zm147.1-228.5c-0.7 2.7-2.5 3.9-5.3 3.4c-2.6-0.5-4.9-3.9-3.8-6.4c0.7-1.7 2.8-2.8 3.6-3.6c4.1 0.9 6.2 3.8 5.5 6.6zm-18.4-198c-2.7-0.9-3.6-3-3.1-5.6c0.6-2.9 2.4-4.9 5.6-4.4c2.9 0.5 4 2.8 3.7 5.4c-0.6 3-3.7 5.3-6.2 4.6zm85.2 615.1c-2.8-0.7-3.9-2.8-3.3-5.5c0.5-3 2.1-5.1 5.4-4.5c3 0.6 4 2.9 3.8 5.5c-0.6 3.1-3.3 5.1-5.9 4.5zm-85-319.6c-0.9 2.7-2.7 4.4-5.7 4c-2.3-0.3-4.3-4.1-3.2-6.9c0.6-1.6 2.4-2.8 3.2-3.6c4.1 0.8 6.4 4 5.7 6.5zm-212.3 304.9c2.6-0.1 5.3 3.6 4.6 5.9c-0.9 3.1-3.4 4-6.2 3.6c-3.2-0.5-3.8-2.9-3.5-7c1.3-0.7 3.1-2.3 5.1-2.5zm-15.2-22.6c-1 3-3.3 3.7-6.1 3c-2.7-0.7-4.6-2.4-3.9-5.4c0.7-3 3-4 5.9-3.4c2.9 0.6 4.9 3.3 4.1 5.8zm-14.9 50.7c-2.7-0.6-4-2.5-3.3-5.3c0.7-2.8 2.4-4.3 5.5-3.8c2.8 0.5 4.6 3.2 4 5.9c-0.9 3.1-3.3 3.9-6.2 3.2zm51.8-169.9c0.6-2.6 2.2-4.3 5.1-3.8c2.6 0.5 5.4 4.6 4.3 6.7c-0.9 1.6-3.1 2.4-4.1 3.1c-4.1-1.1-6-2.8-5.3-6zm130.8-375.5c-0.3 2.8-2.2 3.8-4.9 3.4c-3.1-0.4-5.9-3.2-4.9-5.5c0.8-1.8 3-3 4-3.9c4.4 1 6.1 2.9 5.8 6zm-4.8 424.6c-0.1 2.5-3.1 4.4-6 3.9c-2.7-0.5-4.1-2.3-3.7-5.1c0.4-2.8 1.9-4.6 5.1-4.4c2.8 0.8 4.8 2.5 4.6 5.6zm-48.3-439.7c2.7 0.5 4.3 2.6 4.1 5.5c-0.2 2.7-3.5 4.9-6.3 3.8c-1.6-0.5-2.6-2.4-3.5-3.2c1.1-4.1 2.3-6.7 5.7-6.1zm-83.7 319c-2.9-0.3-4.7-1.9-4.2-5c0.4-2.9 2.3-4.6 5.2-4.2c2.9 0.3 4.5 2.1 4.4 5.1c-0.6 3.1-2.4 4.5-5.4 4.1zm140.3 71.7c-0.2 3.2-3.2 3.9-6 3.5c-2.4-0.3-4.5-1.3-4.3-4.2c0.1-2.5 3.9-4.9 7.7-5c0.9 1.9 2.7 3.9 2.6 5.7zm-22.1-573.6c-2.9-0.8-3.5-3.3-3-6c0.5-2.7 2.2-4.6 5-3.9c3 0.7 4 3.3 3.8 6.5c-1.1 2.3-2.8 4.2-5.8 3.4zm-143 98.5c-2.9-0.7-3.7-3.2-3.3-6c0.5-2.8 2.2-4.9 5.1-4.2c3 0.7 3.8 3.4 3.8 6.1c-0.9 3-2.8 4.7-5.6 4.1zm251.6-13.8c2.7 0.4 4.9 3.2 4.3 5.7c-0.9 3.1-3.3 4.5-6.1 3.6c-1.6-0.5-2.7-2.6-3.5-3.4c0.8-4.5 2.8-6.3 5.3-5.9zm-209.3 186.2c2.7 0.4 4.9 3.7 4.3 6.2c-0.6 2.8-2.7 3.5-5.2 3.1c-3.1-0.5-4.5-2.4-4.3-5.5c0.7-2.9 2.3-4.3 5.2-3.8zm13.2 327.5c2.6 0.1 5.4 4.6 4.1 6.7c-0.9 1.4-3.2 2.7-4.9 2.7c-2.8 0-4.8-3.4-3.9-7.5c1.1-0.5 2.9-1.9 4.7-1.9zm81.5-4.3c-0.6 3.1-3.1 3.9-5.8 3.3c-2.6-0.5-4.5-2.1-4-5c0.6-3.1 2.9-3.9 5.9-3.8c2.4 0.9 4.5 2.5 3.9 5.5zm6.5 70.7c2.5-0.3 4.8 3 4.3 5.6c-0.4 2.9-2.5 4-5.2 3.6c-3-0.3-4.3-2.2-4.1-6.5c1.3-0.7 3-2.4 5-2.7zm-182.7 175.7c-2.6-0.7-3.6-2.7-3-5.2c0.6-2.9 2.5-4.9 5.6-4.5c3 0.4 3.6 2.8 3.3 5.5c-0.6 2.8-3.4 4.9-5.9 4.2zm199-397.4c2.7-0.1 5.3 3.5 4.7 5.9c-0.8 3.1-3.1 3.8-5.9 3.2c-3-0.6-4.1-2.7-3.5-7c1.1-0.5 2.9-2 4.7-2.1zm18.7-96.4c2.7 0.9 4.1 2.8 3.7 5.8c-0.4 2.5-3.7 4.6-6.2 3.5c-1.7-0.8-2.9-3-4.4-4.5c1.5-3.4 4.5-5.5 6.9-4.8zm-183.2 420.6c0.4-2.8 2-4.8 5.1-4.3c3.1 0.4 4.7 2.5 4.3 5.6c-0.4 3.2-2.6 4-5.8 3.6c-2.4-0.5-4.1-2-3.6-4.9zm96.8 68.1c-0.6 3-2.8 4.1-5.7 3.7c-2.8-0.4-4.7-2.1-4.3-5.2c0.4-3.2 2.9-3.7 5.6-3.7c2.6 0.8 5 1.9 4.4 5.2zm-141.3 52.5c-1.5-0.8-3-3-3-4.6c-0.1-2.4 4.5-4.8 6.8-3.8c1.6 0.7 2.6 2.6 3.3 3.4c-1.2 4.3-4.4 6.4-7.1 5zm401.6-399.8c-2.5 0.2-4.5-3.5-3.9-6.3c0.5-2.7 2.4-3.7 5-3.3c3 0.6 4.5 2.5 3.9 7.1c-1.2 0.6-3 2.3-5 2.5zm-337.4 307.8c0-2.8 2.3-4.6 5.2-4c2.8 0.5 4.4 2.6 4 5.5c-0.5 3.1-2.7 4-7 3.5c-0.6-1.2-2.2-3.1-2.2-5zm170.5-243.8c0.5-2.7 2.1-4.5 5-3.7c3.1 0.8 4.6 3.3 3.6 6.1c-0.6 1.7-2.9 2.9-4 3.9c-4.2-1.4-5.2-3.5-4.6-6.3zm-249.7 128.7c0.6-2.8 3.2-4 5.9-3.4c2.9 0.6 4.4 2.7 3.8 5.6c-0.5 2.5-2.3 3.9-4.5 3.3c-3.4-0.8-5.9-2.1-5.2-5.5zm241.8 96.1c-0.9 2.9-3.2 4.1-5.9 3.4c-2.8-0.7-4.2-3.2-3.2-5.9c0.6-1.6 2.6-2.8 4-4.1c3.6 1.4 5.8 4.3 5.1 6.6zm-208.3-490.3c-0.1 2.6-3.3 4.6-6.3 4.1c-2.6-0.4-3.7-2.1-3.1-4.5c0.6-2.6 1.5-5.3 5.1-5c2.8 0.7 4.4 2.5 4.3 5.4zm-16.7 172.1c0.5-2.6 1.9-4.5 4.9-4.1c2.4 0.3 4.5 3.7 4.1 6.5c-0.3 2.6-2 3.5-3.8 3.3c-3.7-0.6-5.6-2.9-5.2-5.7zm57.5 11.4c-0.8 3-3.1 3.7-5.9 3.1c-2.6-0.6-4.4-2.1-4-5c0.4-2.4 3.7-4.3 6.2-3.8c2.7 0.5 4.4 3.1 3.7 5.7zm268.4-150.4c0.3-2.7 2-4 4.7-3.7c2.8 0.3 5.6 3.7 4.6 6c-0.7 1.6-2.7 2.8-3.7 3.7c-4.2-1.1-6-2.9-5.6-6zm-392.5 227.5c0.5-2.7 2.3-4.2 5.2-3.9c2.5 0.2 5.3 3.6 4.3 5.7c-0.8 1.8-2.9 3-4 4.1c-3.9-1.4-6-2.8-5.5-5.9zm106.5 18.1c0.1 2.6-3.4 5-6 4.5c-2.5-0.5-3.9-2.2-3.5-4.9c0.4-2.7 3.4-4.7 7.6-4c0.4 1 1.8 2.6 1.9 4.4zm50.8-538.8c-0.6 2.6-2.4 3.3-4.8 2.9c-3-0.6-5.8-3.6-4.7-5.9c0.7-1.6 2.8-2.6 3.6-3.4c4.4 0.9 6.5 3.6 5.9 6.4zm52.6 333.7c0.4-2.3 1.9-4.2 4.7-3.7c2.5 0.4 5.1 4.3 4 6.8c-0.6 1.5-2.6 2.5-3.5 3.3c-4.2-1.3-5.7-3.3-5.2-6.4zm-209 236.6c-0.7 3-3.1 3.8-5.9 3.3c-2.8-0.6-4.1-2.5-3.4-5.2c0.8-2.8 2.6-4.2 5.7-3.7c2.8 0.9 4.3 2.7 3.6 5.6zm376.5-309.2c3.1 0.3 4.4 3 4 5.9c-0.3 2.6-2.2 4.1-4.8 3.6c-3.3-0.7-4.1-3.2-4-7.3c1.3-0.7 3.2-2.4 4.8-2.2zm-120.1 512c-2.9-0.5-3.9-2.6-3.2-5.4c0.7-2.6 2.3-4.7 5.4-3.9c2.9 0.8 3.9 2.9 3.6 5.8c-0.9 2.8-3 4.1-5.8 3.5zm83-14.4c-0.5 2.9-2.7 3.8-5.4 3.2c-2.9-0.6-4.4-2.5-3.8-5.5c0.5-2.7 2.3-4 5.3-3.6c2.8 0.9 4.4 2.9 3.9 5.9zm-224.3-562.8c-3.1-0.4-4.9-2.8-3.7-5.7c0.6-1.7 3-3.3 4.8-3.6c2.1-0.3 4.2 3.9 4 7.7c-1.7 0.6-3.5 1.8-5.1 1.6zm43.5 4.4c0.5-3.1 3.3-4.1 6.2-3.7c2.6 0.3 3.9 2.2 3.4 4.9c-0.5 2.6-3.4 4.3-7.5 3.4c-0.5-1.1-2.3-3-2.1-4.6zm121.7 176.5c-2.8-0.6-4.1-2.5-3.4-5.2c0.8-2.9 3-4.5 5.7-3.4c1.8 0.8 3 3 4 4c-1.3 4.3-3.4 5.3-6.3 4.6zm39 353.5c-1 1.5-3.4 2.9-5.2 3c-2.8 0.1-5.1-3.4-3.9-5.6c0.9-1.8 3.1-2.8 4.7-4.2c3.4 1.4 5.7 4.6 4.4 6.8zm-94-187.8c-3.1-0.6-4.2-2.9-3.6-5.7c0.6-3 3.3-4.1 5.8-3.3c1.6 0.6 2.7 2.8 3.8 3.9c-1.4 3.7-3.1 5.6-6 5.1zm31.4-198.9c0.3-2.9 3.1-4.3 6-3.9c2.6 0.3 3.9 2.3 3.5 4.9c-0.5 2.9-2.5 4.2-6.9 3.8c-0.7-1.1-2.8-3.1-2.6-4.8zm267.6 574.5c0.8-1.5 2.8-3.2 4.5-3.4c2.6-0.2 5.4 4.2 4.3 6.9c-0.5 1.3-2.4 2.1-3 2.6c-4.5-0.9-6.9-3.6-5.8-6.1zm-116.2-847.4c1-1.5 3.5-2.8 5.3-2.9c2.7-0.2 4.9 3.2 4.3 5.7c-0.6 2.4-2.2 3.5-4.8 2.8c-3.2-0.6-6-3.6-4.8-5.6zm-38.9 743.9c0.2-2.7 2.9-4.6 5.5-4c2.8 0.7 4.7 2.8 3.7 5.6c-0.5 1.7-2.9 2.9-4.5 4.3c-3.6-1.4-4.9-3.1-4.7-5.9zm141.8-594.9c-2.5 0-5-3.8-4.4-6.1c0.7-2.7 2.8-3.5 5.2-2.9c3 0.8 4.4 2.8 3.7 7.3c-1 0.5-2.8 1.8-4.5 1.7zm-41.6 483.8c2.5 0.5 4.7 2 4.2 4.9c-0.6 3-3.1 4.6-5.9 3.9c-1.8-0.5-3.1-2.7-4.1-3.7c1-4.3 2.8-5.6 5.8-5.1zm-94.2-567.2c2.3-0.2 5.3 3.7 4.3 5.6c-1 1.7-3.4 3.8-5.1 3.7c-3.1-0.1-3.7-3.1-3.8-7.2c1.2-0.6 2.8-2 4.6-2.1zm-75.4 564.7c0 3-2.4 4.3-5.4 3.8c-2.8-0.5-4.4-2.3-4-5.1c0.5-3 2.8-4 6.9-3.8c0.7 1.3 2.5 3.2 2.5 5.1zm-28.9 20.6c-0.6 2.9-3 3.7-5.5 3.1c-2.9-0.6-4-2.9-3.5-5.7c0.4-2.3 1.5-4 4.3-3.5c2.6 0.5 5.2 3.7 4.7 6.1zm123.2 117.6c2.6-0.2 4.7 3.1 3.9 5.7c-0.7 2.7-2.8 3.9-5.4 3.4c-2.8-0.6-4.2-2.6-3.6-6.9c1.2-0.6 3.1-2.1 5.1-2.2zm-215.3-610.4c0.2-2.9 2.5-4.3 5.4-3.9c2.8 0.4 4.3 2.4 3.8 5.1c-0.6 2.9-3 3.8-7.1 3.6c-0.6-1.3-2.2-3.1-2.1-4.8zm-19.9 266.2c2.7 0.8 4.4 2.8 3.7 5.7c-0.6 2.8-2.8 3.8-5.5 3.2c-2.9-0.6-3.9-2.5-3.4-5.4c0.7-2.5 2.3-4.2 5.2-3.5zm132.7-49.6c2.7-0.2 5.9 3.8 4.7 6.1c-0.8 1.4-3.2 2.8-4.9 2.8c-2.8-0.1-4.4-2.2-4.1-6.5c1-0.6 2.6-2.3 4.3-2.4zm67.3 342.5c-0.8 2.9-3 3.4-5.7 2.8c-2.8-0.7-4-2.6-3.4-5.3c0.6-2.8 2.4-4.1 4.9-3.7c3 0.6 5 3.6 4.2 6.2zm-348.9-191.9c1.9-1 4.2-3 5.7-2.5c1.6 0.6 3.3 3.2 3.6 5.2c0.5 2.3-3.2 4.5-5.5 3.4c-1.7-0.8-2.8-2.8-4.1-4.3q0.1-0.9 0.3-1.8zm288.6-449.5c2.8 0.4 4.5 2.8 4 5.8c-0.4 2.9-2.8 3.4-5.2 2.9c-2.9-0.7-4.2-2.6-3.7-6.9c1.2-0.5 3.2-2.1 4.9-1.8zm-190.5 224.7c-2.1 0.3-5-4.6-3.8-6.8c0.8-1.4 3.2-2.6 4.8-2.6c2.7-0.1 4.6 3.1 3.7 7.1c-1.1 0.5-2.8 2.1-4.7 2.3zm246.8 115.5c-0.3-2.3 3.5-4.4 6-3.8c2.8 0.7 4.1 3 3.2 5.4c-0.8 1.7-3 2.9-5.6 5.2c-1.7-3.1-3.4-4.9-3.6-6.8zm-84.1 183.2c1.9-0.9 3.9-2.6 5.7-2.4c2.7 0.2 4.5 2.6 3.8 5.5c-0.6 2.7-3.2 3.9-5.5 3.1c-1.8-0.7-3-2.9-4.4-4.4q0.2-0.9 0.4-1.8zm-308.7-32.7c-0.1 2.9-3.3 4.9-6.1 4.3c-2.5-0.5-3.5-2.2-3.1-4.7c0.4-2.8 3.3-4.8 7.6-4c0.4 1 1.7 2.7 1.6 4.4zm134.2 195.9c2.6 0.7 3.7 2.5 3.2 5.1c-0.5 2.8-3.5 5-5.9 3.9c-1.6-0.7-2.6-2.6-3.3-3.3c0.8-4.2 3.6-6.4 6-5.7zm83.7-849.8c-2.8-0.1-4.4-2.4-4-5.3c0.3-2.7 2.1-4.4 4.9-3.9c3 0.5 4 2.7 3.9 6.8c-1.2 0.7-3 2.4-4.8 2.4zm68.6 457.6c-0.4 3-3 4.6-5.9 3.6c-1.4-0.5-2.9-2.9-3.1-4.6c-0.2-2.6 3.1-4.4 6.9-4.3c0.8 1.8 2.4 3.7 2.1 5.3zm82.7 62c2.7 0 5.3 4 4.1 6c-0.9 1.5-3.2 2.8-4.9 2.9c-2.7 0.1-4.5-3.1-3.5-7.2c0.9-0.4 2.6-1.8 4.3-1.7zm102.1 393.4c2.5-0.2 4.6 3.4 3.9 5.9c-0.7 2.6-2.7 3.6-5.2 3.1c-2.8-0.6-4-2.8-3.5-7c1.2-0.5 3-1.9 4.8-2zm-194.6-701.7c-2.5-0.5-3-2.2-2.6-4.4c0.5-3.3 3.2-5.9 5.5-4.8c1.7 0.7 2.8 2.7 3.6 3.6c-0.8 4.1-3.8 6.1-6.5 5.6zm252.3-3.4c-2.6 0.1-4.7-3.3-4.2-6c0.5-2.6 2.2-3.7 4.6-3.2c3.2 0.7 4.2 2.9 4.1 7.1c-1.1 0.6-2.8 2-4.5 2.1zm67 703.6c2.5-0.1 4.4 3.6 3.9 6.5c-0.5 2.7-2.4 3.4-4.7 2.9c-3.2-0.8-4.1-3.1-3.5-7.5c1-0.5 2.6-1.9 4.3-1.9zm-531-519.6c0.7-1.7 2.9-3.4 4.7-3.7c2.2-0.4 5 3.9 3.9 5.8c-0.9 1.7-3 2.6-4.1 3.4c-3.8-1.1-5.6-3-4.5-5.5zm96.5 18.6c-0.3-2.4 3.2-4.8 5.5-3.6c1.6 0.9 3.3 3.2 3.4 5c0.2 2.7-2.1 4-6.4 3.6c-0.6-1.2-2.2-3-2.5-5zm-89.2-141.6c-0.5 1.5-2.9 3.1-4.5 3.2c-2.7 0-4.9-1.8-4.5-5c0.3-2.9 2.5-3.8 5.2-3.7c2.9 0.8 4.8 2.7 3.8 5.5zm224.8-163.8c2.4-0.2 4.3 3.5 3.6 6.4c-0.5 2.5-1.9 3.8-4.5 3.2c-3.2-0.7-4.1-2.9-3.8-7.1c1.2-0.7 2.9-2.3 4.7-2.5zm128.1 679.5c0.4 2.2-3.6 5.1-6.1 4.7c-2.9-0.5-3.2-2.8-2.9-5.2c0.3-2.8 1.9-4.3 6.2-3.9c0.7 1 2.4 2.6 2.8 4.4zm149.9 107.6c-3.1-0.1-4.1-2.6-3.6-5.4c0.4-2.6 1.7-4.6 4.8-4.2c2.5 0.3 4.1 3.2 3.3 7.5c-1 0.5-2.7 2.1-4.5 2.1zm-53-14.4c0.3-2.8 2.7-3.8 5.3-3.5c2.3 0.2 5 3.9 4 5.9c-0.8 1.5-2.8 2.4-3.7 3.1c-3.8-1.1-6-2.4-5.6-5.5zm-66.9 12.1c-0.5 1.5-3.1 3.3-4.8 3.3c-2.9 0-4.7-2.5-3.8-5.3c0.5-1.7 2.6-2.9 3.6-3.8c4 1.1 5.9 3.2 5 5.8zm-92.2-196.4c2.6 0.3 4.1 2.1 3.6 4.7c-0.6 2.9-2.8 5-5.7 4.4c-1.5-0.4-2.7-2.8-3.7-3.8c1.2-3.8 2.8-5.7 5.8-5.3zm110.1-195.5c-2.4-0.5-4.3-1.8-3.8-4.7c0.3-2.5 3.8-5.2 5.8-4.2c1.6 0.9 2.6 3 3.4 3.8c-0.8 4.3-2.6 5.6-5.4 5.1zm-37.1 315.3c0.2-3.1 3.4-5.8 5.7-4.7c1.4 0.7 2.9 2.8 3 4.3c0.2 2.5-3.9 5.4-7.4 4.8c-0.4-1.1-1.3-2.8-1.3-4.4zm22.5-472.1c-0.8 2.8-3 3.3-5.4 2.8c-2.7-0.6-4.2-2.4-3.8-5.3c0.4-2.5 2.1-3.6 3.9-3.3c3.5 0.7 5.9 3.6 5.3 5.8zm-428.8 416.8c1.1 2.5 0.3 4.4-2.2 5.5c-3.4 1.6-4.6 0.5-7.3-6.6c4.2-2.6 8-2.1 9.5 1.1zm264-472.2c-0.6 1.6-3 3.4-4.7 3.5c-2.4 0.2-4.7-3.9-3.6-6.4c0.7-1.4 2.7-2.3 3.6-2.9c4.1 1.1 5.9 3.1 4.7 5.8zm49.7 133.5c-0.7 1.5-3.5 2.9-5.3 2.9c-2.8-0.1-4.1-2.8-3.2-5.3c0.6-1.6 2.8-2.8 3.8-3.8c3.9 1.5 5.8 3.5 4.7 6.2zm80 190.1c0.5-1.6 2.6-3.4 4.2-3.7c2.5-0.4 5.9 3.8 4.8 5.6c-0.9 1.6-3 2.6-4 3.4c-3.9-1-5.9-2.5-5-5.3zm35.3-564.1c-2.8-0.2-4.1-2.7-3.6-5.6c0.4-2.5 2.2-4 4.8-3.6c3 0.5 3.8 2.9 3.5 6.9c-1.2 0.6-3 2.4-4.7 2.3zm-381.4 600.1c-2 0.8-4.1 2.2-6 2.1c-2.5 0-4-2.2-3.5-4.9c0.5-2.8 2.6-4.4 5.2-3.5c1.9 0.7 3.1 2.9 4.6 4.4q-0.1 1-0.3 1.9zm234-337.4c0.8 2 2.3 3.9 2.3 5.9c-0.1 2.5-2.4 3.9-5 3.4c-2.7-0.5-4.6-2.5-3.7-5.1c0.6-1.8 2.9-3 4.5-4.5q0.9 0.1 1.9 0.3zm28.7-189.1c0.5-3.2 3.4-4.3 6.1-3.6c1.3 0.3 2.9 2.7 3 4.2c0.2 2.5-3.1 4.4-7 4.4c-0.7-1.7-2.3-3.5-2.1-5zm-103.2 450.1c0.9 1.9 2.7 3.9 2.6 5.7c-0.2 2.8-2.9 3.7-5.4 3.2c-2.5-0.5-4.5-2.3-3.5-4.8c0.7-1.8 3-3 4.5-4.4q0.9 0.1 1.8 0.3zm210-59.5c2.6 0.6 4.3 2.4 3.9 5.1c-0.5 3.2-3.3 4-5.8 3.2c-1.6-0.5-2.8-2.6-3.7-3.5c1-4 2.7-5.5 5.6-4.8zm90.1-483.4c2.8 0.2 4.7 2.8 3.7 5.5c-0.6 1.5-3.3 3.2-5.1 3.2c-2.8 0-3.7-2.5-3.3-6.5c1.2-0.6 3-2.4 4.7-2.2zm-328.7 267.4c0-2.5 2.4-4.6 4.6-3.4c2 1 3.4 3.8 4 6c0.2 0.7-3 2.3-5.7 4.4c-1.4-3.2-3-5.1-2.9-7zm283.4 403.1c-0.1 2.9-2.6 4.2-5.5 3.6c-2.7-0.5-3.7-2.5-3.3-5c0.5-2.8 2.3-4.1 6.5-3.6c0.6 1.3 2.4 3.2 2.3 5zm-129.5-544.3c-0.9-1.8-2.5-3.6-2.4-5.3c0.3-2.9 3-3.9 5.6-3.6c2.6 0.3 4.4 2.4 3.5 4.7c-0.8 1.9-3.2 3.1-4.9 4.6q-0.9-0.2-1.8-0.4zm-6.1-86.1c1 1.9 2.7 3.8 2.7 5.7c0 2.7-2.2 4.2-5 3.6c-2.7-0.5-4.5-2.5-3.6-5.2c0.6-1.7 2.6-2.9 4-4.3q1 0.1 1.9 0.2zm-333.6 447.7c-3.7-0.1-3.4-3.3-3.2-5.9c0.2-3 2.1-3.2 4.5-2.8c2.8 0.5 4.1 2.2 3.6 6.4c-1.2 0.6-3.1 2.4-4.9 2.3zm184.4-345.4c0.6-1.6 3.3-3.3 5-3.2c2.8 0 4.6 2.5 3.7 5.3c-0.5 1.6-2.7 2.7-3.6 3.5c-4.2-1-6.1-2.8-5.1-5.6zm-39-58.1c0.8-1.4 2.9-2.7 4.4-2.8c2.4-0.1 4.8 4.2 3.7 6.5c-0.7 1.5-2.5 2.4-3.4 3.2c-3.4-0.8-5.9-4.7-4.7-6.9zm245.5 421.2c0.1-2.7 2.4-4.1 5.1-3.5c3 0.5 4.3 3.1 3.4 5.6c-0.5 1.7-2.8 2.7-5.4 5c-1.5-3.2-3.1-5.2-3.1-7.1zm-29.9-485.1c1.7 0.6 3.6 3.3 3.6 5.2c0.1 2.6-2.6 4.2-5.1 3.5c-1.6-0.5-2.8-2.6-5.2-5.1c3.1-1.8 5.3-4 6.7-3.6zm-209.2-59.4c0 2.6-2.4 3.8-4.9 3.3c-2.7-0.6-4.9-2.5-3.8-5.4c0.5-1.6 2.8-2.7 5.4-4.9c1.6 3.2 3.3 5.1 3.3 7zm170.8 507.1c0.4-2.3 1.6-4 4.3-3.7c2.3 0.3 5.2 4.4 4.2 6.5c-0.8 1.4-2.6 2.4-3.5 3.2c-3.9-1.2-5.4-3-5-6zm172.7-496.7c1.5 0.3 3.4 3 3.4 4.7c0.1 3-2.6 4.6-5.3 3.9c-1.6-0.4-2.7-2.7-5-5.3c3.2-1.6 5.2-3.6 6.9-3.3zm-272.1 782.3c-1.4-0.4-3.1-2.5-3.4-4.1c-0.4-2.1 3.9-5 6.2-4.2c1.5 0.6 2.6 2.3 3.5 3.2c-1.3 3.9-3.4 5.8-6.3 5.1zm129-425.1c-2.6-0.4-3.3-2.3-2.7-4.7c0.7-2.9 2.5-5.2 5.6-4.3c1.6 0.5 2.6 2.8 3.4 3.8c-1.1 4.3-3.3 5.6-6.3 5.2zm20.1-105.9c2.2-0.2 4.8 4.1 3.7 6.4c-0.6 1.4-2.7 2.8-4.3 2.9c-2.6 0.2-4.3-3-3.5-7.2c0.9-0.5 2.4-2 4.1-2.1zm-79.5-239.4c2.9 0.5 4.3 3.1 4 6c-0.3 2.5-2.1 3.8-4.6 3.3c-3.1-0.7-3.9-3.2-4-7.3c1.3-0.6 3.1-2.2 4.6-2zm-78.6 264.2c0.6-2.5 2.3-4 5-3.4c2.5 0.6 4.6 2.6 3.7 5.2c-0.5 1.7-2.9 2.9-3.9 4c-3.9-1.2-5.4-3-4.8-5.8zm187.5 89.3c-2.5-0.6-3.9-2.4-3.2-5.1c0.6-2.7 2.9-4.1 5.4-3.3c1.7 0.6 3 2.6 4.2 3.7c-1.6 3.9-3.6 5.3-6.4 4.7zm43.1 175.1c1 1.9 3.1 4.1 2.6 5.5c-0.5 1.7-3.2 3.9-5 3.9c-2.9-0.1-4-3-3.1-5.6c0.5-1.6 2.4-2.7 3.6-4.1q1 0.2 1.9 0.3zm60.3-35.2c-0.2 2.6-2.5 4.6-5.1 3.5c-1.5-0.7-3.1-3.3-3.2-5c0-2.8 2.4-3.9 6.5-3.4c0.5 1.2 1.9 3.1 1.8 4.9zm-120.7 378.7c-0.5 2.7-2.8 3.9-5.4 3.4c-2.9-0.5-4.2-2.7-3.4-5.3c0.5-1.6 2.3-2.8 3.5-4.1c3.4 1.6 5.9 2.9 5.3 6zm-208.5-910.7c-2.8-0.1-4.2-2.2-3.8-5.1c0.5-2.6 2.2-4.4 5.1-3.9c3.4 0.5 3.3 3.2 3.3 7.1c-1.2 0.5-3 2-4.6 1.9zm56.9 761c-1.4-0.5-3-3-3-4.6c0-2.8 2.2-4.9 5-4.2c1.7 0.4 2.8 2.6 3.8 3.7c-1.3 3.8-3 6-5.8 5.1zm-147.4-151.5c-1.3-0.3-2.6-3.2-2.5-4.8c0.1-2.8 1.9-5.5 5-4.7c1.4 0.3 2.3 3 3 4c-1.2 3.8-2.6 6.3-5.5 5.5zm378.6-310.1c1.7-0.8 3.3-2.2 5-2.4c2.6-0.1 4.7 3.1 4 5.4c-0.7 2.7-2.9 3.9-5.2 3c-1.6-0.7-2.7-2.8-4.1-4.2q0.2-0.9 0.3-1.8zm-111.6 625c2.8 0 3.6 2.7 3.2 5.3c-0.5 2.7-2.4 4.6-5.1 3.5c-1.6-0.6-2.7-2.7-4.9-5.2c3.1-1.7 4.9-3.7 6.8-3.6zm48.2-791c1.5 0.7 2.9 2.9 3 4.6c0.2 2.4-3.5 4.8-5.8 3.9c-1.4-0.6-2.3-2.4-2.9-3c0.8-4.4 3.4-6.7 5.7-5.5zm-187.6 45.1c0-2.6 1.6-5.2 4.7-4.3c1.6 0.4 3.7 2.8 3.8 4.4c0.3 2.9-2.3 4-6.4 4.3c-0.6-1.2-2.1-2.8-2.1-4.4zm156.4 279.4c0.2 2.4-3.7 5.3-5.1 4.1c-1.6-1.5-2.8-4-2.9-6.2c0-1.1 2.5-2.4 5-4.5c1.4 3 2.9 4.7 3 6.6zm21.2-402.5c0.8 2.1 2.4 4.2 2.4 6.2c-0.1 1.1-3.1 3-4.7 2.9c-2.7-0.3-4.5-2.7-3.6-5.5c0.6-1.6 2.6-2.6 4-3.9q0.9 0.1 1.9 0.3zm-162 455.5c-1.3-0.3-2.7-2.9-2.6-4.3c0.2-2.7 1.9-5.4 5.1-4.8c1.4 0.3 2.3 2.8 3.1 3.7c-1.3 3.7-2.5 6.3-5.6 5.4zm-17.3-458.6c0.2-1.3 2.8-2.9 4.4-3.2c2.3-0.3 5 3.8 3.9 5.8c-0.9 1.5-2.9 2.3-5.6 4.4c-1.4-3.2-3-5.2-2.7-7zm-1.5 295.8c1.7 1.2 3.4 3.7 3.5 5.8c0.2 2.6-2.3 3.3-4.8 2.7c-2.7-0.7-4-2.4-3.4-6.6c1.2-0.5 3.9-2.5 4.7-1.9zm242.6-250.8c0.5-1.4 3.1-3 4.6-2.9c2.7 0.2 4.7 2.6 3.9 5.4c-0.4 1.5-2.6 2.5-3.5 3.3c-4-1.1-6-3-5-5.8zm-390.5 352.3c0.7-1.6 3-3.3 4.8-3.6c2-0.3 4.5 4.1 3.4 6.1c-0.8 1.5-2.8 2.4-3.7 3.1c-3.9-1.1-5.6-3-4.5-5.6zm7.8-172.8c0.3-2.7 2.1-5 5.1-4.1c1.5 0.4 3.2 2.7 3.5 4.4c0.5 2.2-3.1 4.4-7 3.9c-0.4-1-1.7-2.6-1.6-4.2zm377.4 0.5c-0.8-1.6-2.3-3.4-2.2-5c0.2-2.8 2.4-4.5 5.3-4c2.5 0.5 4.3 2.6 3.3 5c-0.8 1.8-3.1 2.9-4.6 4.4q-0.9-0.2-1.8-0.4zm-433.3 458.6c2.6 0.4 3.6 2.2 3.3 4.6c-0.3 2.6-3.5 4.8-6 3.8c-1.4-0.6-2.4-2.4-3.6-3.7c1.2-3.2 3.9-5.2 6.3-4.7zm102.4-576.1c0.5-1.6 2.9-3.2 4.7-3.6c2.2-0.3 4.9 3.6 3.8 5.4c-1 1.6-3 2.6-5.7 4.8c-1.4-3.1-3.2-5.2-2.8-6.6zm84.3 616.6c0.2-2.7 2.3-4.7 5.1-4.4c2.9 0.4 3.3 2.8 2.9 5.2c-0.4 2.8-2 4.2-6.3 3.8c-0.5-1.2-1.8-2.9-1.7-4.6zm47.7-742.1c-0.5 2.8-3.1 3.7-5.9 3.3c-2.6-0.4-4.3-2.3-3.2-4.4c0.9-1.9 3.5-2.9 6.5-5.2c1.3 2.9 2.9 4.8 2.6 6.3zm133.8 700.9c2-1.2 3.9-3.2 6-3.4c2.7-0.3 4.1 2.3 3.2 4.7c-0.7 1.6-2.8 2.7-5.1 4.9c-1.9-2.8-3-4.5-4.1-6.2zm63.7 90.9c-2.5-0.3-4.7-1.8-3.9-4.4c0.5-1.8 2.8-4.3 4.4-4.4c3.1-0.3 3.7 2.7 3.9 5.1c-0.2 3-2 3.9-4.4 3.7zm-29-780.5c-2.9-0.5-4.1-3.2-3.1-5.8c0.6-1.5 2.8-2.4 4.3-3.6c1.4 1.9 2.8 3.8 4.8 6.7c-2.8 1.4-4.5 2.9-6 2.7zm-116.4 198.8c0.4-2.9 2.9-4.5 5.6-3.3c1.5 0.6 3.6 3.7 3.2 4.3c-1.2 1.8-3.4 2.9-6.3 5c-1.3-2.9-2.8-4.6-2.5-6zm-169.1 417.2c0 2.5-3.5 5.1-5.8 4.1c-1.4-0.6-3.1-2.5-3.3-3.9c-0.2-2.5 3.5-4.6 7.4-3.9c0.4 0.8 1.6 2.3 1.7 3.7zm307.7 204.8c1.4 0.4 2.8 2.7 3 4.3c0.1 2.3-3.8 5-5.8 4.1c-1.5-0.7-2.4-2.6-3.1-3.5c1.3-3.8 3.1-5.7 5.9-4.9zm-136.4-876.4c1.2 0 3.3 2.8 3.2 4.4c0 2.8-2.6 4.5-5.3 3.9c-1.5-0.3-2.6-2.5-4.8-4.9c3.1-1.7 5.1-3.6 6.9-3.4zm-51.8 170.5c-1.7 0.8-3.4 2.3-5.1 2.3c-2.8 0-4.3-2.2-4.1-4.9c0.3-2.6 2.3-4.4 4.7-3.6c1.9 0.7 3.2 2.9 4.7 4.4q-0.1 0.9-0.2 1.8zm-77.5 11.2c-0.5 1.4-2.7 2.8-4.3 3c-2.3 0.1-5.1-3.9-4.1-5.9c0.7-1.4 2.5-2.3 3.4-3.1c3.8 1.3 5.9 3.1 5 6zm155.8 52.6c0.7-1.4 2.8-2.8 4.3-2.9c2.4-0.2 5.3 3.7 4.3 5.6c-0.8 1.5-2.7 2.4-3.5 3c-4.2-0.8-6.2-3.3-5.1-5.7zm84.3 371.1c-1-1.8-2.9-3.8-2.5-5.2c0.4-1.6 2.9-2.7 4.4-4.1c1.3 1.8 3.5 3.4 3.7 5.3c0.2 1.3-2.4 2.8-3.8 4.3q-0.9-0.2-1.8-0.3zm-144.8-531.1c-1.9 0.7-3.8 2.1-5.7 2.1c-2.4-0.1-4-2.1-3.6-4.8c0.4-2.7 2.3-4.4 4.7-3.4c1.9 0.7 3.3 2.8 4.9 4.3q-0.2 0.9-0.3 1.8zm-117.7 576.7c1.8-1.1 3.5-3 5.4-3.3c2.5-0.3 4.7 1.9 3.9 4.3c-0.6 1.8-3 3.6-5 4.1c-1.1 0.3-2.8-2.1-4.3-3.2q0-1 0-1.9zm46.5-66c-0.1 2.9-2.9 4.2-5.3 3.3c-1.5-0.6-3.3-3.1-3.1-4.5c0.2-1.7 2.5-3 4.9-5.4c1.7 3.1 3.6 4.9 3.5 6.6zm56-213.8c0-2.8 2.4-4.6 4.9-3.8c1.6 0.5 3.8 3.1 3.7 4.5c-0.2 1.7-2.8 3-5.4 5.5c-1.6-2.9-3.2-4.6-3.2-6.2zm-140.8 103c-0.8-1.7-2.8-3.9-2.3-5.1c0.6-1.6 3.3-3.4 4.8-3.2c1.5 0.2 3.8 2.9 3.6 4.3c-0.2 1.6-2.7 2.9-4.3 4.3q-0.9-0.1-1.8-0.3zm439.7-469c-2-1.3-3.4-3.5-5-5.4c1.4-1.1 2.9-3.1 4.3-3.2c2.9-0.1 4.4 2.2 4.6 6.3c-1 0.6-3.3 2.7-3.9 2.3zm-299.4 794.3c-2.6 0.3-3.7-2-3.3-4.3c0.5-2.8 2.3-4.9 5.2-4.1c1.5 0.3 2.6 2.5 4.9 5c-3.1 1.6-4.9 3.2-6.8 3.4zm107.1-283.9c-0.7 1.5-3.3 2.8-5.2 3c-2.4 0.1-3.9-1.8-3.4-4.4c0.6-2.8 2.6-3.9 6.7-3.3c0.5 1.2 2.4 3.5 1.9 4.7zm-161-100.7c-0.7-1.9-2.1-3.9-1.9-5.6c0.2-2.5 2.6-4.3 4.9-3.1c1.5 0.8 3.2 3.5 3 5.1c-0.2 1.5-2.8 2.7-4.3 4q-0.9-0.2-1.7-0.4zm104.8-289.1c2.6 0 3.8 2.4 3.2 5c-0.6 2.6-2.5 3.5-5.2 3.1c-2.5-0.5-3.7-1.9-3.8-5.6c2-0.9 3.9-2.5 5.8-2.5zm59.7 640.8c-0.2 2.9-2.8 3.6-5.5 3.2c-2.3-0.5-4-1.8-3.5-4.4c0.5-3 2.5-3.9 6.6-3.3c0.6 1 2.5 2.8 2.4 4.5zm51.1-540.3c-0.1 2.4-2 4.1-4.8 3.4c-2.8-0.6-4.2-2.8-3.4-5.3c0.4-1.5 2.5-2.5 4.9-4.7c1.6 3 3.3 4.8 3.3 6.6zm-62.1 33.6c1.8 1.4 3.7 3.6 3.9 5.6c0.4 2.7-2.5 3.6-4.6 2.8c-1.6-0.7-2.8-2.6-5.3-5c2.9-1.7 5.4-3.8 6-3.4zm55.8 265.1c-0.6 1.5-3.2 3-5 3.2c-2.5 0.1-4.5-2-3.5-4.5c0.7-1.7 2.8-2.8 5.4-5.1c1.5 3 3.5 5.2 3.1 6.4zm-248.8-426.8c1.4 0.5 3 3.1 2.9 4.6c-0.2 2.8-2.6 4.6-5.4 3.8c-1.4-0.4-2.3-2.4-3.1-3.3c1.2-3.7 2.6-6.2 5.6-5.1zm203.6 112.8c1.1 1.8 3 3.9 2.8 5.5c-0.3 1.3-3.2 3-5 3.1c-2.6 0.1-4-2.4-3.3-4.8c0.5-1.6 2.5-2.7 3.7-4.1q0.9 0.1 1.8 0.3zm20 584.5c-0.3 2.9-2.9 3.5-5.6 3c-2.6-0.5-4.2-2.4-3.1-4.9c0.7-1.6 3-2.5 5.6-4.5c1.5 2.9 3.3 4.8 3.1 6.4zm150.8-272.2c-0.6 1.5-3.4 2.9-5.2 2.9c-2.4 0-4.2-2.3-3.4-4.7c0.5-1.5 2.6-2.5 3.9-3.7c3.2 1.6 5.9 2.6 4.7 5.5zm-16.3 468.2c0.4-0.1 2.6 2.5 2.7 3.9c0.1 2.3-4.9 5.4-7 4.4c-1.1-0.5-1.6-2.2-3.1-4.3c2.9-1.7 5-3.2 7.4-4zm-362.3-763.4c0-2.7 2.2-4.8 4.7-4c1.6 0.4 3.7 3 3.6 4.6c0 1.4-2.5 2.8-4.8 5.2c-1.7-2.7-3.4-4.2-3.5-5.8zm-92.6 281.9c-1.9 0.9-3.8 2.4-5.7 2.5c-2.5 0.1-4.1-2.2-3.1-4.4c0.8-1.6 3.1-3.3 4.9-3.5c1.3-0.1 2.8 2.2 4.2 3.5q-0.1 0.9-0.3 1.9zm412.1 305.9c-2.7-0.2-4.4-2.5-3.4-5.1c0.6-1.6 3.3-3.8 4.2-3.4c1.8 0.6 2.9 2.9 5.3 5.5c-2.9 1.6-4.6 3.2-6.1 3zm-12.4-335.9c2.8 0.4 4 3 3.1 5.4c-0.6 1.5-3.4 3.5-4.4 3.1c-1.8-0.7-2.8-3-5.1-5.8c3-1.3 4.8-2.8 6.4-2.7zm-429.1 48.6c0.1 2.5-3.7 4.7-6.4 3.6c-1.2-0.4-2.5-2.3-2.5-3.6c0-2.6 3.2-4.5 7-3.7c0.4 0.8 1.8 2.2 1.9 3.7zm356.5-31.7c-1.7 0.9-3.5 2.5-5.4 2.6c-2.6 0.2-4.3-2.3-3.4-4.5c0.6-1.6 3.1-3.2 4.9-3.3c1.3-0.1 2.8 2.2 4.2 3.4q-0.1 0.9-0.3 1.8zm-222.1-66.4c0-2.5 3.5-5.3 5.6-4.3c1.4 0.6 3.4 3.6 3.1 4c-1.4 1.9-3.5 3.3-6.3 5.6c-1.2-2.6-2.4-4-2.4-5.3zm377.8 245.1c0.8-1.6 3.2-3.3 4.9-3.3c2.7-0.1 3.9 2.6 3 4.9c-0.6 1.6-2.8 2.6-4.3 3.9c-3.3-1.4-4.7-3.4-3.6-5.5zm-379.5-322.1c-0.3 2.9-3.1 4.1-5.7 3.4c-1.3-0.4-3.2-2.7-3.1-4c0.2-2.9 2.6-3.9 6.6-3.9c0.6 1.2 2.4 2.9 2.2 4.5zm-67.3-87.2c0-2.6 2.4-4.3 4.8-3.4c1.6 0.7 3.5 3.2 3.5 4.8c-0.1 1.5-2.6 2.8-5.1 5.3c-1.6-3.1-3.2-4.9-3.2-6.7zm45.7-64.8c-1.8 0.7-3.6 2-5.3 1.9c-2.6-0.2-3.8-2.3-3.3-4.9c0.5-2.6 2.6-4 4.9-3.1c1.7 0.7 2.7 2.9 4 4.4q-0.1 0.9-0.3 1.7zm420.4 502.9c0.6-1.6 3-3.6 4.4-3.6c3.1 0.2 3.9 3.1 3.4 5.7c-0.3 1.3-2 2.4-2.8 3.2c-3.5-1.1-6-2.4-5-5.3zm-373.5-620.2c-0.1 2.9-2.8 3.2-5.2 2.7c-2.6-0.6-4.5-2.2-3.6-4.8c0.5-1.4 2.8-2.2 5.3-4.1c1.6 2.8 3.5 4.5 3.5 6.2zm389 567.7c2.5 0.1 4.1 2.5 3.1 4.8c-0.6 1.7-3 2.7-4.6 4c-1.2-1.6-2.5-3.1-4.5-5.7c2.7-1.5 4.4-3.2 6-3.1zm6.2 255.6c-0.3 2.7-2.5 4.3-5.4 3.8c-2.5-0.4-3.6-2.2-3.1-4.6c0.6-3 2.8-3.6 6.7-3.1c0.5 0.9 2 2.5 1.8 3.9zm-72.3-413c0 1.1-2.8 2.9-4.5 3.1c-2.5 0.3-4.8-3-3.8-5.3c0.6-1.4 2.4-2.4 4.7-4.5c1.8 3 3.5 4.9 3.6 6.7zm-379.7 132.6c-1.2-0.4-2.7-2.7-2.5-4c0.2-2.9 2.6-4.5 5.4-3.8c1.3 0.3 2.2 2.3 3.2 3.3c-1.6 3.3-3.2 5.5-6.1 4.5zm176.6-294.9c0.2-2.8 2.1-5.1 5-4.5c1.4 0.3 3.8 3.3 3.4 4.1c-0.7 2-2.9 3.3-5.5 5.9c-1.5-2.7-2.9-4.2-2.9-5.5zm181.5 9c-0.7 1.6-3.3 3.3-5 3.2c-2.8-0.1-3.8-2.9-2.9-5.4c0.4-1.4 2.3-2.4 3-3.1c3.9 1.1 6.1 2.6 4.9 5.3zm-47.6-9.9c-1.7 1-3.6 3.1-5.1 2.8c-1.6-0.3-3.7-2.7-3.9-4.3c-0.2-2.8 2.3-4.4 4.9-3.7c1.6 0.3 2.8 2.2 4.3 3.4q-0.1 0.9-0.2 1.8zm-345.3 111.5c-1.9 0.8-3.9 2.4-5.5 2.1c-1.5-0.3-3.3-2.8-3.5-4.4c-0.2-2.6 2.2-4.2 4.6-3.5c1.8 0.5 3.1 2.6 4.6 3.9q-0.1 1-0.2 1.9zm317.3 279.3c1.6 0.7 2.4 3.3 3.6 5.2c-1.8 1-3.5 2.9-5.3 2.9c-1.2 0-2.5-2.4-4.7-4.7c3-1.7 5.3-3.9 6.4-3.4zm106.8-705.3c1.5 0.5 2.3 3.1 3.4 4.9c-1.7 1-3.4 2.9-5.2 3c-1.2 0-2.5-2.5-4.8-4.9c3.1-1.5 5.3-3.5 6.6-3zm-46 671.9c-1.8 0.6-3.6 1.9-5.2 1.8c-2.6-0.3-4.2-2.6-3.1-5c0.7-1.5 3.3-3.2 4.7-2.9c1.6 0.3 2.7 2.8 4 4.3q-0.2 0.9-0.4 1.8zm26.6-701c1.6 0.9 3.1 3.4 2.9 5.1c0 1.2-3.1 3.2-4.4 3c-1.5-0.3-2.6-2.8-4.8-5.4c3-1.4 5.3-3.2 6.3-2.7zm-399 659.7c-1.2-0.4-2.6-2.6-2.6-4c0-2.7 3.4-5.4 5.5-4.4c1.3 0.7 2 2.5 2.5 3.2c-0.9 3.9-2.4 6.2-5.4 5.2zm310.7-345.7c0.2-2.9 2.4-4.3 5.4-4c2.4 0.2 3.5 1.8 3 4.2c-0.6 2.6-2.2 4.2-6.4 3.7c-0.5-0.9-2.1-2.4-2-3.9zm96.5 446.3c-2.6-0.1-4.4-2.2-3.5-4.6c0.5-1.5 3.2-3.5 4.4-3.2c1.7 0.4 2.9 2.7 5.3 5.2c-3 1.3-4.6 2.7-6.2 2.6zm-196.3-665c0 1.1-3 2.9-4.6 2.9c-2.5-0.1-4.3-2.4-3.6-5.1c0.4-1.4 2.4-2.4 4.8-4.6c1.7 3.1 3.4 4.9 3.4 6.8zm130.2 324c0.4-1.4 3.5-3.4 3.8-3.2c1.8 1.4 3.4 3.2 4.3 5.3c0.3 0.5-2.3 2.3-3 2.9c-4-0.7-5.9-2.3-5.1-5zm129.4-376c0.1 0.4-2.6 2.3-4.1 2.3c-2.7 0-5.7-3.6-4.7-5.3c0.9-1.4 2.9-2 5.4-3.6c1.5 2.7 2.8 4.6 3.4 6.6zm-80 264.1c-0.8 0.1-2.7-2.6-2.6-3.9c0.1-2.7 2-4.9 5-4.1c1.4 0.4 2.4 2.4 4.5 4.7c-3.1 1.6-4.9 3-6.9 3.3zm132.9 120.4c-0.4 1.4-2.7 2.2-4.1 3.3c-1.3-2-2.9-3.9-3.5-6.1c-0.2-0.8 2-2.2 2.8-3c3.8 1.1 5.6 3 4.8 5.8zm-196.7-166.1c0.8 1.7 2.2 3.4 2.2 5.1c-0.1 2.6-2.4 4.2-4.8 3.2c-1.5-0.6-3.4-3.1-3.2-4.4c0.2-1.6 2.6-2.8 4-4.2q0.9 0.1 1.8 0.3zm-200.7-158.2c0.3-1.4 2.8-2.3 4.3-3.4c1.2 1.9 2.9 3.7 3.3 5.7c0.2 0.8-2.4 2.2-4.9 4.2c-1.4-3-3.1-5-2.7-6.5zm307 808.6c-1.8 0.9-3.6 2.4-5.4 2.3c-1 0-3-3.2-2.6-4.1c0.7-1.7 2.8-3.5 4.6-3.8c1-0.2 2.5 2.5 3.8 3.9q-0.2 0.9-0.4 1.7zm-59.5-641.2c2.4 0.6 3.5 2.4 2.8 4.9c-0.7 2.7-2.8 3.7-5.2 2.9c-1.5-0.5-2.5-2.3-3.4-3.1c1.4-3.7 2.9-5.4 5.8-4.7zm-82.1 14.4c0.1-2.7 2.2-4.3 4.9-3.8c2.6 0.4 4.2 2.5 3.2 4.9c-0.6 1.6-2.9 2.6-5.5 4.7c-1.3-2.7-2.7-4.3-2.6-5.8zm-129.5 304.6c-0.5-1.5-1.9-3.8-1.4-4.4c1.5-1.7 3.7-2.7 5.7-4c0.8 1.6 2.8 3.7 2.4 4.5c-1.1 1.9-3.3 3-5.1 4.5q-0.8-0.3-1.6-0.6zm-31.1-230.3c-0.8-1.7-2.3-3.4-2.2-5.1c0.1-2.6 2.3-4.3 4.7-3.2c1.5 0.6 3.4 3 3.3 4.4c-0.2 1.6-2.6 2.8-4 4.2q-0.9-0.2-1.8-0.3zm104 139.3c-0.1 1.3-2.6 3.2-4.2 3.4c-2.4 0.4-4.5-1.5-3.9-4.2c0.4-1.6 2.2-2.8 4.3-5.4c1.9 2.9 3.9 4.6 3.8 6.2zm160.3 480.6c-0.4 2.9-3 4.2-5.7 3.6c-1.2-0.3-2.7-2.6-2.6-3.9c0.1-2.6 2.1-4.1 6.3-3.6c0.5 0.9 2.1 2.5 2 3.9zm-199.6-418.2c0.7 1.7 2.1 3.6 2 5.3c-0.2 2.4-2.3 4.3-4.8 3.3c-1.4-0.6-3.1-3.1-2.8-4.4c0.4-1.7 2.5-3 3.8-4.6q0.9 0.2 1.8 0.4zm75.3 123.1c-1.2-0.1-3-3-2.9-4.6c0.1-2.6 2.4-4.3 5.1-3.3c1.4 0.5 2.3 2.5 4.2 4.8c-2.9 1.5-4.8 3.3-6.4 3.1zm62.2-41.8c-0.6 1.5-3.3 3-5 2.9c-1.1-0.1-3-2.9-2.9-4.4c0-1.4 2.3-2.7 4.7-5c1.6 3.1 3.6 5.2 3.2 6.5zm-95.8-313.7c-0.8-1.8-2.3-3.6-2.3-5.4c-0.1-2.5 2.1-4.2 4.3-3.3c1.6 0.8 3.2 3.1 3.4 4.9c0.1 1.3-2.2 2.7-3.5 4.1q-0.9-0.1-1.9-0.3zm122.7 289.6c0.8 1.5 2.5 3.8 2 4.5c-1.2 1.9-3.4 3.1-5.3 4.6c-0.8-1.9-2.3-3.8-2.2-5.7c0.1-1.3 2.4-2.5 3.7-3.8q0.9 0.2 1.8 0.4zm14.5-592.1c-1.8 0.7-3.8 2.2-5.2 1.8c-1.5-0.6-3.2-2.9-3.3-4.5c-0.1-2.4 2.1-4.1 4.4-3.1c1.7 0.6 3 2.6 4.4 4q-0.1 0.9-0.3 1.8zm-431.6 168.1c-1.6 1.1-3.2 2.9-4.9 3c-2.5 0.1-4.4-1.9-3.7-4.5c0.4-1.5 2.4-2.5 4.5-4.6c1.8 2.8 3 4.4 4.1 6.1zm402.3-148.8c-1.8 0.7-3.7 2.1-5.5 2.1c-2.5 0-4-2.4-2.8-4.5c0.8-1.6 3.2-3.2 4.9-3.2c1.2-0.1 2.5 2.5 3.8 3.8q-0.2 0.9-0.4 1.8zm-162.9 69.7c-1.8 0.8-3.6 2.2-5.3 2.1c-2.5-0.2-4.2-2.4-3.1-4.8c0.7-1.5 3.2-3.4 4.5-3.1c1.6 0.3 2.8 2.6 4.2 4.1q-0.1 0.9-0.3 1.7zm207.3 607.2c0.9 2 2.4 4 2.3 5.9c0 1.1-3.4 3.2-4 2.8c-1.7-0.9-3.4-3-3.6-4.8c-0.2-1.2 2.1-2.8 3.3-4.2q1 0.2 2 0.3zm-145.8-26.4c0.8 1.6 2.2 3.2 2.2 4.8c0 2.5-1.9 4.3-4.6 3.5c-1.4-0.5-2.4-2.3-4.6-4.5c3.2-1.8 5.1-2.8 7-3.8zm112.4 225.5c-0.2 2.8-2.6 4.3-5.1 3.4c-1.5-0.5-3.5-3-3.2-4c0.4-1.6 2.6-2.8 4.9-5c1.7 2.6 3.4 4.1 3.4 5.6zm106-29.5c-1.9 0.9-3.8 2.3-5.8 2.4c-0.8 0.1-2.7-2.5-2.7-3.8c0-2.9 2.3-4.3 5-3.6c1.4 0.4 2.5 2.2 3.7 3.3q-0.1 0.9-0.2 1.7zm-59.3-86.5c-1.8 1-3.6 2.9-5.4 2.8c-1.2 0-2.9-2.7-3.1-4.4c-0.1-1 2.2-2.4 4.3-4.5c1.9 2.8 3 4.4 4.2 6.1zm-112.1-92.4c-1.3-0.4-2.9-2.9-2.9-4.5c0-2.4 2.2-4.4 4.7-3.4c1.5 0.5 2.4 2.7 4.4 5.1c-2.9 1.4-4.8 3.2-6.2 2.8zm-285.4-478.3c-2.5-0.1-3.9-1.9-3.3-4.4c0.6-2.5 2.3-4.4 4.8-3.5c1.5 0.6 2.4 2.9 4.3 5.5c-2.7 1.2-4.3 2.5-5.8 2.4zm370.4 715.4c-0.1 2.8-2.4 3.8-5.2 3.5c-2.2-0.4-4-1.7-3.2-3.9c0.6-1.7 2.6-2.8 4.9-5.1c1.7 2.6 3.5 4.1 3.5 5.5zm-11.2-372.6c-1.3-0.5-3-3.2-2.7-3.8c1.1-1.8 3.1-3.1 4.7-4.5q1.8 2.1 3.5 4.3c-1.2 3.4-3 4.9-5.5 4zm-381.7-375.7c0.4-1.5 2.6-2.6 4.1-3.9c1.2 1.8 3 3.5 3.4 5.5c0.2 0.9-2.3 2.3-4.6 4.6c-1.5-2.9-3.2-4.8-2.9-6.2zm294.7 50.5c0.7 1.7 2.4 3.7 2 5c-0.6 1.4-2.9 3-4.6 3.1c-2.4 0.1-3.9-2.1-3-4.4c0.5-1.6 2.4-2.7 3.7-4q0.9 0.1 1.9 0.3zm81-176.6c-1.1-0.4-2.5-2.5-2.4-3.7c0.4-3 3-4 5.7-3.3c1.2 0.3 2.1 2 3 2.8c-1.5 3.5-3.4 5.2-6.3 4.2zm-89.4-70.9c0.1-1.1 2.4-2.7 3.9-2.9c2.1-0.2 4.7 3.7 3.7 5.6c-0.7 1.3-2.5 2.1-4.9 3.9c-1.3-2.9-2.7-4.8-2.7-6.6zm-382.9 732.8c-1.2-0.3-2.8-2.7-2.7-4c0.3-2.8 2.5-4.5 5.4-3.9c1.2 0.3 2.1 2.1 2.9 2.8c-1.1 3.6-2.7 5.8-5.6 5.1zm678.8-549c-1.8-1.6-3.1-3.8-4.6-5.7c1.5-0.8 3.5-2.6 4.4-2.2c1.9 0.9 3.2 3 5.5 5.5c-2.6 1.2-4.8 2.8-5.3 2.4zm-241.6 502.9c0 0.8-3 2.6-4.5 2.5c-2.6-0.2-3.9-2.5-3.1-5c0.4-1.3 2.1-2.2 4.3-4.4c1.6 3.1 3.1 5 3.3 6.9zm-180.4-130.7c-0.4 0.1-2.6-3.4-2.2-3.9c1.2-1.7 3.2-3.1 5.1-4c0.4-0.1 2 2.2 4 4.5c-3.1 1.6-4.9 3-6.9 3.4zm200.3 159.2c-0.3 1.3-3.2 2.8-4.9 2.8c-2.4 0-3.8-2.4-2.9-4.7c0.5-1.5 2.3-2.5 4.5-4.7c1.7 3.1 3.6 5.1 3.3 6.6zm149.5-19.4c-1.4-0.5-3.2-3.1-2.9-4.5c0.2-1.4 2.6-3.3 4.1-3.4c1.3 0 2.5 2.5 4.7 4.8c-2.8 1.6-4.8 3.6-5.9 3.1zm-344.4-564c-2.4-0.1-4-2.2-3.1-4.5c0.7-1.6 2.8-2.6 4.3-3.9c1.3 1.6 2.6 3.2 4.7 5.9c-2.8 1.2-4.3 2.6-5.9 2.5zm306.3-167.6c-2.7-0.2-3.5-2.5-3-5c0.4-2.3 2-4.4 4.3-3.3c1.5 0.7 2.2 3.2 3.9 5.8c-2.4 1.2-3.9 2.7-5.2 2.5zm-491.9 204.2c-0.3-1.7 4.1-4 5.8-2.8c1.3 0.8 2.6 3.2 2.3 4.4c-0.5 1.5-2.6 2.5-5 4.7c-1.5-3-2.8-4.6-3.1-6.3zm362.1 347.4c-0.7-1.6-2.2-3.1-2.1-4.7c0.1-2.7 2.3-3.7 4.8-3.4c2.5 0.2 3.9 2 3.1 4.1c-0.6 1.7-2.6 2.8-4.1 4.3q-0.8-0.2-1.7-0.3zm111.9-209.6c0.7-1.4 3.2-3.1 4.6-2.9c1.4 0.2 3.4 2.8 3.3 4.2c0 1.3-2.6 2.4-4.9 4.4c-1.5-2.7-3.4-4.7-3-5.7zm-83.9 361c-1.8 0.6-3.8 2.1-5.2 1.7c-1.5-0.5-2.2-2.9-3.3-4.5c1.7-1 3.4-2.8 4.9-2.7c1.5 0.2 2.7 2.4 4 3.7q-0.2 0.9-0.4 1.8zm-6-502.7c-1.7 0.9-3.4 2.5-5.2 2.6c-2.3 0.2-4.2-1.8-3.2-4.2c0.6-1.5 2.7-2.5 5.1-4.5c1.5 2.7 2.4 4.4 3.3 6.1zm153.7 778.6c-0.2 2.6-2.4 4.5-5 3.6c-1.4-0.4-3.2-2.8-3-4c0.2-1.5 2.4-2.6 4.5-4.5c1.8 2.3 3.6 3.7 3.5 4.9zm-271.8-950c-1.6 0.8-3.2 2.3-4.7 2.3c-2.3 0.1-4.9-1.3-4.1-4.1c0.4-1.5 2.7-2.4 5.1-4.4c1.6 2.7 2.7 4.4 3.7 6.2zm155 102.7c-0.3 2.8-2.5 4.4-5.1 3.5c-1.3-0.5-3.2-3.1-2.8-4.1c0.6-1.6 2.7-2.7 5.1-4.8c1.4 2.6 2.9 4.1 2.8 5.4zm173.9 758.9c-0.2-0.5 2.5-2.5 3.9-2.6c2.4-0.1 4.6 3.4 3.7 5.5c-0.5 1.2-2 1.9-3.9 3.5c-1.7-2.7-3.1-4.4-3.7-6.4zm-124.1-622.5c-1.5 0.9-3.1 2.6-4.5 2.5c-2.7-0.1-4-2.5-3.2-4.9c0.4-1.3 2.7-3 3.8-2.8c1.5 0.3 2.7 2.2 4.1 3.4q-0.1 0.9-0.2 1.8zm-66.4-88.8c0.4-1.1 2.5-2.4 3.7-2.3c2.7 0.2 4.8 2.1 4.2 5c-0.3 1.2-2.4 2-3.1 2.6c-3.9-0.9-5.7-2.5-4.8-5.3zm64.8-36.6c0 1-2.8 2.7-4.3 2.6c-2.7-0.1-3.9-2.5-3.2-4.9c0.5-1.3 2.3-2.2 4.6-4.1c1.4 2.9 3 4.7 2.9 6.4zm-140.2-73.2c-2.3-0.1-4.1-2-3.2-4.3c0.6-1.6 2.7-2.7 4.2-4c1.2 1.6 2.4 3.3 4.3 5.8c-2.5 1.2-3.9 2.6-5.3 2.5zm-25.3 395.6c-1-0.1-2.4-2.5-2.3-3.7c0.3-2.6 1.9-4.9 5-4.4c1.1 0.1 2 2 2.7 2.8c-1.1 3.5-2.3 5.9-5.4 5.3zm187.4-168.2c-1.5 0.7-3.1 2-4.6 1.9c-2.6-0.4-4.4-2.4-3.5-5.1c0.3-1.1 2.9-2.5 3.8-2.1c1.8 0.6 3.2 2.5 4.7 3.8q-0.2 0.8-0.4 1.5zm-21.6 471c0.2-2.5 2.2-3.5 4.6-3.1c2.3 0.5 3.8 2.3 2.7 4.4c-0.7 1.6-2.8 2.6-5.2 4.7c-1.1-2.9-2.2-4.5-2.1-6zm-44.5-258.7c-0.2 1.3-2.7 3-4.1 3c-2.5-0.2-3.8-2.5-3-5c0.5-1.3 2.3-2.2 4.5-4.3c1.3 3 2.9 4.8 2.6 6.3zm-219.1-187.6c-0.7-1.4-2.4-3.4-2-4c1.2-1.7 3.2-2.8 5-4.2c0.9 1.2 1.8 2.3 3.5 4.5c-2.7 1.6-4.6 2.6-6.5 3.7zm341.1 611.2c-1.7 0.6-3.8 2-4.9 1.4c-1.5-0.7-2.2-3-3.2-4.7c1.5-0.9 3.4-2.7 4.6-2.3c1.5 0.4 2.6 2.6 3.9 4q-0.2 0.8-0.4 1.6zm-156.2-905.2c-0.1 1.2-2.7 2.8-4.2 2.8c-2.5-0.1-4.2-2.2-3.2-4.8c0.5-1.3 2.3-2.1 4.5-3.9c1.4 2.6 3.1 4.4 2.9 5.9zm120.8 1.1c-1.5-0.7-3-2.9-3.1-4.5c-0.1-0.9 2.7-2.9 4.1-2.8c1.3 0 2.5 2.1 4.7 4.3c-2.8 1.6-4.8 3.5-5.7 3zm-115.7 375.1c-1.6 0.8-3.5 2.4-4.7 2c-1.5-0.6-2.4-2.8-3.5-4.4c1.5-1 3.1-3 4.4-2.8c1.5 0.2 2.8 2.3 4.2 3.5q-0.2 0.9-0.4 1.7zm-332.9 16.3c-0.8-1.4-2.4-2.9-2.4-4.3c0.1-2.7 2.2-4.4 4.9-4.1c1.1 0.2 2 2.1 3.7 4c-2.6 1.9-4.4 3.1-6.2 4.4zm293.5-369.7c-0.6-1.4-1.9-2.8-1.7-4.2c0.1-2 0.6-5 3.7-4c1.5 0.5 3.2 2.9 3.2 4.5c0 1.3-2.2 2.7-3.4 4.1q-0.9-0.2-1.8-0.4zm46.5 424.8c0.8 1.8 2.1 3.7 2.2 5.6c0 0.9-2.6 2.7-3.9 2.6c-2.6-0.3-3.7-2.7-3-5.1c0.4-1.3 2-2.3 3-3.3q0.9 0 1.7 0.2zm43.8-233.3c-2.8-0.4-4.1-2.6-3.2-5.2c0.5-1.3 2.5-2.1 3.8-3.1c1.2 1.7 2.5 3.4 4.5 6c-2.5 1.2-3.9 2.4-5.1 2.3zm23 278.3c-2.5-0.1-4.3-2.1-3.4-4.6c0.6-1.4 3-3.1 4.3-2.9c1.4 0.2 2.5 2.5 4.6 4.8c-2.6 1.4-4.1 2.8-5.5 2.7zm-52.8 415.7c-2.5-0.1-4.6-1.9-3.8-4.5c0.5-1.4 3-3 4.4-2.9c1.4 0.1 2.7 2.3 5 4.6c-2.8 1.4-4.2 2.8-5.6 2.8zm1.6-675.2c-1.5-1-3-3-3.1-4.8c-0.2-2.2 1.8-3.9 4-2.9c1.6 0.8 2.6 2.8 4.6 5.1c-2.7 1.3-4.8 3.1-5.5 2.6zm65.7 334.8c0.1 0.5-2.4 2.4-3.6 2.3c-2.6-0.1-4.7-1.7-3.9-4.7c0.3-1.2 2.1-1.9 4.2-3.7c1.5 2.6 2.8 4.3 3.3 6.1zm-182.6 160c0.6 1.4 1.7 2.8 1.5 4.2c-0.2 2.6-2.2 4.2-4.7 3.6c-1.1-0.3-3-2.9-2.7-3.5c1-1.8 2.8-3.2 4.3-4.7q0.8 0.2 1.6 0.4zm-16.4-698.7c-0.1 2.9-2.6 3.8-4.9 3.1c-1.3-0.4-3.2-2.9-2.9-3.6c0.6-1.6 2.5-2.7 4.7-4.7c1.5 2.4 3.2 3.8 3.1 5.2zm217.2 266.1c-0.1-2.5 2.1-2.7 4.1-2.3c2.3 0.5 4.7 1.6 4 4.3c-0.3 1.4-2.5 2.4-4.9 4.3c-1.5-2.8-3-4.5-3.2-6.3zm-288 245.1c-1.1 1.6-3.2 2.5-4.9 3.7c-0.9-1.4-2.8-3.3-2.4-4.1c0.8-1.7 2.8-2.9 5.3-5.2c1.1 2.9 2.5 4.9 2 5.6zm358.8-581.9c-0.6 1.6-2.8 2.4-4.4 3.6c-1-1.5-2.8-3-2.7-4.5c0-1.3 2.1-2.6 4.2-5c1.5 2.9 3.4 4.9 2.9 5.9zm-303 122.9c-0.5-1.4-1.7-2.9-1.5-4.2c0.4-2.5 2.3-4.4 5-3.8c1.1 0.3 2.6 2.9 2.3 3.6c-0.9 1.8-2.7 3.2-4.2 4.8q-0.8-0.2-1.6-0.4zm158.2 95.8c0.8 1.9 2.1 3.7 2.1 5.6c0.1 0.8-2.5 2.5-3.8 2.5c-2.5-0.1-3.9-2.2-3.1-4.6c0.4-1.4 2.1-2.4 3.1-3.7q0.9 0.1 1.7 0.2zm11.9-43.6c-0.1 2.4-2.2 4-4.5 3c-1.4-0.7-2.9-2.9-2.9-4.3c0-1.2 2.2-2.4 4.4-4.6c1.5 2.8 3 4.4 3 5.9zm-298.1-5.8c-1.8 1-3.6 2.4-5.5 2.8c-0.6 0.1-2.8-3-2.4-3.8c0.7-1.5 2.7-2.5 5-4.3c1.4 2.5 2.2 3.9 2.9 5.3zm321.4-136.4c-1.5-0.9-3.1-2.8-3.4-4.5c-0.1-0.8 2.7-3.2 3.8-3c1.5 0.2 2.6 2.4 4.8 4.5c-2.5 1.5-4.5 3.4-5.2 3zm102.5 941.3c-0.4 1.2-3.4 2.8-4.4 2.4c-1.4-0.6-2.9-2.9-3-4.6c0-1 2.5-2.2 5-4.2c1.3 3 2.8 5 2.4 6.4zm-340.7-610.2c-0.4 0.1-2.4-2.8-2.1-3.3c1.3-1.7 3.2-3 4.8-4.5c1 1.2 2 2.3 3.9 4.4c-2.8 1.6-4.6 2.8-6.6 3.4zm232.5 391c-1.6 0.6-3.5 2.1-4.9 1.7c-1.4-0.4-2.3-2.5-3.5-3.9c1.5-1 3.1-2.7 4.6-2.7c1.4 0.1 2.7 2.1 4.1 3.3q-0.1 0.8-0.3 1.6zm44.4-242.6c-0.8 1.4-3.1 2.8-4.7 2.7c-1 0-2.8-2.7-2.7-4.1c0.1-1.2 2.3-2.3 4.5-4.3c1.5 2.7 3.3 4.8 2.9 5.7zm42.7-246.3c0.8 1.5 2.3 3 2.3 4.6c0 2.7-2.6 3.5-4.6 2.8c-1.3-0.4-2.8-2.6-2.6-3.8c0.1-1.4 2-2.6 3.1-3.9q0.9 0.1 1.8 0.3zm-19.5 229c-1-0.1-2.7-3.2-2.3-3.9c0.9-1.5 2.9-2.8 4.6-3.1c0.8-0.1 2 2.2 4 4.6c-2.9 1.2-4.7 2.6-6.3 2.4zm-526.6-227.9c-0.5 2.8-2.9 3.9-5.5 3.1c-1.1-0.3-2.7-2.9-2.4-3.5c1-1.6 2.8-2.7 5.1-4.6c1.4 2.4 3 3.9 2.8 5zm128.7-46.5c-0.4 0.1-2.2-2.6-2-3.9c0.3-2.8 2.7-4 5.3-3.4c1 0.2 1.7 2.1 3.5 4.2c-2.9 1.4-4.8 2.6-6.8 3.1zm427.8-122.1c-1.6 0.4-3.6 1.7-4.5 1.1c-1.6-0.8-2.4-2.9-3.5-4.4c1.3-0.8 3-2.5 3.8-2.2c1.8 0.7 3.1 2.4 4.7 3.7q-0.3 0.9-0.5 1.8zm8.2 624.4c-1.7 1.2-3.4 2.7-5.3 3.1c-0.6 0.1-2.6-2.8-2.6-4.2c0-1.1 2.4-2.1 4.5-3.8c1.6 2.3 2.5 3.6 3.4 4.9zm28.8-694c-0.1 1.1-2.5 2.9-3.9 3c-2.5 0.1-3.9-1.9-3.3-4.3c0.4-1.4 2-2.5 4-4.7c1.6 2.8 3.3 4.4 3.2 6zm-509.9 433.3c-0.6 0.2-2.7-2.9-2.4-3.3c1.3-1.6 3-3 4.9-4.1c0.2-0.1 1.9 2.1 3.7 4.2c-2.7 1.5-4.3 2.8-6.2 3.2zm-109.2 74.8c-1.3 1.5-3.2 2.5-4.9 3.8c-0.9-1.4-3-3.4-2.7-4c1-1.6 3-2.6 5.4-4.6c1.2 2.4 2.6 4.4 2.2 4.8zm370.5-1.5c-0.7 0.1-2.8-3.1-2.5-3.4c1.3-1.6 3-3 4.8-3.8c0.6-0.2 2.1 2 4.2 4.1c-2.9 1.4-4.6 2.8-6.5 3.1zm275.1 401.8c-1.4-1.3-2.4-3.3-3.5-5c1.3-0.8 3.3-2.7 3.7-2.4c1.6 1.2 2.7 3.1 4.8 5.7c-2.5 0.9-4.5 2.1-5 1.7zm-169.5-431.9c-1.3-0.3-2.1-2.6-3.2-4c1.6-1.1 3.1-2.7 4.9-3c0.8-0.2 2.1 2.1 4.1 4.3c-2.7 1.4-4.5 3.1-5.8 2.7zm-52.4 414.9c-1.3-0.4-2.1-2.6-3.2-4c1.6-1.2 3-2.8 4.8-3.2c0.7-0.1 2.1 2.3 4 4.5c-2.6 1.3-4.4 3-5.6 2.7zm-280.7-481.6c-1.3 1.5-3.1 2.8-4.9 3.5c-0.4 0.2-2.9-2.7-2.6-3.3c0.8-1.7 2.6-2.9 4.8-5.2c1.4 2.5 3 4.5 2.7 5zm357.3-328.9c-1 0-3.2-3-2.8-3.5c0.8-1.5 2.6-3.1 4.2-3.5c0.9-0.2 2.4 1.9 4.7 3.9c-2.9 1.5-4.5 3.1-6.1 3.1zm70 584.7c-0.6 1.4-2.7 2.1-4.2 3.2c-1-1.6-2.6-3.1-2.9-4.8c-0.1-0.9 2.2-2.1 4.4-4.1c1.4 2.7 3.1 4.6 2.7 5.7zm-75.8 135.6c-0.4 1.4-2.6 2.3-4 3.4c-1.2-1.6-2.8-3-3.2-4.7c-0.2-0.8 2.1-2.1 4.1-4.1c1.5 2.5 3.4 4.2 3.1 5.4zm113.9-625.1c-1.5-1.4-2.8-3.2-3.4-5c-0.2-0.5 2.8-2.9 3.2-2.7c1.7 1 2.9 2.8 5 5c-2.4 1.4-4.5 3-4.8 2.7zm-53.8 36.7c-0.2 2.4-2.2 4-4.5 3.2c-1.3-0.5-3.1-2.8-2.8-3.8c0.4-1.6 2.4-2.8 4.6-5.1c1.4 2.8 2.7 4.3 2.7 5.7zm-39.3-56.9c-0.3 1.2-2.6 2.7-4 2.7c-2.3-0.1-3.8-2.2-2.9-4.5c0.4-1.3 2.3-2.1 4.6-4c1.2 2.7 2.7 4.5 2.3 5.8zm13.4 706.2c-0.8-1.7-2.3-3.4-2.2-5c0.1-1.1 2.5-2 3.8-3c1.1 1.5 2.8 2.9 2.9 4.4c0.1 1.1-1.8 2.5-2.8 3.7q-0.9 0-1.7-0.1zm-127.7-382.3c1.4 0.4 3 2.8 2.8 4.2c-0.1 1.2-2.5 3-3.8 3c-1.3 0-2.5-2.2-4.8-4.4c2.8-1.5 4.7-3.2 5.8-2.8zm70-81.3c-1.7 0.7-3.7 2.3-4.8 1.8c-1.4-0.5-2.5-2.9-2.6-4.5c0-0.8 2.7-2.5 3.9-2.3c1.5 0.2 2.6 2.1 3.8 3.3q-0.2 0.9-0.3 1.7zm-6.7 297.5c-1.1 1.5-3 2.8-4.7 2.9c-0.9 0.1-2.9-2.7-2.7-3.8c0.3-1.4 2.4-2.4 4.6-4.3c1.4 2.5 3.2 4.7 2.8 5.2zm-329.9-532.9c-0.4-1.4-1.7-3.3-1.2-4.1c1.1-1.6 3-2.6 4.6-3.9c0.8 1.2 2.6 2.7 2.3 3.4c-0.9 1.9-2.6 3.4-3.9 5.1q-0.9-0.2-1.8-0.5zm318.1 709.2c-1.4-0.5-3-3-2.8-4.2c0.3-1.3 2.6-3.1 4.1-3.1c1.1-0.1 2.3 2.3 4.4 4.6c-2.8 1.4-4.6 3.1-5.7 2.7zm110.6-454.1c-1-1.8-2.5-3.4-2.9-5.3c-0.1-0.6 2.8-2.9 3.3-2.6c1.5 0.9 2.5 2.6 4.3 4.8c-2.2 1.4-3.4 2.2-4.7 3.1zm-3.6-383.8c0.8 1.7 2.1 3.4 2 5c0 0.9-3.1 2.7-3.6 2.4c-1.5-1-2.9-2.8-3.3-4.5c-0.2-0.7 2.1-2.1 3.2-3.2q0.9 0.1 1.7 0.3zm-9.6 855.7c-2.6-0.1-4.1-2.2-3.4-4.7c0.3-1.2 2.8-3 3.4-2.7c1.7 0.9 2.9 2.6 5.2 4.9c-2.5 1.3-3.9 2.6-5.2 2.5zm85-858.5c-1.4-0.4-2.3-2.6-3.4-4c1.3-0.9 2.8-2.7 4-2.6c1.5 0.2 2.8 2 5.2 4c-2.8 1.4-4.6 3-5.8 2.6zm-285 446.6c-0.3 0.1-2.3-3.2-1.9-3.7c1.2-1.6 3-2.8 4.8-3.6c0.4-0.2 1.8 2.1 3.5 4.2c-2.7 1.4-4.5 2.5-6.4 3.1zm89.8 192.7c-0.6-1.5-2.1-3.4-1.6-4.4c0.6-1.4 2.7-2.5 4.3-2.8c0.8 0 2.8 2.7 2.5 3.5c-0.6 1.6-2.4 2.8-3.7 4.2q-0.7-0.2-1.5-0.5zm72.1 154.5c0.7 1.6 2.2 3.3 1.9 4.7c-0.3 1.2-2.8 2.9-3.8 2.6c-1.4-0.4-3.1-2.5-3.1-3.9c0-1.2 2.1-2.5 3.3-3.7q0.9 0.1 1.7 0.3zm-26.9 25c-0.3 1.2-2.9 3-3.9 2.7c-1.3-0.5-2.8-2.5-3-4.1c-0.1-1 2-2.2 4.2-4.4c1.4 2.8 3 4.5 2.7 5.8zm-206.1-785.8c-0.8-1.3-2.4-2.6-2.3-3.8c0.1-2.4 1.8-4.3 4.5-3.7c1.2 0.3 2.1 1.8 3.9 3.5c-2.6 1.7-4.4 2.9-6.1 4zm220-108.6c-1.4-0.8-3.1-2.9-2.9-4.1c0.2-1.3 2.5-2.3 3.9-3.4c1.1 1.4 2.2 2.8 3.9 5.1c-2.3 1.2-4.1 2.8-4.9 2.4zm100.5 513.7c0.3-1.1 2.9-2.6 4-2.3c1.3 0.3 2.8 2.6 2.7 4c-0.2 1.2-2.2 2.3-4.5 4.4c-1.2-2.9-2.6-4.7-2.2-6.1zm-61.2-210.2c0.6-1.4 2.6-2.7 4.2-3c0.7-0.2 2.9 2.3 2.7 3.2c-0.3 1.5-2 2.8-3.8 5.1c-1.6-2.6-3.5-4.4-3.1-5.3zm-123.2 6c-0.5-1.4-2-3.4-1.5-4.1c1-1.5 3-2.3 4.5-3.4c0.9 1.3 2.6 2.9 2.3 3.8c-0.5 1.6-2.4 2.8-3.6 4.1q-0.9-0.2-1.7-0.4zm102.7 520.4c-0.4-1.4-1.2-2.9-1.1-4.2c0.2-2.5 2-4 4.4-3.2c1.1 0.4 2.6 2.7 2.3 3.3c-0.8 1.7-2.5 3.1-3.9 4.5q-0.9-0.2-1.7-0.4zm-194.4-717.2c1.8-0.6 3.5-1.7 5.3-1.7c0.7 0 2.3 3 2.1 3.3c-1.3 1.4-3 2.7-4.7 3.2c-0.7 0.2-2-2.1-3-3.2q0.2-0.8 0.3-1.6zm162 360.6c-0.7-1.5-2.1-3.2-1.7-4.4c0.4-1.3 2.5-2.9 3.7-2.8c1.1 0.1 3 2.4 2.8 3.6c-0.2 1.4-2.1 2.6-3.3 3.9q-0.7-0.1-1.5-0.3zm24.5 26.2c-1.6 0.7-3.3 2.1-4.8 1.9c-1.1-0.2-2-2.3-3-3.6c1.4-1 2.8-2.7 4.4-2.9c1.1-0.1 2.4 1.9 3.6 3q-0.1 0.8-0.2 1.6zm-33.4-532.3c0.1-1.2 2.4-2 3.7-3c1.1 1.6 2.6 3.1 3.1 4.9c0.1 0.7-2.1 1.9-4.2 3.7c-1.3-2.5-2.8-4.2-2.6-5.6zm67.8 591.9c-1.1-0.2-2.6-2.5-2.6-3.9c-0.1-2.4 2-3.6 4.1-2.8c1.4 0.5 2.4 2.1 4.6 4.3c-2.9 1.2-4.7 2.7-6.1 2.4zm82.1-568.3c0.6 1.5 2 3.2 1.7 4.4c-0.5 1.3-2.5 2.1-3.8 3.1c-0.9-1.4-2.6-2.9-2.6-4.2c0.1-1.2 2-2.4 3.1-3.6q0.8 0.2 1.6 0.3zm-55.2 42.5c-0.5 2.5-2.1 4.6-5 3.8c-1.1-0.3-2.6-2.6-2.4-3.1c1-1.6 2.6-2.7 4.6-4.6c1.4 1.9 3 3.1 2.8 3.9zm44 435c-0.1 0.9-3.2 2.8-3.5 2.5c-1.5-1.2-2.7-3-3.4-4.7c-0.1-0.4 2.2-1.8 4.3-3.4c1.2 2.5 2.6 4.1 2.6 5.6zm39.7 435.9c-1.4-1-2.8-2.8-2.8-4.4c-0.1-1 2.5-3.1 3.6-2.9c1.3 0.3 2.3 2.4 4 4.5c-2.3 1.4-4.4 3.2-4.8 2.8zm-206.7-239c-0.5 0.1-2.4-2.8-2-3.3c1-1.6 2.6-2.9 4.3-3.7c0.5-0.2 2 2.1 4 4.2c-2.8 1.3-4.5 2.5-6.3 2.8zm-53.5-384.4c-0.4-1.2-1.5-2.9-1.1-3.5c1.3-1.6 3.2-2.7 4.8-4.1c0.7 1.3 2.2 3 1.9 3.7c-0.9 1.7-2.7 3-4.1 4.4q-0.8-0.3-1.5-0.5zm136.4-303.5c-0.3 1.2-2.5 2.9-3.7 2.7c-1.1-0.1-2.8-2.4-2.7-3.7c0.1-1.3 2-2.4 3.9-4.6c1.3 2.7 2.8 4.4 2.5 5.6zm13.1 827.6c0.5-1.4 2.6-2.3 4-3.3c0.9 1.4 2.5 2.8 2.5 4.1c-0.1 1.2-1.9 2.4-3.9 4.6c-1.3-2.6-2.9-4.4-2.6-5.4zm-168.8-552.8c-0.5-1.2-1.5-2.4-1.4-3.5c0.4-2.6 2.1-4.4 4.9-4c0.8 0.1 2.2 2.6 1.9 3.4c-0.8 1.7-2.5 3-3.9 4.5q-0.8-0.2-1.5-0.4zm98.4 142.9c-0.4 0.1-2.3-2.8-2-3.2c1.1-1.6 2.8-2.8 4.5-3.7c0.3-0.2 1.8 1.9 3.5 3.7c-2.6 1.5-4.2 2.7-6 3.2zm57.7-164c-1.2-0.3-2.8-2.6-2.6-3.7c0.2-1.3 2.4-3 3.7-2.9c1.2 0 2.3 2.1 4.3 4.1c-2.5 1.2-4.2 2.8-5.4 2.5zm-343.8-18.2c-0.4 2.4-2.3 3.7-4.7 2.9c-1.1-0.4-2.6-2.8-2.2-3.3c0.8-1.6 2.5-2.6 4.9-4.8c1.1 2.7 2.2 4 2 5.2zm312.8 712.9c-1.1-0.1-1.9-2.3-2.8-3.6c1.5-1 2.9-2.5 4.4-2.7c1-0.1 2.2 1.8 4.4 3.8c-2.8 1.3-4.5 2.6-6 2.5zm-59.5-465.5c-0.5 1.4-2.4 2.2-3.8 3.3c-1-1.4-2.8-2.7-2.8-4c0.1-1.2 2.1-2.3 4.1-4.3c1.3 2.4 2.9 4.1 2.5 5zm233.8 472.2c-1.4-1.3-2.5-3.1-3-4.9c-0.1-0.5 2.8-2.6 3.2-2.3c1.5 1 2.5 2.8 4.5 5.1c-2.4 1.1-4.4 2.4-4.7 2.1zm-173.2-682c-0.9-0.1-1.7-2.4-2.6-3.7c1.4-1 2.8-2.5 4.4-2.7c0.9-0.2 2.1 1.8 4.2 3.7c-2.8 1.4-4.4 2.8-6 2.7zm19.3 28.3c-0.7 0.1-1.6-2.2-2.4-3.3c1.6-1.1 3-2.5 4.8-3.1c0.6-0.1 1.9 1.7 3.9 3.7c-2.9 1.3-4.6 2.5-6.3 2.7zm-51.5 663.2c0.8-1.4 2.7-2.2 4.1-3.3c0.9 1.3 2.6 2.7 2.4 3.8c-0.3 1.3-2 2.4-3.9 4.5c-1.3-2.4-3-4.2-2.6-5zm-263.2 94.7c1.8 0.8 2.9 2.9 4.4 4.5q-0.6 0.7-1.1 1.4c-3-0.9-6-1.8-9.2-2.8c1.3-3.2 3.6-4.1 5.9-3.1zm173.5-535.1c-1 0-1.8-2-2.7-3.1c1.4-1.1 2.7-2.7 4.3-3.1c0.9-0.2 2.2 1.8 4.4 3.8c-2.8 1.3-4.5 2.5-6 2.4zm213.8-186.7c-0.2 1.1-2.8 2.7-3.6 2.4c-1.3-0.6-2.8-2.6-2.8-3.9c0-1.1 2.1-2.2 4.3-4.1c1.1 2.7 2.4 4.3 2.1 5.6zm15.6 452.2c-1.5 0.9-3 2.5-4.5 2.5c-1 0-2.4-2.6-2.5-4c0-0.8 2.3-1.8 4.2-3.2c1.3 2.1 2 3.4 2.8 4.7zm-123.5-47.9c0.6-1.2 2.6-2.4 4.1-2.4c0.8-0.1 2.6 2.4 2.3 3.4c-0.3 1.3-2.1 2.3-4.2 4.3c-1.1-2.6-2.6-4.4-2.2-5.3zm238.6 348.3c-1.6-1.1-2.5-3-3.7-4.6c1.2-0.7 2.9-2.4 3.5-2.1c1.7 0.9 2.9 2.6 5.2 4.9c-2.6 1-4.4 2.2-5 1.8zm-241.9-845.8c-1.2-0.3-2-2.4-2.9-3.7c1.3-0.9 2.6-2.4 4.1-2.5c1-0.1 2.1 1.8 4.2 3.6c-2.6 1.3-4.2 2.9-5.4 2.6zm152.7 275.1c-0.6 1.3-3.1 2.7-4 2.4c-1.4-0.6-2.2-2.7-3.2-4.2c1.3-0.8 2.5-1.6 4.7-2.9c1.1 2.1 2.8 3.9 2.5 4.7zm-19.3-323.9c-0.7-1.7-2-3.4-1.8-4.9c0.1-1 2.3-1.8 3.5-2.8c0.8 1.6 2.1 3.2 2.4 4.8c0.1 0.9-1.7 2.1-2.6 3.1q-0.7-0.1-1.5-0.2zm-174.9-133.5c-0.6-1.3-1.9-3.1-1.5-3.8c1.1-1.5 3-2.4 4.5-3.5c0.7 1 2.2 2.5 1.9 3.1c-0.7 1.7-2.2 3-3.4 4.5q-0.8-0.1-1.5-0.3zm284.1-24.1c-1.3 0.4-3.1 1.5-3.9 1c-1.4-0.8-2.3-2.6-3.3-4c1-0.8 2.5-2.3 3.1-2c1.7 0.6 3 2.2 4.5 3.3q-0.2 0.9-0.4 1.7zm26.7 106.4c-1.3-1.5-2.4-3.2-3-5c-0.2-0.3 2.6-2.4 3.2-2.1c1.5 0.8 2.5 2.5 4.4 4.6c-2.3 1.3-4.3 2.7-4.6 2.5zm-145.1 773.5c-1.5-0.9-2.4-2.7-3.5-4.1c1.1-0.8 2.5-2.6 3.3-2.4c1.6 0.5 2.8 2.1 5.1 4.2c-2.5 1.2-4.2 2.7-4.9 2.3zm-90.4-317.4c-1.4-0.8-2.1-2.7-3.1-4.2c1.3-0.7 2.8-2.3 4-2c1.3 0.2 2.2 2 4.3 4.1c-2.6 1.1-4.5 2.6-5.2 2.1zm-604.1 154.2q0.8-0.4 1.6-0.8c1.3 1.3 3.3 2.4 3.7 4c0.8 2.7-0.7 4.9-4 6.1c-0.4-3.3-0.8-6.3-1.3-9.3zm374.3-375.2c-1.7 0.7-3.4 2-5 1.9c-0.8 0-1.6-2.4-2.3-3.7c1.4-0.8 2.9-2.1 4.4-2.3c1-0.1 2 1.6 3.1 2.6q-0.1 0.7-0.2 1.5zm296.7 680.6c-0.8 1.3-2.6 2.1-3.9 3.1c-1-1.3-2.9-2.8-2.8-4c0.1-1.1 2.4-2.1 4.6-3.8c1.1 2.3 2.4 4 2.1 4.7zm-30.8-652.4c-1.5-0.8-2.4-2.6-3.6-4c1.1-0.8 2.6-2.6 3.3-2.3c1.6 0.5 2.9 2.1 5.3 4c-2.6 1.2-4.3 2.7-5 2.3zm26.1-145.3c-0.8 0-2.3-3.1-2-3.4c1.2-1.3 2.8-2.4 4.5-2.8c0.7-0.1 1.8 1.9 3.6 4.1c-2.8 1-4.5 2.1-6.1 2.1zm-117.7 249.5c-0.7 1.2-2.6 1.9-4 2.8c-0.9-1.4-2.6-2.8-2.4-4.1c0.1-1.1 2.2-2 4.4-3.8c1.1 2.5 2.4 4.2 2 5.1zm147.7 530.7c-1.4-0.6-2.1-2.5-3.1-3.9c1.3-0.8 2.8-2.2 4-2.1c1.2 0.1 2.2 1.9 4.2 3.8c-2.5 1.1-4.3 2.6-5.1 2.2zm-188.1-1013.5c0.9-1.4 2.8-2.1 4.3-3c0.7 1.2 2.2 2.8 1.9 3.6c-0.8 1.5-2.5 2.5-4.7 4.6c-0.8-2.6-2-4.5-1.5-5.2zm168.4 184.7c-1.3-1.2-2.3-2.9-2.8-4.6c-0.1-0.4 2.6-2.4 3.3-2.1c1.3 0.7 2.2 2.4 3.9 4.4c-2.1 1.1-4.1 2.6-4.4 2.3zm5.5-51.6c0.1-1 2.2-1.8 3.4-2.7c0.9 1.5 2.3 2.8 2.6 4.4c0.2 0.8-1.7 1.9-3.5 3.8c-1.3-2.6-2.7-4.1-2.5-5.5zm-23.8 399.2c-0.3-1.3-1.1-2.9-0.7-3.6c0.9-1.3 2.6-2.1 3.9-3.1c0.7 1.2 2.3 2.9 2 3.5c-0.8 1.5-2.5 2.5-3.8 3.7q-0.7-0.3-1.4-0.5zm-10.7-328c-0.9 0-2.5-2.5-2.3-3.7c0.3-1.1 2.2-2.6 3.5-2.7c1-0.1 2.2 1.8 4.1 3.6c-2.5 1.4-3.9 2.9-5.3 2.8zm16.6 577.3c-1.1-0.4-1.8-2.3-2.7-3.6c1.4-0.9 2.7-2.4 4.1-2.4c1-0.1 2 2 3.7 4c-2.4 1-4 2.4-5.1 2zm83.3-561.2c0.1 0.7-2.6 2.3-2.9 2.1c-1.4-1.1-2.7-2.6-3.4-4.2c-0.2-0.4 1.7-1.8 3.8-3.7c1.3 2.7 2.4 4.2 2.5 5.8zm-142.8 477.4c-0.5-1.4-1.8-3.2-1.3-4.2c0.5-1.3 2.4-2 3.7-3c0.7 1.4 2.1 2.8 1.9 4.1c-0.1 1.2-1.8 2.2-2.8 3.3q-0.7-0.1-1.5-0.2zm122.8-506.1c-0.4 1.2-2.3 1.9-3.6 2.8c-0.8-1.4-2.3-2.8-2.2-4.1c0.1-1.1 1.9-2.1 4-4.1c0.9 2.6 2.1 4.3 1.8 5.4zm-604.5 281c1.2 1.7 3.2 3.3 3.5 5.2c0.5 2.8-1.8 4-5 4.3c0-2.9 0.1-5.7 0.2-8.5q0.6-0.5 1.3-1zm609.3-206.9c1.4-0.6 3.1-2 4.2-1.7c1.2 0.3 2 2.3 2.9 3.5c-1.2 0.9-2.4 1.9-4.5 3.4c-1.1-2.3-1.9-3.7-2.6-5.2zm-54-210.2c-1 1.4-2.5 2.8-4.1 3.2c-0.6 0.2-2.8-2.3-2.6-3.3c0.3-1.3 2.1-2.2 4.1-4.1c1.3 2.1 2.9 3.8 2.6 4.2zm60.7 591.4c-1.2-0.4-1.9-2.4-2.8-3.6c1.3-1 2.7-2.6 4-2.6c1 0 2.1 2 3.9 4.1c-2.4 1-4 2.4-5.1 2.1zm28.9-397.4c-1.3 0.6-3 2.1-3.7 1.7c-1.5-0.8-2.3-2.6-3.4-4c1.1-0.9 2.2-1.7 4.2-3.1c1.3 2.3 2.1 3.8 2.9 5.4zm-156.4 395.4c0-0.8 2.6-2.4 3.2-2.1c1.4 0.7 2.8 2.3 3 3.8c0.1 0.8-2 2-3.9 3.9c-1.2-2.6-2.3-4.1-2.3-5.6zm251.2-504.1c0.1 0.3-2.6 2.1-2.9 1.9c-1.5-1.3-2.6-2.9-3.8-4.4c1-0.8 2.1-1.6 3.9-3.1c1.3 2.3 2.3 3.9 2.8 5.6zm-199.7 265.3c-1.2 0.5-3.2 1.7-3.7 1.2c-1.3-1.1-2.1-2.9-2.6-4.5c-0.1-0.3 2.5-2.1 3.1-1.8c1.4 0.8 2.5 2.4 3.7 3.7q-0.2 0.7-0.5 1.4zm94.2-410.4c1.4-0.7 3-2.1 4-1.8c1.3 0.4 2.2 2.3 3.2 3.5c-1 0.9-2.1 1.7-3.9 3c-1.4-2-2.4-3.4-3.3-4.7zm-123.3 127.3c1.4-0.8 3-2.4 4-2.1c1.3 0.4 2.1 2.4 3.2 3.7c-1.3 0.8-2.6 1.6-4.5 2.9c-1.2-2-2-3.3-2.7-4.5zm48.8 562.5c-1.3-0.9-2-2.6-3-4c1.3-0.9 2.9-2.7 3.8-2.4c1.3 0.5 2.2 2.4 4 4.6c-2.4 1-4.1 2.2-4.8 1.8zm103.6-708.6c-0.1-0.7 2.5-2.5 3.1-2.2c1.3 0.7 2.6 2.3 2.9 3.7c0.2 0.8-1.6 2-3.4 3.9c-1.3-2.5-2.5-3.9-2.6-5.4zm-161.1 495.1c-0.8 1.3-2.6 2-4 3c-0.8-1.2-2.5-2.7-2.2-3.5c0.5-1.4 2.2-2.4 4.4-4.4c1 2.5 2.3 4.2 1.8 4.9zm60 465.3c-0.9 0-1.7-2-2.6-3.1c1.5-1 2.9-2.3 4.6-2.9c0.5-0.1 1.7 1.7 3.3 3.5c-2.4 1.2-3.9 2.4-5.3 2.5zm4.9-678.8c-0.8 1.4-2.5 2.2-3.9 3.3c-0.8-1.2-2.5-2.6-2.3-3.5c0.4-1.4 2-2.4 4.1-4.6c1.1 2.5 2.5 4.2 2.1 4.8zm-41 71c-1.2-0.3-2-2.2-3-3.4c1.4-0.9 2.7-2.3 4.1-2.4c0.9-0.1 2 1.6 4 3.3c-2.5 1.3-4 2.7-5.1 2.5zm82.8-309.8c-1-0.1-1.8-2.3-2.6-3.5c1.4-0.8 2.8-2 4.3-2.3c0.7-0.1 1.8 1.5 3.6 3.2c-2.5 1.3-4 2.7-5.3 2.6zm-148.2 644.5c0.3-1.2 2.2-2 3.3-2.9c0.9 1.2 2.5 2.4 2.4 3.6c0 1.2-1.6 2.4-3.5 4.6c-1.1-2.6-2.5-4.2-2.2-5.3zm111.3-582.1c1.1 0.2 1.9 1.9 2.9 3c-1.3 1-2.5 2.7-3.9 2.9c-1 0-2.2-1.9-4.3-3.9c2.6-1 4.1-2.2 5.3-2zm103.7 97.8c0.4-1.1 2.5-2.2 3.9-2.2c0.8 0 2.3 2.2 2.2 3.3c-0.2 1.2-1.9 2.2-3.7 4.2c-1.3-2.6-2.7-4.2-2.4-5.3zm-108.2 879.4c-1.1 1.3-2.8 2.1-4.3 3.1c-0.7-1.2-2.3-2.8-2-3.5c0.7-1.3 2.4-2.2 4.4-3.9c1 2.1 2.2 3.9 1.9 4.3zm22.8-21.7c0.1-0.8 2.8-2.2 3.6-1.9c1.2 0.7 2.3 2.5 2.3 3.9c0.1 0.9-1.8 1.9-3.7 3.7c-1.1-2.7-2.3-4.2-2.2-5.7zm-60.9-456.8c-0.6 0.1-2.2-2.5-1.9-3.4c0.4-1.2 2.2-2.5 3.5-2.7c0.8-0.1 2 1.8 3.8 3.6c-2.5 1.3-3.9 2.5-5.4 2.5zm49.9 133.6c-1.3-0.7-2-2.5-3-3.8c1.2-0.7 2.5-2.2 3.6-2c1.2 0.2 2.2 1.8 4.2 3.7c-2.4 1.1-4.1 2.5-4.8 2.1zm5.4 245c0.4 1.2 1.4 2.9 0.9 3.5c-1.1 1.3-2.8 2.1-4.3 3.1c-0.5-1-1.8-2.4-1.5-3c0.8-1.5 2.2-2.7 3.4-4q0.7 0.2 1.5 0.4zm25.1-814.1c-0.7 0-1.5-2-2.3-3c1.4-1 2.6-2.3 4.1-2.7c0.6-0.2 1.8 1.5 3.7 3.1c-2.5 1.3-4 2.5-5.5 2.6zm82.8 232.3c0.7 1.6 1.8 3.3 1.9 5c0 0.7-1.8 1.6-2.8 2.4c-0.9-1.5-2.2-2.9-2.6-4.5c-0.2-0.8 1.3-2 2-3q0.8 0 1.5 0.1zm-258.2-365.2c-0.6 0.1-2.2-2.7-2.1-2.9c1.2-1.2 2.7-2.4 4.3-2.9c0.6-0.2 1.8 1.5 3.7 3.3c-2.7 1.2-4.3 2.3-5.9 2.5zm92.4 864.7c-0.7 1.1-2.5 2.1-3.8 2.1c-0.8 0-2.4-2.5-2.1-3.3c0.5-1.3 2.3-2 4.4-3.6c0.8 2.3 2 4 1.5 4.8zm32.4-443.6c-0.2 1-2.1 1.7-3.3 2.5c-0.8-1.4-2.2-2.7-2.3-4c0-1 1.9-2 3.8-3.8c0.9 2.5 2.1 4.1 1.8 5.3zm31.2-316.8c-1.1-0.3-1.7-2.2-2.6-3.5c1.3-0.8 2.6-2.2 3.9-2.3c1 0 2 1.8 3.8 3.5c-2.4 1.2-3.9 2.6-5.1 2.3zm-132.7 300.5c-0.4-1.2-1.4-2.9-1-3.5c1-1.3 2.7-2.1 4.1-3c0.7 1 2.2 2.6 2 3.1c-0.9 1.5-2.4 2.6-3.7 3.8q-0.7-0.2-1.4-0.4zm53.3 260.2c-1.2-0.6-1.8-2.4-2.7-3.7c1.4-0.7 2.7-2.1 4-2.1c1 0 1.8 2 3.4 3.9c-2.2 0.9-3.8 2.2-4.7 1.9zm-117.4-426.2c-1 1.2-2.7 2-4.2 2.3c-0.5 0.1-2.3-2.3-2-2.9c0.7-1.3 2.2-2.3 4.3-4.2c1 2.4 2.3 4.3 1.9 4.8zm129.8 374.6c-0.6 1.2-2.4 2.3-3.8 2.3c-0.8 0-2.4-2.4-2.2-3.3c0.3-1.2 2.1-2 4.2-3.7c0.9 2.3 2.2 4 1.8 4.7zm111.4 49.5c-1.1-0.7-2.1-2.6-2-3.9c0-0.8 2.5-2.3 3.2-2c1.3 0.5 2 2.2 3.7 4.4c-2.4 0.7-4.1 1.9-4.9 1.5zm-131.5 175.6c-0.5 0.1-2-2.7-1.6-3.2c0.9-1.2 2.5-2.2 4-2.6c0.5-0.1 1.6 1.8 3.1 3.6c-2.5 1.1-3.9 2.1-5.5 2.2zm143.3-898.4c-1.1-0.3-2.7-2.7-2.4-3.5c0.6-1.3 2.4-2.4 3.8-2.7c0.7-0.2 1.8 1.8 3.3 3.5c-2.1 1.3-3.6 2.9-4.7 2.7zm96.8 18c-1.3-0.5-2-2.3-2.9-3.6c1.2-0.8 2.5-2.2 3.6-2.1c1.1 0.1 2.1 1.7 4 3.5c-2.2 1.1-3.9 2.6-4.7 2.2zm-300.3 667.5c-1-0.2-1.9-2-2.8-3.1c1.4-0.9 2.7-2.3 4.2-2.6c0.8-0.1 2 1.7 3.9 3.6c-2.5 1.1-4 2.3-5.3 2.1zm97.4 267.2c0.5-1.2 2.2-2.5 3.6-2.7c0.7-0.1 2.6 2.1 2.4 3c-0.2 1.2-1.8 2.3-3.5 4.3c-1.3-2.2-2.8-3.8-2.5-4.6zm319.3-888.9c-1.2-1-2.3-2.5-2.8-4.1c-0.2-0.4 2.2-2.4 2.7-2.1c1.4 0.7 2.4 2.1 4.3 4c-2.1 1.2-3.8 2.5-4.2 2.2zm-241.3 503.1c-1.2 0.7-2.8 2.3-3.5 2c-1.3-0.6-2.3-2.3-2.7-3.7c-0.2-0.5 1.7-1.6 3.4-3.1c1.3 2.2 2.1 3.5 2.8 4.8zm-133.7-372.8c-0.4 0.1-1.4-2-2.1-3.1c1.5-1 2.9-2.1 4.5-2.8c0.4-0.1 1.4 1.6 2.7 3.1c-2.1 1.2-3.5 2.4-5.1 2.8zm142.6 23.8c1.1-1.2 2.8-1.9 4.3-2.4c0.3-0.1 1.9 2.2 1.7 2.7c-0.9 1.3-2.3 2.3-4.2 4.1c-0.9-2.1-2.2-4-1.8-4.4zm-58.7 467.4c-1.1-0.2-1.9-2-2.8-3.1c1.3-0.8 2.5-2.1 3.9-2.3c0.8-0.2 1.8 1.5 3.5 3.2c-2.2 1.1-3.6 2.5-4.6 2.2zm15.8-222.8c-0.9 0-1.7-2.1-2.5-3.2c1.3-0.8 2.5-2.1 3.9-2.3c0.8-0.1 1.9 1.4 3.7 3c-2.4 1.3-3.8 2.6-5.1 2.5zm120.5-376.5c-1.2-0.8-2.1-2.3-2.5-3.7c-0.1-0.5 2.4-2.4 2.9-2.1c1.4 0.7 2.2 2.2 4 4.2c-2.1 0.8-3.7 2-4.4 1.6zm-44.9 241.4c-1.3-0.7-2.1-2.3-3.1-3.5c1.1-0.7 2.4-2.3 3.2-2c1.4 0.4 2.4 1.9 4.6 3.8c-2.5 1-4 2.1-4.7 1.7zm64.5-212.5c-1.1-1-2-2.6-2.1-4.1c-0.1-0.6 2.5-2.2 3-2c1.2 0.8 1.9 2.4 3.5 4.4c-2.1 0.9-3.9 2.1-4.4 1.7zm-220.2 530.2c-1.4 0.7-2.8 2-4 1.9c-1.1-0.2-1.9-2-2.7-3.1c1.1-0.9 2.2-2.2 3.4-2.3c1.1-0.1 2.3 1.3 3.4 2q-0.1 0.8-0.1 1.5zm109.1-201.3c-0.9-0.1-2.4-2.6-2.1-3c0.9-1.2 2.3-2.2 3.7-2.6c0.6-0.1 1.6 1.8 3.1 3.6c-2.2 1-3.5 2.1-4.7 2zm-107.3-226.7c0.5-0.2 2.1 2.3 1.9 2.4c-1 1.3-2.4 2.5-3.8 3.2c-0.4 0.2-1.7-1.5-3.3-3c2.3-1.2 3.7-2.3 5.2-2.6zm80.7 619.1c0.3-1 2.3-2.3 3.4-2.1c1 0.2 2.4 2.1 2.3 3.2c-0.1 1-1.9 1.9-3.7 3.5c-1-2.1-2.3-3.6-2-4.6zm71.8-634c-0.7-0.1-2.2-2.4-1.9-3c0.6-1.3 2.1-2.6 3.4-2.8c0.7-0.2 1.8 1.7 3.6 3.6c-2.4 1.1-3.8 2.2-5.1 2.2zm-39-57.3c-1.2-0.7-1.7-2.5-2.5-3.9c1.3-0.7 2.6-2 3.7-1.9c1 0.1 1.9 1.8 3.5 3.6c-2.3 1.1-4 2.5-4.7 2.2zm123.7-1.3c-0.4-1.3-1.5-2.9-1.1-3.8c0.4-1.1 2.2-1.8 3.3-2.6c0.7 1.2 2 2.5 1.9 3.6c-0.2 1.1-1.7 2.1-2.6 3.1q-0.7-0.1-1.5-0.3zm-188.2 762c-1.3 0.4-2.8 1.5-3.8 1.1c-1.1-0.5-1.7-2.2-2.5-3.4c1.2-0.7 2.5-2 3.7-1.9c1 0.1 1.9 1.7 2.9 2.7q-0.1 0.7-0.3 1.5zm114.7 173.7c-1.3-1-2.2-2.5-3.3-3.9c1.1-0.6 2.5-2.1 3.2-1.8c1.4 0.5 2.3 2 4 3.7c-1.9 1.1-3.5 2.3-3.9 2zm-459.2-990.2c-1.3 1.4-2.3 3.3-3.9 3.9c-1.4 0.5-3.3-0.5-4.9-0.8q0-0.6 0.1-1.3q3.8-1.6 7.7-3.1q0.5 0.7 1 1.3zm329.1 615.1c-1.2-0.5-2-2.3-2.9-3.5c1.2-0.8 2.4-2.1 3.6-2.1c1 0 2 1.6 4 3.2c-2.3 1.3-3.9 2.7-4.7 2.4zm28.6-272.6c-0.6 1.1-2.2 2.5-3.3 2.4c-0.9 0-2.5-2.1-2.4-3.1c0.2-1.1 2-1.9 3.9-3.6c0.9 2.1 2.2 3.6 1.8 4.3zm9.5-47.4c-0.5 1-2.2 1.6-3.4 2.3c-0.7-1.2-2.1-2.5-2-3.6c0.1-1.1 1.9-1.9 3.9-3.8c0.8 2.5 1.8 4.1 1.5 5.1zm67.5 290.6c-0.4-1.3-1.3-2.8-1.1-4c0.2-1.1 1.7-1.9 2.6-2.8c0.8 1.2 2.2 2.4 2.2 3.6c0 1.1-1.5 2.3-2.3 3.5q-0.7-0.1-1.4-0.3zm115.2-631.5c0.7-1.2 2.3-1.9 3.5-2.7c0.7 1.1 2 2.3 1.8 3.2c-0.2 1.2-1.6 2.1-3.3 3.9c-1.1-2.2-2.4-3.7-2-4.4zm-99.8 30.8c-1.2 0.4-2.6 1.4-3.5 1.1c-1.2-0.5-2-2-3-3c1.1-0.7 2.3-2 3.4-1.9c1.2 0.2 2.3 1.6 3.4 2.4q-0.1 0.7-0.3 1.4zm121.2 124.6c-0.5-0.6-0.2-2.9 0.3-3.2c2.9-1.3 4.7 0.1 5.7 3c-2.1 2-4.2 2.7-6 0.2zm-143.1-24.9c-0.4-1.3-1.6-2.8-1.2-3.9c0.3-1.1 2.1-1.7 3.2-2.6c0.6 1.1 1.8 2.3 1.7 3.3c-0.1 1.2-1.4 2.3-2.2 3.4q-0.7-0.1-1.5-0.2zm-157.6 313.6c0.5 0 1.7 2.7 1.5 2.9c-1.1 1.1-2.6 1.9-4 2.2c-0.5 0.1-1.4-1.7-2.7-3.5c2.3-0.8 3.7-1.6 5.2-1.6zm-49.5 243.8c0.6-1.1 2.1-2.1 3.4-2.3c0.6-0.1 2.4 2 2.2 2.7c-0.3 1.2-1.8 2.1-3.6 3.8c-1.1-2.1-2.4-3.6-2-4.2zm304.5 133.4c0.1 0.4-2.4 1.8-2.7 1.6c-1.1-1-2.2-2.4-2.6-3.9c-0.2-0.5 1.4-1.5 3-3.2c1.1 2.5 2 4 2.3 5.5zm-83.6 183.2c-0.1 0.9-2.3 2.5-2.8 2.2c-1.2-0.6-2.4-2-2.6-3.3c-0.1-0.8 1.6-1.8 3.2-3.6c1.2 2.2 2.3 3.6 2.2 4.7zm176.8-42.2c-0.1-0.2 2.2-1.5 2.4-1.3c1.2 1.1 2.2 2.6 2.9 4.1c0.2 0.2-1.4 1.3-3 2.6c-1-2.3-1.9-3.8-2.3-5.4zm-228.3 36c-0.5-1.1-1.7-2.6-1.4-3.2c0.7-1.1 2.2-2.1 3.5-2.5c0.5-0.1 1.5 1.6 2.9 3.2c-2.1 1.1-3.6 1.8-5 2.5zm6.5-298.7c-1-0.2-2.3-2.5-2-3.3c0.4-1 2.2-2 3.4-2.1c0.8 0 1.7 1.7 3.2 3.4c-2.2 1.1-3.6 2.3-4.6 2zm-71.3-542.6c-0.3 1-2.1 2.1-3.1 2c-1-0.1-2.7-2.1-2.5-2.5c0.5-1.2 1.9-2.1 3.7-3.8c1 2.1 2.2 3.4 1.9 4.3zm63.9 716.2c-0.6-1.1-1.9-2.5-1.6-3.4c0.3-1.1 1.9-2.2 3.2-2.4c0.6-0.1 1.6 1.7 3 3.3c-2.1 1.2-3.3 1.9-4.6 2.5zm-12.2-202.6c-0.9-0.2-1.6-1.9-2.4-3c1.2-0.8 2.3-2.1 3.6-2.2c0.8-0.1 1.8 1.5 3.7 3.2c-2.4 1.1-3.8 2.2-4.9 2zm-605-266.2c1.6-1.3 3-3.1 4.9-3.7c1.1-0.4 2.8 1.1 4.3 1.8q-0.2 0.5-0.4 1q-4 1.1-8 2.2q-0.4-0.6-0.8-1.3zm750.4-382.1c-0.8-0.2-1.4-2-2.1-3.1c1.2-0.8 2.4-2 3.6-2.1c0.8-0.1 1.8 1.6 3.4 3.3c-2.3 1-3.7 2-4.9 1.9zm-72.1 386.5c-1-0.3-1.6-2.2-2.3-3.3c1.2-0.8 2.4-2 3.6-2.1c0.9 0 1.8 1.7 3.4 3.3c-2.3 1.1-3.7 2.3-4.7 2.1zm45.5-241.8c-1-0.4-1.5-2.3-2.2-3.5c1.2-0.6 2.3-1.8 3.4-1.8c0.9 0.1 1.8 1.5 3.6 3.1c-2.3 1.1-3.8 2.5-4.8 2.2zm145.3 827.8c-1.2-1.2-2-2.8-2.9-4.3c0.9-0.5 2.2-1.6 2.6-1.3c1.4 0.9 2.4 2.3 4.2 4.2c-2 0.8-3.6 1.7-3.9 1.4zm-161.6-858.5c-0.5 1.2-2.1 1.9-3.2 2.7c-0.7-1-2-2.3-1.9-3.2c0.2-1.2 1.7-2.2 3.4-4.3c0.9 2.5 2 4 1.7 4.8zm-41.7 745.3c-0.8-0.1-1.6-2-2.3-3c1.2-0.8 2.3-2 3.6-2.2c0.7-0.1 1.7 1.4 3.3 2.9c-2.1 1.1-3.4 2.3-4.6 2.3zm104.5-830.7c-0.8-0.1-2.3-2.5-2-3c0.6-1.1 2.1-2.2 3.4-2.4c0.7-0.1 1.7 1.6 3.4 3.2c-2.3 1.1-3.6 2.3-4.8 2.2zm-158.9 321c-0.6-1.3-1.8-2.6-1.7-3.8c0-0.8 2-2.1 3-1.9c0.9 0.1 1.6 1.8 2.9 3.5c-1.9 1-3 1.6-4.2 2.2zm-51.4-12.8c0.7-1.1 2.3-1.9 3.6-2.2c0.5-0.1 2.1 2 1.9 2.7c-0.4 1.2-1.7 2.1-3.5 4c-1.1-2.3-2.3-3.9-2-4.5zm40.5 482.8c-0.7 1.1-2.2 1.8-3.3 2.6c-0.6-1.2-1.7-2.5-1.5-3.5c0.2-1 1.8-1.7 3.5-3.2c0.7 2.1 1.7 3.5 1.3 4.1zm238.3-752.8c-1.1-0.5-1.7-2.1-2.5-3.2c1.2-0.8 2.4-2 3.6-2.1c0.8 0 1.6 1.7 3.2 3.5c-2.1 0.9-3.6 2.2-4.3 1.8zm-163.1 869.4c-1.1-0.6-1.6-2.3-2.3-3.5c1.1-0.6 2.3-1.9 3.3-1.7c1 0.1 1.8 1.6 3.4 3.3c-2.1 1-3.7 2.3-4.4 1.9zm-78.2-667.6c1-1.1 2.5-1.9 3.9-2.4c0.2 0 1.9 2.2 1.6 2.7c-0.8 1.2-2.2 2.1-4 3.8c-0.8-2.1-1.9-3.7-1.5-4.1zm120.5-77c-0.3 1-1.9 1.6-2.9 2.4c-0.8-1.2-2.1-2.3-2.1-3.5c0-0.8 1.7-1.7 3.4-3.3c0.9 2.1 1.9 3.5 1.6 4.4zm-70 212.2c0.5-1.1 2.2-1.7 3.3-2.5c0.7 1.2 2 2.3 1.9 3.4c-0.1 1-1.7 1.8-3.4 3.5c-0.9-2.2-2.2-3.7-1.8-4.4zm217.1-481.7c-1.1-0.6-1.7-2.1-2.6-3.3c1-0.6 2.2-2 2.9-1.8c1.2 0.4 2.1 1.8 4 3.5c-2.2 0.9-3.7 2-4.3 1.6zm-153.6 19.6c-0.9 0-1.6-1.6-2.4-2.4c1.3-0.8 2.5-2 4-2.3c0.6-0.1 1.6 1.4 3.4 3c-2.4 0.9-3.7 1.8-5 1.7zm-27.4 267.8c0.4-1 2.2-1.9 3.3-1.8c0.7 0 2.2 2 1.9 2.7c-0.4 1.1-1.8 2-3.7 3.8c-0.8-2.4-1.9-3.9-1.5-4.7zm-106.3 582.9c-1-0.3-2.1-2.2-1.9-3c0.2-1 2-2.1 3.1-2c0.9 0 1.7 1.7 3.2 3.4c-2.1 0.9-3.5 2-4.4 1.6zm109.7-453.4c-0.4-1.4-1.2-2.8-1-4.1c0.1-0.8 1.6-1.5 2.5-2.3c0.7 1.1 2 2.3 2 3.4c0 1-1.4 2.1-2.1 3.1q-0.7-0.1-1.4-0.1zm-121.5 251.9c-0.4 0.1-1.9-2.2-1.6-2.8c0.6-1.1 1.9-2.1 3.2-2.5c0.4-0.2 1.4 1.6 2.8 3.2c-1.9 1-3.1 1.9-4.4 2.1zm254.3-681.2c-1 0.5-2.3 1.7-3.1 1.4c-1.1-0.3-1.9-1.7-2.8-2.6c0.9-0.9 1.8-1.8 3.5-3.4c1.1 2.2 1.8 3.4 2.4 4.6zm-295 497.8c-0.9-0.4-1.9-2.2-1.8-3.2c0.1-0.8 2-2.2 2.8-2c1 0.2 1.8 1.7 3.2 3.4c-2 0.9-3.4 2.1-4.2 1.8zm159.2-320.1c-0.4 0.1-1.7-2.2-1.4-3c0.3-1.1 1.8-2.4 2.8-2.5c0.8 0 1.8 1.6 3.4 3.3c-2.2 1.2-3.4 2.1-4.8 2.2zm212-61.8c-1.3-1-2.2-2.5-3.2-3.8c1.1-0.4 2.4-1.4 3.2-1.1c1.3 0.6 2.2 2 4.1 3.9c-2.3 0.6-3.7 1.4-4.1 1zm-391.5 352.4c-1-0.3-1.6-1.8-2.4-2.8c1.1-0.7 2.4-1.9 3.5-1.8c1 0.1 1.8 1.6 3.7 3.2c-2.4 0.8-3.8 1.7-4.8 1.4zm133.2-430.8c-0.1 2 0 4-0.5 5.9c-0.2 0.5-2.6 0.3-4.5 0.4c1.4-2.9 2.2-4.8 3.1-6.6q0.9 0.1 1.9 0.3zm90.9 21.1c0.6-1.1 2.2-1.9 3.5-2.1c0.6 0 2.1 2 1.9 2.7c-0.3 1.2-1.7 2.1-3.4 3.9c-1.1-2.2-2.4-3.8-2-4.5zm-12.9 97c-0.3 1-2 1.7-3 2.5c-0.7-1.3-1.9-2.5-2-3.8c-0.1-0.7 1.6-1.6 3.2-2.9c0.8 1.9 2 3.2 1.8 4.2zm-97 356.9c0.2-1 1.9-1.6 2.9-2.3c0.8 1.1 2 2.1 2.3 3.4c0.1 0.5-1.6 1.5-3.1 2.8c-1-1.7-2.3-3-2.1-3.9zm30.7 530.8c-0.3 1-2 1.5-3.1 2.3c-0.7-1.2-1.9-2.3-2-3.5c0-0.7 1.6-1.6 3.1-3c1 1.9 2.3 3.3 2 4.2zm-31.3-230.5c-0.1 0.7-2.1 1.8-2.9 1.6c-1-0.4-1.7-1.9-2.5-2.9c1-0.8 2-1.6 3.7-3c0.8 2 1.8 3.2 1.7 4.3zm51.2-287c-0.9-0.3-2.1-2.2-1.8-3.1c0.2-1 2-2.1 3-2.1c0.9 0.1 1.7 1.8 3.2 3.5c-2.1 0.9-3.5 2-4.4 1.7zm-25.3 392c0.3-1 2-1.6 3-2.4c0.7 1 2.1 2.1 1.9 2.9c-0.3 1.2-1.6 2.2-3.3 4.3c-0.9-2.4-1.9-3.8-1.6-4.8zm242.9-878.5c-0.1 0.8-1.8 1.3-2.7 1.9c-0.7-1.2-1.7-2.4-1.8-3.7c0-0.8 1.5-1.7 3.2-3.4c0.7 2.5 1.5 3.9 1.3 5.2zm-118.5-46.3c-0.6 0-1.8-2.3-1.5-2.8c0.5-1 2-2 3.1-2c0.7-0.1 1.6 1.4 3.2 3c-2.2 0.9-3.5 1.8-4.8 1.8zm228.3 264.8c0.1 0.6-1.4 1.3-2.2 2c-0.9-1.2-2-2.3-2.5-3.6c-0.2-0.5 1.2-1.5 2.6-3.2c1 2.2 1.9 3.5 2.1 4.8zm-197.5-158.4c-0.9-0.4-1.8-2.2-1.8-3.3c0-0.8 1.9-2.2 2.6-2c1.1 0.3 1.8 1.7 3.5 3.3c-2.1 1-3.5 2.3-4.3 2zm-116.8 875.8c1-1 2.4-1.8 3.7-2.1c0.4-0.1 2 1.9 1.8 2.4c-0.6 1.2-1.8 2-3.4 3.7c-1.1-2-2.3-3.7-2.1-4zm-58.9-85.5c0.5-1.1 2.1-1.6 3.2-2.4c0.6 1.1 2 2.3 1.8 3.1c-0.4 1.1-1.9 1.8-3.5 3.3c-0.8-1.9-1.9-3.4-1.5-4zm21.4-769.9c-0.5 0.1-1.9-2.1-1.8-2.3c0.9-1 2.1-2 3.4-2.5c0.5-0.1 1.5 1.3 3 2.6c-2.1 1.1-3.3 2-4.6 2.2zm-10 723.2c-1.1-0.4-1.7-1.8-2.5-2.8c1-0.6 2.1-1.9 2.9-1.7c1.1 0.1 2 1.5 3.8 3c-2.2 0.8-3.5 1.8-4.2 1.5zm-21.8-153.5c-0.9-0.2-1.4-1.8-2.1-2.8c1.1-0.7 2.2-1.8 3.3-1.9c0.8-0.1 1.6 1.5 3.1 3c-2 0.9-3.3 2-4.3 1.7zm47.7 431.2c-0.5 1.1-1.9 2.1-3.1 2.3c-0.5 0.1-2.1-1.8-2-2.6c0.2-1 1.6-1.9 3.1-3.6c1 1.9 2.3 3.3 2 3.9zm5-847.4c-0.9-0.2-1.4-1.7-2.1-2.6c1.2-0.6 2.3-1.7 3.5-1.8c0.8 0 1.6 1.5 3.3 3.2c-2.3 0.7-3.6 1.5-4.7 1.2zm-27.7 820.8c-0.8-0.1-1.5-1.6-2.2-2.6c1-0.7 2-2 3.1-2.1c0.8-0.2 1.8 1.3 3.4 2.7c-2 1-3.2 2.1-4.3 2zm57.9-713.1c-1-0.6-1.8-2-2-3.1c-0.1-0.6 1.8-2.2 2.2-2c1.2 0.6 2.1 1.8 4 3.5c-2.2 0.9-3.5 1.9-4.2 1.6zm87.5-187.4c-0.1 0.7-2.1 1.9-2.8 1.6c-1.1-0.4-2.1-1.8-2.3-2.9c-0.1-0.5 1.7-1.5 3.3-2.8c0.9 1.8 2 3.1 1.8 4.1zm-833.9 447.4c-0.4-2.2-0.9-4.5-1.7-8.1c2.2 1.2 4.2 1.8 4.2 2.5c0.2 1.9-0.5 3.9-0.9 5.8q-0.8-0.1-1.6-0.2zm744.4 288.2c-1-0.2-1.6-1.6-2.4-2.5c0.9-0.8 1.9-2.2 2.8-2.1c1 0.1 1.9 1.5 3.7 3c-2.1 0.9-3.3 1.9-4.1 1.6zm-147.8-29.9c0.9-1.1 2.2-1.9 3.5-2.1c0.4-0.1 1.9 1.9 1.7 2.6c-0.2 1-1.6 1.8-3.1 3.1c-1.1-1.8-2.3-3.3-2.1-3.6zm357.5-830.1c-0.3 0-1.7-2.2-1.4-2.6c0.8-1.1 2.1-2 3.4-2.5c0.2-0.1 1.2 1.5 2.5 3c-2 1-3.2 1.8-4.5 2.1zm9.4-49c-0.7-0.1-2-2.2-1.7-2.7c0.5-1.1 1.9-2.1 3-2.2c0.7-0.1 1.6 1.6 3 3.1c-1.9 0.9-3.2 1.9-4.3 1.8zm-339.7 611.2c-0.8 0-1.5-1.7-2.2-2.5c1.1-0.8 2.1-1.8 3.3-2c0.7-0.1 1.6 1.1 3.2 2.4c-2 1-3.2 2.1-4.3 2.1zm245.4-503.2c-0.6 0-2-2-1.7-2.8c0.3-1 1.6-2.1 2.8-2.3c0.5-0.2 1.5 1.5 2.9 3c-1.8 1-2.9 2.1-4 2.1zm-200.2 261.6c-0.7-0.1-1.2-1.8-1.9-2.7c1.2-0.7 2.3-1.7 3.5-1.8c0.7 0 1.5 1.4 2.9 2.8c-2.1 0.8-3.3 1.8-4.5 1.7zm203.8-137.6c-1 0.5-2.3 1.6-3.1 1.4c-1-0.3-2-1.7-2.1-2.8c-0.1-0.6 1.5-1.4 3-2.7c1 1.8 1.6 2.9 2.2 4.1zm-159.9-106.2c0.8-1.1 2.2-1.8 3.5-2.3c0.3-0.1 1.9 1.9 1.7 2.3c-0.6 1.3-1.8 2.2-3.5 4c-0.9-2.1-2-3.6-1.7-4zm109.5 96.9c-1.1-0.4-1.7-1.9-2.5-3c1-0.5 2.2-1.6 3.1-1.4c1.1 0.2 2 1.5 3.8 3c-2.2 0.8-3.6 1.8-4.4 1.4zm83.8-183.5c-1-0.7-1.7-2.1-1.9-3.3c0-0.5 2-2 2.4-1.7c1.1 0.5 1.9 1.7 3.3 3.3c-1.8 0.8-3.3 2-3.8 1.7zm62 83.7c0.1 0.3-1.9 1.7-2.3 1.5c-1.1-0.6-1.8-1.8-2.7-2.8c0.7-0.7 1.5-1.4 2.9-2.6c1 1.7 1.9 2.7 2.1 3.9zm-127.8 3.5c-0.8 0-1.6-1.3-2.4-2c1.1-0.9 2.2-2 3.5-2.5c0.5-0.2 1.5 1.1 3.1 2.4c-2 1-3.1 2-4.2 2.1zm-96.3-22.6c0.8 0.1 1.4 1.8 2.1 2.7c-1.2 0.6-2.3 1.6-3.4 1.6c-0.8 0.1-1.6-1.1-3.2-2.4c2.1-1 3.4-2 4.5-1.9zm-32.2 321.7c-0.7 1-2 1.6-3.1 2.3c-0.6-0.8-1.8-1.9-1.6-2.5c0.4-1.1 1.6-1.8 3.1-3.4c0.9 1.8 1.9 3.2 1.6 3.6zm31.5 607.3c0.5-1.1 1.9-1.7 2.9-2.5c0.6 0.8 1.9 1.9 1.7 2.5c-0.3 1.1-1.5 1.9-3 3.6c-0.9-1.8-1.9-3.1-1.6-3.6zm37.9-191.3c-1-0.4-1.6-1.7-2.3-2.7c0.9-0.6 2-1.9 2.8-1.8c0.9 0.2 1.6 1.6 3 3.1c-1.7 0.7-2.9 1.7-3.5 1.4zm30.6 228.6c0.5-1 1.8-1.7 2.8-2.6c0.6 0.8 2 1.9 1.8 2.4c-0.5 1.2-1.6 2.2-3.3 4.2c-0.8-2.1-1.7-3.3-1.3-4zm-120.8-546.3c-0.8-0.1-1.4-1.4-2-2.3c1-0.7 2-1.7 3.2-2c0.5-0.1 1.4 1.4 2.7 2.8c-1.8 0.8-2.9 1.7-3.9 1.5zm1.8 249.2c0.5-1.1 1.8-1.8 2.8-2.6c0.6 0.9 1.7 2 1.5 2.7c-0.3 1.1-1.5 2-3.1 3.8c-0.7-2.1-1.5-3.3-1.2-3.9zm492.6-635.4c0-0.4 1.4-1.1 2.2-1.7c0.8 1.2 1.8 2.3 2.3 3.6c0.2 0.5-1 1.4-2.2 3c-1.1-2.2-1.9-3.5-2.3-4.9zm-405.3 325c-0.2 0.8-2 1.9-2.7 1.7c-0.9-0.3-1.9-1.8-1.9-2.8c0-0.8 1.5-1.5 3-2.8c0.8 1.8 1.9 3 1.6 3.9zm48.6 135.2c-0.1 0.8-1.9 2.1-2.3 1.8c-1-0.5-2.1-1.7-2.1-2.7c0-0.8 1.5-1.6 2.9-3.1c0.8 1.9 1.7 3.1 1.5 4zm277.4-574.5c0.9-0.5 2.1-1.6 2.6-1.4c1.1 0.5 2 1.7 2.5 2.9c0.2 0.2-1.4 1.3-2.7 2.5c-1.1-1.8-1.7-2.9-2.4-4zm-204.2 314.5c-1-1.1-1.8-2.3-2.3-3.6c-0.1-0.2 1.8-1.7 2.1-1.5c1.1 0.8 1.9 2 3.5 3.7c-1.8 0.7-3.1 1.6-3.3 1.4zm-259.7 299.8c0.6-0.9 1.8-1.8 2.9-2c0.5-0.1 2 1.6 1.8 2.2c-0.2 1-1.5 1.7-2.8 3c-0.9-1.5-2.1-2.8-1.9-3.2zm113-326.6c-0.7-0.1-1.1-1.6-1.7-2.4c1-0.7 2-1.7 3-1.8c0.7 0 1.5 1.4 2.9 2.8c-2 0.7-3.1 1.6-4.2 1.4zm136.7-50.5c-0.4 0.9-1.8 1.5-2.7 2.2c-0.6-1-1.6-1.9-1.5-2.9c0-0.7 1.2-1.5 2.4-2.8c0.9 1.7 2 2.9 1.8 3.5zm-95.1 781c-0.5 1-1.8 1.6-2.7 2.4c-0.6-0.9-1.9-1.9-1.7-2.6c0.2-1 1.4-1.8 2.8-3.4c0.8 1.8 1.8 3 1.6 3.6zm-31.9 22.3c-0.4 0-1.7-1.9-1.5-2.5c0.4-1 1.7-2 2.7-2.2c0.5-0.1 1.4 1.5 2.6 2.8c-1.6 0.9-2.7 1.8-3.8 1.9zm132.4-975.7c-0.4-1.1-1.3-2.3-1.2-3.4c0.1-0.7 2-1.9 2.5-1.6c0.9 0.5 1.5 1.8 2.5 3.3c-1.6 0.7-2.7 1.2-3.8 1.7zm-110 201.9c-0.1 0.8-1.6 1.4-2.5 2.1c-0.6-1-1.7-2-1.7-3c-0.1-0.8 1.2-1.6 2.5-3c0.8 1.8 1.8 2.9 1.7 3.9zm-131.4 299.3c-0.6 0.9-2 1.7-3 1.6c-0.7 0-2-1.8-1.7-2.4c0.3-0.9 1.7-1.5 3.1-2.6c0.8 1.6 1.9 3 1.6 3.4zm174 260.9c-0.6 0-1.7-1.8-1.6-2.6c0.1-0.8 1.6-2.2 2.2-2.1c1 0.2 1.8 1.4 3.2 2.7c-1.8 1-2.8 2-3.8 2zm50.6-793c-0.1 0.7-1.7 1.2-2.6 1.8c-0.5-1-1.5-2.1-1.5-3.1c0-0.7 1.3-1.5 2.6-2.8c0.8 1.9 1.7 3.1 1.5 4.1zm-189.3 590.6c0.3-1 1.5-1.7 2.3-2.6c0.6 1 1.8 2 1.8 2.8c-0.1 1-1.3 1.9-2.7 3.5c-0.7-1.8-1.6-2.9-1.4-3.7zm215.1-485.4c0.1-0.6 1.9-1.8 2.5-1.6c0.9 0.4 1.9 1.7 2 2.7c0 0.6-1.4 1.4-2.7 2.7c-0.9-1.7-1.8-2.8-1.8-3.8zm-207 437.2c0.1-0.7 1.8-2 2.3-1.8c1 0.4 2.3 1.7 2.2 2.5c0 0.9-1.4 1.7-2.9 3.1c-0.8-1.7-1.7-2.8-1.6-3.8zm53.1 384.5c0.6-0.9 1.9-1.7 3-1.9c0.4-0.1 1.8 1.8 1.6 2.4c-0.3 1-1.6 1.6-3.1 2.9c-0.7-1.6-1.8-2.9-1.5-3.4zm-45.1-134.7c-0.5 0.9-1.8 1.8-2.8 1.8c-0.6 0-1.9-1.8-1.7-2.4c0.3-0.9 1.6-1.6 3-2.8c0.7 1.6 1.8 2.9 1.5 3.4zm177.5-540.1c-1.1 0.1-2.3 0.7-3.1 0.3c-0.9-0.5-1.7-1.8-1.9-2.8c-0.2-0.5 1.5-2 1.8-1.8c1 0.5 1.7 1.5 2.6 2.3q0.3 1 0.6 2zm-457-239.9c-0.5 2.7-0.9 4.8-1.3 6.9c4.1-0.9 4.6-2.8 1.3-6.9zm302.7 633.9c0.2-0.8 1.7-1.2 2.5-1.7c0.6 1 1.6 2 1.6 3.1c0 0.7-1.4 1.3-2.9 2.6c-0.6-1.9-1.4-3.1-1.2-4zm-18 97.9c0.6-0.8 1.8-1.3 2.8-1.9c0.5 0.8 1.6 1.9 1.4 2.3c-0.6 1-1.7 1.7-3.2 3c-0.5-1.6-1.3-2.8-1-3.4zm317.6-765.5c0.5-0.9 1.8-1.4 2.7-2.1c0.6 0.9 1.7 1.9 1.6 2.7c-0.2 0.9-1.5 1.6-2.9 3.1c-0.8-1.8-1.7-3-1.4-3.7zm-305.2 844.3c-0.9-0.7-1.5-1.8-1.8-2.9c-0.1-0.3 1.7-1.6 2.1-1.4c1 0.5 1.6 1.6 2.9 3.1c-1.6 0.6-2.8 1.5-3.2 1.2zm131.4-852.6c0.6-1 1.8-1.8 2.9-2.1c0.3-0.1 1.8 1.7 1.7 2.3c-0.3 1-1.6 1.7-2.9 3.1c-0.9-1.6-2-2.8-1.7-3.3zm-92.6 658.4c0 0.5-1.8 1.4-2.3 1.1c-0.9-0.5-1.8-1.7-1.9-2.7c0-0.5 1.6-1.2 3-2.3c0.6 1.8 1.3 2.9 1.2 3.9zm248.9-550.7c-0.8-0.1-1.3-1.6-2-2.5c1-0.5 2.1-1.4 3.2-1.4c0.8 0 1.6 1.2 3.1 2.5c-2.1 0.7-3.3 1.6-4.3 1.4zm-152.9 19.6c-0.6 0-1.2-1.4-1.8-2.1c0.8-0.7 1.7-1.8 2.6-1.9c0.8-0.1 1.7 1 3.4 2.2c-2.1 1-3.1 1.8-4.2 1.8zm-161.4 194.8c-0.9-0.3-1.5-1.4-2.3-2.2c1-0.7 1.9-1.7 2.9-1.8c0.8 0 1.6 1.3 3 2.5c-1.7 0.8-2.8 1.7-3.6 1.5zm53.7 258.2c-0.1 0.7-1.5 1.8-2.1 1.6c-0.8-0.2-2-1.4-2-2.1c0-0.8 1.3-1.6 2.5-2.9c0.9 1.6 1.7 2.6 1.6 3.4zm136.5-599.4c-0.3 0.8-1.8 1.7-2.6 1.5c-0.7-0.1-1.7-1.7-1.6-2.5c0.1-0.7 1.5-1.3 2.8-2.4c0.7 1.6 1.7 2.7 1.4 3.4zm-39 869.6c-0.9-0.4-1.3-1.8-2-2.8c0.8-0.5 1.9-1.5 2.4-1.3c1 0.4 1.7 1.5 3.3 2.9c-1.9 0.7-3.1 1.6-3.7 1.2zm-72.9 135.2c-0.6 0.9-1.8 1.6-2.9 1.9c-0.3 0.1-1.7-1.7-1.6-2.2c0.4-1 1.5-1.7 2.9-3.2c0.8 1.7 1.9 3 1.6 3.5zm171.5 8.8c-1-0.7-1.7-2-2.4-3c0.8-0.5 1.9-1.6 2.4-1.4c1 0.4 1.7 1.6 3 3c-1.5 0.7-2.8 1.7-3 1.4zm143-1029.3q0.2 2.2 0.4 4.4c-1.3 0.1-2.7 0.2-5.2 0.3c1.6-2.3 2.4-3.5 3.3-4.7q0.7 0 1.5 0zm-378.1 558.1c-0.1 0.6-1.7 1.5-2.4 1.4c-0.8-0.2-2.1-1.6-1.9-2.2c0.1-0.8 1.4-1.4 2.8-2.6c0.8 1.5 1.7 2.6 1.5 3.4zm205-309.7c-0.5 0-1.4-1.8-1.1-2.3c0.5-0.8 1.7-1.7 2.5-1.7c0.8 0.1 1.5 1.4 2.8 2.9c-1.9 0.6-3.1 1.2-4.2 1.1zm124.1-126.8c-0.8-0.2-1.3-1.6-1.8-2.4c0.9-0.6 1.9-1.7 2.8-1.6c0.7 0 1.4 1.4 2.7 2.8c-1.8 0.6-2.9 1.5-3.7 1.2zm-218.2 235.1c-0.5 0.1-1.9-1.5-1.7-1.9c0.5-1 1.3-2.1 2.3-2.5c0.5-0.2 1.6 1.2 3 2.4c-1.7 1-2.6 1.9-3.6 2zm149.6-272.6c-0.3-0.9-1.2-2.1-0.9-2.7c0.3-0.8 1.8-1.6 2.6-1.3c0.7 0.2 1.6 1.6 1.6 2.5c0 1-1 2-1.6 2.9q-0.8-0.7-1.7-1.4zm-180.8 165.6c-0.4 0-0.9-1.5-1.4-2.3c1.1-0.5 2.1-1.3 3.2-1.5c0.5 0 1.2 1.1 2.2 2.2c-1.7 0.7-2.9 1.4-4 1.6zm27.1 655.3c-0.9-0.5-1.3-1.7-1.9-2.6c0.8-0.5 1.9-1.6 2.3-1.4c1 0.6 1.7 1.7 3.2 3.3c-1.9 0.4-3 1-3.6 0.7zm347.8-785.1c-0.8-0.5-1.5-1.7-1.5-2.6c0-0.5 1.6-1.6 2.1-1.4c0.8 0.4 1.4 1.5 2.5 2.8c-1.5 0.6-2.7 1.5-3.1 1.2zm-322.8 938c-0.2 0.7-1.6 1.2-2.4 1.8c-0.6-0.9-1.5-1.7-1.6-2.6c-0.1-0.7 1.1-1.4 2.2-2.6c0.9 1.6 1.9 2.6 1.8 3.4zm181.8-841c-0.1 0.6-1.4 1-2.2 1.6c-0.5-1-1.4-1.9-1.4-2.8c-0.1-0.7 1.1-1.4 2.3-2.7c0.7 1.9 1.5 2.9 1.3 3.9zm-185.2-210.5c-0.5 0.8-1.7 1.4-2.7 1.6c-0.3 0.1-1.6-1.5-1.4-2c0.4-0.9 1.4-1.5 2.7-2.8c0.8 1.6 1.7 2.8 1.4 3.2zm288.5 54.2c-0.9 0.5-1.8 1.4-2.7 1.5c-0.6 0-1.8-1.4-1.7-1.9c0.1-0.9 1.2-1.6 2.3-3c1 1.6 1.6 2.5 2.1 3.4zm-336.7 312.2c0.5-0.9 1.7-1.5 2.7-1.7c0.3-0.1 1.6 1.7 1.4 1.9c-0.6 1-1.7 1.7-3.2 3c-0.5-1.5-1.2-2.7-0.9-3.2zm361.6-332.4q2 0.8 4 1.5q-1 1.3-2 2.5q-1.4-1.2-2.9-2.5q0.4-0.7 0.9-1.5zm-237.7 82.7c-0.7-0.2-1.4-1.7-1.4-2.6c0.1-0.6 1.6-1.5 2.3-1.4c0.8 0.2 1.5 1.3 2.8 2.6c-1.8 0.8-2.9 1.6-3.7 1.4zm-151 273.1c-0.8-0.3-1.5-1.7-1.5-2.7c0-0.5 1.5-1.8 2-1.6c0.9 0.2 1.6 1.3 2.9 2.6c-1.6 0.9-2.8 2-3.4 1.7zm285-322.1c-0.5-0.1-0.9-1.5-1.4-2.3c1-0.6 2-1.5 3.1-1.7c0.5-0.1 1.2 1.3 2.3 2.6c-1.8 0.7-2.9 1.4-4 1.4zm-169.4 916.8c0 0.4-1.8 1.5-2.2 1.3c-0.9-0.6-1.6-1.6-1.9-2.6c-0.1-0.4 1.2-1.2 2.4-2.3c0.8 1.6 1.6 2.6 1.7 3.6z" /></svg>