<svg version="1.2" xmlns="http://www.w3.org/2000/svg" viewBox="0 0 1246 1150" width="1246" height="1150"><style>.s0{fill:#303030}</style><path class="s0" d="m922.3 99.2c-0.4 2.7-3.6 5.3-6 5c-2.4-0.5-6.3-6.3-5.1-8.7c0.8-1.6 3.1-2.4 3.9-3c5.3 1 7.7 3.6 7.2 6.7zm-34.2 13c2.8 0.7 5 4.1 4.4 7.1c-0.6 3.1-3.8 5.4-6.8 4.8c-2.9-0.6-4.3-3.4-3.6-6.9c0.7-3.5 3.2-5.6 6-5zm19.7 29.6c3.3 0.6 4.8 2.9 4 6.1c-0.7 3.4-3.7 5.6-6.6 4.9c-2.8-0.5-4.4-3.3-3.7-6.4c0.7-3.4 3.2-5.2 6.3-4.6zm-43.6-2.4c-0.7 2.8-3.5 4.4-6.6 3.7c-2.8-0.7-4.9-2.2-4.5-5.5c0.4-3.2 3.6-5.4 6.7-4.8c3.1 0.6 5 3.6 4.4 6.6zm241.2 44.5c-0.3 2.8-3.2 4.9-6 4.6c-3.1-0.5-5.4-3.3-5-6.2c0.4-2.9 3.5-5 6.5-4.5c2.9 0.5 4.9 3.2 4.5 6.1zm37 7.8c0.6-3.4 3.3-5.4 6.7-4.7c3.2 0.7 4.4 2.7 3.8 5.9c-0.6 3.3-3.6 5.4-6.7 4.8c-2.8-0.5-4.4-3-3.8-6zm29.7-20.9c0.6-3.6 3.4-3.8 6.1-3.4c3.5 0.3 5.4 2.6 4.8 5.4c-0.5 3-3.5 5.4-6.2 4.9c-2.7-0.4-5.2-4-4.7-6.9zm-241.4-45.1c0.4-3.1 2.8-3.5 5.3-3.3c3.8 0.3 6.3 2.7 5.9 5.5c-0.4 2.8-3.2 5-6 4.7c-2.9-0.3-5.6-3.7-5.2-6.9zm68.5 164.2c0.6-3.1 3.6-5.2 6.4-4.5c3 0.7 4.5 2.6 3.9 5.9c-0.6 3.4-3.4 5.3-7.2 4.5c-2.5-0.7-3.6-2.8-3.1-5.9zm134.1-125.6c-0.5 2.8-3.6 5.1-6.5 4.5c-3-0.6-4-2.7-3.5-5.6c0.5-3.4 3.1-5.6 5.9-5.2c2.7 0.5 4.7 3.4 4.1 6.3zm-182.2 116c0.9-3.1 3.3-4.5 6.4-4.2c2.9 0.2 5.1 3.5 4.4 6.5c-0.8 3-2.9 4.3-5.3 4c-3.9-0.8-6.3-3.6-5.5-6.3zm-172.2-82.8c-0.5 2.8-3.4 4.9-5.8 4.5c-2.4-0.5-5.7-5.6-4.6-8c0.8-1.5 2.9-2.4 3.7-3c4.8 0.9 7.3 3.7 6.7 6.5zm324.9 231.5c3.2 0.8 4.2 3 3.6 6.1c-0.7 2.9-3.4 4.6-6.4 3.9c-3-0.8-4.4-2.8-4-5.6c0.8-3.4 3.7-5.2 6.8-4.4zm-64-157.9c-0.6 2.8-3.9 5.3-6.5 4.9c-2.5-0.5-4.8-4.1-4.1-6.9c0.8-3.4 3.5-3.5 5.9-3.3c3.7 0.8 5.2 2.6 4.7 5.3zm-62.8 33.9c3 0.5 4.7 3.2 4 6.3c-0.7 3.2-2.7 4.5-5.9 3.9c-3.1-0.7-5-3.4-4.5-6.1c0.6-2.8 3.5-4.7 6.4-4.1zm185.9-161.1c-0.3 2.9-3.2 5.6-5.6 5.3c-2.4-0.4-4.6-4.5-4.2-7.8c0.4-3.2 2.6-3.6 5.1-3.4c3.2 0.5 5.1 3 4.7 5.9zm-284.5 17.7c3.2 0.2 4.8 2 4.6 5.2c-0.2 3.2-2.5 5.3-5.5 5.1c-2.8-0.2-5.1-2.7-4.8-5.4c0.2-2.8 2.8-5.1 5.7-4.9zm-12.3 228.2c-0.5 3.2-2.8 5-5.9 4.4c-3.2-0.6-4.5-2.7-4-5.8c0.4-3 3-5 5.9-4.5c2.7 0.4 4.4 2.9 4 5.9zm77.9-306.3c-3-0.5-5.2-3.4-4.7-6c0.6-2.8 4.4-5.3 7.2-4.6c3.1 0.8 2.9 3.4 2.7 5.5c-0.7 3.9-2.5 5.6-5.2 5.1zm97.9 8c2.7 0.5 4.9 3.8 4.3 6.8c-0.6 2.7-2.4 4-5.3 3.5c-3.1-0.5-5.4-3.3-4.9-6.2c0.5-2.7 3.2-4.6 5.9-4.1zm51.5-34.7c0.7-3.4 3.4-3.9 6.2-3.3c2.6 0.6 5.3 1.6 5 5.1c-0.2 2.6-3.7 4.5-6.9 3.9c-3-0.5-4.9-2.9-4.3-5.7zm-86.3 59c0.5-2.9 3-4.5 5.8-3.9c3 0.7 5.6 3.9 4.8 6.4c-0.9 3-3.3 3.9-6.1 3.6c-3.1-0.7-5-3.3-4.5-6.1zm68.1 37.1c0.8-3 3.1-3.8 5.9-3.4c3 0.4 5.3 3.5 4.6 6.3c-0.7 2.8-2.7 4.1-5.1 3.9c-3.6-0.7-6.1-4-5.4-6.8zm-178.7 216.6c-0.6 2.6-4.1 5-6.6 4.6c-2.6-0.4-4.4-3.4-3.7-6.5c0.7-3.3 3.3-3.6 6.2-3.4c2.4 0.9 4.7 2 4.1 5.3zm217.6-158.8c0.6-2.8 3.5-4.4 6.5-3.7c3.1 0.8 4 3 3.6 5.8c-0.5 2.9-3.2 4.7-5.9 4.1c-2.9-0.6-4.9-3.5-4.2-6.2zm-154.4 316.7c3.2 0.5 5 2.9 4.4 6c-0.6 3.2-2.7 4.4-5.8 3.9c-3.1-0.6-4.7-2.5-4.4-5.8c0.8-3 2.6-4.5 5.8-4.1zm89.4 191.5c3.1 0 5.4 3.7 4.7 6.7c-0.8 2.6-2.6 4-5.4 3.6c-2.9-0.5-5-4-4-8.5c1.1-0.5 2.9-1.8 4.7-1.8zm-27.5-520.7c-2.8-0.8-4.3-2.7-3.8-5.7c0.5-3 3.6-5.6 6.2-5.2c3.9 0.7 2.9 3.8 3 6c-0.6 3.7-2.7 5.6-5.4 4.9zm-120.1-127.8c-0.5 2.9-3.5 5.2-6 4.6c-2.4-0.5-4.5-4.2-3.9-7c0.6-3.1 2.8-3.4 4.9-3.2c3.6 0.7 5.4 2.9 5 5.6zm112.4 176.9c-2-0.3-4.2-4.7-3.7-7.7c0.5-2.8 2.5-3.6 5.1-3.3c3 0.3 5 3.1 4.5 5.9c-0.5 2.8-3.6 5.5-5.9 5.1zm-197.9 378.5c2.8-0.2 5.5 3.5 5 6.2c-0.6 3-2.8 4-5.6 3.6c-3.1-0.4-5-3-4.2-7.4c1.1-0.6 2.9-2.2 4.8-2.4zm273.2-145.4c0.7-2.7 2.8-3.5 5.2-3.2c3.1 0.5 5.7 4.2 4.4 6.9c-0.7 1.7-2.8 2.8-3.6 3.6c-4.2-0.9-6.7-4.6-6-7.3zm-46.8-253.2c-2.7-0.2-5.3-3.6-4.9-6.3c0.3-2.7 3.3-5.2 5.9-4.7c3.9 0.7 3.5 3.7 3.5 6.1c-0.4 3-1.4 5.1-4.5 4.9zm-62.3 34.4c0.5-3.3 3.3-5.4 6.1-4.7c3 0.8 4.1 2.8 3.6 5.7c-0.5 3.1-3.4 5-7 4.3c-2.2-0.6-3.2-2.5-2.7-5.3zm161.1 98.1c2.3-0.3 4.2 4.4 3.4 7.5c-0.6 2.3-1.8 3.9-4.5 3.4c-2.9-0.6-5.1-4.1-5-8c2-1.1 4-2.7 6.1-2.9zm-147.4 152.7c-0.1 3.2-3.5 5.8-6.3 5.1c-3-0.7-3.7-3.1-3.2-5.8c0.6-3.1 3.5-5 7.9-4.1c0.4 1.2 1.7 3 1.6 4.8zm22.6-14.8c-2.7-0.6-5-4.3-4.3-6.8c0.9-3.1 3.4-4.1 6.2-3.5c3.3 0.6 3.6 3.4 3.4 6.2c-0.9 2.5-2.1 4.7-5.3 4.1zm-172.1-387c-0.5 2.8-2.4 4-5.2 3.7c-3-0.3-5.7-3.5-5.2-6c0.4-2.4 3.3-4.3 6-3.9c2.8 0.5 5 3.5 4.4 6.2zm87.7 140.9c0.7-3 2.9-4 5.7-3.7c2.9 0.4 5.5 3.5 4.5 6c-0.7 1.8-2.7 3.2-3.6 4.1c-4.3-0.7-7.1-3.9-6.6-6.4zm145.3 448c3.2 0.5 5.6 3.7 4.9 6.6c-0.7 2.8-2.8 3.6-5.5 3.3c-3.1-0.5-5.1-3.3-4.5-6.7c0.6-2.4 2.3-3.7 5.1-3.2zm-28.7-400.9c0.8-3.4 3.7-3.9 6.6-3.3c2.5 0.4 4.8 1.4 4.2 4.7c-0.6 2.7-3.9 4.7-7.3 4c-2.2-0.8-4.2-2.5-3.5-5.4zm-149.6 26.5c-2.9-0.5-5.1-3.5-4.6-6.1c0.5-2.6 3.8-5.2 6.2-4.5c3.2 0.9 3.3 3.7 3.2 6.3c-0.7 2.6-1.7 4.8-4.8 4.3zm234.8 83.9c2.9 0.6 3.9 2.5 3.4 5.3c-0.5 3-3.8 5.7-6.2 5c-3.1-0.8-3.5-3.2-3.4-5.5c0.7-3.6 3.2-5.3 6.2-4.8zm-16.5 52.5c0.7-2.9 2.7-4.2 5.6-3.7c3.3 0.6 4.5 2.8 4 5.9c-0.4 3-2.3 4.4-5.2 4.1c-3-0.6-5.1-3.5-4.4-6.3zm-120.2-372.2c-0.6 3.1-2.6 4.6-5.8 3.9c-3.1-0.7-4.4-2.8-4-5.8c0.5-3.3 2.9-4.1 5.7-3.8c3.3 0.7 4.9 2.6 4.1 5.7zm38.7 436.7c-2.8-0.8-4.4-2.9-4-6c0.2-2.6 3.1-4.3 6-3.8c2.8 0.5 4.6 3.1 4 5.8c-0.5 2.6-3.6 4.8-6 4zm137.7-229.8c0.9-2.8 3.1-3.7 5.7-3.1c2.9 0.7 4.8 2.6 4.2 5.8c-0.5 2.9-2.4 4.3-5.2 4c-3-0.6-5.4-4.2-4.7-6.7zm-176.6 172.4c-2.8 0-5-3.6-4.5-6.4c0.4-2.7 3.3-4.8 5.7-4.3c2.4 0.5 4.1 4 3.2 8.6c-0.9 0.5-2.6 2.1-4.4 2.1zm142.1-358.9c2.8 0.7 4 2.9 3.6 5.7c-0.4 2.9-3.8 5.7-5.9 4.5c-1.9-1-3-3.3-4.4-5.1c1.4-3.4 4.3-5.8 6.7-5.1zm-458.4-55.4c-0.9 1.8-3.1 3.5-5 3.9c-2.3 0.4-6.1-4.8-5.2-7c0.6-1.5 2.7-2.3 3.4-2.8c4.7 0.8 7.8 3.8 6.8 5.9zm290.7 685c-2.6-0.4-4.7-3.6-4.3-6.3c0.4-2.8 3.2-4.9 5.8-4.3c3.3 0.7 3.7 3.4 3.6 5.9c-0.5 3.2-2.7 5.2-5.1 4.7zm80.9-65c0.8-3.1 3.1-4 5.8-3.3c2.9 0.6 4.8 2.5 4.2 5.7c-0.6 2.9-2.6 4.1-5 3.7c-3.7-0.7-5.7-3.4-5-6.1zm-61.1-337.3c0.8-2.8 2.9-3.8 5.6-3.3c2.9 0.5 4.9 3.7 4.2 6.7c-0.6 2.5-2.1 3.9-4.9 3.4c-3.1-0.7-5.6-4.1-4.9-6.8zm-197.6-116c2.7 0.6 5.3 1.7 5 5.2c-0.3 2.5-3.8 4.8-6.3 4.3c-2.5-0.5-4.7-3.9-4.1-7.1c0.7-2.3 2.8-3 5.4-2.4zm198.9 536.5c2.6 0.2 4.5 3.2 3.7 6c-0.7 2.9-2.4 5.1-5.6 4.5c-3-0.7-4.2-3.1-4-6.1c0.9-3 2.9-4.6 5.9-4.4zm128.8-426.7c2-0.6 4.3 4.2 3.8 7.3c-0.5 2.7-2.1 3.9-4.8 3.5c-3-0.4-5-3.1-5.2-6.9c2.1-1.4 3.9-3.3 6.2-3.9zm100.8 25.3c-0.5 2.8-2.2 4.6-5.3 4.1c-2.8-0.4-5.1-3.5-4.5-6.1c0.6-2.9 2.7-3.9 5.7-3.6c3 0.6 4.7 2.4 4.1 5.6zm-153.2-273.8c-3-0.5-4.4-2.5-4.2-5.3c0.2-3.3 2.3-4.8 5.4-4.5c3 0.2 4.5 1.9 4.5 4.6c-0.3 3.3-3 5.7-5.7 5.2zm-12.7 42c0.8-1.6 3.1-3.2 4.9-3.3c2.9-0.3 5.8 3.3 4.8 5.9c-0.7 1.9-2.7 3.2-3.6 4.2c-4.3-0.7-7.4-4.4-6.1-6.8zm-122 673.6c3 0.1 6.1 4.5 4.8 6.6c-1 1.6-3.5 2.9-5.3 3c-3 0.1-5.1-3.4-4.2-7.8c1.1-0.4 3-1.9 4.7-1.8zm38.5-438.4c-0.4 2.5-3.8 4.4-6.6 3.7c-2.9-0.8-4-3-3.6-5.8c0.5-3.1 2.9-3.8 5.8-3.5c2.5 1 4.9 2.2 4.4 5.6zm-45.6-315.3c3.2 0.6 2.5 3.2 2.2 5.4c-0.4 3.3-3.4 5.9-5.9 5c-1.7-0.6-2.9-2.6-3.8-3.4c0.8-4.6 4.6-7.6 7.5-7zm46.7 10.6c3 0.6 4.6 3 3.8 5.8c-0.8 2.8-2.5 4.4-5.6 3.8c-2.9-0.6-4.7-3.5-4.1-6.3c0.5-2.6 3-3.9 5.9-3.3zm165.5 190.6c-3 0-6-4.2-4.8-6.6c0.9-1.5 3.3-3 5.1-3.1c3-0.2 5.1 3.3 4.3 7.6c-1.1 0.5-2.8 2.1-4.6 2.1zm-331.1 133.2c0.9-3.1 3.3-4.1 6.2-3.7c2.8 0.4 4.5 3.2 3.8 6c-0.7 2.7-2.4 4-4.5 3.7c-3.9-0.8-6.2-3.5-5.5-6zm155.1-266.6c-2.7-0.3-4.9-3.3-4.4-5.7c0.4-2.6 3.5-4.2 6.6-3.6c2.8 0.5 4.1 2.3 3.7 5.3c-0.9 2.8-2.7 4.5-5.9 4zm105.7 340c0.9-2.9 3.2-3.8 6-3.3c3.1 0.6 4.4 2.8 3.9 5.8c-0.5 2.8-2.1 4.5-4.3 4.1c-4-0.8-6.3-3.9-5.6-6.6zm-195.6 143.9c-2.5-0.5-4.8-4.1-4.3-6.5c0.4-2.5 3.4-4.4 6.1-3.7c3.1 0.7 3.7 3.1 3.4 5.9c-0.8 2.5-2 4.8-5.2 4.3zm-128.3-384.1c3 0.8 3.9 3.1 3.4 5.9c-0.5 2.8-2.1 4.6-5.2 4.3c-2.8-0.3-4.5-3-4-6c0.6-2.9 3.1-4.9 5.8-4.2zm216.2-54.8c-0.8 3.3-3.8 4-6.7 3.6c-3.1-0.4-4.5-2.6-3.9-5.4c0.5-3.1 3-3.7 6.1-3.3c2.3 0.8 5.3 1.6 4.5 5.1zm198.6 242.2c-2.4 0.3-5.2-4.3-4.5-6.6c0.9-2.8 3.1-4 5.9-3.7c2.7 0.3 4.1 3.1 3.2 7.7c-0.9 0.6-2.7 2.4-4.6 2.6zm12.4-177.8c-0.6 3-2.5 4.8-5.7 4.5c-2.7-0.3-4.5-3.2-3.9-6c0.7-3.3 3-4.1 6-3.9c2.7 0.9 4.1 2.6 3.6 5.4zm-158.6 320c-0.5 2.9-2.8 4.8-6 4.7c-2.6-0.2-4.8-3.4-4.1-5.8c1-3.3 3.6-3.8 8-3.3c0.5 1.1 2.4 2.9 2.1 4.4zm15.3-222c-0.4 2.8-1.5 5.2-5 4.9c-3.1-0.3-4.7-2.4-4.5-5.4c0.1-3.2 2-4.8 5.6-4.6c2.6 0.4 4.2 2 3.9 5.1zm8-172.9c-0.7 3.2-3.1 4.3-6 3.7c-3.1-0.6-4.5-2.9-3.9-5.9c0.6-2.9 2.8-4 5.8-3.5c2.7 0.9 4.7 2.5 4.1 5.7zm-94.4 182.5c0.5-3.1 2.7-4 5.6-3.5c2.9 0.6 4.5 2.3 4 5.4c-0.5 2.9-2.4 4.3-5.4 4c-3-0.9-4.7-2.7-4.2-5.9zm111.6 100.6c-2.5 0.2-5-3.5-4.6-6c0.4-2.5 3.4-4.3 6.2-3.5c2.9 0.8 3.9 2.8 3.4 7.1c-1.2 0.6-3 2.3-5 2.4zm-74.5 126.6c2.7-0.1 4.6 3.2 4 6.2c-0.6 2.8-2.4 4.1-5.2 3.6c-2.9-0.5-4.7-3.4-3.9-7.7c1.2-0.5 3.1-2 5.1-2.1zm125.8-297.1c0.5-2.9 2.6-4 5.4-3.5c2.8 0.6 5 2.1 4.8 5.3c-0.2 2.7-3.2 4.5-6.2 4c-2.8-0.8-4.4-2.8-4-5.8zm-275.7 568.2c3.2 0.6 3.9 3.3 3.3 6.2c-0.5 2.5-2 4.4-5 3.9c-2.5-0.4-4.5-3.8-3.9-7c0.8-2.2 2.8-3.7 5.6-3.1zm175-667.9c2.7 1.1 3.5 3.7 2.8 6.3c-0.8 3-3.2 4.6-6.1 3.4c-1.6-0.6-2.7-2.8-3.5-3.7c0.9-4.1 4.6-6.9 6.8-6zm-218.5 740.3c0.5-2.4 1.8-3.9 4.4-3.5c3 0.4 6.1 4 5 6.5c-0.7 1.7-2.9 2.7-3.8 3.4c-4.3-0.8-6.2-3.5-5.6-6.4zm81.6-814.9c3.1 0 4.9 3.1 4 6.1c-0.7 2.7-2.5 4.4-5.5 4c-2.4-0.4-4.1-3.8-3.2-8.2c1.1-0.5 2.9-1.9 4.7-1.9zm295.9 185.6c-0.5 2.7-2.1 4.4-5 4c-2.7-0.3-5.6-3.9-4.6-6.4c0.6-1.7 2.7-2.9 3.5-3.7c4.4 0.7 6.7 3.5 6.1 6.1zm-257.6 546.8c2.5-0.2 4.7 3.4 4.1 6.2c-0.6 2.7-2.3 4.2-5.2 3.7c-2.5-0.4-4.5-3.8-3.7-7.8c1.1-0.5 2.9-2 4.8-2.1zm-29.5-477.1c-0.3 2.9-3.6 5.9-6.1 5.2c-3.5-0.9-3.2-3.8-3-6.5c0.3-2.9 1.9-4.2 4.8-4c2.8 0.7 4.6 2.3 4.3 5.3zm-48.8 67c0.9-2.9 3.1-4.1 5.9-3.4c3.1 0.8 4.4 3.1 3.7 6.1c-0.6 2.6-2.4 4-4.6 3.6c-3.6-0.8-5.8-3.8-5-6.3zm32.4 231.7c0.6-3.2 3.3-4.1 6.2-3.7c2.5 0.2 4.2 1.6 3.8 4.5c-0.4 2.8-3.3 5.1-6.4 4.6c-2.4-0.7-4.1-2.6-3.6-5.4zm86-60c0.6-2.6 2.5-3.7 5.1-3.2c3 0.5 5 3.5 4.3 6.6c-0.7 2.6-2.3 3.8-4.6 3.4c-3.1-0.7-5.5-4.1-4.8-6.8zm10.2 127.5c-0.3 2.6-1.7 4.2-4.5 4c-2.3-0.1-5.4-3.9-4.5-6.1c0.8-1.9 2.7-3.4 4.1-5.1c3.1 1 5.3 4.3 4.9 7.2zm236.5-380.8c0.4-2.7 3.1-4.3 6.1-3.5c2.9 0.6 4 2.6 3.5 5.3c-0.6 2.8-2.3 4.5-4.9 4.3c-3.1-0.7-5.1-3.6-4.7-6.1zm-350.2 30.1c3.1 0.6 4.2 2.8 3.6 5.6c-0.6 3-2.7 4.5-5.9 3.9c-2.8-0.5-3.8-2.5-3.4-5.4c0.9-2.6 2.5-4.7 5.7-4.1zm259.2-52.6c3.1 0.9 4.2 3.4 3.7 6.2c-0.5 3.2-3 3.9-5.8 3.4c-2.8-0.5-3.9-2.4-3.7-4.9c0.6-3.1 3.5-5.4 5.8-4.7zm-176.1 247.7c0.5-2.9 2.5-4 5.2-3.7c3.1 0.3 5.2 2.9 4.6 5.8c-0.5 2.7-2.1 4.2-4.6 3.9c-3.3-0.6-5.6-3.3-5.2-6zm231.3-107.8c0.2 2.6-4 5.4-6.4 4.6c-2.7-0.8-4.4-2.5-3.9-5.6c0.3-2.5 3.7-4 8.1-3.1c0.5 0.8 2.1 2.4 2.2 4.1zm-276.2-156.7c1.6 1.1 2.6 3.8 2.6 5.8c0 2.9-2.3 4.8-5.1 3.9c-1.8-0.5-3-2.8-4-3.7c0.9-4.2 4.7-7.4 6.5-6zm214.8 315.4c1.9-0.3 4.6 4.7 3.6 7.1c-0.6 1.5-2.7 3.2-4.4 3.4c-2.3 0.4-4.8-4-4.9-7.5c1.9-1.1 3.7-2.6 5.7-3zm-117.5-172.2c1.8-0.5 4.1 4.1 3.5 6.8c-0.5 2.6-2.3 3.8-5 3.2c-2.9-0.5-4.4-2.2-3.9-6.8c1.3-0.8 3.2-2.7 5.4-3.2zm-147 228.5c0.6-2.7 2.5-3.9 5.3-3.4c2.6 0.5 4.8 4 3.8 6.5c-0.8 1.6-2.8 2.7-3.6 3.5c-4.1-0.8-6.2-3.8-5.5-6.6zm18.4 198.1c2.7 0.8 3.6 3 3.1 5.6c-0.6 2.9-2.4 4.9-5.6 4.4c-2.9-0.6-4-2.8-3.7-5.4c0.6-3 3.7-5.3 6.2-4.6zm-85.2-615.3c2.8 0.7 3.9 2.7 3.3 5.5c-0.5 3-2.1 5.1-5.4 4.5c-2.9-0.6-4-2.9-3.8-5.5c0.6-3.1 3.4-5.1 5.9-4.5zm85 319.7c0.9-2.7 2.7-4.5 5.7-4c2.3 0.3 4.3 4.1 3.2 6.9c-0.6 1.6-2.4 2.8-3.2 3.6c-4.1-0.8-6.4-4.1-5.7-6.5zm212.3-305.1c-2.6 0.2-5.3-3.5-4.6-5.8c0.8-3.1 3.3-4 6.2-3.6c3.2 0.5 3.8 2.9 3.5 7c-1.3 0.7-3.2 2.3-5.1 2.4zm15.2 22.7c0.9-3 3.2-3.7 6-3c2.8 0.7 4.6 2.4 3.9 5.4c-0.7 3-2.9 3.9-5.8 3.4c-2.9-0.6-4.9-3.3-4.1-5.8zm14.8-50.8c2.8 0.7 4 2.6 3.4 5.4c-0.7 2.8-2.5 4.3-5.5 3.8c-2.8-0.5-4.6-3.2-4-6c0.9-3 3.2-3.8 6.1-3.2zm-51.7 170.1c-0.6 2.6-2.2 4.3-5.1 3.7c-2.6-0.4-5.5-4.5-4.3-6.6c0.9-1.6 3.1-2.5 4.1-3.2c4.1 1.1 5.9 2.9 5.3 6.1zm-130.8 375.5c0.3-2.7 2.2-3.8 4.9-3.4c3.1 0.4 5.9 3.3 4.9 5.6c-0.9 1.8-3 2.9-4 3.9c-4.4-1.1-6.1-2.9-5.8-6.1zm4.7-424.7c0.1-2.5 3.1-4.4 6-3.8c2.8 0.5 4.2 2.3 3.8 5.1c-0.4 2.7-2 4.5-5.1 4.3c-2.8-0.8-4.8-2.5-4.7-5.6zm48.4 439.8c-2.7-0.5-4.4-2.6-4.1-5.5c0.2-2.6 3.4-4.8 6.3-3.8c1.6 0.6 2.6 2.5 3.4 3.3c-1.1 4-2.2 6.6-5.6 6zm83.6-319.1c2.9 0.3 4.8 2 4.3 5.1c-0.4 2.9-2.4 4.5-5.3 4.2c-2.8-0.3-4.4-2.2-4.3-5.2c0.5-3 2.4-4.4 5.3-4.1zm-140.2-71.7c0.2-3.2 3.1-3.9 6-3.5c2.4 0.4 4.5 1.4 4.3 4.3c-0.1 2.4-3.9 4.8-7.7 4.9c-0.9-1.9-2.8-3.9-2.6-5.7zm22 573.8c3 0.8 3.6 3.4 3.1 6.1c-0.5 2.6-2.3 4.5-5 3.8c-3-0.7-4-3.3-3.8-6.5c1.1-2.3 2.8-4.2 5.7-3.4zm143.1-98.5c2.8 0.6 3.7 3.2 3.3 6c-0.5 2.8-2.2 4.9-5.2 4.2c-3-0.7-3.8-3.4-3.7-6.1c0.8-3 2.8-4.7 5.6-4.1zm-251.6 13.8c-2.7-0.4-4.9-3.2-4.3-5.7c0.9-3.1 3.3-4.5 6.1-3.6c1.6 0.5 2.7 2.6 3.5 3.4c-0.8 4.4-2.8 6.3-5.3 5.9zm209.3-186.2c-2.7-0.5-4.9-3.7-4.3-6.3c0.6-2.8 2.6-3.5 5.1-3.1c3.2 0.6 4.6 2.4 4.3 5.5c-0.6 2.9-2.3 4.3-5.1 3.9zm-13.2-327.7c-2.6-0.1-5.4-4.6-4.2-6.6c0.9-1.5 3.3-2.7 5-2.8c2.8 0 4.8 3.4 3.9 7.5c-1.1 0.5-2.9 2-4.7 1.9zm-81.5 4.3c0.5-3 3.1-3.8 5.8-3.3c2.6 0.5 4.4 2.1 3.9 5c-0.5 3.2-2.8 3.9-5.8 3.8c-2.5-0.9-4.5-2.4-3.9-5.5zm-6.5-70.7c-2.5 0.3-4.8-3-4.4-5.6c0.5-2.9 2.6-4 5.3-3.7c3 0.4 4.3 2.3 4 6.6c-1.2 0.7-2.9 2.4-4.9 2.7zm182.6-175.7c2.6 0.7 3.7 2.6 3.1 5.2c-0.7 2.9-2.6 4.9-5.7 4.4c-2.9-0.4-3.6-2.8-3.2-5.4c0.6-2.8 3.3-4.9 5.8-4.2zm-198.9 397.5c-2.7 0.1-5.3-3.6-4.7-5.9c0.8-3.1 3.1-3.8 5.9-3.2c3 0.6 4.1 2.7 3.5 6.9c-1.1 0.6-2.9 2.1-4.7 2.2zm-18.7 96.4c-2.7-0.9-4.1-2.8-3.7-5.8c0.4-2.4 3.7-4.6 6.2-3.5c1.7 0.8 2.9 3 4.4 4.5c-1.5 3.4-4.5 5.6-6.9 4.8zm183.2-420.7c-0.4 2.8-2 4.7-5.1 4.3c-3.2-0.5-4.7-2.6-4.3-5.6c0.3-3.2 2.6-4 5.8-3.7c2.4 0.6 4 2.1 3.6 5zm-96.8-68.1c0.6-3 2.8-4.2 5.7-3.7c2.8 0.4 4.7 2.1 4.3 5.1c-0.4 3.3-2.9 3.8-5.6 3.7c-2.6-0.8-5-1.9-4.4-5.1zm141.3-52.6c1.5 0.8 3 3 3 4.7c0.1 2.3-4.5 4.8-6.9 3.7c-1.5-0.7-2.5-2.6-3.2-3.4c1.2-4.3 4.4-6.4 7.1-5zm-401.6 400c2.5-0.3 4.5 3.4 3.9 6.3c-0.5 2.7-2.4 3.7-5 3.2c-3-0.5-4.5-2.5-3.9-7c1.2-0.7 3-2.3 5-2.5zm337.4-307.9c-0.1 2.8-2.3 4.6-5.2 4c-2.8-0.5-4.4-2.6-4-5.5c0.4-3.1 2.7-4.1 6.9-3.6c0.6 1.3 2.3 3.2 2.3 5.1zm-170.5 243.8c-0.5 2.7-2.1 4.5-5.1 3.8c-3-0.8-4.5-3.4-3.6-6.1c0.7-1.8 3-3 4.1-4c4.2 1.4 5.2 3.5 4.6 6.3zm249.6-128.7c-0.6 2.8-3.1 4-5.9 3.4c-2.8-0.6-4.3-2.7-3.7-5.6c0.5-2.5 2.2-3.9 4.5-3.3c3.4 0.8 5.9 2.1 5.1 5.5zm-241.7-96.2c0.9-2.8 3.2-4.1 5.9-3.4c2.8 0.7 4.1 3.3 3.2 5.9c-0.6 1.7-2.7 2.8-4 4.2c-3.6-1.5-5.8-4.3-5.1-6.7zm208.2 490.5c0.1-2.5 3.4-4.6 6.3-4.1c2.7 0.4 3.7 2.1 3.2 4.6c-0.7 2.6-1.5 5.2-5.1 4.9c-2.9-0.7-4.5-2.5-4.4-5.4zm16.7-172.2c-0.4 2.7-1.8 4.5-4.8 4.1c-2.5-0.3-4.6-3.6-4.2-6.4c0.4-2.7 2.1-3.6 3.8-3.3c3.7 0.5 5.7 2.9 5.2 5.6zm-57.5-11.3c0.9-3.1 3.2-3.8 6-3.1c2.5 0.5 4.4 2 3.9 5c-0.3 2.4-3.6 4.3-6.2 3.8c-2.6-0.6-4.4-3.2-3.7-5.7zm-268.3 150.4c-0.3 2.7-2 4-4.7 3.7c-2.7-0.3-5.6-3.7-4.6-5.9c0.7-1.7 2.7-2.9 3.7-3.8c4.2 1.1 6 2.9 5.6 6zm392.4-227.6c-0.4 2.7-2.3 4.3-5.1 4c-2.5-0.3-5.3-3.6-4.4-5.8c0.9-1.8 3-3 4.1-4c3.8 1.3 6 2.7 5.4 5.8zm-106.4-18c-0.1-2.7 3.3-5.1 5.9-4.5c2.6 0.5 3.9 2.1 3.5 4.8c-0.4 2.8-3.3 4.8-7.5 4c-0.5-1-1.9-2.6-1.9-4.3zm-50.8 538.9c0.6-2.6 2.3-3.3 4.8-2.9c3 0.6 5.7 3.6 4.7 5.9c-0.7 1.6-2.8 2.7-3.6 3.4c-4.4-0.9-6.5-3.6-5.9-6.4zm-52.6-333.8c-0.5 2.3-1.9 4.2-4.7 3.7c-2.5-0.4-5.1-4.3-4-6.8c0.6-1.5 2.6-2.5 3.4-3.3c4.3 1.3 5.8 3.3 5.3 6.4zm209-236.7c0.7-3 3-3.8 5.8-3.3c2.8 0.6 4.2 2.5 3.4 5.2c-0.7 2.8-2.6 4.3-5.6 3.7c-2.8-0.8-4.3-2.7-3.6-5.6zm-376.5 309.4c-3.1-0.3-4.4-3-4-6c0.3-2.6 2.2-4 4.8-3.5c3.3 0.6 4.1 3.1 4 7.3c-1.3 0.6-3.2 2.3-4.8 2.2zm120.1-512.3c2.8 0.6 3.9 2.7 3.2 5.4c-0.7 2.6-2.3 4.7-5.4 3.9c-2.9-0.7-3.9-2.9-3.7-5.8c1-2.8 3.1-4 5.9-3.5zm-83 14.4c0.5-2.8 2.7-3.7 5.4-3.2c2.9 0.6 4.4 2.5 3.8 5.5c-0.5 2.8-2.3 4.1-5.3 3.7c-2.8-0.9-4.4-2.9-3.9-6zm224.3 563c3.1 0.4 4.8 2.9 3.7 5.8c-0.7 1.6-3 3.3-4.8 3.5c-2.1 0.4-4.2-3.8-4.1-7.6c1.8-0.6 3.6-1.9 5.2-1.7zm-43.6-4.3c-0.4 3-3.3 4.1-6.1 3.7c-2.6-0.4-3.9-2.2-3.4-5c0.5-2.6 3.4-4.2 7.5-3.3c0.5 1 2.3 2.9 2 4.6zm-121.7-176.7c2.8 0.7 4.2 2.6 3.4 5.3c-0.7 2.9-3 4.5-5.7 3.4c-1.7-0.8-2.9-3-3.9-4.1c1.3-4.2 3.4-5.2 6.2-4.6zm-38.9-353.5c1-1.6 3.4-2.9 5.2-3c2.8-0.1 5.1 3.3 3.9 5.6c-1 1.7-3.1 2.8-4.7 4.2c-3.4-1.5-5.7-4.7-4.4-6.8zm94 187.8c3 0.6 4.2 2.9 3.6 5.7c-0.6 3.1-3.3 4.1-5.8 3.3c-1.6-0.5-2.8-2.8-3.8-3.9c1.4-3.7 3-5.6 6-5.1zm-31.4 199c-0.3 2.9-3.1 4.3-6 3.9c-2.6-0.3-3.9-2.3-3.5-4.9c0.5-2.9 2.5-4.2 6.9-3.8c0.6 1.1 2.8 3 2.6 4.8zm-267.6-574.7c-0.7 1.5-2.8 3.3-4.4 3.4c-2.7 0.3-5.4-4.2-4.4-6.9c0.5-1.3 2.4-2.1 3-2.6c4.5 0.9 6.9 3.6 5.8 6.1zm116.2 847.7c-1 1.5-3.5 2.8-5.3 2.9c-2.7 0.2-4.9-3.2-4.3-5.7c0.6-2.5 2.2-3.5 4.8-2.9c3.2 0.7 6 3.6 4.8 5.7zm38.9-744.1c-0.2 2.6-2.9 4.6-5.5 3.9c-2.8-0.7-4.7-2.8-3.7-5.5c0.5-1.8 2.9-2.9 4.5-4.4c3.6 1.4 4.9 3.2 4.7 6zm-141.8 595c2.6 0.1 5 3.8 4.4 6.2c-0.7 2.7-2.8 3.5-5.2 2.8c-2.9-0.7-4.4-2.8-3.7-7.3c1.1-0.4 2.8-1.8 4.5-1.7zm41.6-484c-2.5-0.5-4.7-1.9-4.2-4.8c0.6-3 3.1-4.6 5.9-3.9c1.8 0.5 3.1 2.7 4.1 3.6c-1 4.3-2.8 5.7-5.8 5.1zm94.2 567.5c-2.3 0.2-5.3-3.7-4.3-5.6c1-1.7 3.4-3.8 5.1-3.8c3.1 0.1 3.7 3.2 3.8 7.2c-1.2 0.7-2.8 2.1-4.6 2.2zm75.4-564.9c0-3 2.4-4.3 5.4-3.8c2.7 0.5 4.4 2.3 4 5.1c-0.5 3-2.8 4-7 3.8c-0.7-1.3-2.4-3.2-2.4-5.1zm28.9-20.6c0.6-2.9 3-3.7 5.5-3.2c2.9 0.6 4 2.9 3.5 5.8c-0.4 2.3-1.5 4-4.3 3.5c-2.6-0.6-5.2-3.8-4.7-6.1zm-123.2-117.7c-2.6 0.2-4.6-3.1-3.9-5.7c0.7-2.7 2.8-3.9 5.4-3.4c2.8 0.6 4.2 2.6 3.6 6.9c-1.2 0.6-3.1 2.1-5.1 2.2zm215.3 610.7c-0.2 2.8-2.5 4.2-5.4 3.8c-2.8-0.4-4.3-2.4-3.8-5.1c0.6-2.9 3-3.8 7.1-3.5c0.6 1.2 2.2 3 2.1 4.8zm19.9-266.4c-2.8-0.7-4.4-2.8-3.7-5.7c0.6-2.7 2.8-3.7 5.5-3.2c2.9 0.6 3.8 2.6 3.4 5.5c-0.8 2.5-2.3 4.2-5.2 3.4zm-132.7 49.7c-2.7 0.2-5.9-3.9-4.7-6.1c0.7-1.5 3.2-2.8 4.9-2.8c2.8 0 4.4 2.2 4.1 6.5c-1 0.6-2.6 2.2-4.3 2.4zm-67.3-342.6c0.8-2.9 3-3.5 5.7-2.9c2.8 0.7 4 2.6 3.4 5.4c-0.6 2.7-2.4 4-4.9 3.7c-3-0.7-5-3.7-4.2-6.2zm348.9 191.9c-2 1-4.2 3-5.7 2.5c-1.7-0.5-3.3-3.2-3.7-5.2c-0.4-2.3 3.2-4.5 5.6-3.4c1.7 0.8 2.7 2.9 4.1 4.3q-0.2 0.9-0.3 1.8zm-288.6 449.7c-2.8-0.4-4.6-2.8-4.1-5.9c0.5-2.9 2.8-3.3 5.3-2.8c2.8 0.6 4.2 2.5 3.7 6.8c-1.2 0.6-3.2 2.1-4.9 1.9zm190.4-224.9c2.2-0.2 5 4.7 3.9 6.9c-0.8 1.4-3.2 2.6-4.9 2.6c-2.7 0-4.5-3.1-3.6-7.1c1-0.6 2.7-2.1 4.6-2.4zm-246.7-115.4c0.3 2.2-3.5 4.4-6 3.7c-2.8-0.7-4.1-2.9-3.2-5.3c0.8-1.8 3-2.9 5.6-5.3c1.7 3.1 3.4 4.9 3.6 6.9zm84.1-183.3c-1.9 0.9-3.9 2.6-5.8 2.4c-2.7-0.2-4.4-2.6-3.7-5.5c0.6-2.7 3.1-3.9 5.5-3.1c1.8 0.7 3 2.9 4.4 4.4q-0.2 0.9-0.4 1.8zm308.6 32.7c0.2-2.9 3.4-4.9 6.1-4.3c2.5 0.5 3.5 2.2 3.2 4.7c-0.5 2.8-3.4 4.8-7.7 4c-0.4-1-1.6-2.7-1.6-4.4zm-134.1-196c-2.7-0.6-3.7-2.5-3.2-5.1c0.5-2.7 3.5-4.9 5.9-3.9c1.6 0.7 2.6 2.6 3.3 3.3c-0.9 4.3-3.6 6.4-6 5.7zm-83.8 850.1c2.9 0.1 4.5 2.4 4.1 5.3c-0.3 2.7-2.1 4.4-4.9 3.9c-3-0.5-4-2.7-3.9-6.8c1.2-0.7 3-2.4 4.7-2.4zm-68.6-457.8c0.5-2.9 3.1-4.6 6-3.5c1.4 0.5 2.9 2.9 3.1 4.5c0.2 2.6-3.1 4.5-6.9 4.4c-0.8-1.8-2.4-3.7-2.2-5.4zm-82.6-61.9c-2.7-0.1-5.3-4-4.1-6.1c0.9-1.5 3.2-2.7 4.9-2.8c2.7-0.2 4.5 3 3.5 7.2c-0.9 0.4-2.6 1.7-4.3 1.7zm-102.1-393.6c-2.4 0.2-4.6-3.4-3.9-5.9c0.7-2.6 2.7-3.6 5.2-3.1c2.8 0.7 4 2.8 3.5 7c-1.2 0.5-3 2-4.8 2zm194.5 701.9c2.6 0.5 3.1 2.3 2.7 4.5c-0.5 3.2-3.2 5.8-5.6 4.8c-1.6-0.8-2.7-2.8-3.5-3.7c0.8-4 3.7-6.1 6.4-5.6zm-252.2 3.4c2.6-0.1 4.8 3.4 4.2 6.1c-0.5 2.5-2.2 3.6-4.6 3.1c-3.1-0.6-4.2-2.9-4.1-7.1c1.1-0.6 2.8-2 4.5-2.1zm-67-703.8c-2.5 0.1-4.4-3.6-3.9-6.4c0.5-2.8 2.4-3.5 4.7-3c3.2 0.8 4.2 3.1 3.5 7.5c-1 0.5-2.6 1.9-4.3 1.9zm531 519.8c-0.7 1.7-3 3.4-4.8 3.7c-2.1 0.4-5-3.9-3.9-5.9c0.9-1.6 3.1-2.5 4.1-3.4c3.8 1.2 5.7 3 4.6 5.6zm-96.6-18.6c0.4 2.4-3.1 4.7-5.4 3.5c-1.6-0.8-3.4-3.1-3.4-4.9c-0.2-2.7 2.1-4 6.3-3.6c0.7 1.2 2.3 3 2.5 5zm89.2 141.6c0.5-1.4 3-3.1 4.6-3.1c2.7-0.1 4.8 1.7 4.5 4.9c-0.4 2.9-2.5 3.8-5.2 3.7c-2.9-0.8-4.9-2.6-3.9-5.5zm-224.7 163.9c-2.4 0.2-4.3-3.5-3.7-6.5c0.5-2.4 2-3.7 4.6-3.1c3.2 0.6 4.1 2.9 3.8 7.1c-1.2 0.7-2.9 2.3-4.7 2.5zm-128.1-679.8c-0.4-2.2 3.6-5.1 6.1-4.6c2.9 0.5 3.2 2.8 2.9 5.2c-0.3 2.7-1.9 4.3-6.2 3.8c-0.7-1-2.4-2.5-2.8-4.4zm-149.9-107.5c3.1 0 4.1 2.5 3.6 5.4c-0.4 2.5-1.7 4.5-4.7 4.1c-2.5-0.3-4.2-3.2-3.4-7.5c1-0.5 2.8-2.1 4.5-2zm53.1 14.3c-0.4 2.9-2.7 3.8-5.4 3.5c-2.3-0.2-5-3.9-4-5.9c0.8-1.5 2.8-2.4 3.7-3.1c3.8 1.1 6 2.5 5.7 5.5zm66.8-12.1c0.5-1.5 3.2-3.3 4.8-3.3c2.9 0 4.7 2.6 3.8 5.3c-0.5 1.7-2.6 2.9-3.6 3.9c-4-1.2-5.9-3.2-5-5.9zm92.2 196.5c-2.6-0.4-4.1-2.1-3.6-4.7c0.6-2.9 2.8-5 5.7-4.4c1.5 0.3 2.7 2.7 3.7 3.8c-1.2 3.8-2.8 5.6-5.8 5.3zm-110.1 195.6c2.4 0.4 4.3 1.7 3.8 4.6c-0.3 2.5-3.8 5.2-5.8 4.2c-1.6-0.8-2.6-2.9-3.4-3.8c0.8-4.2 2.6-5.5 5.4-5zm37.1-315.4c-0.2 3-3.4 5.7-5.7 4.6c-1.4-0.7-2.9-2.7-3-4.3c-0.2-2.5 3.9-5.3 7.4-4.8c0.4 1.2 1.3 2.9 1.3 4.5zm-22.4 472.2c0.7-2.8 3-3.3 5.3-2.8c2.7 0.6 4.2 2.4 3.8 5.3c-0.4 2.5-2.1 3.6-3.9 3.3c-3.5-0.7-5.9-3.6-5.2-5.8zm428.7-417c-1.2-2.5-0.3-4.3 2.1-5.5c3.4-1.5 4.7-0.4 7.3 6.7c-4.2 2.6-7.9 2.1-9.4-1.2zm-264.1 472.4c0.7-1.6 3-3.3 4.8-3.5c2.4-0.2 4.7 3.9 3.6 6.4c-0.7 1.4-2.7 2.3-3.6 2.9c-4.1-1.1-5.9-3.1-4.8-5.8zm-49.6-133.5c0.7-1.5 3.5-2.9 5.2-2.9c2.9 0.1 4.2 2.8 3.3 5.2c-0.7 1.7-2.8 2.9-3.8 3.9c-3.9-1.5-5.8-3.6-4.7-6.2zm-80-190.2c-0.5 1.6-2.6 3.4-4.2 3.7c-2.5 0.4-5.9-3.8-4.8-5.6c0.9-1.6 3-2.6 4-3.4c3.9 1 5.9 2.6 5 5.3zm-35.3 564.3c2.8 0.2 4.2 2.7 3.6 5.6c-0.4 2.5-2.2 4-4.8 3.6c-3-0.5-3.8-2.9-3.5-6.9c1.2-0.6 3-2.4 4.7-2.3zm381.4-600.3c2-0.8 4-2.2 6-2.1c2.5 0 3.9 2.2 3.4 4.9c-0.5 2.8-2.6 4.4-5.2 3.5c-1.8-0.7-3.1-2.9-4.6-4.4q0.2-1 0.4-1.9zm-234 337.5c-0.8-2-2.3-3.9-2.3-5.9c0.1-2.5 2.3-3.9 5-3.4c2.7 0.5 4.5 2.5 3.7 5.1c-0.6 1.8-2.9 3.1-4.5 4.5q-0.9-0.1-1.9-0.3zm-28.7 189.2c-0.5 3.2-3.4 4.3-6.1 3.6c-1.4-0.3-2.9-2.7-3-4.2c-0.2-2.6 3.1-4.4 7-4.4c0.7 1.7 2.3 3.5 2.1 5zm103.2-450.3c-1-1.9-2.7-3.8-2.6-5.7c0.2-2.8 2.8-3.7 5.4-3.2c2.4 0.5 4.4 2.3 3.5 4.8c-0.7 1.8-3 3-4.5 4.5q-0.9-0.2-1.8-0.4zm-210 59.6c-2.6-0.7-4.3-2.4-3.9-5.2c0.5-3.2 3.3-4 5.8-3.2c1.6 0.5 2.8 2.7 3.7 3.6c-1 4-2.7 5.4-5.6 4.8zm-90.1 483.5c-2.8-0.2-4.7-2.8-3.7-5.5c0.6-1.5 3.3-3.2 5.1-3.2c2.9 0 3.7 2.5 3.3 6.5c-1.2 0.6-3 2.4-4.7 2.2zm328.7-267.4c0 2.4-2.4 4.6-4.7 3.4c-1.9-1.1-3.3-3.8-3.9-6.1c-0.2-0.7 2.9-2.3 5.7-4.4c1.4 3.2 2.9 5.1 2.9 7.1zm-283.4-403.3c0.1-2.9 2.6-4.2 5.5-3.7c2.7 0.6 3.7 2.5 3.3 5.1c-0.5 2.8-2.2 4.1-6.5 3.6c-0.6-1.3-2.4-3.2-2.3-5zm129.5 544.5c0.8 1.7 2.5 3.6 2.4 5.2c-0.3 3-3 4-5.7 3.7c-2.6-0.3-4.3-2.4-3.4-4.7c0.8-1.9 3.2-3.1 4.9-4.6q0.9 0.2 1.8 0.4zm6.1 86.1c-1-1.9-2.7-3.8-2.7-5.7c0-2.7 2.2-4.2 5-3.6c2.7 0.5 4.5 2.5 3.6 5.2c-0.6 1.7-2.6 2.9-4 4.3q-1-0.1-1.9-0.2zm333.6-447.9c3.6 0.2 3.3 3.3 3.2 6c-0.2 3-2.2 3.2-4.5 2.8c-2.8-0.6-4.1-2.2-3.7-6.4c1.3-0.7 3.2-2.4 5-2.4zm-184.5 345.6c-0.6 1.5-3.2 3.2-4.9 3.2c-2.8-0.1-4.7-2.5-3.7-5.3c0.5-1.7 2.7-2.8 3.6-3.6c4.1 1 6.1 2.9 5 5.7zm39 58c-0.8 1.4-2.8 2.8-4.4 2.8c-2.3 0.1-4.7-4.1-3.6-6.4c0.7-1.5 2.5-2.5 3.3-3.2c3.5 0.8 5.9 4.7 4.7 6.8zm-245.4-421.3c-0.1 2.7-2.4 4.1-5.1 3.6c-3-0.6-4.3-3.2-3.4-5.7c0.5-1.6 2.8-2.7 5.4-5c1.5 3.3 3.1 5.2 3.1 7.1zm29.9 485.3c-1.7-0.6-3.6-3.3-3.6-5.2c-0.1-2.6 2.6-4.2 5.1-3.5c1.6 0.5 2.8 2.6 5.2 5.1c-3.1 1.8-5.3 4-6.7 3.6zm209.1 59.4c0-2.6 2.4-3.8 5-3.3c2.7 0.6 4.8 2.5 3.8 5.4c-0.6 1.7-2.9 2.7-5.5 4.9c-1.5-3.1-3.3-5.1-3.3-7zm-170.7-507.3c-0.4 2.4-1.6 4.1-4.3 3.7c-2.3-0.2-5.2-4.4-4.2-6.4c0.8-1.5 2.6-2.4 3.5-3.3c3.8 1.2 5.4 3.1 5 6zm-172.7 496.9c-1.4-0.2-3.4-3-3.4-4.7c-0.1-3 2.6-4.6 5.3-3.9c1.6 0.4 2.7 2.7 5 5.3c-3.2 1.7-5.2 3.6-6.9 3.3zm272.1-782.5c1.4 0.4 3.1 2.5 3.4 4c0.3 2.2-3.9 5.1-6.2 4.2c-1.5-0.5-2.6-2.2-3.6-3.1c1.4-3.9 3.5-5.8 6.4-5.1zm-129.1 425.2c2.7 0.4 3.4 2.3 2.8 4.7c-0.8 2.9-2.5 5.2-5.6 4.3c-1.6-0.5-2.6-2.8-3.4-3.8c1.1-4.3 3.3-5.6 6.2-5.2zm-20 105.9c-2.2 0.2-4.8-4.1-3.7-6.4c0.6-1.4 2.7-2.8 4.3-2.9c2.5-0.1 4.3 3.1 3.5 7.2c-0.9 0.5-2.4 2-4.1 2.1zm79.5 239.5c-2.9-0.5-4.4-3.1-4-6c0.3-2.5 2.1-3.7 4.5-3.3c3.2 0.7 4 3.2 4.1 7.3c-1.3 0.6-3.1 2.2-4.6 2zm78.6-264.3c-0.6 2.5-2.3 4-5 3.4c-2.6-0.6-4.6-2.5-3.7-5.1c0.5-1.8 2.8-3 3.9-4.1c3.9 1.3 5.4 3 4.8 5.8zm-187.5-89.3c2.5 0.5 3.9 2.4 3.2 5.1c-0.6 2.7-2.9 4.1-5.4 3.3c-1.7-0.6-3-2.6-4.2-3.8c1.6-3.8 3.6-5.2 6.4-4.6zm-43.1-175.1c-1-1.9-3.1-4.1-2.6-5.6c0.6-1.7 3.2-3.9 5-3.9c2.9 0.1 4 3 3.1 5.7c-0.5 1.5-2.4 2.7-3.6 4q-1-0.1-1.9-0.2zm-60.3 35.2c0.2-2.6 2.5-4.6 5.1-3.5c1.5 0.6 3.1 3.2 3.2 5c0 2.8-2.4 3.8-6.5 3.3c-0.5-1.2-1.9-3.1-1.8-4.8zm120.7-378.8c0.5-2.8 2.8-3.9 5.4-3.5c2.9 0.5 4.2 2.8 3.4 5.3c-0.5 1.6-2.3 2.8-3.5 4.2c-3.4-1.7-5.9-2.9-5.3-6zm208.5 910.9c2.7 0.1 4.2 2.3 3.7 5.1c-0.4 2.7-2.1 4.4-5 3.9c-3.4-0.5-3.4-3.2-3.3-7.1c1.2-0.5 2.9-2 4.6-1.9zm-56.9-761.2c1.4 0.5 3 3 3 4.6c0 2.8-2.2 4.9-5.1 4.2c-1.6-0.4-2.7-2.7-3.7-3.7c1.3-3.8 3-6 5.8-5.1zm147.4 151.5c1.2 0.4 2.6 3.2 2.5 4.9c-0.1 2.7-1.9 5.4-5 4.6c-1.5-0.3-2.3-3-3-4c1.2-3.8 2.6-6.3 5.5-5.5zm-378.6 310.2c-1.7 0.8-3.3 2.3-5 2.4c-2.6 0.1-4.7-3-4-5.4c0.7-2.7 2.9-3.9 5.2-3c1.7 0.7 2.8 2.8 4.1 4.2q-0.2 0.9-0.3 1.8zm111.6-625.2c-2.8 0-3.7-2.7-3.2-5.3c0.5-2.7 2.4-4.5 5.1-3.5c1.6 0.6 2.7 2.8 4.9 5.2c-3.1 1.8-5 3.7-6.8 3.6zm-48.2 791.3c-1.5-0.7-2.9-3-3-4.6c-0.2-2.4 3.5-4.8 5.8-3.9c1.4 0.6 2.3 2.4 2.9 3c-0.8 4.4-3.4 6.7-5.7 5.5zm187.6-45.2c0 2.7-1.7 5.2-4.7 4.4c-1.6-0.5-3.7-2.8-3.9-4.4c-0.2-2.9 2.4-4.1 6.5-4.3c0.6 1.1 2.1 2.7 2.1 4.3zm-156.4-279.4c-0.2-2.4 3.7-5.3 5.1-4.1c1.6 1.5 2.8 4 2.9 6.2c0 1.1-2.6 2.4-5 4.5c-1.4-3-2.9-4.8-3-6.6zm-21.2 402.6c-0.8-2.1-2.4-4.2-2.4-6.2c0.1-1.1 3.1-3 4.7-2.9c2.7 0.3 4.5 2.7 3.6 5.5c-0.6 1.6-2.6 2.6-4 3.9q-0.9-0.1-1.9-0.3zm162-455.7c1.2 0.4 2.7 2.9 2.6 4.4c-0.2 2.7-1.9 5.4-5.1 4.7c-1.4-0.3-2.3-2.7-3.1-3.6c1.3-3.7 2.5-6.3 5.6-5.5zm17.3 458.8c-0.2 1.3-2.8 2.9-4.5 3.2c-2.3 0.3-4.9-3.8-3.8-5.8c0.9-1.5 2.9-2.3 5.6-4.4c1.3 3.2 3 5.2 2.7 7zm1.5-295.8c-1.7-1.3-3.4-3.8-3.5-5.9c-0.2-2.6 2.3-3.3 4.7-2.7c2.8 0.7 4 2.4 3.5 6.6c-1.2 0.5-3.9 2.5-4.7 2zm-242.6 250.8c-0.5 1.4-3.1 3-4.6 2.9c-2.7-0.2-4.6-2.6-3.9-5.4c0.4-1.5 2.6-2.5 3.5-3.3c4 1.1 6 3 5 5.8zm390.5-352.4c-0.8 1.6-3 3.3-4.8 3.5c-2.1 0.4-4.6-4-3.5-6c0.9-1.5 2.8-2.4 3.8-3.2c3.8 1.2 5.5 3.1 4.5 5.7zm-7.9 172.8c-0.2 2.7-2.1 5-5 4.2c-1.6-0.5-3.2-2.7-3.6-4.4c-0.4-2.3 3.1-4.5 7.1-3.9c0.4 0.9 1.7 2.6 1.5 4.1zm-377.3-0.5c0.8 1.7 2.3 3.4 2.2 5c-0.2 2.9-2.4 4.6-5.3 4c-2.5-0.4-4.3-2.5-3.3-5c0.8-1.7 3.1-2.9 4.6-4.3q0.9 0.1 1.8 0.3zm433.2-458.7c-2.5-0.4-3.5-2.2-3.2-4.6c0.3-2.6 3.5-4.8 5.9-3.8c1.5 0.6 2.5 2.4 3.7 3.6c-1.3 3.3-3.9 5.2-6.4 4.8zm-102.4 576.3c-0.5 1.6-2.9 3.2-4.7 3.5c-2.1 0.4-4.8-3.5-3.7-5.4c0.9-1.6 3-2.5 5.7-4.7c1.4 3.1 3.2 5.2 2.7 6.6zm-84.3-616.9c-0.1 2.8-2.2 4.7-5.1 4.4c-2.8-0.3-3.3-2.8-2.9-5.2c0.5-2.7 2.1-4.2 6.4-3.7c0.4 1.1 1.7 2.9 1.6 4.5zm-47.6 742.4c0.5-2.8 3.1-3.7 5.9-3.3c2.5 0.4 4.2 2.3 3.2 4.4c-1 1.9-3.5 2.9-6.5 5.2c-1.3-2.9-2.9-4.8-2.6-6.3zm-133.8-701.2c-2 1.3-3.9 3.3-6 3.5c-2.7 0.3-4.1-2.3-3.2-4.7c0.7-1.7 2.8-2.7 5.1-4.9c1.9 2.8 3 4.5 4.1 6.1zm-63.7-90.8c2.5 0.3 4.7 1.8 4 4.3c-0.6 1.9-2.9 4.3-4.5 4.5c-3.1 0.2-3.6-2.8-3.9-5.1c0.2-3.1 2-4 4.4-3.7zm29 780.7c2.9 0.5 4.1 3.2 3.1 5.8c-0.6 1.5-2.8 2.4-4.3 3.6c-1.4-1.9-2.8-3.8-4.8-6.7c2.8-1.4 4.5-2.9 6-2.7zm116.4-198.8c-0.4 2.8-3 4.4-5.6 3.3c-1.5-0.6-3.6-3.8-3.2-4.3c1.2-1.8 3.4-2.9 6.3-5.1c1.3 2.9 2.8 4.6 2.5 6.1zm169.1-417.4c0-2.5 3.5-5.1 5.7-4.1c1.5 0.6 3.2 2.5 3.3 3.9c0.3 2.5-3.4 4.6-7.4 3.9c-0.4-0.8-1.6-2.3-1.6-3.7zm-307.7-204.8c-1.4-0.4-2.8-2.8-3-4.3c-0.1-2.4 3.8-5.1 5.8-4.1c1.5 0.6 2.4 2.5 3.1 3.4c-1.3 3.8-3.1 5.8-5.9 5zm136.4 876.7c-1.2-0.1-3.3-2.9-3.3-4.4c0.1-2.9 2.7-4.6 5.4-4c1.5 0.3 2.5 2.5 4.8 5c-3.2 1.7-5.1 3.5-6.9 3.4zm51.8-170.6c1.7-0.8 3.4-2.3 5.1-2.4c2.8 0 4.3 2.2 4 5c-0.2 2.6-2.3 4.4-4.7 3.5c-1.8-0.6-3.1-2.8-4.7-4.3q0.2-0.9 0.3-1.8zm77.5-11.2c0.5-1.4 2.7-2.9 4.3-3c2.3-0.2 5 3.9 4.1 5.9c-0.7 1.4-2.6 2.3-3.4 3c-3.9-1.3-6-3-5-5.9zm-155.9-52.7c-0.6 1.4-2.7 2.9-4.2 3c-2.4 0.2-5.3-3.7-4.3-5.7c0.7-1.5 2.7-2.4 3.5-2.9c4.2 0.8 6.2 3.2 5 5.6zm-84.2-371.2c1 1.8 2.9 3.8 2.5 5.3c-0.4 1.6-2.9 2.7-4.4 4c-1.3-1.8-3.5-3.4-3.7-5.3c-0.2-1.2 2.4-2.8 3.8-4.2q0.9 0.1 1.8 0.2zm144.8 531.3c1.9-0.7 3.8-2.1 5.6-2.1c2.5 0.1 4.1 2.1 3.7 4.8c-0.4 2.7-2.3 4.4-4.7 3.4c-1.9-0.7-3.3-2.8-4.9-4.3q0.2-0.9 0.3-1.8zm117.6-576.9c-1.8 1.2-3.5 3.1-5.4 3.3c-2.5 0.3-4.6-1.9-3.8-4.3c0.6-1.8 3-3.6 4.9-4.1c1.1-0.2 2.9 2.1 4.4 3.2q0 1-0.1 1.9zm-46.4 66c0.1-2.8 2.8-4.2 5.2-3.2c1.5 0.5 3.4 3.1 3.2 4.5c-0.2 1.6-2.5 2.9-4.9 5.4c-1.7-3.1-3.6-5-3.5-6.7zm-56 213.9c0 2.8-2.4 4.6-4.9 3.8c-1.6-0.5-3.9-3.1-3.7-4.5c0.2-1.7 2.8-3 5.4-5.5c1.6 3 3.2 4.6 3.2 6.2zm140.7-103c0.9 1.7 2.9 3.9 2.4 5.1c-0.6 1.6-3.3 3.4-4.8 3.2c-1.5-0.2-3.8-3-3.7-4.4c0.2-1.5 2.8-2.8 4.3-4.3q0.9 0.2 1.8 0.4zm-439.6 469.2c2 1.3 3.4 3.5 5 5.3c-1.4 1.1-2.8 3.2-4.3 3.2c-2.9 0.1-4.4-2.2-4.5-6.3c1-0.6 3.2-2.6 3.8-2.2zm299.4-794.6c2.5-0.3 3.7 1.9 3.3 4.3c-0.5 2.8-2.3 4.8-5.2 4.1c-1.5-0.4-2.6-2.5-5-5c3.2-1.6 5-3.3 6.9-3.4zm-107.1 283.9c0.7-1.5 3.3-2.8 5.2-2.9c2.4-0.2 3.9 1.8 3.4 4.4c-0.6 2.8-2.6 3.8-6.7 3.3c-0.5-1.2-2.4-3.5-1.9-4.8zm161 100.8c0.7 1.9 2 3.8 1.9 5.6c-0.3 2.5-2.6 4.3-4.9 3.1c-1.6-0.9-3.2-3.5-3-5.1c0.2-1.5 2.8-2.7 4.3-4q0.8 0.2 1.7 0.4zm-104.8 289.2c-2.6-0.1-3.8-2.5-3.2-5c0.5-2.6 2.5-3.6 5.2-3.1c2.5 0.4 3.7 1.9 3.8 5.6c-2 0.9-3.9 2.5-5.8 2.5zm-59.7-641c0.2-2.9 2.8-3.7 5.5-3.2c2.3 0.4 4 1.7 3.5 4.4c-0.5 2.9-2.6 3.8-6.6 3.3c-0.6-1-2.5-2.8-2.4-4.5zm-51.1 540.5c0.1-2.5 2-4.1 4.8-3.5c2.8 0.6 4.2 2.9 3.4 5.4c-0.4 1.5-2.5 2.5-4.9 4.7c-1.6-3.1-3.3-4.9-3.3-6.6zm62.1-33.7c-1.8-1.3-3.7-3.5-4-5.6c-0.3-2.6 2.6-3.5 4.6-2.7c1.7 0.6 2.9 2.6 5.4 5c-2.9 1.6-5.4 3.7-6 3.3zm-55.8-265.2c0.6-1.5 3.2-3 5-3.1c2.5-0.2 4.5 1.9 3.5 4.5c-0.7 1.7-2.8 2.7-5.4 5.1c-1.5-3.1-3.5-5.3-3.1-6.5zm248.8 427c-1.4-0.5-3-3.1-2.9-4.6c0.1-2.8 2.6-4.6 5.4-3.8c1.4 0.4 2.3 2.4 3.1 3.3c-1.2 3.7-2.6 6.2-5.6 5.1zm-203.7-112.8c-1-1.9-2.9-3.9-2.7-5.5c0.2-1.4 3.2-3.1 5-3.1c2.6-0.1 4 2.3 3.3 4.7c-0.5 1.6-2.5 2.8-3.7 4.1q-0.9-0.1-1.9-0.2zm-19.9-584.8c0.3-2.8 2.9-3.4 5.6-2.9c2.6 0.5 4.2 2.4 3.1 4.8c-0.7 1.7-3 2.6-5.6 4.6c-1.5-2.9-3.3-4.8-3.1-6.5zm-150.8 272.3c0.6-1.5 3.4-2.8 5.2-2.8c2.4-0.1 4.2 2.2 3.4 4.7c-0.5 1.5-2.6 2.4-3.9 3.6c-3.1-1.6-5.9-2.5-4.7-5.5zm16.3-468.3c-0.4 0.2-2.5-2.5-2.6-3.9c-0.2-2.3 4.8-5.4 6.9-4.4c1.1 0.5 1.6 2.2 3.1 4.3c-2.9 1.7-5 3.2-7.4 4zm362.2 763.7c0.1 2.6-2.1 4.7-4.7 4c-1.6-0.5-3.6-3-3.6-4.6c0-1.4 2.5-2.9 4.9-5.3c1.7 2.7 3.4 4.3 3.4 5.9zm92.6-282c1.9-0.9 3.8-2.5 5.8-2.6c2.5-0.1 4 2.3 3 4.4c-0.8 1.7-3.1 3.4-4.8 3.6c-1.3 0.1-2.8-2.3-4.2-3.5q0.1-1 0.2-1.9zm-411.9-306.1c2.6 0.2 4.3 2.6 3.3 5.2c-0.6 1.5-3.3 3.7-4.2 3.4c-1.8-0.6-2.9-2.9-5.2-5.6c2.9-1.5 4.5-3.1 6.1-3zm12.3 336c-2.7-0.3-4-3-3.1-5.4c0.6-1.4 3.5-3.4 4.4-3c1.8 0.7 2.8 3 5.1 5.8c-3 1.3-4.8 2.8-6.4 2.6zm429.1-48.6c-0.1-2.4 3.7-4.6 6.4-3.6c1.1 0.5 2.4 2.4 2.4 3.6c0 2.7-3.2 4.5-7 3.8c-0.4-0.8-1.8-2.3-1.8-3.8zm-356.6 31.8c1.8-0.9 3.6-2.5 5.4-2.7c2.7-0.1 4.4 2.3 3.5 4.6c-0.6 1.6-3.1 3.2-4.9 3.3c-1.3 0.1-2.8-2.2-4.2-3.4q0.1-0.9 0.2-1.8zm222.1 66.4c0.1 2.5-3.4 5.2-5.5 4.3c-1.5-0.6-3.4-3.6-3.1-4.1c1.3-1.9 3.5-3.2 6.2-5.5c1.3 2.6 2.4 3.9 2.4 5.3zm-377.6-245.2c-0.8 1.6-3.3 3.3-5 3.3c-2.7 0.1-3.9-2.6-3-4.9c0.7-1.6 2.8-2.6 4.3-3.9c3.3 1.4 4.7 3.4 3.7 5.5zm379.4 322.3c0.3-2.9 3.1-4.2 5.6-3.4c1.4 0.3 3.2 2.6 3.2 3.9c-0.2 2.9-2.7 3.9-6.7 3.9c-0.6-1.2-2.3-2.9-2.1-4.4zm67.2 87.2c0 2.6-2.3 4.3-4.7 3.3c-1.6-0.7-3.6-3.2-3.5-4.7c0.1-1.5 2.6-2.9 5.1-5.3c1.5 3.1 3.1 4.9 3.1 6.7zm-45.6 64.7c1.8-0.6 3.5-1.9 5.2-1.8c2.7 0.1 3.9 2.2 3.4 4.8c-0.5 2.7-2.7 4.1-5 3.2c-1.6-0.7-2.7-2.9-4-4.5q0.2-0.8 0.4-1.7zm-420.4-503c-0.6 1.6-2.9 3.6-4.4 3.6c-3.1-0.2-3.9-3.1-3.4-5.7c0.3-1.3 2.1-2.4 2.9-3.2c3.4 1.1 5.9 2.4 4.9 5.3zm373.5 620.4c0.1-2.9 2.8-3.2 5.2-2.7c2.5 0.6 4.5 2.2 3.6 4.8c-0.6 1.4-2.8 2.2-5.3 4.1c-1.6-2.8-3.6-4.5-3.5-6.2zm-388.9-567.9c-2.6-0.1-4.2-2.5-3.2-4.8c0.7-1.7 3-2.7 4.6-4c1.3 1.6 2.5 3.2 4.5 5.7c-2.7 1.5-4.3 3.2-5.9 3.1zm-6.3-255.6c0.3-2.8 2.5-4.4 5.4-3.9c2.5 0.4 3.6 2.2 3.1 4.7c-0.5 3-2.8 3.5-6.7 3c-0.4-0.8-2-2.4-1.8-3.8zm72.4 413c0-1 2.7-2.8 4.4-3c2.5-0.3 4.8 3 3.8 5.3c-0.6 1.4-2.4 2.3-4.7 4.5c-1.7-3.1-3.5-4.9-3.5-6.8zm379.6-132.6c1.2 0.4 2.7 2.7 2.5 4c-0.3 2.9-2.7 4.5-5.5 3.8c-1.3-0.3-2.2-2.3-3.1-3.3c1.5-3.3 3.2-5.4 6.1-4.5zm-176.6 295c-0.2 2.8-2.1 5.1-5 4.5c-1.4-0.3-3.8-3.2-3.4-4.1c0.7-1.9 2.9-3.3 5.5-5.9c1.5 2.8 2.9 4.2 2.9 5.5zm-181.5-9c0.7-1.6 3.3-3.3 5-3.2c2.8 0.1 3.8 2.9 2.9 5.4c-0.4 1.4-2.3 2.4-3 3.1c-3.8-1.1-6-2.6-4.9-5.3zm47.6 9.9c1.7-1 3.6-3 5.1-2.8c1.6 0.3 3.8 2.7 3.9 4.4c0.2 2.7-2.3 4.3-4.9 3.7c-1.6-0.4-2.8-2.3-4.2-3.5q0-0.9 0.1-1.8zm345.3-111.5c1.8-0.8 3.9-2.4 5.5-2.1c1.4 0.3 3.3 2.8 3.4 4.4c0.2 2.6-2.2 4.2-4.6 3.5c-1.8-0.5-3.1-2.6-4.6-3.9q0.1-1 0.3-1.9zm-317.2-279.4c-1.7-0.7-2.5-3.3-3.7-5.2c1.8-1.1 3.5-2.9 5.3-2.9c1.2-0.1 2.5 2.4 4.7 4.7c-3 1.7-5.3 3.9-6.3 3.4zm-106.9 705.6c-1.5-0.6-2.3-3.2-3.4-4.9c1.8-1.1 3.5-3 5.2-3c1.2-0.1 2.5 2.4 4.8 4.8c-3.1 1.6-5.3 3.5-6.6 3.1zm46-672.2c1.8-0.6 3.6-1.9 5.3-1.8c2.5 0.3 4.1 2.6 3 5c-0.7 1.5-3.3 3.2-4.7 2.9c-1.6-0.3-2.7-2.8-4-4.3q0.2-0.9 0.4-1.8zm-26.6 701.2c-1.5-0.8-3-3.3-2.9-5.1c0-1.1 3.1-3.2 4.4-3c1.5 0.4 2.6 2.8 4.8 5.4c-3 1.4-5.3 3.3-6.3 2.7zm399-659.9c1.2 0.4 2.5 2.6 2.5 4c0.1 2.8-3.3 5.4-5.4 4.4c-1.3-0.7-2-2.5-2.6-3.2c1-3.9 2.4-6.2 5.5-5.2zm-310.7 345.8c-0.2 3-2.4 4.4-5.4 4c-2.4-0.2-3.5-1.8-3-4.2c0.6-2.6 2.2-4.2 6.4-3.7c0.5 0.9 2.1 2.5 2 3.9zm-96.5-446.5c2.6 0.1 4.4 2.3 3.6 4.7c-0.6 1.5-3.2 3.5-4.5 3.2c-1.7-0.4-2.9-2.7-5.3-5.2c3-1.4 4.6-2.7 6.2-2.7zm196.3 665.3c0-1.1 3-3 4.5-2.9c2.6 0.1 4.4 2.4 3.7 5.1c-0.4 1.4-2.5 2.4-4.9 4.6c-1.6-3.1-3.3-4.9-3.3-6.8zm-130.2-324.1c-0.4 1.4-3.5 3.4-3.8 3.2c-1.8-1.4-3.4-3.2-4.3-5.3c-0.3-0.5 2.3-2.3 3-2.9c4 0.7 5.9 2.3 5.1 5zm-129.4 376.1c-0.1-0.4 2.7-2.2 4.1-2.3c2.8 0 5.7 3.6 4.7 5.3c-0.9 1.4-2.9 2-5.4 3.7c-1.5-2.8-2.8-4.6-3.4-6.7zm80.1-264.2c0.7-0.1 2.6 2.6 2.6 3.9c-0.2 2.7-2.1 4.9-5.1 4.1c-1.4-0.3-2.4-2.4-4.5-4.7c3.1-1.6 5-3 7-3.3zm-133-120.4c0.5-1.4 2.7-2.2 4.2-3.3c1.2 2 2.8 3.9 3.5 6.1c0.2 0.8-2.1 2.2-2.9 3c-3.8-1.1-5.6-3-4.8-5.8zm196.7 166.1c-0.8-1.7-2.2-3.4-2.2-5.1c0.1-2.6 2.4-4.2 4.8-3.2c1.5 0.7 3.4 3.1 3.2 4.5c-0.2 1.5-2.6 2.8-4 4.2q-0.9-0.2-1.8-0.4zm200.7 158.3c-0.3 1.4-2.8 2.3-4.3 3.4c-1.2-1.9-2.9-3.7-3.3-5.7c-0.2-0.8 2.4-2.2 4.9-4.2c1.4 3 3 5 2.7 6.5zm-307-808.9c1.8-0.8 3.7-2.4 5.4-2.3c1 0.1 3.1 3.3 2.7 4.1c-0.8 1.7-2.9 3.5-4.7 3.8c-0.9 0.2-2.5-2.5-3.7-3.8q0.1-0.9 0.3-1.8zm59.5 641.4c-2.4-0.6-3.5-2.4-2.8-4.9c0.7-2.6 2.9-3.7 5.2-2.9c1.5 0.5 2.5 2.3 3.4 3.2c-1.4 3.7-2.9 5.4-5.8 4.6zm82.1-14.3c-0.1 2.7-2.2 4.2-4.9 3.8c-2.6-0.5-4.2-2.5-3.2-4.9c0.6-1.7 2.9-2.6 5.5-4.7c1.3 2.7 2.7 4.3 2.6 5.8zm129.5-304.8c0.5 1.5 1.9 3.8 1.4 4.4c-1.5 1.7-3.7 2.7-5.7 4c-0.8-1.5-2.8-3.7-2.4-4.5c1.1-1.8 3.3-3 5.1-4.5q0.8 0.3 1.6 0.6zm31.1 230.5c0.8 1.6 2.2 3.3 2.2 5c-0.1 2.6-2.3 4.3-4.7 3.2c-1.6-0.6-3.4-3-3.3-4.4c0.2-1.5 2.6-2.8 4-4.2q0.9 0.2 1.8 0.4zm-104-139.4c0.1-1.3 2.6-3.2 4.2-3.4c2.4-0.4 4.5 1.5 3.9 4.1c-0.4 1.6-2.2 2.9-4.3 5.5c-1.9-2.9-3.9-4.6-3.8-6.2zm-160.3-480.7c0.4-3 3-4.3 5.7-3.6c1.2 0.2 2.7 2.5 2.6 3.8c-0.1 2.6-2.1 4.2-6.3 3.6c-0.5-0.8-2.1-2.5-2-3.8zm199.6 418.3c-0.7-1.8-2.1-3.6-2-5.3c0.2-2.5 2.3-4.3 4.8-3.3c1.4 0.5 3.1 3.1 2.8 4.3c-0.4 1.7-2.5 3.1-3.9 4.6q-0.8-0.1-1.7-0.3zm-75.3-123.2c1.2 0.1 3 3 2.9 4.6c-0.1 2.6-2.4 4.3-5.1 3.3c-1.4-0.5-2.3-2.5-4.2-4.8c2.9-1.5 4.8-3.3 6.4-3.1zm-62.2 41.8c0.6-1.4 3.3-2.9 5-2.9c1.1 0.1 3 3 3 4.4c-0.1 1.4-2.4 2.7-4.8 5.1c-1.6-3.1-3.6-5.3-3.2-6.6zm95.8 313.8c0.8 1.8 2.3 3.6 2.3 5.5c0.1 2.4-2.1 4.1-4.3 3.2c-1.6-0.7-3.3-3.1-3.4-4.9c-0.1-1.2 2.2-2.7 3.5-4.1q0.9 0.2 1.9 0.3zm-122.7-289.6c-0.7-1.6-2.5-3.8-2-4.6c1.2-1.9 3.4-3.1 5.3-4.6c0.8 1.9 2.4 3.9 2.2 5.7c-0.1 1.4-2.4 2.6-3.7 3.8q-0.9-0.1-1.8-0.3zm-14.5 592.2c1.8-0.7 3.8-2.2 5.2-1.7c1.5 0.5 3.2 2.8 3.3 4.5c0.1 2.3-2.1 4-4.4 3.1c-1.7-0.7-3-2.7-4.4-4.1q0.2-0.9 0.3-1.8zm431.6-168.2c1.6-1 3.2-2.8 4.9-2.9c2.4-0.1 4.4 1.8 3.6 4.5c-0.4 1.5-2.3 2.5-4.4 4.6c-1.9-2.8-3-4.5-4.1-6.2zm-402.3 149c1.8-0.8 3.7-2.2 5.5-2.2c2.5 0.1 4 2.4 2.9 4.5c-0.9 1.6-3.3 3.2-5 3.3c-1.2 0-2.5-2.5-3.8-3.9q0.2-0.9 0.4-1.7zm162.9-69.9c1.8-0.7 3.6-2.1 5.3-2c2.5 0.2 4.2 2.4 3.1 4.8c-0.7 1.5-3.2 3.4-4.5 3.1c-1.6-0.3-2.9-2.6-4.2-4.1q0.1-0.9 0.3-1.8zm-207.3-607.3c-0.8-2-2.3-4-2.3-5.9c0-1.1 3.4-3.2 4.1-2.8c1.6 0.9 3.3 3 3.5 4.8c0.2 1.2-2.1 2.8-3.3 4.2q-1-0.2-2-0.3zm145.8 26.4c-0.8-1.6-2.2-3.2-2.2-4.8c0-2.5 1.9-4.3 4.6-3.5c1.4 0.5 2.4 2.3 4.5 4.5c-3.1 1.8-5 2.8-6.9 3.8zm-112.4-225.5c0.2-2.8 2.6-4.3 5.1-3.5c1.5 0.5 3.5 3 3.2 4.1c-0.4 1.6-2.6 2.7-4.9 5c-1.7-2.7-3.4-4.2-3.4-5.6zm-106 29.4c1.9-0.9 3.8-2.3 5.8-2.4c0.9 0 2.7 2.5 2.7 3.9c0 2.8-2.3 4.3-5 3.5c-1.4-0.4-2.4-2.1-3.6-3.3q0-0.8 0.1-1.7zm59.3 86.6c1.8-1.1 3.6-3 5.4-2.9c1.2 0.1 2.9 2.8 3.1 4.5c0.1 1-2.2 2.3-4.3 4.4c-1.9-2.7-3-4.4-4.2-6zm112.1 92.4c1.3 0.4 2.9 2.9 2.9 4.5c0 2.4-2.2 4.4-4.7 3.4c-1.5-0.5-2.4-2.7-4.4-5.1c2.9-1.4 4.8-3.2 6.2-2.8zm285.4 478.4c2.4 0.1 3.8 1.9 3.3 4.5c-0.6 2.4-2.4 4.4-4.8 3.5c-1.5-0.6-2.4-2.9-4.3-5.5c2.7-1.2 4.3-2.5 5.8-2.5zm-370.4-715.6c0.1-2.8 2.4-3.8 5.2-3.4c2.2 0.3 4 1.6 3.2 3.9c-0.6 1.6-2.6 2.7-4.8 5c-1.8-2.6-3.6-4.1-3.6-5.5zm11.2 372.7c1.3 0.5 3 3.3 2.7 3.9c-1.1 1.8-3.1 3-4.7 4.5q-1.7-2.2-3.5-4.4c1.3-3.4 3-4.9 5.5-4zm381.7 375.8c-0.4 1.6-2.7 2.7-4.1 4c-1.3-1.8-3-3.5-3.5-5.5c-0.2-0.9 2.3-2.4 4.7-4.6c1.4 2.9 3.2 4.8 2.9 6.1zm-294.7-50.5c-0.7-1.6-2.4-3.6-2-4.9c0.6-1.5 2.9-3 4.6-3.1c2.4-0.1 3.9 2.1 3 4.4c-0.5 1.5-2.4 2.7-3.7 4q-0.9-0.2-1.9-0.4zm-81 176.7c1.1 0.4 2.5 2.5 2.4 3.7c-0.4 3-3 4-5.7 3.3c-1.2-0.3-2.1-2-3-2.8c1.5-3.5 3.5-5.2 6.3-4.2zm89.4 70.9c-0.1 1.1-2.4 2.7-3.9 2.9c-2.1 0.3-4.7-3.7-3.7-5.6c0.7-1.3 2.5-2 4.9-3.8c1.3 2.9 2.7 4.7 2.7 6.5zm382.9-733c1.2 0.3 2.8 2.7 2.6 4c-0.2 2.8-2.5 4.5-5.4 3.8c-1.2-0.2-2.1-2-2.9-2.8c1.1-3.5 2.8-5.7 5.7-5zm-678.8 549.2c1.9 1.5 3.2 3.7 4.7 5.7c-1.5 0.8-3.5 2.6-4.5 2.1c-1.8-0.9-3.1-3-5.5-5.4c2.7-1.3 4.8-2.8 5.3-2.4zm241.6-503.1c0-0.8 3-2.5 4.5-2.5c2.6 0.2 3.9 2.5 3.1 5c-0.4 1.3-2.1 2.2-4.3 4.4c-1.6-3.1-3.1-5-3.3-6.9zm180.3 130.8c0.5-0.2 2.7 3.3 2.3 3.9c-1.2 1.7-3.2 3-5.2 3.9c-0.4 0.2-1.9-2.2-3.9-4.5c3-1.6 4.8-2.9 6.8-3.3zm-200.1-159.3c0.2-1.3 3.1-2.8 4.8-2.8c2.4 0 3.8 2.4 2.9 4.7c-0.5 1.4-2.3 2.5-4.5 4.7c-1.7-3.1-3.6-5.1-3.2-6.6zm-149.6 19.4c1.5 0.5 3.2 3.1 3 4.5c-0.2 1.4-2.7 3.3-4.2 3.4c-1.2 0-2.5-2.5-4.6-4.8c2.7-1.6 4.7-3.6 5.8-3.1zm344.4 564.2c2.4 0.1 4 2.1 3.1 4.5c-0.7 1.6-2.9 2.6-4.3 3.9c-1.3-1.6-2.6-3.2-4.7-5.9c2.7-1.2 4.3-2.6 5.9-2.5zm-306.3 167.6c2.7 0.3 3.6 2.5 3.1 5.1c-0.5 2.3-2.1 4.3-4.4 3.3c-1.5-0.8-2.2-3.3-3.9-5.9c2.4-1.2 3.9-2.6 5.2-2.5zm491.9-204.2c0.3 1.6-4.1 3.9-5.9 2.8c-1.2-0.8-2.5-3.2-2.2-4.4c0.4-1.5 2.5-2.5 5-4.7c1.5 3 2.7 4.5 3.1 6.3zm-362.1-347.5c0.8 1.5 2.2 3.1 2.1 4.6c-0.1 2.7-2.3 3.7-4.8 3.5c-2.5-0.2-3.9-2-3.1-4.1c0.6-1.7 2.6-2.9 4.1-4.3q0.8 0.1 1.7 0.3zm-111.9 209.6c-0.7 1.5-3.1 3.2-4.6 2.9c-1.4-0.2-3.4-2.7-3.3-4.2c0-1.2 2.6-2.4 4.9-4.4c1.5 2.7 3.5 4.8 3 5.7zm83.9-361.1c1.8-0.6 3.8-2.1 5.2-1.7c1.5 0.5 2.2 3 3.3 4.5c-1.6 1-3.4 2.8-4.9 2.7c-1.4-0.1-2.7-2.4-4-3.7q0.2-0.9 0.4-1.8zm6 502.9c1.7-0.9 3.4-2.5 5.2-2.6c2.3-0.2 4.2 1.7 3.2 4.2c-0.6 1.5-2.7 2.5-5.1 4.5c-1.5-2.8-2.4-4.4-3.3-6.1zm-153.7-778.9c0.3-2.6 2.4-4.5 5.1-3.6c1.3 0.4 3.1 2.8 2.9 4.1c-0.2 1.4-2.4 2.5-4.5 4.4c-1.7-2.3-3.6-3.7-3.5-4.9zm271.8 950.4c1.6-0.9 3.1-2.4 4.7-2.4c2.3 0 4.9 1.4 4.1 4.1c-0.4 1.5-2.7 2.5-5.1 4.5c-1.6-2.8-2.7-4.5-3.7-6.2zm-155-102.8c0.3-2.8 2.5-4.4 5.1-3.5c1.3 0.5 3.2 3.1 2.8 4.1c-0.6 1.6-2.7 2.7-5.1 4.8c-1.4-2.6-2.9-4.1-2.8-5.4zm-173.8-759.1c0.1 0.4-2.6 2.4-4 2.5c-2.4 0.1-4.6-3.3-3.7-5.5c0.5-1.1 2-1.8 4-3.5c1.6 2.7 3.1 4.5 3.7 6.5zm124 622.6c1.5-0.8 3.1-2.5 4.5-2.4c2.7 0.1 4 2.5 3.2 4.9c-0.4 1.3-2.6 3-3.7 2.8c-1.6-0.3-2.8-2.2-4.2-3.4q0.1-0.9 0.2-1.9zm66.4 88.9c-0.4 1.1-2.5 2.4-3.7 2.3c-2.6-0.3-4.8-2.1-4.2-5.1c0.3-1.2 2.4-2 3.1-2.5c3.9 0.8 5.7 2.5 4.8 5.3zm-64.8 36.6c0-1 2.8-2.7 4.4-2.6c2.6 0.1 3.9 2.5 3.1 4.9c-0.5 1.3-2.3 2.2-4.5 4.1c-1.5-2.9-3.1-4.7-3-6.4zm140.2 73.2c2.3 0.1 4.1 2 3.2 4.3c-0.6 1.7-2.7 2.7-4.2 4c-1.2-1.6-2.4-3.2-4.3-5.8c2.5-1.2 3.9-2.6 5.3-2.5zm25.3-395.8c1 0.2 2.4 2.6 2.3 3.8c-0.3 2.6-1.9 4.9-5 4.4c-1.1-0.1-2-2-2.7-2.8c1.1-3.5 2.3-5.9 5.4-5.4zm-187.4 168.3c1.5-0.7 3.2-2 4.6-1.8c2.6 0.3 4.4 2.4 3.6 5.1c-0.4 1.1-2.9 2.4-3.9 2.1c-1.8-0.7-3.2-2.5-4.7-3.9q0.2-0.7 0.4-1.5zm21.6-471.1c-0.1 2.5-2.2 3.5-4.6 3c-2.3-0.4-3.8-2.2-2.7-4.3c0.8-1.6 2.8-2.6 5.3-4.7c1 2.9 2.1 4.5 2 6zm44.5 258.7c0.2-1.2 2.7-3 4.1-2.9c2.5 0.2 3.8 2.5 3 5c-0.5 1.3-2.2 2.2-4.5 4.3c-1.3-3-2.9-4.8-2.6-6.4zm219 187.7c0.8 1.4 2.5 3.5 2.1 4c-1.2 1.7-3.2 2.9-5 4.3c-0.9-1.2-1.9-2.4-3.6-4.6c2.8-1.5 4.7-2.6 6.5-3.7zm-341-611.4c1.7-0.5 3.9-2 5-1.4c1.4 0.8 2.1 3.1 3.1 4.7c-1.5 0.9-3.3 2.7-4.6 2.4c-1.5-0.4-2.6-2.6-3.9-4q0.2-0.9 0.4-1.7zm156.2 905.5c0.1-1.1 2.7-2.8 4.2-2.7c2.5 0 4.2 2.1 3.2 4.7c-0.4 1.3-2.3 2.2-4.5 4c-1.4-2.7-3.1-4.5-2.9-6zm-120.7-1.1c1.5 0.7 2.9 2.9 3 4.6c0.1 0.9-2.6 2.8-4.1 2.8c-1.2-0.1-2.5-2.2-4.7-4.4c2.8-1.5 4.8-3.4 5.8-3zm115.6-375.2c1.6-0.8 3.6-2.4 4.7-2c1.5 0.6 2.4 2.8 3.5 4.4c-1.5 1-3 3-4.3 2.8c-1.6-0.2-2.9-2.3-4.3-3.5q0.2-0.9 0.4-1.7zm332.9-16.3c0.8 1.4 2.4 2.9 2.4 4.3c-0.1 2.7-2.2 4.4-4.9 4.1c-1.1-0.1-2-2.1-3.7-4c2.6-1.9 4.4-3.1 6.2-4.4zm-293.5 369.8c0.6 1.4 1.9 2.8 1.7 4.2c-0.1 2-0.6 5.1-3.7 4c-1.5-0.5-3.2-2.9-3.2-4.4c0-1.4 2.2-2.8 3.4-4.2q0.9 0.2 1.8 0.4zm-46.5-424.9c-0.8-1.8-2.1-3.7-2.1-5.6c-0.1-0.9 2.6-2.7 3.8-2.6c2.6 0.3 3.7 2.7 3 5.1c-0.4 1.3-2 2.2-3 3.3q-0.9-0.1-1.7-0.2zm-43.8 233.4c2.8 0.3 4.1 2.6 3.2 5.2c-0.5 1.3-2.5 2.1-3.8 3.1c-1.2-1.7-2.5-3.4-4.5-6c2.5-1.2 3.9-2.5 5.1-2.3zm-23-278.5c2.6 0.1 4.3 2.2 3.4 4.7c-0.5 1.4-3 3.1-4.3 2.9c-1.4-0.2-2.5-2.5-4.5-4.8c2.5-1.4 4-2.8 5.4-2.8zm52.8-415.7c2.5 0 4.6 1.9 3.8 4.4c-0.5 1.4-2.9 3-4.4 2.9c-1.4-0.1-2.7-2.3-5-4.5c2.8-1.5 4.2-2.8 5.6-2.8zm-1.6 675.4c1.5 1 3 3 3.1 4.7c0.3 2.2-1.8 3.9-4 2.9c-1.6-0.7-2.6-2.7-4.6-5.1c2.7-1.3 4.8-3 5.5-2.5zm-65.7-335c-0.1-0.5 2.4-2.4 3.6-2.3c2.6 0.1 4.7 1.8 4 4.7c-0.3 1.2-2.2 2-4.3 3.7c-1.5-2.6-2.8-4.2-3.3-6.1zm182.5-160c-0.5-1.4-1.6-2.8-1.5-4.2c0.3-2.6 2.3-4.2 4.8-3.6c1.1 0.3 3 2.9 2.7 3.5c-1 1.8-2.8 3.2-4.3 4.7q-0.8-0.2-1.7-0.4zm16.5 698.9c0.1-2.8 2.6-3.8 4.9-3.1c1.3 0.5 3.2 2.9 2.9 3.7c-0.6 1.5-2.5 2.6-4.7 4.7c-1.5-2.5-3.2-3.9-3.1-5.3zm-217.2-266.1c0.2 2.4-2.1 2.7-4.1 2.2c-2.3-0.5-4.7-1.6-4-4.3c0.4-1.4 2.6-2.3 4.9-4.3c1.5 2.8 3 4.5 3.2 6.4zm288-245.2c1.1-1.6 3.2-2.6 4.9-3.8c0.9 1.4 2.8 3.3 2.4 4.2c-0.8 1.7-2.8 2.8-5.3 5.1c-1.1-2.8-2.5-4.9-2-5.5zm-358.8 582c0.6-1.5 2.9-2.4 4.4-3.5c1 1.5 2.9 3 2.8 4.4c-0.1 1.4-2.2 2.6-4.3 5c-1.5-2.8-3.3-4.8-2.9-5.9zm302.9-122.9c0.6 1.4 1.8 2.9 1.6 4.2c-0.4 2.5-2.3 4.4-5 3.8c-1.1-0.3-2.7-2.9-2.3-3.6c0.9-1.8 2.7-3.2 4.2-4.8q0.8 0.2 1.5 0.4zm-158.1-95.8c-0.8-1.9-2.1-3.8-2.1-5.6c0-0.9 2.5-2.5 3.8-2.5c2.5 0.1 3.9 2.2 3.1 4.5c-0.4 1.5-2 2.5-3.1 3.7q-0.9 0-1.7-0.1zm-11.9 43.6c0.1-2.4 2.3-4 4.5-3c1.4 0.6 2.9 2.8 2.9 4.3c0 1.2-2.2 2.4-4.4 4.6c-1.5-2.9-3-4.4-3-5.9zm298 5.8c1.9-1 3.6-2.4 5.6-2.8c0.6-0.1 2.8 3 2.4 3.8c-0.7 1.5-2.7 2.5-5 4.3c-1.4-2.5-2.2-3.9-3-5.3zm-321.3 136.4c1.5 0.9 3.1 2.8 3.4 4.5c0.2 0.9-2.6 3.3-3.8 3.1c-1.5-0.3-2.6-2.4-4.8-4.6c2.5-1.5 4.5-3.4 5.2-3zm-102.4-941.6c0.3-1.2 3.3-2.8 4.3-2.4c1.5 0.6 2.9 3 3 4.6c0 1.1-2.5 2.2-5 4.3c-1.2-3.1-2.7-5-2.3-6.5zm340.6 610.4c0.4-0.1 2.4 2.9 2.1 3.3c-1.3 1.7-3.2 3-4.8 4.5c-1-1.1-2-2.3-3.9-4.4c2.8-1.6 4.6-2.8 6.6-3.4zm-232.5-391.1c1.6-0.6 3.5-2.1 4.9-1.7c1.4 0.3 2.3 2.5 3.5 3.9c-1.5 1-3.1 2.7-4.6 2.7c-1.4-0.1-2.7-2.1-4.1-3.3q0.2-0.8 0.3-1.6zm-44.4 242.7c0.8-1.4 3.1-2.8 4.7-2.7c1 0 2.8 2.7 2.7 4.1c-0.1 1.2-2.3 2.3-4.5 4.3c-1.4-2.7-3.3-4.9-2.9-5.7zm-42.7 246.4c-0.8-1.5-2.3-3.1-2.3-4.6c0-2.8 2.6-3.5 4.7-2.9c1.2 0.4 2.7 2.6 2.6 3.9c-0.2 1.4-2 2.6-3.1 3.9q-1-0.2-1.9-0.3zm19.5-229.2c1 0.2 2.8 3.3 2.4 3.9c-1 1.5-2.9 2.9-4.7 3.2c-0.7 0.1-2-2.3-4-4.6c2.9-1.3 4.7-2.7 6.3-2.5zm526.6 228c0.4-2.8 2.9-3.9 5.4-3.1c1.1 0.4 2.8 3 2.4 3.5c-0.9 1.6-2.8 2.7-5.1 4.7c-1.4-2.5-2.9-3.9-2.7-5.1zm-128.7 46.6c0.4-0.1 2.1 2.6 2 3.9c-0.4 2.8-2.7 4-5.3 3.4c-1.1-0.3-1.8-2.1-3.5-4.3c2.9-1.4 4.8-2.5 6.8-3zm-427.7 122.1c1.5-0.4 3.5-1.7 4.5-1.1c1.5 0.8 2.3 2.9 3.4 4.5c-1.3 0.7-2.9 2.4-3.8 2.1c-1.8-0.7-3.1-2.4-4.6-3.7q0.2-0.9 0.5-1.8zm-8.2-624.6c1.7-1.1 3.3-2.7 5.2-3.1c0.7-0.1 2.7 2.8 2.6 4.2c0 1.1-2.4 2.1-4.5 3.8c-1.5-2.3-2.4-3.6-3.3-4.9zm-28.9 694.2c0.1-1.1 2.5-2.8 4-2.9c2.4-0.2 3.9 1.9 3.2 4.3c-0.4 1.3-2 2.4-4 4.7c-1.6-2.8-3.3-4.5-3.2-6.1zm509.9-433.4c0.5-0.2 2.7 2.9 2.4 3.3c-1.3 1.6-3.1 3-4.9 4.1c-0.3 0.1-1.9-2.1-3.7-4.2c2.6-1.5 4.3-2.8 6.2-3.2zm109.1-74.8c1.3-1.6 3.2-2.6 4.9-3.8c1 1.4 3 3.4 2.7 3.9c-1 1.7-2.9 2.7-5.4 4.7c-1.1-2.4-2.6-4.4-2.2-4.8zm-370.4 1.5c0.7-0.1 2.8 3.1 2.5 3.4c-1.3 1.5-3 3-4.8 3.7c-0.6 0.3-2.1-2-4.2-4c2.9-1.5 4.6-2.8 6.5-3.1zm-275.1-402c1.5 1.4 2.4 3.3 3.5 5c-1.3 0.9-3.3 2.7-3.7 2.4c-1.6-1.1-2.7-3-4.8-5.6c2.6-1 4.5-2.2 5-1.8zm169.5 432c1.3 0.4 2.2 2.7 3.2 4.1c-1.6 1.1-3.1 2.7-4.9 3c-0.8 0.2-2.1-2.1-4-4.3c2.6-1.4 4.4-3.1 5.7-2.8zm52.4-415c1.3 0.4 2.1 2.7 3.2 4.1c-1.6 1.1-3 2.7-4.8 3.1c-0.7 0.2-2.1-2.2-4-4.4c2.6-1.4 4.4-3.1 5.6-2.8zm280.7 481.8c1.2-1.5 3-2.8 4.9-3.5c0.4-0.2 2.9 2.7 2.6 3.3c-0.8 1.7-2.6 2.9-4.9 5.2c-1.3-2.5-2.9-4.5-2.6-5zm-357.2 329c0.9 0 3.1 3 2.8 3.5c-0.9 1.5-2.7 3.1-4.3 3.5c-0.9 0.2-2.4-1.9-4.7-3.9c2.9-1.5 4.5-3.1 6.2-3.1zm-70-584.8c0.5-1.4 2.7-2.2 4.1-3.3c1.1 1.6 2.6 3.1 2.9 4.9c0.1 0.8-2.2 2-4.4 4c-1.3-2.7-3-4.6-2.6-5.6zm75.7-135.7c0.4-1.4 2.6-2.3 4-3.4c1.2 1.5 2.8 2.9 3.2 4.6c0.2 0.8-2 2.2-4.1 4.2c-1.5-2.5-3.4-4.3-3.1-5.4zm-113.8 625.3c1.4 1.3 2.7 3.1 3.4 5c0.1 0.5-2.8 2.9-3.3 2.6c-1.6-0.9-2.8-2.7-5-5c2.5-1.3 4.6-2.9 4.9-2.6zm53.8-36.8c0.1-2.4 2.1-3.9 4.4-3.1c1.3 0.5 3.1 2.8 2.8 3.7c-0.4 1.7-2.3 2.9-4.6 5.2c-1.3-2.8-2.7-4.3-2.6-5.8zm39.2 57c0.3-1.2 2.6-2.7 4-2.7c2.4 0 3.8 2.2 3 4.5c-0.5 1.3-2.4 2.1-4.7 4c-1.2-2.7-2.6-4.5-2.3-5.8zm-13.4-706.4c0.8 1.6 2.4 3.4 2.2 5c0 1.1-2.5 2-3.8 2.9c-1-1.4-2.7-2.8-2.9-4.3c-0.1-1.2 1.8-2.5 2.8-3.8q0.9 0.1 1.7 0.2zm127.7 382.4c-1.4-0.4-3-2.8-2.8-4.2c0.1-1.2 2.5-3.1 3.8-3c1.3 0 2.5 2.2 4.8 4.4c-2.8 1.5-4.7 3.2-5.8 2.8zm-69.9 81.3c1.6-0.7 3.6-2.3 4.8-1.8c1.3 0.5 2.4 2.9 2.5 4.5c0 0.8-2.7 2.5-3.9 2.3c-1.4-0.2-2.6-2.1-3.8-3.3q0.2-0.9 0.4-1.7zm6.6-297.6c1.1-1.4 3-2.7 4.7-2.9c0.9-0.1 2.9 2.7 2.7 3.8c-0.3 1.4-2.4 2.4-4.6 4.3c-1.4-2.5-3.2-4.7-2.8-5.2zm329.9 533c0.4 1.4 1.7 3.4 1.2 4.1c-1.1 1.7-3.1 2.7-4.7 4c-0.8-1.2-2.5-2.8-2.2-3.4c0.9-1.9 2.5-3.4 3.9-5.1q0.9 0.2 1.8 0.4zm-318-709.3c1.3 0.4 2.9 2.9 2.7 4.1c-0.3 1.4-2.6 3.2-4 3.2c-1.2 0-2.4-2.3-4.5-4.7c2.8-1.4 4.7-3 5.8-2.6zm-110.7 454.2c1.1 1.8 2.5 3.4 2.9 5.3c0.2 0.6-2.8 2.9-3.3 2.6c-1.5-0.9-2.5-2.6-4.3-4.8c2.2-1.4 3.4-2.2 4.7-3.1zm3.6 384c-0.8-1.7-2-3.4-2-5.1c0-0.9 3.1-2.7 3.6-2.4c1.5 1 2.9 2.8 3.4 4.5c0.1 0.7-2.1 2.1-3.3 3.2q-0.9-0.1-1.7-0.2zm9.6-856.1c2.6 0.2 4.1 2.2 3.4 4.7c-0.3 1.2-2.8 3-3.4 2.7c-1.7-0.8-2.9-2.6-5.2-4.8c2.5-1.3 3.9-2.7 5.2-2.6zm-85 858.8c1.4 0.5 2.3 2.6 3.5 4c-1.4 0.9-2.8 2.8-4 2.6c-1.5-0.2-2.8-2-5.3-4c2.9-1.4 4.6-3 5.8-2.6zm285-446.7c0.3-0.1 2.3 3.1 1.9 3.7c-1.2 1.6-3 2.8-4.8 3.6c-0.4 0.2-1.8-2.1-3.5-4.2c2.7-1.4 4.5-2.6 6.4-3.1zm-89.8-192.8c0.6 1.5 2.1 3.5 1.6 4.5c-0.6 1.3-2.7 2.4-4.3 2.7c-0.8 0.1-2.8-2.6-2.5-3.4c0.6-1.7 2.4-2.9 3.7-4.2q0.8 0.2 1.5 0.4zm-72.1-154.5c-0.7-1.6-2.2-3.3-1.9-4.7c0.3-1.2 2.9-3 3.8-2.7c1.4 0.5 3.1 2.6 3.1 3.9c0 1.3-2.1 2.5-3.3 3.8q-0.9-0.2-1.7-0.3zm26.9-25c0.3-1.2 2.9-3.1 3.9-2.7c1.4 0.4 2.8 2.5 3 4c0.1 1-2 2.3-4.2 4.5c-1.4-2.8-3-4.5-2.7-5.8zm206.1 786c0.8 1.3 2.4 2.6 2.3 3.8c-0.1 2.5-1.8 4.3-4.5 3.7c-1.2-0.3-2.1-1.8-3.9-3.5c2.6-1.7 4.3-2.9 6.1-4zm-220 108.7c1.4 0.8 3.1 2.8 3 4.1c-0.2 1.2-2.6 2.2-3.9 3.3c-1.1-1.4-2.2-2.8-4-5.1c2.3-1.2 4.2-2.7 4.9-2.3zm-100.5-513.9c-0.3 1.1-2.9 2.6-4 2.3c-1.2-0.3-2.7-2.7-2.6-4c0.1-1.2 2.2-2.3 4.5-4.4c1.1 2.9 2.5 4.7 2.1 6.1zm61.2 210.3c-0.5 1.4-2.5 2.6-4.1 3c-0.8 0.1-2.9-2.3-2.8-3.3c0.3-1.5 2-2.7 3.8-5c1.6 2.5 3.5 4.4 3.1 5.3zm123.2-6c0.5 1.4 2 3.3 1.5 4c-1 1.5-2.9 2.4-4.5 3.5c-0.9-1.3-2.6-3-2.3-3.9c0.5-1.6 2.4-2.7 3.7-4.1q0.8 0.3 1.6 0.5zm-102.6-520.6c0.3 1.4 1.1 2.9 1 4.2c-0.2 2.5-2 4-4.4 3.2c-1.1-0.4-2.6-2.7-2.3-3.3c0.9-1.8 2.6-3.1 3.9-4.6q0.9 0.3 1.8 0.5zm194.3 717.4c-1.8 0.6-3.5 1.7-5.3 1.7c-0.8 0-2.3-3-2.1-3.3c1.3-1.4 3-2.7 4.7-3.2c0.7-0.1 2 2.1 3 3.2q-0.2 0.8-0.3 1.6zm-162-360.7c0.7 1.5 2.1 3.2 1.8 4.4c-0.4 1.3-2.5 2.9-3.8 2.8c-1.1-0.1-3-2.4-2.8-3.6c0.2-1.4 2.1-2.6 3.3-3.9q0.8 0.1 1.5 0.3zm-24.5-26.2c1.6-0.7 3.3-2.1 4.8-1.9c1.1 0.1 2 2.3 3.1 3.6c-1.5 1-2.9 2.7-4.5 2.9c-1.1 0-2.4-1.9-3.6-3q0.1-0.8 0.2-1.6zm33.4 532.5c-0.1 1.1-2.4 2-3.7 3c-1.1-1.7-2.6-3.2-3.1-5c-0.1-0.6 2.1-1.9 4.2-3.7c1.3 2.6 2.8 4.2 2.6 5.7zm-67.8-592.2c1.2 0.3 2.6 2.6 2.6 4c0.1 2.4-1.9 3.6-4.1 2.8c-1.4-0.5-2.3-2.2-4.5-4.3c2.8-1.3 4.6-2.8 6-2.5zm-82.1 568.5c-0.6-1.4-2-3.2-1.6-4.3c0.4-1.3 2.4-2.1 3.7-3.1c1 1.4 2.6 2.8 2.6 4.2c0 1.2-2 2.3-3.1 3.5q-0.8-0.1-1.6-0.3zm55.2-42.5c0.5-2.4 2.1-4.6 5-3.8c1.1 0.3 2.7 2.7 2.4 3.2c-0.9 1.5-2.6 2.7-4.5 4.6c-1.5-2-3.1-3.2-2.9-4zm-43.9-435.1c0-0.9 3.1-2.8 3.5-2.5c1.4 1.2 2.6 3 3.3 4.7c0.2 0.4-2.1 1.8-4.3 3.4c-1.2-2.5-2.6-4.1-2.5-5.6zm-39.8-436.1c1.4 1.1 2.9 2.9 2.9 4.4c0 1.1-2.6 3.1-3.6 2.9c-1.4-0.3-2.3-2.4-4.1-4.4c2.4-1.4 4.4-3.2 4.8-2.9zm206.7 239.1c0.5-0.1 2.4 2.9 2 3.4c-1 1.5-2.6 2.9-4.3 3.6c-0.5 0.2-2-2-3.9-4.1c2.7-1.4 4.4-2.6 6.2-2.9zm53.5 384.6c0.4 1.2 1.5 2.9 1.1 3.4c-1.3 1.7-3.1 2.8-4.8 4.1c-0.7-1.2-2.2-2.9-1.8-3.6c0.8-1.8 2.6-3 4-4.4q0.8 0.2 1.5 0.5zm-136.4 303.5c0.3-1.2 2.5-2.8 3.7-2.7c1.2 0.2 2.8 2.5 2.7 3.7c-0.1 1.3-1.9 2.5-3.9 4.6c-1.3-2.6-2.8-4.3-2.5-5.6zm-13.1-827.8c-0.5 1.4-2.6 2.2-4 3.3c-0.9-1.4-2.5-2.8-2.5-4.1c0.1-1.3 1.9-2.4 3.9-4.6c1.4 2.6 3 4.4 2.6 5.4zm168.8 553c0.5 1.1 1.5 2.4 1.4 3.4c-0.4 2.6-2.1 4.5-4.9 4.1c-0.8-0.1-2.2-2.7-1.9-3.4c0.8-1.7 2.6-3.1 3.9-4.6q0.8 0.3 1.5 0.5zm-98.4-143c0.4-0.1 2.4 2.8 2.1 3.2c-1.2 1.6-2.8 2.8-4.6 3.7c-0.3 0.2-1.8-1.9-3.5-3.7c2.6-1.5 4.2-2.6 6-3.2zm-57.7 164.1c1.2 0.3 2.8 2.6 2.6 3.7c-0.2 1.3-2.4 3-3.6 2.9c-1.3 0-2.4-2.1-4.4-4.1c2.5-1.3 4.2-2.8 5.4-2.5zm343.8 18.2c0.4-2.4 2.3-3.8 4.7-2.9c1.1 0.4 2.5 2.8 2.2 3.3c-0.8 1.5-2.6 2.6-4.9 4.8c-1.1-2.7-2.2-4-2-5.2zm-312.7-713.1c1 0.1 1.8 2.3 2.7 3.6c-1.5 0.9-2.9 2.4-4.4 2.6c-1 0.1-2.2-1.8-4.3-3.8c2.8-1.2 4.4-2.6 6-2.4zm59.4 465.6c0.5-1.4 2.4-2.2 3.8-3.3c1 1.4 2.8 2.7 2.8 4c0 1.2-2.1 2.3-4.1 4.3c-1.3-2.4-2.9-4.1-2.5-5zm-233.7-472.3c1.3 1.3 2.4 3.1 2.9 4.9c0.2 0.4-2.8 2.5-3.2 2.2c-1.5-1-2.5-2.7-4.5-5.1c2.4-1.1 4.4-2.4 4.8-2zm173.1 682.2c0.9 0.1 1.7 2.4 2.6 3.7c-1.4 1-2.8 2.5-4.4 2.7c-0.9 0.2-2.1-1.8-4.2-3.8c2.8-1.3 4.4-2.7 6-2.6zm-19.3-28.3c0.7-0.1 1.6 2.1 2.4 3.3c-1.6 1.1-3 2.5-4.8 3c-0.6 0.2-1.8-1.7-3.9-3.7c2.9-1.3 4.6-2.5 6.3-2.6zm51.5-663.5c-0.8 1.4-2.7 2.3-4.1 3.3c-0.9-1.2-2.5-2.6-2.4-3.7c0.3-1.4 2-2.5 3.9-4.6c1.3 2.4 3 4.3 2.6 5zm263.2-94.7c-1.8-0.8-2.9-2.9-4.4-4.5q0.6-0.7 1.1-1.4c3 0.9 6 1.9 9.1 2.8c-1.2 3.2-3.5 4.2-5.8 3.1zm-173.4 535.2c0.9 0 1.7 2.1 2.6 3.2c-1.4 1.1-2.7 2.7-4.3 3.1c-0.9 0.1-2.2-1.9-4.4-3.8c2.8-1.3 4.5-2.5 6.1-2.5zm-213.9 186.8c0.3-1 2.8-2.6 3.6-2.3c1.4 0.5 2.9 2.5 2.9 3.8c-0.1 1.2-2.2 2.2-4.3 4.2c-1.1-2.7-2.5-4.4-2.2-5.7zm-15.6-452.3c1.5-0.9 3.1-2.5 4.6-2.5c0.9 0 2.3 2.6 2.4 4c0.1 0.8-2.2 1.8-4.2 3.2c-1.2-2.1-2-3.4-2.8-4.7zm123.5 47.9c-0.6 1.2-2.6 2.4-4.1 2.4c-0.8 0.1-2.6-2.4-2.3-3.4c0.3-1.3 2.1-2.3 4.2-4.3c1.2 2.6 2.7 4.4 2.2 5.3zm-238.5-348.4c1.5 1.1 2.5 3 3.6 4.6c-1.2 0.7-2.8 2.4-3.5 2.1c-1.6-0.9-2.8-2.6-5.2-4.9c2.6-1 4.5-2.2 5.1-1.8zm241.8 846.1c1.2 0.2 2 2.3 3 3.7c-1.4 0.9-2.7 2.4-4.1 2.5c-1.1 0.1-2.2-1.8-4.3-3.6c2.6-1.4 4.2-2.9 5.4-2.6zm-152.6-275.2c0.5-1.3 3-2.8 4-2.4c1.4 0.6 2.1 2.7 3.2 4.2c-1.3 0.8-2.6 1.6-4.7 2.9c-1.2-2.1-2.9-3.9-2.5-4.7zm19.2 324c0.7 1.6 2 3.3 1.8 4.9c-0.1 1-2.2 1.8-3.5 2.8c-0.8-1.6-2.1-3.2-2.3-4.8c-0.1-0.9 1.6-2.1 2.5-3.1q0.8 0.1 1.5 0.2zm175 133.5c0.5 1.3 1.8 3.2 1.4 3.8c-1.1 1.5-3 2.4-4.5 3.6c-0.7-1.1-2.2-2.5-1.9-3.2c0.7-1.7 2.2-3 3.5-4.5q0.7 0.2 1.5 0.3zm-284.2 24.1c1.4-0.4 3.1-1.4 3.9-1c1.5 0.9 2.3 2.7 3.4 4.1c-1.1 0.7-2.5 2.3-3.2 2c-1.7-0.7-3-2.2-4.5-3.4q0.2-0.8 0.4-1.7zm-26.7-106.3c1.3 1.4 2.4 3.1 3.1 4.9c0.1 0.3-2.7 2.4-3.3 2.1c-1.4-0.8-2.4-2.5-4.3-4.6c2.2-1.2 4.3-2.7 4.5-2.4zm145.1-773.9c1.5 0.9 2.4 2.7 3.6 4.1c-1.2 0.9-2.6 2.7-3.4 2.4c-1.5-0.5-2.7-2.1-5.1-4.1c2.5-1.3 4.3-2.7 4.9-2.4zm90.5 317.5c1.3 0.8 2 2.8 3 4.2c-1.3 0.8-2.8 2.3-3.9 2.1c-1.3-0.2-2.3-2.1-4.3-4.1c2.5-1.1 4.4-2.6 5.2-2.2zm603.9-154.2q-0.8 0.4-1.6 0.9c-1.3-1.4-3.2-2.5-3.7-4.1c-0.8-2.7 0.7-4.8 4-6.1c0.5 3.3 0.9 6.3 1.3 9.3zm-374.2 375.3c1.7-0.7 3.4-1.9 5-1.9c0.8 0 1.5 2.4 2.3 3.8c-1.5 0.8-2.9 2.1-4.4 2.2c-1 0.1-2-1.6-3.1-2.5q0.1-0.8 0.2-1.6zm-296.6-680.7c0.8-1.4 2.5-2.2 3.9-3.2c1 1.4 2.8 2.8 2.7 4c-0.1 1.1-2.4 2.1-4.5 3.8c-1.1-2.3-2.5-4-2.1-4.6zm30.7 652.5c1.5 0.8 2.4 2.6 3.6 4c-1.1 0.9-2.5 2.6-3.3 2.4c-1.6-0.6-2.8-2.1-5.3-4.1c2.6-1.2 4.3-2.6 5-2.3zm-26.1 145.4c0.8 0 2.3 3.1 2 3.4c-1.1 1.3-2.8 2.4-4.5 2.8c-0.6 0.1-1.8-2-3.6-4.1c2.9-1.1 4.5-2.2 6.1-2.1zm117.7-249.6c0.7-1.2 2.6-1.9 4-2.8c0.9 1.3 2.6 2.8 2.4 4.1c-0.1 1.1-2.2 2-4.4 3.8c-1.1-2.5-2.4-4.2-2-5.1zm-147.6-530.9c1.3 0.6 2 2.6 3 3.9c-1.3 0.8-2.7 2.3-4 2.2c-1.2-0.1-2.2-1.9-4.2-3.9c2.5-1.1 4.3-2.6 5.2-2.2zm188 1013.9c-0.9 1.3-2.8 2-4.3 3c-0.7-1.3-2.2-2.9-1.9-3.6c0.8-1.5 2.5-2.6 4.7-4.6c0.8 2.6 2 4.4 1.5 5.2zm-168.4-184.8c1.3 1.2 2.3 2.9 2.8 4.6c0.1 0.4-2.6 2.4-3.3 2.1c-1.3-0.7-2.2-2.4-3.9-4.4c2.1-1.1 4.1-2.6 4.4-2.3zm-5.4 51.6c-0.1 1-2.3 1.8-3.5 2.7c-0.9-1.5-2.3-2.8-2.6-4.4c-0.1-0.8 1.7-1.9 3.5-3.8c1.3 2.6 2.7 4.1 2.6 5.5zm23.7-399.3c0.3 1.2 1.2 2.8 0.7 3.6c-0.9 1.3-2.6 2.1-3.9 3.1c-0.7-1.2-2.3-2.9-2-3.5c0.8-1.5 2.5-2.5 3.8-3.7q0.7 0.2 1.4 0.5zm10.7 328.1c0.9 0 2.5 2.5 2.3 3.6c-0.2 1.2-2.2 2.7-3.5 2.8c-1 0-2.1-1.8-4.1-3.7c2.5-1.3 4-2.8 5.3-2.7zm-16.6-577.5c1.2 0.4 1.8 2.3 2.7 3.6c-1.4 0.9-2.7 2.4-4.1 2.4c-0.9 0.1-1.9-2-3.7-4c2.4-1 4.1-2.4 5.1-2zm-83.3 561.4c0-0.7 2.6-2.4 3-2.1c1.4 1.1 2.6 2.6 3.4 4.2c0.1 0.4-1.8 1.7-3.8 3.7c-1.3-2.8-2.4-4.3-2.6-5.8zm142.8-477.5c0.5 1.4 1.8 3.1 1.4 4.1c-0.6 1.3-2.5 2-3.8 3c-0.7-1.4-2-2.8-1.9-4.1c0.1-1.2 1.8-2.2 2.8-3.3q0.8 0.1 1.5 0.3zm-122.7 506.1c0.4-1.1 2.3-1.8 3.5-2.7c0.8 1.4 2.3 2.8 2.3 4.1c-0.1 1.1-2 2.1-4.1 4.1c-0.9-2.6-2.1-4.3-1.7-5.5zm604.3-281c-1.2-1.7-3.1-3.3-3.4-5.2c-0.5-2.8 1.8-4 5-4.3c-0.1 2.9-0.1 5.7-0.2 8.5q-0.7 0.5-1.4 1zm-609.2 207c-1.4 0.6-3 2-4.2 1.7c-1.2-0.4-2-2.3-2.9-3.6c1.2-0.9 2.4-1.8 4.5-3.4c1.2 2.4 1.9 3.8 2.6 5.3zm54 210.2c1-1.4 2.5-2.7 4.1-3.2c0.6-0.2 2.8 2.4 2.6 3.3c-0.2 1.3-2.1 2.3-4 4.1c-1.3-2-3-3.8-2.7-4.2zm-60.7-591.5c1.2 0.4 1.9 2.3 2.8 3.6c-1.3 0.9-2.6 2.5-4 2.6c-1 0-2-2.1-3.8-4.1c2.4-1.1 4-2.5 5-2.1zm-28.9 397.5c1.3-0.6 3.1-2.1 3.8-1.7c1.4 0.8 2.3 2.6 3.3 4c-1.1 0.8-2.2 1.6-4.2 3.1c-1.2-2.4-2.1-3.9-2.9-5.4zm156.4-395.6c0 0.8-2.6 2.5-3.2 2.1c-1.3-0.7-2.8-2.3-3-3.7c-0.1-0.9 2-2.1 3.9-4c1.2 2.6 2.4 4.1 2.3 5.6zm-251.1 504.3c-0.1-0.3 2.6-2.1 2.9-1.9c1.4 1.3 2.5 2.9 3.8 4.5c-1.1 0.7-2.1 1.5-4 3c-1.2-2.3-2.3-3.9-2.7-5.6zm199.6-265.4c1.3-0.5 3.2-1.7 3.7-1.2c1.3 1.1 2.1 2.9 2.6 4.5c0.1 0.3-2.5 2.1-3 1.8c-1.5-0.8-2.5-2.4-3.8-3.6q0.3-0.8 0.5-1.5zm-94.1 410.6c-1.4 0.6-3 2.1-4.1 1.8c-1.3-0.5-2.1-2.3-3.2-3.6c1.1-0.8 2.1-1.6 3.9-3c1.5 2.1 2.4 3.4 3.4 4.8zm123.2-127.4c-1.3 0.8-3 2.4-4 2.1c-1.3-0.4-2.1-2.4-3.1-3.7c1.2-0.8 2.5-1.6 4.5-2.9c1.1 2 1.9 3.3 2.6 4.5zm-48.8-562.7c1.3 0.9 2.1 2.7 3 4.1c-1.3 0.8-2.8 2.6-3.8 2.3c-1.3-0.4-2.1-2.4-4-4.6c2.4-0.9 4.2-2.2 4.8-1.8zm-103.6 708.9c0.1 0.7-2.5 2.4-3.1 2.1c-1.3-0.7-2.6-2.2-2.9-3.6c-0.1-0.8 1.7-2 3.4-3.9c1.3 2.5 2.6 3.9 2.6 5.4zm161.1-495.3c0.8-1.3 2.6-2 4-3c0.8 1.2 2.5 2.7 2.2 3.5c-0.5 1.4-2.2 2.4-4.3 4.4c-1-2.5-2.3-4.2-1.9-4.9zm-59.9-465.4c0.8 0 1.6 1.9 2.5 3c-1.5 1-2.9 2.4-4.6 2.9c-0.4 0.2-1.6-1.7-3.3-3.5c2.4-1.2 3.9-2.4 5.4-2.4zm-4.9 678.9c0.7-1.4 2.5-2.2 3.8-3.2c0.9 1.2 2.5 2.5 2.3 3.5c-0.3 1.3-2 2.4-4.1 4.6c-1.1-2.5-2.4-4.2-2-4.9zm40.9-70.9c1.2 0.3 2 2.1 3 3.3c-1.3 0.9-2.6 2.3-4.1 2.5c-0.9 0.1-2-1.6-3.9-3.3c2.4-1.3 3.9-2.8 5-2.5zm-82.7 309.8c0.9 0.1 1.7 2.3 2.6 3.5c-1.5 0.9-2.8 2.1-4.4 2.3c-0.7 0.1-1.7-1.5-3.5-3.1c2.4-1.3 3.9-2.8 5.3-2.7zm148.1-644.7c-0.3 1.2-2.1 2-3.3 3c-0.9-1.3-2.5-2.5-2.4-3.7c0-1.2 1.6-2.3 3.5-4.6c1.2 2.7 2.5 4.2 2.2 5.3zm-111.3 582.3c-1.1-0.1-1.9-1.9-2.9-3c1.3-1 2.6-2.7 3.9-2.8c1-0.1 2.2 1.8 4.4 3.8c-2.6 1.1-4.1 2.2-5.4 2zm-103.7-97.8c-0.3 1.1-2.5 2.2-3.8 2.2c-0.8 0-2.4-2.2-2.2-3.3c0.2-1.2 1.8-2.2 3.7-4.3c1.2 2.7 2.7 4.3 2.3 5.4zm108.3-879.7c1-1.3 2.7-2.1 4.2-3.1c0.7 1.2 2.4 2.8 2 3.5c-0.6 1.3-2.3 2.2-4.4 3.9c-0.9-2.1-2.2-3.9-1.8-4.3zm-22.9 21.7c-0.1 0.8-2.8 2.3-3.6 1.9c-1.1-0.7-2.2-2.5-2.3-3.9c0-0.9 1.8-1.9 3.7-3.7c1.1 2.7 2.3 4.2 2.2 5.7zm60.9 456.9c0.7 0 2.3 2.6 1.9 3.4c-0.4 1.3-2.1 2.6-3.4 2.7c-0.9 0.1-2-1.7-3.9-3.5c2.5-1.3 3.9-2.5 5.4-2.6zm-49.9-133.6c1.3 0.7 2.1 2.5 3 3.8c-1.2 0.7-2.5 2.2-3.6 2c-1.2-0.2-2.2-1.8-4.1-3.7c2.3-1.1 4-2.5 4.7-2.1zm-5.4-245.1c-0.3-1.2-1.3-2.9-0.9-3.5c1.1-1.3 2.8-2.1 4.3-3.1c0.6 1 1.8 2.4 1.5 3c-0.7 1.5-2.2 2.7-3.3 4q-0.8-0.2-1.6-0.4zm-25.1 814.4c0.7 0 1.5 2 2.3 3c-1.3 1-2.6 2.3-4.1 2.7c-0.6 0.2-1.8-1.5-3.6-3.1c2.5-1.3 3.9-2.5 5.4-2.6zm-82.8-232.4c-0.7-1.6-1.7-3.2-1.8-4.9c-0.1-0.8 1.8-1.7 2.8-2.5c0.9 1.5 2.2 2.9 2.5 4.5c0.2 0.8-1.2 2-2 3q-0.7 0-1.5-0.1zm258.2 365.3c0.6 0 2.3 2.7 2.1 2.9c-1.2 1.3-2.7 2.5-4.3 3c-0.6 0.2-1.7-1.6-3.7-3.3c2.7-1.3 4.3-2.3 5.9-2.6zm-92.4-864.9c0.7-1.1 2.5-2.1 3.9-2.1c0.7 0 2.3 2.5 2 3.3c-0.5 1.2-2.3 2-4.4 3.6c-0.8-2.3-2-4.1-1.5-4.8zm-32.4 443.7c0.2-1 2.1-1.7 3.3-2.5c0.8 1.4 2.3 2.7 2.3 4c0 1-1.8 2-3.7 3.8c-1-2.5-2.2-4.1-1.9-5.3zm-31.2 316.9c1.1 0.3 1.8 2.2 2.6 3.5c-1.3 0.8-2.6 2.2-3.9 2.3c-0.9 0.1-2-1.7-3.7-3.5c2.3-1.2 3.9-2.6 5-2.3zm132.7-300.5c0.4 1.1 1.4 2.8 1 3.4c-1 1.3-2.6 2.1-4 3.1c-0.8-1.1-2.3-2.6-2-3.2c0.8-1.5 2.3-2.5 3.6-3.8q0.7 0.2 1.4 0.5zm-53.2-260.3c1.1 0.5 1.7 2.3 2.6 3.6c-1.3 0.8-2.7 2.2-4 2.1c-0.9 0-1.8-1.9-3.4-3.8c2.2-1 3.9-2.3 4.8-1.9zm117.3 426.3c1-1.2 2.7-2.1 4.2-2.3c0.5-0.1 2.3 2.3 2 2.8c-0.7 1.4-2.2 2.3-4.3 4.3c-1-2.5-2.3-4.3-1.9-4.8zm-129.8-374.8c0.7-1.1 2.5-2.3 3.8-2.3c0.8 0 2.4 2.4 2.2 3.3c-0.3 1.2-2.1 2.1-4.2 3.8c-0.9-2.3-2.2-4-1.8-4.8zm-111.4-49.4c1.1 0.6 2.1 2.5 2.1 3.8c-0.1 0.8-2.6 2.4-3.3 2c-1.2-0.5-2-2.2-3.6-4.3c2.3-0.8 4-2 4.8-1.5zm131.5-175.8c0.5 0 2 2.8 1.7 3.2c-1 1.3-2.6 2.3-4.1 2.7c-0.5 0.1-1.5-1.8-3.1-3.7c2.5-1 4-2 5.5-2.2zm-143.3 898.8c1.1 0.2 2.7 2.7 2.4 3.5c-0.5 1.2-2.3 2.3-3.8 2.7c-0.6 0.2-1.7-1.8-3.3-3.5c2.2-1.4 3.7-3 4.7-2.7zm-96.7-18.1c1.2 0.6 1.9 2.4 2.9 3.6c-1.2 0.8-2.5 2.3-3.7 2.2c-1.1-0.1-2.1-1.8-4-3.5c2.3-1.2 3.9-2.6 4.8-2.3zm300.2-667.6c1.1 0.2 1.9 1.9 2.8 3c-1.4 0.9-2.7 2.4-4.2 2.6c-0.8 0.2-2-1.7-3.9-3.5c2.5-1.1 4-2.3 5.3-2.1zm-97.4-267.3c-0.5 1.2-2.2 2.4-3.6 2.6c-0.6 0.2-2.5-2-2.4-2.9c0.2-1.3 1.8-2.4 3.5-4.3c1.3 2.2 2.8 3.8 2.5 4.6zm-319.3 889.1c1.3 1.1 2.3 2.6 2.9 4.1c0.1 0.4-2.2 2.4-2.7 2.2c-1.4-0.7-2.4-2.2-4.3-4.1c2.1-1.1 3.8-2.5 4.1-2.2zm241.3-503.2c1.2-0.7 2.8-2.3 3.6-2c1.2 0.6 2.2 2.2 2.6 3.7c0.2 0.5-1.7 1.6-3.4 3.1c-1.2-2.2-2-3.5-2.8-4.8zm133.7 372.9c0.4-0.1 1.4 2 2.2 3.1c-1.5 1-3 2.1-4.6 2.8c-0.3 0.1-1.4-1.6-2.7-3.1c2.1-1.2 3.5-2.4 5.1-2.8zm-142.6-23.8c-1.1 1.2-2.7 1.9-4.3 2.4c-0.3 0.1-1.9-2.2-1.6-2.7c0.8-1.4 2.2-2.4 4.2-4.2c0.9 2.2 2.1 4.1 1.7 4.5zm58.8-467.6c1.1 0.2 1.8 2 2.7 3.1c-1.3 0.8-2.5 2.1-3.9 2.4c-0.7 0.1-1.8-1.6-3.5-3.2c2.2-1.2 3.6-2.5 4.7-2.3zm-15.8 222.9c0.9 0 1.6 2.1 2.5 3.3c-1.3 0.8-2.6 2-4 2.2c-0.8 0.1-1.9-1.4-3.7-3c2.4-1.3 3.9-2.6 5.2-2.5zm-120.6 376.7c1.2 0.7 2.2 2.2 2.5 3.6c0.2 0.5-2.3 2.4-2.9 2.1c-1.3-0.6-2.2-2.2-3.9-4.2c2.1-0.8 3.7-1.9 4.3-1.5zm45-241.5c1.2 0.6 2 2.2 3 3.5c-1.1 0.7-2.4 2.2-3.2 2c-1.4-0.4-2.4-2-4.5-3.9c2.4-0.9 3.9-2 4.7-1.6zm-64.6 212.5c1.1 1 2 2.6 2.2 4.1c0 0.6-2.5 2.3-3 2c-1.2-0.8-2-2.4-3.5-4.4c2.1-0.8 3.9-2 4.3-1.7zm220.2-530.4c1.4-0.6 2.8-2 4.1-1.8c1 0.1 1.8 2 2.7 3.1c-1.2 0.8-2.3 2.2-3.5 2.2c-1.1 0.1-2.2-1.3-3.4-2q0.1-0.7 0.1-1.5zm-109 201.4c0.8 0.1 2.3 2.6 2 3c-0.8 1.2-2.3 2.3-3.7 2.6c-0.5 0.1-1.6-1.8-3-3.6c2.1-1 3.5-2.1 4.7-2zm107.2 226.8c-0.5 0.1-2.1-2.3-1.9-2.4c1.1-1.3 2.4-2.5 3.9-3.2c0.4-0.2 1.6 1.5 3.2 3c-2.3 1.2-3.7 2.2-5.2 2.6zm-80.7-619.3c-0.3 1-2.3 2.3-3.3 2.1c-1-0.2-2.5-2.2-2.4-3.2c0.2-1 1.9-1.9 3.7-3.5c1 2.1 2.4 3.6 2 4.6zm-71.7 634.2c0.7 0.1 2.2 2.4 1.9 3c-0.7 1.3-2.1 2.6-3.5 2.8c-0.6 0.2-1.8-1.7-3.5-3.6c2.4-1.1 3.7-2.2 5.1-2.2zm38.9 57.4c1.2 0.6 1.7 2.4 2.5 3.8c-1.2 0.7-2.5 2-3.7 1.9c-1-0.1-1.8-1.8-3.5-3.6c2.3-1.1 4-2.5 4.7-2.1zm-123.7 1.2c0.4 1.3 1.5 2.9 1.1 3.9c-0.4 1.1-2.1 1.7-3.3 2.5c-0.7-1.2-1.9-2.5-1.8-3.6c0.1-1.1 1.7-2 2.6-3.1q0.7 0.2 1.4 0.3zm188.2-762.2c1.3-0.4 2.9-1.5 3.8-1.1c1.1 0.5 1.7 2.2 2.5 3.4c-1.2 0.7-2.5 2-3.7 1.9c-1-0.1-1.9-1.7-2.9-2.7q0.2-0.7 0.3-1.5zm-114.6-173.8c1.3 1 2.2 2.5 3.2 3.9c-1.1 0.6-2.5 2.1-3.2 1.8c-1.3-0.5-2.3-2-4-3.7c2-1 3.5-2.3 4-2zm459.1 990.5c1.2-1.3 2.3-3.2 3.9-3.8c1.3-0.6 3.2 0.4 4.9 0.7q0 0.7-0.1 1.3q-3.8 1.6-7.7 3.2q-0.5-0.7-1-1.4zm-329-615.2c1.2 0.4 1.9 2.2 2.8 3.4c-1.2 0.8-2.3 2.2-3.5 2.1c-1.1 0-2.1-1.5-4.1-3.2c2.4-1.2 3.9-2.7 4.8-2.3zm-28.7 272.6c0.6-1.1 2.2-2.4 3.4-2.4c0.9 0.1 2.4 2.2 2.3 3.2c-0.1 1-1.9 1.9-3.8 3.5c-1-2.1-2.2-3.6-1.9-4.3zm-9.4 47.5c0.4-1.1 2.2-1.6 3.3-2.4c0.8 1.2 2.1 2.5 2 3.7c-0.1 1-1.8 1.9-3.8 3.8c-0.9-2.6-1.9-4.2-1.5-5.1zm-67.6-290.8c0.5 1.4 1.4 2.8 1.1 4.1c-0.1 1-1.6 1.8-2.6 2.7c-0.7-1.1-2.2-2.3-2.2-3.5c0.1-1.2 1.5-2.4 2.3-3.5q0.7 0.1 1.4 0.2zm-115.1 631.7c-0.7 1.2-2.3 1.9-3.6 2.8c-0.6-1.1-2-2.3-1.8-3.3c0.2-1.1 1.7-2.1 3.4-3.9c1 2.2 2.3 3.8 2 4.4zm99.7-30.7c1.2-0.4 2.6-1.4 3.6-1.1c1.2 0.4 2 1.9 2.9 2.9c-1.1 0.7-2.3 2.1-3.3 1.9c-1.2-0.1-2.3-1.5-3.4-2.4q0.1-0.6 0.2-1.3zm-121.1-124.7c0.5 0.6 0.2 2.9-0.3 3.2c-2.9 1.3-4.7-0.1-5.7-3.1c2-1.9 4.1-2.6 6-0.1zm143 24.9c0.5 1.3 1.6 2.8 1.3 3.9c-0.4 1.1-2.1 1.7-3.3 2.6c-0.6-1.1-1.8-2.3-1.7-3.3c0.2-1.2 1.4-2.3 2.2-3.4q0.8 0.1 1.5 0.2zm157.6-313.7c-0.5 0-1.7-2.7-1.5-2.9c1.1-1.1 2.6-1.9 4-2.2c0.5-0.1 1.4 1.7 2.7 3.5c-2.2 0.8-3.7 1.6-5.2 1.6zm49.6-243.9c-0.7 1.1-2.2 2.1-3.5 2.3c-0.6 0.1-2.3-2-2.2-2.7c0.4-1.2 1.9-2 3.6-3.8c1.1 2.1 2.4 3.6 2.1 4.2zm-304.6-133.5c-0.1-0.3 2.5-1.7 2.7-1.5c1.2 1 2.2 2.4 2.6 3.8c0.2 0.6-1.4 1.6-2.9 3.3c-1.2-2.5-2-4-2.4-5.6zm83.6-183.2c0.1-0.9 2.4-2.4 2.9-2.2c1.1 0.6 2.3 2.1 2.5 3.3c0.2 0.8-1.5 1.8-3.2 3.6c-1.1-2.2-2.3-3.5-2.2-4.7zm-176.7 42.2c0.1 0.2-2.3 1.6-2.5 1.4c-1.2-1.2-2.2-2.6-2.9-4.1c-0.1-0.3 1.5-1.3 3-2.7c1.1 2.3 1.9 3.8 2.4 5.4zm228.2-36c0.5 1.1 1.8 2.6 1.4 3.2c-0.7 1.1-2.1 2.1-3.5 2.5c-0.4 0.1-1.5-1.6-2.9-3.2c2.2-1.1 3.6-1.8 5-2.5zm-6.4 298.8c0.9 0.3 2.2 2.5 1.9 3.3c-0.4 1-2.2 2.1-3.4 2.1c-0.8 0-1.7-1.7-3.2-3.4c2.2-1 3.7-2.3 4.7-2zm71.2 542.8c0.4-1 2.1-2.1 3.1-2c1 0.1 2.7 2.1 2.5 2.5c-0.5 1.2-1.9 2.1-3.6 3.8c-1-2.1-2.3-3.4-2-4.3zm-63.9-716.5c0.6 1.2 2 2.6 1.7 3.4c-0.4 1.2-2 2.3-3.2 2.5c-0.6 0.1-1.6-1.7-3.1-3.4c2.1-1.1 3.4-1.8 4.6-2.5zm12.2 202.7c1 0.2 1.6 1.9 2.4 3c-1.2 0.8-2.3 2.1-3.5 2.2c-0.9 0.1-1.9-1.5-3.7-3.2c2.4-1 3.7-2.2 4.8-2zm604.9 266.3c-1.6 1.3-3 3.1-4.8 3.7c-1.1 0.4-2.9-1.1-4.3-1.7q0.2-0.6 0.3-1.1q4-1.1 8-2.2q0.4 0.7 0.8 1.3zm-750.3 382.3c0.9 0.1 1.5 1.9 2.2 3c-1.2 0.8-2.4 2.1-3.7 2.2c-0.8 0-1.7-1.7-3.3-3.4c2.2-0.9 3.6-2 4.8-1.8zm72.2-386.7c1 0.3 1.5 2.2 2.3 3.3c-1.2 0.8-2.4 2-3.7 2.1c-0.8 0-1.7-1.6-3.4-3.3c2.3-1.1 3.7-2.3 4.8-2.1zm-45.6 241.9c1 0.4 1.5 2.3 2.2 3.5c-1.1 0.6-2.3 1.8-3.4 1.8c-0.9-0.1-1.8-1.5-3.6-3.1c2.4-1.1 3.9-2.5 4.8-2.2zm-145.3-828c1.2 1.2 2 2.7 3 4.2c-0.9 0.5-2.2 1.6-2.6 1.3c-1.4-0.9-2.4-2.3-4.2-4.2c2-0.7 3.5-1.6 3.8-1.3zm161.7 858.7c0.4-1.2 2-1.9 3.2-2.7c0.6 1 2 2.3 1.8 3.2c-0.2 1.2-1.6 2.2-3.4 4.3c-0.9-2.5-2-3.9-1.6-4.8zm41.7-745.5c0.8 0 1.5 1.9 2.2 3c-1.2 0.8-2.3 1.9-3.6 2.2c-0.7 0.1-1.6-1.4-3.2-2.9c2.1-1.2 3.4-2.4 4.6-2.3zm-104.5 831c0.8 0.1 2.3 2.4 2 2.9c-0.6 1.1-2.1 2.2-3.4 2.4c-0.8 0.1-1.8-1.5-3.4-3.1c2.2-1.2 3.6-2.3 4.8-2.2zm158.8-321.1c0.7 1.2 1.9 2.5 1.8 3.7c-0.1 0.8-2.1 2.1-3 2c-1-0.2-1.7-1.9-3-3.5c1.9-1 3.1-1.6 4.2-2.2zm51.4 12.7c-0.7 1.1-2.3 2-3.6 2.2c-0.5 0.1-2.1-2-1.9-2.7c0.4-1.2 1.8-2.1 3.5-3.9c1.1 2.2 2.4 3.8 2 4.4zm-40.5-482.9c0.7-1.2 2.2-1.8 3.4-2.6c0.5 1.2 1.6 2.5 1.4 3.5c-0.2 1-1.7 1.7-3.5 3.2c-0.7-2.1-1.6-3.5-1.3-4.1zm-238.2 753c1.1 0.5 1.7 2.1 2.5 3.3c-1.2 0.7-2.4 2-3.6 2c-0.8 0-1.7-1.7-3.2-3.4c2.1-1 3.6-2.3 4.3-1.9zm163-869.7c1.1 0.6 1.6 2.3 2.4 3.5c-1.1 0.7-2.3 1.9-3.3 1.8c-1-0.2-1.8-1.7-3.4-3.4c2.1-0.9 3.6-2.2 4.3-1.9zm78.3 667.9c-1 1.1-2.5 1.8-4 2.3c-0.2 0.1-1.8-2.2-1.6-2.6c0.8-1.3 2.2-2.1 4.1-3.8c0.7 2.1 1.8 3.7 1.5 4.1zm-120.6 76.9c0.3-0.9 1.9-1.5 3-2.3c0.7 1.2 2.1 2.3 2.1 3.5c0 0.8-1.8 1.7-3.5 3.2c-0.8-2.1-1.9-3.4-1.6-4.4zm70.1-212.2c-0.6 1.1-2.2 1.7-3.4 2.5c-0.7-1.2-1.9-2.3-1.8-3.4c0.1-1 1.6-1.8 3.3-3.5c1 2.2 2.2 3.7 1.9 4.4zm-217.2 481.8c1.2 0.7 1.8 2.2 2.6 3.4c-0.9 0.6-2.2 2-2.9 1.8c-1.2-0.5-2.1-1.8-3.9-3.5c2.2-0.9 3.6-2 4.2-1.7zm153.6-19.6c0.9 0.1 1.6 1.6 2.5 2.5c-1.4 0.8-2.6 2-4 2.3c-0.7 0.1-1.7-1.5-3.4-3.1c2.3-0.8 3.7-1.8 4.9-1.7zm27.4-267.8c-0.4 1-2.1 1.8-3.3 1.8c-0.7 0-2.1-2.1-1.9-2.7c0.5-1.2 1.9-2 3.7-3.8c0.9 2.4 1.9 3.9 1.5 4.7zm106.3-583.2c1 0.4 2.2 2.3 1.9 3.1c-0.2 1-2 2.1-3 2c-1-0.1-1.7-1.7-3.3-3.4c2.2-0.9 3.6-2 4.4-1.7zm-109.7 453.7c0.4 1.3 1.2 2.7 1 4c-0.1 0.9-1.6 1.6-2.5 2.3c-0.7-1.1-1.9-2.2-1.9-3.3c0-1.1 1.3-2.1 2-3.2q0.7 0.1 1.4 0.2zm121.5-252c0.5-0.1 1.9 2.2 1.6 2.7c-0.5 1.2-1.9 2.2-3.1 2.6c-0.4 0.1-1.5-1.7-2.8-3.2c1.8-1 3-2 4.3-2.1zm-254.3 681.3c1.1-0.5 2.3-1.6 3.2-1.4c1.1 0.4 1.9 1.8 2.8 2.7c-0.9 0.9-1.8 1.7-3.5 3.3c-1.2-2.1-1.8-3.3-2.5-4.6zm295-497.9c1 0.4 1.9 2.2 1.8 3.2c-0.1 0.9-1.9 2.2-2.8 2c-1-0.1-1.7-1.7-3.2-3.4c2-0.9 3.5-2.1 4.2-1.8zm-159.2 320.2c0.4-0.1 1.7 2.2 1.5 3c-0.3 1.1-1.8 2.4-2.8 2.5c-0.9 0-1.8-1.6-3.5-3.3c2.2-1.1 3.5-2.1 4.8-2.2zm-211.9 61.8c1.3 1 2.2 2.5 3.2 3.9c-1.1 0.4-2.5 1.4-3.2 1c-1.3-0.5-2.2-2-4.1-3.9c2.2-0.6 3.6-1.4 4.1-1zm391.4-352.5c1 0.3 1.6 1.9 2.4 2.9c-1.1 0.6-2.3 1.8-3.4 1.7c-1-0.1-1.9-1.5-3.7-3.2c2.3-0.8 3.7-1.7 4.7-1.4zm-133.1 431c0.1-2-0.1-4.1 0.5-5.9c0.1-0.5 2.5-0.3 4.4-0.5c-1.4 3-2.2 4.8-3.1 6.7q-0.9-0.2-1.8-0.3zm-90.9-21.2c-0.6 1.1-2.3 1.9-3.6 2.1c-0.5 0.1-2.1-1.9-1.9-2.6c0.4-1.2 1.8-2.1 3.5-4c1 2.3 2.3 3.9 2 4.5zm12.9-97c0.2-1 1.9-1.7 3-2.5c0.7 1.3 1.8 2.5 2 3.9c0 0.7-1.7 1.5-3.2 2.9c-0.9-1.9-2.1-3.3-1.8-4.3zm96.9-357c-0.2 1-1.9 1.6-2.9 2.3c-0.8-1.1-2-2.1-2.3-3.4c-0.1-0.5 1.6-1.5 3.1-2.8c1 1.7 2.4 3 2.1 3.9zm-30.7-531c0.3-0.9 2.1-1.5 3.2-2.2c0.7 1.1 1.8 2.2 1.9 3.4c0.1 0.8-1.6 1.6-3.1 3c-1-1.9-2.3-3.3-2-4.2zm31.4 230.6c0.1-0.7 2.1-1.8 2.8-1.6c1.1 0.4 1.7 1.9 2.6 2.9c-1 0.8-2 1.6-3.8 3c-0.8-2-1.8-3.2-1.6-4.3zm-51.2 287.1c0.9 0.3 2 2.2 1.8 3.1c-0.3 1-2.1 2.1-3.1 2.1c-0.9-0.1-1.7-1.8-3.2-3.5c2.1-0.9 3.5-2 4.5-1.7zm25.2-392.1c-0.3 1-1.9 1.6-3 2.3c-0.7-0.9-2-2-1.8-2.8c0.3-1.2 1.6-2.2 3.2-4.3c0.9 2.4 1.9 3.8 1.6 4.8zm-242.9 878.8c0.2-0.8 1.8-1.3 2.8-2c0.6 1.3 1.7 2.5 1.8 3.8c0 0.8-1.5 1.6-3.2 3.4c-0.8-2.5-1.6-3.9-1.4-5.2zm118.5 46.3c0.6 0 1.9 2.2 1.6 2.8c-0.6 1-2 1.9-3.1 2c-0.8 0-1.6-1.4-3.3-3c2.3-0.9 3.6-1.8 4.8-1.8zm-228.2-264.9c-0.1-0.6 1.4-1.4 2.2-2c0.9 1.2 2 2.3 2.5 3.6c0.2 0.5-1.2 1.5-2.6 3.2c-1-2.2-1.9-3.5-2.1-4.8zm197.5 158.5c0.9 0.4 1.8 2.1 1.7 3.2c0 0.8-1.8 2.3-2.5 2.1c-1.1-0.3-1.9-1.7-3.5-3.4c2-1 3.5-2.3 4.3-1.9zm116.7-876.2c-0.9 1-2.3 1.8-3.7 2.1c-0.4 0.1-1.9-1.9-1.7-2.3c0.5-1.2 1.8-2.1 3.4-3.7c1 2 2.3 3.7 2 3.9zm58.9 85.6c-0.5 1.1-2 1.6-3.1 2.3c-0.7-1-2.1-2.2-1.8-3c0.3-1.1 1.8-1.8 3.4-3.3c0.8 1.9 1.9 3.3 1.5 4zm-21.3 770.1c0.5-0.1 1.9 2.2 1.7 2.3c-0.9 1.1-2.1 2-3.3 2.5c-0.5 0.2-1.5-1.2-3.1-2.6c2.1-1.1 3.3-2 4.7-2.2zm10-723.4c1 0.4 1.7 1.8 2.5 2.8c-1 0.6-2.1 1.9-3 1.7c-1.1-0.1-1.9-1.5-3.7-3c2.1-0.8 3.4-1.8 4.2-1.5zm21.7 153.5c0.9 0.2 1.5 1.8 2.2 2.8c-1.1 0.7-2.2 1.9-3.4 2c-0.7 0-1.6-1.5-3.1-3.1c2-0.9 3.3-1.9 4.3-1.7zm-47.6-431.3c0.4-1.1 1.8-2.1 3-2.3c0.5-0.1 2.1 1.8 2 2.6c-0.2 1-1.6 1.9-3 3.6c-1.1-1.9-2.3-3.3-2-3.9zm-5 847.7c0.8 0.2 1.3 1.7 2 2.6c-1.1 0.6-2.3 1.7-3.5 1.7c-0.8 0.1-1.6-1.4-3.3-3.1c2.3-0.7 3.7-1.5 4.8-1.2zm27.6-821.1c0.8 0.1 1.5 1.7 2.3 2.6c-1.1 0.8-2.1 2-3.2 2.2c-0.7 0.1-1.7-1.4-3.4-2.8c2-1 3.2-2.1 4.3-2zm-57.9 713.4c1 0.5 1.8 1.9 2.1 3.1c0.1 0.5-1.9 2.1-2.3 1.9c-1.2-0.5-2.1-1.7-3.9-3.4c2.1-0.9 3.5-2 4.1-1.6zm-87.5 187.4c0.2-0.7 2.2-1.9 2.9-1.6c1 0.4 2 1.8 2.3 3c0.1 0.5-1.7 1.4-3.3 2.7c-0.9-1.8-2-3-1.9-4.1zm833.8-447.6c0.5 2.3 1 4.6 1.7 8.2c-2.1-1.3-4.1-1.8-4.2-2.5c-0.1-1.9 0.6-3.9 0.9-5.8q0.8 0 1.6 0.1zm-744.2-288.3c0.9 0.3 1.6 1.7 2.4 2.6c-1 0.8-2 2.2-2.8 2.1c-1-0.1-2-1.5-3.8-3c2.1-0.9 3.3-1.9 4.2-1.7zm147.7 30c-0.8 1-2.2 1.9-3.5 2.1c-0.4 0.1-1.9-1.9-1.7-2.7c0.2-1 1.7-1.7 3.2-3c1 1.7 2.2 3.3 2 3.6zm-357.4 830.4c0.3-0.1 1.6 2.2 1.3 2.6c-0.7 1.1-2 1.9-3.3 2.5c-0.2 0.1-1.3-1.5-2.5-3c1.9-1 3.1-1.8 4.5-2.1zm-9.4 49c0.7 0 2 2.2 1.7 2.7c-0.5 1-1.9 2.1-3.1 2.2c-0.7 0-1.5-1.6-2.9-3.1c1.9-0.9 3.1-1.9 4.3-1.8zm339.7-611.4c0.7 0 1.4 1.6 2.1 2.5c-1.1 0.7-2.1 1.8-3.3 2c-0.7 0.1-1.6-1.2-3.2-2.4c2-1.1 3.2-2.1 4.4-2.1zm-245.4 503.4c0.6-0.1 1.9 2 1.7 2.7c-0.3 1-1.7 2.2-2.8 2.4c-0.6 0.1-1.5-1.6-2.9-3c1.8-1.1 2.9-2.1 4-2.1zm200.1-261.7c0.7 0 1.3 1.7 1.9 2.7c-1.2 0.6-2.3 1.6-3.5 1.7c-0.6 0.1-1.4-1.3-2.8-2.7c2-0.9 3.2-1.8 4.4-1.7zm-203.8 137.6c1.1-0.5 2.3-1.6 3.2-1.4c0.9 0.3 2 1.7 2.1 2.8c0.1 0.6-1.6 1.4-3.1 2.7c-1-1.8-1.6-3-2.2-4.1zm159.9 106.3c-0.8 1-2.2 1.8-3.5 2.2c-0.2 0.1-1.8-1.8-1.6-2.3c0.5-1.2 1.7-2.1 3.4-4c0.9 2.1 2 3.6 1.7 4.1zm-109.4-97c1 0.4 1.7 1.9 2.5 3c-1.1 0.5-2.2 1.6-3.1 1.4c-1.1-0.2-2-1.5-3.9-3c2.3-0.8 3.7-1.8 4.5-1.4zm-83.8 183.5c1 0.7 1.7 2.2 1.8 3.4c0.1 0.5-1.9 1.9-2.4 1.7c-1.1-0.5-1.8-1.8-3.3-3.3c1.9-0.9 3.4-2.1 3.9-1.8zm-62.1-83.7c0-0.3 2-1.7 2.4-1.5c1.1 0.6 1.8 1.9 2.7 2.8c-0.8 0.7-1.5 1.4-2.9 2.6c-1-1.7-1.9-2.7-2.2-3.9zm127.9-3.4c0.8-0.1 1.6 1.3 2.4 2c-1.2 0.8-2.2 2-3.5 2.4c-0.5 0.2-1.5-1.1-3.2-2.4c2-1 3.1-2 4.3-2zm96.2 22.5c-0.7-0.1-1.4-1.8-2-2.7c1.1-0.6 2.2-1.5 3.4-1.6c0.7-0.1 1.6 1.2 3.2 2.5c-2.2 0.9-3.4 1.9-4.6 1.8zm32.2-321.8c0.7-1 2-1.6 3.1-2.3c0.6 0.8 1.8 1.9 1.6 2.5c-0.4 1.1-1.6 1.9-3.1 3.4c-0.8-1.8-1.9-3.1-1.6-3.6zm-31.5-607.4c-0.5 1-1.8 1.6-2.8 2.4c-0.6-0.8-2-1.9-1.8-2.4c0.4-1.2 1.6-2 3.1-3.7c0.8 1.9 1.8 3.1 1.5 3.7zm-37.8 191.3c0.9 0.4 1.5 1.7 2.3 2.6c-1 0.7-2 2-2.9 1.9c-0.9-0.2-1.6-1.6-2.9-3.2c1.6-0.6 2.8-1.6 3.5-1.3zm-30.6-228.7c-0.6 1.1-1.9 1.8-2.9 2.6c-0.6-0.8-1.9-1.9-1.8-2.4c0.5-1.2 1.7-2.2 3.3-4.2c0.8 2.1 1.7 3.4 1.4 4zm120.7 546.5c0.8 0.1 1.4 1.4 2.1 2.3c-1.1 0.7-2.1 1.7-3.3 2c-0.5 0.1-1.3-1.4-2.6-2.8c1.8-0.8 2.9-1.7 3.8-1.5zm-1.8-249.2c-0.5 1-1.8 1.7-2.8 2.5c-0.5-0.9-1.7-2-1.5-2.7c0.4-1.1 1.6-2 3.1-3.8c0.7 2.1 1.6 3.3 1.2 4zm-492.5 635.5c0 0.4-1.4 1.1-2.2 1.7c-0.8-1.2-1.8-2.3-2.3-3.6c-0.2-0.4 1-1.4 2.2-3c1.1 2.2 1.9 3.5 2.3 4.9zm405.2-325.1c0.2-0.8 2-1.9 2.7-1.7c0.9 0.3 2 1.9 2 2.8c-0.1 0.8-1.6 1.5-3 2.8c-0.9-1.8-1.9-3-1.7-3.9zm-48.6-135.3c0.2-0.7 2-2 2.4-1.8c0.9 0.5 2 1.8 2 2.8c0 0.8-1.4 1.6-2.9 3.1c-0.7-2-1.7-3.1-1.5-4.1zm-277.3 574.8c-0.9 0.5-2.1 1.6-2.6 1.3c-1.1-0.5-2-1.7-2.5-2.8c-0.2-0.2 1.4-1.3 2.7-2.5c1 1.7 1.7 2.8 2.4 4zm204.2-314.6c1 1 1.7 2.3 2.3 3.6c0.1 0.2-1.9 1.6-2.1 1.5c-1.1-0.8-2-2-3.5-3.7c1.8-0.8 3.1-1.6 3.3-1.4zm259.6-300c-0.6 1-1.8 1.9-2.9 2.1c-0.5 0.1-2-1.7-1.8-2.3c0.2-1 1.5-1.7 2.8-3c0.9 1.5 2.1 2.8 1.9 3.2zm-113 326.7c0.7 0.1 1.2 1.6 1.8 2.5c-1 0.6-2 1.7-3.1 1.7c-0.7 0.1-1.4-1.3-2.8-2.7c1.9-0.8 3.1-1.6 4.1-1.5zm-136.6 50.6c0.4-1 1.7-1.5 2.7-2.2c0.5 1 1.5 1.9 1.5 2.8c0 0.8-1.2 1.6-2.5 2.9c-0.9-1.7-2-2.9-1.7-3.5zm95.1-781.3c0.4-1 1.7-1.6 2.7-2.3c0.6 0.8 1.8 1.8 1.7 2.5c-0.2 1-1.4 1.8-2.8 3.4c-0.9-1.7-1.9-2.9-1.6-3.6zm31.8-22.3c0.5 0 1.7 1.9 1.5 2.5c-0.3 1-1.6 2-2.6 2.2c-0.6 0.1-1.4-1.5-2.6-2.8c1.6-0.9 2.6-1.8 3.7-1.9zm-132.3 976.1c0.4 1.1 1.3 2.3 1.1 3.3c-0.1 0.7-1.9 1.9-2.4 1.7c-1-0.5-1.5-1.8-2.6-3.3c1.7-0.8 2.8-1.3 3.9-1.7zm110-202c0.1-0.8 1.6-1.4 2.4-2.1c0.7 1 1.7 2 1.8 3c0.1 0.7-1.2 1.6-2.5 3c-0.9-1.8-1.9-3-1.7-3.9zm131.4-299.5c0.5-0.8 1.9-1.6 3-1.6c0.6 0.1 1.9 1.9 1.7 2.5c-0.4 0.9-1.7 1.5-3.2 2.5c-0.8-1.5-1.9-2.9-1.5-3.4zm-174-260.9c0.5 0 1.6 1.7 1.5 2.6c-0.1 0.8-1.5 2.2-2.1 2.1c-1-0.2-1.8-1.4-3.3-2.7c1.8-1 2.9-2 3.9-2zm-50.7 793.3c0.2-0.8 1.7-1.3 2.6-1.9c0.6 1.1 1.6 2.1 1.6 3.2c0 0.7-1.3 1.4-2.6 2.7c-0.8-1.9-1.7-3-1.6-4zm189.3-590.9c-0.3 1-1.4 1.8-2.2 2.6c-0.7-0.9-1.9-1.9-1.8-2.8c0-0.9 1.3-1.8 2.6-3.5c0.8 1.9 1.6 3 1.4 3.7zm-215.1 485.6c0 0.6-1.9 1.8-2.5 1.6c-0.9-0.3-1.8-1.7-1.9-2.6c-0.1-0.7 1.3-1.5 2.7-2.8c0.8 1.7 1.8 2.8 1.7 3.8zm207-437.3c-0.1 0.7-1.8 1.9-2.3 1.7c-1-0.3-2.3-1.6-2.2-2.4c0-0.9 1.5-1.7 2.9-3.2c0.8 1.8 1.7 2.9 1.6 3.9zm-53.1-384.6c-0.6 0.9-1.8 1.7-2.9 1.8c-0.5 0.1-1.9-1.8-1.7-2.3c0.4-1 1.6-1.7 3.1-3c0.8 1.7 1.8 3 1.5 3.5zm45.2 134.6c0.4-0.9 1.8-1.7 2.8-1.7c0.6-0.1 1.9 1.7 1.7 2.4c-0.3 0.9-1.6 1.5-3.1 2.8c-0.7-1.6-1.7-2.9-1.4-3.5zm-177.5 540.4c1-0.2 2.3-0.8 3-0.3c1 0.5 1.7 1.7 2 2.8c0.1 0.4-1.6 1.9-1.9 1.8c-1-0.5-1.7-1.5-2.5-2.3q-0.3-1-0.6-2zm456.9 240c0.5-2.7 0.9-4.8 1.3-7c-4.1 0.9-4.6 2.8-1.3 7zm-302.7-634.1c-0.1 0.7-1.6 1.1-2.5 1.7c-0.6-1.1-1.6-2.1-1.6-3.1c0-0.7 1.5-1.4 2.9-2.6c0.6 1.8 1.4 3 1.2 4zm18-98c-0.5 0.9-1.8 1.3-2.7 2c-0.5-0.9-1.7-2-1.4-2.4c0.5-1 1.7-1.7 3.2-3c0.5 1.6 1.2 2.8 0.9 3.4zm-317.5 765.7c-0.5 0.9-1.8 1.5-2.8 2.1c-0.5-0.8-1.7-1.9-1.5-2.6c0.2-0.9 1.5-1.7 2.9-3.2c0.7 1.9 1.7 3.1 1.4 3.7zm305.2-844.5c0.9 0.7 1.5 1.8 1.8 2.9c0.1 0.3-1.8 1.6-2.2 1.4c-1-0.5-1.6-1.6-2.9-3.1c1.6-0.7 2.9-1.5 3.3-1.2zm-131.5 852.9c-0.5 0.9-1.7 1.7-2.8 2c-0.4 0.2-1.9-1.7-1.7-2.3c0.3-0.9 1.5-1.7 2.9-3c0.8 1.6 1.9 2.8 1.6 3.3zm92.6-658.7c0-0.4 1.9-1.4 2.3-1.1c0.9 0.6 1.8 1.7 1.9 2.7c0.1 0.5-1.5 1.3-3 2.3c-0.6-1.7-1.2-2.8-1.2-3.9zm-248.8 550.9c0.8 0.2 1.3 1.6 2 2.5c-1.1 0.5-2.1 1.5-3.2 1.4c-0.8 0-1.6-1.2-3.1-2.4c2-0.8 3.3-1.7 4.3-1.5zm152.9-19.6c0.6 0 1.2 1.4 1.8 2.1c-0.9 0.7-1.7 1.8-2.6 1.9c-0.8 0.1-1.7-1-3.4-2.2c2-0.9 3.1-1.8 4.2-1.8zm161.3-194.8c0.9 0.2 1.6 1.4 2.3 2.2c-0.9 0.6-1.9 1.7-2.9 1.7c-0.7 0.1-1.5-1.2-3-2.5c1.8-0.8 2.8-1.6 3.6-1.4zm-53.7-258.4c0.1-0.6 1.6-1.7 2.2-1.6c0.8 0.2 2 1.4 1.9 2.2c0 0.8-1.2 1.5-2.5 2.9c-0.8-1.6-1.7-2.6-1.6-3.5zm-136.5 599.6c0.3-0.7 1.8-1.6 2.7-1.5c0.7 0.2 1.6 1.7 1.5 2.5c-0.1 0.8-1.4 1.4-2.7 2.5c-0.7-1.6-1.7-2.8-1.5-3.5zm39.1-869.9c0.9 0.5 1.3 1.9 1.9 2.8c-0.8 0.5-1.8 1.6-2.4 1.4c-1-0.4-1.7-1.5-3.2-3c1.8-0.6 3.1-1.5 3.7-1.2zm72.8-135.1c0.6-1 1.9-1.7 3-2c0.3-0.1 1.7 1.7 1.5 2.2c-0.4 1-1.5 1.8-2.9 3.2c-0.8-1.7-1.8-3-1.6-3.4zm-171.4-8.9c1 0.8 1.6 2 2.4 3c-0.8 0.5-1.9 1.6-2.4 1.4c-1-0.4-1.7-1.6-3-3c1.5-0.7 2.7-1.6 3-1.4zm-143 1029.7q-0.2-2.2-0.4-4.4c1.3-0.1 2.7-0.2 5.1-0.3c-1.5 2.3-2.3 3.5-3.2 4.7q-0.7 0-1.5 0zm378-558.3c0.2-0.7 1.7-1.6 2.5-1.4c0.8 0.1 2 1.6 1.9 2.2c-0.2 0.8-1.5 1.4-2.8 2.6c-0.8-1.6-1.8-2.6-1.6-3.4zm-205 309.8c0.5 0 1.5 1.8 1.2 2.3c-0.5 0.8-1.7 1.7-2.6 1.6c-0.7 0-1.4-1.4-2.7-2.8c1.9-0.6 3.1-1.2 4.1-1.1zm-124 126.8c0.8 0.2 1.2 1.6 1.8 2.5c-0.9 0.5-1.9 1.6-2.8 1.6c-0.7-0.1-1.4-1.4-2.7-2.8c1.8-0.7 2.9-1.5 3.7-1.3zm218.2-235.2c0.5-0.1 1.8 1.6 1.7 1.9c-0.5 1.1-1.4 2.1-2.4 2.6c-0.4 0.2-1.5-1.2-2.9-2.4c1.6-1 2.5-1.9 3.6-2.1zm-149.7 272.7c0.4 1 1.3 2.1 1 2.8c-0.3 0.7-1.9 1.5-2.6 1.3c-0.8-0.3-1.7-1.7-1.6-2.5c0-1 1-2 1.6-3q0.8 0.7 1.6 1.4zm180.9-165.6c0.3-0.1 0.9 1.5 1.3 2.3c-1 0.5-2.1 1.2-3.2 1.4c-0.4 0.1-1.1-1-2.1-2.1c1.7-0.8 2.8-1.5 4-1.6zm-27.1-655.5c0.8 0.5 1.2 1.7 1.8 2.6c-0.8 0.5-1.9 1.6-2.3 1.4c-1-0.6-1.7-1.7-3.1-3.3c1.8-0.4 3-1.1 3.6-0.7zm-347.8 785.3c0.8 0.5 1.5 1.7 1.5 2.7c0 0.4-1.6 1.6-2.1 1.4c-0.8-0.4-1.4-1.5-2.5-2.9c1.5-0.6 2.7-1.5 3.1-1.2zm322.8-938.2c0.1-0.8 1.5-1.3 2.4-1.8c0.6 0.8 1.5 1.7 1.6 2.6c0 0.6-1.1 1.3-2.2 2.6c-0.9-1.6-2-2.7-1.8-3.4zm-181.8 841.2c0.1-0.6 1.4-1 2.2-1.6c0.5 1 1.4 1.9 1.4 2.8c0 0.7-1.1 1.4-2.4 2.7c-0.7-1.9-1.4-2.9-1.2-3.9zm185.1 210.6c0.6-0.8 1.7-1.5 2.8-1.7c0.3-0.1 1.5 1.6 1.3 2.1c-0.3 0.9-1.4 1.5-2.7 2.7c-0.7-1.5-1.6-2.7-1.4-3.1zm-288.4-54.2c0.9-0.6 1.7-1.5 2.7-1.5c0.6 0 1.8 1.3 1.7 1.9c-0.1 0.9-1.2 1.6-2.3 2.9c-1-1.5-1.6-2.4-2.1-3.3zm336.6-312.3c-0.5 0.8-1.6 1.5-2.6 1.7c-0.4 0-1.7-1.7-1.5-2c0.7-1 1.7-1.7 3.2-3c0.5 1.6 1.3 2.7 0.9 3.3zm-361.5 332.4q-2-0.7-4-1.5q1-1.2 2-2.4q1.4 1.2 2.9 2.4q-0.4 0.8-0.9 1.5zm237.7-82.7c0.7 0.2 1.4 1.7 1.3 2.6c0 0.6-1.5 1.6-2.2 1.4c-0.8-0.1-1.5-1.3-2.9-2.6c1.9-0.7 3-1.6 3.8-1.4zm150.9-273.2c0.8 0.3 1.5 1.7 1.5 2.7c0.1 0.6-1.4 1.8-2 1.7c-0.9-0.3-1.6-1.4-2.9-2.6c1.6-0.9 2.8-2.1 3.4-1.8zm-285 322.3c0.6 0 1 1.5 1.5 2.3c-1 0.6-2 1.4-3.1 1.6c-0.5 0.1-1.2-1.2-2.3-2.6c1.8-0.6 2.9-1.4 3.9-1.3zm169.4-917.1c0-0.4 1.9-1.6 2.2-1.3c0.9 0.5 1.7 1.6 2 2.6c0.1 0.4-1.3 1.2-2.4 2.3c-0.9-1.7-1.7-2.6-1.8-3.6z" /></svg>